solid OpenSCAD_Model
  facet normal -1 0 0
    outer loop
      vertex 0 0 0
      vertex 0 0 1
      vertex 0 60 0
    endloop
  endfacet
  facet normal -1 0 0
    outer loop
      vertex 0 60 0
      vertex 0 0 1
      vertex 0 60 1
    endloop
  endfacet
  facet normal 0 -1 0
    outer loop
      vertex 0 0 1
      vertex 0 0 0
      vertex 1 0 0
    endloop
  endfacet
  facet normal 0 -1 0
    outer loop
      vertex 1 0 1
      vertex 0 0 1
      vertex 1 0 0
    endloop
  endfacet
  facet normal 0 0 -1
    outer loop
      vertex 0 0 0
      vertex 0 60 0
      vertex 1 0 0
    endloop
  endfacet
  facet normal 0 0 -1
    outer loop
      vertex 1 0 0
      vertex 0 60 0
      vertex 1 60 0
    endloop
  endfacet
  facet normal 0 1 0
    outer loop
      vertex 0 60 0
      vertex 0 60 1
      vertex 1 60 0
    endloop
  endfacet
  facet normal 0 1 0
    outer loop
      vertex 1 60 0
      vertex 0 60 1
      vertex 1 60 1
    endloop
  endfacet
  facet normal 0 0 1
    outer loop
      vertex 0 60 1
      vertex 0 0 1
      vertex 1 0 1
    endloop
  endfacet
  facet normal 0 0 1
    outer loop
      vertex 1 60 1
      vertex 0 60 1
      vertex 1 0 1
    endloop
  endfacet
  facet normal 1 0 0
    outer loop
      vertex 1 0 1
      vertex 1 0 0
      vertex 1 60 0
    endloop
  endfacet
  facet normal 1 0 0
    outer loop
      vertex 1 60 1
      vertex 1 0 1
      vertex 1 60 0
    endloop
  endfacet
  facet normal -1 0 0
    outer loop
      vertex 3 0 0
      vertex 3 0 1.2
      vertex 3 60 0
    endloop
  endfacet
  facet normal -1 0 0
    outer loop
      vertex 3 60 0
      vertex 3 0 1.2
      vertex 3 60 1.2
    endloop
  endfacet
  facet normal 0 -1 0
    outer loop
      vertex 3 0 1.2
      vertex 3 0 0
      vertex 4.2 0 0
    endloop
  endfacet
  facet normal 0 -1 0
    outer loop
      vertex 4.2 0 1.2
      vertex 3 0 1.2
      vertex 4.2 0 0
    endloop
  endfacet
  facet normal 0 0 -1
    outer loop
      vertex 3 0 0
      vertex 3 60 0
      vertex 4.2 0 0
    endloop
  endfacet
  facet normal 0 0 -1
    outer loop
      vertex 4.2 0 0
      vertex 3 60 0
      vertex 4.2 60 0
    endloop
  endfacet
  facet normal 0 1 0
    outer loop
      vertex 3 60 0
      vertex 3 60 1.2
      vertex 4.2 60 0
    endloop
  endfacet
  facet normal 0 1 0
    outer loop
      vertex 4.2 60 0
      vertex 3 60 1.2
      vertex 4.2 60 1.2
    endloop
  endfacet
  facet normal 0 0 1
    outer loop
      vertex 3 60 1.2
      vertex 3 0 1.2
      vertex 4.2 0 1.2
    endloop
  endfacet
  facet normal 0 0 1
    outer loop
      vertex 4.2 60 1.2
      vertex 3 60 1.2
      vertex 4.2 0 1.2
    endloop
  endfacet
  facet normal 1 0 0
    outer loop
      vertex 4.2 0 1.2
      vertex 4.2 0 0
      vertex 4.2 60 0
    endloop
  endfacet
  facet normal 1 0 0
    outer loop
      vertex 4.2 60 1.2
      vertex 4.2 0 1.2
      vertex 4.2 60 0
    endloop
  endfacet
  facet normal -1 0 0
    outer loop
      vertex 6 0 0
      vertex 6 0 1.4
      vertex 6 60 0
    endloop
  endfacet
  facet normal -1 0 0
    outer loop
      vertex 6 60 0
      vertex 6 0 1.4
      vertex 6 60 1.4
    endloop
  endfacet
  facet normal 0 -1 0
    outer loop
      vertex 6 0 1.4
      vertex 6 0 0
      vertex 7.4 0 0
    endloop
  endfacet
  facet normal 0 -1 0
    outer loop
      vertex 7.4 0 1.4
      vertex 6 0 1.4
      vertex 7.4 0 0
    endloop
  endfacet
  facet normal 0 0 -1
    outer loop
      vertex 6 0 0
      vertex 6 60 0
      vertex 7.4 0 0
    endloop
  endfacet
  facet normal 0 0 -1
    outer loop
      vertex 7.4 0 0
      vertex 6 60 0
      vertex 7.4 60 0
    endloop
  endfacet
  facet normal 0 1 0
    outer loop
      vertex 6 60 0
      vertex 6 60 1.4
      vertex 7.4 60 0
    endloop
  endfacet
  facet normal 0 1 0
    outer loop
      vertex 7.4 60 0
      vertex 6 60 1.4
      vertex 7.4 60 1.4
    endloop
  endfacet
  facet normal 0 0 1
    outer loop
      vertex 6 60 1.4
      vertex 6 0 1.4
      vertex 7.4 0 1.4
    endloop
  endfacet
  facet normal 0 0 1
    outer loop
      vertex 7.4 60 1.4
      vertex 6 60 1.4
      vertex 7.4 0 1.4
    endloop
  endfacet
  facet normal 1 0 0
    outer loop
      vertex 7.4 0 1.4
      vertex 7.4 0 0
      vertex 7.4 60 0
    endloop
  endfacet
  facet normal 1 0 0
    outer loop
      vertex 7.4 60 1.4
      vertex 7.4 0 1.4
      vertex 7.4 60 0
    endloop
  endfacet
  facet normal -1 0 0
    outer loop
      vertex 9 0 0
      vertex 9 0 1.6
      vertex 9 60 0
    endloop
  endfacet
  facet normal -1 0 0
    outer loop
      vertex 9 60 0
      vertex 9 0 1.6
      vertex 9 60 1.6
    endloop
  endfacet
  facet normal 0 -1 0
    outer loop
      vertex 9 0 1.6
      vertex 9 0 0
      vertex 10.6 0 0
    endloop
  endfacet
  facet normal 0 -1 0
    outer loop
      vertex 10.6 0 1.6
      vertex 9 0 1.6
      vertex 10.6 0 0
    endloop
  endfacet
  facet normal 0 0 -1
    outer loop
      vertex 9 0 0
      vertex 9 60 0
      vertex 10.6 0 0
    endloop
  endfacet
  facet normal 0 0 -1
    outer loop
      vertex 10.6 0 0
      vertex 9 60 0
      vertex 10.6 60 0
    endloop
  endfacet
  facet normal 0 1 0
    outer loop
      vertex 9 60 0
      vertex 9 60 1.6
      vertex 10.6 60 0
    endloop
  endfacet
  facet normal 0 1 0
    outer loop
      vertex 10.6 60 0
      vertex 9 60 1.6
      vertex 10.6 60 1.6
    endloop
  endfacet
  facet normal 0 0 1
    outer loop
      vertex 9 60 1.6
      vertex 9 0 1.6
      vertex 10.6 0 1.6
    endloop
  endfacet
  facet normal 0 0 1
    outer loop
      vertex 10.6 60 1.6
      vertex 9 60 1.6
      vertex 10.6 0 1.6
    endloop
  endfacet
  facet normal 1 0 0
    outer loop
      vertex 10.6 0 1.6
      vertex 10.6 0 0
      vertex 10.6 60 0
    endloop
  endfacet
  facet normal 1 0 0
    outer loop
      vertex 10.6 60 1.6
      vertex 10.6 0 1.6
      vertex 10.6 60 0
    endloop
  endfacet
  facet normal -1 0 0
    outer loop
      vertex 12 0 0
      vertex 12 0 1.8
      vertex 12 60 0
    endloop
  endfacet
  facet normal -1 0 0
    outer loop
      vertex 12 60 0
      vertex 12 0 1.8
      vertex 12 60 1.8
    endloop
  endfacet
  facet normal 0 -1 0
    outer loop
      vertex 12 0 1.8
      vertex 12 0 0
      vertex 13.8 0 0
    endloop
  endfacet
  facet normal 0 -1 0
    outer loop
      vertex 13.8 0 1.8
      vertex 12 0 1.8
      vertex 13.8 0 0
    endloop
  endfacet
  facet normal 0 0 -1
    outer loop
      vertex 12 0 0
      vertex 12 60 0
      vertex 13.8 0 0
    endloop
  endfacet
  facet normal 0 0 -1
    outer loop
      vertex 13.8 0 0
      vertex 12 60 0
      vertex 13.8 60 0
    endloop
  endfacet
  facet normal 0 1 0
    outer loop
      vertex 12 60 0
      vertex 12 60 1.8
      vertex 13.8 60 0
    endloop
  endfacet
  facet normal 0 1 0
    outer loop
      vertex 13.8 60 0
      vertex 12 60 1.8
      vertex 13.8 60 1.8
    endloop
  endfacet
  facet normal 0 0 1
    outer loop
      vertex 12 60 1.8
      vertex 12 0 1.8
      vertex 13.8 0 1.8
    endloop
  endfacet
  facet normal 0 0 1
    outer loop
      vertex 13.8 60 1.8
      vertex 12 60 1.8
      vertex 13.8 0 1.8
    endloop
  endfacet
  facet normal 1 0 0
    outer loop
      vertex 13.8 0 1.8
      vertex 13.8 0 0
      vertex 13.8 60 0
    endloop
  endfacet
  facet normal 1 0 0
    outer loop
      vertex 13.8 60 1.8
      vertex 13.8 0 1.8
      vertex 13.8 60 0
    endloop
  endfacet
endsolid OpenSCAD_Model
