solid OpenSCAD_Model
  facet normal -1 0 0
    outer loop
      vertex -5 -5 -2.5
      vertex -5 -5 2.5
      vertex -5 5 -2.5
    endloop
  endfacet
  facet normal -1 0 0
    outer loop
      vertex -5 5 -2.5
      vertex -5 -5 2.5
      vertex -5 5 2.5
    endloop
  endfacet
  facet normal 0 -1 0
    outer loop
      vertex -5 -5 2.5
      vertex -5 -5 -2.5
      vertex 29 -5 -2.5
    endloop
  endfacet
  facet normal 0 -1 0
    outer loop
      vertex 29 -5 2.5
      vertex -5 -5 2.5
      vertex 29 -5 -2.5
    endloop
  endfacet
  facet normal 0 0 -1
    outer loop
      vertex -5 -5 -2.5
      vertex -5 5 -2.5
      vertex 29 -5 -2.5
    endloop
  endfacet
  facet normal 0 0 -1
    outer loop
      vertex 29 -5 -2.5
      vertex -5 5 -2.5
      vertex 29 5 -2.5
    endloop
  endfacet
  facet normal 0 1 0
    outer loop
      vertex -5 5 -2.5
      vertex -5 5 2.5
      vertex 29 5 -2.5
    endloop
  endfacet
  facet normal 0 1 0
    outer loop
      vertex 29 5 -2.5
      vertex -5 5 2.5
      vertex 29 5 2.5
    endloop
  endfacet
  facet normal 0 0 1
    outer loop
      vertex 0.444984 -1.36952 2.5
      vertex -5 -5 2.5
      vertex 29 -5 2.5
    endloop
  endfacet
  facet normal 0 0 1
    outer loop
      vertex 8.74026 1.06094 2.5
      vertex 9.10026 0.799388 2.5
      vertex 15.2968 -0.946817 2.5
    endloop
  endfacet
  facet normal 0 0 1
    outer loop
      vertex -5 5 2.5
      vertex -5 -5 2.5
      vertex -1.44 0 2.5
    endloop
  endfacet
  facet normal 0 0 1
    outer loop
      vertex 0.444984 -1.36952 2.5
      vertex -0.444984 -1.36952 2.5
      vertex -5 -5 2.5
    endloop
  endfacet
  facet normal 0 0 1
    outer loop
      vertex -5 5 2.5
      vertex -1.44 0 2.5
      vertex -1.34833 0.282137 2.5
    endloop
  endfacet
  facet normal 0 0 1
    outer loop
      vertex 6.89974 -0.799388 2.5
      vertex 6.77751 -0.423205 2.5
      vertex 1.25666 0.564274 2.5
    endloop
  endfacet
  facet normal 0 0 1
    outer loop
      vertex -5 5 2.5
      vertex -1.34833 0.282137 2.5
      vertex -1.16498 0.84641 2.5
    endloop
  endfacet
  facet normal 0 0 1
    outer loop
      vertex 16.3832 -1.17931 2.5
      vertex 15.6168 -1.17931 2.5
      vertex 29 -5 2.5
    endloop
  endfacet
  facet normal 0 0 1
    outer loop
      vertex -5 5 2.5
      vertex -1.16498 0.84641 2.5
      vertex -0.924984 1.02078 2.5
    endloop
  endfacet
  facet normal 0 0 1
    outer loop
      vertex 1.16498 0.84641 2.5
      vertex 1.25666 0.564274 2.5
      vertex 6.77751 -0.423205 2.5
    endloop
  endfacet
  facet normal 0 0 1
    outer loop
      vertex -5 5 2.5
      vertex -0.924984 1.02078 2.5
      vertex -0.444984 1.36952 2.5
    endloop
  endfacet
  facet normal 0 0 1
    outer loop
      vertex 15.6168 -1.17931 2.5
      vertex 9.22249 0.423205 2.5
      vertex 29 -5 2.5
    endloop
  endfacet
  facet normal 0 0 1
    outer loop
      vertex -5 5 2.5
      vertex -0.444984 1.36952 2.5
      vertex 0.444984 1.36952 2.5
    endloop
  endfacet
  facet normal 0 0 1
    outer loop
      vertex 9.10026 0.799388 2.5
      vertex 9.22249 0.423205 2.5
      vertex 15.6168 -1.17931 2.5
    endloop
  endfacet
  facet normal 0 0 1
    outer loop
      vertex 23.5797 1.29344 2.5
      vertex 24.4203 1.29344 2.5
      vertex 29 5 2.5
    endloop
  endfacet
  facet normal 0 0 1
    outer loop
      vertex 14.9968 -0.728853 2.5
      vertex 14.8746 -0.352671 2.5
      vertex 8.42026 1.29344 2.5
    endloop
  endfacet
  facet normal 0 0 1
    outer loop
      vertex 7.57974 -1.29344 2.5
      vertex 1.34833 -0.282137 2.5
      vertex 29 -5 2.5
    endloop
  endfacet
  facet normal 0 0 1
    outer loop
      vertex 1.16498 -0.84641 2.5
      vertex 0.924984 -1.02078 2.5
      vertex 29 -5 2.5
    endloop
  endfacet
  facet normal 0 0 1
    outer loop
      vertex 0.924984 -1.02078 2.5
      vertex 0.444984 -1.36952 2.5
      vertex 29 -5 2.5
    endloop
  endfacet
  facet normal 0 0 1
    outer loop
      vertex -0.684984 -1.19515 2.5
      vertex -5 -5 2.5
      vertex -0.444984 -1.36952 2.5
    endloop
  endfacet
  facet normal 0 0 1
    outer loop
      vertex -1.16498 -0.84641 2.5
      vertex -5 -5 2.5
      vertex -0.684984 -1.19515 2.5
    endloop
  endfacet
  facet normal 0 0 1
    outer loop
      vertex -1.25666 -0.564274 2.5
      vertex -5 -5 2.5
      vertex -1.16498 -0.84641 2.5
    endloop
  endfacet
  facet normal 0 0 1
    outer loop
      vertex -1.44 0 2.5
      vertex -5 -5 2.5
      vertex -1.25666 -0.564274 2.5
    endloop
  endfacet
  facet normal 0 0 1
    outer loop
      vertex -5 5 2.5
      vertex 0.444984 1.36952 2.5
      vertex 6.64 0 2.5
    endloop
  endfacet
  facet normal 0 0 1
    outer loop
      vertex 9.23777 -0.376182 2.5
      vertex 9.10026 -0.799388 2.5
      vertex 29 -5 2.5
    endloop
  endfacet
  facet normal 0 0 1
    outer loop
      vertex -5 5 2.5
      vertex 6.64 0 2.5
      vertex 6.76223 0.376182 2.5
    endloop
  endfacet
  facet normal 0 0 1
    outer loop
      vertex 9.36 0 2.5
      vertex 9.23777 -0.376182 2.5
      vertex 29 -5 2.5
    endloop
  endfacet
  facet normal 0 0 1
    outer loop
      vertex -5 5 2.5
      vertex 6.76223 0.376182 2.5
      vertex 6.89974 0.799388 2.5
    endloop
  endfacet
  facet normal 0 0 1
    outer loop
      vertex 9.22249 0.423205 2.5
      vertex 9.36 0 2.5
      vertex 29 -5 2.5
    endloop
  endfacet
  facet normal 0 0 1
    outer loop
      vertex -5 5 2.5
      vertex 6.89974 0.799388 2.5
      vertex 7.21974 1.03188 2.5
    endloop
  endfacet
  facet normal 0 0 1
    outer loop
      vertex 8.78026 -1.03188 2.5
      vertex 8.42026 -1.29344 2.5
      vertex 29 -5 2.5
    endloop
  endfacet
  facet normal 0 0 1
    outer loop
      vertex -5 5 2.5
      vertex 7.21974 1.03188 2.5
      vertex 7.57974 1.29344 2.5
    endloop
  endfacet
  facet normal 0 0 1
    outer loop
      vertex 15.6168 1.17931 2.5
      vertex 16.3832 1.17931 2.5
      vertex 29 5 2.5
    endloop
  endfacet
  facet normal 0 0 1
    outer loop
      vertex 29 5 2.5
      vertex -5 5 2.5
      vertex 8.42026 1.29344 2.5
    endloop
  endfacet
  facet normal 0 0 1
    outer loop
      vertex 7.25974 -1.06094 2.5
      vertex 6.89974 -0.799388 2.5
      vertex 1.44 0 2.5
    endloop
  endfacet
  facet normal 0 0 1
    outer loop
      vertex 1.44 0 2.5
      vertex 1.34833 -0.282137 2.5
      vertex 7.57974 -1.29344 2.5
    endloop
  endfacet
  facet normal 0 0 1
    outer loop
      vertex 6.77751 -0.423205 2.5
      vertex 0.684984 1.19515 2.5
      vertex 1.16498 0.84641 2.5
    endloop
  endfacet
  facet normal 0 0 1
    outer loop
      vertex 1.34833 -0.282137 2.5
      vertex 1.16498 -0.84641 2.5
      vertex 29 -5 2.5
    endloop
  endfacet
  facet normal 0 0 1
    outer loop
      vertex 7.57974 -1.29344 2.5
      vertex 7.25974 -1.06094 2.5
      vertex 1.44 0 2.5
    endloop
  endfacet
  facet normal 0 0 1
    outer loop
      vertex 8.42026 -1.29344 2.5
      vertex 7.57974 -1.29344 2.5
      vertex 29 -5 2.5
    endloop
  endfacet
  facet normal 0 0 1
    outer loop
      vertex 16.6832 -0.961347 2.5
      vertex 16.3832 -1.17931 2.5
      vertex 29 -5 2.5
    endloop
  endfacet
  facet normal 0 0 1
    outer loop
      vertex 14.76 0 2.5
      vertex 8.42026 1.29344 2.5
      vertex 14.8746 -0.352671 2.5
    endloop
  endfacet
  facet normal 0 0 1
    outer loop
      vertex 14.8822 0.376182 2.5
      vertex 8.42026 1.29344 2.5
      vertex 14.76 0 2.5
    endloop
  endfacet
  facet normal 0 0 1
    outer loop
      vertex 14.9968 0.728853 2.5
      vertex 8.42026 1.29344 2.5
      vertex 14.8822 0.376182 2.5
    endloop
  endfacet
  facet normal 0 0 1
    outer loop
      vertex 16.7032 0.946817 2.5
      vertex 17.0032 0.728853 2.5
      vertex 29 5 2.5
    endloop
  endfacet
  facet normal 0 0 1
    outer loop
      vertex 15.3168 0.961347 2.5
      vertex 8.42026 1.29344 2.5
      vertex 14.9968 0.728853 2.5
    endloop
  endfacet
  facet normal 0 0 1
    outer loop
      vertex 15.6168 1.17931 2.5
      vertex 8.42026 1.29344 2.5
      vertex 15.3168 0.961347 2.5
    endloop
  endfacet
  facet normal 0 0 1
    outer loop
      vertex 29 5 2.5
      vertex 8.42026 1.29344 2.5
      vertex 15.6168 1.17931 2.5
    endloop
  endfacet
  facet normal 0 0 1
    outer loop
      vertex 17.0032 0.728853 2.5
      vertex 17.1254 0.352671 2.5
      vertex 29 5 2.5
    endloop
  endfacet
  facet normal 0 0 1
    outer loop
      vertex 17.0032 -0.728853 2.5
      vertex 16.6832 -0.961347 2.5
      vertex 29 -5 2.5
    endloop
  endfacet
  facet normal 0 0 1
    outer loop
      vertex 23.5797 -1.29344 2.5
      vertex 17.1254 0.352671 2.5
      vertex 29 -5 2.5
    endloop
  endfacet
  facet normal 0 0 1
    outer loop
      vertex 17.1254 0.352671 2.5
      vertex 17.24 0 2.5
      vertex 29 -5 2.5
    endloop
  endfacet
  facet normal 0 0 1
    outer loop
      vertex 17.24 0 2.5
      vertex 17.1178 -0.376182 2.5
      vertex 29 -5 2.5
    endloop
  endfacet
  facet normal 0 0 1
    outer loop
      vertex 17.1178 -0.376182 2.5
      vertex 17.0032 -0.728853 2.5
      vertex 29 -5 2.5
    endloop
  endfacet
  facet normal 0 0 1
    outer loop
      vertex 15.6168 -1.17931 2.5
      vertex 15.2968 -0.946817 2.5
      vertex 9.10026 0.799388 2.5
    endloop
  endfacet
  facet normal 0 0 1
    outer loop
      vertex 9.10026 -0.799388 2.5
      vertex 8.78026 -1.03188 2.5
      vertex 29 -5 2.5
    endloop
  endfacet
  facet normal 0 0 1
    outer loop
      vertex 15.2968 -0.946817 2.5
      vertex 14.9968 -0.728853 2.5
      vertex 8.42026 1.29344 2.5
    endloop
  endfacet
  facet normal 0 0 1
    outer loop
      vertex 15.2968 -0.946817 2.5
      vertex 8.42026 1.29344 2.5
      vertex 8.74026 1.06094 2.5
    endloop
  endfacet
  facet normal 0 0 1
    outer loop
      vertex 16.3832 1.17931 2.5
      vertex 16.7032 0.946817 2.5
      vertex 29 5 2.5
    endloop
  endfacet
  facet normal 0 0 1
    outer loop
      vertex 22.7164 0.235114 2.5
      vertex 17.1254 0.352671 2.5
      vertex 22.64 0 2.5
    endloop
  endfacet
  facet normal 0 0 1
    outer loop
      vertex 22.8997 0.799388 2.5
      vertex 17.1254 0.352671 2.5
      vertex 22.7164 0.235114 2.5
    endloop
  endfacet
  facet normal 0 0 1
    outer loop
      vertex 25.1767 0.564274 2.5
      vertex 25.36 0 2.5
      vertex 29 -5 2.5
    endloop
  endfacet
  facet normal 0 0 1
    outer loop
      vertex 23.0997 0.944696 2.5
      vertex 17.1254 0.352671 2.5
      vertex 22.8997 0.799388 2.5
    endloop
  endfacet
  facet normal 0 0 1
    outer loop
      vertex 23.5797 1.29344 2.5
      vertex 17.1254 0.352671 2.5
      vertex 23.0997 0.944696 2.5
    endloop
  endfacet
  facet normal 0 0 1
    outer loop
      vertex 29 5 2.5
      vertex 17.1254 0.352671 2.5
      vertex 23.5797 1.29344 2.5
    endloop
  endfacet
  facet normal 0 0 1
    outer loop
      vertex 24.4203 -1.29344 2.5
      vertex 23.5797 -1.29344 2.5
      vertex 29 -5 2.5
    endloop
  endfacet
  facet normal 0 0 1
    outer loop
      vertex 29 5 2.5
      vertex 24.4203 1.29344 2.5
      vertex 24.6203 1.14813 2.5
    endloop
  endfacet
  facet normal 0 0 1
    outer loop
      vertex 29 5 2.5
      vertex 25.1003 0.799388 2.5
      vertex 29 -5 2.5
    endloop
  endfacet
  facet normal 0 0 1
    outer loop
      vertex 29 5 2.5
      vertex 24.6203 1.14813 2.5
      vertex 25.1003 0.799388 2.5
    endloop
  endfacet
  facet normal 0 0 1
    outer loop
      vertex 25.1003 0.799388 2.5
      vertex 25.1767 0.564274 2.5
      vertex 29 -5 2.5
    endloop
  endfacet
  facet normal 0 0 1
    outer loop
      vertex 25.36 0 2.5
      vertex 25.2836 -0.235114 2.5
      vertex 29 -5 2.5
    endloop
  endfacet
  facet normal 0 0 1
    outer loop
      vertex 25.2836 -0.235114 2.5
      vertex 25.1003 -0.799388 2.5
      vertex 29 -5 2.5
    endloop
  endfacet
  facet normal 0 0 1
    outer loop
      vertex 25.1003 -0.799388 2.5
      vertex 24.9003 -0.944696 2.5
      vertex 29 -5 2.5
    endloop
  endfacet
  facet normal 0 0 1
    outer loop
      vertex 24.9003 -0.944696 2.5
      vertex 24.4203 -1.29344 2.5
      vertex 29 -5 2.5
    endloop
  endfacet
  facet normal 0 0 1
    outer loop
      vertex 23.3797 -1.14813 2.5
      vertex 17.1254 0.352671 2.5
      vertex 23.5797 -1.29344 2.5
    endloop
  endfacet
  facet normal 0 0 1
    outer loop
      vertex 22.8997 -0.799388 2.5
      vertex 17.1254 0.352671 2.5
      vertex 23.3797 -1.14813 2.5
    endloop
  endfacet
  facet normal 0 0 1
    outer loop
      vertex 22.64 0 2.5
      vertex 17.1254 0.352671 2.5
      vertex 22.8997 -0.799388 2.5
    endloop
  endfacet
  facet normal 0 0 1
    outer loop
      vertex 22.64 0 2.5
      vertex 22.8997 -0.799388 2.5
      vertex 22.8233 -0.564274 2.5
    endloop
  endfacet
  facet normal 0 0 1
    outer loop
      vertex 7.57974 1.29344 2.5
      vertex 8.42026 1.29344 2.5
      vertex -5 5 2.5
    endloop
  endfacet
  facet normal 0 0 1
    outer loop
      vertex 1.25666 0.564274 2.5
      vertex 1.44 0 2.5
      vertex 6.89974 -0.799388 2.5
    endloop
  endfacet
  facet normal 0 0 1
    outer loop
      vertex 6.77751 -0.423205 2.5
      vertex 0.444984 1.36952 2.5
      vertex 0.684984 1.19515 2.5
    endloop
  endfacet
  facet normal 0 0 1
    outer loop
      vertex 6.77751 -0.423205 2.5
      vertex 6.64 0 2.5
      vertex 0.444984 1.36952 2.5
    endloop
  endfacet
  facet normal 1 0 0
    outer loop
      vertex 29 -5 2.5
      vertex 29 -5 -2.5
      vertex 29 5 -2.5
    endloop
  endfacet
  facet normal 1 0 0
    outer loop
      vertex 29 5 2.5
      vertex 29 -5 2.5
      vertex 29 5 -2.5
    endloop
  endfacet
  facet normal 0.950369 0.308794 -0.0380148
    outer loop
      vertex -1.44 0 2.5
      vertex -1.25666 -0.564274 2.5
      vertex -1.29443 -0.940456 -1.5
    endloop
  endfacet
  facet normal 0.950369 0.308794 -0.0380148
    outer loop
      vertex -1.6 0 -1.5
      vertex -1.44 0 2.5
      vertex -1.29443 -0.940456 -1.5
    endloop
  endfacet
  facet normal 0.950369 -0.308794 -0.0380148
    outer loop
      vertex -1.34833 0.282137 2.5
      vertex -1.44 0 2.5
      vertex -1.6 0 -1.5
    endloop
  endfacet
  facet normal 0.950369 0.308794 -0.0380148
    outer loop
      vertex -1.25666 -0.564274 2.5
      vertex -1.16498 -0.84641 2.5
      vertex -1.29443 -0.940456 -1.5
    endloop
  endfacet
  facet normal 0.58736 0.808432 -0.0380148
    outer loop
      vertex -0.684984 -1.19515 2.5
      vertex -0.494427 -1.52169 -1.5
      vertex -1.16498 -0.84641 2.5
    endloop
  endfacet
  facet normal 0.58736 0.808432 -0.0380148
    outer loop
      vertex -1.16498 -0.84641 2.5
      vertex -0.494427 -1.52169 -1.5
      vertex -1.29443 -0.940456 -1.5
    endloop
  endfacet
  facet normal 0.587361 0.808432 -0.0380147
    outer loop
      vertex -0.444984 -1.36952 2.5
      vertex -0.494427 -1.52169 -1.5
      vertex -0.684984 -1.19515 2.5
    endloop
  endfacet
  facet normal 0 0.999277 -0.0380147
    outer loop
      vertex 0.444984 -1.36952 2.5
      vertex 0.494427 -1.52169 -1.5
      vertex -0.444984 -1.36952 2.5
    endloop
  endfacet
  facet normal 0 0.999277 -0.0380147
    outer loop
      vertex -0.444984 -1.36952 2.5
      vertex 0.494427 -1.52169 -1.5
      vertex -0.494427 -1.52169 -1.5
    endloop
  endfacet
  facet normal -0.58736 0.808432 -0.0380147
    outer loop
      vertex 1.29443 -0.940456 -1.5
      vertex 0.494427 -1.52169 -1.5
      vertex 0.924984 -1.02078 2.5
    endloop
  endfacet
  facet normal -0.58736 0.808432 -0.0380147
    outer loop
      vertex 0.924984 -1.02078 2.5
      vertex 0.494427 -1.52169 -1.5
      vertex 0.444984 -1.36952 2.5
    endloop
  endfacet
  facet normal -0.587361 0.808432 -0.0380148
    outer loop
      vertex 1.16498 -0.84641 2.5
      vertex 1.29443 -0.940456 -1.5
      vertex 0.924984 -1.02078 2.5
    endloop
  endfacet
  facet normal -0.950369 0.308794 -0.0380148
    outer loop
      vertex 1.6 0 -1.5
      vertex 1.29443 -0.940456 -1.5
      vertex 1.34833 -0.282137 2.5
    endloop
  endfacet
  facet normal -0.950369 0.308794 -0.0380148
    outer loop
      vertex 1.34833 -0.282137 2.5
      vertex 1.29443 -0.940456 -1.5
      vertex 1.16498 -0.84641 2.5
    endloop
  endfacet
  facet normal -0.950369 0.308794 -0.0380148
    outer loop
      vertex 1.44 0 2.5
      vertex 1.6 0 -1.5
      vertex 1.34833 -0.282137 2.5
    endloop
  endfacet
  facet normal -0.950369 -0.308794 -0.0380148
    outer loop
      vertex 1.6 0 -1.5
      vertex 1.44 0 2.5
      vertex 1.29443 0.940456 -1.5
    endloop
  endfacet
  facet normal -0.950369 -0.308794 -0.0380148
    outer loop
      vertex 1.29443 0.940456 -1.5
      vertex 1.44 0 2.5
      vertex 1.25666 0.564274 2.5
    endloop
  endfacet
  facet normal -0.950369 -0.308794 -0.0380148
    outer loop
      vertex 1.29443 0.940456 -1.5
      vertex 1.25666 0.564274 2.5
      vertex 1.16498 0.84641 2.5
    endloop
  endfacet
  facet normal -0.58736 -0.808432 -0.0380148
    outer loop
      vertex 1.29443 0.940456 -1.5
      vertex 1.16498 0.84641 2.5
      vertex 0.684984 1.19515 2.5
    endloop
  endfacet
  facet normal -0.58736 -0.808432 -0.0380148
    outer loop
      vertex 0.494427 1.52169 -1.5
      vertex 1.29443 0.940456 -1.5
      vertex 0.684984 1.19515 2.5
    endloop
  endfacet
  facet normal -0.587361 -0.808432 -0.0380147
    outer loop
      vertex 0.494427 1.52169 -1.5
      vertex 0.684984 1.19515 2.5
      vertex 0.444984 1.36952 2.5
    endloop
  endfacet
  facet normal 0 -0.999277 -0.0380147
    outer loop
      vertex 0.494427 1.52169 -1.5
      vertex 0.444984 1.36952 2.5
      vertex -0.444984 1.36952 2.5
    endloop
  endfacet
  facet normal 0 -0.999277 -0.0380147
    outer loop
      vertex -0.494427 1.52169 -1.5
      vertex 0.494427 1.52169 -1.5
      vertex -0.444984 1.36952 2.5
    endloop
  endfacet
  facet normal 0.58736 -0.808432 -0.0380147
    outer loop
      vertex -0.494427 1.52169 -1.5
      vertex -0.444984 1.36952 2.5
      vertex -0.924984 1.02078 2.5
    endloop
  endfacet
  facet normal 0.58736 -0.808432 -0.0380147
    outer loop
      vertex -1.29443 0.940456 -1.5
      vertex -0.494427 1.52169 -1.5
      vertex -0.924984 1.02078 2.5
    endloop
  endfacet
  facet normal 0.587361 -0.808432 -0.0380148
    outer loop
      vertex -0.924984 1.02078 2.5
      vertex -1.16498 0.84641 2.5
      vertex -1.29443 0.940456 -1.5
    endloop
  endfacet
  facet normal 0.950369 -0.308794 -0.0380148
    outer loop
      vertex -1.29443 0.940456 -1.5
      vertex -1.16498 0.84641 2.5
      vertex -1.34833 0.282137 2.5
    endloop
  endfacet
  facet normal 0.950369 -0.308794 -0.0380148
    outer loop
      vertex -1.6 0 -1.5
      vertex -1.29443 0.940456 -1.5
      vertex -1.34833 0.282137 2.5
    endloop
  endfacet
  facet normal 0.950369 0.308794 0.0380148
    outer loop
      vertex 6.77751 -0.423205 2.5
      vertex 7.02918 -0.705342 -1.5
      vertex 6.8 0 -1.5
    endloop
  endfacet
  facet normal 0.950369 0.308794 0.0380148
    outer loop
      vertex 6.64 0 2.5
      vertex 6.77751 -0.423205 2.5
      vertex 6.8 0 -1.5
    endloop
  endfacet
  facet normal 0.950369 -0.308794 0.0380148
    outer loop
      vertex 6.8 0 -1.5
      vertex 6.76223 0.376182 2.5
      vertex 6.64 0 2.5
    endloop
  endfacet
  facet normal 0.950369 0.308794 0.0380148
    outer loop
      vertex 6.89974 -0.799388 2.5
      vertex 7.02918 -0.705342 -1.5
      vertex 6.77751 -0.423205 2.5
    endloop
  endfacet
  facet normal 0.587361 0.808432 0.0380148
    outer loop
      vertex 7.62918 -1.14127 -1.5
      vertex 7.02918 -0.705342 -1.5
      vertex 7.25974 -1.06094 2.5
    endloop
  endfacet
  facet normal 0.587361 0.808432 0.0380148
    outer loop
      vertex 7.25974 -1.06094 2.5
      vertex 7.02918 -0.705342 -1.5
      vertex 6.89974 -0.799388 2.5
    endloop
  endfacet
  facet normal 0.58736 0.808432 0.0380147
    outer loop
      vertex 7.57974 -1.29344 2.5
      vertex 7.62918 -1.14127 -1.5
      vertex 7.25974 -1.06094 2.5
    endloop
  endfacet
  facet normal 0 0.999277 0.0380147
    outer loop
      vertex 8.37082 -1.14127 -1.5
      vertex 7.62918 -1.14127 -1.5
      vertex 8.42026 -1.29344 2.5
    endloop
  endfacet
  facet normal 0 0.999277 0.0380147
    outer loop
      vertex 8.42026 -1.29344 2.5
      vertex 7.62918 -1.14127 -1.5
      vertex 7.57974 -1.29344 2.5
    endloop
  endfacet
  facet normal -0.587361 0.808432 0.0380147
    outer loop
      vertex 8.78026 -1.03188 2.5
      vertex 8.97082 -0.705342 -1.5
      vertex 8.42026 -1.29344 2.5
    endloop
  endfacet
  facet normal -0.587361 0.808432 0.0380147
    outer loop
      vertex 8.42026 -1.29344 2.5
      vertex 8.97082 -0.705342 -1.5
      vertex 8.37082 -1.14127 -1.5
    endloop
  endfacet
  facet normal -0.58736 0.808432 0.0380148
    outer loop
      vertex 9.10026 -0.799388 2.5
      vertex 8.97082 -0.705342 -1.5
      vertex 8.78026 -1.03188 2.5
    endloop
  endfacet
  facet normal -0.950369 0.308794 0.0380148
    outer loop
      vertex 9.23777 -0.376182 2.5
      vertex 9.2 0 -1.5
      vertex 9.10026 -0.799388 2.5
    endloop
  endfacet
  facet normal -0.950369 0.308794 0.0380148
    outer loop
      vertex 9.10026 -0.799388 2.5
      vertex 9.2 0 -1.5
      vertex 8.97082 -0.705342 -1.5
    endloop
  endfacet
  facet normal -0.950369 0.308794 0.0380148
    outer loop
      vertex 9.23777 -0.376182 2.5
      vertex 9.36 0 2.5
      vertex 9.2 0 -1.5
    endloop
  endfacet
  facet normal -0.950369 -0.308794 0.0380148
    outer loop
      vertex 9.36 0 2.5
      vertex 9.22249 0.423205 2.5
      vertex 9.2 0 -1.5
    endloop
  endfacet
  facet normal -0.950369 -0.308794 0.0380148
    outer loop
      vertex 9.2 0 -1.5
      vertex 9.22249 0.423205 2.5
      vertex 8.97082 0.705342 -1.5
    endloop
  endfacet
  facet normal -0.950369 -0.308794 0.0380148
    outer loop
      vertex 9.22249 0.423205 2.5
      vertex 9.10026 0.799388 2.5
      vertex 8.97082 0.705342 -1.5
    endloop
  endfacet
  facet normal -0.587361 -0.808432 0.0380148
    outer loop
      vertex 8.97082 0.705342 -1.5
      vertex 9.10026 0.799388 2.5
      vertex 8.74026 1.06094 2.5
    endloop
  endfacet
  facet normal -0.587361 -0.808432 0.0380148
    outer loop
      vertex 8.37082 1.14127 -1.5
      vertex 8.97082 0.705342 -1.5
      vertex 8.74026 1.06094 2.5
    endloop
  endfacet
  facet normal -0.58736 -0.808432 0.0380147
    outer loop
      vertex 8.74026 1.06094 2.5
      vertex 8.42026 1.29344 2.5
      vertex 8.37082 1.14127 -1.5
    endloop
  endfacet
  facet normal 0 -0.999277 0.0380147
    outer loop
      vertex 7.62918 1.14127 -1.5
      vertex 8.37082 1.14127 -1.5
      vertex 8.42026 1.29344 2.5
    endloop
  endfacet
  facet normal 0 -0.999277 0.0380147
    outer loop
      vertex 7.57974 1.29344 2.5
      vertex 7.62918 1.14127 -1.5
      vertex 8.42026 1.29344 2.5
    endloop
  endfacet
  facet normal 0.587361 -0.808432 0.0380147
    outer loop
      vertex 7.62918 1.14127 -1.5
      vertex 7.57974 1.29344 2.5
      vertex 7.21974 1.03188 2.5
    endloop
  endfacet
  facet normal 0.587361 -0.808432 0.0380147
    outer loop
      vertex 7.02918 0.705342 -1.5
      vertex 7.62918 1.14127 -1.5
      vertex 7.21974 1.03188 2.5
    endloop
  endfacet
  facet normal 0.58736 -0.808432 0.0380148
    outer loop
      vertex 7.02918 0.705342 -1.5
      vertex 7.21974 1.03188 2.5
      vertex 6.89974 0.799388 2.5
    endloop
  endfacet
  facet normal 0.950369 -0.308794 0.0380148
    outer loop
      vertex 6.8 0 -1.5
      vertex 7.02918 0.705342 -1.5
      vertex 6.89974 0.799388 2.5
    endloop
  endfacet
  facet normal 0.950369 -0.308794 0.0380148
    outer loop
      vertex 6.76223 0.376182 2.5
      vertex 6.8 0 -1.5
      vertex 6.89974 0.799388 2.5
    endloop
  endfacet
  facet normal 0.949512 0.308515 0.0569707
    outer loop
      vertex 14.9968 -0.728853 2.5
      vertex 15.191 -0.587785 -1.5
      vertex 14.8746 -0.352671 2.5
    endloop
  endfacet
  facet normal 0.949512 0.308515 0.0569707
    outer loop
      vertex 14.8746 -0.352671 2.5
      vertex 15.191 -0.587785 -1.5
      vertex 15 0 -1.5
    endloop
  endfacet
  facet normal 0.949512 0.308515 0.0569707
    outer loop
      vertex 14.76 0 2.5
      vertex 14.8746 -0.352671 2.5
      vertex 15 0 -1.5
    endloop
  endfacet
  facet normal 0.586831 0.807702 0.0569707
    outer loop
      vertex 15.691 -0.951057 -1.5
      vertex 15.191 -0.587785 -1.5
      vertex 15.2968 -0.946817 2.5
    endloop
  endfacet
  facet normal 0.586831 0.807702 0.0569707
    outer loop
      vertex 15.2968 -0.946817 2.5
      vertex 15.191 -0.587785 -1.5
      vertex 14.9968 -0.728853 2.5
    endloop
  endfacet
  facet normal 0.586831 0.807703 0.0569706
    outer loop
      vertex 15.6168 -1.17931 2.5
      vertex 15.691 -0.951057 -1.5
      vertex 15.2968 -0.946817 2.5
    endloop
  endfacet
  facet normal 0 0.998376 0.0569706
    outer loop
      vertex 16.309 -0.951057 -1.5
      vertex 15.691 -0.951057 -1.5
      vertex 16.3832 -1.17931 2.5
    endloop
  endfacet
  facet normal 0 0.998376 0.0569706
    outer loop
      vertex 16.3832 -1.17931 2.5
      vertex 15.691 -0.951057 -1.5
      vertex 15.6168 -1.17931 2.5
    endloop
  endfacet
  facet normal -0.586831 0.807702 0.0569706
    outer loop
      vertex 16.6832 -0.961347 2.5
      vertex 16.809 -0.587785 -1.5
      vertex 16.3832 -1.17931 2.5
    endloop
  endfacet
  facet normal -0.586831 0.807702 0.0569706
    outer loop
      vertex 16.3832 -1.17931 2.5
      vertex 16.809 -0.587785 -1.5
      vertex 16.309 -0.951057 -1.5
    endloop
  endfacet
  facet normal -0.586831 0.807703 0.0569707
    outer loop
      vertex 17.0032 -0.728853 2.5
      vertex 16.809 -0.587785 -1.5
      vertex 16.6832 -0.961347 2.5
    endloop
  endfacet
  facet normal -0.949512 0.308515 0.0569707
    outer loop
      vertex 17.1178 -0.376182 2.5
      vertex 17 0 -1.5
      vertex 17.0032 -0.728853 2.5
    endloop
  endfacet
  facet normal -0.949512 0.308515 0.0569707
    outer loop
      vertex 17.0032 -0.728853 2.5
      vertex 17 0 -1.5
      vertex 16.809 -0.587785 -1.5
    endloop
  endfacet
  facet normal -0.949512 0.308515 0.0569707
    outer loop
      vertex 17.1178 -0.376182 2.5
      vertex 17.24 0 2.5
      vertex 17 0 -1.5
    endloop
  endfacet
  facet normal -0.949512 -0.308515 0.0569707
    outer loop
      vertex 17.24 0 2.5
      vertex 17.1254 0.352671 2.5
      vertex 17 0 -1.5
    endloop
  endfacet
  facet normal -0.949512 -0.308515 0.0569707
    outer loop
      vertex 17 0 -1.5
      vertex 17.1254 0.352671 2.5
      vertex 16.809 0.587785 -1.5
    endloop
  endfacet
  facet normal -0.949512 -0.308515 0.0569707
    outer loop
      vertex 17.1254 0.352671 2.5
      vertex 17.0032 0.728853 2.5
      vertex 16.809 0.587785 -1.5
    endloop
  endfacet
  facet normal -0.586831 -0.807702 0.0569707
    outer loop
      vertex 16.809 0.587785 -1.5
      vertex 17.0032 0.728853 2.5
      vertex 16.7032 0.946817 2.5
    endloop
  endfacet
  facet normal -0.586831 -0.807702 0.0569707
    outer loop
      vertex 16.309 0.951057 -1.5
      vertex 16.809 0.587785 -1.5
      vertex 16.7032 0.946817 2.5
    endloop
  endfacet
  facet normal -0.586831 -0.807703 0.0569706
    outer loop
      vertex 16.7032 0.946817 2.5
      vertex 16.3832 1.17931 2.5
      vertex 16.309 0.951057 -1.5
    endloop
  endfacet
  facet normal 0 -0.998376 0.0569706
    outer loop
      vertex 15.691 0.951057 -1.5
      vertex 16.309 0.951057 -1.5
      vertex 16.3832 1.17931 2.5
    endloop
  endfacet
  facet normal 0 -0.998376 0.0569706
    outer loop
      vertex 15.6168 1.17931 2.5
      vertex 15.691 0.951057 -1.5
      vertex 16.3832 1.17931 2.5
    endloop
  endfacet
  facet normal 0.586831 -0.807702 0.0569706
    outer loop
      vertex 15.691 0.951057 -1.5
      vertex 15.6168 1.17931 2.5
      vertex 15.3168 0.961347 2.5
    endloop
  endfacet
  facet normal 0.586831 -0.807702 0.0569706
    outer loop
      vertex 15.191 0.587785 -1.5
      vertex 15.691 0.951057 -1.5
      vertex 15.3168 0.961347 2.5
    endloop
  endfacet
  facet normal 0.586831 -0.807703 0.0569707
    outer loop
      vertex 15.191 0.587785 -1.5
      vertex 15.3168 0.961347 2.5
      vertex 14.9968 0.728853 2.5
    endloop
  endfacet
  facet normal 0.949512 -0.308515 0.0569707
    outer loop
      vertex 15 0 -1.5
      vertex 15.191 0.587785 -1.5
      vertex 14.9968 0.728853 2.5
    endloop
  endfacet
  facet normal 0.949512 -0.308515 0.0569707
    outer loop
      vertex 14.8822 0.376182 2.5
      vertex 15 0 -1.5
      vertex 14.9968 0.728853 2.5
    endloop
  endfacet
  facet normal 0.949512 -0.308515 0.0569707
    outer loop
      vertex 15 0 -1.5
      vertex 14.8822 0.376182 2.5
      vertex 14.76 0 2.5
    endloop
  endfacet
  facet normal 0.949512 -0.308515 -0.0569707
    outer loop
      vertex 22.7164 0.235114 2.5
      vertex 22.64 0 2.5
      vertex 22.4 0 -1.5
    endloop
  endfacet
  facet normal 0.949512 0.308515 -0.0569707
    outer loop
      vertex 22.64 0 2.5
      vertex 22.8233 -0.564274 2.5
      vertex 22.7056 -0.940456 -1.5
    endloop
  endfacet
  facet normal 0.949512 0.308515 -0.0569707
    outer loop
      vertex 22.4 0 -1.5
      vertex 22.64 0 2.5
      vertex 22.7056 -0.940456 -1.5
    endloop
  endfacet
  facet normal 0.949512 0.308515 -0.0569707
    outer loop
      vertex 22.8233 -0.564274 2.5
      vertex 22.8997 -0.799388 2.5
      vertex 22.7056 -0.940456 -1.5
    endloop
  endfacet
  facet normal 0.586831 0.807703 -0.0569707
    outer loop
      vertex 23.3797 -1.14813 2.5
      vertex 23.5056 -1.52169 -1.5
      vertex 22.8997 -0.799388 2.5
    endloop
  endfacet
  facet normal 0.586831 0.807703 -0.0569707
    outer loop
      vertex 22.8997 -0.799388 2.5
      vertex 23.5056 -1.52169 -1.5
      vertex 22.7056 -0.940456 -1.5
    endloop
  endfacet
  facet normal 0.586831 0.807702 -0.0569706
    outer loop
      vertex 23.5797 -1.29344 2.5
      vertex 23.5056 -1.52169 -1.5
      vertex 23.3797 -1.14813 2.5
    endloop
  endfacet
  facet normal 0 0.998376 -0.0569706
    outer loop
      vertex 24.4203 -1.29344 2.5
      vertex 24.4944 -1.52169 -1.5
      vertex 23.5797 -1.29344 2.5
    endloop
  endfacet
  facet normal 0 0.998376 -0.0569706
    outer loop
      vertex 23.5797 -1.29344 2.5
      vertex 24.4944 -1.52169 -1.5
      vertex 23.5056 -1.52169 -1.5
    endloop
  endfacet
  facet normal -0.586831 0.807703 -0.0569706
    outer loop
      vertex 25.2944 -0.940456 -1.5
      vertex 24.4944 -1.52169 -1.5
      vertex 24.9003 -0.944696 2.5
    endloop
  endfacet
  facet normal -0.586831 0.807703 -0.0569706
    outer loop
      vertex 24.9003 -0.944696 2.5
      vertex 24.4944 -1.52169 -1.5
      vertex 24.4203 -1.29344 2.5
    endloop
  endfacet
  facet normal -0.586831 0.807702 -0.0569707
    outer loop
      vertex 25.1003 -0.799388 2.5
      vertex 25.2944 -0.940456 -1.5
      vertex 24.9003 -0.944696 2.5
    endloop
  endfacet
  facet normal -0.949512 0.308515 -0.0569707
    outer loop
      vertex 25.6 0 -1.5
      vertex 25.2944 -0.940456 -1.5
      vertex 25.2836 -0.235114 2.5
    endloop
  endfacet
  facet normal -0.949512 0.308515 -0.0569707
    outer loop
      vertex 25.2836 -0.235114 2.5
      vertex 25.2944 -0.940456 -1.5
      vertex 25.1003 -0.799388 2.5
    endloop
  endfacet
  facet normal -0.949512 0.308515 -0.0569707
    outer loop
      vertex 25.36 0 2.5
      vertex 25.6 0 -1.5
      vertex 25.2836 -0.235114 2.5
    endloop
  endfacet
  facet normal -0.949512 -0.308515 -0.0569707
    outer loop
      vertex 25.6 0 -1.5
      vertex 25.36 0 2.5
      vertex 25.2944 0.940456 -1.5
    endloop
  endfacet
  facet normal -0.949512 -0.308515 -0.0569707
    outer loop
      vertex 25.2944 0.940456 -1.5
      vertex 25.36 0 2.5
      vertex 25.1767 0.564274 2.5
    endloop
  endfacet
  facet normal -0.949512 -0.308515 -0.0569707
    outer loop
      vertex 25.2944 0.940456 -1.5
      vertex 25.1767 0.564274 2.5
      vertex 25.1003 0.799388 2.5
    endloop
  endfacet
  facet normal -0.586831 -0.807703 -0.0569707
    outer loop
      vertex 25.2944 0.940456 -1.5
      vertex 25.1003 0.799388 2.5
      vertex 24.6203 1.14813 2.5
    endloop
  endfacet
  facet normal -0.586831 -0.807703 -0.0569707
    outer loop
      vertex 24.4944 1.52169 -1.5
      vertex 25.2944 0.940456 -1.5
      vertex 24.6203 1.14813 2.5
    endloop
  endfacet
  facet normal -0.586831 -0.807702 -0.0569706
    outer loop
      vertex 24.4944 1.52169 -1.5
      vertex 24.6203 1.14813 2.5
      vertex 24.4203 1.29344 2.5
    endloop
  endfacet
  facet normal 0 -0.998376 -0.0569706
    outer loop
      vertex 24.4944 1.52169 -1.5
      vertex 24.4203 1.29344 2.5
      vertex 23.5797 1.29344 2.5
    endloop
  endfacet
  facet normal 0 -0.998376 -0.0569706
    outer loop
      vertex 23.5056 1.52169 -1.5
      vertex 24.4944 1.52169 -1.5
      vertex 23.5797 1.29344 2.5
    endloop
  endfacet
  facet normal 0.586831 -0.807703 -0.0569706
    outer loop
      vertex 23.5056 1.52169 -1.5
      vertex 23.5797 1.29344 2.5
      vertex 23.0997 0.944696 2.5
    endloop
  endfacet
  facet normal 0.586831 -0.807703 -0.0569706
    outer loop
      vertex 22.7056 0.940456 -1.5
      vertex 23.5056 1.52169 -1.5
      vertex 23.0997 0.944696 2.5
    endloop
  endfacet
  facet normal 0.586831 -0.807702 -0.0569707
    outer loop
      vertex 23.0997 0.944696 2.5
      vertex 22.8997 0.799388 2.5
      vertex 22.7056 0.940456 -1.5
    endloop
  endfacet
  facet normal 0.949512 -0.308515 -0.0569707
    outer loop
      vertex 22.7056 0.940456 -1.5
      vertex 22.8997 0.799388 2.5
      vertex 22.7164 0.235114 2.5
    endloop
  endfacet
  facet normal 0.949512 -0.308515 -0.0569707
    outer loop
      vertex 22.4 0 -1.5
      vertex 22.7056 0.940456 -1.5
      vertex 22.7164 0.235114 2.5
    endloop
  endfacet
  facet normal 0 0 1
    outer loop
      vertex -1.29443 -0.940456 -1.5
      vertex -0.494427 -1.52169 -1.5
      vertex 0.494427 -1.52169 -1.5
    endloop
  endfacet
  facet normal 0 0 1
    outer loop
      vertex 1.6 0 -1.5
      vertex -1.29443 -0.940456 -1.5
      vertex 1.29443 -0.940456 -1.5
    endloop
  endfacet
  facet normal 0 0 1
    outer loop
      vertex 1.29443 -0.940456 -1.5
      vertex -1.29443 -0.940456 -1.5
      vertex 0.494427 -1.52169 -1.5
    endloop
  endfacet
  facet normal 0 0 1
    outer loop
      vertex 1.29443 0.940456 -1.5
      vertex -1.29443 -0.940456 -1.5
      vertex 1.6 0 -1.5
    endloop
  endfacet
  facet normal 0 0 1
    outer loop
      vertex 0.494427 1.52169 -1.5
      vertex -1.29443 -0.940456 -1.5
      vertex 1.29443 0.940456 -1.5
    endloop
  endfacet
  facet normal 0 0 1
    outer loop
      vertex -0.494427 1.52169 -1.5
      vertex -1.29443 -0.940456 -1.5
      vertex 0.494427 1.52169 -1.5
    endloop
  endfacet
  facet normal 0 0 1
    outer loop
      vertex -1.29443 0.940456 -1.5
      vertex -1.29443 -0.940456 -1.5
      vertex -0.494427 1.52169 -1.5
    endloop
  endfacet
  facet normal 0 0 1
    outer loop
      vertex -1.6 0 -1.5
      vertex -1.29443 -0.940456 -1.5
      vertex -1.29443 0.940456 -1.5
    endloop
  endfacet
  facet normal 0 0 1
    outer loop
      vertex 7.02918 -0.705342 -1.5
      vertex 7.62918 -1.14127 -1.5
      vertex 8.37082 -1.14127 -1.5
    endloop
  endfacet
  facet normal 0 0 1
    outer loop
      vertex 9.2 0 -1.5
      vertex 7.02918 -0.705342 -1.5
      vertex 8.97082 -0.705342 -1.5
    endloop
  endfacet
  facet normal 0 0 1
    outer loop
      vertex 8.97082 -0.705342 -1.5
      vertex 7.02918 -0.705342 -1.5
      vertex 8.37082 -1.14127 -1.5
    endloop
  endfacet
  facet normal 0 0 1
    outer loop
      vertex 8.97082 0.705342 -1.5
      vertex 7.02918 -0.705342 -1.5
      vertex 9.2 0 -1.5
    endloop
  endfacet
  facet normal 0 0 1
    outer loop
      vertex 8.37082 1.14127 -1.5
      vertex 7.02918 -0.705342 -1.5
      vertex 8.97082 0.705342 -1.5
    endloop
  endfacet
  facet normal 0 0 1
    outer loop
      vertex 7.62918 1.14127 -1.5
      vertex 7.02918 -0.705342 -1.5
      vertex 8.37082 1.14127 -1.5
    endloop
  endfacet
  facet normal 0 0 1
    outer loop
      vertex 7.02918 0.705342 -1.5
      vertex 7.02918 -0.705342 -1.5
      vertex 7.62918 1.14127 -1.5
    endloop
  endfacet
  facet normal 0 0 1
    outer loop
      vertex 6.8 0 -1.5
      vertex 7.02918 -0.705342 -1.5
      vertex 7.02918 0.705342 -1.5
    endloop
  endfacet
  facet normal 0 0 1
    outer loop
      vertex 15.191 -0.587785 -1.5
      vertex 15.691 -0.951057 -1.5
      vertex 16.309 -0.951057 -1.5
    endloop
  endfacet
  facet normal 0 0 1
    outer loop
      vertex 17 0 -1.5
      vertex 15.191 -0.587785 -1.5
      vertex 16.809 -0.587785 -1.5
    endloop
  endfacet
  facet normal 0 0 1
    outer loop
      vertex 16.809 -0.587785 -1.5
      vertex 15.191 -0.587785 -1.5
      vertex 16.309 -0.951057 -1.5
    endloop
  endfacet
  facet normal 0 0 1
    outer loop
      vertex 16.809 0.587785 -1.5
      vertex 15.191 -0.587785 -1.5
      vertex 17 0 -1.5
    endloop
  endfacet
  facet normal 0 0 1
    outer loop
      vertex 16.309 0.951057 -1.5
      vertex 15.191 -0.587785 -1.5
      vertex 16.809 0.587785 -1.5
    endloop
  endfacet
  facet normal 0 0 1
    outer loop
      vertex 15.691 0.951057 -1.5
      vertex 15.191 -0.587785 -1.5
      vertex 16.309 0.951057 -1.5
    endloop
  endfacet
  facet normal 0 0 1
    outer loop
      vertex 15.191 0.587785 -1.5
      vertex 15.191 -0.587785 -1.5
      vertex 15.691 0.951057 -1.5
    endloop
  endfacet
  facet normal 0 0 1
    outer loop
      vertex 15 0 -1.5
      vertex 15.191 -0.587785 -1.5
      vertex 15.191 0.587785 -1.5
    endloop
  endfacet
  facet normal 0 0 1
    outer loop
      vertex 22.7056 -0.940456 -1.5
      vertex 23.5056 -1.52169 -1.5
      vertex 24.4944 -1.52169 -1.5
    endloop
  endfacet
  facet normal 0 0 1
    outer loop
      vertex 25.6 0 -1.5
      vertex 22.7056 -0.940456 -1.5
      vertex 25.2944 -0.940456 -1.5
    endloop
  endfacet
  facet normal 0 0 1
    outer loop
      vertex 25.2944 -0.940456 -1.5
      vertex 22.7056 -0.940456 -1.5
      vertex 24.4944 -1.52169 -1.5
    endloop
  endfacet
  facet normal 0 0 1
    outer loop
      vertex 25.2944 0.940456 -1.5
      vertex 22.7056 -0.940456 -1.5
      vertex 25.6 0 -1.5
    endloop
  endfacet
  facet normal 0 0 1
    outer loop
      vertex 24.4944 1.52169 -1.5
      vertex 22.7056 -0.940456 -1.5
      vertex 25.2944 0.940456 -1.5
    endloop
  endfacet
  facet normal 0 0 1
    outer loop
      vertex 23.5056 1.52169 -1.5
      vertex 22.7056 -0.940456 -1.5
      vertex 24.4944 1.52169 -1.5
    endloop
  endfacet
  facet normal 0 0 1
    outer loop
      vertex 22.7056 0.940456 -1.5
      vertex 22.7056 -0.940456 -1.5
      vertex 23.5056 1.52169 -1.5
    endloop
  endfacet
  facet normal 0 0 1
    outer loop
      vertex 22.4 0 -1.5
      vertex 22.7056 -0.940456 -1.5
      vertex 22.7056 0.940456 -1.5
    endloop
  endfacet
endsolid OpenSCAD_Model
