solid OpenSCAD_Model
  facet normal -1 0 0
    outer loop
      vertex 0 0 0
      vertex 0 0 1
      vertex 0 60 0
    endloop
  endfacet
  facet normal -1 0 0
    outer loop
      vertex 0 60 0
      vertex 0 0 1
      vertex 0 60 1
    endloop
  endfacet
  facet normal 0 -1 0
    outer loop
      vertex 0 0 1
      vertex 0 0 0
      vertex 1 0 0
    endloop
  endfacet
  facet normal 0 -1 0
    outer loop
      vertex 1 0 1
      vertex 0 0 1
      vertex 1 0 0
    endloop
  endfacet
  facet normal 0 0 -1
    outer loop
      vertex 0 0 0
      vertex 0 60 0
      vertex 1 0 0
    endloop
  endfacet
  facet normal 0 0 -1
    outer loop
      vertex 1 0 0
      vertex 0 60 0
      vertex 1 60 0
    endloop
  endfacet
  facet normal 0 1 0
    outer loop
      vertex 0 60 0
      vertex 0 60 1
      vertex 1 60 0
    endloop
  endfacet
  facet normal 0 1 0
    outer loop
      vertex 1 60 0
      vertex 0 60 1
      vertex 1 60 1
    endloop
  endfacet
  facet normal 0 0 1
    outer loop
      vertex 0 60 1
      vertex 0 0 1
      vertex 1 0 1
    endloop
  endfacet
  facet normal 0 0 1
    outer loop
      vertex 1 60 1
      vertex 0 60 1
      vertex 1 0 1
    endloop
  endfacet
  facet normal 1 0 0
    outer loop
      vertex 1 0 1
      vertex 1 0 0
      vertex 1 60 0
    endloop
  endfacet
  facet normal 1 0 0
    outer loop
      vertex 1 60 1
      vertex 1 0 1
      vertex 1 60 0
    endloop
  endfacet
  facet normal -1 0 0
    outer loop
      vertex 2 0 0
      vertex 2 0 1
      vertex 2 60 0
    endloop
  endfacet
  facet normal -1 0 0
    outer loop
      vertex 2 60 0
      vertex 2 0 1
      vertex 2 60 1
    endloop
  endfacet
  facet normal 0 -1 0
    outer loop
      vertex 2 0 1
      vertex 2 0 0
      vertex 3 0 0
    endloop
  endfacet
  facet normal 0 -1 0
    outer loop
      vertex 3 0 1
      vertex 2 0 1
      vertex 3 0 0
    endloop
  endfacet
  facet normal 0 0 -1
    outer loop
      vertex 2 0 0
      vertex 2 60 0
      vertex 3 0 0
    endloop
  endfacet
  facet normal 0 0 -1
    outer loop
      vertex 3 0 0
      vertex 2 60 0
      vertex 3 60 0
    endloop
  endfacet
  facet normal 0 1 0
    outer loop
      vertex 2 60 0
      vertex 2 60 1
      vertex 3 60 0
    endloop
  endfacet
  facet normal 0 1 0
    outer loop
      vertex 3 60 0
      vertex 2 60 1
      vertex 3 60 1
    endloop
  endfacet
  facet normal 0 0 1
    outer loop
      vertex 2 60 1
      vertex 2 0 1
      vertex 3 0 1
    endloop
  endfacet
  facet normal 0 0 1
    outer loop
      vertex 3 60 1
      vertex 2 60 1
      vertex 3 0 1
    endloop
  endfacet
  facet normal 1 0 0
    outer loop
      vertex 3 0 1
      vertex 3 0 0
      vertex 3 60 0
    endloop
  endfacet
  facet normal 1 0 0
    outer loop
      vertex 3 60 1
      vertex 3 0 1
      vertex 3 60 0
    endloop
  endfacet
  facet normal -1 0 0
    outer loop
      vertex 4 0 0
      vertex 4 0 1
      vertex 4 60 0
    endloop
  endfacet
  facet normal -1 0 0
    outer loop
      vertex 4 60 0
      vertex 4 0 1
      vertex 4 60 1
    endloop
  endfacet
  facet normal 0 -1 0
    outer loop
      vertex 4 0 1
      vertex 4 0 0
      vertex 5 0 0
    endloop
  endfacet
  facet normal 0 -1 0
    outer loop
      vertex 5 0 1
      vertex 4 0 1
      vertex 5 0 0
    endloop
  endfacet
  facet normal 0 0 -1
    outer loop
      vertex 4 0 0
      vertex 4 60 0
      vertex 5 0 0
    endloop
  endfacet
  facet normal 0 0 -1
    outer loop
      vertex 5 0 0
      vertex 4 60 0
      vertex 5 60 0
    endloop
  endfacet
  facet normal 0 1 0
    outer loop
      vertex 4 60 0
      vertex 4 60 1
      vertex 5 60 0
    endloop
  endfacet
  facet normal 0 1 0
    outer loop
      vertex 5 60 0
      vertex 4 60 1
      vertex 5 60 1
    endloop
  endfacet
  facet normal 0 0 1
    outer loop
      vertex 4 60 1
      vertex 4 0 1
      vertex 5 0 1
    endloop
  endfacet
  facet normal 0 0 1
    outer loop
      vertex 5 60 1
      vertex 4 60 1
      vertex 5 0 1
    endloop
  endfacet
  facet normal 1 0 0
    outer loop
      vertex 5 0 1
      vertex 5 0 0
      vertex 5 60 0
    endloop
  endfacet
  facet normal 1 0 0
    outer loop
      vertex 5 60 1
      vertex 5 0 1
      vertex 5 60 0
    endloop
  endfacet
  facet normal -1 0 0
    outer loop
      vertex 6 0 0
      vertex 6 0 1
      vertex 6 60 0
    endloop
  endfacet
  facet normal -1 0 0
    outer loop
      vertex 6 60 0
      vertex 6 0 1
      vertex 6 60 1
    endloop
  endfacet
  facet normal 0 -1 0
    outer loop
      vertex 6 0 1
      vertex 6 0 0
      vertex 7 0 0
    endloop
  endfacet
  facet normal 0 -1 0
    outer loop
      vertex 7 0 1
      vertex 6 0 1
      vertex 7 0 0
    endloop
  endfacet
  facet normal 0 0 -1
    outer loop
      vertex 6 0 0
      vertex 6 60 0
      vertex 7 0 0
    endloop
  endfacet
  facet normal 0 0 -1
    outer loop
      vertex 7 0 0
      vertex 6 60 0
      vertex 7 60 0
    endloop
  endfacet
  facet normal 0 1 0
    outer loop
      vertex 6 60 0
      vertex 6 60 1
      vertex 7 60 0
    endloop
  endfacet
  facet normal 0 1 0
    outer loop
      vertex 7 60 0
      vertex 6 60 1
      vertex 7 60 1
    endloop
  endfacet
  facet normal 0 0 1
    outer loop
      vertex 6 60 1
      vertex 6 0 1
      vertex 7 0 1
    endloop
  endfacet
  facet normal 0 0 1
    outer loop
      vertex 7 60 1
      vertex 6 60 1
      vertex 7 0 1
    endloop
  endfacet
  facet normal 1 0 0
    outer loop
      vertex 7 0 1
      vertex 7 0 0
      vertex 7 60 0
    endloop
  endfacet
  facet normal 1 0 0
    outer loop
      vertex 7 60 1
      vertex 7 0 1
      vertex 7 60 0
    endloop
  endfacet
endsolid OpenSCAD_Model
