solid OpenSCAD_Model
  facet normal -3.29408e-06 -0.267265 -0.963623
    outer loop
      vertex -6.68736 4.69757 4.52126
      vertex -6.93069 4.28242 4.6364
      vertex -6.93069 5.69238 4.24534
    endloop
  endfacet
  facet normal -1 0 0
    outer loop
      vertex -6.93069 4.28242 4.6364
      vertex -6.93069 4.44336 5.53165
      vertex -6.93069 5.69238 4.24534
    endloop
  endfacet
  facet normal -1 0 0
    outer loop
      vertex -6.93069 5.69238 4.24534
      vertex -6.93069 4.44336 5.53165
      vertex -6.93069 5.85331 5.14059
    endloop
  endfacet
  facet normal 0 -0.984223 0.176932
    outer loop
      vertex -6.93069 4.44336 5.53165
      vertex -6.93069 4.28242 4.6364
      vertex -4.9186 4.28242 4.6364
    endloop
  endfacet
  facet normal 0 -0.984223 0.176932
    outer loop
      vertex -6.20637 4.44336 5.53165
      vertex -6.93069 4.44336 5.53165
      vertex -4.22078 4.28242 4.6364
    endloop
  endfacet
  facet normal 0 -0.984223 0.176932
    outer loop
      vertex -4.22078 4.28242 4.6364
      vertex -6.93069 4.44336 5.53165
      vertex -4.9186 4.28242 4.6364
    endloop
  endfacet
  facet normal 0 -0.984223 0.176932
    outer loop
      vertex -4.22078 4.44336 5.53165
      vertex -4.9186 4.44336 5.53165
      vertex -4.22078 4.28242 4.6364
    endloop
  endfacet
  facet normal 0 -0.984223 0.176932
    outer loop
      vertex -4.9186 4.44336 5.53165
      vertex -5.60763 4.44336 5.53165
      vertex -4.22078 4.28242 4.6364
    endloop
  endfacet
  facet normal 0 -0.984223 0.176932
    outer loop
      vertex -5.60763 4.44336 5.53165
      vertex -6.20637 4.44336 5.53165
      vertex -4.22078 4.28242 4.6364
    endloop
  endfacet
  facet normal 0 -0.267267 -0.963623
    outer loop
      vertex -6.93069 4.28242 4.6364
      vertex -6.68736 4.69757 4.52126
      vertex -4.9186 4.28242 4.6364
    endloop
  endfacet
  facet normal 0 -0.267267 -0.963623
    outer loop
      vertex -4.9186 4.28242 4.6364
      vertex -6.68736 4.69757 4.52126
      vertex -6.20637 4.69757 4.52126
    endloop
  endfacet
  facet normal 0 -0.267267 -0.963623
    outer loop
      vertex -4.9186 4.28242 4.6364
      vertex -6.20637 4.69757 4.52126
      vertex -5.60763 4.69757 4.52126
    endloop
  endfacet
  facet normal 0 -0.267267 -0.963623
    outer loop
      vertex -4.9186 4.28242 4.6364
      vertex -5.60763 4.69757 4.52126
      vertex -5.16193 4.69757 4.52126
    endloop
  endfacet
  facet normal 0 -0.267264 -0.963623
    outer loop
      vertex -6.20637 4.69757 4.52126
      vertex -6.68736 4.69757 4.52126
      vertex -6.68736 5.52511 4.29174
    endloop
  endfacet
  facet normal 2.57612e-06 -0.267264 -0.963623
    outer loop
      vertex -6.68736 4.69757 4.52126
      vertex -6.93069 5.69238 4.24534
      vertex -6.68736 5.52511 4.29174
    endloop
  endfacet
  facet normal 1.0353e-06 -0.267266 -0.963623
    outer loop
      vertex -6.68736 5.52511 4.29174
      vertex -6.93069 5.69238 4.24534
      vertex -6.20637 6.97698 3.88905
    endloop
  endfacet
  facet normal -0.877811 0.47145 -0.0847515
    outer loop
      vertex -6.93069 5.69238 4.24534
      vertex -6.93069 5.85331 5.14059
      vertex -6.20637 6.97698 3.88905
    endloop
  endfacet
  facet normal -0.877811 0.47145 -0.0847515
    outer loop
      vertex -6.20637 6.97698 3.88905
      vertex -6.93069 5.85331 5.14059
      vertex -6.20637 7.13791 4.7843
    endloop
  endfacet
  facet normal 1.60547e-06 0.267264 0.963623
    outer loop
      vertex -6.93069 5.85331 5.14059
      vertex -6.93069 4.44336 5.53165
      vertex -6.20637 7.13791 4.7843
    endloop
  endfacet
  facet normal 0 0.267265 0.963623
    outer loop
      vertex -6.20637 7.13791 4.7843
      vertex -6.93069 4.44336 5.53165
      vertex -6.20637 4.44336 5.53165
    endloop
  endfacet
  facet normal -2.81377e-07 0.267265 0.963623
    outer loop
      vertex -6.20637 7.13791 4.7843
      vertex -6.20637 4.44336 5.53165
      vertex -5.60763 8.29017 4.46472
    endloop
  endfacet
  facet normal 0 0.267265 0.963623
    outer loop
      vertex -5.60763 8.29017 4.46472
      vertex -6.20637 4.44336 5.53165
      vertex -5.60763 4.44336 5.53165
    endloop
  endfacet
  facet normal 1.14962e-06 0.267265 0.963623
    outer loop
      vertex -5.60763 8.29017 4.46472
      vertex -5.60763 4.44336 5.53165
      vertex -4.9186 9.77235 4.05363
    endloop
  endfacet
  facet normal 0 0.267265 0.963623
    outer loop
      vertex -4.9186 9.77235 4.05363
      vertex -5.60763 4.44336 5.53165
      vertex -4.9186 4.44336 5.53165
    endloop
  endfacet
  facet normal 0 0.267265 0.963623
    outer loop
      vertex -4.22078 12.9378 3.17568
      vertex -4.9186 4.44336 5.53165
      vertex -4.22078 4.44336 5.53165
    endloop
  endfacet
  facet normal 5.36961e-07 0.267265 0.963623
    outer loop
      vertex -4.9186 9.77235 4.05363
      vertex -4.9186 4.44336 5.53165
      vertex -4.22078 12.9378 3.17568
    endloop
  endfacet
  facet normal -1 0 0
    outer loop
      vertex -4.22078 12.7769 2.28043
      vertex -4.22078 13.6076 1.21467
      vertex -4.22078 4.28242 4.6364
    endloop
  endfacet
  facet normal -1 0 0
    outer loop
      vertex -4.22078 12.9378 3.17568
      vertex -4.22078 3.61264 6.59741
      vertex -4.22078 14.0546 3.70128
    endloop
  endfacet
  facet normal -1 0 0
    outer loop
      vertex -4.22078 3.16563 4.11079
      vertex -4.22078 3.61264 6.59741
      vertex -4.22078 4.44336 5.53165
    endloop
  endfacet
  facet normal -1 0 0
    outer loop
      vertex -4.22078 3.16563 4.11079
      vertex -4.22078 4.44336 5.53165
      vertex -4.22078 4.28242 4.6364
    endloop
  endfacet
  facet normal -1 0 0
    outer loop
      vertex -4.22078 3.16563 4.11079
      vertex -4.22078 4.28242 4.6364
      vertex -4.22078 13.6076 1.21467
    endloop
  endfacet
  facet normal -1 0 0
    outer loop
      vertex -4.22078 13.6076 1.21467
      vertex -4.22078 12.7769 2.28043
      vertex -4.22078 14.0546 3.70128
    endloop
  endfacet
  facet normal -1 0 0
    outer loop
      vertex -4.22078 12.7769 2.28043
      vertex -4.22078 12.9378 3.17568
      vertex -4.22078 14.0546 3.70128
    endloop
  endfacet
  facet normal -1 0 0
    outer loop
      vertex -4.22078 4.44336 5.53165
      vertex -4.22078 3.61264 6.59741
      vertex -4.22078 12.9378 3.17568
    endloop
  endfacet
  facet normal 1.42704e-06 -0.267265 -0.963623
    outer loop
      vertex -4.22078 4.28242 4.6364
      vertex -4.9186 9.61141 3.15838
      vertex -4.22078 12.7769 2.28043
    endloop
  endfacet
  facet normal 0 -0.267265 -0.963623
    outer loop
      vertex -4.22078 4.28242 4.6364
      vertex -4.9186 4.28242 4.6364
      vertex -4.9186 9.61141 3.15838
    endloop
  endfacet
  facet normal 3.69401e-06 -0.267265 -0.963623
    outer loop
      vertex -4.9186 4.28242 4.6364
      vertex -5.16193 4.69757 4.52126
      vertex -5.16193 8.4199 3.48885
    endloop
  endfacet
  facet normal -1.71921e-06 -0.267265 -0.963623
    outer loop
      vertex -4.9186 4.28242 4.6364
      vertex -5.16193 8.4199 3.48885
      vertex -4.9186 9.61141 3.15838
    endloop
  endfacet
  facet normal -3.93815e-06 -0.267265 -0.963623
    outer loop
      vertex -5.16193 4.69757 4.52126
      vertex -5.42112 7.86234 3.64349
      vertex -5.16193 8.4199 3.48885
    endloop
  endfacet
  facet normal 0 -0.267264 -0.963623
    outer loop
      vertex -5.16193 4.69757 4.52126
      vertex -5.60763 4.69757 4.52126
      vertex -5.42112 7.86234 3.64349
    endloop
  endfacet
  facet normal 1.33158e-07 -0.267264 -0.963623
    outer loop
      vertex -5.60763 4.69757 4.52126
      vertex -6.02757 6.69525 3.96719
      vertex -5.42112 7.86234 3.64349
    endloop
  endfacet
  facet normal 0 -0.267264 -0.963623
    outer loop
      vertex -5.60763 4.69757 4.52126
      vertex -6.20637 4.69757 4.52126
      vertex -6.02757 6.69525 3.96719
    endloop
  endfacet
  facet normal -1.3638e-06 -0.267264 -0.963623
    outer loop
      vertex -6.20637 4.69757 4.52126
      vertex -6.68736 5.52511 4.29174
      vertex -6.02757 6.69525 3.96719
    endloop
  endfacet
  facet normal 1.44803e-06 -0.267266 -0.963623
    outer loop
      vertex -6.02757 6.69525 3.96719
      vertex -6.68736 5.52511 4.29174
      vertex -6.20637 6.97698 3.88905
    endloop
  endfacet
  facet normal 1.95741e-06 -0.267266 -0.963623
    outer loop
      vertex -6.02757 6.69525 3.96719
      vertex -6.20637 6.97698 3.88905
      vertex -5.60763 8.12924 3.56947
    endloop
  endfacet
  facet normal -0.893396 0.442182 -0.0794901
    outer loop
      vertex -5.60763 8.12924 3.56947
      vertex -6.20637 6.97698 3.88905
      vertex -6.20637 7.13791 4.7843
    endloop
  endfacet
  facet normal -0.893396 0.442182 -0.0794901
    outer loop
      vertex -5.60763 8.12924 3.56947
      vertex -6.20637 7.13791 4.7843
      vertex -5.60763 8.29017 4.46472
    endloop
  endfacet
  facet normal -0.911958 0.403812 -0.0725923
    outer loop
      vertex -4.9186 9.61141 3.15838
      vertex -5.60763 8.12924 3.56947
      vertex -5.60763 8.29017 4.46472
    endloop
  endfacet
  facet normal -0.911958 0.403811 -0.0725927
    outer loop
      vertex -4.9186 9.61141 3.15838
      vertex -5.60763 8.29017 4.46472
      vertex -4.9186 9.77235 4.05363
    endloop
  endfacet
  facet normal -0.97799 0.205358 -0.0369169
    outer loop
      vertex -4.22078 12.7769 2.28043
      vertex -4.9186 9.61141 3.15838
      vertex -4.9186 9.77235 4.05363
    endloop
  endfacet
  facet normal -0.97799 0.205358 -0.0369167
    outer loop
      vertex -4.22078 12.7769 2.28043
      vertex -4.9186 9.77235 4.05363
      vertex -4.22078 12.9378 3.17568
    endloop
  endfacet
  facet normal -0.904855 -0.11378 -0.410233
    outer loop
      vertex -3.66442 13.3975 0.045786
      vertex -4.22078 3.16563 4.11079
      vertex -4.22078 13.6076 1.21467
    endloop
  endfacet
  facet normal -0.723962 0.531231 -0.440084
    outer loop
      vertex -3.66442 13.3975 0.045786
      vertex -4.22078 13.6076 1.21467
      vertex -1.87604 16.6096 0.981151
    endloop
  endfacet
  facet normal -0.788093 0.615556 0
    outer loop
      vertex -1.87604 16.6096 0.981151
      vertex -4.22078 13.6076 1.21467
      vertex -1.87604 16.6096 3.529
    endloop
  endfacet
  facet normal -0.735466 0.666872 -0.119882
    outer loop
      vertex -1.87604 16.6096 3.529
      vertex -4.22078 13.6076 1.21467
      vertex -4.22078 14.0546 3.70128
    endloop
  endfacet
  facet normal -0.680091 0.647342 0.34413
    outer loop
      vertex -1.87604 16.6096 3.529
      vertex -4.22078 14.0546 3.70128
      vertex -3.01183 14.3756 5.48672
    endloop
  endfacet
  facet normal -0.831036 0.148658 0.535985
    outer loop
      vertex -4.22078 14.0546 3.70128
      vertex -4.22078 3.61264 6.59741
      vertex -3.01183 14.3756 5.48672
    endloop
  endfacet
  facet normal -0.66177 0.150133 0.734521
    outer loop
      vertex -3.01183 14.3756 5.48672
      vertex -4.22078 3.61264 6.59741
      vertex -2.16625 3.93361 8.38284
    endloop
  endfacet
  facet normal -0.647611 -0.0734535 0.758422
    outer loop
      vertex -2.16625 3.93361 8.38284
      vertex -4.22078 3.61264 6.59741
      vertex -3.10979 1.07748 7.30055
    endloop
  endfacet
  facet normal -0.920625 -0.384288 0.0690828
    outer loop
      vertex -3.10979 1.07748 7.30055
      vertex -4.22078 3.61264 6.59741
      vertex -3.10979 0.630462 4.81393
    endloop
  endfacet
  facet normal -0.920625 -0.384288 0.0690828
    outer loop
      vertex -4.22078 3.61264 6.59741
      vertex -4.22078 3.16563 4.11079
      vertex -3.10979 0.630462 4.81393
    endloop
  endfacet
  facet normal -0.833866 -0.452927 -0.315476
    outer loop
      vertex -3.10979 0.630462 4.81393
      vertex -4.22078 3.16563 4.11079
      vertex -3.66442 2.9555 2.94191
    endloop
  endfacet
  facet normal -0.904855 -0.11378 -0.410233
    outer loop
      vertex -3.66442 2.9555 2.94191
      vertex -4.22078 3.16563 4.11079
      vertex -3.66442 13.3975 0.045786
    endloop
  endfacet
  facet normal 2.17475e-06 -0.267266 -0.963623
    outer loop
      vertex -5.42112 7.86234 3.64349
      vertex -5.60763 8.12924 3.56947
      vertex -4.9186 9.61141 3.15838
    endloop
  endfacet
  facet normal -4.45528e-06 -0.267265 -0.963623
    outer loop
      vertex -5.16193 8.4199 3.48885
      vertex -5.42112 7.86234 3.64349
      vertex -4.9186 9.61141 3.15838
    endloop
  endfacet
  facet normal 2.92843e-06 -0.267266 -0.963623
    outer loop
      vertex -5.42112 7.86234 3.64349
      vertex -6.02757 6.69525 3.96719
      vertex -5.60763 8.12924 3.56947
    endloop
  endfacet
  facet normal 0 -0.267265 -0.963623
    outer loop
      vertex -0.156793 6.99178 1.82243
      vertex -3.66442 13.3975 0.045786
      vertex 0 13.3975 0.045786
    endloop
  endfacet
  facet normal 0 -0.267265 -0.963623
    outer loop
      vertex 1.0037 6.61472 1.92701
      vertex 0 13.3975 0.045786
      vertex 3.66442 13.3975 0.045786
    endloop
  endfacet
  facet normal 0 -0.267265 -0.963623
    outer loop
      vertex 1.37032 4.88989 2.4054
      vertex 3.66442 13.3975 0.045786
      vertex 3.66442 2.9555 2.94191
    endloop
  endfacet
  facet normal 0 -0.267265 -0.963623
    outer loop
      vertex -3.66442 2.9555 2.94191
      vertex -3.66442 13.3975 0.045786
      vertex -1.46722 5.81187 2.14968
    endloop
  endfacet
  facet normal 0 -0.267265 -0.963623
    outer loop
      vertex -0.156793 6.99178 1.82243
      vertex 0 13.3975 0.045786
      vertex 0.463525 6.92658 1.84051
    endloop
  endfacet
  facet normal 0 -0.267265 -0.963623
    outer loop
      vertex -3.66442 2.9555 2.94191
      vertex -1.46722 5.81187 2.14968
      vertex -1.46722 5.18813 2.32268
    endloop
  endfacet
  facet normal 0 -0.267265 -0.963623
    outer loop
      vertex -3.66442 2.9555 2.94191
      vertex -1.46722 5.18813 2.32268
      vertex -1.21352 4.61832 2.48072
    endloop
  endfacet
  facet normal 0 -0.267265 -0.963623
    outer loop
      vertex -3.66442 2.9555 2.94191
      vertex -1.21352 4.61832 2.48072
      vertex 0 2.9555 2.94191
    endloop
  endfacet
  facet normal 0 -0.267265 -0.963623
    outer loop
      vertex -0.156793 4.00822 2.64993
      vertex 0 2.9555 2.94191
      vertex -0.75 4.20096 2.59647
    endloop
  endfacet
  facet normal 0 -0.267265 -0.963623
    outer loop
      vertex 0.463525 4.07341 2.63185
      vertex 0 2.9555 2.94191
      vertex -0.156793 4.00822 2.64993
    endloop
  endfacet
  facet normal 0 -0.267265 -0.963623
    outer loop
      vertex 1.37032 6.1101 2.06697
      vertex 3.66442 13.3975 0.045786
      vertex 1.5 5.5 2.23618
    endloop
  endfacet
  facet normal 0 -0.267265 -0.963623
    outer loop
      vertex 0 2.9555 2.94191
      vertex 0.463525 4.07341 2.63185
      vertex 3.66442 2.9555 2.94191
    endloop
  endfacet
  facet normal 0 -0.267265 -0.963623
    outer loop
      vertex 1.0037 6.61472 1.92701
      vertex 3.66442 13.3975 0.045786
      vertex 1.37032 6.1101 2.06697
    endloop
  endfacet
  facet normal 0 -0.267265 -0.963623
    outer loop
      vertex 0.463525 4.07341 2.63185
      vertex 1.0037 4.38528 2.54535
      vertex 3.66442 2.9555 2.94191
    endloop
  endfacet
  facet normal 0 -0.267265 -0.963623
    outer loop
      vertex 1.5 5.5 2.23618
      vertex 3.66442 13.3975 0.045786
      vertex 1.37032 4.88989 2.4054
    endloop
  endfacet
  facet normal 0 -0.267265 -0.963623
    outer loop
      vertex 1.0037 4.38528 2.54535
      vertex 1.37032 4.88989 2.4054
      vertex 3.66442 2.9555 2.94191
    endloop
  endfacet
  facet normal 0 -0.267265 -0.963623
    outer loop
      vertex 0.463525 6.92658 1.84051
      vertex 0 13.3975 0.045786
      vertex 1.0037 6.61472 1.92701
    endloop
  endfacet
  facet normal 0 -0.267265 -0.963623
    outer loop
      vertex -0.75 6.79904 1.87589
      vertex -3.66442 13.3975 0.045786
      vertex -0.156793 6.99178 1.82243
    endloop
  endfacet
  facet normal 0 -0.267265 -0.963623
    outer loop
      vertex -1.21352 6.38168 1.99164
      vertex -3.66442 13.3975 0.045786
      vertex -0.75 6.79904 1.87589
    endloop
  endfacet
  facet normal 0 -0.267265 -0.963623
    outer loop
      vertex -1.46722 5.81187 2.14968
      vertex -3.66442 13.3975 0.045786
      vertex -1.21352 6.38168 1.99164
    endloop
  endfacet
  facet normal 0 -0.267265 -0.963623
    outer loop
      vertex -0.75 4.20096 2.59647
      vertex 0 2.9555 2.94191
      vertex -1.21352 4.61832 2.48072
    endloop
  endfacet
  facet normal 0 0.279588 -0.96012
    outer loop
      vertex -3.66442 13.3975 0.045786
      vertex -1.87604 16.6096 0.981151
      vertex 0 13.3975 0.045786
    endloop
  endfacet
  facet normal 0 0.279588 -0.96012
    outer loop
      vertex 0 13.3975 0.045786
      vertex -1.87604 16.6096 0.981151
      vertex -0.867483 16.6096 0.981151
    endloop
  endfacet
  facet normal 0 -0.346138 -0.938183
    outer loop
      vertex -1.87604 16.6096 0.981151
      vertex -1.57498 19.2689 0
      vertex -0.867483 16.6096 0.981151
    endloop
  endfacet
  facet normal 0 -0.346138 -0.938183
    outer loop
      vertex -0.867483 16.6096 0.981151
      vertex -1.57498 19.2689 0
      vertex 0 19.2689 0
    endloop
  endfacet
  facet normal -0.866863 -0.0832209 -0.491552
    outer loop
      vertex -1.87604 16.6096 0.981151
      vertex -2.13134 19.2689 0.981151
      vertex -1.57498 19.2689 0
    endloop
  endfacet
  facet normal -0.995423 -0.095563 0
    outer loop
      vertex -2.13134 19.2689 0.981151
      vertex -1.87604 16.6096 0.981151
      vertex -2.13134 19.2689 3.529
    endloop
  endfacet
  facet normal -0.995423 -0.095563 0
    outer loop
      vertex -2.13134 19.2689 3.529
      vertex -1.87604 16.6096 0.981151
      vertex -1.87604 16.6096 3.529
    endloop
  endfacet
  facet normal -0.720803 -0.0691989 0.689677
    outer loop
      vertex -0.922391 19.2689 4.79251
      vertex -2.13134 19.2689 3.529
      vertex -1.87604 16.6096 3.529
    endloop
  endfacet
  facet normal -0.223876 -0.351598 0.908988
    outer loop
      vertex -0.922391 19.2689 4.79251
      vertex -1.87604 16.6096 3.529
      vertex 0 19.2689 5.01969
    endloop
  endfacet
  facet normal 0 -0.488968 0.872302
    outer loop
      vertex 0 19.2689 5.01969
      vertex -1.87604 16.6096 3.529
      vertex -0.867483 16.6096 3.529
    endloop
  endfacet
  facet normal 0 0.659073 0.752079
    outer loop
      vertex -1.87604 16.6096 3.529
      vertex -3.01183 14.3756 5.48672
      vertex 0 14.3756 5.48672
    endloop
  endfacet
  facet normal 0 0.659073 0.752079
    outer loop
      vertex -0.867483 16.6096 3.529
      vertex -1.87604 16.6096 3.529
      vertex 0 14.3756 5.48672
    endloop
  endfacet
  facet normal 0 0.267265 0.963623
    outer loop
      vertex 0 14.3756 5.48672
      vertex -3.01183 14.3756 5.48672
      vertex -2.16625 3.93361 8.38284
    endloop
  endfacet
  facet normal 0 0.267265 0.963623
    outer loop
      vertex 2.16625 3.93361 8.38284
      vertex 0 14.3756 5.48672
      vertex 0 3.93361 8.38284
    endloop
  endfacet
  facet normal 0 0.267265 0.963623
    outer loop
      vertex 0 3.93361 8.38284
      vertex 0 14.3756 5.48672
      vertex -2.16625 3.93361 8.38284
    endloop
  endfacet
  facet normal 0 0.267265 0.963623
    outer loop
      vertex 3.01183 14.3756 5.48672
      vertex 0 14.3756 5.48672
      vertex 2.16625 3.93361 8.38284
    endloop
  endfacet
  facet normal 0 -0.35435 0.935113
    outer loop
      vertex -2.16625 3.93361 8.38284
      vertex -3.10979 1.07748 7.30055
      vertex -1.41737 1.07748 7.30055
    endloop
  endfacet
  facet normal 0 -0.35435 0.935113
    outer loop
      vertex 0 3.93361 8.38284
      vertex -2.16625 3.93361 8.38284
      vertex -1.41737 1.07748 7.30055
    endloop
  endfacet
  facet normal 0 0.37947 0.925204
    outer loop
      vertex -1.41737 1.07748 7.30055
      vertex -3.10979 1.07748 7.30055
      vertex -2.44137 -2.18857 8.6401
    endloop
  endfacet
  facet normal 0 0.37947 0.925204
    outer loop
      vertex -1.22721 -2.18857 8.6401
      vertex -1.41737 1.07748 7.30055
      vertex -2.44137 -2.18857 8.6401
    endloop
  endfacet
  facet normal -0.827886 0.0593275 0.55775
    outer loop
      vertex -3.10979 1.07748 7.30055
      vertex -3.65032 -2.07082 6.8331
      vertex -2.44137 -2.18857 8.6401
    endloop
  endfacet
  facet normal -0.98579 0.167629 0.0109227
    outer loop
      vertex -3.65032 -1.90684 4.31644
      vertex -3.65032 -2.07082 6.8331
      vertex -3.10979 1.07748 7.30055
    endloop
  endfacet
  facet normal -0.975744 0.215462 -0.0387332
    outer loop
      vertex -3.10979 0.630462 4.81393
      vertex -3.65032 -1.90684 4.31644
      vertex -3.10979 1.07748 7.30055
    endloop
  endfacet
  facet normal 0 0.564041 -0.825747
    outer loop
      vertex -3.10979 0.630462 4.81393
      vertex -1.41737 0.630462 4.81393
      vertex -3.09396 -1.82975 3.13344
    endloop
  endfacet
  facet normal 0 0.564041 -0.825747
    outer loop
      vertex -3.09396 -1.82975 3.13344
      vertex -1.41737 0.630462 4.81393
      vertex -1.22721 -1.82975 3.13344
    endloop
  endfacet
  facet normal 0 -0.627142 -0.778905
    outer loop
      vertex -3.66442 2.9555 2.94191
      vertex 0 2.9555 2.94191
      vertex -3.10979 0.630462 4.81393
    endloop
  endfacet
  facet normal 0 -0.627142 -0.778905
    outer loop
      vertex -3.10979 0.630462 4.81393
      vertex 0 2.9555 2.94191
      vertex -1.41737 0.630462 4.81393
    endloop
  endfacet
  facet normal -0.879114 0.26496 -0.396175
    outer loop
      vertex -3.09396 -1.82975 3.13344
      vertex -3.65032 -1.90684 4.31644
      vertex -3.10979 0.630462 4.81393
    endloop
  endfacet
  facet normal 0.879513 -0.468368 0.0841975
    outer loop
      vertex 0 3.16563 4.11079
      vertex -1.41737 0.630462 4.81393
      vertex 0 2.9555 2.94191
    endloop
  endfacet
  facet normal -0.879513 -0.468368 0.0841975
    outer loop
      vertex 0 3.16563 4.11079
      vertex 0 2.9555 2.94191
      vertex 1.41737 0.630462 4.81393
    endloop
  endfacet
  facet normal 0 -0.627142 -0.778905
    outer loop
      vertex 0 2.9555 2.94191
      vertex 3.66442 2.9555 2.94191
      vertex 1.41737 0.630462 4.81393
    endloop
  endfacet
  facet normal 0 -0.627142 -0.778905
    outer loop
      vertex 1.41737 0.630462 4.81393
      vertex 3.66442 2.9555 2.94191
      vertex 3.10979 0.630462 4.81393
    endloop
  endfacet
  facet normal 0.904855 -0.11378 -0.410233
    outer loop
      vertex 4.22078 3.16563 4.11079
      vertex 3.66442 2.9555 2.94191
      vertex 3.66442 13.3975 0.045786
    endloop
  endfacet
  facet normal 0.833866 -0.452927 -0.315476
    outer loop
      vertex 4.22078 3.16563 4.11079
      vertex 3.10979 0.630462 4.81393
      vertex 3.66442 2.9555 2.94191
    endloop
  endfacet
  facet normal 0.904855 -0.11378 -0.410233
    outer loop
      vertex 4.22078 3.16563 4.11079
      vertex 3.66442 13.3975 0.045786
      vertex 4.22078 13.6076 1.21467
    endloop
  endfacet
  facet normal 0.723962 0.531231 -0.440084
    outer loop
      vertex 3.66442 13.3975 0.045786
      vertex 1.87604 16.6096 0.981151
      vertex 4.22078 13.6076 1.21467
    endloop
  endfacet
  facet normal 0 0.279588 -0.96012
    outer loop
      vertex 0 13.3975 0.045786
      vertex 0.867483 16.6096 0.981151
      vertex 3.66442 13.3975 0.045786
    endloop
  endfacet
  facet normal 0 0.279588 -0.96012
    outer loop
      vertex 3.66442 13.3975 0.045786
      vertex 0.867483 16.6096 0.981151
      vertex 1.87604 16.6096 0.981151
    endloop
  endfacet
  facet normal -0.960543 0.273742 -0.0492096
    outer loop
      vertex 0.867483 16.6096 0.981151
      vertex 0 13.3975 0.045786
      vertex 0 13.6076 1.21467
    endloop
  endfacet
  facet normal 0.960543 0.273742 -0.0492096
    outer loop
      vertex 0 13.3975 0.045786
      vertex -0.867483 16.6096 0.981151
      vertex 0 13.6076 1.21467
    endloop
  endfacet
  facet normal 0.913545 -0.406737 0
    outer loop
      vertex -1.21352 6.38168 1.99164
      vertex -1.21352 6.38168 5.5
      vertex -1.46722 5.81187 5.5
    endloop
  endfacet
  facet normal 0.913545 -0.406737 0
    outer loop
      vertex -1.46722 5.81187 2.14968
      vertex -1.21352 6.38168 1.99164
      vertex -1.46722 5.81187 5.5
    endloop
  endfacet
  facet normal 1 0 0
    outer loop
      vertex -1.46722 5.81187 2.14968
      vertex -1.46722 5.81187 5.5
      vertex -1.46722 5.18813 5.5
    endloop
  endfacet
  facet normal 1 0 0
    outer loop
      vertex -1.46722 5.18813 2.32268
      vertex -1.46722 5.81187 2.14968
      vertex -1.46722 5.18813 5.5
    endloop
  endfacet
  facet normal 0.669131 -0.743145 0
    outer loop
      vertex -0.75 6.79904 1.87589
      vertex -0.75 6.79904 5.5
      vertex -1.21352 6.38168 5.5
    endloop
  endfacet
  facet normal 0.669131 -0.743145 0
    outer loop
      vertex -1.21352 6.38168 1.99164
      vertex -0.75 6.79904 1.87589
      vertex -1.21352 6.38168 5.5
    endloop
  endfacet
  facet normal 0.309018 -0.951056 0
    outer loop
      vertex -0.156793 6.99178 1.82243
      vertex -0.156793 6.99178 5.5
      vertex -0.75 6.79904 5.5
    endloop
  endfacet
  facet normal 0.309018 -0.951056 0
    outer loop
      vertex -0.75 6.79904 1.87589
      vertex -0.156793 6.99178 1.82243
      vertex -0.75 6.79904 5.5
    endloop
  endfacet
  facet normal -0.104528 -0.994522 0
    outer loop
      vertex 0.463525 6.92658 1.84051
      vertex 0.463525 6.92658 5.5
      vertex -0.156793 6.99178 5.5
    endloop
  endfacet
  facet normal -0.104528 -0.994522 0
    outer loop
      vertex -0.156793 6.99178 1.82243
      vertex 0.463525 6.92658 1.84051
      vertex -0.156793 6.99178 5.5
    endloop
  endfacet
  facet normal -0.5 -0.866025 0
    outer loop
      vertex 1.0037 6.61472 1.92701
      vertex 1.0037 6.61472 5.5
      vertex 0.463525 6.92658 5.5
    endloop
  endfacet
  facet normal -0.5 -0.866025 0
    outer loop
      vertex 0.463525 6.92658 1.84051
      vertex 1.0037 6.61472 1.92701
      vertex 0.463525 6.92658 5.5
    endloop
  endfacet
  facet normal -0.809017 -0.587785 0
    outer loop
      vertex 1.37032 6.1101 5.5
      vertex 1.0037 6.61472 5.5
      vertex 1.37032 6.1101 2.06697
    endloop
  endfacet
  facet normal -0.809017 -0.587785 0
    outer loop
      vertex 1.37032 6.1101 2.06697
      vertex 1.0037 6.61472 5.5
      vertex 1.0037 6.61472 1.92701
    endloop
  endfacet
  facet normal -0.978148 -0.207912 0
    outer loop
      vertex 1.5 5.5 5.5
      vertex 1.37032 6.1101 5.5
      vertex 1.5 5.5 2.23618
    endloop
  endfacet
  facet normal -0.978148 -0.207912 0
    outer loop
      vertex 1.5 5.5 2.23618
      vertex 1.37032 6.1101 5.5
      vertex 1.37032 6.1101 2.06697
    endloop
  endfacet
  facet normal -0.978148 0.207912 0
    outer loop
      vertex 1.5 5.5 5.5
      vertex 1.5 5.5 2.23618
      vertex 1.37032 4.88989 5.5
    endloop
  endfacet
  facet normal -0.978148 0.207912 0
    outer loop
      vertex 1.37032 4.88989 5.5
      vertex 1.5 5.5 2.23618
      vertex 1.37032 4.88989 2.4054
    endloop
  endfacet
  facet normal -0.809017 0.587785 0
    outer loop
      vertex 1.37032 4.88989 5.5
      vertex 1.37032 4.88989 2.4054
      vertex 1.0037 4.38528 5.5
    endloop
  endfacet
  facet normal -0.809017 0.587785 0
    outer loop
      vertex 1.0037 4.38528 5.5
      vertex 1.37032 4.88989 2.4054
      vertex 1.0037 4.38528 2.54535
    endloop
  endfacet
  facet normal -0.5 0.866025 0
    outer loop
      vertex 1.0037 4.38528 5.5
      vertex 1.0037 4.38528 2.54535
      vertex 0.463525 4.07341 5.5
    endloop
  endfacet
  facet normal -0.5 0.866025 0
    outer loop
      vertex 0.463525 4.07341 5.5
      vertex 1.0037 4.38528 2.54535
      vertex 0.463525 4.07341 2.63185
    endloop
  endfacet
  facet normal -0.104528 0.994522 0
    outer loop
      vertex 0.463525 4.07341 5.5
      vertex 0.463525 4.07341 2.63185
      vertex -0.156793 4.00822 5.5
    endloop
  endfacet
  facet normal -0.104528 0.994522 0
    outer loop
      vertex -0.156793 4.00822 5.5
      vertex 0.463525 4.07341 2.63185
      vertex -0.156793 4.00822 2.64993
    endloop
  endfacet
  facet normal 0.309018 0.951056 0
    outer loop
      vertex -0.156793 4.00822 5.5
      vertex -0.156793 4.00822 2.64993
      vertex -0.75 4.20096 5.5
    endloop
  endfacet
  facet normal 0.309018 0.951056 0
    outer loop
      vertex -0.75 4.20096 5.5
      vertex -0.156793 4.00822 2.64993
      vertex -0.75 4.20096 2.59647
    endloop
  endfacet
  facet normal 0.669131 0.743145 0
    outer loop
      vertex -0.75 4.20096 5.5
      vertex -0.75 4.20096 2.59647
      vertex -1.21352 4.61832 5.5
    endloop
  endfacet
  facet normal 0.669131 0.743145 0
    outer loop
      vertex -1.21352 4.61832 5.5
      vertex -0.75 4.20096 2.59647
      vertex -1.21352 4.61832 2.48072
    endloop
  endfacet
  facet normal 0.913545 0.406737 0
    outer loop
      vertex -1.46722 5.18813 5.5
      vertex -1.21352 4.61832 5.5
      vertex -1.21352 4.61832 2.48072
    endloop
  endfacet
  facet normal 0.913545 0.406737 0
    outer loop
      vertex -1.46722 5.18813 2.32268
      vertex -1.46722 5.18813 5.5
      vertex -1.21352 4.61832 2.48072
    endloop
  endfacet
  facet normal 0.960543 0.273742 -0.04921
    outer loop
      vertex 0 13.6076 1.21467
      vertex -0.867483 16.6096 0.981151
      vertex 0 14.0546 3.70128
    endloop
  endfacet
  facet normal 0.946908 0.321504 0
    outer loop
      vertex 0 14.0546 3.70128
      vertex -0.867483 16.6096 0.981151
      vertex -0.867483 16.6096 3.529
    endloop
  endfacet
  facet normal 0.950697 -0.31012 0
    outer loop
      vertex -0.867483 16.6096 3.529
      vertex -0.867483 16.6096 0.981151
      vertex 0 19.2689 0
    endloop
  endfacet
  facet normal 0.950697 -0.31012 0
    outer loop
      vertex 0 19.2689 5.01969
      vertex -0.867483 16.6096 3.529
      vertex 0 19.2689 0
    endloop
  endfacet
  facet normal -0.950697 -0.31012 0
    outer loop
      vertex 0 19.2689 0
      vertex 0.867483 16.6096 0.981151
      vertex 0 19.2689 5.01969
    endloop
  endfacet
  facet normal -0.950697 -0.31012 0
    outer loop
      vertex 0 19.2689 5.01969
      vertex 0.867483 16.6096 0.981151
      vertex 0.867483 16.6096 3.529
    endloop
  endfacet
  facet normal 0 -0.346138 -0.938183
    outer loop
      vertex 0 19.2689 0
      vertex 1.57498 19.2689 0
      vertex 0.867483 16.6096 0.981151
    endloop
  endfacet
  facet normal 0 -0.346138 -0.938183
    outer loop
      vertex 0.867483 16.6096 0.981151
      vertex 1.57498 19.2689 0
      vertex 1.87604 16.6096 0.981151
    endloop
  endfacet
  facet normal 0 0 -1
    outer loop
      vertex -1.84966 23.7291 0
      vertex 1.84966 23.7291 0
      vertex -1.57498 19.2689 0
    endloop
  endfacet
  facet normal 0 0 -1
    outer loop
      vertex 0 19.2689 0
      vertex 1.84966 23.7291 0
      vertex 1.57498 19.2689 0
    endloop
  endfacet
  facet normal 0 0 -1
    outer loop
      vertex -1.57498 19.2689 0
      vertex 1.84966 23.7291 0
      vertex 0 19.2689 0
    endloop
  endfacet
  facet normal -0.972121 -0.0598665 -0.22671
    outer loop
      vertex -1.57498 19.2689 0
      vertex -2.13134 24.5876 0.981151
      vertex -1.84966 23.7291 0
    endloop
  endfacet
  facet normal -0.86988 0 -0.493263
    outer loop
      vertex -1.57498 19.2689 0
      vertex -2.13134 19.2689 0.981151
      vertex -2.13134 24.5876 0.981151
    endloop
  endfacet
  facet normal -1 0 0
    outer loop
      vertex -2.13134 23.6597 1.73937
      vertex -2.13134 24.5876 0.981151
      vertex -2.13134 20.1968 1.73937
    endloop
  endfacet
  facet normal -1 0 0
    outer loop
      vertex -2.13134 23.6597 2.77078
      vertex -2.13134 19.2689 3.529
      vertex -2.13134 24.5876 3.529
    endloop
  endfacet
  facet normal -1 0 0
    outer loop
      vertex -2.13134 19.2689 0.981151
      vertex -2.13134 19.2689 3.529
      vertex -2.13134 20.1968 2.77078
    endloop
  endfacet
  facet normal -1 0 0
    outer loop
      vertex -2.13134 19.2689 0.981151
      vertex -2.13134 20.1968 2.77078
      vertex -2.13134 20.1968 1.73937
    endloop
  endfacet
  facet normal -1 0 0
    outer loop
      vertex -2.13134 19.2689 0.981151
      vertex -2.13134 20.1968 1.73937
      vertex -2.13134 24.5876 0.981151
    endloop
  endfacet
  facet normal -1 0 0
    outer loop
      vertex -2.13134 24.5876 0.981151
      vertex -2.13134 23.6597 1.73937
      vertex -2.13134 24.5876 3.529
    endloop
  endfacet
  facet normal -1 0 0
    outer loop
      vertex -2.13134 23.6597 1.73937
      vertex -2.13134 23.6597 2.77078
      vertex -2.13134 24.5876 3.529
    endloop
  endfacet
  facet normal -1 0 0
    outer loop
      vertex -2.13134 20.1968 2.77078
      vertex -2.13134 19.2689 3.529
      vertex -2.13134 23.6597 2.77078
    endloop
  endfacet
  facet normal -0.579558 0 0.814931
    outer loop
      vertex -2.13134 24.5876 3.529
      vertex -2.13134 19.2689 3.529
      vertex -0.922391 23.6238 4.38878
    endloop
  endfacet
  facet normal -0.721056 0.0639616 0.689918
    outer loop
      vertex -0.922391 23.6238 4.38878
      vertex -2.13134 19.2689 3.529
      vertex -0.922391 19.2689 4.79251
    endloop
  endfacet
  facet normal -0.238182 0.0896563 0.967073
    outer loop
      vertex -0.922391 23.6238 4.38878
      vertex -0.922391 19.2689 4.79251
      vertex 0 19.2689 5.01969
    endloop
  endfacet
  facet normal 0 0.143378 0.989668
    outer loop
      vertex 0.922391 23.6238 4.38878
      vertex -0.922391 23.6238 4.38878
      vertex 0 19.2689 5.01969
    endloop
  endfacet
  facet normal 0.238182 0.0896563 0.967073
    outer loop
      vertex 0.922391 23.6238 4.38878
      vertex 0 19.2689 5.01969
      vertex 0.922391 19.2689 4.79251
    endloop
  endfacet
  facet normal 0.223876 -0.351598 0.908988
    outer loop
      vertex 0.922391 19.2689 4.79251
      vertex 0 19.2689 5.01969
      vertex 1.87604 16.6096 3.529
    endloop
  endfacet
  facet normal 0 -0.488968 0.872302
    outer loop
      vertex 1.87604 16.6096 3.529
      vertex 0 19.2689 5.01969
      vertex 0.867483 16.6096 3.529
    endloop
  endfacet
  facet normal 0.94653 0.317526 -0.0570813
    outer loop
      vertex 0 14.0546 3.70128
      vertex -0.867483 16.6096 3.529
      vertex 0 14.3756 5.48672
    endloop
  endfacet
  facet normal -0.94653 0.317526 -0.0570813
    outer loop
      vertex 0.867483 16.6096 3.529
      vertex 0 14.0546 3.70128
      vertex 0 14.3756 5.48672
    endloop
  endfacet
  facet normal 0 0.659073 0.752079
    outer loop
      vertex 0.867483 16.6096 3.529
      vertex 0 14.3756 5.48672
      vertex 3.01183 14.3756 5.48672
    endloop
  endfacet
  facet normal 0 0.659073 0.752079
    outer loop
      vertex 1.87604 16.6096 3.529
      vertex 0.867483 16.6096 3.529
      vertex 3.01183 14.3756 5.48672
    endloop
  endfacet
  facet normal 0.680091 0.647342 0.34413
    outer loop
      vertex 4.22078 14.0546 3.70128
      vertex 1.87604 16.6096 3.529
      vertex 3.01183 14.3756 5.48672
    endloop
  endfacet
  facet normal 0.831036 0.148658 0.535985
    outer loop
      vertex 4.22078 14.0546 3.70128
      vertex 3.01183 14.3756 5.48672
      vertex 4.22078 3.61264 6.59741
    endloop
  endfacet
  facet normal 0.66177 0.150133 0.734521
    outer loop
      vertex 3.01183 14.3756 5.48672
      vertex 2.16625 3.93361 8.38284
      vertex 4.22078 3.61264 6.59741
    endloop
  endfacet
  facet normal 0.647611 -0.0734535 0.758422
    outer loop
      vertex 4.22078 3.61264 6.59741
      vertex 2.16625 3.93361 8.38284
      vertex 3.10979 1.07748 7.30055
    endloop
  endfacet
  facet normal 0 -0.35435 0.935113
    outer loop
      vertex 2.16625 3.93361 8.38284
      vertex 0 3.93361 8.38284
      vertex 1.41737 1.07748 7.30055
    endloop
  endfacet
  facet normal 0 -0.35435 0.935113
    outer loop
      vertex 3.10979 1.07748 7.30055
      vertex 2.16625 3.93361 8.38284
      vertex 1.41737 1.07748 7.30055
    endloop
  endfacet
  facet normal -0.879513 -0.468368 0.0841975
    outer loop
      vertex 0 3.93361 8.38284
      vertex 0 3.61264 6.59741
      vertex 1.41737 1.07748 7.30055
    endloop
  endfacet
  facet normal 0.879513 -0.468368 0.0841975
    outer loop
      vertex 0 3.93361 8.38284
      vertex -1.41737 1.07748 7.30055
      vertex 0 3.61264 6.59741
    endloop
  endfacet
  facet normal 0.879513 -0.468367 0.0841976
    outer loop
      vertex 0 3.61264 6.59741
      vertex -1.41737 1.07748 7.30055
      vertex 0 3.16563 4.11079
    endloop
  endfacet
  facet normal 0.879513 -0.468367 0.0841976
    outer loop
      vertex -1.41737 1.07748 7.30055
      vertex -1.41737 0.630462 4.81393
      vertex 0 3.16563 4.11079
    endloop
  endfacet
  facet normal 0.998018 0.061932 -0.0111334
    outer loop
      vertex -1.22721 -2.07082 6.8331
      vertex -1.41737 0.630462 4.81393
      vertex -1.41737 1.07748 7.30055
    endloop
  endfacet
  facet normal 0.998208 0.0597127 0.0038909
    outer loop
      vertex -1.22721 -2.07082 6.8331
      vertex -1.41737 1.07748 7.30055
      vertex -1.22721 -2.18857 8.6401
    endloop
  endfacet
  facet normal 0 -0.165608 0.986192
    outer loop
      vertex -1.22721 -2.18857 8.6401
      vertex -2.44137 -2.18857 8.6401
      vertex 0 -3.47003 8.42491
    endloop
  endfacet
  facet normal 0.725251 0.687028 0.0447669
    outer loop
      vertex -1.22721 -2.07082 6.8331
      vertex -1.22721 -2.18857 8.6401
      vertex 0 -3.47003 8.42491
    endloop
  endfacet
  facet normal -1.46351e-07 -0.165609 0.986192
    outer loop
      vertex -2.44137 -2.18857 8.6401
      vertex -3.01183 -4.85173 8.19289
      vertex 0 -3.47003 8.42491
    endloop
  endfacet
  facet normal -0.825745 0.0831962 0.557874
    outer loop
      vertex -2.44137 -2.18857 8.6401
      vertex -4.22078 -4.73399 6.38588
      vertex -3.01183 -4.85173 8.19289
    endloop
  endfacet
  facet normal -0.825745 0.0831964 0.557874
    outer loop
      vertex -3.65032 -2.07082 6.8331
      vertex -4.22078 -4.73399 6.38588
      vertex -2.44137 -2.18857 8.6401
    endloop
  endfacet
  facet normal -0.978192 0.207265 0.0135055
    outer loop
      vertex -4.22078 -4.57 3.86923
      vertex -4.22078 -4.73399 6.38588
      vertex -3.65032 -2.07082 6.8331
    endloop
  endfacet
  facet normal -0.978192 0.207265 0.0135055
    outer loop
      vertex -3.65032 -1.90684 4.31644
      vertex -4.22078 -4.57 3.86923
      vertex -3.65032 -2.07082 6.8331
    endloop
  endfacet
  facet normal -0.881182 0.255548 -0.397761
    outer loop
      vertex -3.66442 -4.49291 2.68622
      vertex -4.22078 -4.57 3.86923
      vertex -3.65032 -1.90684 4.31644
    endloop
  endfacet
  facet normal -0.881182 0.255548 -0.397761
    outer loop
      vertex -3.09396 -1.82975 3.13344
      vertex -3.66442 -4.49291 2.68622
      vertex -3.65032 -1.90684 4.31644
    endloop
  endfacet
  facet normal 0 0.165608 -0.986192
    outer loop
      vertex -1.22721 -1.82975 3.13344
      vertex -3.66442 -4.49291 2.68622
      vertex -3.09396 -1.82975 3.13344
    endloop
  endfacet
  facet normal -3.21125e-08 0.165608 -0.986192
    outer loop
      vertex 0 -3.11122 2.91824
      vertex -3.66442 -4.49291 2.68622
      vertex -1.22721 -1.82975 3.13344
    endloop
  endfacet
  facet normal 0.725251 0.687028 0.0447664
    outer loop
      vertex 0 -3.11122 2.91824
      vertex -1.22721 -1.82975 3.13344
      vertex 0 -3.1883 4.10125
    endloop
  endfacet
  facet normal 0.72525 0.687028 0.044767
    outer loop
      vertex -1.22721 -1.82975 3.13344
      vertex -1.22721 -1.90684 4.31644
      vertex 0 -3.1883 4.10125
    endloop
  endfacet
  facet normal 0.997262 0.0737951 0.00480851
    outer loop
      vertex -1.22721 -1.82975 3.13344
      vertex -1.41737 0.630462 4.81393
      vertex -1.22721 -1.90684 4.31644
    endloop
  endfacet
  facet normal 0.997262 0.0737951 0.00480851
    outer loop
      vertex -1.22721 -1.90684 4.31644
      vertex -1.41737 0.630462 4.81393
      vertex -1.22721 -2.07082 6.8331
    endloop
  endfacet
  facet normal -0.879513 -0.468367 0.0841976
    outer loop
      vertex 0 3.61264 6.59741
      vertex 0 3.16563 4.11079
      vertex 1.41737 1.07748 7.30055
    endloop
  endfacet
  facet normal -0.879513 -0.468367 0.0841976
    outer loop
      vertex 1.41737 1.07748 7.30055
      vertex 0 3.16563 4.11079
      vertex 1.41737 0.630462 4.81393
    endloop
  endfacet
  facet normal 0 0.564041 -0.825747
    outer loop
      vertex 1.22721 -1.82975 3.13344
      vertex 1.41737 0.630462 4.81393
      vertex 3.09396 -1.82975 3.13344
    endloop
  endfacet
  facet normal 0 0.564041 -0.825747
    outer loop
      vertex 3.09396 -1.82975 3.13344
      vertex 1.41737 0.630462 4.81393
      vertex 3.10979 0.630462 4.81393
    endloop
  endfacet
  facet normal -0.998018 0.061932 -0.0111334
    outer loop
      vertex 1.41737 0.630462 4.81393
      vertex 1.22721 -2.07082 6.8331
      vertex 1.41737 1.07748 7.30055
    endloop
  endfacet
  facet normal -0.997262 0.0737951 0.00480851
    outer loop
      vertex 1.22721 -1.90684 4.31644
      vertex 1.22721 -2.07082 6.8331
      vertex 1.41737 0.630462 4.81393
    endloop
  endfacet
  facet normal -0.997262 0.0737951 0.00480851
    outer loop
      vertex 1.22721 -1.82975 3.13344
      vertex 1.22721 -1.90684 4.31644
      vertex 1.41737 0.630462 4.81393
    endloop
  endfacet
  facet normal 0.879114 0.26496 -0.396175
    outer loop
      vertex 3.65032 -1.90684 4.31644
      vertex 3.09396 -1.82975 3.13344
      vertex 3.10979 0.630462 4.81393
    endloop
  endfacet
  facet normal 0.975744 0.215462 -0.0387332
    outer loop
      vertex 3.65032 -1.90684 4.31644
      vertex 3.10979 0.630462 4.81393
      vertex 3.10979 1.07748 7.30055
    endloop
  endfacet
  facet normal 0.920625 -0.384288 0.0690828
    outer loop
      vertex 3.10979 1.07748 7.30055
      vertex 3.10979 0.630462 4.81393
      vertex 4.22078 3.61264 6.59741
    endloop
  endfacet
  facet normal 0.920625 -0.384288 0.0690828
    outer loop
      vertex 4.22078 3.61264 6.59741
      vertex 3.10979 0.630462 4.81393
      vertex 4.22078 3.16563 4.11079
    endloop
  endfacet
  facet normal 1 0 0
    outer loop
      vertex 4.22078 4.28242 4.6364
      vertex 4.22078 3.16563 4.11079
      vertex 4.22078 13.6076 1.21467
    endloop
  endfacet
  facet normal 1 0 0
    outer loop
      vertex 4.22078 3.61264 6.59741
      vertex 4.22078 3.16563 4.11079
      vertex 4.22078 4.28242 4.6364
    endloop
  endfacet
  facet normal 1 0 0
    outer loop
      vertex 4.22078 4.44336 5.53165
      vertex 4.22078 12.9378 3.17568
      vertex 4.22078 3.61264 6.59741
    endloop
  endfacet
  facet normal 1 0 0
    outer loop
      vertex 4.22078 3.61264 6.59741
      vertex 4.22078 4.28242 4.6364
      vertex 4.22078 4.44336 5.53165
    endloop
  endfacet
  facet normal 1 0 0
    outer loop
      vertex 4.22078 14.0546 3.70128
      vertex 4.22078 12.9378 3.17568
      vertex 4.22078 13.6076 1.21467
    endloop
  endfacet
  facet normal 1 0 0
    outer loop
      vertex 4.22078 14.0546 3.70128
      vertex 4.22078 3.61264 6.59741
      vertex 4.22078 12.9378 3.17568
    endloop
  endfacet
  facet normal 1 0 0
    outer loop
      vertex 4.22078 12.9378 3.17568
      vertex 4.22078 12.7769 2.28043
      vertex 4.22078 13.6076 1.21467
    endloop
  endfacet
  facet normal 1 0 0
    outer loop
      vertex 4.22078 12.7769 2.28043
      vertex 4.22078 4.28242 4.6364
      vertex 4.22078 13.6076 1.21467
    endloop
  endfacet
  facet normal 0.735466 0.666872 -0.119882
    outer loop
      vertex 4.22078 13.6076 1.21467
      vertex 1.87604 16.6096 3.529
      vertex 4.22078 14.0546 3.70128
    endloop
  endfacet
  facet normal 0.788093 0.615556 0
    outer loop
      vertex 4.22078 13.6076 1.21467
      vertex 1.87604 16.6096 0.981151
      vertex 1.87604 16.6096 3.529
    endloop
  endfacet
  facet normal 0.995423 -0.095563 0
    outer loop
      vertex 1.87604 16.6096 3.529
      vertex 1.87604 16.6096 0.981151
      vertex 2.13134 19.2689 0.981151
    endloop
  endfacet
  facet normal 0.995423 -0.095563 0
    outer loop
      vertex 2.13134 19.2689 3.529
      vertex 1.87604 16.6096 3.529
      vertex 2.13134 19.2689 0.981151
    endloop
  endfacet
  facet normal 0.866863 -0.0832209 -0.491552
    outer loop
      vertex 1.87604 16.6096 0.981151
      vertex 1.57498 19.2689 0
      vertex 2.13134 19.2689 0.981151
    endloop
  endfacet
  facet normal -0.946908 0.321504 0
    outer loop
      vertex 0.867483 16.6096 0.981151
      vertex 0 14.0546 3.70128
      vertex 0.867483 16.6096 3.529
    endloop
  endfacet
  facet normal -0.960543 0.273742 -0.04921
    outer loop
      vertex 0.867483 16.6096 0.981151
      vertex 0 13.6076 1.21467
      vertex 0 14.0546 3.70128
    endloop
  endfacet
  facet normal 0 0 -1
    outer loop
      vertex -1.21352 6.38168 5.5
      vertex -0.75 6.79904 5.5
      vertex -1.46722 5.81187 5.5
    endloop
  endfacet
  facet normal 0 0 -1
    outer loop
      vertex -1.46722 5.81187 5.5
      vertex -0.75 6.79904 5.5
      vertex -0.156793 6.99178 5.5
    endloop
  endfacet
  facet normal 0 0 -1
    outer loop
      vertex -1.46722 5.81187 5.5
      vertex -0.156793 6.99178 5.5
      vertex 0.463525 6.92658 5.5
    endloop
  endfacet
  facet normal 0 0 -1
    outer loop
      vertex -1.46722 5.81187 5.5
      vertex 0.463525 6.92658 5.5
      vertex 1.0037 6.61472 5.5
    endloop
  endfacet
  facet normal 0 0 -1
    outer loop
      vertex -1.46722 5.81187 5.5
      vertex 1.0037 6.61472 5.5
      vertex 1.37032 6.1101 5.5
    endloop
  endfacet
  facet normal 0 0 -1
    outer loop
      vertex -1.46722 5.81187 5.5
      vertex 1.37032 6.1101 5.5
      vertex 1.5 5.5 5.5
    endloop
  endfacet
  facet normal 0 0 -1
    outer loop
      vertex -1.46722 5.81187 5.5
      vertex 1.5 5.5 5.5
      vertex 1.37032 4.88989 5.5
    endloop
  endfacet
  facet normal 0 0 -1
    outer loop
      vertex -1.46722 5.81187 5.5
      vertex 1.37032 4.88989 5.5
      vertex 1.0037 4.38528 5.5
    endloop
  endfacet
  facet normal 0 0 -1
    outer loop
      vertex -1.46722 5.81187 5.5
      vertex 1.0037 4.38528 5.5
      vertex 0.463525 4.07341 5.5
    endloop
  endfacet
  facet normal 0 0 -1
    outer loop
      vertex -1.46722 5.81187 5.5
      vertex 0.463525 4.07341 5.5
      vertex -0.156793 4.00822 5.5
    endloop
  endfacet
  facet normal 0 0 -1
    outer loop
      vertex -1.46722 5.81187 5.5
      vertex -0.156793 4.00822 5.5
      vertex -0.75 4.20096 5.5
    endloop
  endfacet
  facet normal 0 0 -1
    outer loop
      vertex -1.46722 5.81187 5.5
      vertex -0.75 4.20096 5.5
      vertex -1.21352 4.61832 5.5
    endloop
  endfacet
  facet normal 0 0 -1
    outer loop
      vertex -1.46722 5.81187 5.5
      vertex -1.21352 4.61832 5.5
      vertex -1.46722 5.18813 5.5
    endloop
  endfacet
  facet normal 0.86988 0 -0.493263
    outer loop
      vertex 2.13134 19.2689 0.981151
      vertex 1.57498 19.2689 0
      vertex 2.13134 24.5876 0.981151
    endloop
  endfacet
  facet normal 0.972121 -0.0598665 -0.22671
    outer loop
      vertex 2.13134 24.5876 0.981151
      vertex 1.57498 19.2689 0
      vertex 1.84966 23.7291 0
    endloop
  endfacet
  facet normal 0 0.752595 -0.658484
    outer loop
      vertex -2.13134 24.5876 0.981151
      vertex 2.13134 24.5876 0.981151
      vertex -1.84966 23.7291 0
    endloop
  endfacet
  facet normal 0 0.752595 -0.658484
    outer loop
      vertex -1.84966 23.7291 0
      vertex 2.13134 24.5876 0.981151
      vertex 1.84966 23.7291 0
    endloop
  endfacet
  facet normal 0 1 0
    outer loop
      vertex -2.13134 24.5876 0.981151
      vertex -2.13134 24.5876 3.529
      vertex 2.13134 24.5876 0.981151
    endloop
  endfacet
  facet normal 0 1 0
    outer loop
      vertex 2.13134 24.5876 0.981151
      vertex -2.13134 24.5876 3.529
      vertex 2.13134 24.5876 3.529
    endloop
  endfacet
  facet normal 0 0.665693 0.746226
    outer loop
      vertex 2.13134 24.5876 3.529
      vertex -2.13134 24.5876 3.529
      vertex -0.922391 23.6238 4.38878
    endloop
  endfacet
  facet normal 0 0.665693 0.746226
    outer loop
      vertex 0.922391 23.6238 4.38878
      vertex 2.13134 24.5876 3.529
      vertex -0.922391 23.6238 4.38878
    endloop
  endfacet
  facet normal 0 -1 0
    outer loop
      vertex -3.56878 20.1968 2.77078
      vertex -3.56878 20.1968 1.73937
      vertex -2.13134 20.1968 1.73937
    endloop
  endfacet
  facet normal 0 -1 0
    outer loop
      vertex -2.13134 20.1968 2.77078
      vertex -3.56878 20.1968 2.77078
      vertex -2.13134 20.1968 1.73937
    endloop
  endfacet
  facet normal 0 0 1
    outer loop
      vertex -3.56878 21.2163 2.77078
      vertex -3.56878 20.1968 2.77078
      vertex -2.13134 20.1968 2.77078
    endloop
  endfacet
  facet normal 0 0 1
    outer loop
      vertex -2.80616 22.2977 2.77078
      vertex -3.56878 21.2163 2.77078
      vertex -2.13134 20.1968 2.77078
    endloop
  endfacet
  facet normal 0 0 1
    outer loop
      vertex -2.13134 23.6597 2.77078
      vertex -2.80616 22.2977 2.77078
      vertex -2.13134 20.1968 2.77078
    endloop
  endfacet
  facet normal -0.896045 0.443963 0
    outer loop
      vertex -2.80616 22.2977 1.73937
      vertex -2.80616 22.2977 2.77078
      vertex -2.13134 23.6597 1.73937
    endloop
  endfacet
  facet normal -0.896045 0.443963 0
    outer loop
      vertex -2.13134 23.6597 1.73937
      vertex -2.80616 22.2977 2.77078
      vertex -2.13134 23.6597 2.77078
    endloop
  endfacet
  facet normal 0 0 -1
    outer loop
      vertex -3.56878 20.1968 1.73937
      vertex -3.56878 21.2163 1.73937
      vertex -2.13134 20.1968 1.73937
    endloop
  endfacet
  facet normal 0 0 -1
    outer loop
      vertex -2.13134 20.1968 1.73937
      vertex -3.56878 21.2163 1.73937
      vertex -2.80616 22.2977 1.73937
    endloop
  endfacet
  facet normal 0 0 -1
    outer loop
      vertex -2.13134 20.1968 1.73937
      vertex -2.80616 22.2977 1.73937
      vertex -2.13134 23.6597 1.73937
    endloop
  endfacet
  facet normal 0.579558 0 0.814931
    outer loop
      vertex 2.13134 24.5876 3.529
      vertex 0.922391 23.6238 4.38878
      vertex 2.13134 19.2689 3.529
    endloop
  endfacet
  facet normal 0.721056 0.0639616 0.689918
    outer loop
      vertex 0.922391 23.6238 4.38878
      vertex 0.922391 19.2689 4.79251
      vertex 2.13134 19.2689 3.529
    endloop
  endfacet
  facet normal 0.720803 -0.0691989 0.689677
    outer loop
      vertex 2.13134 19.2689 3.529
      vertex 0.922391 19.2689 4.79251
      vertex 1.87604 16.6096 3.529
    endloop
  endfacet
  facet normal 0.98579 0.167629 0.0109227
    outer loop
      vertex 3.65032 -1.90684 4.31644
      vertex 3.10979 1.07748 7.30055
      vertex 3.65032 -2.07082 6.8331
    endloop
  endfacet
  facet normal 0.827886 0.0593275 0.55775
    outer loop
      vertex 3.10979 1.07748 7.30055
      vertex 2.44137 -2.18857 8.6401
      vertex 3.65032 -2.07082 6.8331
    endloop
  endfacet
  facet normal 0 0.37947 0.925204
    outer loop
      vertex 1.41737 1.07748 7.30055
      vertex 1.22721 -2.18857 8.6401
      vertex 2.44137 -2.18857 8.6401
    endloop
  endfacet
  facet normal 0 0.37947 0.925204
    outer loop
      vertex 3.10979 1.07748 7.30055
      vertex 1.41737 1.07748 7.30055
      vertex 2.44137 -2.18857 8.6401
    endloop
  endfacet
  facet normal -0.998208 0.0597127 0.0038909
    outer loop
      vertex 1.22721 -2.07082 6.8331
      vertex 1.22721 -2.18857 8.6401
      vertex 1.41737 1.07748 7.30055
    endloop
  endfacet
  facet normal 0.72525 0.687028 0.0447669
    outer loop
      vertex -1.22721 -1.90684 4.31644
      vertex -1.22721 -2.07082 6.8331
      vertex 0 -3.35229 6.61791
    endloop
  endfacet
  facet normal 0.72525 0.687028 0.0447669
    outer loop
      vertex 0 -3.1883 4.10125
      vertex -1.22721 -1.90684 4.31644
      vertex 0 -3.35229 6.61791
    endloop
  endfacet
  facet normal 0.72525 0.687028 0.0447674
    outer loop
      vertex 0 -3.35229 6.61791
      vertex -1.22721 -2.07082 6.8331
      vertex 0 -3.47003 8.42491
    endloop
  endfacet
  facet normal -2.65818e-07 -0.165608 0.986192
    outer loop
      vertex 0 -3.47003 8.42491
      vertex -3.01183 -4.85173 8.19289
      vertex 0 -12.8412 6.85123
    endloop
  endfacet
  facet normal -0.72525 0.687028 0.0447674
    outer loop
      vertex 0 -3.35229 6.61791
      vertex 0 -3.47003 8.42491
      vertex 1.22721 -2.07082 6.8331
    endloop
  endfacet
  facet normal -0.725251 0.687028 0.0447669
    outer loop
      vertex 1.22721 -2.07082 6.8331
      vertex 0 -3.47003 8.42491
      vertex 1.22721 -2.18857 8.6401
    endloop
  endfacet
  facet normal 0 -0.165608 0.986192
    outer loop
      vertex 1.22721 -2.18857 8.6401
      vertex 0 -3.47003 8.42491
      vertex 2.44137 -2.18857 8.6401
    endloop
  endfacet
  facet normal 1.46351e-07 -0.165609 0.986192
    outer loop
      vertex 2.44137 -2.18857 8.6401
      vertex 0 -3.47003 8.42491
      vertex 3.01183 -4.85173 8.19289
    endloop
  endfacet
  facet normal 2.65818e-07 -0.165608 0.986192
    outer loop
      vertex 0 -3.47003 8.42491
      vertex 0 -12.8412 6.85123
      vertex 3.01183 -4.85173 8.19289
    endloop
  endfacet
  facet normal 0 -0.165608 0.986192
    outer loop
      vertex -3.01183 -4.85173 8.19289
      vertex -3.01183 -12.8412 6.85123
      vertex 0 -12.8412 6.85123
    endloop
  endfacet
  facet normal -0.830363 -0.0922808 0.549529
    outer loop
      vertex -3.01183 -4.85173 8.19289
      vertex -4.22078 -12.7235 5.04423
      vertex -3.01183 -12.8412 6.85123
    endloop
  endfacet
  facet normal -0.830363 -0.0922808 0.549529
    outer loop
      vertex -4.22078 -4.73399 6.38588
      vertex -4.22078 -12.7235 5.04423
      vertex -3.01183 -4.85173 8.19289
    endloop
  endfacet
  facet normal -1 0 0
    outer loop
      vertex -4.22078 -5.82602 4.63063
      vertex -4.22078 -4.73399 6.38588
      vertex -4.22078 -4.57 3.86923
    endloop
  endfacet
  facet normal -1 0 0
    outer loop
      vertex -4.22078 -12.7235 5.04423
      vertex -4.22078 -4.73399 6.38588
      vertex -4.22078 -11.4675 4.28283
    endloop
  endfacet
  facet normal -1 0 0
    outer loop
      vertex -4.22078 -12.7235 5.04423
      vertex -4.22078 -11.4675 4.28283
      vertex -4.22078 -12.5595 2.52757
    endloop
  endfacet
  facet normal -1 0 0
    outer loop
      vertex -4.22078 -5.82602 4.63063
      vertex -4.22078 -12.5595 2.52757
      vertex -4.22078 -11.4288 3.68977
    endloop
  endfacet
  facet normal -1 0 0
    outer loop
      vertex -4.22078 -11.4675 4.28283
      vertex -4.22078 -11.4288 3.68977
      vertex -4.22078 -12.5595 2.52757
    endloop
  endfacet
  facet normal -1 0 0
    outer loop
      vertex -4.22078 -5.86467 5.22369
      vertex -4.22078 -4.73399 6.38588
      vertex -4.22078 -5.82602 4.63063
    endloop
  endfacet
  facet normal -1 0 0
    outer loop
      vertex -4.22078 -12.5595 2.52757
      vertex -4.22078 -5.82602 4.63063
      vertex -4.22078 -4.57 3.86923
    endloop
  endfacet
  facet normal -1 0 0
    outer loop
      vertex -4.22078 -11.4675 4.28283
      vertex -4.22078 -4.73399 6.38588
      vertex -4.22078 -5.86467 5.22369
    endloop
  endfacet
  facet normal -0.904426 0.0706536 -0.42074
    outer loop
      vertex -3.66442 -12.4824 1.34457
      vertex -4.22078 -12.5595 2.52757
      vertex -4.22078 -4.57 3.86923
    endloop
  endfacet
  facet normal -0.904426 0.0706537 -0.42074
    outer loop
      vertex -3.66442 -12.4824 1.34457
      vertex -4.22078 -4.57 3.86923
      vertex -3.66442 -4.49291 2.68622
    endloop
  endfacet
  facet normal 0 0.165608 -0.986192
    outer loop
      vertex 0 -12.4824 1.34457
      vertex -3.66442 -12.4824 1.34457
      vertex -3.66442 -4.49291 2.68622
    endloop
  endfacet
  facet normal -2.4294e-08 0.165608 -0.986192
    outer loop
      vertex 0 -12.4824 1.34457
      vertex -3.66442 -4.49291 2.68622
      vertex 0 -3.11122 2.91824
    endloop
  endfacet
  facet normal 2.4294e-08 0.165608 -0.986192
    outer loop
      vertex 3.66442 -4.49291 2.68622
      vertex 0 -12.4824 1.34457
      vertex 0 -3.11122 2.91824
    endloop
  endfacet
  facet normal 2.28795e-08 0.165608 -0.986192
    outer loop
      vertex 3.66442 -4.49291 2.68622
      vertex 0 -3.11122 2.91824
      vertex 3.09396 -1.82975 3.13344
    endloop
  endfacet
  facet normal 0 0.165608 -0.986192
    outer loop
      vertex 3.09396 -1.82975 3.13344
      vertex 0 -3.11122 2.91824
      vertex 1.22721 -1.82975 3.13344
    endloop
  endfacet
  facet normal -0.725251 0.687028 0.0447664
    outer loop
      vertex 0 -3.11122 2.91824
      vertex 0 -3.1883 4.10125
      vertex 1.22721 -1.82975 3.13344
    endloop
  endfacet
  facet normal -0.72525 0.687028 0.044767
    outer loop
      vertex 1.22721 -1.82975 3.13344
      vertex 0 -3.1883 4.10125
      vertex 1.22721 -1.90684 4.31644
    endloop
  endfacet
  facet normal -0.72525 0.687028 0.0447669
    outer loop
      vertex 0 -3.35229 6.61791
      vertex 1.22721 -2.07082 6.8331
      vertex 0 -3.1883 4.10125
    endloop
  endfacet
  facet normal -0.72525 0.687028 0.0447669
    outer loop
      vertex 0 -3.1883 4.10125
      vertex 1.22721 -2.07082 6.8331
      vertex 1.22721 -1.90684 4.31644
    endloop
  endfacet
  facet normal 0.881182 0.255548 -0.397761
    outer loop
      vertex 3.66442 -4.49291 2.68622
      vertex 3.09396 -1.82975 3.13344
      vertex 3.65032 -1.90684 4.31644
    endloop
  endfacet
  facet normal 0.978192 0.207265 0.0135055
    outer loop
      vertex 3.65032 -1.90684 4.31644
      vertex 3.65032 -2.07082 6.8331
      vertex 4.22078 -4.57 3.86923
    endloop
  endfacet
  facet normal 0.881182 0.255548 -0.397761
    outer loop
      vertex 3.66442 -4.49291 2.68622
      vertex 3.65032 -1.90684 4.31644
      vertex 4.22078 -4.57 3.86923
    endloop
  endfacet
  facet normal 0 -0.984223 0.176932
    outer loop
      vertex 4.22078 4.44336 5.53165
      vertex 4.22078 4.28242 4.6364
      vertex 4.9186 4.28242 4.6364
    endloop
  endfacet
  facet normal 0 -0.984223 0.176932
    outer loop
      vertex 4.9186 4.44336 5.53165
      vertex 4.22078 4.44336 5.53165
      vertex 6.93069 4.28242 4.6364
    endloop
  endfacet
  facet normal 0 -0.984223 0.176932
    outer loop
      vertex 6.93069 4.28242 4.6364
      vertex 4.22078 4.44336 5.53165
      vertex 4.9186 4.28242 4.6364
    endloop
  endfacet
  facet normal 0 -0.984223 0.176932
    outer loop
      vertex 6.93069 4.44336 5.53165
      vertex 6.20637 4.44336 5.53165
      vertex 6.93069 4.28242 4.6364
    endloop
  endfacet
  facet normal 0 -0.984223 0.176932
    outer loop
      vertex 6.20637 4.44336 5.53165
      vertex 5.60763 4.44336 5.53165
      vertex 6.93069 4.28242 4.6364
    endloop
  endfacet
  facet normal 0 -0.984223 0.176932
    outer loop
      vertex 5.60763 4.44336 5.53165
      vertex 4.9186 4.44336 5.53165
      vertex 6.93069 4.28242 4.6364
    endloop
  endfacet
  facet normal 0 -0.267265 -0.963623
    outer loop
      vertex 4.9186 4.28242 4.6364
      vertex 4.22078 4.28242 4.6364
      vertex 4.9186 9.61141 3.15838
    endloop
  endfacet
  facet normal -1.42704e-06 -0.267265 -0.963623
    outer loop
      vertex 4.9186 9.61141 3.15838
      vertex 4.22078 4.28242 4.6364
      vertex 4.22078 12.7769 2.28043
    endloop
  endfacet
  facet normal 0.97799 0.205358 -0.0369169
    outer loop
      vertex 4.9186 9.61141 3.15838
      vertex 4.22078 12.7769 2.28043
      vertex 4.9186 9.77235 4.05363
    endloop
  endfacet
  facet normal 0.97799 0.205358 -0.0369167
    outer loop
      vertex 4.9186 9.77235 4.05363
      vertex 4.22078 12.7769 2.28043
      vertex 4.22078 12.9378 3.17568
    endloop
  endfacet
  facet normal -5.36961e-07 0.267265 0.963623
    outer loop
      vertex 4.9186 9.77235 4.05363
      vertex 4.22078 12.9378 3.17568
      vertex 4.9186 4.44336 5.53165
    endloop
  endfacet
  facet normal 0 0.267265 0.963623
    outer loop
      vertex 4.22078 12.9378 3.17568
      vertex 4.22078 4.44336 5.53165
      vertex 4.9186 4.44336 5.53165
    endloop
  endfacet
  facet normal 1 0 0
    outer loop
      vertex 2.13134 20.1968 1.73937
      vertex 2.13134 19.2689 0.981151
      vertex 2.13134 24.5876 0.981151
    endloop
  endfacet
  facet normal 1 0 0
    outer loop
      vertex 2.13134 19.2689 3.529
      vertex 2.13134 19.2689 0.981151
      vertex 2.13134 20.1968 1.73937
    endloop
  endfacet
  facet normal 1 0 0
    outer loop
      vertex 2.13134 20.1968 2.77078
      vertex 2.13134 23.6597 2.77078
      vertex 2.13134 19.2689 3.529
    endloop
  endfacet
  facet normal 1 0 0
    outer loop
      vertex 2.13134 19.2689 3.529
      vertex 2.13134 20.1968 1.73937
      vertex 2.13134 20.1968 2.77078
    endloop
  endfacet
  facet normal 1 0 0
    outer loop
      vertex 2.13134 24.5876 3.529
      vertex 2.13134 23.6597 2.77078
      vertex 2.13134 24.5876 0.981151
    endloop
  endfacet
  facet normal 1 0 0
    outer loop
      vertex 2.13134 24.5876 3.529
      vertex 2.13134 19.2689 3.529
      vertex 2.13134 23.6597 2.77078
    endloop
  endfacet
  facet normal 1 0 0
    outer loop
      vertex 2.13134 23.6597 2.77078
      vertex 2.13134 23.6597 1.73937
      vertex 2.13134 24.5876 0.981151
    endloop
  endfacet
  facet normal 1 0 0
    outer loop
      vertex 2.13134 23.6597 1.73937
      vertex 2.13134 20.1968 1.73937
      vertex 2.13134 24.5876 0.981151
    endloop
  endfacet
  facet normal -1 0 0
    outer loop
      vertex -3.56878 20.1968 1.73937
      vertex -3.56878 20.1968 2.77078
      vertex -3.56878 21.2163 1.73937
    endloop
  endfacet
  facet normal -1 0 0
    outer loop
      vertex -3.56878 21.2163 1.73937
      vertex -3.56878 20.1968 2.77078
      vertex -3.56878 21.2163 2.77078
    endloop
  endfacet
  facet normal -0.817227 0.576316 0
    outer loop
      vertex -3.56878 21.2163 1.73937
      vertex -3.56878 21.2163 2.77078
      vertex -2.80616 22.2977 1.73937
    endloop
  endfacet
  facet normal -0.817227 0.576316 0
    outer loop
      vertex -2.80616 22.2977 1.73937
      vertex -3.56878 21.2163 2.77078
      vertex -2.80616 22.2977 2.77078
    endloop
  endfacet
  facet normal 0.978192 0.207265 0.0135055
    outer loop
      vertex 4.22078 -4.57 3.86923
      vertex 3.65032 -2.07082 6.8331
      vertex 4.22078 -4.73399 6.38588
    endloop
  endfacet
  facet normal 0.825745 0.0831964 0.557874
    outer loop
      vertex 3.65032 -2.07082 6.8331
      vertex 2.44137 -2.18857 8.6401
      vertex 4.22078 -4.73399 6.38588
    endloop
  endfacet
  facet normal 0.825745 0.0831962 0.557874
    outer loop
      vertex 4.22078 -4.73399 6.38588
      vertex 2.44137 -2.18857 8.6401
      vertex 3.01183 -4.85173 8.19289
    endloop
  endfacet
  facet normal 0 -0.165608 0.986192
    outer loop
      vertex 3.01183 -4.85173 8.19289
      vertex 0 -12.8412 6.85123
      vertex 3.01183 -12.8412 6.85123
    endloop
  endfacet
  facet normal 0 -0.755587 0.655049
    outer loop
      vertex 0 -12.8412 6.85123
      vertex -3.01183 -12.8412 6.85123
      vertex -2.69955 -15.3453 3.96281
    endloop
  endfacet
  facet normal 0 -0.755587 0.655049
    outer loop
      vertex 3.01183 -12.8412 6.85123
      vertex 0 -12.8412 6.85123
      vertex 2.69955 -15.3453 3.96281
    endloop
  endfacet
  facet normal 0 -0.755587 0.655049
    outer loop
      vertex 2.69955 -15.3453 3.96281
      vertex 0 -12.8412 6.85123
      vertex -2.69955 -15.3453 3.96281
    endloop
  endfacet
  facet normal 0.830363 -0.0922808 0.549529
    outer loop
      vertex 4.22078 -4.73399 6.38588
      vertex 3.01183 -4.85173 8.19289
      vertex 4.22078 -12.7235 5.04423
    endloop
  endfacet
  facet normal 0.830363 -0.0922808 0.549529
    outer loop
      vertex 3.01183 -4.85173 8.19289
      vertex 3.01183 -12.8412 6.85123
      vertex 4.22078 -12.7235 5.04423
    endloop
  endfacet
  facet normal -0.694541 -0.579082 0.426939
    outer loop
      vertex -3.01183 -12.8412 6.85123
      vertex -4.22078 -12.7235 5.04423
      vertex -2.69955 -15.3453 3.96281
    endloop
  endfacet
  facet normal -0.870186 -0.491681 -0.0320378
    outer loop
      vertex -2.69955 -15.3453 3.96281
      vertex -4.22078 -12.7235 5.04423
      vertex -2.69955 -15.2227 2.08036
    endloop
  endfacet
  facet normal -0.870186 -0.49168 -0.032038
    outer loop
      vertex -2.69955 -15.2227 2.08036
      vertex -4.22078 -12.7235 5.04423
      vertex -4.22078 -12.5595 2.52757
    endloop
  endfacet
  facet normal -0.819478 -0.399012 -0.411394
    outer loop
      vertex -2.69955 -15.2227 2.08036
      vertex -4.22078 -12.5595 2.52757
      vertex -3.66442 -12.4824 1.34457
    endloop
  endfacet
  facet normal 0 -0.997884 -0.065024
    outer loop
      vertex -5.44619 -11.4675 4.28283
      vertex -5.96605 -11.4675 4.28283
      vertex -5.96605 -11.4288 3.68977
    endloop
  endfacet
  facet normal 0 -0.997884 -0.065024
    outer loop
      vertex -5.04683 -11.4288 3.68977
      vertex -5.44619 -11.4675 4.28283
      vertex -5.44619 -11.4288 3.68977
    endloop
  endfacet
  facet normal 0 -0.997884 -0.065024
    outer loop
      vertex -5.44619 -11.4288 3.68977
      vertex -5.44619 -11.4675 4.28283
      vertex -5.96605 -11.4288 3.68977
    endloop
  endfacet
  facet normal 0 -0.997884 -0.065024
    outer loop
      vertex -4.68495 -11.4288 3.68977
      vertex -5.44619 -11.4675 4.28283
      vertex -5.04683 -11.4288 3.68977
    endloop
  endfacet
  facet normal 0 -0.997884 -0.065024
    outer loop
      vertex -4.22078 -11.4288 3.68977
      vertex -5.44619 -11.4675 4.28283
      vertex -4.68495 -11.4288 3.68977
    endloop
  endfacet
  facet normal 0 -0.997884 -0.065024
    outer loop
      vertex -5.04683 -11.4675 4.28283
      vertex -5.44619 -11.4675 4.28283
      vertex -4.22078 -11.4288 3.68977
    endloop
  endfacet
  facet normal 0 -0.997884 -0.065024
    outer loop
      vertex -4.22078 -11.4675 4.28283
      vertex -4.68495 -11.4675 4.28283
      vertex -4.22078 -11.4288 3.68977
    endloop
  endfacet
  facet normal 0 -0.997884 -0.065024
    outer loop
      vertex -4.68495 -11.4675 4.28283
      vertex -5.04683 -11.4675 4.28283
      vertex -4.22078 -11.4288 3.68977
    endloop
  endfacet
  facet normal 0 -0.165608 0.986192
    outer loop
      vertex -4.22078 -5.86467 5.22369
      vertex -4.68495 -11.4675 4.28283
      vertex -4.22078 -11.4675 4.28283
    endloop
  endfacet
  facet normal -0.967493 0.252364 0.0164449
    outer loop
      vertex -4.22078 -5.82602 4.63063
      vertex -4.68495 -7.62491 4.9281
      vertex -4.22078 -5.86467 5.22369
    endloop
  endfacet
  facet normal -1.3442e-06 -0.165608 0.986192
    outer loop
      vertex -4.68495 -7.62491 4.9281
      vertex -4.68495 -11.4675 4.28283
      vertex -4.22078 -5.86467 5.22369
    endloop
  endfacet
  facet normal -1.13672e-06 0.165608 -0.986192
    outer loop
      vertex -4.22078 -11.4288 3.68977
      vertex -4.68495 -7.58626 4.33504
      vertex -4.22078 -5.82602 4.63063
    endloop
  endfacet
  facet normal -0.967493 0.252364 0.0164441
    outer loop
      vertex -4.68495 -7.58626 4.33504
      vertex -4.68495 -7.62491 4.9281
      vertex -4.22078 -5.82602 4.63063
    endloop
  endfacet
  facet normal 0 0.165608 -0.986192
    outer loop
      vertex -4.22078 -11.4288 3.68977
      vertex -4.68495 -11.4288 3.68977
      vertex -4.68495 -7.58626 4.33504
    endloop
  endfacet
  facet normal 0 -0.259326 -0.96579
    outer loop
      vertex -3.66442 -12.4824 1.34457
      vertex 0 -12.4824 1.34457
      vertex -2.69955 -15.2227 2.08036
    endloop
  endfacet
  facet normal 0 -0.259326 -0.96579
    outer loop
      vertex -2.69955 -15.2227 2.08036
      vertex 0 -12.4824 1.34457
      vertex 3.66442 -12.4824 1.34457
    endloop
  endfacet
  facet normal 0 -0.259326 -0.96579
    outer loop
      vertex -2.69955 -15.2227 2.08036
      vertex 3.66442 -12.4824 1.34457
      vertex 2.69955 -15.2227 2.08036
    endloop
  endfacet
  facet normal 0 0.165608 -0.986192
    outer loop
      vertex 3.66442 -12.4824 1.34457
      vertex 0 -12.4824 1.34457
      vertex 3.66442 -4.49291 2.68622
    endloop
  endfacet
  facet normal 0.904426 0.0706537 -0.42074
    outer loop
      vertex 4.22078 -4.57 3.86923
      vertex 3.66442 -12.4824 1.34457
      vertex 3.66442 -4.49291 2.68622
    endloop
  endfacet
  facet normal 0.904426 0.0706536 -0.42074
    outer loop
      vertex 4.22078 -12.5595 2.52757
      vertex 3.66442 -12.4824 1.34457
      vertex 4.22078 -4.57 3.86923
    endloop
  endfacet
  facet normal 1 0 0
    outer loop
      vertex 4.22078 -11.4288 3.68977
      vertex 4.22078 -12.7235 5.04423
      vertex 4.22078 -12.5595 2.52757
    endloop
  endfacet
  facet normal 1 0 0
    outer loop
      vertex 4.22078 -11.4675 4.28283
      vertex 4.22078 -5.86467 5.22369
      vertex 4.22078 -4.73399 6.38588
    endloop
  endfacet
  facet normal 1 0 0
    outer loop
      vertex 4.22078 -11.4675 4.28283
      vertex 4.22078 -12.7235 5.04423
      vertex 4.22078 -11.4288 3.68977
    endloop
  endfacet
  facet normal 1 0 0
    outer loop
      vertex 4.22078 -4.73399 6.38588
      vertex 4.22078 -12.7235 5.04423
      vertex 4.22078 -11.4675 4.28283
    endloop
  endfacet
  facet normal 1 0 0
    outer loop
      vertex 4.22078 -4.57 3.86923
      vertex 4.22078 -4.73399 6.38588
      vertex 4.22078 -5.86467 5.22369
    endloop
  endfacet
  facet normal 1 0 0
    outer loop
      vertex 4.22078 -4.57 3.86923
      vertex 4.22078 -5.82602 4.63063
      vertex 4.22078 -12.5595 2.52757
    endloop
  endfacet
  facet normal 1 0 0
    outer loop
      vertex 4.22078 -4.57 3.86923
      vertex 4.22078 -5.86467 5.22369
      vertex 4.22078 -5.82602 4.63063
    endloop
  endfacet
  facet normal 1 0 0
    outer loop
      vertex 4.22078 -5.82602 4.63063
      vertex 4.22078 -11.4288 3.68977
      vertex 4.22078 -12.5595 2.52757
    endloop
  endfacet
  facet normal 0 0.267265 0.963623
    outer loop
      vertex 4.9186 9.77235 4.05363
      vertex 4.9186 4.44336 5.53165
      vertex 5.60763 4.44336 5.53165
    endloop
  endfacet
  facet normal 0 0.267265 0.963623
    outer loop
      vertex 5.60763 8.29017 4.46472
      vertex 5.60763 4.44336 5.53165
      vertex 6.20637 4.44336 5.53165
    endloop
  endfacet
  facet normal -1.14962e-06 0.267265 0.963623
    outer loop
      vertex 5.60763 8.29017 4.46472
      vertex 4.9186 9.77235 4.05363
      vertex 5.60763 4.44336 5.53165
    endloop
  endfacet
  facet normal 0 0.267265 0.963623
    outer loop
      vertex 6.20637 7.13791 4.7843
      vertex 6.20637 4.44336 5.53165
      vertex 6.93069 4.44336 5.53165
    endloop
  endfacet
  facet normal 2.81377e-07 0.267265 0.963623
    outer loop
      vertex 6.20637 7.13791 4.7843
      vertex 5.60763 8.29017 4.46472
      vertex 6.20637 4.44336 5.53165
    endloop
  endfacet
  facet normal -1.60547e-06 0.267264 0.963623
    outer loop
      vertex 6.93069 5.85331 5.14059
      vertex 6.20637 7.13791 4.7843
      vertex 6.93069 4.44336 5.53165
    endloop
  endfacet
  facet normal 1 0 0
    outer loop
      vertex 6.93069 4.44336 5.53165
      vertex 6.93069 4.28242 4.6364
      vertex 6.93069 5.69238 4.24534
    endloop
  endfacet
  facet normal 1 0 0
    outer loop
      vertex 6.93069 5.85331 5.14059
      vertex 6.93069 4.44336 5.53165
      vertex 6.93069 5.69238 4.24534
    endloop
  endfacet
  facet normal 3.29408e-06 -0.267265 -0.963623
    outer loop
      vertex 6.93069 4.28242 4.6364
      vertex 6.68736 4.69757 4.52126
      vertex 6.93069 5.69238 4.24534
    endloop
  endfacet
  facet normal 0 -0.267267 -0.963623
    outer loop
      vertex 4.9186 4.28242 4.6364
      vertex 5.16193 4.69757 4.52126
      vertex 6.93069 4.28242 4.6364
    endloop
  endfacet
  facet normal 0 -0.267267 -0.963623
    outer loop
      vertex 6.93069 4.28242 4.6364
      vertex 5.16193 4.69757 4.52126
      vertex 5.60763 4.69757 4.52126
    endloop
  endfacet
  facet normal 0 -0.267267 -0.963623
    outer loop
      vertex 6.93069 4.28242 4.6364
      vertex 5.60763 4.69757 4.52126
      vertex 6.20637 4.69757 4.52126
    endloop
  endfacet
  facet normal 0 -0.267267 -0.963623
    outer loop
      vertex 6.93069 4.28242 4.6364
      vertex 6.20637 4.69757 4.52126
      vertex 6.68736 4.69757 4.52126
    endloop
  endfacet
  facet normal 1.71921e-06 -0.267265 -0.963623
    outer loop
      vertex 5.16193 8.4199 3.48885
      vertex 4.9186 4.28242 4.6364
      vertex 4.9186 9.61141 3.15838
    endloop
  endfacet
  facet normal -3.69401e-06 -0.267265 -0.963623
    outer loop
      vertex 5.16193 4.69757 4.52126
      vertex 4.9186 4.28242 4.6364
      vertex 5.16193 8.4199 3.48885
    endloop
  endfacet
  facet normal 4.45528e-06 -0.267265 -0.963623
    outer loop
      vertex 5.16193 8.4199 3.48885
      vertex 4.9186 9.61141 3.15838
      vertex 5.42112 7.86234 3.64349
    endloop
  endfacet
  facet normal -2.17475e-06 -0.267266 -0.963623
    outer loop
      vertex 5.42112 7.86234 3.64349
      vertex 4.9186 9.61141 3.15838
      vertex 5.60763 8.12924 3.56947
    endloop
  endfacet
  facet normal 0.911958 0.403812 -0.0725923
    outer loop
      vertex 5.60763 8.12924 3.56947
      vertex 4.9186 9.61141 3.15838
      vertex 5.60763 8.29017 4.46472
    endloop
  endfacet
  facet normal 0.911958 0.403811 -0.0725927
    outer loop
      vertex 5.60763 8.29017 4.46472
      vertex 4.9186 9.61141 3.15838
      vertex 4.9186 9.77235 4.05363
    endloop
  endfacet
  facet normal 0 -1 0
    outer loop
      vertex 2.13134 20.1968 2.77078
      vertex 2.13134 20.1968 1.73937
      vertex 3.56878 20.1968 1.73937
    endloop
  endfacet
  facet normal 0 -1 0
    outer loop
      vertex 3.56878 20.1968 2.77078
      vertex 2.13134 20.1968 2.77078
      vertex 3.56878 20.1968 1.73937
    endloop
  endfacet
  facet normal 0 0 -1
    outer loop
      vertex 2.13134 20.1968 1.73937
      vertex 2.13134 23.6597 1.73937
      vertex 3.56878 20.1968 1.73937
    endloop
  endfacet
  facet normal 0 0 -1
    outer loop
      vertex 3.56878 20.1968 1.73937
      vertex 2.13134 23.6597 1.73937
      vertex 2.80616 22.2977 1.73937
    endloop
  endfacet
  facet normal 0 0 -1
    outer loop
      vertex 3.56878 20.1968 1.73937
      vertex 2.80616 22.2977 1.73937
      vertex 3.56878 21.2163 1.73937
    endloop
  endfacet
  facet normal 0.896045 0.443963 0
    outer loop
      vertex 2.80616 22.2977 1.73937
      vertex 2.13134 23.6597 1.73937
      vertex 2.13134 23.6597 2.77078
    endloop
  endfacet
  facet normal 0.896045 0.443963 0
    outer loop
      vertex 2.80616 22.2977 2.77078
      vertex 2.80616 22.2977 1.73937
      vertex 2.13134 23.6597 2.77078
    endloop
  endfacet
  facet normal 0 0 1
    outer loop
      vertex 2.13134 23.6597 2.77078
      vertex 2.13134 20.1968 2.77078
      vertex 3.56878 20.1968 2.77078
    endloop
  endfacet
  facet normal 0 0 1
    outer loop
      vertex 2.80616 22.2977 2.77078
      vertex 2.13134 23.6597 2.77078
      vertex 3.56878 20.1968 2.77078
    endloop
  endfacet
  facet normal 0 0 1
    outer loop
      vertex 3.56878 21.2163 2.77078
      vertex 2.80616 22.2977 2.77078
      vertex 3.56878 20.1968 2.77078
    endloop
  endfacet
  facet normal 0.694541 -0.579082 0.426939
    outer loop
      vertex 3.01183 -12.8412 6.85123
      vertex 2.69955 -15.3453 3.96281
      vertex 4.22078 -12.7235 5.04423
    endloop
  endfacet
  facet normal 0.870186 -0.491681 -0.0320378
    outer loop
      vertex 4.22078 -12.7235 5.04423
      vertex 2.69955 -15.3453 3.96281
      vertex 2.69955 -15.2227 2.08036
    endloop
  endfacet
  facet normal 1 0 0
    outer loop
      vertex 2.69955 -15.3453 3.96281
      vertex 2.69955 -16.7182 4.3734
      vertex 2.69955 -16.5215 1.35499
    endloop
  endfacet
  facet normal 1 0 0
    outer loop
      vertex 2.69955 -15.2227 2.08036
      vertex 2.69955 -15.3453 3.96281
      vertex 2.69955 -16.5215 1.35499
    endloop
  endfacet
  facet normal 0.766997 0.183854 0.614746
    outer loop
      vertex 2.69955 -15.3453 3.96281
      vertex 1.4906 -17.4001 6.08569
      vertex 2.69955 -16.7182 4.3734
    endloop
  endfacet
  facet normal 0 0.718546 0.69548
    outer loop
      vertex -2.69955 -15.3453 3.96281
      vertex -1.4906 -17.4001 6.08569
      vertex 2.69955 -15.3453 3.96281
    endloop
  endfacet
  facet normal 0 0.718546 0.69548
    outer loop
      vertex 2.69955 -15.3453 3.96281
      vertex -1.4906 -17.4001 6.08569
      vertex 1.4906 -17.4001 6.08569
    endloop
  endfacet
  facet normal -0.766997 0.183854 0.614746
    outer loop
      vertex -2.69955 -15.3453 3.96281
      vertex -2.69955 -16.7182 4.3734
      vertex -1.4906 -17.4001 6.08569
    endloop
  endfacet
  facet normal -1 0 0
    outer loop
      vertex -2.69955 -16.7182 4.3734
      vertex -2.69955 -15.3453 3.96281
      vertex -2.69955 -16.5215 1.35499
    endloop
  endfacet
  facet normal -1 0 0
    outer loop
      vertex -2.69955 -16.5215 1.35499
      vertex -2.69955 -15.3453 3.96281
      vertex -2.69955 -15.2227 2.08036
    endloop
  endfacet
  facet normal 0.870186 -0.49168 -0.032038
    outer loop
      vertex 4.22078 -12.7235 5.04423
      vertex 2.69955 -15.2227 2.08036
      vertex 4.22078 -12.5595 2.52757
    endloop
  endfacet
  facet normal 0 0.74631 -0.665598
    outer loop
      vertex -2.69955 -15.2227 2.08036
      vertex 2.69955 -15.2227 2.08036
      vertex -2.14319 -16.4772 0.673745
    endloop
  endfacet
  facet normal 0 0.74631 -0.665598
    outer loop
      vertex -2.14319 -16.4772 0.673745
      vertex 2.69955 -15.2227 2.08036
      vertex 2.14319 -16.4772 0.673745
    endloop
  endfacet
  facet normal -0.742352 0.326679 -0.584973
    outer loop
      vertex -2.14319 -16.4772 0.673745
      vertex -2.69955 -16.5215 1.35499
      vertex -2.69955 -15.2227 2.08036
    endloop
  endfacet
  facet normal 0 -0.165608 0.986192
    outer loop
      vertex -5.44619 -9.40122 4.62981
      vertex -5.96605 -11.4675 4.28283
      vertex -5.44619 -11.4675 4.28283
    endloop
  endfacet
  facet normal -1.41392e-07 -0.165608 0.986192
    outer loop
      vertex -5.44619 -9.40122 4.62981
      vertex -5.44619 -11.4675 4.28283
      vertex -5.04683 -8.49338 4.78226
    endloop
  endfacet
  facet normal 0 -0.165608 0.986192
    outer loop
      vertex -5.04683 -8.49338 4.78226
      vertex -5.44619 -11.4675 4.28283
      vertex -5.04683 -11.4675 4.28283
    endloop
  endfacet
  facet normal -8.40904e-07 -0.165608 0.986192
    outer loop
      vertex -5.04683 -8.49338 4.78226
      vertex -5.04683 -11.4675 4.28283
      vertex -4.68495 -7.62491 4.9281
    endloop
  endfacet
  facet normal 0 -0.165608 0.986192
    outer loop
      vertex -4.68495 -7.62491 4.9281
      vertex -5.04683 -11.4675 4.28283
      vertex -4.68495 -11.4675 4.28283
    endloop
  endfacet
  facet normal 2.81494e-06 0.165608 -0.986192
    outer loop
      vertex -4.68495 -11.4288 3.68977
      vertex -5.04683 -8.45474 4.18919
      vertex -4.68495 -7.58626 4.33504
    endloop
  endfacet
  facet normal 0 0.165608 -0.986192
    outer loop
      vertex -4.68495 -11.4288 3.68977
      vertex -5.04683 -11.4288 3.68977
      vertex -5.04683 -8.45474 4.18919
    endloop
  endfacet
  facet normal -1.87059e-06 0.165608 -0.986192
    outer loop
      vertex -5.04683 -11.4288 3.68977
      vertex -5.44619 -9.36257 4.03675
      vertex -5.04683 -8.45474 4.18919
    endloop
  endfacet
  facet normal 0 0.165608 -0.986192
    outer loop
      vertex -5.04683 -11.4288 3.68977
      vertex -5.44619 -11.4288 3.68977
      vertex -5.44619 -9.36257 4.03675
    endloop
  endfacet
  facet normal 1.95688e-06 0.165608 -0.986192
    outer loop
      vertex -5.44619 -11.4288 3.68977
      vertex -5.96605 -9.89518 3.94731
      vertex -5.44619 -9.36257 4.03675
    endloop
  endfacet
  facet normal 0 0.165608 -0.986192
    outer loop
      vertex -5.44619 -11.4288 3.68977
      vertex -5.96605 -11.4288 3.68977
      vertex -5.96605 -9.89518 3.94731
    endloop
  endfacet
  facet normal -1 0 0
    outer loop
      vertex -5.96605 -11.4675 4.28283
      vertex -5.96605 -9.93382 4.54037
      vertex -5.96605 -11.4288 3.68977
    endloop
  endfacet
  facet normal -1 0 0
    outer loop
      vertex -5.96605 -11.4288 3.68977
      vertex -5.96605 -9.93382 4.54037
      vertex -5.96605 -9.89518 3.94731
    endloop
  endfacet
  facet normal 1.27324e-07 -0.165608 0.986192
    outer loop
      vertex -5.96605 -9.93382 4.54037
      vertex -5.96605 -11.4675 4.28283
      vertex -5.44619 -9.40122 4.62981
    endloop
  endfacet
  facet normal -0.924258 0.38096 0.0248234
    outer loop
      vertex -4.68495 -7.58626 4.33504
      vertex -5.04683 -8.49338 4.78226
      vertex -4.68495 -7.62491 4.9281
    endloop
  endfacet
  facet normal -0.924258 0.38096 0.0248227
    outer loop
      vertex -5.04683 -8.45474 4.18919
      vertex -5.04683 -8.49338 4.78226
      vertex -4.68495 -7.58626 4.33504
    endloop
  endfacet
  facet normal 0.742352 0.326679 -0.584973
    outer loop
      vertex 2.69955 -16.5215 1.35499
      vertex 2.14319 -16.4772 0.673745
      vertex 2.69955 -15.2227 2.08036
    endloop
  endfacet
  facet normal 0.819478 -0.399012 -0.411394
    outer loop
      vertex 4.22078 -12.5595 2.52757
      vertex 2.69955 -15.2227 2.08036
      vertex 3.66442 -12.4824 1.34457
    endloop
  endfacet
  facet normal 1.13672e-06 0.165608 -0.986192
    outer loop
      vertex 4.68495 -7.58626 4.33504
      vertex 4.22078 -11.4288 3.68977
      vertex 4.22078 -5.82602 4.63063
    endloop
  endfacet
  facet normal 0 -0.997884 -0.065024
    outer loop
      vertex 4.68495 -11.4675 4.28283
      vertex 4.22078 -11.4675 4.28283
      vertex 4.22078 -11.4288 3.68977
    endloop
  endfacet
  facet normal 0 -0.997884 -0.065024
    outer loop
      vertex 5.04683 -11.4288 3.68977
      vertex 4.68495 -11.4675 4.28283
      vertex 4.68495 -11.4288 3.68977
    endloop
  endfacet
  facet normal 0 -0.997884 -0.065024
    outer loop
      vertex 4.68495 -11.4288 3.68977
      vertex 4.68495 -11.4675 4.28283
      vertex 4.22078 -11.4288 3.68977
    endloop
  endfacet
  facet normal 0 -0.997884 -0.065024
    outer loop
      vertex 5.44619 -11.4288 3.68977
      vertex 4.68495 -11.4675 4.28283
      vertex 5.04683 -11.4288 3.68977
    endloop
  endfacet
  facet normal 0 -0.997884 -0.065024
    outer loop
      vertex 5.96605 -11.4288 3.68977
      vertex 4.68495 -11.4675 4.28283
      vertex 5.44619 -11.4288 3.68977
    endloop
  endfacet
  facet normal 0 -0.997884 -0.065024
    outer loop
      vertex 5.04683 -11.4675 4.28283
      vertex 4.68495 -11.4675 4.28283
      vertex 5.96605 -11.4288 3.68977
    endloop
  endfacet
  facet normal 0 -0.997884 -0.065024
    outer loop
      vertex 5.96605 -11.4675 4.28283
      vertex 5.44619 -11.4675 4.28283
      vertex 5.96605 -11.4288 3.68977
    endloop
  endfacet
  facet normal 0 -0.997884 -0.065024
    outer loop
      vertex 5.44619 -11.4675 4.28283
      vertex 5.04683 -11.4675 4.28283
      vertex 5.96605 -11.4288 3.68977
    endloop
  endfacet
  facet normal 0 0.165608 -0.986192
    outer loop
      vertex 4.68495 -11.4288 3.68977
      vertex 4.22078 -11.4288 3.68977
      vertex 4.68495 -7.58626 4.33504
    endloop
  endfacet
  facet normal 0.967493 0.252364 0.0164441
    outer loop
      vertex 4.68495 -7.58626 4.33504
      vertex 4.22078 -5.82602 4.63063
      vertex 4.68495 -7.62491 4.9281
    endloop
  endfacet
  facet normal 0.967493 0.252364 0.0164449
    outer loop
      vertex 4.22078 -5.82602 4.63063
      vertex 4.22078 -5.86467 5.22369
      vertex 4.68495 -7.62491 4.9281
    endloop
  endfacet
  facet normal 1.3442e-06 -0.165608 0.986192
    outer loop
      vertex 4.68495 -7.62491 4.9281
      vertex 4.22078 -5.86467 5.22369
      vertex 4.68495 -11.4675 4.28283
    endloop
  endfacet
  facet normal 0 -0.165608 0.986192
    outer loop
      vertex 4.22078 -5.86467 5.22369
      vertex 4.22078 -11.4675 4.28283
      vertex 4.68495 -11.4675 4.28283
    endloop
  endfacet
  facet normal 0.893396 0.442182 -0.0794901
    outer loop
      vertex 6.20637 7.13791 4.7843
      vertex 5.60763 8.12924 3.56947
      vertex 5.60763 8.29017 4.46472
    endloop
  endfacet
  facet normal 0.877811 0.47145 -0.0847515
    outer loop
      vertex 6.93069 5.69238 4.24534
      vertex 6.20637 6.97698 3.88905
      vertex 6.20637 7.13791 4.7843
    endloop
  endfacet
  facet normal 0.877811 0.47145 -0.0847515
    outer loop
      vertex 6.93069 5.85331 5.14059
      vertex 6.93069 5.69238 4.24534
      vertex 6.20637 7.13791 4.7843
    endloop
  endfacet
  facet normal 0.893396 0.442182 -0.0794901
    outer loop
      vertex 6.20637 6.97698 3.88905
      vertex 5.60763 8.12924 3.56947
      vertex 6.20637 7.13791 4.7843
    endloop
  endfacet
  facet normal -1.0353e-06 -0.267266 -0.963623
    outer loop
      vertex 6.68736 5.52511 4.29174
      vertex 6.20637 6.97698 3.88905
      vertex 6.93069 5.69238 4.24534
    endloop
  endfacet
  facet normal -2.57612e-06 -0.267264 -0.963623
    outer loop
      vertex 6.93069 5.69238 4.24534
      vertex 6.68736 4.69757 4.52126
      vertex 6.68736 5.52511 4.29174
    endloop
  endfacet
  facet normal 0 -0.267264 -0.963623
    outer loop
      vertex 6.68736 4.69757 4.52126
      vertex 6.20637 4.69757 4.52126
      vertex 6.68736 5.52511 4.29174
    endloop
  endfacet
  facet normal 1.3638e-06 -0.267264 -0.963623
    outer loop
      vertex 6.20637 4.69757 4.52126
      vertex 6.02757 6.69525 3.96719
      vertex 6.68736 5.52511 4.29174
    endloop
  endfacet
  facet normal 0 -0.267264 -0.963623
    outer loop
      vertex 6.20637 4.69757 4.52126
      vertex 5.60763 4.69757 4.52126
      vertex 6.02757 6.69525 3.96719
    endloop
  endfacet
  facet normal -1.33158e-07 -0.267264 -0.963623
    outer loop
      vertex 5.60763 4.69757 4.52126
      vertex 5.42112 7.86234 3.64349
      vertex 6.02757 6.69525 3.96719
    endloop
  endfacet
  facet normal 0 -0.267264 -0.963623
    outer loop
      vertex 5.60763 4.69757 4.52126
      vertex 5.16193 4.69757 4.52126
      vertex 5.42112 7.86234 3.64349
    endloop
  endfacet
  facet normal 3.93815e-06 -0.267265 -0.963623
    outer loop
      vertex 5.42112 7.86234 3.64349
      vertex 5.16193 4.69757 4.52126
      vertex 5.16193 8.4199 3.48885
    endloop
  endfacet
  facet normal -2.92843e-06 -0.267266 -0.963623
    outer loop
      vertex 6.02757 6.69525 3.96719
      vertex 5.42112 7.86234 3.64349
      vertex 5.60763 8.12924 3.56947
    endloop
  endfacet
  facet normal -1.95741e-06 -0.267266 -0.963623
    outer loop
      vertex 6.02757 6.69525 3.96719
      vertex 5.60763 8.12924 3.56947
      vertex 6.20637 6.97698 3.88905
    endloop
  endfacet
  facet normal 1 0 0
    outer loop
      vertex 3.56878 20.1968 2.77078
      vertex 3.56878 20.1968 1.73937
      vertex 3.56878 21.2163 1.73937
    endloop
  endfacet
  facet normal 1 0 0
    outer loop
      vertex 3.56878 21.2163 2.77078
      vertex 3.56878 20.1968 2.77078
      vertex 3.56878 21.2163 1.73937
    endloop
  endfacet
  facet normal 0.817227 0.576316 0
    outer loop
      vertex 3.56878 21.2163 1.73937
      vertex 2.80616 22.2977 1.73937
      vertex 2.80616 22.2977 2.77078
    endloop
  endfacet
  facet normal 0.817227 0.576316 0
    outer loop
      vertex 3.56878 21.2163 2.77078
      vertex 3.56878 21.2163 1.73937
      vertex 2.80616 22.2977 2.77078
    endloop
  endfacet
  facet normal 0.946849 0.320998 0.0209162
    outer loop
      vertex 2.69955 -16.5215 1.35499
      vertex 2.69955 -16.7182 4.3734
      vertex 3.15592 -17.8858 1.63314
    endloop
  endfacet
  facet normal 0.736668 0.349677 -0.578832
    outer loop
      vertex 2.59956 -17.8087 0.450136
      vertex 2.14319 -16.4772 0.673745
      vertex 2.69955 -16.5215 1.35499
    endloop
  endfacet
  facet normal 0.889077 0.215018 -0.404116
    outer loop
      vertex 3.15592 -17.8858 1.63314
      vertex 2.59956 -17.8087 0.450136
      vertex 2.69955 -16.5215 1.35499
    endloop
  endfacet
  facet normal 0.946849 0.320997 0.0209167
    outer loop
      vertex 3.15592 -17.8858 1.63314
      vertex 2.69955 -16.7182 4.3734
      vertex 3.15592 -18.0498 4.1498
    endloop
  endfacet
  facet normal 0.774335 0.162697 0.611502
    outer loop
      vertex 2.69955 -16.7182 4.3734
      vertex 1.4906 -17.4001 6.08569
      vertex 3.15592 -18.0498 4.1498
    endloop
  endfacet
  facet normal 0.774335 0.162697 0.611502
    outer loop
      vertex 3.15592 -18.0498 4.1498
      vertex 1.4906 -17.4001 6.08569
      vertex 1.94697 -18.7316 5.86208
    endloop
  endfacet
  facet normal 0 -0.16561 0.986191
    outer loop
      vertex -1.4906 -17.4001 6.08569
      vertex -1.94697 -18.7316 5.86208
      vertex 1.94697 -18.7316 5.86208
    endloop
  endfacet
  facet normal 0 -0.16561 0.986191
    outer loop
      vertex 1.4906 -17.4001 6.08569
      vertex -1.4906 -17.4001 6.08569
      vertex 1.94697 -18.7316 5.86208
    endloop
  endfacet
  facet normal -0.774335 0.162697 0.611502
    outer loop
      vertex -1.4906 -17.4001 6.08569
      vertex -3.15592 -18.0498 4.1498
      vertex -1.94697 -18.7316 5.86208
    endloop
  endfacet
  facet normal -0.774335 0.162697 0.611502
    outer loop
      vertex -2.69955 -16.7182 4.3734
      vertex -3.15592 -18.0498 4.1498
      vertex -1.4906 -17.4001 6.08569
    endloop
  endfacet
  facet normal -0.946849 0.320997 0.0209167
    outer loop
      vertex -3.15592 -17.8858 1.63314
      vertex -3.15592 -18.0498 4.1498
      vertex -2.69955 -16.7182 4.3734
    endloop
  endfacet
  facet normal -0.946849 0.320998 0.0209162
    outer loop
      vertex -2.69955 -16.5215 1.35499
      vertex -3.15592 -17.8858 1.63314
      vertex -2.69955 -16.7182 4.3734
    endloop
  endfacet
  facet normal -0.889077 0.215018 -0.404116
    outer loop
      vertex -2.59956 -17.8087 0.450136
      vertex -3.15592 -17.8858 1.63314
      vertex -2.69955 -16.5215 1.35499
    endloop
  endfacet
  facet normal -0.736668 0.349677 -0.578832
    outer loop
      vertex -2.59956 -17.8087 0.450136
      vertex -2.69955 -16.5215 1.35499
      vertex -2.14319 -16.4772 0.673745
    endloop
  endfacet
  facet normal 0 0.165608 -0.986192
    outer loop
      vertex -2.59956 -17.8087 0.450136
      vertex -2.14319 -16.4772 0.673745
      vertex 2.59956 -17.8087 0.450136
    endloop
  endfacet
  facet normal 0 0.165608 -0.986192
    outer loop
      vertex 2.59956 -17.8087 0.450136
      vertex -2.14319 -16.4772 0.673745
      vertex 2.14319 -16.4772 0.673745
    endloop
  endfacet
  facet normal -0.71867 0.69388 0.0452122
    outer loop
      vertex -5.44619 -9.36257 4.03675
      vertex -5.96605 -9.93382 4.54037
      vertex -5.44619 -9.40122 4.62981
    endloop
  endfacet
  facet normal -0.916641 0.398865 0.0259895
    outer loop
      vertex -5.44619 -9.36257 4.03675
      vertex -5.44619 -9.40122 4.62981
      vertex -5.04683 -8.45474 4.18919
    endloop
  endfacet
  facet normal -0.916641 0.398865 0.0259895
    outer loop
      vertex -5.04683 -8.45474 4.18919
      vertex -5.44619 -9.40122 4.62981
      vertex -5.04683 -8.49338 4.78226
    endloop
  endfacet
  facet normal -0.718669 0.69388 0.0452133
    outer loop
      vertex -5.96605 -9.89518 3.94731
      vertex -5.96605 -9.93382 4.54037
      vertex -5.44619 -9.36257 4.03675
    endloop
  endfacet
  facet normal 0.924258 0.38096 0.0248227
    outer loop
      vertex 5.04683 -8.45474 4.18919
      vertex 4.68495 -7.58626 4.33504
      vertex 5.04683 -8.49338 4.78226
    endloop
  endfacet
  facet normal 0.924258 0.38096 0.0248234
    outer loop
      vertex 4.68495 -7.58626 4.33504
      vertex 4.68495 -7.62491 4.9281
      vertex 5.04683 -8.49338 4.78226
    endloop
  endfacet
  facet normal -2.81494e-06 0.165608 -0.986192
    outer loop
      vertex 5.04683 -8.45474 4.18919
      vertex 4.68495 -11.4288 3.68977
      vertex 4.68495 -7.58626 4.33504
    endloop
  endfacet
  facet normal 0 -0.165608 0.986192
    outer loop
      vertex 4.68495 -7.62491 4.9281
      vertex 4.68495 -11.4675 4.28283
      vertex 5.04683 -11.4675 4.28283
    endloop
  endfacet
  facet normal 8.40904e-07 -0.165608 0.986192
    outer loop
      vertex 5.04683 -8.49338 4.78226
      vertex 4.68495 -7.62491 4.9281
      vertex 5.04683 -11.4675 4.28283
    endloop
  endfacet
  facet normal 0 -0.165608 0.986192
    outer loop
      vertex 5.04683 -8.49338 4.78226
      vertex 5.04683 -11.4675 4.28283
      vertex 5.44619 -11.4675 4.28283
    endloop
  endfacet
  facet normal 1.41392e-07 -0.165608 0.986192
    outer loop
      vertex 5.44619 -9.40122 4.62981
      vertex 5.04683 -8.49338 4.78226
      vertex 5.44619 -11.4675 4.28283
    endloop
  endfacet
  facet normal 0 -0.165608 0.986192
    outer loop
      vertex 5.44619 -9.40122 4.62981
      vertex 5.44619 -11.4675 4.28283
      vertex 5.96605 -11.4675 4.28283
    endloop
  endfacet
  facet normal -1.27324e-07 -0.165608 0.986192
    outer loop
      vertex 5.96605 -9.93382 4.54037
      vertex 5.44619 -9.40122 4.62981
      vertex 5.96605 -11.4675 4.28283
    endloop
  endfacet
  facet normal 1 0 0
    outer loop
      vertex 5.96605 -9.93382 4.54037
      vertex 5.96605 -11.4675 4.28283
      vertex 5.96605 -11.4288 3.68977
    endloop
  endfacet
  facet normal 1 0 0
    outer loop
      vertex 5.96605 -9.89518 3.94731
      vertex 5.96605 -9.93382 4.54037
      vertex 5.96605 -11.4288 3.68977
    endloop
  endfacet
  facet normal 0 0.165608 -0.986192
    outer loop
      vertex 5.96605 -11.4288 3.68977
      vertex 5.44619 -11.4288 3.68977
      vertex 5.96605 -9.89518 3.94731
    endloop
  endfacet
  facet normal -1.95688e-06 0.165608 -0.986192
    outer loop
      vertex 5.96605 -9.89518 3.94731
      vertex 5.44619 -11.4288 3.68977
      vertex 5.44619 -9.36257 4.03675
    endloop
  endfacet
  facet normal 0 0.165608 -0.986192
    outer loop
      vertex 5.44619 -11.4288 3.68977
      vertex 5.04683 -11.4288 3.68977
      vertex 5.44619 -9.36257 4.03675
    endloop
  endfacet
  facet normal 1.87059e-06 0.165608 -0.986192
    outer loop
      vertex 5.44619 -9.36257 4.03675
      vertex 5.04683 -11.4288 3.68977
      vertex 5.04683 -8.45474 4.18919
    endloop
  endfacet
  facet normal 0 0.165608 -0.986192
    outer loop
      vertex 5.04683 -11.4288 3.68977
      vertex 4.68495 -11.4288 3.68977
      vertex 5.04683 -8.45474 4.18919
    endloop
  endfacet
  facet normal -1.44803e-06 -0.267266 -0.963623
    outer loop
      vertex 6.68736 5.52511 4.29174
      vertex 6.02757 6.69525 3.96719
      vertex 6.20637 6.97698 3.88905
    endloop
  endfacet
  facet normal 0 -0.997884 -0.0650236
    outer loop
      vertex 3.15592 -18.0498 4.1498
      vertex -3.15592 -18.0498 4.1498
      vertex -3.15592 -17.8858 1.63314
    endloop
  endfacet
  facet normal 0 -0.997884 -0.0650236
    outer loop
      vertex 3.15592 -17.8858 1.63314
      vertex 3.15592 -18.0498 4.1498
      vertex -3.15592 -17.8858 1.63314
    endloop
  endfacet
  facet normal 0 -0.997884 -0.0650191
    outer loop
      vertex 3.15592 -17.8858 1.63314
      vertex -3.15592 -17.8858 1.63314
      vertex -2.59956 -17.8087 0.450136
    endloop
  endfacet
  facet normal 0 -0.997884 -0.0650191
    outer loop
      vertex 2.59956 -17.8087 0.450136
      vertex 3.15592 -17.8858 1.63314
      vertex -2.59956 -17.8087 0.450136
    endloop
  endfacet
  facet normal 0 -0.929053 -0.369946
    outer loop
      vertex -1.94697 -18.7316 5.86208
      vertex -3.15592 -18.0498 4.1498
      vertex 3.15592 -18.0498 4.1498
    endloop
  endfacet
  facet normal 0 -0.929053 -0.369946
    outer loop
      vertex 1.94697 -18.7316 5.86208
      vertex -1.94697 -18.7316 5.86208
      vertex 3.15592 -18.0498 4.1498
    endloop
  endfacet
  facet normal 0.916641 0.398865 0.0259895
    outer loop
      vertex 5.44619 -9.36257 4.03675
      vertex 5.04683 -8.45474 4.18919
      vertex 5.44619 -9.40122 4.62981
    endloop
  endfacet
  facet normal 0.916641 0.398865 0.0259895
    outer loop
      vertex 5.04683 -8.45474 4.18919
      vertex 5.04683 -8.49338 4.78226
      vertex 5.44619 -9.40122 4.62981
    endloop
  endfacet
  facet normal 0.71867 0.69388 0.0452122
    outer loop
      vertex 5.44619 -9.36257 4.03675
      vertex 5.44619 -9.40122 4.62981
      vertex 5.96605 -9.93382 4.54037
    endloop
  endfacet
  facet normal 0.718669 0.69388 0.0452133
    outer loop
      vertex 5.96605 -9.89518 3.94731
      vertex 5.44619 -9.36257 4.03675
      vertex 5.96605 -9.93382 4.54037
    endloop
  endfacet
endsolid OpenSCAD_Model
