solid OpenSCAD_Model
  facet normal -0.648754 0.0528597 0.75916
    outer loop
      vertex -7.28574 3.42634 1.90223
      vertex -7.6387 -4.01277 2.11858
      vertex -6.23115 -0.091478 3.04839
    endloop
  endfacet
  facet normal -0.672701 0.0667339 0.736899
    outer loop
      vertex -6.23115 -0.091478 3.04839
      vertex -7.6387 -4.01277 2.11858
      vertex -6.61233 -7.50417 3.37171
    endloop
  endfacet
  facet normal -0.790757 -0.0128014 0.611996
    outer loop
      vertex -6.61233 -7.50417 3.37171
      vertex -7.6387 -4.01277 2.11858
      vertex -7.04827 -8.04349 2.79716
    endloop
  endfacet
  facet normal -0.989435 -0.144979 -0.000269081
    outer loop
      vertex -7.04827 -8.04349 2.79716
      vertex -7.6387 -4.01277 2.11858
      vertex -7.05728 -7.97839 0.845934
    endloop
  endfacet
  facet normal -0.990034 -0.139855 -0.0165105
    outer loop
      vertex -7.05728 -7.97839 0.845934
      vertex -7.6387 -4.01277 2.11858
      vertex -7.6387 -3.89323 1.106
    endloop
  endfacet
  facet normal -0.998853 0.047555 0.00561408
    outer loop
      vertex -7.6387 -3.89323 1.106
      vertex -7.6387 -4.01277 2.11858
      vertex -7.28574 3.54588 0.889646
    endloop
  endfacet
  facet normal -0.998853 0.0475549 0.00561398
    outer loop
      vertex -7.28574 3.54588 0.889646
      vertex -7.6387 -4.01277 2.11858
      vertex -7.28574 3.42634 1.90223
    endloop
  endfacet
  facet normal -0.485547 0.135814 0.863596
    outer loop
      vertex -6.61233 7.47043 1.64485
      vertex -7.28574 3.42634 1.90223
      vertex -6.23115 -0.091478 3.04839
    endloop
  endfacet
  facet normal -0.985027 0.171212 0.020212
    outer loop
      vertex -7.28574 3.54588 0.889646
      vertex -7.28574 3.42634 1.90223
      vertex -6.61233 7.52518 0
    endloop
  endfacet
  facet normal -0.986347 0.164592 0.00547925
    outer loop
      vertex -6.61233 7.52518 0
      vertex -7.28574 3.42634 1.90223
      vertex -6.61233 7.47043 1.64485
    endloop
  endfacet
  facet normal 0.448726 0.136823 0.883133
    outer loop
      vertex -5.77458 7.47043 1.64485
      vertex -6.23115 -0.091478 3.04839
      vertex -5.07547 6.51382 1.43783
    endloop
  endfacet
  facet normal 0.478081 0.128218 0.868907
    outer loop
      vertex -5.07547 6.51382 1.43783
      vertex -6.23115 -0.091478 3.04839
      vertex -5.07547 -6.59173 3.37171
    endloop
  endfacet
  facet normal -0.0525754 0.0402835 0.997804
    outer loop
      vertex -5.07547 -6.59173 3.37171
      vertex -6.23115 -0.091478 3.04839
      vertex -5.77458 -7.50417 3.37171
    endloop
  endfacet
  facet normal 0 0.0435761 0.99905
    outer loop
      vertex -6.23115 -0.091478 3.04839
      vertex -6.61233 -7.50417 3.37171
      vertex -5.77458 -7.50417 3.37171
    endloop
  endfacet
  facet normal 0 0.18249 0.983208
    outer loop
      vertex -5.77458 7.47043 1.64485
      vertex -6.61233 7.47043 1.64485
      vertex -6.23115 -0.091478 3.04839
    endloop
  endfacet
  facet normal 0 -0.729109 0.684398
    outer loop
      vertex -6.61233 -7.50417 3.37171
      vertex -7.04827 -8.04349 2.79716
      vertex -5.87597 -8.04349 2.79716
    endloop
  endfacet
  facet normal 0 -0.729109 0.684398
    outer loop
      vertex -5.77458 -7.50417 3.37171
      vertex -6.61233 -7.50417 3.37171
      vertex -5.87597 -8.04349 2.79716
    endloop
  endfacet
  facet normal 0 -0.999474 -0.0324159
    outer loop
      vertex -5.87597 -8.04349 2.79716
      vertex -7.04827 -8.04349 2.79716
      vertex -6.51095 -7.97839 0.79
    endloop
  endfacet
  facet normal 0 -0.999474 -0.0324159
    outer loop
      vertex -5.87597 -7.97839 0.79
      vertex -5.87597 -8.04349 2.79716
      vertex -6.51095 -7.97839 0.79
    endloop
  endfacet
  facet normal -0.0034122 -0.999439 -0.0333282
    outer loop
      vertex -7.04827 -8.04349 2.79716
      vertex -7.05728 -7.97839 0.845934
      vertex -6.51095 -7.97839 0.79
    endloop
  endfacet
  facet normal -0.879089 -0.0953852 -0.467016
    outer loop
      vertex -7.05728 -7.97839 0.845934
      vertex -7.6387 -3.89323 1.106
      vertex -6.61233 -7.93733 0
    endloop
  endfacet
  facet normal -0.00524593 -0.998673 -0.0512388
    outer loop
      vertex -6.51095 -7.97839 0.79
      vertex -7.05728 -7.97839 0.845934
      vertex -6.61233 -7.93733 0
    endloop
  endfacet
  facet normal -0.708601 0.0131024 -0.705488
    outer loop
      vertex -6.61233 -7.93733 0
      vertex -7.6387 -3.89323 1.106
      vertex -7.28574 3.54588 0.889646
    endloop
  endfacet
  facet normal -0.797337 0 -0.603535
    outer loop
      vertex -6.61233 -7.93733 0
      vertex -7.28574 3.54588 0.889646
      vertex -6.61233 7.52518 0
    endloop
  endfacet
  facet normal 0 0.999446 0.0332715
    outer loop
      vertex -6.61233 7.47043 1.64485
      vertex -5.77458 7.47043 1.64485
      vertex -6.61233 7.52518 0
    endloop
  endfacet
  facet normal 0 0.999446 0.0332715
    outer loop
      vertex -6.61233 7.52518 0
      vertex -5.77458 7.47043 1.64485
      vertex -5.77458 7.52518 0
    endloop
  endfacet
  facet normal 0 0 -1
    outer loop
      vertex -6.61233 -7.93733 0
      vertex -6.61233 7.52518 0
      vertex -5.77458 -7.93733 0
    endloop
  endfacet
  facet normal 0 0 -1
    outer loop
      vertex -5.77458 -7.93733 0
      vertex -6.61233 7.52518 0
      vertex -5.77458 7.52518 0
    endloop
  endfacet
  facet normal 0.634458 0.772529 0.0257175
    outer loop
      vertex -5.77458 7.52518 0
      vertex -5.77458 7.47043 1.64485
      vertex -4.7057 6.63528 0.362084
    endloop
  endfacet
  facet normal 0.794621 0.509177 0.330631
    outer loop
      vertex -4.7057 6.63528 0.362084
      vertex -5.77458 7.47043 1.64485
      vertex -5.07547 6.51382 1.43783
    endloop
  endfacet
  facet normal 0.917438 0.208467 0.338892
    outer loop
      vertex -4.7057 6.63528 0.362084
      vertex -5.07547 6.51382 1.43783
      vertex -4.20584 2.45557 1.58
    endloop
  endfacet
  facet normal 0.977689 0.209841 0.00956433
    outer loop
      vertex -4.20584 2.45557 1.58
      vertex -5.07547 6.51382 1.43783
      vertex -4.20584 2.40156 2.765
    endloop
  endfacet
  facet normal -0.633837 0.112912 0.765181
    outer loop
      vertex -5.07547 6.51382 1.43783
      vertex -5.07547 -6.59173 3.37171
      vertex -4.20584 2.40156 2.765
    endloop
  endfacet
  facet normal 0.572178 0 0.820129
    outer loop
      vertex -4.20584 2.40156 2.765
      vertex -5.07547 -6.59173 3.37171
      vertex -4.20584 -3.65242 2.765
    endloop
  endfacet
  facet normal 0.95337 -0.245966 0.174892
    outer loop
      vertex -4.20584 -3.65242 2.765
      vertex -5.07547 -6.59173 3.37171
      vertex -4.7057 -6.98072 0.808957
    endloop
  endfacet
  facet normal 0.822567 -0.532521 0.199513
    outer loop
      vertex -5.07547 -6.59173 3.37171
      vertex -5.87597 -8.04349 2.79716
      vertex -4.7057 -6.98072 0.808957
    endloop
  endfacet
  facet normal 0.729003 -0.558564 0.395677
    outer loop
      vertex -5.77458 -7.50417 3.37171
      vertex -5.87597 -8.04349 2.79716
      vertex -5.07547 -6.59173 3.37171
    endloop
  endfacet
  facet normal 0.648795 -0.760563 -0.0246673
    outer loop
      vertex -4.7057 -6.98072 0.808957
      vertex -5.87597 -8.04349 2.79716
      vertex -5.87597 -7.97839 0.79
    endloop
  endfacet
  facet normal 0.647736 -0.760617 0.0435874
    outer loop
      vertex -4.7057 -6.98072 0.808957
      vertex -5.87597 -7.97839 0.79
      vertex -5.77458 -7.93733 0
    endloop
  endfacet
  facet normal 0 -0.998652 -0.0519109
    outer loop
      vertex -6.51095 -7.97839 0.79
      vertex -6.61233 -7.93733 0
      vertex -5.77458 -7.93733 0
    endloop
  endfacet
  facet normal 0 -0.998652 -0.0519109
    outer loop
      vertex -5.87597 -7.97839 0.79
      vertex -6.51095 -7.97839 0.79
      vertex -5.77458 -7.93733 0
    endloop
  endfacet
  facet normal 0.603476 0 -0.797381
    outer loop
      vertex -4.7057 -6.98072 0.808957
      vertex -5.77458 -7.93733 0
      vertex -5.77458 7.52518 0
    endloop
  endfacet
  facet normal 0.297194 -0.0313199 -0.954303
    outer loop
      vertex -4.7057 -6.98072 0.808957
      vertex -5.77458 7.52518 0
      vertex -4.7057 6.63528 0.362084
    endloop
  endfacet
  facet normal 0.869895 -0.0161792 -0.492972
    outer loop
      vertex -4.20584 -3.59841 1.58
      vertex -4.7057 -6.98072 0.808957
      vertex -4.7057 6.63528 0.362084
    endloop
  endfacet
  facet normal 0.925115 0 -0.379688
    outer loop
      vertex -4.20584 -3.59841 1.58
      vertex -4.7057 6.63528 0.362084
      vertex -4.20584 2.45557 1.58
    endloop
  endfacet
  facet normal 0 0 -1
    outer loop
      vertex -4.20584 -3.59841 1.58
      vertex -4.20584 2.45557 1.58
      vertex -2.78469 -0.967343 1.58
    endloop
  endfacet
  facet normal 0 0 -1
    outer loop
      vertex -2.78469 -0.967343 1.58
      vertex -4.20584 2.45557 1.58
      vertex -2.78469 2.92858 1.58
    endloop
  endfacet
  facet normal -0.315505 0.94794 0.0432061
    outer loop
      vertex -4.20584 2.45557 1.58
      vertex -4.20584 2.40156 2.765
      vertex -2.78469 2.92858 1.58
    endloop
  endfacet
  facet normal 0 0 1
    outer loop
      vertex -4.20584 2.40156 2.765
      vertex -4.20584 -3.65242 2.765
      vertex -2.78469 -1.0021 2.765
    endloop
  endfacet
  facet normal 0 0 1
    outer loop
      vertex -2.78469 2.89382 2.765
      vertex -4.20584 2.40156 2.765
      vertex -2.78469 -1.0021 2.765
    endloop
  endfacet
  facet normal -0.327176 0.944557 0.0277046
    outer loop
      vertex -2.78469 2.92858 1.58
      vertex -4.20584 2.40156 2.765
      vertex -2.78469 2.89382 2.765
    endloop
  endfacet
  facet normal 0.881091 -0.472457 -0.0215333
    outer loop
      vertex -2.78469 -1.0021 2.765
      vertex -4.20584 -3.65242 2.765
      vertex -4.20584 -3.59841 1.58
    endloop
  endfacet
  facet normal 0.98945 -0.144724 -0.00659612
    outer loop
      vertex -4.20584 -3.65242 2.765
      vertex -4.7057 -6.98072 0.808957
      vertex -4.20584 -3.59841 1.58
    endloop
  endfacet
  facet normal 0.879768 -0.475199 -0.013938
    outer loop
      vertex -2.78469 -1.0021 2.765
      vertex -4.20584 -3.59841 1.58
      vertex -2.78469 -0.967343 1.58
    endloop
  endfacet
  facet normal -1 0 0
    outer loop
      vertex -2.78469 -1.67994 3.5451
      vertex -2.78469 -1.67994 4.68838
      vertex -2.78469 -1.61043 0.988174
    endloop
  endfacet
  facet normal -1 0 0
    outer loop
      vertex -2.78469 -1.0021 2.765
      vertex -2.78469 -1.67994 4.68838
      vertex -2.78469 5.20743 3.47294
    endloop
  endfacet
  facet normal -1 0 0
    outer loop
      vertex -2.78469 2.92858 1.58
      vertex -2.78469 5.20743 3.47294
      vertex -2.78469 5.27694 0.916015
    endloop
  endfacet
  facet normal -1 0 0
    outer loop
      vertex -2.78469 -1.61043 0.988174
      vertex -2.78469 -1.67994 4.68838
      vertex -2.78469 -1.0021 2.765
    endloop
  endfacet
  facet normal -1 0 0
    outer loop
      vertex -2.78469 2.89382 2.765
      vertex -2.78469 -1.0021 2.765
      vertex -2.78469 5.20743 3.47294
    endloop
  endfacet
  facet normal -1 0 0
    outer loop
      vertex -2.78469 -1.61043 0.988174
      vertex -2.78469 -1.0021 2.765
      vertex -2.78469 -0.967343 1.58
    endloop
  endfacet
  facet normal -1 0 0
    outer loop
      vertex -2.78469 2.89382 2.765
      vertex -2.78469 5.20743 3.47294
      vertex -2.78469 2.92858 1.58
    endloop
  endfacet
  facet normal -1 0 0
    outer loop
      vertex -2.78469 -1.61043 0.988174
      vertex -2.78469 2.92858 1.58
      vertex -2.78469 5.27694 0.916015
    endloop
  endfacet
  facet normal -1 0 0
    outer loop
      vertex -2.78469 2.92858 1.58
      vertex -2.78469 -1.61043 0.988174
      vertex -2.78469 -0.967343 1.58
    endloop
  endfacet
  facet normal -0.93513 -0.354175 -0.00962852
    outer loop
      vertex -2.20086 -3.18896 2.35083
      vertex -2.78469 -1.67994 3.5451
      vertex -2.78469 -1.61043 0.988174
    endloop
  endfacet
  facet normal -0.779057 -0.549196 -0.302414
    outer loop
      vertex -2.20086 -3.18896 2.35083
      vertex -2.78469 -1.61043 0.988174
      vertex -2.42413 -1.57776 0
    endloop
  endfacet
  facet normal -0.939421 0 -0.342766
    outer loop
      vertex -2.42413 -1.57776 0
      vertex -2.78469 -1.61043 0.988174
      vertex -2.42413 5.30962 0
    endloop
  endfacet
  facet normal -0.930459 -0.00383852 -0.366376
    outer loop
      vertex -2.42413 5.30962 0
      vertex -2.78469 -1.61043 0.988174
      vertex -2.78469 5.27694 0.916015
    endloop
  endfacet
  facet normal -0.0882578 0.36341 -0.927439
    outer loop
      vertex 0 6.63969 1.185
      vertex -2.78469 5.27694 0.916015
      vertex -2.18811 6.10829 1.185
    endloop
  endfacet
  facet normal -0.814765 0.579578 0.0157565
    outer loop
      vertex -2.78469 5.27694 0.916015
      vertex -2.78469 5.20743 3.47294
      vertex -2.18811 6.10829 1.185
    endloop
  endfacet
  facet normal -0.307734 0.947456 -0.08733
    outer loop
      vertex -2.42413 5.30962 0
      vertex -2.78469 5.27694 0.916015
      vertex 0 6.18141 0.916015
    endloop
  endfacet
  facet normal -0.162232 0.499482 -0.850998
    outer loop
      vertex 0 6.18141 0.916015
      vertex -2.78469 5.27694 0.916015
      vertex 0 6.63969 1.185
    endloop
  endfacet
  facet normal -0.192239 0.393866 0.89884
    outer loop
      vertex -2.78469 5.20743 3.47294
      vertex -2.84008 3.64868 4.14412
      vertex 0 6.06199 3.69405
    endloop
  endfacet
  facet normal -0.990068 -0.0244333 -0.138452
    outer loop
      vertex -2.78469 -1.67994 4.68838
      vertex -2.84008 3.64868 4.14412
      vertex -2.78469 5.20743 3.47294
    endloop
  endfacet
  facet normal -0.81796 0.575125 0.0131703
    outer loop
      vertex -2.18811 6.10829 1.185
      vertex -2.78469 5.20743 3.47294
      vertex -2.18811 6.06745 2.96842
    endloop
  endfacet
  facet normal -0.247505 0.612224 0.750948
    outer loop
      vertex -2.18811 6.06745 2.96842
      vertex -2.78469 5.20743 3.47294
      vertex 0 6.06199 3.69405
    endloop
  endfacet
  facet normal -0.408946 -0.00693626 0.912532
    outer loop
      vertex -1.98449 2.44928 5.07838
      vertex -2.78469 -1.67994 4.68838
      vertex 0 -1.16342 5.94025
    endloop
  endfacet
  facet normal -0.422231 0.0902477 0.901985
    outer loop
      vertex 0 -1.16342 5.94025
      vertex -2.78469 -1.67994 4.68838
      vertex -2.20086 -2.91484 5.08524
    endloop
  endfacet
  facet normal -0.904056 -0.427413 0
    outer loop
      vertex -2.78469 -1.67994 4.68838
      vertex -2.78469 -1.67994 3.5451
      vertex -2.20086 -2.91484 5.08524
    endloop
  endfacet
  facet normal -0.692053 0.0662238 0.718802
    outer loop
      vertex -1.98449 2.44928 5.07838
      vertex -2.84008 3.64868 4.14412
      vertex -2.78469 -1.67994 4.68838
    endloop
  endfacet
  facet normal -0.921211 -0.387123 0.038808
    outer loop
      vertex -2.20086 -2.91484 5.08524
      vertex -2.78469 -1.67994 3.5451
      vertex -2.20086 -3.18896 2.35083
    endloop
  endfacet
  facet normal 0 -0.824859 -0.565339
    outer loop
      vertex -2.20086 -3.18896 2.35083
      vertex -2.42413 -1.57776 0
      vertex -0.910956 -1.57776 0
    endloop
  endfacet
  facet normal -0.947129 -0.319252 0.0320041
    outer loop
      vertex -2.20086 -2.91484 5.08524
      vertex -2.20086 -3.18896 2.35083
      vertex -1.66965 -4.92541 0.749899
    endloop
  endfacet
  facet normal -0.840683 0.204948 -0.501247
    outer loop
      vertex -1.66965 -4.92541 0.749899
      vertex -2.20086 -3.18896 2.35083
      vertex -1.23201 -4.96429 0
    endloop
  endfacet
  facet normal -0.448685 0.614452 -0.648946
    outer loop
      vertex -1.23201 -4.96429 0
      vertex -2.20086 -3.18896 2.35083
      vertex -0.973549 -4.77556 0
    endloop
  endfacet
  facet normal -0.881506 0.0172544 -0.471858
    outer loop
      vertex -0.973549 -4.77556 0
      vertex -2.20086 -3.18896 2.35083
      vertex -0.910956 -1.57776 0
    endloop
  endfacet
  facet normal 0 0 -1
    outer loop
      vertex -0.75 -1.29904 0
      vertex -0.910956 -1.57776 0
      vertex -1.21352 -0.881678 0
    endloop
  endfacet
  facet normal 0 0 -1
    outer loop
      vertex -0.75 1.29904 0
      vertex -2.42413 5.30962 0
      vertex 0 6.21409 0
    endloop
  endfacet
  facet normal 0 0 -1
    outer loop
      vertex 0.463525 1.42658 0
      vertex 0 6.21409 0
      vertex 2.42413 5.30962 0
    endloop
  endfacet
  facet normal 0 0 -1
    outer loop
      vertex 1.5 0 0
      vertex 2.42413 5.30962 0
      vertex 2.42413 -1.57776 0
    endloop
  endfacet
  facet normal 0 0 -1
    outer loop
      vertex -1.23201 -4.96429 0
      vertex 0 -11.6646 0
      vertex -1.19465 -11.6646 0
    endloop
  endfacet
  facet normal 0 0 -1
    outer loop
      vertex 0.910956 -1.57776 0
      vertex 0.973549 -4.77556 0
      vertex -0.910956 -1.57776 0
    endloop
  endfacet
  facet normal 0 0 -1
    outer loop
      vertex 0.973549 -4.77556 0
      vertex 1.23201 -4.96429 0
      vertex 2.04998 -6.74393 0
    endloop
  endfacet
  facet normal 0 0 -1
    outer loop
      vertex -1.23201 -4.96429 0
      vertex -1.19465 -11.6646 0
      vertex -2.04998 -6.74393 0
    endloop
  endfacet
  facet normal 0 0 -1
    outer loop
      vertex -1.46722 0.311868 0
      vertex -2.42413 5.30962 0
      vertex -1.21352 0.881678 0
    endloop
  endfacet
  facet normal 0 0 -1
    outer loop
      vertex -0.973549 -4.77556 0
      vertex 1.19465 -11.6646 0
      vertex -1.23201 -4.96429 0
    endloop
  endfacet
  facet normal 0 0 -1
    outer loop
      vertex 1.19465 -11.6646 0
      vertex 0 -11.6646 0
      vertex -1.23201 -4.96429 0
    endloop
  endfacet
  facet normal 0 0 -1
    outer loop
      vertex 2.04998 -6.74393 0
      vertex 1.19465 -11.6646 0
      vertex -0.973549 -4.77556 0
    endloop
  endfacet
  facet normal 0 0 -1
    outer loop
      vertex -2.42413 -1.57776 0
      vertex -2.42413 5.30962 0
      vertex -1.46722 0.311868 0
    endloop
  endfacet
  facet normal 0 0 -1
    outer loop
      vertex -2.42413 -1.57776 0
      vertex -1.46722 0.311868 0
      vertex -1.46722 -0.311868 0
    endloop
  endfacet
  facet normal 0 0 -1
    outer loop
      vertex -2.42413 -1.57776 0
      vertex -1.46722 -0.311868 0
      vertex -0.910956 -1.57776 0
    endloop
  endfacet
  facet normal 0 0 -1
    outer loop
      vertex -1.46722 -0.311868 0
      vertex -1.21352 -0.881678 0
      vertex -0.910956 -1.57776 0
    endloop
  endfacet
  facet normal 0 0 -1
    outer loop
      vertex 0.463525 -1.42658 0
      vertex 0.910956 -1.57776 0
      vertex -0.156793 -1.49178 0
    endloop
  endfacet
  facet normal 0 0 -1
    outer loop
      vertex -0.910956 -1.57776 0
      vertex -0.75 -1.29904 0
      vertex -0.156793 -1.49178 0
    endloop
  endfacet
  facet normal 0 0 -1
    outer loop
      vertex -0.910956 -1.57776 0
      vertex -0.156793 -1.49178 0
      vertex 0.910956 -1.57776 0
    endloop
  endfacet
  facet normal 0 0 -1
    outer loop
      vertex 0.463525 1.42658 0
      vertex 2.42413 5.30962 0
      vertex 1.0037 1.11472 0
    endloop
  endfacet
  facet normal 0 0 -1
    outer loop
      vertex 1.37032 -0.610105 0
      vertex 0.910956 -1.57776 0
      vertex 1.0037 -1.11472 0
    endloop
  endfacet
  facet normal 0 0 -1
    outer loop
      vertex 1.0037 1.11472 0
      vertex 2.42413 5.30962 0
      vertex 1.37032 0.610105 0
    endloop
  endfacet
  facet normal 0 0 -1
    outer loop
      vertex 0.463525 -1.42658 0
      vertex 1.0037 -1.11472 0
      vertex 0.910956 -1.57776 0
    endloop
  endfacet
  facet normal 0 0 -1
    outer loop
      vertex 1.37032 0.610105 0
      vertex 2.42413 5.30962 0
      vertex 1.5 0 0
    endloop
  endfacet
  facet normal 0 0 -1
    outer loop
      vertex 0.910956 -1.57776 0
      vertex 1.37032 -0.610105 0
      vertex 2.42413 -1.57776 0
    endloop
  endfacet
  facet normal 0 0 -1
    outer loop
      vertex 1.37032 -0.610105 0
      vertex 1.5 0 0
      vertex 2.42413 -1.57776 0
    endloop
  endfacet
  facet normal 0 0 -1
    outer loop
      vertex -0.156793 1.49178 0
      vertex 0 6.21409 0
      vertex 0.463525 1.42658 0
    endloop
  endfacet
  facet normal 0 0 -1
    outer loop
      vertex -1.21352 0.881678 0
      vertex -2.42413 5.30962 0
      vertex -0.75 1.29904 0
    endloop
  endfacet
  facet normal 0 0 -1
    outer loop
      vertex -0.910956 -1.57776 0
      vertex 0.973549 -4.77556 0
      vertex 2.04998 -6.74393 0
    endloop
  endfacet
  facet normal 0 0 -1
    outer loop
      vertex -0.910956 -1.57776 0
      vertex 2.04998 -6.74393 0
      vertex -0.973549 -4.77556 0
    endloop
  endfacet
  facet normal 0 0 -1
    outer loop
      vertex -0.75 1.29904 0
      vertex 0 6.21409 0
      vertex -0.156793 1.49178 0
    endloop
  endfacet
  facet normal -0.349375 0.936387 0.0334048
    outer loop
      vertex 0 6.21409 0
      vertex -2.42413 5.30962 0
      vertex 0 6.18141 0.916015
    endloop
  endfacet
  facet normal 0 0 -1
    outer loop
      vertex -2.18811 6.10829 1.185
      vertex -1.49462 7.85277 1.185
      vertex 0 6.63969 1.185
    endloop
  endfacet
  facet normal 0 0 -1
    outer loop
      vertex 0 6.63969 1.185
      vertex -1.49462 7.85277 1.185
      vertex 1.49462 7.85277 1.185
    endloop
  endfacet
  facet normal 0 0 -1
    outer loop
      vertex 0 6.63969 1.185
      vertex 1.49462 7.85277 1.185
      vertex 2.18811 6.10829 1.185
    endloop
  endfacet
  facet normal 0.162232 0.499482 -0.850998
    outer loop
      vertex 2.78469 5.27694 0.916015
      vertex 0 6.18141 0.916015
      vertex 0 6.63969 1.185
    endloop
  endfacet
  facet normal 0.0882578 0.36341 -0.927439
    outer loop
      vertex 2.78469 5.27694 0.916015
      vertex 0 6.63969 1.185
      vertex 2.18811 6.10829 1.185
    endloop
  endfacet
  facet normal -0.899137 0.437552 0.0100199
    outer loop
      vertex -2.18811 6.10829 1.185
      vertex -2.18811 6.06745 2.96842
      vertex -1.31984 7.85277 2.92093
    endloop
  endfacet
  facet normal -0.925224 0.367807 0.0931561
    outer loop
      vertex -1.49462 7.85277 1.185
      vertex -2.18811 6.10829 1.185
      vertex -1.31984 7.85277 2.92093
    endloop
  endfacet
  facet normal 0.349375 0.936387 0.0334048
    outer loop
      vertex 0 6.21409 0
      vertex 0 6.18141 0.916015
      vertex 2.42413 5.30962 0
    endloop
  endfacet
  facet normal 0.307734 0.947456 -0.08733
    outer loop
      vertex 2.42413 5.30962 0
      vertex 0 6.18141 0.916015
      vertex 2.78469 5.27694 0.916015
    endloop
  endfacet
  facet normal -0.208482 0.744469 0.634272
    outer loop
      vertex 0 6.56953 3.09833
      vertex -2.18811 6.06745 2.96842
      vertex 0 6.06199 3.69405
    endloop
  endfacet
  facet normal 0.208482 0.744469 0.634272
    outer loop
      vertex 0 6.56953 3.09833
      vertex 0 6.06199 3.69405
      vertex 2.18811 6.06745 2.96842
    endloop
  endfacet
  facet normal 0.247505 0.612224 0.750948
    outer loop
      vertex 2.18811 6.06745 2.96842
      vertex 0 6.06199 3.69405
      vertex 2.78469 5.20743 3.47294
    endloop
  endfacet
  facet normal 0.192239 0.393866 0.89884
    outer loop
      vertex 2.78469 5.20743 3.47294
      vertex 0 6.06199 3.69405
      vertex 2.84008 3.64868 4.14412
    endloop
  endfacet
  facet normal 0.264267 0.468246 0.843154
    outer loop
      vertex 2.84008 3.64868 4.14412
      vertex 0 6.06199 3.69405
      vertex 1.98449 2.44928 5.07838
    endloop
  endfacet
  facet normal -0.124717 0.294544 0.947465
    outer loop
      vertex 0 6.06199 3.69405
      vertex 0 -1.16342 5.94025
      vertex 1.98449 2.44928 5.07838
    endloop
  endfacet
  facet normal 0.124717 0.294544 0.947465
    outer loop
      vertex 0 6.06199 3.69405
      vertex -1.98449 2.44928 5.07838
      vertex 0 -1.16342 5.94025
    endloop
  endfacet
  facet normal -0.264267 0.468246 0.843154
    outer loop
      vertex 0 6.06199 3.69405
      vertex -2.84008 3.64868 4.14412
      vertex -1.98449 2.44928 5.07838
    endloop
  endfacet
  facet normal -0.0971646 0.0736545 0.992539
    outer loop
      vertex -1.31984 7.85277 2.92093
      vertex -2.18811 6.06745 2.96842
      vertex 0 7.85277 3.05014
    endloop
  endfacet
  facet normal -0.0677836 0.0374406 0.996997
    outer loop
      vertex 0 7.85277 3.05014
      vertex -2.18811 6.06745 2.96842
      vertex 0 6.56953 3.09833
    endloop
  endfacet
  facet normal 0.408946 -0.00693626 0.912532
    outer loop
      vertex 1.98449 2.44928 5.07838
      vertex 0 -1.16342 5.94025
      vertex 2.78469 -1.67994 4.68838
    endloop
  endfacet
  facet normal 0.422231 0.0902477 0.901985
    outer loop
      vertex 2.78469 -1.67994 4.68838
      vertex 0 -1.16342 5.94025
      vertex 2.20086 -2.91484 5.08524
    endloop
  endfacet
  facet normal 0.337281 -0.0354196 0.940737
    outer loop
      vertex 0 -1.16342 5.94025
      vertex 0 -4.65826 5.80867
      vertex 2.20086 -2.91484 5.08524
    endloop
  endfacet
  facet normal -0.337281 -0.0354196 0.940737
    outer loop
      vertex 0 -1.16342 5.94025
      vertex -2.20086 -2.91484 5.08524
      vertex 0 -4.65826 5.80867
    endloop
  endfacet
  facet normal -0.159781 0.199464 0.966791
    outer loop
      vertex 0 -4.65826 5.80867
      vertex -2.20086 -2.91484 5.08524
      vertex -1.18741 -4.78934 5.63947
    endloop
  endfacet
  facet normal -0.884301 -0.414613 0.214728
    outer loop
      vertex -1.18741 -4.78934 5.63947
      vertex -2.20086 -2.91484 5.08524
      vertex -1.84289 -4.76139 2.99401
    endloop
  endfacet
  facet normal -0.991029 -0.114998 -0.0680999
    outer loop
      vertex -1.84289 -4.76139 2.99401
      vertex -2.20086 -2.91484 5.08524
      vertex -1.66965 -4.92541 0.749899
    endloop
  endfacet
  facet normal -0.903921 0.415803 -0.100171
    outer loop
      vertex -1.66965 -4.92541 0.749899
      vertex -2.48762 -6.70505 0.743954
      vertex -1.84289 -4.76139 2.99401
    endloop
  endfacet
  facet normal -0.79351 0.366343 -0.485938
    outer loop
      vertex -2.04998 -6.74393 0
      vertex -2.48762 -6.70505 0.743954
      vertex -1.66965 -4.92541 0.749899
    endloop
  endfacet
  facet normal -0.7955 0.365634 -0.48321
    outer loop
      vertex -1.23201 -4.96429 0
      vertex -2.04998 -6.74393 0
      vertex -1.66965 -4.92541 0.749899
    endloop
  endfacet
  facet normal -0.855714 -0.148744 -0.49561
    outer loop
      vertex -1.19465 -11.6646 0
      vertex -2.48762 -6.70505 0.743954
      vertex -2.04998 -6.74393 0
    endloop
  endfacet
  facet normal -0.879554 -0.162207 -0.447295
    outer loop
      vertex -1.63229 -11.6257 0.84647
      vertex -2.48762 -6.70505 0.743954
      vertex -1.19465 -11.6646 0
    endloop
  endfacet
  facet normal -0.629717 -0.719644 -0.292523
    outer loop
      vertex -0.68518 -13.0201 2.23806
      vertex -1.63229 -11.6257 0.84647
      vertex -1.19465 -11.6646 0
    endloop
  endfacet
  facet normal -0.807382 -0.567876 -0.160157
    outer loop
      vertex -0.68518 -13.0201 2.23806
      vertex -1.19465 -11.6646 0
      vertex 0 -13.7868 1.50224
    endloop
  endfacet
  facet normal 1.45089e-06 -0.577768 -0.816201
    outer loop
      vertex 0 -13.7868 1.50224
      vertex -1.19465 -11.6646 0
      vertex 0 -11.6646 0
    endloop
  endfacet
  facet normal -1.45089e-06 -0.577768 -0.816201
    outer loop
      vertex 1.19465 -11.6646 0
      vertex 0 -13.7868 1.50224
      vertex 0 -11.6646 0
    endloop
  endfacet
  facet normal 0.807382 -0.567876 -0.160157
    outer loop
      vertex 0.68518 -13.0201 2.23806
      vertex 0 -13.7868 1.50224
      vertex 1.19465 -11.6646 0
    endloop
  endfacet
  facet normal 0.629717 -0.719644 -0.292523
    outer loop
      vertex 1.63229 -11.6257 0.84647
      vertex 0.68518 -13.0201 2.23806
      vertex 1.19465 -11.6646 0
    endloop
  endfacet
  facet normal 0.879554 -0.162207 -0.447295
    outer loop
      vertex 1.63229 -11.6257 0.84647
      vertex 1.19465 -11.6646 0
      vertex 2.48762 -6.70505 0.743954
    endloop
  endfacet
  facet normal 0.855714 -0.148744 -0.49561
    outer loop
      vertex 2.48762 -6.70505 0.743954
      vertex 1.19465 -11.6646 0
      vertex 2.04998 -6.74393 0
    endloop
  endfacet
  facet normal 0.79351 0.366343 -0.485938
    outer loop
      vertex 2.04998 -6.74393 0
      vertex 1.66965 -4.92541 0.749899
      vertex 2.48762 -6.70505 0.743954
    endloop
  endfacet
  facet normal 0.7955 0.365634 -0.48321
    outer loop
      vertex 2.04998 -6.74393 0
      vertex 1.23201 -4.96429 0
      vertex 1.66965 -4.92541 0.749899
    endloop
  endfacet
  facet normal 0.448685 0.614452 -0.648946
    outer loop
      vertex 1.23201 -4.96429 0
      vertex 0.973549 -4.77556 0
      vertex 2.20086 -3.18896 2.35083
    endloop
  endfacet
  facet normal 0.840683 0.204948 -0.501247
    outer loop
      vertex 1.66965 -4.92541 0.749899
      vertex 1.23201 -4.96429 0
      vertex 2.20086 -3.18896 2.35083
    endloop
  endfacet
  facet normal 0.881506 0.0172544 -0.471858
    outer loop
      vertex 0.973549 -4.77556 0
      vertex 0.910956 -1.57776 0
      vertex 2.20086 -3.18896 2.35083
    endloop
  endfacet
  facet normal 0 -0.824859 -0.565339
    outer loop
      vertex 2.20086 -3.18896 2.35083
      vertex 0.910956 -1.57776 0
      vertex 2.42413 -1.57776 0
    endloop
  endfacet
  facet normal 0.779057 -0.549196 -0.302414
    outer loop
      vertex 2.78469 -1.61043 0.988174
      vertex 2.20086 -3.18896 2.35083
      vertex 2.42413 -1.57776 0
    endloop
  endfacet
  facet normal 0.939421 0 -0.342766
    outer loop
      vertex 2.78469 -1.61043 0.988174
      vertex 2.42413 -1.57776 0
      vertex 2.42413 5.30962 0
    endloop
  endfacet
  facet normal 0.930459 -0.00383852 -0.366376
    outer loop
      vertex 2.78469 -1.61043 0.988174
      vertex 2.42413 5.30962 0
      vertex 2.78469 5.27694 0.916015
    endloop
  endfacet
  facet normal 1 0 0
    outer loop
      vertex -1.46722 0.311868 0
      vertex -1.46722 0.311868 4.5
      vertex -1.46722 -0.311868 4.5
    endloop
  endfacet
  facet normal 1 0 0
    outer loop
      vertex -1.46722 -0.311868 0
      vertex -1.46722 0.311868 0
      vertex -1.46722 -0.311868 4.5
    endloop
  endfacet
  facet normal 0.913545 -0.406737 0
    outer loop
      vertex -1.21352 0.881678 0
      vertex -1.21352 0.881678 4.5
      vertex -1.46722 0.311868 4.5
    endloop
  endfacet
  facet normal 0.913545 -0.406737 0
    outer loop
      vertex -1.46722 0.311868 0
      vertex -1.21352 0.881678 0
      vertex -1.46722 0.311868 4.5
    endloop
  endfacet
  facet normal 0.669131 -0.743145 0
    outer loop
      vertex -0.75 1.29904 0
      vertex -0.75 1.29904 4.5
      vertex -1.21352 0.881678 4.5
    endloop
  endfacet
  facet normal 0.669131 -0.743145 0
    outer loop
      vertex -1.21352 0.881678 0
      vertex -0.75 1.29904 0
      vertex -1.21352 0.881678 4.5
    endloop
  endfacet
  facet normal 0.309018 -0.951056 0
    outer loop
      vertex -0.156793 1.49178 0
      vertex -0.156793 1.49178 4.5
      vertex -0.75 1.29904 4.5
    endloop
  endfacet
  facet normal 0.309018 -0.951056 0
    outer loop
      vertex -0.75 1.29904 0
      vertex -0.156793 1.49178 0
      vertex -0.75 1.29904 4.5
    endloop
  endfacet
  facet normal -0.104528 -0.994522 0
    outer loop
      vertex 0.463525 1.42658 0
      vertex 0.463525 1.42658 4.5
      vertex -0.156793 1.49178 4.5
    endloop
  endfacet
  facet normal -0.104528 -0.994522 0
    outer loop
      vertex -0.156793 1.49178 0
      vertex 0.463525 1.42658 0
      vertex -0.156793 1.49178 4.5
    endloop
  endfacet
  facet normal -0.5 -0.866025 0
    outer loop
      vertex 1.0037 1.11472 0
      vertex 1.0037 1.11472 4.5
      vertex 0.463525 1.42658 4.5
    endloop
  endfacet
  facet normal -0.5 -0.866025 0
    outer loop
      vertex 0.463525 1.42658 0
      vertex 1.0037 1.11472 0
      vertex 0.463525 1.42658 4.5
    endloop
  endfacet
  facet normal -0.809017 -0.587785 0
    outer loop
      vertex 1.37032 0.610105 4.5
      vertex 1.0037 1.11472 4.5
      vertex 1.37032 0.610105 0
    endloop
  endfacet
  facet normal -0.809017 -0.587785 0
    outer loop
      vertex 1.37032 0.610105 0
      vertex 1.0037 1.11472 4.5
      vertex 1.0037 1.11472 0
    endloop
  endfacet
  facet normal -0.978148 -0.207912 0
    outer loop
      vertex 1.5 0 4.5
      vertex 1.37032 0.610105 4.5
      vertex 1.5 0 0
    endloop
  endfacet
  facet normal -0.978148 -0.207912 0
    outer loop
      vertex 1.5 0 0
      vertex 1.37032 0.610105 4.5
      vertex 1.37032 0.610105 0
    endloop
  endfacet
  facet normal -0.978148 0.207912 0
    outer loop
      vertex 1.5 0 4.5
      vertex 1.5 0 0
      vertex 1.37032 -0.610105 4.5
    endloop
  endfacet
  facet normal -0.978148 0.207912 0
    outer loop
      vertex 1.37032 -0.610105 4.5
      vertex 1.5 0 0
      vertex 1.37032 -0.610105 0
    endloop
  endfacet
  facet normal -0.809017 0.587785 0
    outer loop
      vertex 1.37032 -0.610105 4.5
      vertex 1.37032 -0.610105 0
      vertex 1.0037 -1.11472 4.5
    endloop
  endfacet
  facet normal -0.809017 0.587785 0
    outer loop
      vertex 1.0037 -1.11472 4.5
      vertex 1.37032 -0.610105 0
      vertex 1.0037 -1.11472 0
    endloop
  endfacet
  facet normal -0.5 0.866025 0
    outer loop
      vertex 1.0037 -1.11472 4.5
      vertex 1.0037 -1.11472 0
      vertex 0.463525 -1.42658 4.5
    endloop
  endfacet
  facet normal -0.5 0.866025 0
    outer loop
      vertex 0.463525 -1.42658 4.5
      vertex 1.0037 -1.11472 0
      vertex 0.463525 -1.42658 0
    endloop
  endfacet
  facet normal -0.104528 0.994522 0
    outer loop
      vertex 0.463525 -1.42658 4.5
      vertex 0.463525 -1.42658 0
      vertex -0.156793 -1.49178 4.5
    endloop
  endfacet
  facet normal -0.104528 0.994522 0
    outer loop
      vertex -0.156793 -1.49178 4.5
      vertex 0.463525 -1.42658 0
      vertex -0.156793 -1.49178 0
    endloop
  endfacet
  facet normal 0.309018 0.951056 0
    outer loop
      vertex -0.156793 -1.49178 4.5
      vertex -0.156793 -1.49178 0
      vertex -0.75 -1.29904 4.5
    endloop
  endfacet
  facet normal 0.309018 0.951056 0
    outer loop
      vertex -0.75 -1.29904 4.5
      vertex -0.156793 -1.49178 0
      vertex -0.75 -1.29904 0
    endloop
  endfacet
  facet normal 0.669131 0.743145 0
    outer loop
      vertex -0.75 -1.29904 4.5
      vertex -0.75 -1.29904 0
      vertex -1.21352 -0.881678 4.5
    endloop
  endfacet
  facet normal 0.669131 0.743145 0
    outer loop
      vertex -1.21352 -0.881678 4.5
      vertex -0.75 -1.29904 0
      vertex -1.21352 -0.881678 0
    endloop
  endfacet
  facet normal 0.913545 0.406737 0
    outer loop
      vertex -1.46722 -0.311868 4.5
      vertex -1.21352 -0.881678 4.5
      vertex -1.21352 -0.881678 0
    endloop
  endfacet
  facet normal 0.913545 0.406737 0
    outer loop
      vertex -1.46722 -0.311868 0
      vertex -1.46722 -0.311868 4.5
      vertex -1.21352 -0.881678 0
    endloop
  endfacet
  facet normal 0.925224 0.367807 0.0931561
    outer loop
      vertex 1.49462 7.85277 1.185
      vertex 1.31984 7.85277 2.92093
      vertex 2.18811 6.10829 1.185
    endloop
  endfacet
  facet normal 0.814765 0.579578 0.0157565
    outer loop
      vertex 2.78469 5.27694 0.916015
      vertex 2.18811 6.10829 1.185
      vertex 2.78469 5.20743 3.47294
    endloop
  endfacet
  facet normal 0.81796 0.575125 0.0131703
    outer loop
      vertex 2.18811 6.10829 1.185
      vertex 2.18811 6.06745 2.96842
      vertex 2.78469 5.20743 3.47294
    endloop
  endfacet
  facet normal 0.899137 0.437552 0.0100199
    outer loop
      vertex 2.18811 6.10829 1.185
      vertex 1.31984 7.85277 2.92093
      vertex 2.18811 6.06745 2.96842
    endloop
  endfacet
  facet normal 0 -1 0
    outer loop
      vertex -2.15135 7.85277 2.9957
      vertex -2.15135 7.85277 0.79
      vertex -1.66347 7.85277 0
    endloop
  endfacet
  facet normal 0 -1 0
    outer loop
      vertex -1.49462 7.85277 1.185
      vertex -1.31984 7.85277 2.92093
      vertex -2.15135 7.85277 2.9957
    endloop
  endfacet
  facet normal 0 -1 0
    outer loop
      vertex -1.49462 7.85277 1.185
      vertex -2.15135 7.85277 2.9957
      vertex -1.66347 7.85277 0
    endloop
  endfacet
  facet normal 0 -1 0
    outer loop
      vertex 0 7.85277 4.45186
      vertex -2.15135 7.85277 2.9957
      vertex 1.24056 7.85277 4.13922
    endloop
  endfacet
  facet normal 0 -1 0
    outer loop
      vertex -1.24056 7.85277 4.13922
      vertex -2.15135 7.85277 2.9957
      vertex 0 7.85277 4.45186
    endloop
  endfacet
  facet normal 0 -1 0
    outer loop
      vertex 1.66347 7.85277 0
      vertex -1.49462 7.85277 1.185
      vertex -1.66347 7.85277 0
    endloop
  endfacet
  facet normal 0 -1 0
    outer loop
      vertex 0 7.85277 3.05014
      vertex 1.31984 7.85277 2.92093
      vertex 2.15135 7.85277 2.9957
    endloop
  endfacet
  facet normal 0 -1 0
    outer loop
      vertex 1.24056 7.85277 4.13922
      vertex 0 7.85277 3.05014
      vertex 2.15135 7.85277 2.9957
    endloop
  endfacet
  facet normal 0 -1 0
    outer loop
      vertex 1.24056 7.85277 4.13922
      vertex -2.15135 7.85277 2.9957
      vertex 0 7.85277 3.05014
    endloop
  endfacet
  facet normal 0 -1 0
    outer loop
      vertex 2.15135 7.85277 2.9957
      vertex 1.31984 7.85277 2.92093
      vertex 2.15135 7.85277 0.79
    endloop
  endfacet
  facet normal 0 -1 0
    outer loop
      vertex 1.31984 7.85277 2.92093
      vertex 1.49462 7.85277 1.185
      vertex 2.15135 7.85277 0.79
    endloop
  endfacet
  facet normal 0 -1 0
    outer loop
      vertex -1.31984 7.85277 2.92093
      vertex 0 7.85277 3.05014
      vertex -2.15135 7.85277 2.9957
    endloop
  endfacet
  facet normal 0 -1 0
    outer loop
      vertex 1.49462 7.85277 1.185
      vertex 1.66347 7.85277 0
      vertex 2.15135 7.85277 0.79
    endloop
  endfacet
  facet normal 0 -1 0
    outer loop
      vertex 1.49462 7.85277 1.185
      vertex -1.49462 7.85277 1.185
      vertex 1.66347 7.85277 0
    endloop
  endfacet
  facet normal 1 0 0
    outer loop
      vertex 2.78469 -1.67994 4.68838
      vertex 2.78469 -1.67994 3.5451
      vertex 2.78469 -1.61043 0.988174
    endloop
  endfacet
  facet normal 1 0 0
    outer loop
      vertex 2.78469 -0.967343 1.58
      vertex 2.78469 -1.67994 4.68838
      vertex 2.78469 -1.61043 0.988174
    endloop
  endfacet
  facet normal 1 0 0
    outer loop
      vertex 2.78469 5.27694 0.916015
      vertex 2.78469 -0.967343 1.58
      vertex 2.78469 -1.61043 0.988174
    endloop
  endfacet
  facet normal 1 0 0
    outer loop
      vertex 2.78469 -1.0021 2.765
      vertex 2.78469 -1.67994 4.68838
      vertex 2.78469 -0.967343 1.58
    endloop
  endfacet
  facet normal 1 0 0
    outer loop
      vertex 2.78469 2.89382 2.765
      vertex 2.78469 2.92858 1.58
      vertex 2.78469 5.27694 0.916015
    endloop
  endfacet
  facet normal 1 0 0
    outer loop
      vertex 2.78469 5.20743 3.47294
      vertex 2.78469 2.89382 2.765
      vertex 2.78469 5.27694 0.916015
    endloop
  endfacet
  facet normal 1 0 0
    outer loop
      vertex 2.78469 5.20743 3.47294
      vertex 2.78469 -1.67994 4.68838
      vertex 2.78469 2.89382 2.765
    endloop
  endfacet
  facet normal 1 0 0
    outer loop
      vertex 2.78469 5.27694 0.916015
      vertex 2.78469 2.92858 1.58
      vertex 2.78469 -0.967343 1.58
    endloop
  endfacet
  facet normal 1 0 0
    outer loop
      vertex 2.78469 -1.0021 2.765
      vertex 2.78469 2.89382 2.765
      vertex 2.78469 -1.67994 4.68838
    endloop
  endfacet
  facet normal 0.0677836 0.0374406 0.996997
    outer loop
      vertex 0 7.85277 3.05014
      vertex 0 6.56953 3.09833
      vertex 2.18811 6.06745 2.96842
    endloop
  endfacet
  facet normal 0.0971646 0.0736545 0.992539
    outer loop
      vertex 1.31984 7.85277 2.92093
      vertex 0 7.85277 3.05014
      vertex 2.18811 6.06745 2.96842
    endloop
  endfacet
  facet normal 0.990068 -0.0244333 -0.138452
    outer loop
      vertex 2.84008 3.64868 4.14412
      vertex 2.78469 -1.67994 4.68838
      vertex 2.78469 5.20743 3.47294
    endloop
  endfacet
  facet normal 0.692053 0.0662238 0.718802
    outer loop
      vertex 2.84008 3.64868 4.14412
      vertex 1.98449 2.44928 5.07838
      vertex 2.78469 -1.67994 4.68838
    endloop
  endfacet
  facet normal 0.904056 -0.427413 0
    outer loop
      vertex 2.78469 -1.67994 4.68838
      vertex 2.20086 -2.91484 5.08524
      vertex 2.78469 -1.67994 3.5451
    endloop
  endfacet
  facet normal 0.921211 -0.387123 0.038808
    outer loop
      vertex 2.20086 -2.91484 5.08524
      vertex 2.20086 -3.18896 2.35083
      vertex 2.78469 -1.67994 3.5451
    endloop
  endfacet
  facet normal 0.947129 -0.319252 0.0320041
    outer loop
      vertex 2.20086 -2.91484 5.08524
      vertex 1.66965 -4.92541 0.749899
      vertex 2.20086 -3.18896 2.35083
    endloop
  endfacet
  facet normal 0.991029 -0.114998 -0.0680999
    outer loop
      vertex 1.84289 -4.76139 2.99401
      vertex 1.66965 -4.92541 0.749899
      vertex 2.20086 -2.91484 5.08524
    endloop
  endfacet
  facet normal 0.884301 -0.414613 0.214728
    outer loop
      vertex 2.20086 -2.91484 5.08524
      vertex 1.18741 -4.78934 5.63947
      vertex 1.84289 -4.76139 2.99401
    endloop
  endfacet
  facet normal 0.159781 0.199464 0.966791
    outer loop
      vertex 2.20086 -2.91484 5.08524
      vertex 0 -4.65826 5.80867
      vertex 1.18741 -4.78934 5.63947
    endloop
  endfacet
  facet normal -0.14107 0 0.99
    outer loop
      vertex 0 -4.65826 5.80867
      vertex -1.18741 -4.78934 5.63947
      vertex 0 -6.61114 5.80867
    endloop
  endfacet
  facet normal 0.14107 0 0.99
    outer loop
      vertex 0 -4.65826 5.80867
      vertex 0 -6.61114 5.80867
      vertex 1.18741 -4.78934 5.63947
    endloop
  endfacet
  facet normal -0.197408 -0.0376861 0.979597
    outer loop
      vertex -1.18741 -4.78934 5.63947
      vertex -2.00563 -6.5593 5.40649
      vertex 0 -6.61114 5.80867
    endloop
  endfacet
  facet normal -0.892003 0.380167 0.244546
    outer loop
      vertex -1.18741 -4.78934 5.63947
      vertex -2.66086 -6.54103 2.98806
      vertex -2.00563 -6.5593 5.40649
    endloop
  endfacet
  facet normal -0.885857 0.406418 0.223788
    outer loop
      vertex -1.84289 -4.76139 2.99401
      vertex -2.66086 -6.54103 2.98806
      vertex -1.18741 -4.78934 5.63947
    endloop
  endfacet
  facet normal -0.903921 0.415803 -0.100172
    outer loop
      vertex -2.48762 -6.70505 0.743954
      vertex -2.66086 -6.54103 2.98806
      vertex -1.84289 -4.76139 2.99401
    endloop
  endfacet
  facet normal -0.984356 -0.164157 -0.0639923
    outer loop
      vertex -2.37457 -8.01681 2.37
      vertex -2.66086 -6.54103 2.98806
      vertex -2.48762 -6.70505 0.743954
    endloop
  endfacet
  facet normal -0.988718 -0.142485 -0.0462059
    outer loop
      vertex -2.37457 -8.01681 2.37
      vertex -2.48762 -6.70505 0.743954
      vertex -2.30189 -8.08562 1.027
    endloop
  endfacet
  facet normal -0.963458 -0.171755 -0.205547
    outer loop
      vertex -2.30189 -8.08562 1.027
      vertex -2.48762 -6.70505 0.743954
      vertex -1.63229 -11.6257 0.84647
    endloop
  endfacet
  facet normal -0.98101 -0.182159 -0.0666158
    outer loop
      vertex -1.91858 -10.1499 1.027
      vertex -2.30189 -8.08562 1.027
      vertex -1.63229 -11.6257 0.84647
    endloop
  endfacet
  facet normal -0.981185 -0.18271 -0.0623913
    outer loop
      vertex -1.80553 -11.4617 3.09058
      vertex -1.91858 -10.1499 1.027
      vertex -1.63229 -11.6257 0.84647
    endloop
  endfacet
  facet normal -0.817187 -0.57599 -0.0209862
    outer loop
      vertex -0.68518 -13.0201 2.23806
      vertex -1.80553 -11.4617 3.09058
      vertex -1.63229 -11.6257 0.84647
    endloop
  endfacet
  facet normal -0.811661 -0.584127 0.00115025
    outer loop
      vertex -0.68518 -13.0172 3.72041
      vertex -1.80553 -11.4617 3.09058
      vertex -0.68518 -13.0201 2.23806
    endloop
  endfacet
  facet normal -0.73093 0.682451 -0.00134386
    outer loop
      vertex -0.68518 -13.0201 2.23806
      vertex -1.36203 -13.746 1.7495
      vertex -0.68518 -13.0172 3.72041
    endloop
  endfacet
  facet normal -0.59769 0.749276 -0.285222
    outer loop
      vertex -1.15458 -13.7677 1.25799
      vertex -1.36203 -13.746 1.7495
      vertex -0.68518 -13.0201 2.23806
    endloop
  endfacet
  facet normal 0.148612 0.750682 -0.643732
    outer loop
      vertex 0 -13.7868 1.50224
      vertex -1.15458 -13.7677 1.25799
      vertex -0.68518 -13.0201 2.23806
    endloop
  endfacet
  facet normal 0.207428 0.113429 -0.971652
    outer loop
      vertex 0 -13.7868 1.50224
      vertex -1.32065 -14.5803 1.12767
      vertex -1.15458 -13.7677 1.25799
    endloop
  endfacet
  facet normal 0.20939 0.110143 -0.971609
    outer loop
      vertex 0 -14.6111 1.40879
      vertex -1.32065 -14.5803 1.12767
      vertex 0 -13.7868 1.50224
    endloop
  endfacet
  facet normal -0.20939 0.110143 -0.971609
    outer loop
      vertex 1.32065 -14.5803 1.12767
      vertex 0 -14.6111 1.40879
      vertex 0 -13.7868 1.50224
    endloop
  endfacet
  facet normal -0.207428 0.113429 -0.971652
    outer loop
      vertex 1.32065 -14.5803 1.12767
      vertex 0 -13.7868 1.50224
      vertex 1.15458 -13.7677 1.25799
    endloop
  endfacet
  facet normal -0.148612 0.750682 -0.643732
    outer loop
      vertex 1.15458 -13.7677 1.25799
      vertex 0 -13.7868 1.50224
      vertex 0.68518 -13.0201 2.23806
    endloop
  endfacet
  facet normal 0.59769 0.749276 -0.285222
    outer loop
      vertex 1.15458 -13.7677 1.25799
      vertex 0.68518 -13.0201 2.23806
      vertex 1.36203 -13.746 1.7495
    endloop
  endfacet
  facet normal 0.73093 0.682451 -0.00134386
    outer loop
      vertex 1.36203 -13.746 1.7495
      vertex 0.68518 -13.0201 2.23806
      vertex 0.68518 -13.0172 3.72041
    endloop
  endfacet
  facet normal 0.811661 -0.584127 0.00115025
    outer loop
      vertex 0.68518 -13.0172 3.72041
      vertex 0.68518 -13.0201 2.23806
      vertex 1.80553 -11.4617 3.09058
    endloop
  endfacet
  facet normal 0.817187 -0.57599 -0.0209862
    outer loop
      vertex 1.80553 -11.4617 3.09058
      vertex 0.68518 -13.0201 2.23806
      vertex 1.63229 -11.6257 0.84647
    endloop
  endfacet
  facet normal 0.963458 -0.171755 -0.205547
    outer loop
      vertex 2.30189 -8.08562 1.027
      vertex 1.63229 -11.6257 0.84647
      vertex 2.48762 -6.70505 0.743954
    endloop
  endfacet
  facet normal 0.981185 -0.18271 -0.0623913
    outer loop
      vertex 1.80553 -11.4617 3.09058
      vertex 1.63229 -11.6257 0.84647
      vertex 1.91858 -10.1499 1.027
    endloop
  endfacet
  facet normal 0.98101 -0.182159 -0.0666158
    outer loop
      vertex 1.91858 -10.1499 1.027
      vertex 1.63229 -11.6257 0.84647
      vertex 2.30189 -8.08562 1.027
    endloop
  endfacet
  facet normal 0.988718 -0.142485 -0.0462059
    outer loop
      vertex 2.37457 -8.01681 2.37
      vertex 2.30189 -8.08562 1.027
      vertex 2.48762 -6.70505 0.743954
    endloop
  endfacet
  facet normal 0.984356 -0.164157 -0.0639923
    outer loop
      vertex 2.66086 -6.54103 2.98806
      vertex 2.37457 -8.01681 2.37
      vertex 2.48762 -6.70505 0.743954
    endloop
  endfacet
  facet normal 0.903921 0.415803 -0.100172
    outer loop
      vertex 2.48762 -6.70505 0.743954
      vertex 1.84289 -4.76139 2.99401
      vertex 2.66086 -6.54103 2.98806
    endloop
  endfacet
  facet normal 0.903921 0.415803 -0.100171
    outer loop
      vertex 2.48762 -6.70505 0.743954
      vertex 1.66965 -4.92541 0.749899
      vertex 1.84289 -4.76139 2.99401
    endloop
  endfacet
  facet normal 0.93513 -0.354175 -0.00962852
    outer loop
      vertex 2.78469 -1.67994 3.5451
      vertex 2.20086 -3.18896 2.35083
      vertex 2.78469 -1.61043 0.988174
    endloop
  endfacet
  facet normal 0 0 -1
    outer loop
      vertex -1.21352 0.881678 4.5
      vertex -0.75 1.29904 4.5
      vertex -1.46722 0.311868 4.5
    endloop
  endfacet
  facet normal 0 0 -1
    outer loop
      vertex -1.46722 0.311868 4.5
      vertex -0.75 1.29904 4.5
      vertex -0.156793 1.49178 4.5
    endloop
  endfacet
  facet normal 0 0 -1
    outer loop
      vertex -1.46722 0.311868 4.5
      vertex -0.156793 1.49178 4.5
      vertex 0.463525 1.42658 4.5
    endloop
  endfacet
  facet normal 0 0 -1
    outer loop
      vertex -1.46722 0.311868 4.5
      vertex 0.463525 1.42658 4.5
      vertex 1.0037 1.11472 4.5
    endloop
  endfacet
  facet normal 0 0 -1
    outer loop
      vertex -1.46722 0.311868 4.5
      vertex 1.0037 1.11472 4.5
      vertex 1.37032 0.610105 4.5
    endloop
  endfacet
  facet normal 0 0 -1
    outer loop
      vertex -1.46722 0.311868 4.5
      vertex 1.37032 0.610105 4.5
      vertex 1.5 0 4.5
    endloop
  endfacet
  facet normal 0 0 -1
    outer loop
      vertex -1.46722 0.311868 4.5
      vertex 1.5 0 4.5
      vertex 1.37032 -0.610105 4.5
    endloop
  endfacet
  facet normal 0 0 -1
    outer loop
      vertex -1.46722 0.311868 4.5
      vertex 1.37032 -0.610105 4.5
      vertex 1.0037 -1.11472 4.5
    endloop
  endfacet
  facet normal 0 0 -1
    outer loop
      vertex -1.46722 0.311868 4.5
      vertex 1.0037 -1.11472 4.5
      vertex 0.463525 -1.42658 4.5
    endloop
  endfacet
  facet normal 0 0 -1
    outer loop
      vertex -1.46722 0.311868 4.5
      vertex 0.463525 -1.42658 4.5
      vertex -0.156793 -1.49178 4.5
    endloop
  endfacet
  facet normal 0 0 -1
    outer loop
      vertex -1.46722 0.311868 4.5
      vertex -0.156793 -1.49178 4.5
      vertex -0.75 -1.29904 4.5
    endloop
  endfacet
  facet normal 0 0 -1
    outer loop
      vertex -1.46722 0.311868 4.5
      vertex -0.75 -1.29904 4.5
      vertex -1.21352 -0.881678 4.5
    endloop
  endfacet
  facet normal 0 0 -1
    outer loop
      vertex -1.46722 0.311868 4.5
      vertex -1.21352 -0.881678 4.5
      vertex -1.46722 -0.311868 4.5
    endloop
  endfacet
  facet normal -0.983892 -0.178762 0
    outer loop
      vertex -2.25474 8.42179 1.027
      vertex -2.15135 7.85277 0.79
      vertex -2.25474 8.42179 1.422
    endloop
  endfacet
  facet normal -0.983892 -0.178762 0
    outer loop
      vertex -2.25474 8.42179 1.422
      vertex -2.15135 7.85277 0.79
      vertex -2.15135 7.85277 2.9957
    endloop
  endfacet
  facet normal -0.996456 0.0329771 0.0773857
    outer loop
      vertex -2.02403 11.7001 2.9957
      vertex -2.25474 8.42179 1.422
      vertex -2.15135 7.85277 2.9957
    endloop
  endfacet
  facet normal -0.668421 0.022121 0.743454
    outer loop
      vertex -2.02403 11.7001 2.9957
      vertex -2.15135 7.85277 2.9957
      vertex -1.24056 11.0891 3.71828
    endloop
  endfacet
  facet normal -0.779651 0.0807696 0.620983
    outer loop
      vertex -1.24056 11.0891 3.71828
      vertex -2.15135 7.85277 2.9957
      vertex -1.24056 7.85277 4.13922
    endloop
  endfacet
  facet normal -0.242454 0.125132 0.962059
    outer loop
      vertex -1.24056 11.0891 3.71828
      vertex -1.24056 7.85277 4.13922
      vertex 0 7.85277 4.45186
    endloop
  endfacet
  facet normal 0 0.221064 0.975259
    outer loop
      vertex 1.24056 11.0891 3.71828
      vertex -1.24056 11.0891 3.71828
      vertex 0 7.85277 4.45186
    endloop
  endfacet
  facet normal 0.242454 0.125132 0.962059
    outer loop
      vertex 1.24056 11.0891 3.71828
      vertex 0 7.85277 4.45186
      vertex 1.24056 7.85277 4.13922
    endloop
  endfacet
  facet normal 0.779651 0.0807696 0.620983
    outer loop
      vertex 1.24056 11.0891 3.71828
      vertex 1.24056 7.85277 4.13922
      vertex 2.15135 7.85277 2.9957
    endloop
  endfacet
  facet normal 0.668421 0.022121 0.743454
    outer loop
      vertex 2.02403 11.7001 2.9957
      vertex 1.24056 11.0891 3.71828
      vertex 2.15135 7.85277 2.9957
    endloop
  endfacet
  facet normal 0.996456 0.0329771 0.0773857
    outer loop
      vertex 2.25474 8.42179 1.422
      vertex 2.02403 11.7001 2.9957
      vertex 2.15135 7.85277 2.9957
    endloop
  endfacet
  facet normal 0.983892 -0.178762 0
    outer loop
      vertex 2.15135 7.85277 2.9957
      vertex 2.15135 7.85277 0.79
      vertex 2.25474 8.42179 1.027
    endloop
  endfacet
  facet normal 0.983892 -0.178762 0
    outer loop
      vertex 2.25474 8.42179 1.422
      vertex 2.15135 7.85277 2.9957
      vertex 2.25474 8.42179 1.027
    endloop
  endfacet
  facet normal 0.916588 0 -0.399833
    outer loop
      vertex 2.25474 8.42179 1.027
      vertex 2.15135 7.85277 0.79
      vertex 2.25474 11.1311 1.027
    endloop
  endfacet
  facet normal 0.745288 0.0246649 -0.666287
    outer loop
      vertex 2.15135 7.85277 0.79
      vertex 2.02403 11.7001 0.79
      vertex 2.25474 11.1311 1.027
    endloop
  endfacet
  facet normal 0.850491 0.0281465 -0.525235
    outer loop
      vertex 2.15135 7.85277 0.79
      vertex 1.66347 7.85277 0
      vertex 2.02403 11.7001 0.79
    endloop
  endfacet
  facet normal 0.909731 0 -0.415198
    outer loop
      vertex 2.02403 11.7001 0.79
      vertex 1.66347 7.85277 0
      vertex 1.66347 11.1737 0
    endloop
  endfacet
  facet normal 0 0 -1
    outer loop
      vertex -1.66347 7.85277 0
      vertex -1.66347 11.1737 0
      vertex 1.66347 7.85277 0
    endloop
  endfacet
  facet normal 0 0 -1
    outer loop
      vertex 1.66347 7.85277 0
      vertex -1.66347 11.1737 0
      vertex 0 10.7985 0
    endloop
  endfacet
  facet normal 0 0 -1
    outer loop
      vertex 1.66347 7.85277 0
      vertex 0 10.7985 0
      vertex 1.66347 11.1737 0
    endloop
  endfacet
  facet normal -0.909731 0 -0.415198
    outer loop
      vertex -1.66347 7.85277 0
      vertex -2.02403 11.7001 0.79
      vertex -1.66347 11.1737 0
    endloop
  endfacet
  facet normal -0.850491 0.0281465 -0.525235
    outer loop
      vertex -1.66347 7.85277 0
      vertex -2.15135 7.85277 0.79
      vertex -2.02403 11.7001 0.79
    endloop
  endfacet
  facet normal -0.745288 0.0246649 -0.666287
    outer loop
      vertex -2.15135 7.85277 0.79
      vertex -2.25474 11.1311 1.027
      vertex -2.02403 11.7001 0.79
    endloop
  endfacet
  facet normal -0.916588 0 -0.399833
    outer loop
      vertex -2.15135 7.85277 0.79
      vertex -2.25474 8.42179 1.027
      vertex -2.25474 11.1311 1.027
    endloop
  endfacet
  facet normal 0 0 -1
    outer loop
      vertex 2.78469 -0.967343 1.58
      vertex 2.78469 2.92858 1.58
      vertex 4.20584 -3.59841 1.58
    endloop
  endfacet
  facet normal 0 0 -1
    outer loop
      vertex 4.20584 -3.59841 1.58
      vertex 2.78469 2.92858 1.58
      vertex 4.20584 2.45557 1.58
    endloop
  endfacet
  facet normal -0.879768 -0.475199 -0.013938
    outer loop
      vertex 4.20584 -3.59841 1.58
      vertex 2.78469 -1.0021 2.765
      vertex 2.78469 -0.967343 1.58
    endloop
  endfacet
  facet normal 0.315505 0.94794 0.0432061
    outer loop
      vertex 4.20584 2.45557 1.58
      vertex 2.78469 2.92858 1.58
      vertex 4.20584 2.40156 2.765
    endloop
  endfacet
  facet normal 0.327176 0.944557 0.0277046
    outer loop
      vertex 2.78469 2.92858 1.58
      vertex 2.78469 2.89382 2.765
      vertex 4.20584 2.40156 2.765
    endloop
  endfacet
  facet normal 0 0 1
    outer loop
      vertex 2.78469 2.89382 2.765
      vertex 2.78469 -1.0021 2.765
      vertex 4.20584 -3.65242 2.765
    endloop
  endfacet
  facet normal 0 0 1
    outer loop
      vertex 4.20584 2.40156 2.765
      vertex 2.78469 2.89382 2.765
      vertex 4.20584 -3.65242 2.765
    endloop
  endfacet
  facet normal -0.881091 -0.472457 -0.0215333
    outer loop
      vertex 4.20584 -3.65242 2.765
      vertex 2.78469 -1.0021 2.765
      vertex 4.20584 -3.59841 1.58
    endloop
  endfacet
  facet normal 0.885857 0.406418 0.223788
    outer loop
      vertex 1.84289 -4.76139 2.99401
      vertex 1.18741 -4.78934 5.63947
      vertex 2.66086 -6.54103 2.98806
    endloop
  endfacet
  facet normal 0.197408 -0.0376861 0.979597
    outer loop
      vertex 1.18741 -4.78934 5.63947
      vertex 0 -6.61114 5.80867
      vertex 2.00563 -6.5593 5.40649
    endloop
  endfacet
  facet normal 0.892003 0.380167 0.244546
    outer loop
      vertex 2.66086 -6.54103 2.98806
      vertex 1.18741 -4.78934 5.63947
      vertex 2.00563 -6.5593 5.40649
    endloop
  endfacet
  facet normal 0 -0.30993 0.95076
    outer loop
      vertex 0 -6.61114 5.80867
      vertex -0.68518 -13.0172 3.72041
      vertex 0.68518 -13.0172 3.72041
    endloop
  endfacet
  facet normal 0.458275 -0.319398 0.829439
    outer loop
      vertex 0 -6.61114 5.80867
      vertex -0.874356 -8.48398 5.57057
      vertex -0.68518 -13.0172 3.72041
    endloop
  endfacet
  facet normal -0.197314 -0.0324446 0.979803
    outer loop
      vertex 0 -6.61114 5.80867
      vertex -2.00563 -6.5593 5.40649
      vertex -0.874356 -8.48398 5.57057
    endloop
  endfacet
  facet normal 0.197314 -0.0324446 0.979803
    outer loop
      vertex 2.00563 -6.5593 5.40649
      vertex 0 -6.61114 5.80867
      vertex 0.874356 -8.48398 5.57057
    endloop
  endfacet
  facet normal -0.458275 -0.319398 0.829439
    outer loop
      vertex 0.874356 -8.48398 5.57057
      vertex 0 -6.61114 5.80867
      vertex 0.68518 -13.0172 3.72041
    endloop
  endfacet
  facet normal -0.521286 -0.236493 0.819959
    outer loop
      vertex -0.874356 -8.48398 5.57057
      vertex -2.00563 -6.5593 5.40649
      vertex -1.1559 -11.2609 4.59067
    endloop
  endfacet
  facet normal -0.881212 -0.230845 0.412523
    outer loop
      vertex -1.1559 -11.2609 4.59067
      vertex -2.00563 -6.5593 5.40649
      vertex -1.80553 -11.4617 3.09058
    endloop
  endfacet
  facet normal -0.953024 -0.160305 0.256996
    outer loop
      vertex -2.00563 -6.5593 5.40649
      vertex -2.66086 -6.54103 2.98806
      vertex -1.80553 -11.4617 3.09058
    endloop
  endfacet
  facet normal -0.982029 -0.172305 -0.0770076
    outer loop
      vertex -1.80553 -11.4617 3.09058
      vertex -2.66086 -6.54103 2.98806
      vertex -1.99125 -10.0811 2.37
    endloop
  endfacet
  facet normal -0.983007 -0.182531 -0.0194935
    outer loop
      vertex -1.99125 -10.0811 2.37
      vertex -2.66086 -6.54103 2.98806
      vertex -2.37457 -8.01681 2.37
    endloop
  endfacet
  facet normal -0.98225 -0.182391 -0.0438112
    outer loop
      vertex -1.99125 -10.0811 2.37
      vertex -2.37457 -8.01681 2.37
      vertex -2.30189 -8.08562 1.027
    endloop
  endfacet
  facet normal -0.98225 -0.18239 -0.0438099
    outer loop
      vertex -1.99125 -10.0811 2.37
      vertex -2.30189 -8.08562 1.027
      vertex -1.91858 -10.1499 1.027
    endloop
  endfacet
  facet normal -0.986648 -0.156418 -0.0453786
    outer loop
      vertex -1.80553 -11.4617 3.09058
      vertex -1.99125 -10.0811 2.37
      vertex -1.91858 -10.1499 1.027
    endloop
  endfacet
  facet normal -0.81126 -0.419322 0.407462
    outer loop
      vertex -1.1559 -11.2609 4.59067
      vertex -1.80553 -11.4617 3.09058
      vertex -0.68518 -13.0172 3.72041
    endloop
  endfacet
  facet normal 0 0.95847 0.285194
    outer loop
      vertex 0.68518 -13.0172 3.72041
      vertex -0.68518 -13.0172 3.72041
      vertex 0 -13.6357 5.79892
    endloop
  endfacet
  facet normal -0.389774 0.839614 0.378317
    outer loop
      vertex -0.68518 -13.0172 3.72041
      vertex -1.13157 -14.0747 5.60739
      vertex 0 -13.6357 5.79892
    endloop
  endfacet
  facet normal -0.537697 0.783365 0.311802
    outer loop
      vertex -0.68518 -13.0172 3.72041
      vertex -1.46449 -13.7137 4.12637
      vertex -1.13157 -14.0747 5.60739
    endloop
  endfacet
  facet normal -0.677139 0.734811 -0.039179
    outer loop
      vertex -1.36203 -13.746 1.7495
      vertex -1.46449 -13.7137 4.12637
      vertex -0.68518 -13.0172 3.72041
    endloop
  endfacet
  facet normal 0.338269 -0.343462 0.876132
    outer loop
      vertex -0.874356 -8.48398 5.57057
      vertex -1.1559 -11.2609 4.59067
      vertex -0.68518 -13.0172 3.72041
    endloop
  endfacet
  facet normal -0.97732 0.206946 -0.0449395
    outer loop
      vertex -1.36203 -13.746 1.7495
      vertex -1.54514 -14.5533 2.0143
      vertex -1.46449 -13.7137 4.12637
    endloop
  endfacet
  facet normal -0.959331 0.136566 -0.247051
    outer loop
      vertex -1.32065 -14.5803 1.12767
      vertex -1.54514 -14.5533 2.0143
      vertex -1.36203 -13.746 1.7495
    endloop
  endfacet
  facet normal -0.889623 0.243752 -0.386208
    outer loop
      vertex -1.32065 -14.5803 1.12767
      vertex -1.36203 -13.746 1.7495
      vertex -1.15458 -13.7677 1.25799
    endloop
  endfacet
  facet normal -0.0283086 -0.999329 0.0232523
    outer loop
      vertex 0 -14.6111 1.40879
      vertex -1.54514 -14.5533 2.0143
      vertex -1.32065 -14.5803 1.12767
    endloop
  endfacet
  facet normal -0.0320973 -0.999392 0.0135903
    outer loop
      vertex 0 -14.5985 2.34035
      vertex -1.54514 -14.5533 2.0143
      vertex 0 -14.6111 1.40879
    endloop
  endfacet
  facet normal 0.0320973 -0.999392 0.0135903
    outer loop
      vertex 0 -14.5985 2.34035
      vertex 0 -14.6111 1.40879
      vertex 1.54514 -14.5533 2.0143
    endloop
  endfacet
  facet normal 0.0283086 -0.999329 0.0232523
    outer loop
      vertex 1.54514 -14.5533 2.0143
      vertex 0 -14.6111 1.40879
      vertex 1.32065 -14.5803 1.12767
    endloop
  endfacet
  facet normal 0.959331 0.136566 -0.247051
    outer loop
      vertex 1.54514 -14.5533 2.0143
      vertex 1.32065 -14.5803 1.12767
      vertex 1.36203 -13.746 1.7495
    endloop
  endfacet
  facet normal 0.889623 0.243752 -0.386208
    outer loop
      vertex 1.32065 -14.5803 1.12767
      vertex 1.15458 -13.7677 1.25799
      vertex 1.36203 -13.746 1.7495
    endloop
  endfacet
  facet normal 0.97732 0.206946 -0.0449395
    outer loop
      vertex 1.54514 -14.5533 2.0143
      vertex 1.36203 -13.746 1.7495
      vertex 1.46449 -13.7137 4.12637
    endloop
  endfacet
  facet normal 0.677139 0.734811 -0.039179
    outer loop
      vertex 1.36203 -13.746 1.7495
      vertex 0.68518 -13.0172 3.72041
      vertex 1.46449 -13.7137 4.12637
    endloop
  endfacet
  facet normal -0.338269 -0.343462 0.876132
    outer loop
      vertex 0.874356 -8.48398 5.57057
      vertex 0.68518 -13.0172 3.72041
      vertex 1.1559 -11.2609 4.59067
    endloop
  endfacet
  facet normal 0.81126 -0.419322 0.407462
    outer loop
      vertex 1.1559 -11.2609 4.59067
      vertex 0.68518 -13.0172 3.72041
      vertex 1.80553 -11.4617 3.09058
    endloop
  endfacet
  facet normal 0.537697 0.783365 0.311802
    outer loop
      vertex 1.46449 -13.7137 4.12637
      vertex 0.68518 -13.0172 3.72041
      vertex 1.13157 -14.0747 5.60739
    endloop
  endfacet
  facet normal 0.389774 0.839614 0.378317
    outer loop
      vertex 0.68518 -13.0172 3.72041
      vertex 0 -13.6357 5.79892
      vertex 1.13157 -14.0747 5.60739
    endloop
  endfacet
  facet normal 0.986648 -0.156418 -0.0453786
    outer loop
      vertex 1.99125 -10.0811 2.37
      vertex 1.80553 -11.4617 3.09058
      vertex 1.91858 -10.1499 1.027
    endloop
  endfacet
  facet normal 0.881212 -0.230845 0.412523
    outer loop
      vertex 2.00563 -6.5593 5.40649
      vertex 1.1559 -11.2609 4.59067
      vertex 1.80553 -11.4617 3.09058
    endloop
  endfacet
  facet normal 0.953024 -0.160305 0.256996
    outer loop
      vertex 2.00563 -6.5593 5.40649
      vertex 1.80553 -11.4617 3.09058
      vertex 2.66086 -6.54103 2.98806
    endloop
  endfacet
  facet normal 0.982029 -0.172305 -0.0770076
    outer loop
      vertex 2.66086 -6.54103 2.98806
      vertex 1.80553 -11.4617 3.09058
      vertex 1.99125 -10.0811 2.37
    endloop
  endfacet
  facet normal 0.98225 -0.18239 -0.0438099
    outer loop
      vertex 1.99125 -10.0811 2.37
      vertex 1.91858 -10.1499 1.027
      vertex 2.30189 -8.08562 1.027
    endloop
  endfacet
  facet normal 0.98225 -0.182391 -0.0438112
    outer loop
      vertex 2.37457 -8.01681 2.37
      vertex 1.99125 -10.0811 2.37
      vertex 2.30189 -8.08562 1.027
    endloop
  endfacet
  facet normal 0.983007 -0.182531 -0.0194935
    outer loop
      vertex 2.66086 -6.54103 2.98806
      vertex 1.99125 -10.0811 2.37
      vertex 2.37457 -8.01681 2.37
    endloop
  endfacet
  facet normal -1 0 0
    outer loop
      vertex -2.25474 8.42179 1.027
      vertex -2.25474 8.42179 1.422
      vertex -2.25474 11.1311 1.027
    endloop
  endfacet
  facet normal -1 0 0
    outer loop
      vertex -2.25474 11.1311 1.027
      vertex -2.25474 8.42179 1.422
      vertex -2.25474 11.1311 1.422
    endloop
  endfacet
  facet normal -0.989424 0 0.145052
    outer loop
      vertex -2.25474 11.1311 1.422
      vertex -2.25474 8.42179 1.422
      vertex -2.02403 11.7001 2.9957
    endloop
  endfacet
  facet normal 0 1 0
    outer loop
      vertex -2.02403 11.7001 0.79
      vertex -2.02403 11.7001 2.9957
      vertex 2.02403 11.7001 0.79
    endloop
  endfacet
  facet normal 0 1 0
    outer loop
      vertex 2.02403 11.7001 0.79
      vertex -2.02403 11.7001 2.9957
      vertex 2.02403 11.7001 2.9957
    endloop
  endfacet
  facet normal 0 0.763579 0.645714
    outer loop
      vertex -2.02403 11.7001 2.9957
      vertex -1.24056 11.0891 3.71828
      vertex 2.02403 11.7001 2.9957
    endloop
  endfacet
  facet normal 0 0.763579 0.645714
    outer loop
      vertex 2.02403 11.7001 2.9957
      vertex -1.24056 11.0891 3.71828
      vertex 1.24056 11.0891 3.71828
    endloop
  endfacet
  facet normal -0.926724 0.375744 0
    outer loop
      vertex -2.25474 11.1311 1.027
      vertex -2.25474 11.1311 1.422
      vertex -2.02403 11.7001 0.79
    endloop
  endfacet
  facet normal -0.926724 0.375744 0
    outer loop
      vertex -2.02403 11.7001 0.79
      vertex -2.25474 11.1311 1.422
      vertex -2.02403 11.7001 2.9957
    endloop
  endfacet
  facet normal 0.926724 0.375744 0
    outer loop
      vertex 2.25474 11.1311 1.027
      vertex 2.02403 11.7001 0.79
      vertex 2.02403 11.7001 2.9957
    endloop
  endfacet
  facet normal 0.926724 0.375744 0
    outer loop
      vertex 2.25474 11.1311 1.422
      vertex 2.25474 11.1311 1.027
      vertex 2.02403 11.7001 2.9957
    endloop
  endfacet
  facet normal 0.989424 0 0.145052
    outer loop
      vertex 2.25474 11.1311 1.422
      vertex 2.02403 11.7001 2.9957
      vertex 2.25474 8.42179 1.422
    endloop
  endfacet
  facet normal 1 0 0
    outer loop
      vertex 2.25474 8.42179 1.422
      vertex 2.25474 8.42179 1.027
      vertex 2.25474 11.1311 1.027
    endloop
  endfacet
  facet normal 1 0 0
    outer loop
      vertex 2.25474 11.1311 1.422
      vertex 2.25474 8.42179 1.422
      vertex 2.25474 11.1311 1.027
    endloop
  endfacet
  facet normal 0 0.659044 -0.752105
    outer loop
      vertex 0 10.7985 0
      vertex -2.02403 11.7001 0.79
      vertex 2.02403 11.7001 0.79
    endloop
  endfacet
  facet normal -0.192786 0.854885 -0.481669
    outer loop
      vertex 1.66347 11.1737 0
      vertex 0 10.7985 0
      vertex 2.02403 11.7001 0.79
    endloop
  endfacet
  facet normal 0.192786 0.854885 -0.481669
    outer loop
      vertex -1.66347 11.1737 0
      vertex -2.02403 11.7001 0.79
      vertex 0 10.7985 0
    endloop
  endfacet
  facet normal -0.925115 0 -0.379688
    outer loop
      vertex 4.7057 6.63528 0.362084
      vertex 4.20584 -3.59841 1.58
      vertex 4.20584 2.45557 1.58
    endloop
  endfacet
  facet normal -0.98945 -0.144724 -0.00659612
    outer loop
      vertex 4.7057 -6.98072 0.808957
      vertex 4.20584 -3.65242 2.765
      vertex 4.20584 -3.59841 1.58
    endloop
  endfacet
  facet normal -0.869895 -0.0161792 -0.492972
    outer loop
      vertex 4.7057 -6.98072 0.808957
      vertex 4.20584 -3.59841 1.58
      vertex 4.7057 6.63528 0.362084
    endloop
  endfacet
  facet normal -0.917438 0.208467 0.338892
    outer loop
      vertex 4.7057 6.63528 0.362084
      vertex 4.20584 2.45557 1.58
      vertex 5.07547 6.51382 1.43783
    endloop
  endfacet
  facet normal -0.977689 0.209841 0.00956433
    outer loop
      vertex 4.20584 2.45557 1.58
      vertex 4.20584 2.40156 2.765
      vertex 5.07547 6.51382 1.43783
    endloop
  endfacet
  facet normal 0.633837 0.112912 0.765181
    outer loop
      vertex 5.07547 6.51382 1.43783
      vertex 4.20584 2.40156 2.765
      vertex 5.07547 -6.59173 3.37171
    endloop
  endfacet
  facet normal -0.572178 0 0.820129
    outer loop
      vertex 4.20584 2.40156 2.765
      vertex 4.20584 -3.65242 2.765
      vertex 5.07547 -6.59173 3.37171
    endloop
  endfacet
  facet normal -0.95337 -0.245966 0.174892
    outer loop
      vertex 5.07547 -6.59173 3.37171
      vertex 4.20584 -3.65242 2.765
      vertex 4.7057 -6.98072 0.808957
    endloop
  endfacet
  facet normal 0.521286 -0.236493 0.819959
    outer loop
      vertex 2.00563 -6.5593 5.40649
      vertex 0.874356 -8.48398 5.57057
      vertex 1.1559 -11.2609 4.59067
    endloop
  endfacet
  facet normal 0.114435 -0.134461 0.984289
    outer loop
      vertex 1.13157 -14.0747 5.60739
      vertex 0 -13.6357 5.79892
      vertex 1.29764 -14.8873 5.47707
    endloop
  endfacet
  facet normal 0.17365 -0.0725141 0.982134
    outer loop
      vertex 0 -13.6357 5.79892
      vertex 0 -14.9014 5.70547
      vertex 1.29764 -14.8873 5.47707
    endloop
  endfacet
  facet normal -0.17365 -0.0725141 0.982134
    outer loop
      vertex 0 -13.6357 5.79892
      vertex -1.29764 -14.8873 5.47707
      vertex 0 -14.9014 5.70547
    endloop
  endfacet
  facet normal -0.114435 -0.134461 0.984289
    outer loop
      vertex -1.13157 -14.0747 5.60739
      vertex -1.29764 -14.8873 5.47707
      vertex 0 -13.6357 5.79892
    endloop
  endfacet
  facet normal -0.955165 0.15473 0.252424
    outer loop
      vertex -1.13157 -14.0747 5.60739
      vertex -1.63056 -14.5263 3.99606
      vertex -1.29764 -14.8873 5.47707
    endloop
  endfacet
  facet normal -0.955165 0.15473 0.252424
    outer loop
      vertex -1.46449 -13.7137 4.12637
      vertex -1.63056 -14.5263 3.99606
      vertex -1.13157 -14.0747 5.60739
    endloop
  endfacet
  facet normal -0.97732 0.206946 -0.0449396
    outer loop
      vertex -1.54514 -14.5533 2.0143
      vertex -1.63056 -14.5263 3.99606
      vertex -1.46449 -13.7137 4.12637
    endloop
  endfacet
  facet normal -0.0318087 -0.999419 0.0122191
    outer loop
      vertex 0 -14.5985 2.34035
      vertex -1.63056 -14.5263 3.99606
      vertex -1.54514 -14.5533 2.0143
    endloop
  endfacet
  facet normal -0.0304163 -0.999445 0.0135915
    outer loop
      vertex 0 -14.5715 4.32211
      vertex -1.63056 -14.5263 3.99606
      vertex 0 -14.5985 2.34035
    endloop
  endfacet
  facet normal 0.0304163 -0.999445 0.0135915
    outer loop
      vertex 0 -14.5715 4.32211
      vertex 0 -14.5985 2.34035
      vertex 1.63056 -14.5263 3.99606
    endloop
  endfacet
  facet normal 0.0318087 -0.999419 0.0122191
    outer loop
      vertex 1.63056 -14.5263 3.99606
      vertex 0 -14.5985 2.34035
      vertex 1.54514 -14.5533 2.0143
    endloop
  endfacet
  facet normal 0.97732 0.206946 -0.0449396
    outer loop
      vertex 1.54514 -14.5533 2.0143
      vertex 1.46449 -13.7137 4.12637
      vertex 1.63056 -14.5263 3.99606
    endloop
  endfacet
  facet normal 0.955165 0.15473 0.252424
    outer loop
      vertex 1.46449 -13.7137 4.12637
      vertex 1.13157 -14.0747 5.60739
      vertex 1.63056 -14.5263 3.99606
    endloop
  endfacet
  facet normal 0.955165 0.15473 0.252424
    outer loop
      vertex 1.63056 -14.5263 3.99606
      vertex 1.13157 -14.0747 5.60739
      vertex 1.29764 -14.8873 5.47707
    endloop
  endfacet
  facet normal -0.297194 -0.0313199 -0.954303
    outer loop
      vertex 5.77458 7.52518 0
      vertex 4.7057 -6.98072 0.808957
      vertex 4.7057 6.63528 0.362084
    endloop
  endfacet
  facet normal -0.634458 0.772529 0.0257175
    outer loop
      vertex 5.77458 7.52518 0
      vertex 4.7057 6.63528 0.362084
      vertex 5.77458 7.47043 1.64485
    endloop
  endfacet
  facet normal -0.794621 0.509177 0.330631
    outer loop
      vertex 5.77458 7.47043 1.64485
      vertex 4.7057 6.63528 0.362084
      vertex 5.07547 6.51382 1.43783
    endloop
  endfacet
  facet normal -0.822567 -0.532521 0.199513
    outer loop
      vertex 5.07547 -6.59173 3.37171
      vertex 4.7057 -6.98072 0.808957
      vertex 5.87597 -8.04349 2.79716
    endloop
  endfacet
  facet normal -0.648795 -0.760563 -0.0246673
    outer loop
      vertex 5.87597 -8.04349 2.79716
      vertex 4.7057 -6.98072 0.808957
      vertex 5.87597 -7.97839 0.79
    endloop
  endfacet
  facet normal -0.647736 -0.760617 0.0435874
    outer loop
      vertex 5.87597 -7.97839 0.79
      vertex 4.7057 -6.98072 0.808957
      vertex 5.77458 -7.93733 0
    endloop
  endfacet
  facet normal -0.603476 0 -0.797381
    outer loop
      vertex 5.77458 -7.93733 0
      vertex 4.7057 -6.98072 0.808957
      vertex 5.77458 7.52518 0
    endloop
  endfacet
  facet normal -0.448726 0.136823 0.883133
    outer loop
      vertex 5.77458 7.47043 1.64485
      vertex 5.07547 6.51382 1.43783
      vertex 6.23115 -0.091478 3.04839
    endloop
  endfacet
  facet normal -0.478081 0.128218 0.868907
    outer loop
      vertex 5.07547 6.51382 1.43783
      vertex 5.07547 -6.59173 3.37171
      vertex 6.23115 -0.091478 3.04839
    endloop
  endfacet
  facet normal 0.0525754 0.0402835 0.997804
    outer loop
      vertex 6.23115 -0.091478 3.04839
      vertex 5.07547 -6.59173 3.37171
      vertex 5.77458 -7.50417 3.37171
    endloop
  endfacet
  facet normal -0.729003 -0.558564 0.395677
    outer loop
      vertex 5.77458 -7.50417 3.37171
      vertex 5.07547 -6.59173 3.37171
      vertex 5.87597 -8.04349 2.79716
    endloop
  endfacet
  facet normal -0.0213588 -0.970221 -0.241277
    outer loop
      vertex 1.29764 -14.8873 5.47707
      vertex 0 -14.5715 4.32211
      vertex 1.63056 -14.5263 3.99606
    endloop
  endfacet
  facet normal -0.0302611 -0.972283 -0.231839
    outer loop
      vertex 1.29764 -14.8873 5.47707
      vertex 0 -14.9014 5.70547
      vertex 0 -14.5715 4.32211
    endloop
  endfacet
  facet normal 0.0302611 -0.972283 -0.231839
    outer loop
      vertex 0 -14.9014 5.70547
      vertex -1.29764 -14.8873 5.47707
      vertex 0 -14.5715 4.32211
    endloop
  endfacet
  facet normal 0.0213588 -0.970221 -0.241277
    outer loop
      vertex -1.29764 -14.8873 5.47707
      vertex -1.63056 -14.5263 3.99606
      vertex 0 -14.5715 4.32211
    endloop
  endfacet
  facet normal 0 0 -1
    outer loop
      vertex 5.77458 -7.93733 0
      vertex 5.77458 7.52518 0
      vertex 6.61233 -7.93733 0
    endloop
  endfacet
  facet normal 0 0 -1
    outer loop
      vertex 6.61233 -7.93733 0
      vertex 5.77458 7.52518 0
      vertex 6.61233 7.52518 0
    endloop
  endfacet
  facet normal 0 0.999446 0.0332715
    outer loop
      vertex 5.77458 7.47043 1.64485
      vertex 6.61233 7.47043 1.64485
      vertex 5.77458 7.52518 0
    endloop
  endfacet
  facet normal 0 0.999446 0.0332715
    outer loop
      vertex 5.77458 7.52518 0
      vertex 6.61233 7.47043 1.64485
      vertex 6.61233 7.52518 0
    endloop
  endfacet
  facet normal 0 0.18249 0.983208
    outer loop
      vertex 6.61233 7.47043 1.64485
      vertex 5.77458 7.47043 1.64485
      vertex 6.23115 -0.091478 3.04839
    endloop
  endfacet
  facet normal 0 -0.729109 0.684398
    outer loop
      vertex 6.61233 -7.50417 3.37171
      vertex 5.77458 -7.50417 3.37171
      vertex 5.87597 -8.04349 2.79716
    endloop
  endfacet
  facet normal 0 -0.729109 0.684398
    outer loop
      vertex 7.04827 -8.04349 2.79716
      vertex 6.61233 -7.50417 3.37171
      vertex 5.87597 -8.04349 2.79716
    endloop
  endfacet
  facet normal 0 -0.999474 -0.0324159
    outer loop
      vertex 7.04827 -8.04349 2.79716
      vertex 5.87597 -8.04349 2.79716
      vertex 5.87597 -7.97839 0.79
    endloop
  endfacet
  facet normal 0 -0.999474 -0.0324159
    outer loop
      vertex 6.51095 -7.97839 0.79
      vertex 7.04827 -8.04349 2.79716
      vertex 5.87597 -7.97839 0.79
    endloop
  endfacet
  facet normal 0 -0.998652 -0.0519109
    outer loop
      vertex 5.87597 -7.97839 0.79
      vertex 5.77458 -7.93733 0
      vertex 6.61233 -7.93733 0
    endloop
  endfacet
  facet normal 0 -0.998652 -0.0519109
    outer loop
      vertex 6.51095 -7.97839 0.79
      vertex 5.87597 -7.97839 0.79
      vertex 6.61233 -7.93733 0
    endloop
  endfacet
  facet normal 0.485547 0.135814 0.863596
    outer loop
      vertex 6.61233 7.47043 1.64485
      vertex 6.23115 -0.091478 3.04839
      vertex 7.28574 3.42634 1.90223
    endloop
  endfacet
  facet normal 0.648754 0.0528597 0.75916
    outer loop
      vertex 7.28574 3.42634 1.90223
      vertex 6.23115 -0.091478 3.04839
      vertex 7.6387 -4.01277 2.11858
    endloop
  endfacet
  facet normal 0.672701 0.0667339 0.736899
    outer loop
      vertex 7.6387 -4.01277 2.11858
      vertex 6.23115 -0.091478 3.04839
      vertex 6.61233 -7.50417 3.37171
    endloop
  endfacet
  facet normal 0 0.0435761 0.99905
    outer loop
      vertex 6.23115 -0.091478 3.04839
      vertex 5.77458 -7.50417 3.37171
      vertex 6.61233 -7.50417 3.37171
    endloop
  endfacet
  facet normal 0.879089 -0.0953852 -0.467016
    outer loop
      vertex 7.05728 -7.97839 0.845934
      vertex 6.61233 -7.93733 0
      vertex 7.6387 -3.89323 1.106
    endloop
  endfacet
  facet normal 0.708601 0.0131024 -0.705488
    outer loop
      vertex 7.6387 -3.89323 1.106
      vertex 6.61233 -7.93733 0
      vertex 7.28574 3.54588 0.889646
    endloop
  endfacet
  facet normal 0.797337 0 -0.603535
    outer loop
      vertex 7.28574 3.54588 0.889646
      vertex 6.61233 -7.93733 0
      vertex 6.61233 7.52518 0
    endloop
  endfacet
  facet normal 0.00524593 -0.998673 -0.0512388
    outer loop
      vertex 7.05728 -7.97839 0.845934
      vertex 6.51095 -7.97839 0.79
      vertex 6.61233 -7.93733 0
    endloop
  endfacet
  facet normal 0.985027 0.171212 0.020212
    outer loop
      vertex 7.28574 3.54588 0.889646
      vertex 6.61233 7.52518 0
      vertex 7.28574 3.42634 1.90223
    endloop
  endfacet
  facet normal 0.986347 0.164592 0.00547925
    outer loop
      vertex 6.61233 7.52518 0
      vertex 6.61233 7.47043 1.64485
      vertex 7.28574 3.42634 1.90223
    endloop
  endfacet
  facet normal 0.790757 -0.0128014 0.611996
    outer loop
      vertex 7.6387 -4.01277 2.11858
      vertex 6.61233 -7.50417 3.37171
      vertex 7.04827 -8.04349 2.79716
    endloop
  endfacet
  facet normal 0.989435 -0.144979 -0.000269081
    outer loop
      vertex 7.6387 -4.01277 2.11858
      vertex 7.04827 -8.04349 2.79716
      vertex 7.05728 -7.97839 0.845934
    endloop
  endfacet
  facet normal 0.0034122 -0.999439 -0.0333282
    outer loop
      vertex 7.04827 -8.04349 2.79716
      vertex 6.51095 -7.97839 0.79
      vertex 7.05728 -7.97839 0.845934
    endloop
  endfacet
  facet normal 0.998853 0.0475549 0.00561398
    outer loop
      vertex 7.28574 3.54588 0.889646
      vertex 7.28574 3.42634 1.90223
      vertex 7.6387 -4.01277 2.11858
    endloop
  endfacet
  facet normal 0.998853 0.047555 0.00561408
    outer loop
      vertex 7.6387 -3.89323 1.106
      vertex 7.28574 3.54588 0.889646
      vertex 7.6387 -4.01277 2.11858
    endloop
  endfacet
  facet normal 0.990034 -0.139855 -0.0165105
    outer loop
      vertex 7.6387 -4.01277 2.11858
      vertex 7.05728 -7.97839 0.845934
      vertex 7.6387 -3.89323 1.106
    endloop
  endfacet
endsolid OpenSCAD_Model
