solid OpenSCAD_Model
  facet normal -0.762912 0.10434 0.638027
    outer loop
      vertex -5.65035 0.498752 2.09778
      vertex -5.96966 -3.5106 2.37165
      vertex -4.69631 -1.3972 3.54862
    endloop
  endfacet
  facet normal -0.780719 0.130002 0.61121
    outer loop
      vertex -4.69631 -1.3972 3.54862
      vertex -5.96966 -3.5106 2.37165
      vertex -5.04115 -5.39231 3.95789
    endloop
  endfacet
  facet normal -0.874815 -0.0237719 0.483873
    outer loop
      vertex -5.04115 -5.39231 3.95789
      vertex -5.96966 -3.5106 2.37165
      vertex -5.43552 -5.68298 3.2306
    endloop
  endfacet
  facet normal -0.97106 -0.238834 -0.000188892
    outer loop
      vertex -5.43552 -5.68298 3.2306
      vertex -5.96966 -3.5106 2.37165
      vertex -5.44367 -5.64789 0.7607
    endloop
  endfacet
  facet normal -0.972955 -0.230702 -0.0115962
    outer loop
      vertex -5.44367 -5.64789 0.7607
      vertex -5.96966 -3.5106 2.37165
      vertex -5.96966 -3.44617 1.0899
    endloop
  endfacet
  facet normal -0.996814 0.0796596 0.00400408
    outer loop
      vertex -5.96966 -3.44617 1.0899
      vertex -5.96966 -3.5106 2.37165
      vertex -5.65035 0.563178 0.816033
    endloop
  endfacet
  facet normal -0.996814 0.0796595 0.00400401
    outer loop
      vertex -5.65035 0.563178 0.816033
      vertex -5.96966 -3.5106 2.37165
      vertex -5.65035 0.498752 2.09778
    endloop
  endfacet
  facet normal -0.696639 0.180737 0.694283
    outer loop
      vertex -5.04115 2.67834 2.14166
      vertex -5.65035 0.498752 2.09778
      vertex -4.69631 -1.3972 3.54862
    endloop
  endfacet
  facet normal -0.96044 0.278136 0.0139802
    outer loop
      vertex -5.65035 0.563178 0.816033
      vertex -5.65035 0.498752 2.09778
      vertex -5.04115 2.70785 0
    endloop
  endfacet
  facet normal -0.963101 0.269115 0.00370828
    outer loop
      vertex -5.04115 2.70785 0
      vertex -5.65035 0.498752 2.09778
      vertex -5.04115 2.67834 2.14166
    endloop
  endfacet
  facet normal -0.0354746 0.301435 0.952827
    outer loop
      vertex -3.65081 2.16276 2.46132
      vertex -4.69631 -1.3972 3.54862
      vertex -3.54523 -1.50098 3.62431
    endloop
  endfacet
  facet normal -0.0563783 0.0992344 0.993466
    outer loop
      vertex -3.54523 -1.50098 3.62431
      vertex -4.69631 -1.3972 3.54862
      vertex -3.65081 -4.90054 3.95789
    endloop
  endfacet
  facet normal -0.0732009 0.0941438 0.992864
    outer loop
      vertex -3.65081 -4.90054 3.95789
      vertex -4.69631 -1.3972 3.54862
      vertex -4.28328 -5.39231 3.95789
    endloop
  endfacet
  facet normal 0 0.101909 0.994794
    outer loop
      vertex -4.69631 -1.3972 3.54862
      vertex -5.04115 -5.39231 3.95789
      vertex -4.28328 -5.39231 3.95789
    endloop
  endfacet
  facet normal -0.240521 0.298498 0.923606
    outer loop
      vertex -4.28328 2.67834 2.33902
      vertex -5.04115 2.67834 2.14166
      vertex -4.69631 -1.3972 3.54862
    endloop
  endfacet
  facet normal 0.0430205 0.280255 0.958961
    outer loop
      vertex -4.28328 2.67834 2.33902
      vertex -4.69631 -1.3972 3.54862
      vertex -3.65081 2.16276 2.46132
    endloop
  endfacet
  facet normal 0 -0.928584 0.371123
    outer loop
      vertex -5.04115 -5.39231 3.95789
      vertex -5.43552 -5.68298 3.2306
      vertex -4.37499 -5.68298 3.2306
    endloop
  endfacet
  facet normal 0 -0.928584 0.371123
    outer loop
      vertex -4.28328 -5.39231 3.95789
      vertex -5.04115 -5.39231 3.95789
      vertex -4.37499 -5.68298 3.2306
    endloop
  endfacet
  facet normal 0 -0.999905 -0.0138082
    outer loop
      vertex -4.37499 -5.68298 3.2306
      vertex -5.43552 -5.68298 3.2306
      vertex -4.94944 -5.64789 0.689898
    endloop
  endfacet
  facet normal 0 -0.999905 -0.0138082
    outer loop
      vertex -4.37499 -5.64789 0.689898
      vertex -4.37499 -5.68298 3.2306
      vertex -4.94944 -5.64789 0.689898
    endloop
  endfacet
  facet normal -0.00203383 -0.999897 -0.0141972
    outer loop
      vertex -5.43552 -5.68298 3.2306
      vertex -5.44367 -5.64789 0.7607
      vertex -4.94944 -5.64789 0.689898
    endloop
  endfacet
  facet normal -0.873629 -0.138983 -0.466322
    outer loop
      vertex -5.44367 -5.64789 0.7607
      vertex -5.96966 -3.44617 1.0899
      vertex -5.04115 -5.62576 0
    endloop
  endfacet
  facet normal -0.00450727 -0.999495 -0.0314633
    outer loop
      vertex -4.94944 -5.64789 0.689898
      vertex -5.44367 -5.64789 0.7607
      vertex -5.04115 -5.62576 0
    endloop
  endfacet
  facet normal -0.74705 0.0140972 -0.664618
    outer loop
      vertex -5.04115 -5.62576 0
      vertex -5.96966 -3.44617 1.0899
      vertex -5.65035 0.563178 0.816033
    endloop
  endfacet
  facet normal -0.801329 0 -0.598224
    outer loop
      vertex -5.04115 -5.62576 0
      vertex -5.65035 0.563178 0.816033
      vertex -5.04115 2.70785 0
    endloop
  endfacet
  facet normal 0 0.999905 0.0137782
    outer loop
      vertex -5.04115 2.70785 0
      vertex -5.04115 2.67834 2.14166
      vertex -4.28328 2.70785 0
    endloop
  endfacet
  facet normal -0.00328533 0.999915 0.0126158
    outer loop
      vertex -4.28328 2.70785 0
      vertex -5.04115 2.67834 2.14166
      vertex -4.28328 2.67834 2.33902
    endloop
  endfacet
  facet normal 0 0 -1
    outer loop
      vertex -5.04115 -5.62576 0
      vertex -5.04115 2.70785 0
      vertex -4.28328 -5.62576 0
    endloop
  endfacet
  facet normal 0 0 -1
    outer loop
      vertex -4.28328 -5.62576 0
      vertex -5.04115 2.70785 0
      vertex -4.28328 2.70785 0
    endloop
  endfacet
  facet normal 0.614951 0.78071 0.111029
    outer loop
      vertex -3.3163 2.22823 0.148233
      vertex -4.28328 2.67834 2.33902
      vertex -3.65081 2.16276 2.46132
    endloop
  endfacet
  facet normal 0.976608 0.158131 0.14571
    outer loop
      vertex -3.3163 2.22823 0.148233
      vertex -3.65081 2.16276 2.46132
      vertex -3.22784 -0.024449 2
    endloop
  endfacet
  facet normal 0.981947 0.189122 0.0036701
    outer loop
      vertex -3.22784 -0.024449 2
      vertex -3.65081 2.16276 2.46132
      vertex -3.22784 -0.053558 3.5
    endloop
  endfacet
  facet normal -0.667411 0.207767 0.715119
    outer loop
      vertex -3.22784 -0.053558 3.5
      vertex -3.65081 2.16276 2.46132
      vertex -3.54523 -1.50098 3.62431
    endloop
  endfacet
  facet normal 0.364684 0 0.931131
    outer loop
      vertex -3.22784 -0.053558 3.5
      vertex -3.54523 -1.50098 3.62431
      vertex -3.22784 -3.31639 3.5
    endloop
  endfacet
  facet normal 0.628016 0.0566525 0.776136
    outer loop
      vertex -3.54523 -1.50098 3.62431
      vertex -3.65081 -4.90054 3.95789
      vertex -3.22784 -3.31639 3.5
    endloop
  endfacet
  facet normal 0.966685 -0.255849 0.00782668
    outer loop
      vertex -3.65081 -4.90054 3.95789
      vertex -3.68004 -5.11019 0.713894
      vertex -3.22784 -3.31639 3.5
    endloop
  endfacet
  facet normal 0.715185 -0.697865 0.0386582
    outer loop
      vertex -3.65081 -4.90054 3.95789
      vertex -4.37499 -5.68298 3.2306
      vertex -3.68004 -5.11019 0.713894
    endloop
  endfacet
  facet normal 0.597132 -0.767972 0.23163
    outer loop
      vertex -4.28328 -5.39231 3.95789
      vertex -4.37499 -5.68298 3.2306
      vertex -3.65081 -4.90054 3.95789
    endloop
  endfacet
  facet normal 0.442922 0.896489 0.0113108
    outer loop
      vertex -4.28328 2.70785 0
      vertex -4.28328 2.67834 2.33902
      vertex -3.3163 2.22823 0.148233
    endloop
  endfacet
  facet normal 0.612141 -0.790674 -0.0109188
    outer loop
      vertex -3.68004 -5.11019 0.713894
      vertex -4.37499 -5.68298 3.2306
      vertex -4.37499 -5.64789 0.689898
    endloop
  endfacet
  facet normal 0.609787 -0.790605 0.0557035
    outer loop
      vertex -3.68004 -5.11019 0.713894
      vertex -4.37499 -5.64789 0.689898
      vertex -4.28328 -5.62576 0
    endloop
  endfacet
  facet normal 0 -0.999486 -0.0320622
    outer loop
      vertex -4.94944 -5.64789 0.689898
      vertex -5.04115 -5.62576 0
      vertex -4.28328 -5.62576 0
    endloop
  endfacet
  facet normal 0 -0.999486 -0.0320622
    outer loop
      vertex -4.37499 -5.64789 0.689898
      vertex -4.94944 -5.64789 0.689898
      vertex -4.28328 -5.62576 0
    endloop
  endfacet
  facet normal 0.763821 0 -0.645428
    outer loop
      vertex -3.68004 -5.11019 0.713894
      vertex -4.28328 -5.62576 0
      vertex -4.28328 2.70785 0
    endloop
  endfacet
  facet normal 0.111226 -0.0818566 -0.990418
    outer loop
      vertex -3.68004 -5.11019 0.713894
      vertex -4.28328 2.70785 0
      vertex -3.3163 2.22823 0.148233
    endloop
  endfacet
  facet normal 0.967139 -0.0668456 -0.245304
    outer loop
      vertex -3.22784 -3.28728 2
      vertex -3.68004 -5.11019 0.713894
      vertex -3.3163 2.22823 0.148233
    endloop
  endfacet
  facet normal 0.998861 0 -0.0477194
    outer loop
      vertex -3.22784 -3.28728 2
      vertex -3.3163 2.22823 0.148233
      vertex -3.22784 -0.024449 2
    endloop
  endfacet
  facet normal 0 0 -1
    outer loop
      vertex -3.22784 -3.28728 2
      vertex -3.22784 -0.024449 2
      vertex -2.06721 -2.83544 2
    endloop
  endfacet
  facet normal 0 0 -1
    outer loop
      vertex -2.06721 -2.83544 2
      vertex -3.22784 -0.024449 2
      vertex -2.06721 0.427388 2
    endloop
  endfacet
  facet normal -0.362723 0.931722 0.018081
    outer loop
      vertex -3.22784 -0.053558 3.5
      vertex -2.06721 0.398279 3.5
      vertex -3.22784 -0.024449 2
    endloop
  endfacet
  facet normal -0.362723 0.931722 0.018081
    outer loop
      vertex -3.22784 -0.024449 2
      vertex -2.06721 0.398279 3.5
      vertex -2.06721 0.427388 2
    endloop
  endfacet
  facet normal 0 0 1
    outer loop
      vertex -3.22784 -0.053558 3.5
      vertex -3.22784 -3.31639 3.5
      vertex -2.06721 -2.86455 3.5
    endloop
  endfacet
  facet normal 0 0 1
    outer loop
      vertex -2.06721 0.398279 3.5
      vertex -3.22784 -0.053558 3.5
      vertex -2.06721 -2.86455 3.5
    endloop
  endfacet
  facet normal 0.362723 -0.931722 -0.018081
    outer loop
      vertex -2.06721 -2.86455 3.5
      vertex -3.22784 -3.31639 3.5
      vertex -3.22784 -3.28728 2
    endloop
  endfacet
  facet normal 0.971328 -0.237698 -0.00461277
    outer loop
      vertex -3.22784 -3.31639 3.5
      vertex -3.68004 -5.11019 0.713894
      vertex -3.22784 -3.28728 2
    endloop
  endfacet
  facet normal 0.362722 -0.931722 -0.0180804
    outer loop
      vertex -2.06721 -2.86455 3.5
      vertex -3.22784 -3.28728 2
      vertex -2.06721 -2.83544 2
    endloop
  endfacet
  facet normal -1 0 0
    outer loop
      vertex -2.06721 -3.43224 4.48746
      vertex -2.06721 -3.43224 4.8113
      vertex -2.06721 -3.37403 1.25085
    endloop
  endfacet
  facet normal -1 0 0
    outer loop
      vertex -2.06721 -2.86455 3.5
      vertex -2.06721 -3.43224 4.8113
      vertex -2.06721 2.33592 4.39612
    endloop
  endfacet
  facet normal -1 0 0
    outer loop
      vertex -2.06721 0.427388 2
      vertex -2.06721 2.33592 4.39612
      vertex -2.06721 2.39414 1.15951
    endloop
  endfacet
  facet normal -1 0 0
    outer loop
      vertex -2.06721 -3.37403 1.25085
      vertex -2.06721 -3.43224 4.8113
      vertex -2.06721 -2.86455 3.5
    endloop
  endfacet
  facet normal -1 0 0
    outer loop
      vertex -2.06721 0.398279 3.5
      vertex -2.06721 -2.86455 3.5
      vertex -2.06721 2.33592 4.39612
    endloop
  endfacet
  facet normal -1 0 0
    outer loop
      vertex -2.06721 -3.37403 1.25085
      vertex -2.06721 -2.86455 3.5
      vertex -2.06721 -2.83544 2
    endloop
  endfacet
  facet normal -1 0 0
    outer loop
      vertex -2.06721 0.398279 3.5
      vertex -2.06721 2.33592 4.39612
      vertex -2.06721 0.427388 2
    endloop
  endfacet
  facet normal -1 0 0
    outer loop
      vertex -2.06721 -3.37403 1.25085
      vertex -2.06721 0.427388 2
      vertex -2.06721 2.39414 1.15951
    endloop
  endfacet
  facet normal -1 0 0
    outer loop
      vertex -2.06721 0.427388 2
      vertex -2.06721 -3.37403 1.25085
      vertex -2.06721 -2.83544 2
    endloop
  endfacet
  facet normal -0.893085 -0.449815 -0.0080907
    outer loop
      vertex -1.41698 -4.69604 2.97574
      vertex -2.06721 -3.43224 4.48746
      vertex -2.06721 -3.37403 1.25085
    endloop
  endfacet
  facet normal -0.707907 -0.663635 -0.241777
    outer loop
      vertex -1.41698 -4.69604 2.97574
      vertex -2.06721 -3.37403 1.25085
      vertex -1.66565 -3.34666 0
    endloop
  endfacet
  facet normal -0.95214 0 -0.305664
    outer loop
      vertex -1.66565 -3.34666 0
      vertex -2.06721 -3.37403 1.25085
      vertex -1.66565 2.42151 0
    endloop
  endfacet
  facet normal -0.944888 -0.00518369 -0.327353
    outer loop
      vertex -1.66565 2.42151 0
      vertex -2.06721 -3.37403 1.25085
      vertex -2.06721 2.39414 1.15951
    endloop
  endfacet
  facet normal -0.179228 0.56492 -0.805445
    outer loop
      vertex 0 3.53544 1.5
      vertex -2.06721 2.39414 1.15951
      vertex -1.40279 3.09039 1.5
    endloop
  endfacet
  facet normal -0.726407 0.687154 0.0123599
    outer loop
      vertex -2.06721 2.39414 1.15951
      vertex -2.06721 2.33592 4.39612
      vertex -1.40279 3.09039 1.5
    endloop
  endfacet
  facet normal -0.342453 0.934562 -0.0965403
    outer loop
      vertex -1.66565 2.42151 0
      vertex -2.06721 2.39414 1.15951
      vertex 0 3.15163 1.15951
    endloop
  endfacet
  facet normal -0.236286 0.644831 -0.726885
    outer loop
      vertex 0 3.15163 1.15951
      vertex -2.06721 2.39414 1.15951
      vertex 0 3.53544 1.5
    endloop
  endfacet
  facet normal -0.220838 0.271531 0.936751
    outer loop
      vertex 0 3.05161 4.67601
      vertex -2.06721 2.33592 4.39612
      vertex -1.05231 0.025979 5.30495
    endloop
  endfacet
  facet normal -0.589497 0.0579905 0.805686
    outer loop
      vertex -2.06721 2.33592 4.39612
      vertex -2.06721 -3.43224 4.8113
      vertex -1.05231 0.025979 5.30495
    endloop
  endfacet
  facet normal -0.730398 0.682943 0.0103472
    outer loop
      vertex -1.40279 3.09039 1.5
      vertex -2.06721 2.33592 4.39612
      vertex -1.40279 3.05619 3.75749
    endloop
  endfacet
  facet normal -0.34107 0.779925 0.524774
    outer loop
      vertex -1.40279 3.05619 3.75749
      vertex -2.06721 2.33592 4.39612
      vertex 0 3.05161 4.67601
    endloop
  endfacet
  facet normal -0.527851 0.033764 0.848665
    outer loop
      vertex -1.05231 0.025979 5.30495
      vertex -2.06721 -3.43224 4.8113
      vertex 0 -3.00525 6.08007
    endloop
  endfacet
  facet normal -0.532771 0.0744946 0.842974
    outer loop
      vertex 0 -3.00525 6.08007
      vertex -2.06721 -3.43224 4.8113
      vertex -1.41698 -4.46647 5.31364
    endloop
  endfacet
  facet normal -0.846585 -0.532253 0
    outer loop
      vertex -2.06721 -3.43224 4.8113
      vertex -2.06721 -3.43224 4.48746
      vertex -1.41698 -4.46647 5.31364
    endloop
  endfacet
  facet normal -0.862859 -0.503026 0.0493947
    outer loop
      vertex -1.41698 -4.46647 5.31364
      vertex -2.06721 -3.43224 4.48746
      vertex -1.41698 -4.69604 2.97574
    endloop
  endfacet
  facet normal 0 0.913101 -0.407733
    outer loop
      vertex -1.41698 -4.69604 2.97574
      vertex 1.41698 -4.69604 2.97574
      vertex -0.505962 -6.02482 0
    endloop
  endfacet
  facet normal 0 0.913101 -0.407733
    outer loop
      vertex -0.505962 -6.02482 0
      vertex 1.41698 -4.69604 2.97574
      vertex 0.505962 -6.02482 0
    endloop
  endfacet
  facet normal 0 -0.910738 -0.412985
    outer loop
      vertex -1.41698 -4.69604 2.97574
      vertex -1.66565 -3.34666 0
      vertex 1.66565 -3.34666 0
    endloop
  endfacet
  facet normal 0 -0.910738 -0.412985
    outer loop
      vertex 1.41698 -4.69604 2.97574
      vertex -1.41698 -4.69604 2.97574
      vertex 1.66565 -3.34666 0
    endloop
  endfacet
  facet normal -0.903776 -0.425958 0.041827
    outer loop
      vertex -1.41698 -4.46647 5.31364
      vertex -1.41698 -4.69604 2.97574
      vertex -0.825356 -6.15032 0.94924
    endloop
  endfacet
  facet normal -0.935432 -0.352953 -0.0198059
    outer loop
      vertex -0.825356 -6.15032 0.94924
      vertex -1.41698 -4.69604 2.97574
      vertex -0.792972 -6.18288 0
    endloop
  endfacet
  facet normal -0.424678 0.771128 -0.474352
    outer loop
      vertex -0.792972 -6.18288 0
      vertex -1.41698 -4.69604 2.97574
      vertex -0.505962 -6.02482 0
    endloop
  endfacet
  facet normal 0 0 -1
    outer loop
      vertex -0.156793 1.49178 0
      vertex -1.66565 2.42151 0
      vertex 0 3.179 0
    endloop
  endfacet
  facet normal 0 0 -1
    outer loop
      vertex 1.37032 0.610105 0
      vertex 0 3.179 0
      vertex 1.66565 2.42151 0
    endloop
  endfacet
  facet normal 0 0 -1
    outer loop
      vertex -1.66565 -3.34666 0
      vertex -1.66565 2.42151 0
      vertex -1.46722 0.311868 0
    endloop
  endfacet
  facet normal 0 0 -1
    outer loop
      vertex -1.66565 -3.34666 0
      vertex -1.46722 0.311868 0
      vertex -1.46722 -0.311868 0
    endloop
  endfacet
  facet normal 0 0 -1
    outer loop
      vertex -1.66565 -3.34666 0
      vertex -1.46722 -0.311868 0
      vertex -1.21352 -0.881678 0
    endloop
  endfacet
  facet normal 0 0 -1
    outer loop
      vertex -1.66565 -3.34666 0
      vertex -1.21352 -0.881678 0
      vertex -0.75 -1.29904 0
    endloop
  endfacet
  facet normal 0 0 -1
    outer loop
      vertex -1.66565 -3.34666 0
      vertex -0.75 -1.29904 0
      vertex 1.66565 -3.34666 0
    endloop
  endfacet
  facet normal 0 0 -1
    outer loop
      vertex 0.463525 -1.42658 0
      vertex 1.66565 -3.34666 0
      vertex -0.156793 -1.49178 0
    endloop
  endfacet
  facet normal 0 0 -1
    outer loop
      vertex 1.0037 -1.11472 0
      vertex 1.66565 -3.34666 0
      vertex 0.463525 -1.42658 0
    endloop
  endfacet
  facet normal 0 0 -1
    outer loop
      vertex 1.37032 -0.610105 0
      vertex 1.66565 -3.34666 0
      vertex 1.0037 -1.11472 0
    endloop
  endfacet
  facet normal 0 0 -1
    outer loop
      vertex -0.156793 1.49178 0
      vertex 0 3.179 0
      vertex 0.463525 1.42658 0
    endloop
  endfacet
  facet normal 0 0 -1
    outer loop
      vertex 1.66565 -3.34666 0
      vertex 1.37032 -0.610105 0
      vertex 1.5 0 0
    endloop
  endfacet
  facet normal 0 0 -1
    outer loop
      vertex 1.66565 -3.34666 0
      vertex 1.5 0 0
      vertex 1.66565 2.42151 0
    endloop
  endfacet
  facet normal 0 0 -1
    outer loop
      vertex 1.0037 1.11472 0
      vertex 0 3.179 0
      vertex 1.37032 0.610105 0
    endloop
  endfacet
  facet normal 0 0 -1
    outer loop
      vertex 0.463525 1.42658 0
      vertex 0 3.179 0
      vertex 1.0037 1.11472 0
    endloop
  endfacet
  facet normal 0 0 -1
    outer loop
      vertex 1.37032 0.610105 0
      vertex 1.66565 2.42151 0
      vertex 1.5 0 0
    endloop
  endfacet
  facet normal 0 0 -1
    outer loop
      vertex -0.75 1.29904 0
      vertex -1.66565 2.42151 0
      vertex -0.156793 1.49178 0
    endloop
  endfacet
  facet normal 0 0 -1
    outer loop
      vertex -1.21352 0.881678 0
      vertex -1.66565 2.42151 0
      vertex -0.75 1.29904 0
    endloop
  endfacet
  facet normal 0 0 -1
    outer loop
      vertex -1.46722 0.311868 0
      vertex -1.66565 2.42151 0
      vertex -1.21352 0.881678 0
    endloop
  endfacet
  facet normal 0 0 -1
    outer loop
      vertex -0.156793 -1.49178 0
      vertex 1.66565 -3.34666 0
      vertex -0.75 -1.29904 0
    endloop
  endfacet
  facet normal -0.413879 0.910079 0.0214806
    outer loop
      vertex 0 3.179 0
      vertex -1.66565 2.42151 0
      vertex 0 3.15163 1.15951
    endloop
  endfacet
  facet normal 0.236286 0.644831 -0.726885
    outer loop
      vertex 2.06721 2.39414 1.15951
      vertex 0 3.15163 1.15951
      vertex 0 3.53544 1.5
    endloop
  endfacet
  facet normal 0.179228 0.56492 -0.805445
    outer loop
      vertex 2.06721 2.39414 1.15951
      vertex 0 3.53544 1.5
      vertex 1.40279 3.09039 1.5
    endloop
  endfacet
  facet normal 0 0 -1
    outer loop
      vertex -2.29904 5.37685 1.5
      vertex 0 5.37685 1.5
      vertex -1.40279 3.09039 1.5
    endloop
  endfacet
  facet normal 0 0 -1
    outer loop
      vertex -1.40279 3.09039 1.5
      vertex 0 5.37685 1.5
      vertex 2.29904 5.37685 1.5
    endloop
  endfacet
  facet normal 0 0 -1
    outer loop
      vertex 0 3.53544 1.5
      vertex 2.29904 5.37685 1.5
      vertex 1.40279 3.09039 1.5
    endloop
  endfacet
  facet normal 0 0 -1
    outer loop
      vertex -1.40279 3.09039 1.5
      vertex 2.29904 5.37685 1.5
      vertex 0 3.53544 1.5
    endloop
  endfacet
  facet normal -0.997767 -0.0667901 -0.00101193
    outer loop
      vertex -1.40279 3.05619 3.75749
      vertex -1.55807 5.37685 3.69738
      vertex -1.40279 3.09039 1.5
    endloop
  endfacet
  facet normal -0.88828 -0.348192 0.299534
    outer loop
      vertex -1.55807 5.37685 3.69738
      vertex -2.29904 5.37685 1.5
      vertex -1.40279 3.09039 1.5
    endloop
  endfacet
  facet normal 0.413879 0.910079 0.0214806
    outer loop
      vertex 0 3.179 0
      vertex 0 3.15163 1.15951
      vertex 1.66565 2.42151 0
    endloop
  endfacet
  facet normal 0.342453 0.934562 -0.0965403
    outer loop
      vertex 1.66565 2.42151 0
      vertex 0 3.15163 1.15951
      vertex 2.06721 2.39414 1.15951
    endloop
  endfacet
  facet normal -0.303644 0.830002 0.467865
    outer loop
      vertex 0 3.47668 3.92193
      vertex -1.40279 3.05619 3.75749
      vertex 0 3.05161 4.67601
    endloop
  endfacet
  facet normal 0.303644 0.830002 0.467865
    outer loop
      vertex 0 3.47668 3.92193
      vertex 0 3.05161 4.67601
      vertex 1.40279 3.05619 3.75749
    endloop
  endfacet
  facet normal 0.34107 0.779925 0.524774
    outer loop
      vertex 1.40279 3.05619 3.75749
      vertex 0 3.05161 4.67601
      vertex 2.06721 2.33592 4.39612
    endloop
  endfacet
  facet normal 0.220838 0.271531 0.936751
    outer loop
      vertex 2.06721 2.33592 4.39612
      vertex 0 3.05161 4.67601
      vertex 1.05231 0.025979 5.30495
    endloop
  endfacet
  facet normal 0.0669068 0.225318 0.971985
    outer loop
      vertex 0 3.05161 4.67601
      vertex 0 -3.00525 6.08007
      vertex 1.05231 0.025979 5.30495
    endloop
  endfacet
  facet normal -0.0669068 0.225318 0.971985
    outer loop
      vertex 0 3.05161 4.67601
      vertex -1.05231 0.025979 5.30495
      vertex 0 -3.00525 6.08007
    endloop
  endfacet
  facet normal -0.104379 0.0187713 0.99436
    outer loop
      vertex 0 5.37685 3.86093
      vertex -1.55807 5.37685 3.69738
      vertex -1.40279 3.05619 3.75749
    endloop
  endfacet
  facet normal -0.125778 0.0318317 0.991548
    outer loop
      vertex 0 5.37685 3.86093
      vertex -1.40279 3.05619 3.75749
      vertex 0 3.47668 3.92193
    endloop
  endfacet
  facet normal 0.527851 0.033764 0.848665
    outer loop
      vertex 1.05231 0.025979 5.30495
      vertex 0 -3.00525 6.08007
      vertex 2.06721 -3.43224 4.8113
    endloop
  endfacet
  facet normal 0.532771 0.0744946 0.842974
    outer loop
      vertex 2.06721 -3.43224 4.8113
      vertex 0 -3.00525 6.08007
      vertex 1.41698 -4.46647 5.31364
    endloop
  endfacet
  facet normal 0.509945 0.0439081 0.859086
    outer loop
      vertex 0 -3.00525 6.08007
      vertex 0 -5.92658 6.22938
      vertex 1.41698 -4.46647 5.31364
    endloop
  endfacet
  facet normal -0.509945 0.0439081 0.859086
    outer loop
      vertex 0 -3.00525 6.08007
      vertex -1.41698 -4.46647 5.31364
      vertex 0 -5.92658 6.22938
    endloop
  endfacet
  facet normal -0.16795 0.40163 0.90027
    outer loop
      vertex 0 -5.92658 6.22938
      vertex -1.41698 -4.46647 5.31364
      vertex -1.41057 -6.03636 6.0152
    endloop
  endfacet
  facet normal -0.981376 -0.0817004 -0.173854
    outer loop
      vertex -1.41057 -6.03636 6.0152
      vertex -1.41698 -4.46647 5.31364
      vertex -1.0183 -6.01295 3.78988
    endloop
  endfacet
  facet normal -0.978906 -0.1962 -0.0570013
    outer loop
      vertex -1.0183 -6.01295 3.78988
      vertex -1.41698 -4.46647 5.31364
      vertex -0.825356 -6.15032 0.94924
    endloop
  endfacet
  facet normal 0 0 -1
    outer loop
      vertex -1.24894 -7.67333 0
      vertex -0.792972 -6.18288 0
      vertex -0.502383 -11.7944 0
    endloop
  endfacet
  facet normal 0 0 -1
    outer loop
      vertex -0.502383 -11.7944 0
      vertex -0.792972 -6.18288 0
      vertex -0.505962 -6.02482 0
    endloop
  endfacet
  facet normal 0 0 -1
    outer loop
      vertex -0.502383 -11.7944 0
      vertex -0.505962 -6.02482 0
      vertex 0.505962 -6.02482 0
    endloop
  endfacet
  facet normal 0 0 -1
    outer loop
      vertex -0.502383 -11.7944 0
      vertex 0.505962 -6.02482 0
      vertex 0.792972 -6.18288 0
    endloop
  endfacet
  facet normal 0 0 -1
    outer loop
      vertex -0.502383 -11.7944 0
      vertex 0.792972 -6.18288 0
      vertex 1.24894 -7.67333 0
    endloop
  endfacet
  facet normal 0 0 -1
    outer loop
      vertex 0 -11.7944 0
      vertex 1.24894 -7.67333 0
      vertex 0.502383 -11.7944 0
    endloop
  endfacet
  facet normal 0 0 -1
    outer loop
      vertex -0.502383 -11.7944 0
      vertex 1.24894 -7.67333 0
      vertex 0 -11.7944 0
    endloop
  endfacet
  facet normal 0.424678 0.771128 -0.474352
    outer loop
      vertex 0.792972 -6.18288 0
      vertex 0.505962 -6.02482 0
      vertex 1.41698 -4.69604 2.97574
    endloop
  endfacet
  facet normal 0.935432 -0.352953 -0.0198059
    outer loop
      vertex 0.825356 -6.15032 0.94924
      vertex 0.792972 -6.18288 0
      vertex 1.41698 -4.69604 2.97574
    endloop
  endfacet
  facet normal 0.903776 -0.425958 0.041827
    outer loop
      vertex 1.41698 -4.46647 5.31364
      vertex 0.825356 -6.15032 0.94924
      vertex 1.41698 -4.69604 2.97574
    endloop
  endfacet
  facet normal 0.862859 -0.503026 0.0493947
    outer loop
      vertex 1.41698 -4.46647 5.31364
      vertex 1.41698 -4.69604 2.97574
      vertex 2.06721 -3.43224 4.48746
    endloop
  endfacet
  facet normal 0.893085 -0.449815 -0.0080907
    outer loop
      vertex 2.06721 -3.43224 4.48746
      vertex 1.41698 -4.69604 2.97574
      vertex 2.06721 -3.37403 1.25085
    endloop
  endfacet
  facet normal 0.707907 -0.663635 -0.241777
    outer loop
      vertex 2.06721 -3.37403 1.25085
      vertex 1.41698 -4.69604 2.97574
      vertex 1.66565 -3.34666 0
    endloop
  endfacet
  facet normal 0.95214 0 -0.305664
    outer loop
      vertex 2.06721 -3.37403 1.25085
      vertex 1.66565 -3.34666 0
      vertex 1.66565 2.42151 0
    endloop
  endfacet
  facet normal -0.850116 0.520032 -0.0828892
    outer loop
      vertex -0.825356 -6.15032 0.94924
      vertex -1.73636 -7.64077 0.941714
      vertex -1.0183 -6.01295 3.78988
    endloop
  endfacet
  facet normal -0.774462 0.475479 -0.417288
    outer loop
      vertex -1.24894 -7.67333 0
      vertex -1.73636 -7.64077 0.941714
      vertex -0.825356 -6.15032 0.94924
    endloop
  endfacet
  facet normal -0.955383 0.292279 -0.0426194
    outer loop
      vertex -0.792972 -6.18288 0
      vertex -1.24894 -7.67333 0
      vertex -0.825356 -6.15032 0.94924
    endloop
  endfacet
  facet normal 0.944888 -0.00518369 -0.327353
    outer loop
      vertex 2.06721 -3.37403 1.25085
      vertex 1.66565 2.42151 0
      vertex 2.06721 2.39414 1.15951
    endloop
  endfacet
  facet normal 0.913545 -0.406737 0
    outer loop
      vertex -1.21352 0.881678 0
      vertex -1.21352 0.881678 3
      vertex -1.46722 0.311868 3
    endloop
  endfacet
  facet normal 0.913545 -0.406737 0
    outer loop
      vertex -1.46722 0.311868 0
      vertex -1.21352 0.881678 0
      vertex -1.46722 0.311868 3
    endloop
  endfacet
  facet normal 1 0 0
    outer loop
      vertex -1.46722 0.311868 0
      vertex -1.46722 0.311868 3
      vertex -1.46722 -0.311868 3
    endloop
  endfacet
  facet normal 1 0 0
    outer loop
      vertex -1.46722 -0.311868 0
      vertex -1.46722 0.311868 0
      vertex -1.46722 -0.311868 3
    endloop
  endfacet
  facet normal 0.669131 -0.743145 0
    outer loop
      vertex -0.75 1.29904 0
      vertex -0.75 1.29904 3
      vertex -1.21352 0.881678 3
    endloop
  endfacet
  facet normal 0.669131 -0.743145 0
    outer loop
      vertex -1.21352 0.881678 0
      vertex -0.75 1.29904 0
      vertex -1.21352 0.881678 3
    endloop
  endfacet
  facet normal 0.309018 -0.951056 0
    outer loop
      vertex -0.156793 1.49178 0
      vertex -0.156793 1.49178 3
      vertex -0.75 1.29904 3
    endloop
  endfacet
  facet normal 0.309018 -0.951056 0
    outer loop
      vertex -0.75 1.29904 0
      vertex -0.156793 1.49178 0
      vertex -0.75 1.29904 3
    endloop
  endfacet
  facet normal -0.104528 -0.994522 0
    outer loop
      vertex 0.463525 1.42658 0
      vertex 0.463525 1.42658 3
      vertex -0.156793 1.49178 3
    endloop
  endfacet
  facet normal -0.104528 -0.994522 0
    outer loop
      vertex -0.156793 1.49178 0
      vertex 0.463525 1.42658 0
      vertex -0.156793 1.49178 3
    endloop
  endfacet
  facet normal -0.5 -0.866025 0
    outer loop
      vertex 1.0037 1.11472 0
      vertex 1.0037 1.11472 3
      vertex 0.463525 1.42658 3
    endloop
  endfacet
  facet normal -0.5 -0.866025 0
    outer loop
      vertex 0.463525 1.42658 0
      vertex 1.0037 1.11472 0
      vertex 0.463525 1.42658 3
    endloop
  endfacet
  facet normal -0.809017 -0.587785 0
    outer loop
      vertex 1.37032 0.610105 3
      vertex 1.0037 1.11472 3
      vertex 1.37032 0.610105 0
    endloop
  endfacet
  facet normal -0.809017 -0.587785 0
    outer loop
      vertex 1.37032 0.610105 0
      vertex 1.0037 1.11472 3
      vertex 1.0037 1.11472 0
    endloop
  endfacet
  facet normal -0.978148 -0.207912 0
    outer loop
      vertex 1.5 0 3
      vertex 1.37032 0.610105 3
      vertex 1.5 0 0
    endloop
  endfacet
  facet normal -0.978148 -0.207912 0
    outer loop
      vertex 1.5 0 0
      vertex 1.37032 0.610105 3
      vertex 1.37032 0.610105 0
    endloop
  endfacet
  facet normal -0.978148 0.207912 0
    outer loop
      vertex 1.5 0 3
      vertex 1.5 0 0
      vertex 1.37032 -0.610105 3
    endloop
  endfacet
  facet normal -0.978148 0.207912 0
    outer loop
      vertex 1.37032 -0.610105 3
      vertex 1.5 0 0
      vertex 1.37032 -0.610105 0
    endloop
  endfacet
  facet normal -0.809017 0.587785 0
    outer loop
      vertex 1.37032 -0.610105 3
      vertex 1.37032 -0.610105 0
      vertex 1.0037 -1.11472 3
    endloop
  endfacet
  facet normal -0.809017 0.587785 0
    outer loop
      vertex 1.0037 -1.11472 3
      vertex 1.37032 -0.610105 0
      vertex 1.0037 -1.11472 0
    endloop
  endfacet
  facet normal -0.5 0.866025 0
    outer loop
      vertex 1.0037 -1.11472 3
      vertex 1.0037 -1.11472 0
      vertex 0.463525 -1.42658 3
    endloop
  endfacet
  facet normal -0.5 0.866025 0
    outer loop
      vertex 0.463525 -1.42658 3
      vertex 1.0037 -1.11472 0
      vertex 0.463525 -1.42658 0
    endloop
  endfacet
  facet normal -0.104528 0.994522 0
    outer loop
      vertex 0.463525 -1.42658 3
      vertex 0.463525 -1.42658 0
      vertex -0.156793 -1.49178 3
    endloop
  endfacet
  facet normal -0.104528 0.994522 0
    outer loop
      vertex -0.156793 -1.49178 3
      vertex 0.463525 -1.42658 0
      vertex -0.156793 -1.49178 0
    endloop
  endfacet
  facet normal 0.309018 0.951056 0
    outer loop
      vertex -0.156793 -1.49178 3
      vertex -0.156793 -1.49178 0
      vertex -0.75 -1.29904 3
    endloop
  endfacet
  facet normal 0.309018 0.951056 0
    outer loop
      vertex -0.75 -1.29904 3
      vertex -0.156793 -1.49178 0
      vertex -0.75 -1.29904 0
    endloop
  endfacet
  facet normal 0.669131 0.743145 0
    outer loop
      vertex -0.75 -1.29904 3
      vertex -0.75 -1.29904 0
      vertex -1.21352 -0.881678 3
    endloop
  endfacet
  facet normal 0.669131 0.743145 0
    outer loop
      vertex -1.21352 -0.881678 3
      vertex -0.75 -1.29904 0
      vertex -1.21352 -0.881678 0
    endloop
  endfacet
  facet normal 0.913545 0.406737 0
    outer loop
      vertex -1.46722 -0.311868 3
      vertex -1.21352 -0.881678 3
      vertex -1.21352 -0.881678 0
    endloop
  endfacet
  facet normal 0.913545 0.406737 0
    outer loop
      vertex -1.46722 -0.311868 0
      vertex -1.46722 -0.311868 3
      vertex -1.21352 -0.881678 0
    endloop
  endfacet
  facet normal 1 0 0
    outer loop
      vertex 2.06721 -3.43224 4.8113
      vertex 2.06721 -3.43224 4.48746
      vertex 2.06721 -3.37403 1.25085
    endloop
  endfacet
  facet normal 1 0 0
    outer loop
      vertex 2.06721 -2.83544 2
      vertex 2.06721 -3.43224 4.8113
      vertex 2.06721 -3.37403 1.25085
    endloop
  endfacet
  facet normal 1 0 0
    outer loop
      vertex 2.06721 2.39414 1.15951
      vertex 2.06721 -2.83544 2
      vertex 2.06721 -3.37403 1.25085
    endloop
  endfacet
  facet normal 1 0 0
    outer loop
      vertex 2.06721 -2.86455 3.5
      vertex 2.06721 -3.43224 4.8113
      vertex 2.06721 -2.83544 2
    endloop
  endfacet
  facet normal 1 0 0
    outer loop
      vertex 2.06721 0.398279 3.5
      vertex 2.06721 0.427388 2
      vertex 2.06721 2.39414 1.15951
    endloop
  endfacet
  facet normal 1 0 0
    outer loop
      vertex 2.06721 2.33592 4.39612
      vertex 2.06721 0.398279 3.5
      vertex 2.06721 2.39414 1.15951
    endloop
  endfacet
  facet normal 1 0 0
    outer loop
      vertex 2.06721 2.33592 4.39612
      vertex 2.06721 -3.43224 4.8113
      vertex 2.06721 0.398279 3.5
    endloop
  endfacet
  facet normal 1 0 0
    outer loop
      vertex 2.06721 2.39414 1.15951
      vertex 2.06721 0.427388 2
      vertex 2.06721 -2.83544 2
    endloop
  endfacet
  facet normal 1 0 0
    outer loop
      vertex 2.06721 -2.86455 3.5
      vertex 2.06721 0.398279 3.5
      vertex 2.06721 -3.43224 4.8113
    endloop
  endfacet
  facet normal 0.726407 0.687154 0.0123599
    outer loop
      vertex 2.06721 2.39414 1.15951
      vertex 1.40279 3.09039 1.5
      vertex 2.06721 2.33592 4.39612
    endloop
  endfacet
  facet normal 0.88828 -0.348192 0.299534
    outer loop
      vertex 1.55807 5.37685 3.69738
      vertex 1.40279 3.09039 1.5
      vertex 2.29904 5.37685 1.5
    endloop
  endfacet
  facet normal 0.730398 0.682943 0.0103472
    outer loop
      vertex 1.40279 3.09039 1.5
      vertex 1.40279 3.05619 3.75749
      vertex 2.06721 2.33592 4.39612
    endloop
  endfacet
  facet normal 0.997767 -0.0667901 -0.00101193
    outer loop
      vertex 1.55807 5.37685 3.69738
      vertex 1.40279 3.05619 3.75749
      vertex 1.40279 3.09039 1.5
    endloop
  endfacet
  facet normal 0 -1 0
    outer loop
      vertex 3.03046 5.37685 3.79203
      vertex 1.46977 5.37685 5.23951
      vertex 1.55807 5.37685 3.69738
    endloop
  endfacet
  facet normal 0 -1 0
    outer loop
      vertex 2.48709 5.37685 0
      vertex 3.03046 5.37685 3.79203
      vertex 2.29904 5.37685 1.5
    endloop
  endfacet
  facet normal 0 -1 0
    outer loop
      vertex 2.29904 5.37685 1.5
      vertex 3.03046 5.37685 3.79203
      vertex 1.55807 5.37685 3.69738
    endloop
  endfacet
  facet normal 0 -1 0
    outer loop
      vertex 3.03046 5.37685 1
      vertex 3.03046 5.37685 3.79203
      vertex 2.48709 5.37685 0
    endloop
  endfacet
  facet normal -4.02076e-07 -1 -5.04077e-08
    outer loop
      vertex 2.29904 5.37685 1.5
      vertex 0 5.37685 0
      vertex 2.48709 5.37685 0
    endloop
  endfacet
  facet normal -4.34964e-07 -1 0
    outer loop
      vertex 0 5.37685 1.5
      vertex 0 5.37685 0
      vertex 2.29904 5.37685 1.5
    endloop
  endfacet
  facet normal 4.34964e-07 -1 0
    outer loop
      vertex 0 5.37685 1.5
      vertex -2.29904 5.37685 1.5
      vertex 0 5.37685 0
    endloop
  endfacet
  facet normal 4.02076e-07 -1 -5.04077e-08
    outer loop
      vertex -2.29904 5.37685 1.5
      vertex -2.48709 5.37685 0
      vertex 0 5.37685 0
    endloop
  endfacet
  facet normal 0 -1 0
    outer loop
      vertex -3.03046 5.37685 3.79203
      vertex -3.03046 5.37685 1
      vertex -2.48709 5.37685 0
    endloop
  endfacet
  facet normal 0 -1 0
    outer loop
      vertex -1.55807 5.37685 3.69738
      vertex -3.03046 5.37685 3.79203
      vertex -2.29904 5.37685 1.5
    endloop
  endfacet
  facet normal 0 -1 0
    outer loop
      vertex -2.29904 5.37685 1.5
      vertex -3.03046 5.37685 3.79203
      vertex -2.48709 5.37685 0
    endloop
  endfacet
  facet normal 0 -1 0
    outer loop
      vertex -1.46977 5.37685 5.23951
      vertex -3.03046 5.37685 3.79203
      vertex -1.55807 5.37685 3.69738
    endloop
  endfacet
  facet normal 6.45701e-07 -1 -3.69734e-08
    outer loop
      vertex -1.46977 5.37685 5.23951
      vertex -1.55807 5.37685 3.69738
      vertex 0 5.37685 3.86093
    endloop
  endfacet
  facet normal 0.125778 0.0318317 0.991548
    outer loop
      vertex 0 5.37685 3.86093
      vertex 0 3.47668 3.92193
      vertex 1.40279 3.05619 3.75749
    endloop
  endfacet
  facet normal 0.104379 0.0187713 0.99436
    outer loop
      vertex 1.55807 5.37685 3.69738
      vertex 0 5.37685 3.86093
      vertex 1.40279 3.05619 3.75749
    endloop
  endfacet
  facet normal 0.589497 0.0579905 0.805686
    outer loop
      vertex 2.06721 2.33592 4.39612
      vertex 1.05231 0.025979 5.30495
      vertex 2.06721 -3.43224 4.8113
    endloop
  endfacet
  facet normal 6.8038e-07 -1 0
    outer loop
      vertex 0 5.37685 5.63526
      vertex -1.46977 5.37685 5.23951
      vertex 0 5.37685 3.86093
    endloop
  endfacet
  facet normal -6.8038e-07 -1 0
    outer loop
      vertex 0 5.37685 5.63526
      vertex 0 5.37685 3.86093
      vertex 1.46977 5.37685 5.23951
    endloop
  endfacet
  facet normal -6.45701e-07 -1 -3.69734e-08
    outer loop
      vertex 1.46977 5.37685 5.23951
      vertex 0 5.37685 3.86093
      vertex 1.55807 5.37685 3.69738
    endloop
  endfacet
  facet normal 0.846585 -0.532253 0
    outer loop
      vertex 2.06721 -3.43224 4.8113
      vertex 1.41698 -4.46647 5.31364
      vertex 2.06721 -3.43224 4.48746
    endloop
  endfacet
  facet normal 0.978906 -0.1962 -0.0570013
    outer loop
      vertex 1.0183 -6.01295 3.78988
      vertex 0.825356 -6.15032 0.94924
      vertex 1.41698 -4.46647 5.31364
    endloop
  endfacet
  facet normal 0.981376 -0.0817004 -0.173854
    outer loop
      vertex 1.41057 -6.03636 6.0152
      vertex 1.0183 -6.01295 3.78988
      vertex 1.41698 -4.46647 5.31364
    endloop
  endfacet
  facet normal 0.16795 0.40163 0.90027
    outer loop
      vertex 1.41698 -4.46647 5.31364
      vertex 0 -5.92658 6.22938
      vertex 1.41057 -6.03636 6.0152
    endloop
  endfacet
  facet normal -0.150116 0 0.988668
    outer loop
      vertex 0 -5.92658 6.22938
      vertex -1.41057 -6.03636 6.0152
      vertex 0 -7.56212 6.22938
    endloop
  endfacet
  facet normal 0.150116 0 0.988668
    outer loop
      vertex 0 -5.92658 6.22938
      vertex 0 -7.56212 6.22938
      vertex 1.41057 -6.03636 6.0152
    endloop
  endfacet
  facet normal -0.214865 -0.061824 0.974685
    outer loop
      vertex -1.41057 -6.03636 6.0152
      vertex -2.32185 -7.5187 5.72029
      vertex 0 -7.56212 6.22938
    endloop
  endfacet
  facet normal -0.825709 0.540035 -0.162992
    outer loop
      vertex -1.9293 -7.5034 3.78236
      vertex -2.32185 -7.5187 5.72029
      vertex -1.41057 -6.03636 6.0152
    endloop
  endfacet
  facet normal -0.844102 0.516662 -0.143362
    outer loop
      vertex -1.0183 -6.01295 3.78988
      vertex -1.9293 -7.5034 3.78236
      vertex -1.41057 -6.03636 6.0152
    endloop
  endfacet
  facet normal -0.850115 0.520032 -0.0828893
    outer loop
      vertex -1.73636 -7.64077 0.941714
      vertex -1.9293 -7.5034 3.78236
      vertex -1.0183 -6.01295 3.78988
    endloop
  endfacet
  facet normal -0.879 -0.159237 -0.449447
    outer loop
      vertex -0.502383 -11.7944 0
      vertex -1.73636 -7.64077 0.941714
      vertex -1.24894 -7.67333 0
    endloop
  endfacet
  facet normal -0.898192 -0.175453 -0.403073
    outer loop
      vertex -0.989581 -11.7618 1.07148
      vertex -1.73636 -7.64077 0.941714
      vertex -0.502383 -11.7944 0
    endloop
  endfacet
  facet normal -0.802925 -0.482189 -0.350434
    outer loop
      vertex -0.502383 -11.7944 0
      vertex -1.05706 -12.9296 2.83299
      vertex -0.989581 -11.7618 1.07148
    endloop
  endfacet
  facet normal -0.701016 -0.603932 -0.379267
    outer loop
      vertex 0 -13.5717 1.90156
      vertex -1.05706 -12.9296 2.83299
      vertex -0.502383 -11.7944 0
    endloop
  endfacet
  facet normal 2.90842e-06 -0.730571 -0.682837
    outer loop
      vertex 0 -13.5717 1.90156
      vertex -0.502383 -11.7944 0
      vertex 0 -11.7944 0
    endloop
  endfacet
  facet normal -2.90842e-06 -0.730571 -0.682837
    outer loop
      vertex 0.502383 -11.7944 0
      vertex 0 -13.5717 1.90156
      vertex 0 -11.7944 0
    endloop
  endfacet
  facet normal 0.701016 -0.603932 -0.379267
    outer loop
      vertex 1.05706 -12.9296 2.83299
      vertex 0 -13.5717 1.90156
      vertex 0.502383 -11.7944 0
    endloop
  endfacet
  facet normal 0.802925 -0.482189 -0.350434
    outer loop
      vertex 1.05706 -12.9296 2.83299
      vertex 0.502383 -11.7944 0
      vertex 0.989581 -11.7618 1.07148
    endloop
  endfacet
  facet normal 0.898192 -0.175453 -0.403073
    outer loop
      vertex 0.989581 -11.7618 1.07148
      vertex 0.502383 -11.7944 0
      vertex 1.73636 -7.64077 0.941714
    endloop
  endfacet
  facet normal 0.879 -0.159237 -0.449447
    outer loop
      vertex 1.73636 -7.64077 0.941714
      vertex 0.502383 -11.7944 0
      vertex 1.24894 -7.67333 0
    endloop
  endfacet
  facet normal 0.774462 0.475479 -0.417288
    outer loop
      vertex 1.24894 -7.67333 0
      vertex 0.825356 -6.15032 0.94924
      vertex 1.73636 -7.64077 0.941714
    endloop
  endfacet
  facet normal 0.955383 0.292279 -0.0426194
    outer loop
      vertex 1.24894 -7.67333 0
      vertex 0.792972 -6.18288 0
      vertex 0.825356 -6.15032 0.94924
    endloop
  endfacet
  facet normal 0.850116 0.520032 -0.0828892
    outer loop
      vertex 1.73636 -7.64077 0.941714
      vertex 0.825356 -6.15032 0.94924
      vertex 1.0183 -6.01295 3.78988
    endloop
  endfacet
  facet normal -0.996623 -0.0498053 -0.0652844
    outer loop
      vertex -1.81628 -8.73936 3
      vertex -1.9293 -7.5034 3.78236
      vertex -1.73636 -7.64077 0.941714
    endloop
  endfacet
  facet normal -0.998774 -0.0154517 -0.0470319
    outer loop
      vertex -1.73534 -8.79699 1.3
      vertex -1.81628 -8.73936 3
      vertex -1.73636 -7.64077 0.941714
    endloop
  endfacet
  facet normal -0.827535 -0.166837 -0.536052
    outer loop
      vertex -1.73534 -8.79699 1.3
      vertex -1.73636 -7.64077 0.941714
      vertex -0.989581 -11.7618 1.07148
    endloop
  endfacet
  facet normal 0 0 -1
    outer loop
      vertex -1.21352 0.881678 3
      vertex -0.75 1.29904 3
      vertex -1.46722 0.311868 3
    endloop
  endfacet
  facet normal 0 0 -1
    outer loop
      vertex -1.46722 0.311868 3
      vertex -0.75 1.29904 3
      vertex -0.156793 1.49178 3
    endloop
  endfacet
  facet normal 0 0 -1
    outer loop
      vertex -1.46722 0.311868 3
      vertex -0.156793 1.49178 3
      vertex 0.463525 1.42658 3
    endloop
  endfacet
  facet normal 0 0 -1
    outer loop
      vertex -1.46722 0.311868 3
      vertex 0.463525 1.42658 3
      vertex 1.0037 1.11472 3
    endloop
  endfacet
  facet normal 0 0 -1
    outer loop
      vertex -1.46722 0.311868 3
      vertex 1.0037 1.11472 3
      vertex 1.37032 0.610105 3
    endloop
  endfacet
  facet normal 0 0 -1
    outer loop
      vertex -1.46722 0.311868 3
      vertex 1.37032 0.610105 3
      vertex 1.5 0 3
    endloop
  endfacet
  facet normal 0 0 -1
    outer loop
      vertex -1.46722 0.311868 3
      vertex 1.5 0 3
      vertex 1.37032 -0.610105 3
    endloop
  endfacet
  facet normal 0 0 -1
    outer loop
      vertex -1.46722 0.311868 3
      vertex 1.37032 -0.610105 3
      vertex 1.0037 -1.11472 3
    endloop
  endfacet
  facet normal 0 0 -1
    outer loop
      vertex -1.46722 0.311868 3
      vertex 1.0037 -1.11472 3
      vertex 0.463525 -1.42658 3
    endloop
  endfacet
  facet normal 0 0 -1
    outer loop
      vertex -1.46722 0.311868 3
      vertex 0.463525 -1.42658 3
      vertex -0.156793 -1.49178 3
    endloop
  endfacet
  facet normal 0 0 -1
    outer loop
      vertex -1.46722 0.311868 3
      vertex -0.156793 -1.49178 3
      vertex -0.75 -1.29904 3
    endloop
  endfacet
  facet normal 0 0 -1
    outer loop
      vertex -1.46722 0.311868 3
      vertex -0.75 -1.29904 3
      vertex -1.21352 -0.881678 3
    endloop
  endfacet
  facet normal 0 0 -1
    outer loop
      vertex -1.46722 0.311868 3
      vertex -1.21352 -0.881678 3
      vertex -1.46722 -0.311868 3
    endloop
  endfacet
  facet normal 0 0 -1
    outer loop
      vertex 2.06721 -2.83544 2
      vertex 2.06721 0.427388 2
      vertex 3.22784 -3.28728 2
    endloop
  endfacet
  facet normal 0 0 -1
    outer loop
      vertex 3.22784 -3.28728 2
      vertex 2.06721 0.427388 2
      vertex 3.22784 -0.024449 2
    endloop
  endfacet
  facet normal -0.362722 -0.931722 -0.0180804
    outer loop
      vertex 3.22784 -3.28728 2
      vertex 2.06721 -2.86455 3.5
      vertex 2.06721 -2.83544 2
    endloop
  endfacet
  facet normal 0.362723 0.931722 0.018081
    outer loop
      vertex 2.06721 0.398279 3.5
      vertex 3.22784 -0.053558 3.5
      vertex 2.06721 0.427388 2
    endloop
  endfacet
  facet normal 0.362723 0.931722 0.018081
    outer loop
      vertex 2.06721 0.427388 2
      vertex 3.22784 -0.053558 3.5
      vertex 3.22784 -0.024449 2
    endloop
  endfacet
  facet normal 0 0 1
    outer loop
      vertex 2.06721 0.398279 3.5
      vertex 2.06721 -2.86455 3.5
      vertex 3.22784 -3.31639 3.5
    endloop
  endfacet
  facet normal 0 0 1
    outer loop
      vertex 3.22784 -0.053558 3.5
      vertex 2.06721 0.398279 3.5
      vertex 3.22784 -3.31639 3.5
    endloop
  endfacet
  facet normal -0.362723 -0.931722 -0.018081
    outer loop
      vertex 3.22784 -3.31639 3.5
      vertex 2.06721 -2.86455 3.5
      vertex 3.22784 -3.28728 2
    endloop
  endfacet
  facet normal 0.67306 0.142663 0.725698
    outer loop
      vertex 1.46977 8.08723 4.70669
      vertex 1.46977 5.37685 5.23951
      vertex 3.03046 5.37685 3.79203
    endloop
  endfacet
  facet normal 0.535642 0.0235734 0.844116
    outer loop
      vertex 2.88865 8.59898 3.79203
      vertex 1.46977 8.08723 4.70669
      vertex 3.03046 5.37685 3.79203
    endloop
  endfacet
  facet normal 0.996713 0.043865 0.0681048
    outer loop
      vertex 3.1456 5.8534 1.8
      vertex 2.88865 8.59898 3.79203
      vertex 3.03046 5.37685 3.79203
    endloop
  endfacet
  facet normal 0.97203 -0.234855 0
    outer loop
      vertex 3.03046 5.37685 3.79203
      vertex 3.03046 5.37685 1
      vertex 3.1456 5.8534 1.3
    endloop
  endfacet
  facet normal 0.97203 -0.234855 0
    outer loop
      vertex 3.1456 5.8534 1.8
      vertex 3.03046 5.37685 3.79203
      vertex 3.1456 5.8534 1.3
    endloop
  endfacet
  facet normal 0.933599 0 -0.358319
    outer loop
      vertex 3.1456 5.8534 1.3
      vertex 3.03046 5.37685 1
      vertex 3.1456 8.12243 1.3
    endloop
  endfacet
  facet normal 0.785519 0.0345704 -0.617871
    outer loop
      vertex 3.03046 5.37685 1
      vertex 2.88865 8.59898 1
      vertex 3.1456 8.12243 1.3
    endloop
  endfacet
  facet normal 0.87801 0.038641 -0.477079
    outer loop
      vertex 3.03046 5.37685 1
      vertex 2.48709 5.37685 0
      vertex 2.88865 8.59898 1
    endloop
  endfacet
  facet normal 0.927977 0 -0.372638
    outer loop
      vertex 2.88865 8.59898 1
      vertex 2.48709 5.37685 0
      vertex 2.48709 8.1581 0
    endloop
  endfacet
  facet normal 0 0 -1
    outer loop
      vertex -2.48709 5.37685 0
      vertex -2.48709 8.1581 0
      vertex 0 5.37685 0
    endloop
  endfacet
  facet normal 0 0 -1
    outer loop
      vertex 0 5.37685 0
      vertex -2.48709 8.1581 0
      vertex 0 7.84393 0
    endloop
  endfacet
  facet normal 0 0 -1
    outer loop
      vertex 0 5.37685 0
      vertex 0 7.84393 0
      vertex 2.48709 8.1581 0
    endloop
  endfacet
  facet normal 0 0 -1
    outer loop
      vertex 0 5.37685 0
      vertex 2.48709 8.1581 0
      vertex 2.48709 5.37685 0
    endloop
  endfacet
  facet normal 0.255437 0.186496 0.948668
    outer loop
      vertex 1.46977 8.08723 4.70669
      vertex 0 5.37685 5.63526
      vertex 1.46977 5.37685 5.23951
    endloop
  endfacet
  facet normal -0.927977 0 -0.372638
    outer loop
      vertex -2.48709 5.37685 0
      vertex -2.88865 8.59898 1
      vertex -2.48709 8.1581 0
    endloop
  endfacet
  facet normal -0.87801 0.038641 -0.477079
    outer loop
      vertex -2.48709 5.37685 0
      vertex -3.03046 5.37685 1
      vertex -2.88865 8.59898 1
    endloop
  endfacet
  facet normal -0.97203 -0.234855 0
    outer loop
      vertex -3.1456 5.8534 1.3
      vertex -3.03046 5.37685 1
      vertex -3.1456 5.8534 1.8
    endloop
  endfacet
  facet normal -0.97203 -0.234855 0
    outer loop
      vertex -3.1456 5.8534 1.8
      vertex -3.03046 5.37685 1
      vertex -3.03046 5.37685 3.79203
    endloop
  endfacet
  facet normal -0.996713 0.043865 0.0681048
    outer loop
      vertex -2.88865 8.59898 3.79203
      vertex -3.1456 5.8534 1.8
      vertex -3.03046 5.37685 3.79203
    endloop
  endfacet
  facet normal -0.535642 0.0235734 0.844116
    outer loop
      vertex -2.88865 8.59898 3.79203
      vertex -3.03046 5.37685 3.79203
      vertex -1.46977 8.08723 4.70669
    endloop
  endfacet
  facet normal -0.67306 0.142663 0.725698
    outer loop
      vertex -1.46977 8.08723 4.70669
      vertex -3.03046 5.37685 3.79203
      vertex -1.46977 5.37685 5.23951
    endloop
  endfacet
  facet normal -0.255437 0.186496 0.948668
    outer loop
      vertex -1.46977 8.08723 4.70669
      vertex -1.46977 5.37685 5.23951
      vertex 0 5.37685 5.63526
    endloop
  endfacet
  facet normal -0.785519 0.0345704 -0.617871
    outer loop
      vertex -3.03046 5.37685 1
      vertex -3.1456 8.12243 1.3
      vertex -2.88865 8.59898 1
    endloop
  endfacet
  facet normal -0.933599 0 -0.358319
    outer loop
      vertex -3.03046 5.37685 1
      vertex -3.1456 5.8534 1.3
      vertex -3.1456 8.12243 1.3
    endloop
  endfacet
  facet normal 0 0.324106 0.946021
    outer loop
      vertex 1.46977 8.08723 4.70669
      vertex -1.46977 8.08723 4.70669
      vertex 0 5.37685 5.63526
    endloop
  endfacet
  facet normal 0.850115 0.520032 -0.0828893
    outer loop
      vertex 1.73636 -7.64077 0.941714
      vertex 1.0183 -6.01295 3.78988
      vertex 1.9293 -7.5034 3.78236
    endloop
  endfacet
  facet normal 0.844102 0.516662 -0.143362
    outer loop
      vertex 1.9293 -7.5034 3.78236
      vertex 1.0183 -6.01295 3.78988
      vertex 1.41057 -6.03636 6.0152
    endloop
  endfacet
  facet normal 0.214865 -0.061824 0.974685
    outer loop
      vertex 1.41057 -6.03636 6.0152
      vertex 0 -7.56212 6.22938
      vertex 2.32185 -7.5187 5.72029
    endloop
  endfacet
  facet normal 0.825709 0.540035 -0.162992
    outer loop
      vertex 1.9293 -7.5034 3.78236
      vertex 1.41057 -6.03636 6.0152
      vertex 2.32185 -7.5187 5.72029
    endloop
  endfacet
  facet normal 0 -0.272585 0.962132
    outer loop
      vertex 0 -7.56212 6.22938
      vertex -1.05706 -12.9272 4.70938
      vertex 1.05706 -12.9272 4.70938
    endloop
  endfacet
  facet normal 0.15441 -0.297359 0.942197
    outer loop
      vertex 0 -7.56212 6.22938
      vertex -1.18156 -9.13062 5.92799
      vertex -1.05706 -12.9272 4.70938
    endloop
  endfacet
  facet normal -0.214563 -0.0259767 0.976365
    outer loop
      vertex 0 -7.56212 6.22938
      vertex -2.32185 -7.5187 5.72029
      vertex -1.18156 -9.13062 5.92799
    endloop
  endfacet
  facet normal 0.214563 -0.0259767 0.976365
    outer loop
      vertex 2.32185 -7.5187 5.72029
      vertex 0 -7.56212 6.22938
      vertex 1.18156 -9.13062 5.92799
    endloop
  endfacet
  facet normal -0.15441 -0.297359 0.942197
    outer loop
      vertex 1.18156 -9.13062 5.92799
      vertex 0 -7.56212 6.22938
      vertex 1.05706 -12.9272 4.70938
    endloop
  endfacet
  facet normal -0.572523 -0.307052 0.760222
    outer loop
      vertex -1.18156 -9.13062 5.92799
      vertex -2.32185 -7.5187 5.72029
      vertex -1.58131 -11.4563 4.68761
    endloop
  endfacet
  facet normal -0.662759 -0.304112 0.684301
    outer loop
      vertex -1.58131 -11.4563 4.68761
      vertex -2.32185 -7.5187 5.72029
      vertex -2.30483 -11.6245 3.91213
    endloop
  endfacet
  facet normal -0.976856 0.0828047 -0.197218
    outer loop
      vertex -2.30483 -11.6245 3.91213
      vertex -2.32185 -7.5187 5.72029
      vertex -1.9293 -7.5034 3.78236
    endloop
  endfacet
  facet normal -0.733318 0.0454617 -0.678364
    outer loop
      vertex -1.38937 -10.4682 3
      vertex -2.30483 -11.6245 3.91213
      vertex -1.9293 -7.5034 3.78236
    endloop
  endfacet
  facet normal -0.944357 -0.23319 0.231976
    outer loop
      vertex -1.38937 -10.4682 3
      vertex -1.9293 -7.5034 3.78236
      vertex -1.81628 -8.73936 3
    endloop
  endfacet
  facet normal -0.969211 -0.239327 -0.0579054
    outer loop
      vertex -1.30843 -10.5259 1.3
      vertex -1.73534 -8.79699 1.3
      vertex -0.989581 -11.7618 1.07148
    endloop
  endfacet
  facet normal -0.899148 -0.156384 -0.408751
    outer loop
      vertex -0.989581 -11.7618 1.07148
      vertex -2.30483 -11.6245 3.91213
      vertex -1.30843 -10.5259 1.3
    endloop
  endfacet
  facet normal -0.804531 -0.48035 -0.349276
    outer loop
      vertex -1.05706 -12.9296 2.83299
      vertex -2.30483 -11.6245 3.91213
      vertex -0.989581 -11.7618 1.07148
    endloop
  endfacet
  facet normal -0.722456 -0.691416 0.000900938
    outer loop
      vertex -1.05706 -12.9272 4.70938
      vertex -2.30483 -11.6245 3.91213
      vertex -1.05706 -12.9296 2.83299
    endloop
  endfacet
  facet normal -0.583516 0.812101 -0.00105819
    outer loop
      vertex -1.05706 -12.9296 2.83299
      vertex -1.90203 -13.5376 2.21456
      vertex -1.05706 -12.9272 4.70938
    endloop
  endfacet
  facet normal -0.471497 0.858869 -0.200086
    outer loop
      vertex -1.67099 -13.5557 1.59239
      vertex -1.90203 -13.5376 2.21456
      vertex -1.05706 -12.9296 2.83299
    endloop
  endfacet
  facet normal 0.0983712 0.86801 -0.486705
    outer loop
      vertex 0 -13.5717 1.90156
      vertex -1.67099 -13.5557 1.59239
      vertex -1.05706 -12.9296 2.83299
    endloop
  endfacet
  facet normal 0.180508 0.185088 -0.966002
    outer loop
      vertex 0 -13.5717 1.90156
      vertex -1.85595 -14.2362 1.42744
      vertex -1.67099 -13.5557 1.59239
    endloop
  endfacet
  facet normal 0.18792 0.165869 -0.968077
    outer loop
      vertex 0 -14.2621 1.78327
      vertex -1.85595 -14.2362 1.42744
      vertex 0 -13.5717 1.90156
    endloop
  endfacet
  facet normal -0.18792 0.165869 -0.968077
    outer loop
      vertex 1.85595 -14.2362 1.42744
      vertex 0 -14.2621 1.78327
      vertex 0 -13.5717 1.90156
    endloop
  endfacet
  facet normal -0.180508 0.185088 -0.966002
    outer loop
      vertex 1.85595 -14.2362 1.42744
      vertex 0 -13.5717 1.90156
      vertex 1.67099 -13.5557 1.59239
    endloop
  endfacet
  facet normal -0.0983712 0.86801 -0.486705
    outer loop
      vertex 1.67099 -13.5557 1.59239
      vertex 0 -13.5717 1.90156
      vertex 1.05706 -12.9296 2.83299
    endloop
  endfacet
  facet normal 0.471497 0.858869 -0.200086
    outer loop
      vertex 1.67099 -13.5557 1.59239
      vertex 1.05706 -12.9296 2.83299
      vertex 1.90203 -13.5376 2.21456
    endloop
  endfacet
  facet normal 0.583516 0.812101 -0.00105819
    outer loop
      vertex 1.90203 -13.5376 2.21456
      vertex 1.05706 -12.9296 2.83299
      vertex 1.05706 -12.9272 4.70938
    endloop
  endfacet
  facet normal 0.722456 -0.691416 0.000900938
    outer loop
      vertex 1.05706 -12.9272 4.70938
      vertex 1.05706 -12.9296 2.83299
      vertex 2.30483 -11.6245 3.91213
    endloop
  endfacet
  facet normal 0.804531 -0.48035 -0.349276
    outer loop
      vertex 1.05706 -12.9296 2.83299
      vertex 0.989581 -11.7618 1.07148
      vertex 2.30483 -11.6245 3.91213
    endloop
  endfacet
  facet normal 0.827535 -0.166837 -0.536052
    outer loop
      vertex 1.73534 -8.79699 1.3
      vertex 0.989581 -11.7618 1.07148
      vertex 1.73636 -7.64077 0.941714
    endloop
  endfacet
  facet normal 0.899148 -0.156384 -0.408751
    outer loop
      vertex 2.30483 -11.6245 3.91213
      vertex 0.989581 -11.7618 1.07148
      vertex 1.30843 -10.5259 1.3
    endloop
  endfacet
  facet normal 0.969211 -0.239327 -0.0579054
    outer loop
      vertex 1.30843 -10.5259 1.3
      vertex 0.989581 -11.7618 1.07148
      vertex 1.73534 -8.79699 1.3
    endloop
  endfacet
  facet normal 0.998774 -0.0154517 -0.0470319
    outer loop
      vertex 1.81628 -8.73936 3
      vertex 1.73534 -8.79699 1.3
      vertex 1.73636 -7.64077 0.941714
    endloop
  endfacet
  facet normal 0.996623 -0.0498053 -0.0652844
    outer loop
      vertex 1.81628 -8.73936 3
      vertex 1.73636 -7.64077 0.941714
      vertex 1.9293 -7.5034 3.78236
    endloop
  endfacet
  facet normal 0 0 1
    outer loop
      vertex -2.37258 -8.78778 3
      vertex -2.37258 -10.6882 3
      vertex -2.00023 -10.3686 3
    endloop
  endfacet
  facet normal 0 0 1
    outer loop
      vertex -1.38937 -10.4682 3
      vertex -2.37258 -8.78778 3
      vertex -2.00023 -10.3686 3
    endloop
  endfacet
  facet normal 0 0 1
    outer loop
      vertex -1.38937 -10.4682 3
      vertex -2.00023 -9.10168 3
      vertex -2.37258 -8.78778 3
    endloop
  endfacet
  facet normal 0 0 1
    outer loop
      vertex -1.38937 -10.4682 3
      vertex -1.81628 -8.73936 3
      vertex -2.00023 -9.10168 3
    endloop
  endfacet
  facet normal -0.887162 0.450402 0.100405
    outer loop
      vertex -1.81628 -8.73936 3
      vertex -2.18689 -9.09038 1.3
      vertex -2.00023 -9.10168 3
    endloop
  endfacet
  facet normal -0.544029 0.837308 -0.0542872
    outer loop
      vertex -1.73534 -8.79699 1.3
      vertex -2.18689 -9.09038 1.3
      vertex -1.81628 -8.73936 3
    endloop
  endfacet
  facet normal 0 0 -1
    outer loop
      vertex -2.37258 -10.6712 1.3
      vertex -2.37258 -8.77082 1.3
      vertex -2.00023 -10.3573 1.3
    endloop
  endfacet
  facet normal 0 0 -1
    outer loop
      vertex -2.00023 -10.3573 1.3
      vertex -2.37258 -8.77082 1.3
      vertex -2.18689 -9.09038 1.3
    endloop
  endfacet
  facet normal 0 0 -1
    outer loop
      vertex -2.00023 -10.3573 1.3
      vertex -2.18689 -9.09038 1.3
      vertex -1.73534 -8.79699 1.3
    endloop
  endfacet
  facet normal 0 0 -1
    outer loop
      vertex -2.00023 -10.3573 1.3
      vertex -1.73534 -8.79699 1.3
      vertex -1.30843 -10.5259 1.3
    endloop
  endfacet
  facet normal -0.998861 0 -0.0477194
    outer loop
      vertex 3.3163 2.22823 0.148233
      vertex 3.22784 -3.28728 2
      vertex 3.22784 -0.024449 2
    endloop
  endfacet
  facet normal -0.971328 -0.237698 -0.00461277
    outer loop
      vertex 3.68004 -5.11019 0.713894
      vertex 3.22784 -3.31639 3.5
      vertex 3.22784 -3.28728 2
    endloop
  endfacet
  facet normal -0.967139 -0.0668456 -0.245304
    outer loop
      vertex 3.68004 -5.11019 0.713894
      vertex 3.22784 -3.28728 2
      vertex 3.3163 2.22823 0.148233
    endloop
  endfacet
  facet normal -0.976608 0.158131 0.14571
    outer loop
      vertex 3.3163 2.22823 0.148233
      vertex 3.22784 -0.024449 2
      vertex 3.65081 2.16276 2.46132
    endloop
  endfacet
  facet normal -0.981947 0.189122 0.0036701
    outer loop
      vertex 3.22784 -0.024449 2
      vertex 3.22784 -0.053558 3.5
      vertex 3.65081 2.16276 2.46132
    endloop
  endfacet
  facet normal -0.364684 0 0.931131
    outer loop
      vertex 3.22784 -0.053558 3.5
      vertex 3.22784 -3.31639 3.5
      vertex 3.54523 -1.50098 3.62431
    endloop
  endfacet
  facet normal 0.667411 0.207767 0.715119
    outer loop
      vertex 3.65081 2.16276 2.46132
      vertex 3.22784 -0.053558 3.5
      vertex 3.54523 -1.50098 3.62431
    endloop
  endfacet
  facet normal -0.628016 0.0566525 0.776136
    outer loop
      vertex 3.54523 -1.50098 3.62431
      vertex 3.22784 -3.31639 3.5
      vertex 3.65081 -4.90054 3.95789
    endloop
  endfacet
  facet normal -0.966685 -0.255849 0.00782668
    outer loop
      vertex 3.65081 -4.90054 3.95789
      vertex 3.22784 -3.31639 3.5
      vertex 3.68004 -5.11019 0.713894
    endloop
  endfacet
  facet normal 0 0.872693 0.488269
    outer loop
      vertex -2.88865 8.59898 3.79203
      vertex -1.46977 8.08723 4.70669
      vertex 2.88865 8.59898 3.79203
    endloop
  endfacet
  facet normal 0 0.872693 0.488269
    outer loop
      vertex 2.88865 8.59898 3.79203
      vertex -1.46977 8.08723 4.70669
      vertex 1.46977 8.08723 4.70669
    endloop
  endfacet
  facet normal 0 1 0
    outer loop
      vertex -2.88865 8.59898 1
      vertex -2.88865 8.59898 3.79203
      vertex 2.88865 8.59898 1
    endloop
  endfacet
  facet normal 0 1 0
    outer loop
      vertex 2.88865 8.59898 1
      vertex -2.88865 8.59898 3.79203
      vertex 2.88865 8.59898 3.79203
    endloop
  endfacet
  facet normal 0.880207 0.47459 0
    outer loop
      vertex 3.1456 8.12243 1.3
      vertex 2.88865 8.59898 1
      vertex 2.88865 8.59898 3.79203
    endloop
  endfacet
  facet normal 0.880207 0.47459 0
    outer loop
      vertex 3.1456 8.12243 1.8
      vertex 3.1456 8.12243 1.3
      vertex 2.88865 8.59898 3.79203
    endloop
  endfacet
  facet normal 0.991784 0 0.127927
    outer loop
      vertex 3.1456 8.12243 1.8
      vertex 2.88865 8.59898 3.79203
      vertex 3.1456 5.8534 1.8
    endloop
  endfacet
  facet normal 1 0 0
    outer loop
      vertex 3.1456 5.8534 1.8
      vertex 3.1456 5.8534 1.3
      vertex 3.1456 8.12243 1.3
    endloop
  endfacet
  facet normal 1 0 0
    outer loop
      vertex 3.1456 8.12243 1.8
      vertex 3.1456 5.8534 1.8
      vertex 3.1456 8.12243 1.3
    endloop
  endfacet
  facet normal 0 0.798061 -0.602577
    outer loop
      vertex 0 7.84393 0
      vertex -2.88865 8.59898 1
      vertex 2.88865 8.59898 1
    endloop
  endfacet
  facet normal -0.116875 0.925222 -0.360978
    outer loop
      vertex 2.48709 8.1581 0
      vertex 0 7.84393 0
      vertex 2.88865 8.59898 1
    endloop
  endfacet
  facet normal 0.116875 0.925222 -0.360978
    outer loop
      vertex -2.48709 8.1581 0
      vertex -2.88865 8.59898 1
      vertex 0 7.84393 0
    endloop
  endfacet
  facet normal -0.880207 0.47459 0
    outer loop
      vertex -3.1456 8.12243 1.3
      vertex -3.1456 8.12243 1.8
      vertex -2.88865 8.59898 1
    endloop
  endfacet
  facet normal -0.880207 0.47459 0
    outer loop
      vertex -2.88865 8.59898 1
      vertex -3.1456 8.12243 1.8
      vertex -2.88865 8.59898 3.79203
    endloop
  endfacet
  facet normal -1 0 0
    outer loop
      vertex -3.1456 5.8534 1.3
      vertex -3.1456 5.8534 1.8
      vertex -3.1456 8.12243 1.3
    endloop
  endfacet
  facet normal -1 0 0
    outer loop
      vertex -3.1456 8.12243 1.3
      vertex -3.1456 5.8534 1.8
      vertex -3.1456 8.12243 1.8
    endloop
  endfacet
  facet normal -0.991784 0 0.127927
    outer loop
      vertex -3.1456 8.12243 1.8
      vertex -3.1456 5.8534 1.8
      vertex -2.88865 8.59898 3.79203
    endloop
  endfacet
  facet normal 0.944357 -0.23319 0.231976
    outer loop
      vertex 1.9293 -7.5034 3.78236
      vertex 1.38937 -10.4682 3
      vertex 1.81628 -8.73936 3
    endloop
  endfacet
  facet normal 0.733318 0.0454617 -0.678364
    outer loop
      vertex 2.30483 -11.6245 3.91213
      vertex 1.38937 -10.4682 3
      vertex 1.9293 -7.5034 3.78236
    endloop
  endfacet
  facet normal 0.976856 0.0828047 -0.197218
    outer loop
      vertex 2.30483 -11.6245 3.91213
      vertex 1.9293 -7.5034 3.78236
      vertex 2.32185 -7.5187 5.72029
    endloop
  endfacet
  facet normal 0.662759 -0.304112 0.684301
    outer loop
      vertex 2.32185 -7.5187 5.72029
      vertex 1.58131 -11.4563 4.68761
      vertex 2.30483 -11.6245 3.91213
    endloop
  endfacet
  facet normal 0.572523 -0.307052 0.760222
    outer loop
      vertex 2.32185 -7.5187 5.72029
      vertex 1.18156 -9.13062 5.92799
      vertex 1.58131 -11.4563 4.68761
    endloop
  endfacet
  facet normal 0.699123 -0.2392 0.673803
    outer loop
      vertex 1.18156 -9.13062 5.92799
      vertex 1.05706 -12.9272 4.70938
      vertex 1.58131 -11.4563 4.68761
    endloop
  endfacet
  facet normal 0.685064 -0.233951 0.689894
    outer loop
      vertex 1.58131 -11.4563 4.68761
      vertex 1.05706 -12.9272 4.70938
      vertex 2.30483 -11.6245 3.91213
    endloop
  endfacet
  facet normal 0.530246 0.84739 -0.0277339
    outer loop
      vertex 1.90203 -13.5376 2.21456
      vertex 1.05706 -12.9272 4.70938
      vertex 2.01614 -13.5105 5.22326
    endloop
  endfacet
  facet normal 0.21311 0.819308 0.532277
    outer loop
      vertex 2.01614 -13.5105 5.22326
      vertex 1.05706 -12.9272 4.70938
      vertex 1.64536 -13.8128 5.83705
    endloop
  endfacet
  facet normal 0.258476 0.820636 0.509653
    outer loop
      vertex 1.05706 -12.9272 4.70938
      vertex 0 -13.4452 6.07949
      vertex 1.64536 -13.8128 5.83705
    endloop
  endfacet
  facet normal 0 0.93539 0.353617
    outer loop
      vertex 1.05706 -12.9272 4.70938
      vertex -1.05706 -12.9272 4.70938
      vertex 0 -13.4452 6.07949
    endloop
  endfacet
  facet normal -0.258476 0.820636 0.509653
    outer loop
      vertex -1.05706 -12.9272 4.70938
      vertex -1.64536 -13.8128 5.83705
      vertex 0 -13.4452 6.07949
    endloop
  endfacet
  facet normal -0.21311 0.819308 0.532277
    outer loop
      vertex -1.05706 -12.9272 4.70938
      vertex -2.01614 -13.5105 5.22326
      vertex -1.64536 -13.8128 5.83705
    endloop
  endfacet
  facet normal -0.530246 0.84739 -0.0277339
    outer loop
      vertex -1.90203 -13.5376 2.21456
      vertex -2.01614 -13.5105 5.22326
      vertex -1.05706 -12.9272 4.70938
    endloop
  endfacet
  facet normal -0.685064 -0.233951 0.689894
    outer loop
      vertex -1.58131 -11.4563 4.68761
      vertex -2.30483 -11.6245 3.91213
      vertex -1.05706 -12.9272 4.70938
    endloop
  endfacet
  facet normal -0.699123 -0.2392 0.673803
    outer loop
      vertex -1.18156 -9.13062 5.92799
      vertex -1.58131 -11.4563 4.68761
      vertex -1.05706 -12.9272 4.70938
    endloop
  endfacet
  facet normal -0.804562 0.590995 -0.0583425
    outer loop
      vertex -1.30843 -10.5259 1.3
      vertex -2.30483 -11.6245 3.91213
      vertex -1.38937 -10.4682 3
    endloop
  endfacet
  facet normal -0.160928 -0.986629 0.0257838
    outer loop
      vertex -1.38937 -10.4682 3
      vertex -2.00023 -10.3686 3
      vertex -1.30843 -10.5259 1.3
    endloop
  endfacet
  facet normal -0.236735 -0.971553 -0.00645968
    outer loop
      vertex -1.30843 -10.5259 1.3
      vertex -2.00023 -10.3686 3
      vertex -2.00023 -10.3573 1.3
    endloop
  endfacet
  facet normal -0.961837 0.270841 -0.0389135
    outer loop
      vertex -1.90203 -13.5376 2.21456
      vertex -2.10596 -14.2136 2.54974
      vertex -2.01614 -13.5105 5.22326
    endloop
  endfacet
  facet normal -0.959069 0.181558 -0.217307
    outer loop
      vertex -1.85595 -14.2362 1.42744
      vertex -2.10596 -14.2136 2.54974
      vertex -1.90203 -13.5376 2.21456
    endloop
  endfacet
  facet normal -0.884347 0.322226 -0.337788
    outer loop
      vertex -1.85595 -14.2362 1.42744
      vertex -1.90203 -13.5376 2.21456
      vertex -1.67099 -13.5557 1.59239
    endloop
  endfacet
  facet normal -0.0170586 -0.999721 0.0163331
    outer loop
      vertex 0 -14.2621 1.78327
      vertex -2.10596 -14.2136 2.54974
      vertex -1.85595 -14.2362 1.42744
    endloop
  endfacet
  facet normal -0.0197298 -0.999765 0.00899637
    outer loop
      vertex 0 -14.2515 2.96247
      vertex -2.10596 -14.2136 2.54974
      vertex 0 -14.2621 1.78327
    endloop
  endfacet
  facet normal 0.0197298 -0.999765 0.00899637
    outer loop
      vertex 0 -14.2515 2.96247
      vertex 0 -14.2621 1.78327
      vertex 2.10596 -14.2136 2.54974
    endloop
  endfacet
  facet normal 0.0170586 -0.999721 0.0163331
    outer loop
      vertex 2.10596 -14.2136 2.54974
      vertex 0 -14.2621 1.78327
      vertex 1.85595 -14.2362 1.42744
    endloop
  endfacet
  facet normal 0.959069 0.181558 -0.217307
    outer loop
      vertex 2.10596 -14.2136 2.54974
      vertex 1.85595 -14.2362 1.42744
      vertex 1.90203 -13.5376 2.21456
    endloop
  endfacet
  facet normal 0.884347 0.322226 -0.337788
    outer loop
      vertex 1.85595 -14.2362 1.42744
      vertex 1.67099 -13.5557 1.59239
      vertex 1.90203 -13.5376 2.21456
    endloop
  endfacet
  facet normal 0.961837 0.270841 -0.0389135
    outer loop
      vertex 2.10596 -14.2136 2.54974
      vertex 1.90203 -13.5376 2.21456
      vertex 2.01614 -13.5105 5.22326
    endloop
  endfacet
  facet normal 0.804562 0.590995 -0.0583425
    outer loop
      vertex 2.30483 -11.6245 3.91213
      vertex 1.30843 -10.5259 1.3
      vertex 1.38937 -10.4682 3
    endloop
  endfacet
  facet normal 0 0 -1
    outer loop
      vertex 1.30843 -10.5259 1.3
      vertex 1.73534 -8.79699 1.3
      vertex 2.00023 -10.3573 1.3
    endloop
  endfacet
  facet normal 0 0 -1
    outer loop
      vertex 2.00023 -10.3573 1.3
      vertex 1.73534 -8.79699 1.3
      vertex 2.18689 -9.09038 1.3
    endloop
  endfacet
  facet normal 0 0 -1
    outer loop
      vertex 2.00023 -10.3573 1.3
      vertex 2.18689 -9.09038 1.3
      vertex 2.37258 -8.77082 1.3
    endloop
  endfacet
  facet normal 0 0 -1
    outer loop
      vertex 2.00023 -10.3573 1.3
      vertex 2.37258 -8.77082 1.3
      vertex 2.37258 -10.6712 1.3
    endloop
  endfacet
  facet normal 0.544029 0.837308 -0.0542872
    outer loop
      vertex 2.18689 -9.09038 1.3
      vertex 1.73534 -8.79699 1.3
      vertex 1.81628 -8.73936 3
    endloop
  endfacet
  facet normal 0.160928 -0.986629 0.0257838
    outer loop
      vertex 1.38937 -10.4682 3
      vertex 1.30843 -10.5259 1.3
      vertex 2.00023 -10.3686 3
    endloop
  endfacet
  facet normal 0.236735 -0.971553 -0.00645968
    outer loop
      vertex 2.00023 -10.3686 3
      vertex 1.30843 -10.5259 1.3
      vertex 2.00023 -10.3573 1.3
    endloop
  endfacet
  facet normal 0 0 1
    outer loop
      vertex 1.81628 -8.73936 3
      vertex 1.38937 -10.4682 3
      vertex 2.00023 -10.3686 3
    endloop
  endfacet
  facet normal 0 0 1
    outer loop
      vertex 2.37258 -10.6882 3
      vertex 1.81628 -8.73936 3
      vertex 2.00023 -10.3686 3
    endloop
  endfacet
  facet normal 0 0 1
    outer loop
      vertex 2.37258 -10.6882 3
      vertex 2.00023 -9.10168 3
      vertex 1.81628 -8.73936 3
    endloop
  endfacet
  facet normal 0 0 1
    outer loop
      vertex 2.37258 -10.6882 3
      vertex 2.37258 -8.78778 3
      vertex 2.00023 -9.10168 3
    endloop
  endfacet
  facet normal 0.887162 0.450402 0.100405
    outer loop
      vertex 2.18689 -9.09038 1.3
      vertex 1.81628 -8.73936 3
      vertex 2.00023 -9.10168 3
    endloop
  endfacet
  facet normal 0.545513 0.206069 0.812373
    outer loop
      vertex -2.90183 -8.10229 3.18151
      vertex -2.90183 -11.2629 3.98323
      vertex -2.37258 -8.78778 3
    endloop
  endfacet
  facet normal 0.7923 0.610102 0.00608451
    outer loop
      vertex -2.37258 -8.77082 1.3
      vertex -2.90183 -8.10229 3.18151
      vertex -2.37258 -8.78778 3
    endloop
  endfacet
  facet normal 0.86461 0.502418 0.00501059
    outer loop
      vertex -2.37258 -8.77082 1.3
      vertex -2.37258 -8.78778 3
      vertex -2.18689 -9.09038 1.3
    endloop
  endfacet
  facet normal 0.643163 0.762919 -0.0655472
    outer loop
      vertex -2.18689 -9.09038 1.3
      vertex -2.37258 -8.78778 3
      vertex -2.00023 -9.10168 3
    endloop
  endfacet
  facet normal 0.880541 0 0.47397
    outer loop
      vertex -2.37258 -8.78778 3
      vertex -2.90183 -11.2629 3.98323
      vertex -2.37258 -10.6882 3
    endloop
  endfacet
  facet normal 0.644542 -0.764552 -0.00508337
    outer loop
      vertex -2.00023 -10.3686 3
      vertex -2.37258 -10.6712 1.3
      vertex -2.00023 -10.3573 1.3
    endloop
  endfacet
  facet normal 0.651237 -0.758837 -0.00756694
    outer loop
      vertex -2.00023 -10.3686 3
      vertex -2.37258 -10.6882 3
      vertex -2.37258 -10.6712 1.3
    endloop
  endfacet
  facet normal 0.789523 -0.609888 0.0684816
    outer loop
      vertex -2.37258 -10.6882 3
      vertex -2.90183 -11.2629 3.98323
      vertex -2.65431 -11.3567 0.294168
    endloop
  endfacet
  facet normal 0.926842 -0.375432 -0.00374372
    outer loop
      vertex -2.37258 -10.6882 3
      vertex -2.65431 -11.3567 0.294168
      vertex -2.37258 -10.6712 1.3
    endloop
  endfacet
  facet normal 0.977313 0 -0.2118
    outer loop
      vertex -2.37258 -10.6712 1.3
      vertex -2.65431 -8.07299 0
      vertex -2.37258 -8.77082 1.3
    endloop
  endfacet
  facet normal 0.870883 0.486154 0.0722298
    outer loop
      vertex -2.65431 -8.07299 0
      vertex -2.90183 -8.10229 3.18151
      vertex -2.37258 -8.77082 1.3
    endloop
  endfacet
  facet normal 0.966626 -0.0228593 -0.255171
    outer loop
      vertex -2.37258 -10.6712 1.3
      vertex -2.65431 -11.3567 0.294168
      vertex -2.65431 -8.07299 0
    endloop
  endfacet
  facet normal -0.111226 -0.0818566 -0.990418
    outer loop
      vertex 3.68004 -5.11019 0.713894
      vertex 3.3163 2.22823 0.148233
      vertex 4.28328 2.70785 0
    endloop
  endfacet
  facet normal -0.442922 0.896489 0.0113108
    outer loop
      vertex 4.28328 2.70785 0
      vertex 3.3163 2.22823 0.148233
      vertex 4.28328 2.67834 2.33902
    endloop
  endfacet
  facet normal -0.614951 0.78071 0.111029
    outer loop
      vertex 4.28328 2.67834 2.33902
      vertex 3.3163 2.22823 0.148233
      vertex 3.65081 2.16276 2.46132
    endloop
  endfacet
  facet normal -0.715185 -0.697865 0.0386582
    outer loop
      vertex 4.37499 -5.68298 3.2306
      vertex 3.65081 -4.90054 3.95789
      vertex 3.68004 -5.11019 0.713894
    endloop
  endfacet
  facet normal -0.612141 -0.790674 -0.0109188
    outer loop
      vertex 4.37499 -5.68298 3.2306
      vertex 3.68004 -5.11019 0.713894
      vertex 4.37499 -5.64789 0.689898
    endloop
  endfacet
  facet normal -0.609787 -0.790605 0.0557035
    outer loop
      vertex 4.37499 -5.64789 0.689898
      vertex 3.68004 -5.11019 0.713894
      vertex 4.28328 -5.62576 0
    endloop
  endfacet
  facet normal -0.763821 0 -0.645428
    outer loop
      vertex 4.28328 -5.62576 0
      vertex 3.68004 -5.11019 0.713894
      vertex 4.28328 2.70785 0
    endloop
  endfacet
  facet normal 0.0354746 0.301435 0.952827
    outer loop
      vertex 3.65081 2.16276 2.46132
      vertex 3.54523 -1.50098 3.62431
      vertex 4.69631 -1.3972 3.54862
    endloop
  endfacet
  facet normal -0.0430205 0.280255 0.958961
    outer loop
      vertex 4.28328 2.67834 2.33902
      vertex 3.65081 2.16276 2.46132
      vertex 4.69631 -1.3972 3.54862
    endloop
  endfacet
  facet normal 0.0563783 0.0992344 0.993466
    outer loop
      vertex 4.69631 -1.3972 3.54862
      vertex 3.54523 -1.50098 3.62431
      vertex 3.65081 -4.90054 3.95789
    endloop
  endfacet
  facet normal 0.0732009 0.0941438 0.992864
    outer loop
      vertex 4.69631 -1.3972 3.54862
      vertex 3.65081 -4.90054 3.95789
      vertex 4.28328 -5.39231 3.95789
    endloop
  endfacet
  facet normal -0.597132 -0.767972 0.23163
    outer loop
      vertex 4.28328 -5.39231 3.95789
      vertex 3.65081 -4.90054 3.95789
      vertex 4.37499 -5.68298 3.2306
    endloop
  endfacet
  facet normal 0.961837 0.270841 -0.0389136
    outer loop
      vertex 2.10596 -14.2136 2.54974
      vertex 2.01614 -13.5105 5.22326
      vertex 2.2011 -14.1911 5.0583
    endloop
  endfacet
  facet normal 0.831277 0.0930959 0.548008
    outer loop
      vertex 2.01614 -13.5105 5.22326
      vertex 1.64536 -13.8128 5.83705
      vertex 2.2011 -14.1911 5.0583
    endloop
  endfacet
  facet normal 0.831277 0.0930964 0.548007
    outer loop
      vertex 2.2011 -14.1911 5.0583
      vertex 1.64536 -13.8128 5.83705
      vertex 1.83032 -14.4934 5.67209
    endloop
  endfacet
  facet normal 0.0965343 -0.209608 0.973009
    outer loop
      vertex 1.64536 -13.8128 5.83705
      vertex 0 -13.4452 6.07949
      vertex 1.83032 -14.4934 5.67209
    endloop
  endfacet
  facet normal 0.155771 -0.109552 0.981699
    outer loop
      vertex 0 -13.4452 6.07949
      vertex 0 -14.5052 5.9612
      vertex 1.83032 -14.4934 5.67209
    endloop
  endfacet
  facet normal -0.155771 -0.109552 0.981699
    outer loop
      vertex 0 -13.4452 6.07949
      vertex -1.83032 -14.4934 5.67209
      vertex 0 -14.5052 5.9612
    endloop
  endfacet
  facet normal -0.0965343 -0.209608 0.973009
    outer loop
      vertex -1.64536 -13.8128 5.83705
      vertex -1.83032 -14.4934 5.67209
      vertex 0 -13.4452 6.07949
    endloop
  endfacet
  facet normal -0.831277 0.0930964 0.548007
    outer loop
      vertex -1.64536 -13.8128 5.83705
      vertex -2.2011 -14.1911 5.0583
      vertex -1.83032 -14.4934 5.67209
    endloop
  endfacet
  facet normal -0.831277 0.0930959 0.548008
    outer loop
      vertex -2.01614 -13.5105 5.22326
      vertex -2.2011 -14.1911 5.0583
      vertex -1.64536 -13.8128 5.83705
    endloop
  endfacet
  facet normal -0.961837 0.270841 -0.0389136
    outer loop
      vertex -2.10596 -14.2136 2.54974
      vertex -2.2011 -14.1911 5.0583
      vertex -2.01614 -13.5105 5.22326
    endloop
  endfacet
  facet normal -0.0195841 -0.999774 0.00825206
    outer loop
      vertex 0 -14.2515 2.96247
      vertex -2.2011 -14.1911 5.0583
      vertex -2.10596 -14.2136 2.54974
    endloop
  endfacet
  facet normal -0.0188766 -0.999781 0.00899524
    outer loop
      vertex 0 -14.2289 5.47103
      vertex -2.2011 -14.1911 5.0583
      vertex 0 -14.2515 2.96247
    endloop
  endfacet
  facet normal 0.0188766 -0.999781 0.00899524
    outer loop
      vertex 0 -14.2289 5.47103
      vertex 0 -14.2515 2.96247
      vertex 2.2011 -14.1911 5.0583
    endloop
  endfacet
  facet normal 0.0195841 -0.999774 0.00825206
    outer loop
      vertex 2.2011 -14.1911 5.0583
      vertex 0 -14.2515 2.96247
      vertex 2.10596 -14.2136 2.54974
    endloop
  endfacet
  facet normal -0.644542 -0.764552 -0.00508337
    outer loop
      vertex 2.37258 -10.6712 1.3
      vertex 2.00023 -10.3686 3
      vertex 2.00023 -10.3573 1.3
    endloop
  endfacet
  facet normal -0.926842 -0.375432 -0.00374372
    outer loop
      vertex 2.65431 -11.3567 0.294168
      vertex 2.37258 -10.6882 3
      vertex 2.37258 -10.6712 1.3
    endloop
  endfacet
  facet normal -0.966626 -0.0228593 -0.255171
    outer loop
      vertex 2.65431 -11.3567 0.294168
      vertex 2.37258 -10.6712 1.3
      vertex 2.65431 -8.07299 0
    endloop
  endfacet
  facet normal -0.977313 0 -0.2118
    outer loop
      vertex 2.65431 -8.07299 0
      vertex 2.37258 -10.6712 1.3
      vertex 2.37258 -8.77082 1.3
    endloop
  endfacet
  facet normal -0.651237 -0.758837 -0.00756694
    outer loop
      vertex 2.37258 -10.6882 3
      vertex 2.00023 -10.3686 3
      vertex 2.37258 -10.6712 1.3
    endloop
  endfacet
  facet normal -0.870883 0.486154 0.0722298
    outer loop
      vertex 2.65431 -8.07299 0
      vertex 2.37258 -8.77082 1.3
      vertex 2.90183 -8.10229 3.18151
    endloop
  endfacet
  facet normal -0.7923 0.610102 0.00608451
    outer loop
      vertex 2.37258 -8.77082 1.3
      vertex 2.37258 -8.78778 3
      vertex 2.90183 -8.10229 3.18151
    endloop
  endfacet
  facet normal -0.86461 0.502418 0.00501059
    outer loop
      vertex 2.37258 -8.77082 1.3
      vertex 2.18689 -9.09038 1.3
      vertex 2.37258 -8.78778 3
    endloop
  endfacet
  facet normal -0.643163 0.762919 -0.0655472
    outer loop
      vertex 2.18689 -9.09038 1.3
      vertex 2.00023 -9.10168 3
      vertex 2.37258 -8.78778 3
    endloop
  endfacet
  facet normal -0.545513 0.206069 0.812373
    outer loop
      vertex 2.90183 -8.10229 3.18151
      vertex 2.37258 -8.78778 3
      vertex 2.90183 -11.2629 3.98323
    endloop
  endfacet
  facet normal -0.880541 0 0.47397
    outer loop
      vertex 2.37258 -8.78778 3
      vertex 2.37258 -10.6882 3
      vertex 2.90183 -11.2629 3.98323
    endloop
  endfacet
  facet normal -0.789523 -0.609888 0.0684816
    outer loop
      vertex 2.90183 -11.2629 3.98323
      vertex 2.37258 -10.6882 3
      vertex 2.65431 -11.3567 0.294168
    endloop
  endfacet
  facet normal -0.114849 0.244249 0.962887
    outer loop
      vertex -2.90183 -8.10229 3.18151
      vertex -3.3698 -11.4829 3.98323
      vertex -2.90183 -11.2629 3.98323
    endloop
  endfacet
  facet normal -0.397299 0.263467 0.879055
    outer loop
      vertex -3.3698 -7.87159 2.90086
      vertex -3.3698 -11.4829 3.98323
      vertex -2.90183 -8.10229 3.18151
    endloop
  endfacet
  facet normal 0.421826 0.905742 0.0411576
    outer loop
      vertex -2.65431 -8.07299 0
      vertex -3.3698 -7.87159 2.90086
      vertex -2.90183 -8.10229 3.18151
    endloop
  endfacet
  facet normal 0.424954 -0.903749 0.0514937
    outer loop
      vertex -2.90183 -11.2629 3.98323
      vertex -3.3698 -11.4829 3.98323
      vertex -2.65431 -11.3567 0.294168
    endloop
  endfacet
  facet normal -0.026754 -0.0891951 -0.995655
    outer loop
      vertex -2.65431 -11.3567 0.294168
      vertex -3.3698 -7.85838 0
      vertex -2.65431 -8.07299 0
    endloop
  endfacet
  facet normal 0.380256 0 -0.924881
    outer loop
      vertex -2.65431 -11.3567 0.294168
      vertex -3.3698 -11.5874 0
      vertex -3.3698 -7.85838 0
    endloop
  endfacet
  facet normal 0.29546 -0.954877 0.0302309
    outer loop
      vertex -2.65431 -11.3567 0.294168
      vertex -3.43766 -11.5973 0.350437
      vertex -3.3698 -11.5874 0
    endloop
  endfacet
  facet normal 0.292223 -0.956137 -0.0202185
    outer loop
      vertex -2.65431 -11.3567 0.294168
      vertex -3.43766 -11.613 1.09289
      vertex -3.43766 -11.5973 0.350437
    endloop
  endfacet
  facet normal 0.342135 -0.939027 0.0342239
    outer loop
      vertex -3.3698 -11.4829 3.98323
      vertex -3.43766 -11.613 1.09289
      vertex -2.65431 -11.3567 0.294168
    endloop
  endfacet
  facet normal 0.2873 0.957831 0.00436047
    outer loop
      vertex -3.3698 -7.85838 0
      vertex -3.3698 -7.87159 2.90086
      vertex -2.65431 -8.07299 0
    endloop
  endfacet
  facet normal 0 0 -1
    outer loop
      vertex 4.28328 -5.62576 0
      vertex 4.28328 2.70785 0
      vertex 5.04115 -5.62576 0
    endloop
  endfacet
  facet normal 0 0 -1
    outer loop
      vertex 5.04115 -5.62576 0
      vertex 4.28328 2.70785 0
      vertex 5.04115 2.70785 0
    endloop
  endfacet
  facet normal 0 0.999905 0.0137782
    outer loop
      vertex 5.04115 2.70785 0
      vertex 4.28328 2.70785 0
      vertex 5.04115 2.67834 2.14166
    endloop
  endfacet
  facet normal 0.00328533 0.999915 0.0126158
    outer loop
      vertex 4.28328 2.70785 0
      vertex 4.28328 2.67834 2.33902
      vertex 5.04115 2.67834 2.14166
    endloop
  endfacet
  facet normal 0.240521 0.298498 0.923606
    outer loop
      vertex 5.04115 2.67834 2.14166
      vertex 4.28328 2.67834 2.33902
      vertex 4.69631 -1.3972 3.54862
    endloop
  endfacet
  facet normal 0 -0.928584 0.371123
    outer loop
      vertex 5.04115 -5.39231 3.95789
      vertex 4.28328 -5.39231 3.95789
      vertex 4.37499 -5.68298 3.2306
    endloop
  endfacet
  facet normal 0 -0.928584 0.371123
    outer loop
      vertex 5.43552 -5.68298 3.2306
      vertex 5.04115 -5.39231 3.95789
      vertex 4.37499 -5.68298 3.2306
    endloop
  endfacet
  facet normal 0 -0.999905 -0.0138082
    outer loop
      vertex 5.43552 -5.68298 3.2306
      vertex 4.37499 -5.68298 3.2306
      vertex 4.37499 -5.64789 0.689898
    endloop
  endfacet
  facet normal 0 -0.999905 -0.0138082
    outer loop
      vertex 4.94944 -5.64789 0.689898
      vertex 5.43552 -5.68298 3.2306
      vertex 4.37499 -5.64789 0.689898
    endloop
  endfacet
  facet normal 0 -0.999486 -0.0320622
    outer loop
      vertex 4.37499 -5.64789 0.689898
      vertex 4.28328 -5.62576 0
      vertex 5.04115 -5.62576 0
    endloop
  endfacet
  facet normal 0 -0.999486 -0.0320622
    outer loop
      vertex 4.94944 -5.64789 0.689898
      vertex 4.37499 -5.64789 0.689898
      vertex 5.04115 -5.62576 0
    endloop
  endfacet
  facet normal 0.696639 0.180737 0.694283
    outer loop
      vertex 5.04115 2.67834 2.14166
      vertex 4.69631 -1.3972 3.54862
      vertex 5.65035 0.498752 2.09778
    endloop
  endfacet
  facet normal 0.762912 0.10434 0.638027
    outer loop
      vertex 5.65035 0.498752 2.09778
      vertex 4.69631 -1.3972 3.54862
      vertex 5.96966 -3.5106 2.37165
    endloop
  endfacet
  facet normal 0.780719 0.130002 0.61121
    outer loop
      vertex 5.96966 -3.5106 2.37165
      vertex 4.69631 -1.3972 3.54862
      vertex 5.04115 -5.39231 3.95789
    endloop
  endfacet
  facet normal 0 0.101909 0.994794
    outer loop
      vertex 4.69631 -1.3972 3.54862
      vertex 4.28328 -5.39231 3.95789
      vertex 5.04115 -5.39231 3.95789
    endloop
  endfacet
  facet normal -0.0742616 -0.876102 -0.476372
    outer loop
      vertex 1.83032 -14.4934 5.67209
      vertex 0 -14.2289 5.47103
      vertex 2.2011 -14.1911 5.0583
    endloop
  endfacet
  facet normal -0.0717584 -0.868924 -0.489716
    outer loop
      vertex 1.83032 -14.4934 5.67209
      vertex 0 -14.5052 5.9612
      vertex 0 -14.2289 5.47103
    endloop
  endfacet
  facet normal 0.0717584 -0.868924 -0.489716
    outer loop
      vertex 0 -14.5052 5.9612
      vertex -1.83032 -14.4934 5.67209
      vertex 0 -14.2289 5.47103
    endloop
  endfacet
  facet normal 0.0742616 -0.876102 -0.476372
    outer loop
      vertex -1.83032 -14.4934 5.67209
      vertex -2.2011 -14.1911 5.0583
      vertex 0 -14.2289 5.47103
    endloop
  endfacet
  facet normal -0.424954 -0.903749 0.0514937
    outer loop
      vertex 2.90183 -11.2629 3.98323
      vertex 2.65431 -11.3567 0.294168
      vertex 3.3698 -11.4829 3.98323
    endloop
  endfacet
  facet normal -0.342135 -0.939027 0.0342239
    outer loop
      vertex 3.3698 -11.4829 3.98323
      vertex 2.65431 -11.3567 0.294168
      vertex 3.43766 -11.613 1.09289
    endloop
  endfacet
  facet normal -0.292223 -0.956137 -0.0202185
    outer loop
      vertex 3.43766 -11.613 1.09289
      vertex 2.65431 -11.3567 0.294168
      vertex 3.43766 -11.5973 0.350437
    endloop
  endfacet
  facet normal -0.29546 -0.954877 0.0302309
    outer loop
      vertex 3.43766 -11.5973 0.350437
      vertex 2.65431 -11.3567 0.294168
      vertex 3.3698 -11.5874 0
    endloop
  endfacet
  facet normal -0.380256 0 -0.924881
    outer loop
      vertex 3.3698 -11.5874 0
      vertex 2.65431 -11.3567 0.294168
      vertex 3.3698 -7.85838 0
    endloop
  endfacet
  facet normal 0.026754 -0.0891951 -0.995655
    outer loop
      vertex 3.3698 -7.85838 0
      vertex 2.65431 -11.3567 0.294168
      vertex 2.65431 -8.07299 0
    endloop
  endfacet
  facet normal -0.2873 0.957831 0.00436047
    outer loop
      vertex 3.3698 -7.85838 0
      vertex 2.65431 -8.07299 0
      vertex 3.3698 -7.87159 2.90086
    endloop
  endfacet
  facet normal -0.421826 0.905742 0.0411576
    outer loop
      vertex 3.3698 -7.87159 2.90086
      vertex 2.65431 -8.07299 0
      vertex 2.90183 -8.10229 3.18151
    endloop
  endfacet
  facet normal 0.397299 0.263467 0.879055
    outer loop
      vertex 3.3698 -7.87159 2.90086
      vertex 2.90183 -8.10229 3.18151
      vertex 3.3698 -11.4829 3.98323
    endloop
  endfacet
  facet normal 0.114849 0.244249 0.962887
    outer loop
      vertex 2.90183 -8.10229 3.18151
      vertex 2.90183 -11.2629 3.98323
      vertex 3.3698 -11.4829 3.98323
    endloop
  endfacet
  facet normal 0 -0.998989 0.044955
    outer loop
      vertex -3.3698 -11.4829 3.98323
      vertex -3.93057 -11.4829 3.98323
      vertex -3.86271 -11.613 1.09289
    endloop
  endfacet
  facet normal 0 -0.998989 0.044955
    outer loop
      vertex -3.43766 -11.613 1.09289
      vertex -3.3698 -11.4829 3.98323
      vertex -3.86271 -11.613 1.09289
    endloop
  endfacet
  facet normal 0 0.287099 0.957901
    outer loop
      vertex -3.93057 -7.87159 2.90086
      vertex -3.93057 -11.4829 3.98323
      vertex -3.3698 -11.4829 3.98323
    endloop
  endfacet
  facet normal 0 0.287099 0.957901
    outer loop
      vertex -3.3698 -7.87159 2.90086
      vertex -3.93057 -7.87159 2.90086
      vertex -3.3698 -11.4829 3.98323
    endloop
  endfacet
  facet normal 0 0.99999 0.0045524
    outer loop
      vertex -3.93057 -7.87159 2.90086
      vertex -3.3698 -7.87159 2.90086
      vertex -3.93057 -7.85838 0
    endloop
  endfacet
  facet normal 0 0.99999 0.0045524
    outer loop
      vertex -3.93057 -7.85838 0
      vertex -3.3698 -7.87159 2.90086
      vertex -3.3698 -7.85838 0
    endloop
  endfacet
  facet normal 0 0 -1
    outer loop
      vertex -3.93057 -11.5874 0
      vertex -3.93057 -7.85838 0
      vertex -3.3698 -11.5874 0
    endloop
  endfacet
  facet normal 0 0 -1
    outer loop
      vertex -3.3698 -11.5874 0
      vertex -3.93057 -7.85838 0
      vertex -3.3698 -7.85838 0
    endloop
  endfacet
  facet normal 0 -0.999601 -0.0282477
    outer loop
      vertex -3.86271 -11.5973 0.350437
      vertex -3.93057 -11.5874 0
      vertex -3.3698 -11.5874 0
    endloop
  endfacet
  facet normal 0 -0.999601 -0.0282477
    outer loop
      vertex -3.43766 -11.5973 0.350437
      vertex -3.86271 -11.5973 0.350437
      vertex -3.3698 -11.5874 0
    endloop
  endfacet
  facet normal 0 -0.999776 -0.0211413
    outer loop
      vertex -3.43766 -11.613 1.09289
      vertex -3.86271 -11.613 1.09289
      vertex -3.86271 -11.5973 0.350437
    endloop
  endfacet
  facet normal 0 -0.999776 -0.0211413
    outer loop
      vertex -3.43766 -11.5973 0.350437
      vertex -3.43766 -11.613 1.09289
      vertex -3.86271 -11.5973 0.350437
    endloop
  endfacet
  facet normal 0.873629 -0.138983 -0.466322
    outer loop
      vertex 5.44367 -5.64789 0.7607
      vertex 5.04115 -5.62576 0
      vertex 5.96966 -3.44617 1.0899
    endloop
  endfacet
  facet normal 0.74705 0.0140972 -0.664618
    outer loop
      vertex 5.96966 -3.44617 1.0899
      vertex 5.04115 -5.62576 0
      vertex 5.65035 0.563178 0.816033
    endloop
  endfacet
  facet normal 0.801329 0 -0.598224
    outer loop
      vertex 5.65035 0.563178 0.816033
      vertex 5.04115 -5.62576 0
      vertex 5.04115 2.70785 0
    endloop
  endfacet
  facet normal 0.00450727 -0.999495 -0.0314633
    outer loop
      vertex 5.44367 -5.64789 0.7607
      vertex 4.94944 -5.64789 0.689898
      vertex 5.04115 -5.62576 0
    endloop
  endfacet
  facet normal 0.96044 0.278136 0.0139802
    outer loop
      vertex 5.65035 0.563178 0.816033
      vertex 5.04115 2.70785 0
      vertex 5.65035 0.498752 2.09778
    endloop
  endfacet
  facet normal 0.963101 0.269115 0.00370828
    outer loop
      vertex 5.04115 2.70785 0
      vertex 5.04115 2.67834 2.14166
      vertex 5.65035 0.498752 2.09778
    endloop
  endfacet
  facet normal 0.874815 -0.0237719 0.483873
    outer loop
      vertex 5.96966 -3.5106 2.37165
      vertex 5.04115 -5.39231 3.95789
      vertex 5.43552 -5.68298 3.2306
    endloop
  endfacet
  facet normal 0.97106 -0.238834 -0.000188892
    outer loop
      vertex 5.96966 -3.5106 2.37165
      vertex 5.43552 -5.68298 3.2306
      vertex 5.44367 -5.64789 0.7607
    endloop
  endfacet
  facet normal 0.00203383 -0.999897 -0.0141972
    outer loop
      vertex 5.43552 -5.68298 3.2306
      vertex 4.94944 -5.64789 0.689898
      vertex 5.44367 -5.64789 0.7607
    endloop
  endfacet
  facet normal 0.996814 0.0796595 0.00400401
    outer loop
      vertex 5.65035 0.563178 0.816033
      vertex 5.65035 0.498752 2.09778
      vertex 5.96966 -3.5106 2.37165
    endloop
  endfacet
  facet normal 0.996814 0.0796596 0.00400408
    outer loop
      vertex 5.96966 -3.44617 1.0899
      vertex 5.65035 0.563178 0.816033
      vertex 5.96966 -3.5106 2.37165
    endloop
  endfacet
  facet normal 0.972955 -0.230702 -0.0115962
    outer loop
      vertex 5.96966 -3.5106 2.37165
      vertex 5.44367 -5.64789 0.7607
      vertex 5.96966 -3.44617 1.0899
    endloop
  endfacet
  facet normal 0 0.287099 0.957901
    outer loop
      vertex 3.3698 -7.87159 2.90086
      vertex 3.3698 -11.4829 3.98323
      vertex 3.93057 -11.4829 3.98323
    endloop
  endfacet
  facet normal 0 0.287099 0.957901
    outer loop
      vertex 3.93057 -7.87159 2.90086
      vertex 3.3698 -7.87159 2.90086
      vertex 3.93057 -11.4829 3.98323
    endloop
  endfacet
  facet normal 0 -0.998989 0.044955
    outer loop
      vertex 3.93057 -11.4829 3.98323
      vertex 3.3698 -11.4829 3.98323
      vertex 3.43766 -11.613 1.09289
    endloop
  endfacet
  facet normal 0 -0.998989 0.044955
    outer loop
      vertex 3.86271 -11.613 1.09289
      vertex 3.93057 -11.4829 3.98323
      vertex 3.43766 -11.613 1.09289
    endloop
  endfacet
  facet normal 0 -0.999776 -0.0211413
    outer loop
      vertex 3.86271 -11.613 1.09289
      vertex 3.43766 -11.613 1.09289
      vertex 3.43766 -11.5973 0.350437
    endloop
  endfacet
  facet normal 0 -0.999776 -0.0211413
    outer loop
      vertex 3.86271 -11.5973 0.350437
      vertex 3.86271 -11.613 1.09289
      vertex 3.43766 -11.5973 0.350437
    endloop
  endfacet
  facet normal 0 -0.999601 -0.0282477
    outer loop
      vertex 3.43766 -11.5973 0.350437
      vertex 3.3698 -11.5874 0
      vertex 3.93057 -11.5874 0
    endloop
  endfacet
  facet normal 0 -0.999601 -0.0282477
    outer loop
      vertex 3.86271 -11.5973 0.350437
      vertex 3.43766 -11.5973 0.350437
      vertex 3.93057 -11.5874 0
    endloop
  endfacet
  facet normal 0 0 -1
    outer loop
      vertex 3.3698 -11.5874 0
      vertex 3.3698 -7.85838 0
      vertex 3.93057 -11.5874 0
    endloop
  endfacet
  facet normal 0 0 -1
    outer loop
      vertex 3.93057 -11.5874 0
      vertex 3.3698 -7.85838 0
      vertex 3.93057 -7.85838 0
    endloop
  endfacet
  facet normal 0 0.99999 0.0045524
    outer loop
      vertex 3.3698 -7.87159 2.90086
      vertex 3.93057 -7.87159 2.90086
      vertex 3.3698 -7.85838 0
    endloop
  endfacet
  facet normal 0 0.99999 0.0045524
    outer loop
      vertex 3.3698 -7.85838 0
      vertex 3.93057 -7.87159 2.90086
      vertex 3.93057 -7.85838 0
    endloop
  endfacet
  facet normal -0.882875 -0.469503 -0.00992815
    outer loop
      vertex -3.86271 -11.613 1.09289
      vertex -4.38134 -10.6409 1.24337
      vertex -3.86271 -11.5973 0.350437
    endloop
  endfacet
  facet normal -0.88225 -0.47078 0.000471112
    outer loop
      vertex -3.93057 -11.4829 3.98323
      vertex -4.38134 -10.6409 1.24337
      vertex -3.86271 -11.613 1.09289
    endloop
  endfacet
  facet normal -0.982573 0.0533657 0.178054
    outer loop
      vertex -3.93057 -7.87159 2.90086
      vertex -4.38134 -10.6409 1.24337
      vertex -3.93057 -11.4829 3.98323
    endloop
  endfacet
  facet normal -0.909072 0.416636 0.00189671
    outer loop
      vertex -3.93057 -7.85838 0
      vertex -4.38134 -8.84688 1.08874
      vertex -3.93057 -7.87159 2.90086
    endloop
  endfacet
  facet normal -0.972695 0.0199309 0.231231
    outer loop
      vertex -4.38134 -8.84688 1.08874
      vertex -4.38134 -10.6409 1.24337
      vertex -3.93057 -7.87159 2.90086
    endloop
  endfacet
  facet normal -0.619495 0 -0.785001
    outer loop
      vertex -4.38134 -10.6121 0.355728
      vertex -4.38134 -8.81805 0.355728
      vertex -3.93057 -11.5874 0
    endloop
  endfacet
  facet normal -0.619495 0 -0.785001
    outer loop
      vertex -3.93057 -11.5874 0
      vertex -4.38134 -8.81805 0.355728
      vertex -3.93057 -7.85838 0
    endloop
  endfacet
  facet normal -0.902567 0.430217 0.0169203
    outer loop
      vertex -4.38134 -8.81805 0.355728
      vertex -4.38134 -8.84688 1.08874
      vertex -3.93057 -7.85838 0
    endloop
  endfacet
  facet normal -0.873677 -0.46076 0.156167
    outer loop
      vertex -3.86271 -11.5973 0.350437
      vertex -4.38134 -10.6121 0.355728
      vertex -3.93057 -11.5874 0
    endloop
  endfacet
  facet normal -0.884812 -0.465702 -0.0151246
    outer loop
      vertex -3.86271 -11.5973 0.350437
      vertex -4.38134 -10.6409 1.24337
      vertex -4.38134 -10.6121 0.355728
    endloop
  endfacet
  facet normal 0.909072 0.416636 0.00189671
    outer loop
      vertex 3.93057 -7.85838 0
      vertex 3.93057 -7.87159 2.90086
      vertex 4.38134 -8.84688 1.08874
    endloop
  endfacet
  facet normal 0.972695 0.0199309 0.231231
    outer loop
      vertex 4.38134 -8.84688 1.08874
      vertex 3.93057 -7.87159 2.90086
      vertex 4.38134 -10.6409 1.24337
    endloop
  endfacet
  facet normal 0.982573 0.0533657 0.178054
    outer loop
      vertex 3.93057 -7.87159 2.90086
      vertex 3.93057 -11.4829 3.98323
      vertex 4.38134 -10.6409 1.24337
    endloop
  endfacet
  facet normal 0.88225 -0.47078 0.000471112
    outer loop
      vertex 3.93057 -11.4829 3.98323
      vertex 3.86271 -11.613 1.09289
      vertex 4.38134 -10.6409 1.24337
    endloop
  endfacet
  facet normal 0.882875 -0.469503 -0.00992815
    outer loop
      vertex 4.38134 -10.6409 1.24337
      vertex 3.86271 -11.613 1.09289
      vertex 3.86271 -11.5973 0.350437
    endloop
  endfacet
  facet normal 0.884812 -0.465702 -0.0151246
    outer loop
      vertex 4.38134 -10.6409 1.24337
      vertex 3.86271 -11.5973 0.350437
      vertex 4.38134 -10.6121 0.355728
    endloop
  endfacet
  facet normal 0.873677 -0.46076 0.156167
    outer loop
      vertex 4.38134 -10.6121 0.355728
      vertex 3.86271 -11.5973 0.350437
      vertex 3.93057 -11.5874 0
    endloop
  endfacet
  facet normal 0.619495 0 -0.785001
    outer loop
      vertex 3.93057 -11.5874 0
      vertex 3.93057 -7.85838 0
      vertex 4.38134 -10.6121 0.355728
    endloop
  endfacet
  facet normal 0.619495 0 -0.785001
    outer loop
      vertex 4.38134 -10.6121 0.355728
      vertex 3.93057 -7.85838 0
      vertex 4.38134 -8.81805 0.355728
    endloop
  endfacet
  facet normal 0.902567 0.430217 0.0169203
    outer loop
      vertex 4.38134 -8.81805 0.355728
      vertex 3.93057 -7.85838 0
      vertex 4.38134 -8.84688 1.08874
    endloop
  endfacet
  facet normal -1 0 0
    outer loop
      vertex -4.38134 -10.6409 1.24337
      vertex -4.38134 -8.84688 1.08874
      vertex -4.38134 -10.6121 0.355728
    endloop
  endfacet
  facet normal -1 0 0
    outer loop
      vertex -4.38134 -10.6121 0.355728
      vertex -4.38134 -8.84688 1.08874
      vertex -4.38134 -8.81805 0.355728
    endloop
  endfacet
  facet normal 1 0 0
    outer loop
      vertex 4.38134 -8.84688 1.08874
      vertex 4.38134 -10.6409 1.24337
      vertex 4.38134 -10.6121 0.355728
    endloop
  endfacet
  facet normal 1 0 0
    outer loop
      vertex 4.38134 -8.81805 0.355728
      vertex 4.38134 -8.84688 1.08874
      vertex 4.38134 -10.6121 0.355728
    endloop
  endfacet
endsolid OpenSCAD_Model
