solid OpenSCAD_Model
  facet normal 0 -1 0
    outer loop
      vertex -22.014 -12.0041 6.91866
      vertex -22.7913 -12.0041 4.43988
      vertex -10.2943 -12.0041 4.43988
    endloop
  endfacet
  facet normal 0 -1 0
    outer loop
      vertex -9.51696 -12.0041 7.60256
      vertex -22.014 -12.0041 6.91866
      vertex -9.51696 -12.0041 6.91866
    endloop
  endfacet
  facet normal 0 -1 0
    outer loop
      vertex -9.51696 -12.0041 6.91866
      vertex -22.014 -12.0041 6.91866
      vertex -10.2943 -12.0041 4.43988
    endloop
  endfacet
  facet normal 0 -1 0
    outer loop
      vertex -22.014 -12.0041 7.60256
      vertex -22.014 -12.0041 6.91866
      vertex -9.51696 -12.0041 7.60256
    endloop
  endfacet
  facet normal 0 0.0550564 -0.998483
    outer loop
      vertex -10.2943 -12.0041 4.43988
      vertex -22.7913 -12.0041 4.43988
      vertex -21.2248 -7.7689 4.67341
    endloop
  endfacet
  facet normal -0.904374 0.318863 0.283609
    outer loop
      vertex -21.2248 -7.7689 4.67341
      vertex -22.7913 -12.0041 4.43988
      vertex -22.014 -12.0041 6.91866
    endloop
  endfacet
  facet normal -0.98308 0.183178 0
    outer loop
      vertex -22.014 -12.0041 6.91866
      vertex -22.014 -12.0041 7.60256
      vertex -21.2248 -7.7689 4.67341
    endloop
  endfacet
  facet normal -0.98308 0.183178 0
    outer loop
      vertex -21.2248 -7.7689 4.67341
      vertex -22.014 -12.0041 7.60256
      vertex -21.2248 -7.7689 5.35732
    endloop
  endfacet
  facet normal 0 0.468385 0.883524
    outer loop
      vertex -21.2248 -7.7689 5.35732
      vertex -22.014 -12.0041 7.60256
      vertex -9.51696 -12.0041 7.60256
    endloop
  endfacet
  facet normal -0.126509 0.168511 0.977548
    outer loop
      vertex -8.72781 1.61314 5.35732
      vertex -21.2248 -7.7689 5.35732
      vertex -9.51696 -12.0041 7.60256
    endloop
  endfacet
  facet normal 0.998325 -0.0578553 0
    outer loop
      vertex -9.51696 -12.0041 7.60256
      vertex -9.51696 -12.0041 6.91866
      vertex -8.72781 1.61314 4.67341
    endloop
  endfacet
  facet normal 0.998325 -0.0578553 0
    outer loop
      vertex -8.72781 1.61314 5.35732
      vertex -9.51696 -12.0041 7.60256
      vertex -8.72781 1.61314 4.67341
    endloop
  endfacet
  facet normal 0.949 -0.104066 -0.297604
    outer loop
      vertex -10.0047 -10.25 4.75
      vertex -10.2943 -12.0041 4.43988
      vertex -8.72781 1.61314 4.67341
    endloop
  endfacet
  facet normal 0.949 -0.104066 -0.297604
    outer loop
      vertex -9.51696 -12.0041 6.91866
      vertex -10.2943 -12.0041 4.43988
      vertex -10.0047 -10.25 4.75
    endloop
  endfacet
  facet normal 0.949 -0.104066 -0.297604
    outer loop
      vertex -9.51123 -5.75 4.75
      vertex -10.0047 -10.25 4.75
      vertex -8.72781 1.61314 4.67341
    endloop
  endfacet
  facet normal 0.949 -0.104066 -0.297604
    outer loop
      vertex -9.51696 -12.0041 6.91866
      vertex -10.0047 -10.25 4.75
      vertex -9.84789 -10.25 5.25
    endloop
  endfacet
  facet normal 0.949 -0.104066 -0.297604
    outer loop
      vertex -9.51696 -12.0041 6.91866
      vertex -9.35443 -5.75 5.25
      vertex -8.72781 1.61314 4.67341
    endloop
  endfacet
  facet normal 0.949 -0.104066 -0.297604
    outer loop
      vertex -9.51696 -12.0041 6.91866
      vertex -9.84789 -10.25 5.25
      vertex -9.35443 -5.75 5.25
    endloop
  endfacet
  facet normal 0.949 -0.104066 -0.297604
    outer loop
      vertex -9.35443 -5.75 5.25
      vertex -9.51123 -5.75 4.75
      vertex -8.72781 1.61314 4.67341
    endloop
  endfacet
  facet normal -0.0140882 0.0187656 -0.999725
    outer loop
      vertex -10.2943 -12.0041 4.43988
      vertex -21.2248 -7.7689 4.67341
      vertex -8.72781 1.61314 4.67341
    endloop
  endfacet
  facet normal -0.60038 0.799715 0
    outer loop
      vertex -21.2248 -7.7689 4.67341
      vertex -21.2248 -7.7689 5.35732
      vertex -8.72781 1.61314 4.67341
    endloop
  endfacet
  facet normal -0.60038 0.799715 0
    outer loop
      vertex -8.72781 1.61314 4.67341
      vertex -21.2248 -7.7689 5.35732
      vertex -8.72781 1.61314 5.35732
    endloop
  endfacet
  facet normal 0 0 -1
    outer loop
      vertex -10.0047 -10.25 4.75
      vertex -9.51123 -5.75 4.75
      vertex -6.75 -10.25 4.75
    endloop
  endfacet
  facet normal 0 0 -1
    outer loop
      vertex -6.75 -10.25 4.75
      vertex -9.51123 -5.75 4.75
      vertex -6.75 -5.75 4.75
    endloop
  endfacet
  facet normal 0 -1 0
    outer loop
      vertex -9.84789 -10.25 5.25
      vertex -10.0047 -10.25 4.75
      vertex -6.75 -10.25 4.75
    endloop
  endfacet
  facet normal 0 -1 0
    outer loop
      vertex -6.75 -10.25 5.25
      vertex -9.84789 -10.25 5.25
      vertex -6.75 -10.25 4.75
    endloop
  endfacet
  facet normal 0 1 0
    outer loop
      vertex -9.51123 -5.75 4.75
      vertex -9.35443 -5.75 5.25
      vertex -6.75 -5.75 4.75
    endloop
  endfacet
  facet normal 0 1 0
    outer loop
      vertex -6.75 -5.75 4.75
      vertex -9.35443 -5.75 5.25
      vertex -6.75 -5.75 5.25
    endloop
  endfacet
  facet normal 0 0 1
    outer loop
      vertex -9.35443 -5.75 5.25
      vertex -9.84789 -10.25 5.25
      vertex -6.75 -10.25 5.25
    endloop
  endfacet
  facet normal 0 0 1
    outer loop
      vertex -6.75 -5.75 5.25
      vertex -9.35443 -5.75 5.25
      vertex -6.75 -10.25 5.25
    endloop
  endfacet
  facet normal 1 0 0
    outer loop
      vertex -6.75 -10.25 5.25
      vertex -6.75 -10.25 4.75
      vertex -6.75 -5.75 4.75
    endloop
  endfacet
  facet normal 1 0 0
    outer loop
      vertex -6.75 -5.75 5.25
      vertex -6.75 -10.25 5.25
      vertex -6.75 -5.75 4.75
    endloop
  endfacet
  facet normal -1 0 0
    outer loop
      vertex 6.75 -10.25 4.75
      vertex 6.75 -10.25 5.25
      vertex 6.75 -5.75 4.75
    endloop
  endfacet
  facet normal -1 0 0
    outer loop
      vertex 6.75 -5.75 4.75
      vertex 6.75 -10.25 5.25
      vertex 6.75 -5.75 5.25
    endloop
  endfacet
  facet normal 0 -1 0
    outer loop
      vertex 6.75 -10.25 5.25
      vertex 6.75 -10.25 4.75
      vertex 10.0047 -10.25 4.75
    endloop
  endfacet
  facet normal 0 -1 0
    outer loop
      vertex 9.84789 -10.25 5.25
      vertex 6.75 -10.25 5.25
      vertex 10.0047 -10.25 4.75
    endloop
  endfacet
  facet normal 0 0 -1
    outer loop
      vertex 6.75 -10.25 4.75
      vertex 6.75 -5.75 4.75
      vertex 10.0047 -10.25 4.75
    endloop
  endfacet
  facet normal 0 0 -1
    outer loop
      vertex 10.0047 -10.25 4.75
      vertex 6.75 -5.75 4.75
      vertex 9.51123 -5.75 4.75
    endloop
  endfacet
  facet normal 0 1 0
    outer loop
      vertex 6.75 -5.75 4.75
      vertex 6.75 -5.75 5.25
      vertex 9.51123 -5.75 4.75
    endloop
  endfacet
  facet normal 0 1 0
    outer loop
      vertex 9.51123 -5.75 4.75
      vertex 6.75 -5.75 5.25
      vertex 9.35443 -5.75 5.25
    endloop
  endfacet
  facet normal 0 0 1
    outer loop
      vertex 6.75 -5.75 5.25
      vertex 6.75 -10.25 5.25
      vertex 9.84789 -10.25 5.25
    endloop
  endfacet
  facet normal 0 0 1
    outer loop
      vertex 9.35443 -5.75 5.25
      vertex 6.75 -5.75 5.25
      vertex 9.84789 -10.25 5.25
    endloop
  endfacet
  facet normal -0.949 -0.104066 -0.297604
    outer loop
      vertex 9.84789 -10.25 5.25
      vertex 10.2943 -12.0041 4.43988
      vertex 9.51696 -12.0041 6.91866
    endloop
  endfacet
  facet normal -0.949 -0.104066 -0.297604
    outer loop
      vertex 8.72781 1.61314 4.67341
      vertex 10.2943 -12.0041 4.43988
      vertex 9.51123 -5.75 4.75
    endloop
  endfacet
  facet normal -0.949 -0.104066 -0.297604
    outer loop
      vertex 8.72781 1.61314 4.67341
      vertex 9.51123 -5.75 4.75
      vertex 9.35443 -5.75 5.25
    endloop
  endfacet
  facet normal -0.949 -0.104066 -0.297604
    outer loop
      vertex 8.72781 1.61314 4.67341
      vertex 9.35443 -5.75 5.25
      vertex 9.51696 -12.0041 6.91866
    endloop
  endfacet
  facet normal -0.949 -0.104066 -0.297604
    outer loop
      vertex 10.0047 -10.25 4.75
      vertex 10.2943 -12.0041 4.43988
      vertex 9.84789 -10.25 5.25
    endloop
  endfacet
  facet normal -0.949 -0.104066 -0.297604
    outer loop
      vertex 9.51123 -5.75 4.75
      vertex 10.2943 -12.0041 4.43988
      vertex 10.0047 -10.25 4.75
    endloop
  endfacet
  facet normal -0.949 -0.104066 -0.297604
    outer loop
      vertex 9.84789 -10.25 5.25
      vertex 9.51696 -12.0041 6.91866
      vertex 9.35443 -5.75 5.25
    endloop
  endfacet
  facet normal -0.998325 -0.0578553 0
    outer loop
      vertex 8.72781 1.61314 4.67341
      vertex 9.51696 -12.0041 6.91866
      vertex 8.72781 1.61314 5.35732
    endloop
  endfacet
  facet normal -0.998325 -0.0578553 0
    outer loop
      vertex 8.72781 1.61314 5.35732
      vertex 9.51696 -12.0041 6.91866
      vertex 9.51696 -12.0041 7.60256
    endloop
  endfacet
  facet normal 0 -1 0
    outer loop
      vertex 9.51696 -12.0041 7.60256
      vertex 9.51696 -12.0041 6.91866
      vertex 10.2943 -12.0041 4.43988
    endloop
  endfacet
  facet normal 0 -1 0
    outer loop
      vertex 22.014 -12.0041 6.91866
      vertex 9.51696 -12.0041 7.60256
      vertex 22.7913 -12.0041 4.43988
    endloop
  endfacet
  facet normal 0 -1 0
    outer loop
      vertex 22.7913 -12.0041 4.43988
      vertex 9.51696 -12.0041 7.60256
      vertex 10.2943 -12.0041 4.43988
    endloop
  endfacet
  facet normal 0 -1 0
    outer loop
      vertex 22.014 -12.0041 7.60256
      vertex 9.51696 -12.0041 7.60256
      vertex 22.014 -12.0041 6.91866
    endloop
  endfacet
  facet normal 0 0.0550564 -0.998483
    outer loop
      vertex 22.7913 -12.0041 4.43988
      vertex 10.2943 -12.0041 4.43988
      vertex 21.2248 -7.7689 4.67341
    endloop
  endfacet
  facet normal 0.0140882 0.0187656 -0.999725
    outer loop
      vertex 10.2943 -12.0041 4.43988
      vertex 8.72781 1.61314 4.67341
      vertex 21.2248 -7.7689 4.67341
    endloop
  endfacet
  facet normal 0.60038 0.799715 0
    outer loop
      vertex 8.72781 1.61314 4.67341
      vertex 8.72781 1.61314 5.35732
      vertex 21.2248 -7.7689 4.67341
    endloop
  endfacet
  facet normal 0.60038 0.799715 0
    outer loop
      vertex 21.2248 -7.7689 4.67341
      vertex 8.72781 1.61314 5.35732
      vertex 21.2248 -7.7689 5.35732
    endloop
  endfacet
  facet normal 0.126509 0.168511 0.977548
    outer loop
      vertex 21.2248 -7.7689 5.35732
      vertex 8.72781 1.61314 5.35732
      vertex 9.51696 -12.0041 7.60256
    endloop
  endfacet
  facet normal 0 0.468385 0.883524
    outer loop
      vertex 21.2248 -7.7689 5.35732
      vertex 9.51696 -12.0041 7.60256
      vertex 22.014 -12.0041 7.60256
    endloop
  endfacet
  facet normal 0.98308 0.183178 0
    outer loop
      vertex 22.014 -12.0041 6.91866
      vertex 21.2248 -7.7689 4.67341
      vertex 21.2248 -7.7689 5.35732
    endloop
  endfacet
  facet normal 0.98308 0.183178 0
    outer loop
      vertex 22.014 -12.0041 7.60256
      vertex 22.014 -12.0041 6.91866
      vertex 21.2248 -7.7689 5.35732
    endloop
  endfacet
  facet normal 0.904374 0.318863 0.283609
    outer loop
      vertex 22.7913 -12.0041 4.43988
      vertex 21.2248 -7.7689 4.67341
      vertex 22.014 -12.0041 6.91866
    endloop
  endfacet
endsolid OpenSCAD_Model
