solid OpenSCAD_Model
  facet normal 0 -1 0
    outer loop
      vertex -22.014 -12.0041 6.91866
      vertex -22.7913 -12.0041 4.43988
      vertex -10.2943 -12.0041 4.43988
    endloop
  endfacet
  facet normal 0 -1 0
    outer loop
      vertex -9.51696 -12.0041 7.60256
      vertex -22.014 -12.0041 6.91866
      vertex -9.51696 -12.0041 6.91866
    endloop
  endfacet
  facet normal 0 -1 0
    outer loop
      vertex -9.51696 -12.0041 6.91866
      vertex -22.014 -12.0041 6.91866
      vertex -10.2943 -12.0041 4.43988
    endloop
  endfacet
  facet normal 0 -1 0
    outer loop
      vertex -22.014 -12.0041 7.60256
      vertex -22.014 -12.0041 6.91866
      vertex -9.51696 -12.0041 7.60256
    endloop
  endfacet
  facet normal 0 0.0171471 -0.999853
    outer loop
      vertex -22.7913 -12.0041 4.43988
      vertex -21.2248 1.61314 4.67341
      vertex -10.2943 -12.0041 4.43988
    endloop
  endfacet
  facet normal 0 0.0171471 -0.999853
    outer loop
      vertex -9.55184 -5.55 4.55057
      vertex -21.2248 1.61314 4.67341
      vertex -8.72781 1.61314 4.67341
    endloop
  endfacet
  facet normal 0 0.0171471 -0.999853
    outer loop
      vertex -13.45 -5.55 4.55057
      vertex -21.2248 1.61314 4.67341
      vertex -9.55184 -5.55 4.55057
    endloop
  endfacet
  facet normal 0 0.0171471 -0.999853
    outer loop
      vertex -13.45 -5.58297 4.55
      vertex -21.2248 1.61314 4.67341
      vertex -13.45 -5.55 4.55057
    endloop
  endfacet
  facet normal 0 0.0171471 -0.999853
    outer loop
      vertex -10.2943 -12.0041 4.43988
      vertex -21.2248 1.61314 4.67341
      vertex -13.45 -5.58297 4.55
    endloop
  endfacet
  facet normal 0 0.0171471 -0.999853
    outer loop
      vertex -9.55563 -5.58297 4.55
      vertex -10.2943 -12.0041 4.43988
      vertex -13.45 -5.58297 4.55
    endloop
  endfacet
  facet normal -0.949001 0.104066 0.297604
    outer loop
      vertex -21.2248 1.61314 4.67341
      vertex -22.7913 -12.0041 4.43988
      vertex -22.014 -12.0041 6.91866
    endloop
  endfacet
  facet normal -0.998325 0.0578554 0
    outer loop
      vertex -22.014 -12.0041 6.91866
      vertex -22.014 -12.0041 7.60256
      vertex -21.2248 1.61314 4.67341
    endloop
  endfacet
  facet normal -0.998325 0.0578554 0
    outer loop
      vertex -21.2248 1.61314 4.67341
      vertex -22.014 -12.0041 7.60256
      vertex -21.2248 1.61314 5.35732
    endloop
  endfacet
  facet normal 0 0.162685 0.986678
    outer loop
      vertex -21.2248 1.61314 5.35732
      vertex -22.014 -12.0041 7.60256
      vertex -9.51696 -12.0041 7.60256
    endloop
  endfacet
  facet normal 0 0.162685 0.986678
    outer loop
      vertex -8.72781 1.61314 5.35732
      vertex -21.2248 1.61314 5.35732
      vertex -9.51696 -12.0041 7.60256
    endloop
  endfacet
  facet normal 0.998325 -0.0578553 0
    outer loop
      vertex -9.51696 -12.0041 7.60256
      vertex -9.51696 -12.0041 6.91866
      vertex -8.72781 1.61314 4.67341
    endloop
  endfacet
  facet normal 0.998325 -0.0578553 0
    outer loop
      vertex -8.72781 1.61314 5.35732
      vertex -9.51696 -12.0041 7.60256
      vertex -8.72781 1.61314 4.67341
    endloop
  endfacet
  facet normal 0.949 -0.104066 -0.297604
    outer loop
      vertex -10.0893 -10.45 4.55
      vertex -10.2943 -12.0041 4.43988
      vertex -9.55563 -5.58297 4.55
    endloop
  endfacet
  facet normal 0.949 -0.104066 -0.297604
    outer loop
      vertex -9.51696 -12.0041 6.91866
      vertex -10.2943 -12.0041 4.43988
      vertex -10.0893 -10.45 4.55
    endloop
  endfacet
  facet normal 0.949 -0.104066 -0.297604
    outer loop
      vertex -9.51696 -12.0041 6.91866
      vertex -10.0893 -10.45 4.55
      vertex -9.80711 -10.45 5.45
    endloop
  endfacet
  facet normal 0.949 -0.104066 -0.297604
    outer loop
      vertex -8.72781 1.61314 4.67341
      vertex -9.51696 -12.0041 6.91866
      vertex -9.26978 -5.55 5.45
    endloop
  endfacet
  facet normal 0.949 -0.104066 -0.297604
    outer loop
      vertex -8.72781 1.61314 4.67341
      vertex -9.26978 -5.55 5.45
      vertex -9.55184 -5.55 4.55057
    endloop
  endfacet
  facet normal 0.949 -0.104066 -0.297604
    outer loop
      vertex -9.80711 -10.45 5.45
      vertex -9.26978 -5.55 5.45
      vertex -9.51696 -12.0041 6.91866
    endloop
  endfacet
  facet normal 0 0 -1
    outer loop
      vertex -13.45 -5.58297 4.55
      vertex -13.45 -5.55 4.55
      vertex -9.55563 -5.58297 4.55
    endloop
  endfacet
  facet normal 0 0 -1
    outer loop
      vertex -9.55563 -5.58297 4.55
      vertex -13.45 -5.55 4.55
      vertex -6.55 -5.55 4.55
    endloop
  endfacet
  facet normal 0 0 -1
    outer loop
      vertex -9.55563 -5.58297 4.55
      vertex -6.55 -5.55 4.55
      vertex -6.55 -10.45 4.55
    endloop
  endfacet
  facet normal 0 0 -1
    outer loop
      vertex -9.55563 -5.58297 4.55
      vertex -6.55 -10.45 4.55
      vertex -10.0893 -10.45 4.55
    endloop
  endfacet
  facet normal -1 0 0
    outer loop
      vertex -13.45 -5.55 4.55
      vertex -13.45 -5.58297 4.55
      vertex -13.45 -5.55 4.55057
    endloop
  endfacet
  facet normal 0 1 0
    outer loop
      vertex -13.45 -5.55 4.55
      vertex -13.45 -5.55 4.55057
      vertex -6.55 -5.55 4.55
    endloop
  endfacet
  facet normal 0 1 0
    outer loop
      vertex -6.55 -5.55 4.55
      vertex -13.45 -5.55 4.55057
      vertex -9.55184 -5.55 4.55057
    endloop
  endfacet
  facet normal 0 1 0
    outer loop
      vertex -6.55 -5.55 4.55
      vertex -9.55184 -5.55 4.55057
      vertex -9.26978 -5.55 5.45
    endloop
  endfacet
  facet normal 0 1 0
    outer loop
      vertex -6.55 -5.55 4.55
      vertex -9.26978 -5.55 5.45
      vertex -6.55 -5.55 5.45
    endloop
  endfacet
  facet normal 0 1 0
    outer loop
      vertex -21.2248 1.61314 4.67341
      vertex -21.2248 1.61314 5.35732
      vertex -8.72781 1.61314 4.67341
    endloop
  endfacet
  facet normal 0 1 0
    outer loop
      vertex -8.72781 1.61314 4.67341
      vertex -21.2248 1.61314 5.35732
      vertex -8.72781 1.61314 5.35732
    endloop
  endfacet
  facet normal 0 0 1
    outer loop
      vertex -9.26978 -5.55 5.45
      vertex -9.80711 -10.45 5.45
      vertex -6.55 -10.45 5.45
    endloop
  endfacet
  facet normal 0 0 1
    outer loop
      vertex -6.55 -5.55 5.45
      vertex -9.26978 -5.55 5.45
      vertex -6.55 -10.45 5.45
    endloop
  endfacet
  facet normal 0 -1 0
    outer loop
      vertex -9.80711 -10.45 5.45
      vertex -10.0893 -10.45 4.55
      vertex -6.55 -10.45 4.55
    endloop
  endfacet
  facet normal 0 -1 0
    outer loop
      vertex -6.55 -10.45 5.45
      vertex -9.80711 -10.45 5.45
      vertex -6.55 -10.45 4.55
    endloop
  endfacet
  facet normal 1 0 0
    outer loop
      vertex -6.55 -10.45 5.45
      vertex -6.55 -10.45 4.55
      vertex -6.55 -5.55 4.55
    endloop
  endfacet
  facet normal 1 0 0
    outer loop
      vertex -6.55 -5.55 5.45
      vertex -6.55 -10.45 5.45
      vertex -6.55 -5.55 4.55
    endloop
  endfacet
  facet normal -1 0 0
    outer loop
      vertex 6.55 -10.45 4.55
      vertex 6.55 -10.45 5.45
      vertex 6.55 -5.55 4.55
    endloop
  endfacet
  facet normal -1 0 0
    outer loop
      vertex 6.55 -5.55 4.55
      vertex 6.55 -10.45 5.45
      vertex 6.55 -5.55 5.45
    endloop
  endfacet
  facet normal 0 -1 0
    outer loop
      vertex 6.55 -10.45 5.45
      vertex 6.55 -10.45 4.55
      vertex 10.0893 -10.45 4.55
    endloop
  endfacet
  facet normal 0 -1 0
    outer loop
      vertex 9.80711 -10.45 5.45
      vertex 6.55 -10.45 5.45
      vertex 10.0893 -10.45 4.55
    endloop
  endfacet
  facet normal 0 0 -1
    outer loop
      vertex 6.55 -10.45 4.55
      vertex 6.55 -5.55 4.55
      vertex 10.0893 -10.45 4.55
    endloop
  endfacet
  facet normal 0 0 -1
    outer loop
      vertex 9.55563 -5.58297 4.55
      vertex 6.55 -5.55 4.55
      vertex 13.45 -5.55 4.55
    endloop
  endfacet
  facet normal 0 0 -1
    outer loop
      vertex 10.0893 -10.45 4.55
      vertex 6.55 -5.55 4.55
      vertex 9.55563 -5.58297 4.55
    endloop
  endfacet
  facet normal 0 0 -1
    outer loop
      vertex 9.55563 -5.58297 4.55
      vertex 13.45 -5.55 4.55
      vertex 13.45 -5.58297 4.55
    endloop
  endfacet
  facet normal 0 1 0
    outer loop
      vertex 13.45 -5.55 4.55057
      vertex 13.45 -5.55 4.55
      vertex 9.55184 -5.55 4.55057
    endloop
  endfacet
  facet normal 0 1 0
    outer loop
      vertex 6.55 -5.55 4.55
      vertex 6.55 -5.55 5.45
      vertex 9.55184 -5.55 4.55057
    endloop
  endfacet
  facet normal 0 1 0
    outer loop
      vertex 6.55 -5.55 4.55
      vertex 9.55184 -5.55 4.55057
      vertex 13.45 -5.55 4.55
    endloop
  endfacet
  facet normal 0 1 0
    outer loop
      vertex 9.55184 -5.55 4.55057
      vertex 6.55 -5.55 5.45
      vertex 9.26978 -5.55 5.45
    endloop
  endfacet
  facet normal 0 0 1
    outer loop
      vertex 6.55 -5.55 5.45
      vertex 6.55 -10.45 5.45
      vertex 9.80711 -10.45 5.45
    endloop
  endfacet
  facet normal 0 0 1
    outer loop
      vertex 9.26978 -5.55 5.45
      vertex 6.55 -5.55 5.45
      vertex 9.80711 -10.45 5.45
    endloop
  endfacet
  facet normal -0.949 -0.104066 -0.297604
    outer loop
      vertex 8.72781 1.61314 4.67341
      vertex 9.26978 -5.55 5.45
      vertex 9.51696 -12.0041 6.91866
    endloop
  endfacet
  facet normal -0.949 -0.104066 -0.297604
    outer loop
      vertex 8.72781 1.61314 4.67341
      vertex 9.55184 -5.55 4.55057
      vertex 9.26978 -5.55 5.45
    endloop
  endfacet
  facet normal -0.949 -0.104066 -0.297604
    outer loop
      vertex 9.51696 -12.0041 6.91866
      vertex 9.80711 -10.45 5.45
      vertex 10.0893 -10.45 4.55
    endloop
  endfacet
  facet normal -0.949 -0.104066 -0.297604
    outer loop
      vertex 10.0893 -10.45 4.55
      vertex 9.55563 -5.58297 4.55
      vertex 10.2943 -12.0041 4.43988
    endloop
  endfacet
  facet normal -0.949 -0.104066 -0.297604
    outer loop
      vertex 10.0893 -10.45 4.55
      vertex 10.2943 -12.0041 4.43988
      vertex 9.51696 -12.0041 6.91866
    endloop
  endfacet
  facet normal -0.949 -0.104066 -0.297604
    outer loop
      vertex 9.80711 -10.45 5.45
      vertex 9.51696 -12.0041 6.91866
      vertex 9.26978 -5.55 5.45
    endloop
  endfacet
  facet normal 0 0.0171471 -0.999853
    outer loop
      vertex 8.72781 1.61314 4.67341
      vertex 21.2248 1.61314 4.67341
      vertex 9.55184 -5.55 4.55057
    endloop
  endfacet
  facet normal 0 0.0171471 -0.999853
    outer loop
      vertex 13.45 -5.58297 4.55
      vertex 21.2248 1.61314 4.67341
      vertex 22.7913 -12.0041 4.43988
    endloop
  endfacet
  facet normal 0 0.0171471 -0.999853
    outer loop
      vertex 9.55563 -5.58297 4.55
      vertex 22.7913 -12.0041 4.43988
      vertex 10.2943 -12.0041 4.43988
    endloop
  endfacet
  facet normal 0 0.0171471 -0.999853
    outer loop
      vertex 13.45 -5.55 4.55057
      vertex 21.2248 1.61314 4.67341
      vertex 13.45 -5.58297 4.55
    endloop
  endfacet
  facet normal 0 0.0171471 -0.999853
    outer loop
      vertex 9.55184 -5.55 4.55057
      vertex 21.2248 1.61314 4.67341
      vertex 13.45 -5.55 4.55057
    endloop
  endfacet
  facet normal 0 0.0171471 -0.999853
    outer loop
      vertex 13.45 -5.58297 4.55
      vertex 22.7913 -12.0041 4.43988
      vertex 9.55563 -5.58297 4.55
    endloop
  endfacet
  facet normal 1 0 0
    outer loop
      vertex 13.45 -5.55 4.55057
      vertex 13.45 -5.58297 4.55
      vertex 13.45 -5.55 4.55
    endloop
  endfacet
  facet normal -0.998325 -0.0578553 0
    outer loop
      vertex 8.72781 1.61314 4.67341
      vertex 9.51696 -12.0041 6.91866
      vertex 8.72781 1.61314 5.35732
    endloop
  endfacet
  facet normal -0.998325 -0.0578553 0
    outer loop
      vertex 8.72781 1.61314 5.35732
      vertex 9.51696 -12.0041 6.91866
      vertex 9.51696 -12.0041 7.60256
    endloop
  endfacet
  facet normal 0 -1 0
    outer loop
      vertex 9.51696 -12.0041 7.60256
      vertex 9.51696 -12.0041 6.91866
      vertex 10.2943 -12.0041 4.43988
    endloop
  endfacet
  facet normal 0 -1 0
    outer loop
      vertex 22.014 -12.0041 6.91866
      vertex 9.51696 -12.0041 7.60256
      vertex 22.7913 -12.0041 4.43988
    endloop
  endfacet
  facet normal 0 -1 0
    outer loop
      vertex 22.7913 -12.0041 4.43988
      vertex 9.51696 -12.0041 7.60256
      vertex 10.2943 -12.0041 4.43988
    endloop
  endfacet
  facet normal 0 -1 0
    outer loop
      vertex 22.014 -12.0041 7.60256
      vertex 9.51696 -12.0041 7.60256
      vertex 22.014 -12.0041 6.91866
    endloop
  endfacet
  facet normal 0 1 0
    outer loop
      vertex 8.72781 1.61314 4.67341
      vertex 8.72781 1.61314 5.35732
      vertex 21.2248 1.61314 4.67341
    endloop
  endfacet
  facet normal 0 1 0
    outer loop
      vertex 21.2248 1.61314 4.67341
      vertex 8.72781 1.61314 5.35732
      vertex 21.2248 1.61314 5.35732
    endloop
  endfacet
  facet normal 0.949001 0.104066 0.297604
    outer loop
      vertex 22.7913 -12.0041 4.43988
      vertex 21.2248 1.61314 4.67341
      vertex 22.014 -12.0041 6.91866
    endloop
  endfacet
  facet normal 0.998325 0.0578554 0
    outer loop
      vertex 22.014 -12.0041 6.91866
      vertex 21.2248 1.61314 4.67341
      vertex 21.2248 1.61314 5.35732
    endloop
  endfacet
  facet normal 0.998325 0.0578554 0
    outer loop
      vertex 22.014 -12.0041 7.60256
      vertex 22.014 -12.0041 6.91866
      vertex 21.2248 1.61314 5.35732
    endloop
  endfacet
  facet normal 0 0.162685 0.986678
    outer loop
      vertex 21.2248 1.61314 5.35732
      vertex 8.72781 1.61314 5.35732
      vertex 9.51696 -12.0041 7.60256
    endloop
  endfacet
  facet normal 0 0.162685 0.986678
    outer loop
      vertex 22.014 -12.0041 7.60256
      vertex 21.2248 1.61314 5.35732
      vertex 9.51696 -12.0041 7.60256
    endloop
  endfacet
endsolid OpenSCAD_Model
