solid OpenSCAD_Model
  facet normal 0 -1 0
    outer loop
      vertex -16.244 -11.4827 4.52345
      vertex -17.8213 -11.4827 4.52345
      vertex -16.9248 -11.4827 3.16814
    endloop
  endfacet
  facet normal 0 -1 0
    outer loop
      vertex -12.9133 -11.4827 3.16814
      vertex -16.244 -11.4827 4.52345
      vertex -15.3476 -11.4827 3.16814
    endloop
  endfacet
  facet normal 0 -1 0
    outer loop
      vertex -15.3476 -11.4827 3.16814
      vertex -16.244 -11.4827 4.52345
      vertex -16.9248 -11.4827 3.16814
    endloop
  endfacet
  facet normal 0 -1 0
    outer loop
      vertex -10.7876 -11.4827 3.16814
      vertex -16.244 -11.4827 4.52345
      vertex -12.9133 -11.4827 3.16814
    endloop
  endfacet
  facet normal 0 -1 0
    outer loop
      vertex -8.84208 -11.4827 3.16814
      vertex -16.244 -11.4827 4.52345
      vertex -10.7876 -11.4827 3.16814
    endloop
  endfacet
  facet normal 0 -1 0
    outer loop
      vertex -9.73855 -11.4827 4.52345
      vertex -16.244 -11.4827 4.52345
      vertex -8.84208 -11.4827 3.16814
    endloop
  endfacet
  facet normal -0.819466 0.186153 -0.542054
    outer loop
      vertex -16.9248 -11.4827 3.16814
      vertex -17.8213 -11.4827 4.52345
      vertex -16.7144 -5.99282 4.7354
    endloop
  endfacet
  facet normal -0.973301 0.191348 0.126771
    outer loop
      vertex -16.7144 -5.99282 4.7354
      vertex -17.8213 -11.4827 4.52345
      vertex -17.272 -9.45378 5.67832
    endloop
  endfacet
  facet normal 0 -0.494681 0.869075
    outer loop
      vertex -17.272 -9.45378 5.67832
      vertex -17.8213 -11.4827 4.52345
      vertex -16.244 -11.4827 4.52345
    endloop
  endfacet
  facet normal 0 -0.875951 0.4824
    outer loop
      vertex -15.6947 -10.4827 6.33927
      vertex -16.244 -11.4827 4.52345
      vertex -9.73855 -11.4827 4.52345
    endloop
  endfacet
  facet normal 0 -0.875951 0.4824
    outer loop
      vertex -11.1348 -10.4827 6.33927
      vertex -15.6947 -10.4827 6.33927
      vertex -9.73855 -11.4827 4.52345
    endloop
  endfacet
  facet normal -0.609109 -0.602306 0.515959
    outer loop
      vertex -15.6947 -10.4827 6.33927
      vertex -17.272 -9.45378 5.67832
      vertex -16.244 -11.4827 4.52345
    endloop
  endfacet
  facet normal -0.452833 -0.881009 0.136986
    outer loop
      vertex -9.18925 -11.4827 6.33927
      vertex -11.1348 -10.4827 6.33927
      vertex -9.73855 -11.4827 4.52345
    endloop
  endfacet
  facet normal -0.529407 -0.833114 0.16015
    outer loop
      vertex -9.18925 -11.4827 6.33927
      vertex -9.73855 -11.4827 4.52345
      vertex -7.95904 -12.6135 4.52345
    endloop
  endfacet
  facet normal -0.505466 -0.795438 -0.33434
    outer loop
      vertex -7.95904 -12.6135 4.52345
      vertex -9.73855 -11.4827 4.52345
      vertex -8.84208 -11.4827 3.16814
    endloop
  endfacet
  facet normal 0.0183279 0.0143123 -0.99973
    outer loop
      vertex -7.95904 -12.6135 3.16814
      vertex -8.84208 -11.4827 3.16814
      vertex -6.8521 0.773966 3.38009
    endloop
  endfacet
  facet normal 0 0.01729 -0.999851
    outer loop
      vertex -6.8521 0.773966 3.38009
      vertex -8.84208 -11.4827 3.16814
      vertex -7.73514 0.773966 3.38009
    endloop
  endfacet
  facet normal -0.0275183 0.019768 -0.999426
    outer loop
      vertex -8.84208 -11.4827 3.16814
      vertex -9.68064 -1.9343 3.38009
      vertex -7.73514 0.773966 3.38009
    endloop
  endfacet
  facet normal 0 0.022192 -0.999754
    outer loop
      vertex -8.84208 -11.4827 3.16814
      vertex -10.7876 -11.4827 3.16814
      vertex -9.68064 -1.9343 3.38009
    endloop
  endfacet
  facet normal -0.788159 -0.615472 0
    outer loop
      vertex -7.95904 -12.6135 4.52345
      vertex -8.84208 -11.4827 3.16814
      vertex -7.95904 -12.6135 3.16814
    endloop
  endfacet
  facet normal 0 0.0283599 -0.999598
    outer loop
      vertex -10.7876 -11.4827 3.16814
      vertex -12.9133 -11.4827 3.16814
      vertex -11.8063 -4.01212 3.38009
    endloop
  endfacet
  facet normal -0.024456 0.0250191 -0.999388
    outer loop
      vertex -10.7876 -11.4827 3.16814
      vertex -11.8063 -4.01212 3.38009
      vertex -9.68064 -1.9343 3.38009
    endloop
  endfacet
  facet normal 0 0.0339416 -0.999424
    outer loop
      vertex -12.9133 -11.4827 3.16814
      vertex -15.3476 -11.4827 3.16814
      vertex -14.2406 -5.24174 3.38009
    endloop
  endfacet
  facet normal -0.0154813 0.0306486 -0.99941
    outer loop
      vertex -12.9133 -11.4827 3.16814
      vertex -14.2406 -5.24174 3.38009
      vertex -11.8063 -4.01212 3.38009
    endloop
  endfacet
  facet normal -0.0176487 0.037063 -0.999157
    outer loop
      vertex -15.3476 -11.4827 3.16814
      vertex -15.8179 -5.99282 3.38009
      vertex -14.2406 -5.24174 3.38009
    endloop
  endfacet
  facet normal 0 0.0385787 -0.999256
    outer loop
      vertex -15.3476 -11.4827 3.16814
      vertex -16.9248 -11.4827 3.16814
      vertex -15.8179 -5.99282 3.38009
    endloop
  endfacet
  facet normal -0.819466 0.186153 -0.542054
    outer loop
      vertex -15.8179 -5.99282 3.38009
      vertex -16.9248 -11.4827 3.16814
      vertex -16.7144 -5.99282 4.7354
    endloop
  endfacet
  facet normal -0.831735 -0.0171794 -0.554907
    outer loop
      vertex -17.272 -9.45378 5.67832
      vertex -17.3455 -6.29002 5.69054
      vertex -16.7144 -5.99282 4.7354
    endloop
  endfacet
  facet normal -0.41353 0.86843 -0.273538
    outer loop
      vertex -15.8179 -5.99282 3.38009
      vertex -16.7144 -5.99282 4.7354
      vertex -15.1371 -5.24174 4.7354
    endloop
  endfacet
  facet normal -0.402623 0.845525 0.350687
    outer loop
      vertex -15.1371 -5.24174 4.7354
      vertex -16.7144 -5.99282 4.7354
      vertex -14.9293 -5.53894 5.69054
    endloop
  endfacet
  facet normal -0.295338 0.950093 0.100488
    outer loop
      vertex -16.7144 -5.99282 4.7354
      vertex -17.3455 -6.29002 5.69054
      vertex -14.9293 -5.53894 5.69054
    endloop
  endfacet
  facet normal -0.871322 -0.0221359 0.490213
    outer loop
      vertex -16.8127 -6.30945 6.63668
      vertex -17.3455 -6.29002 5.69054
      vertex -17.272 -9.45378 5.67832
    endloop
  endfacet
  facet normal 0.155312 -0.3087 0.938394
    outer loop
      vertex -16.8127 -6.30945 6.63668
      vertex -17.272 -9.45378 5.67832
      vertex -15.2355 -6.30945 6.37564
    endloop
  endfacet
  facet normal -0.368213 0.0324183 0.929176
    outer loop
      vertex -15.2355 -6.30945 6.37564
      vertex -17.272 -9.45378 5.67832
      vertex -15.6947 -10.4827 6.33927
    endloop
  endfacet
  facet normal 0 -0.0087147 0.999962
    outer loop
      vertex -15.2355 -6.30945 6.37564
      vertex -15.6947 -10.4827 6.33927
      vertex -11.1348 -10.4827 6.33927
    endloop
  endfacet
  facet normal 0 -0.0087147 0.999962
    outer loop
      vertex -12.8012 -6.30945 6.37564
      vertex -15.2355 -6.30945 6.37564
      vertex -11.1348 -10.4827 6.33927
    endloop
  endfacet
  facet normal 0 -0.0087147 0.999962
    outer loop
      vertex -8.72998 -6.30945 6.37564
      vertex -10.6755 -6.30945 6.37564
      vertex -11.1348 -10.4827 6.33927
    endloop
  endfacet
  facet normal 0 -0.0087147 0.999962
    outer loop
      vertex -10.6755 -6.30945 6.37564
      vertex -12.8012 -6.30945 6.37564
      vertex -11.1348 -10.4827 6.33927
    endloop
  endfacet
  facet normal -0.00345578 -0.0067234 0.999971
    outer loop
      vertex -8.72998 -6.30945 6.37564
      vertex -11.1348 -10.4827 6.33927
      vertex -9.18925 -11.4827 6.33927
    endloop
  endfacet
  facet normal -0.554701 -0.820953 0.13544
    outer loop
      vertex -7.40975 -12.6135 6.77309
      vertex -9.18925 -11.4827 6.33927
      vertex -7.95904 -12.6135 4.52345
    endloop
  endfacet
  facet normal -0.236826 0.0141952 0.971448
    outer loop
      vertex -8.72998 -6.30945 6.37564
      vertex -9.18925 -11.4827 6.33927
      vertex -6.95047 -6.30945 6.80946
    endloop
  endfacet
  facet normal -0.230141 0.0111528 0.973093
    outer loop
      vertex -6.95047 -6.30945 6.80946
      vertex -9.18925 -11.4827 6.33927
      vertex -7.40975 -12.6135 6.77309
    endloop
  endfacet
  facet normal 0.996599 -0.0823997 0
    outer loop
      vertex -7.78016 -10.45 4.55771
      vertex -7.95904 -12.6135 4.52345
      vertex -7.78016 -10.45 4.55
    endloop
  endfacet
  facet normal 0.996599 -0.0824045 0.000395744
    outer loop
      vertex -7.78016 -10.45 4.55
      vertex -7.95904 -12.6135 4.52345
      vertex -7.375 -5.55 4.55
    endloop
  endfacet
  facet normal 0.996599 -0.082403 6.50652e-06
    outer loop
      vertex -7.375 -5.55 4.55
      vertex -7.95904 -12.6135 4.52345
      vertex -6.8521 0.773966 3.38009
    endloop
  endfacet
  facet normal 0.996599 -0.0824036 0
    outer loop
      vertex -7.95904 -12.6135 4.52345
      vertex -7.95904 -12.6135 3.16814
      vertex -6.8521 0.773966 3.38009
    endloop
  endfacet
  facet normal 0.968626 -0.0763416 -0.236507
    outer loop
      vertex -7.40975 -12.6135 6.77309
      vertex -7.95904 -12.6135 4.52345
      vertex -7.78016 -10.45 4.55771
    endloop
  endfacet
  facet normal 0 1 0
    outer loop
      vertex -8.63161 0.773966 4.7354
      vertex -6.8521 0.773966 4.7354
      vertex -7.73514 0.773966 3.38009
    endloop
  endfacet
  facet normal 0 1 0
    outer loop
      vertex -7.73514 0.773966 3.38009
      vertex -6.8521 0.773966 4.7354
      vertex -6.8521 0.773966 3.38009
    endloop
  endfacet
  facet normal 0.996599 -0.0824042 0
    outer loop
      vertex -7.375 -5.55 4.63528
      vertex -7.375 -5.55 4.55
      vertex -6.8521 0.773966 3.38009
    endloop
  endfacet
  facet normal 0.996599 -0.0824042 0
    outer loop
      vertex -6.8521 0.773966 4.7354
      vertex -7.375 -5.55 4.63528
      vertex -6.8521 0.773966 3.38009
    endloop
  endfacet
  facet normal -0.715464 0.513958 -0.473243
    outer loop
      vertex -7.73514 0.773966 3.38009
      vertex -9.68064 -1.9343 3.38009
      vertex -8.63161 0.773966 4.7354
    endloop
  endfacet
  facet normal -0.715466 0.513957 -0.47324
    outer loop
      vertex -9.68064 -1.9343 3.38009
      vertex -10.5771 -1.9343 4.7354
      vertex -8.63161 0.773966 4.7354
    endloop
  endfacet
  facet normal -0.634478 0.649087 -0.419671
    outer loop
      vertex -9.68064 -1.9343 3.38009
      vertex -11.8063 -4.01212 3.38009
      vertex -10.5771 -1.9343 4.7354
    endloop
  endfacet
  facet normal -0.432062 0.855361 -0.285797
    outer loop
      vertex -15.1371 -5.24174 4.7354
      vertex -12.7028 -4.01212 4.7354
      vertex -14.2406 -5.24174 3.38009
    endloop
  endfacet
  facet normal -0.432062 0.855361 -0.285797
    outer loop
      vertex -14.2406 -5.24174 3.38009
      vertex -12.7028 -4.01212 4.7354
      vertex -11.8063 -4.01212 3.38009
    endloop
  endfacet
  facet normal -0.634468 0.649089 -0.419683
    outer loop
      vertex -11.8063 -4.01212 3.38009
      vertex -12.7028 -4.01212 4.7354
      vertex -10.5771 -1.9343 4.7354
    endloop
  endfacet
  facet normal -0.41353 0.86843 -0.273538
    outer loop
      vertex -14.2406 -5.24174 3.38009
      vertex -15.8179 -5.99282 3.38009
      vertex -15.1371 -5.24174 4.7354
    endloop
  endfacet
  facet normal 0.00310855 0.999819 0.0187818
    outer loop
      vertex -15.2355 -6.30945 6.37564
      vertex -17.3455 -6.29002 5.69054
      vertex -16.8127 -6.30945 6.63668
    endloop
  endfacet
  facet normal -0.216146 0.695333 0.685414
    outer loop
      vertex -14.9293 -5.53894 5.69054
      vertex -17.3455 -6.29002 5.69054
      vertex -15.2355 -6.30945 6.37564
    endloop
  endfacet
  facet normal -0.422046 0.835531 0.351803
    outer loop
      vertex -12.7028 -4.01212 4.7354
      vertex -15.1371 -5.24174 4.7354
      vertex -14.9293 -5.53894 5.69054
    endloop
  endfacet
  facet normal -0.42205 0.835532 0.351795
    outer loop
      vertex -12.7028 -4.01212 4.7354
      vertex -14.9293 -5.53894 5.69054
      vertex -12.495 -4.30931 5.69054
    endloop
  endfacet
  facet normal -0.173142 0.342769 0.923326
    outer loop
      vertex -12.495 -4.30931 5.69054
      vertex -14.9293 -5.53894 5.69054
      vertex -12.8012 -6.30945 6.37564
    endloop
  endfacet
  facet normal 0 0.664473 0.747312
    outer loop
      vertex -14.9293 -5.53894 5.69054
      vertex -15.2355 -6.30945 6.37564
      vertex -12.8012 -6.30945 6.37564
    endloop
  endfacet
  facet normal 0 0.324044 0.946042
    outer loop
      vertex -12.495 -4.30931 5.69054
      vertex -12.8012 -6.30945 6.37564
      vertex -10.6755 -6.30945 6.37564
    endloop
  endfacet
  facet normal 0 0.165679 0.98618
    outer loop
      vertex -10.3693 -2.23149 5.69054
      vertex -10.6755 -6.30945 6.37564
      vertex -8.72998 -6.30945 6.37564
    endloop
  endfacet
  facet normal -0.171789 0.175747 0.96933
    outer loop
      vertex -10.3693 -2.23149 5.69054
      vertex -12.495 -4.30931 5.69054
      vertex -10.6755 -6.30945 6.37564
    endloop
  endfacet
  facet normal -0.235461 0.108132 0.96585
    outer loop
      vertex -8.42376 0.476772 5.69054
      vertex -8.72998 -6.30945 6.37564
      vertex -6.95047 -6.30945 6.80946
    endloop
  endfacet
  facet normal -0.147459 0.105931 0.983379
    outer loop
      vertex -8.42376 0.476772 5.69054
      vertex -10.3693 -2.23149 5.69054
      vertex -8.72998 -6.30945 6.37564
    endloop
  endfacet
  facet normal 0.969123 -0.0760693 -0.234552
    outer loop
      vertex -6.64426 0.476772 5.69054
      vertex -7.40975 -12.6135 6.77309
      vertex -6.8521 0.773966 4.7354
    endloop
  endfacet
  facet normal 0.968623 -0.0763477 -0.236518
    outer loop
      vertex -6.8521 0.773966 4.7354
      vertex -7.40975 -12.6135 6.77309
      vertex -7.17607 -5.55 5.45
    endloop
  endfacet
  facet normal 0.968626 -0.0763455 -0.236506
    outer loop
      vertex -7.40975 -12.6135 6.77309
      vertex -7.56228 -10.45 5.45
      vertex -7.17607 -5.55 5.45
    endloop
  endfacet
  facet normal 0.968622 -0.076354 -0.236519
    outer loop
      vertex -7.40975 -12.6135 6.77309
      vertex -7.78016 -10.45 4.55771
      vertex -7.56228 -10.45 5.45
    endloop
  endfacet
  facet normal 0.984574 -0.0708078 -0.160003
    outer loop
      vertex -6.95047 -6.30945 6.80946
      vertex -7.40975 -12.6135 6.77309
      vertex -6.64426 0.476772 5.69054
    endloop
  endfacet
  facet normal 0 0.162685 0.986678
    outer loop
      vertex -6.64426 0.476772 5.69054
      vertex -8.42376 0.476772 5.69054
      vertex -6.95047 -6.30945 6.80946
    endloop
  endfacet
  facet normal 0 -1 0
    outer loop
      vertex -7.78016 -10.45 4.55771
      vertex -7.78016 -10.45 4.55
      vertex -6.55 -10.45 4.55
    endloop
  endfacet
  facet normal 0 -1 0
    outer loop
      vertex -7.56228 -10.45 5.45
      vertex -7.78016 -10.45 4.55771
      vertex -6.55 -10.45 5.45
    endloop
  endfacet
  facet normal 0 -1 0
    outer loop
      vertex -6.55 -10.45 5.45
      vertex -7.78016 -10.45 4.55771
      vertex -6.55 -10.45 4.55
    endloop
  endfacet
  facet normal 0 0 -1
    outer loop
      vertex -7.78016 -10.45 4.55
      vertex -7.375 -5.55 4.55
      vertex -6.55 -10.45 4.55
    endloop
  endfacet
  facet normal 0 0 -1
    outer loop
      vertex -6.55 -10.45 4.55
      vertex -7.375 -5.55 4.55
      vertex -6.55 -5.55 4.55
    endloop
  endfacet
  facet normal 0 1 0
    outer loop
      vertex -7.375 -5.55 4.55
      vertex -7.375 -5.55 4.63528
      vertex -6.55 -5.55 4.55
    endloop
  endfacet
  facet normal 0 1 0
    outer loop
      vertex -6.55 -5.55 4.55
      vertex -7.375 -5.55 4.63528
      vertex -7.17607 -5.55 5.45
    endloop
  endfacet
  facet normal 0 1 0
    outer loop
      vertex -6.55 -5.55 4.55
      vertex -7.17607 -5.55 5.45
      vertex -6.55 -5.55 5.45
    endloop
  endfacet
  facet normal 0 0.954846 0.297102
    outer loop
      vertex -8.63161 0.773966 4.7354
      vertex -8.42376 0.476772 5.69054
      vertex -6.8521 0.773966 4.7354
    endloop
  endfacet
  facet normal 0 0.954846 0.297102
    outer loop
      vertex -6.8521 0.773966 4.7354
      vertex -8.42376 0.476772 5.69054
      vertex -6.64426 0.476772 5.69054
    endloop
  endfacet
  facet normal 0.968625 -0.0763468 -0.236509
    outer loop
      vertex -7.17607 -5.55 5.45
      vertex -7.375 -5.55 4.63528
      vertex -6.8521 0.773966 4.7354
    endloop
  endfacet
  facet normal -0.764579 0.549238 0.337278
    outer loop
      vertex -8.63161 0.773966 4.7354
      vertex -10.5771 -1.9343 4.7354
      vertex -8.42376 0.476772 5.69054
    endloop
  endfacet
  facet normal -0.764583 0.549255 0.337242
    outer loop
      vertex -8.42376 0.476772 5.69054
      vertex -10.5771 -1.9343 4.7354
      vertex -10.3693 -2.23149 5.69054
    endloop
  endfacet
  facet normal -0.654591 0.669675 0.350781
    outer loop
      vertex -10.5771 -1.9343 4.7354
      vertex -12.7028 -4.01212 4.7354
      vertex -10.3693 -2.23149 5.69054
    endloop
  endfacet
  facet normal -0.654591 0.669675 0.350781
    outer loop
      vertex -10.3693 -2.23149 5.69054
      vertex -12.7028 -4.01212 4.7354
      vertex -12.495 -4.30931 5.69054
    endloop
  endfacet
  facet normal 0 0 1
    outer loop
      vertex -7.17607 -5.55 5.45
      vertex -7.56228 -10.45 5.45
      vertex -6.55 -10.45 5.45
    endloop
  endfacet
  facet normal 0 0 1
    outer loop
      vertex -6.55 -5.55 5.45
      vertex -7.17607 -5.55 5.45
      vertex -6.55 -10.45 5.45
    endloop
  endfacet
  facet normal 1 0 0
    outer loop
      vertex -6.55 -10.25 4.75
      vertex -6.55 -10.45 4.55
      vertex -6.55 -5.55 4.55
    endloop
  endfacet
  facet normal 1 0 0
    outer loop
      vertex -6.55 -10.45 5.45
      vertex -6.55 -10.45 4.55
      vertex -6.55 -10.25 4.75
    endloop
  endfacet
  facet normal 1 0 0
    outer loop
      vertex -6.55 -10.25 5.25
      vertex -6.55 -5.75 5.25
      vertex -6.55 -10.45 5.45
    endloop
  endfacet
  facet normal 1 0 0
    outer loop
      vertex -6.55 -10.45 5.45
      vertex -6.55 -10.25 4.75
      vertex -6.55 -10.25 5.25
    endloop
  endfacet
  facet normal 1 0 0
    outer loop
      vertex -6.55 -5.55 5.45
      vertex -6.55 -5.75 5.25
      vertex -6.55 -5.55 4.55
    endloop
  endfacet
  facet normal 1 0 0
    outer loop
      vertex -6.55 -5.55 5.45
      vertex -6.55 -10.45 5.45
      vertex -6.55 -5.75 5.25
    endloop
  endfacet
  facet normal 1 0 0
    outer loop
      vertex -6.55 -5.75 5.25
      vertex -6.55 -5.75 4.75
      vertex -6.55 -5.55 4.55
    endloop
  endfacet
  facet normal 1 0 0
    outer loop
      vertex -6.55 -5.75 4.75
      vertex -6.55 -10.25 4.75
      vertex -6.55 -5.55 4.55
    endloop
  endfacet
  facet normal 0 0 -1
    outer loop
      vertex -6.55 -10.25 4.75
      vertex -6.55 -5.75 4.75
      vertex -5.75 -10.25 4.75
    endloop
  endfacet
  facet normal 0 0 -1
    outer loop
      vertex -5.75 -10.25 4.75
      vertex -6.55 -5.75 4.75
      vertex -5.75 -5.75 4.75
    endloop
  endfacet
  facet normal 0 -1 0
    outer loop
      vertex -6.55 -10.25 5.25
      vertex -6.55 -10.25 4.75
      vertex -5.75 -10.25 4.75
    endloop
  endfacet
  facet normal 0 -1 0
    outer loop
      vertex -5.75 -10.25 5.25
      vertex -6.55 -10.25 5.25
      vertex -5.75 -10.25 4.75
    endloop
  endfacet
  facet normal 0 1 0
    outer loop
      vertex -6.55 -5.75 4.75
      vertex -6.55 -5.75 5.25
      vertex -5.75 -5.75 4.75
    endloop
  endfacet
  facet normal 0 1 0
    outer loop
      vertex -5.75 -5.75 4.75
      vertex -6.55 -5.75 5.25
      vertex -5.75 -5.75 5.25
    endloop
  endfacet
  facet normal 0 0 1
    outer loop
      vertex -6.55 -5.75 5.25
      vertex -6.55 -10.25 5.25
      vertex -5.75 -10.25 5.25
    endloop
  endfacet
  facet normal 0 0 1
    outer loop
      vertex -5.75 -5.75 5.25
      vertex -6.55 -5.75 5.25
      vertex -5.75 -10.25 5.25
    endloop
  endfacet
  facet normal 1 0 0
    outer loop
      vertex -5.75 -10.25 5.25
      vertex -5.75 -10.25 4.75
      vertex -5.75 -5.75 4.75
    endloop
  endfacet
  facet normal 1 0 0
    outer loop
      vertex -5.75 -5.75 5.25
      vertex -5.75 -10.25 5.25
      vertex -5.75 -5.75 4.75
    endloop
  endfacet
  facet normal -1 0 0
    outer loop
      vertex 5.75 -10.25 4.75
      vertex 5.75 -10.25 5.25
      vertex 5.75 -5.75 4.75
    endloop
  endfacet
  facet normal -1 0 0
    outer loop
      vertex 5.75 -5.75 4.75
      vertex 5.75 -10.25 5.25
      vertex 5.75 -5.75 5.25
    endloop
  endfacet
  facet normal 0 -1 0
    outer loop
      vertex 5.75 -10.25 5.25
      vertex 5.75 -10.25 4.75
      vertex 6.55 -10.25 4.75
    endloop
  endfacet
  facet normal 0 -1 0
    outer loop
      vertex 6.55 -10.25 5.25
      vertex 5.75 -10.25 5.25
      vertex 6.55 -10.25 4.75
    endloop
  endfacet
  facet normal 0 0 -1
    outer loop
      vertex 5.75 -10.25 4.75
      vertex 5.75 -5.75 4.75
      vertex 6.55 -10.25 4.75
    endloop
  endfacet
  facet normal 0 0 -1
    outer loop
      vertex 6.55 -10.25 4.75
      vertex 5.75 -5.75 4.75
      vertex 6.55 -5.75 4.75
    endloop
  endfacet
  facet normal 0 1 0
    outer loop
      vertex 5.75 -5.75 4.75
      vertex 5.75 -5.75 5.25
      vertex 6.55 -5.75 4.75
    endloop
  endfacet
  facet normal 0 1 0
    outer loop
      vertex 6.55 -5.75 4.75
      vertex 5.75 -5.75 5.25
      vertex 6.55 -5.75 5.25
    endloop
  endfacet
  facet normal 0 0 1
    outer loop
      vertex 5.75 -5.75 5.25
      vertex 5.75 -10.25 5.25
      vertex 6.55 -10.25 5.25
    endloop
  endfacet
  facet normal 0 0 1
    outer loop
      vertex 6.55 -5.75 5.25
      vertex 5.75 -5.75 5.25
      vertex 6.55 -10.25 5.25
    endloop
  endfacet
  facet normal -1 0 0
    outer loop
      vertex 6.55 -5.75 4.75
      vertex 6.55 -5.55 4.55
      vertex 6.55 -10.25 4.75
    endloop
  endfacet
  facet normal -1 0 0
    outer loop
      vertex 6.55 -5.75 5.25
      vertex 6.55 -10.45 5.45
      vertex 6.55 -5.55 5.45
    endloop
  endfacet
  facet normal -1 0 0
    outer loop
      vertex 6.55 -10.45 4.55
      vertex 6.55 -10.45 5.45
      vertex 6.55 -10.25 5.25
    endloop
  endfacet
  facet normal -1 0 0
    outer loop
      vertex 6.55 -10.45 4.55
      vertex 6.55 -10.25 5.25
      vertex 6.55 -10.25 4.75
    endloop
  endfacet
  facet normal -1 0 0
    outer loop
      vertex 6.55 -10.45 4.55
      vertex 6.55 -10.25 4.75
      vertex 6.55 -5.55 4.55
    endloop
  endfacet
  facet normal -1 0 0
    outer loop
      vertex 6.55 -5.55 4.55
      vertex 6.55 -5.75 4.75
      vertex 6.55 -5.55 5.45
    endloop
  endfacet
  facet normal -1 0 0
    outer loop
      vertex 6.55 -5.75 4.75
      vertex 6.55 -5.75 5.25
      vertex 6.55 -5.55 5.45
    endloop
  endfacet
  facet normal -1 0 0
    outer loop
      vertex 6.55 -10.25 5.25
      vertex 6.55 -10.45 5.45
      vertex 6.55 -5.75 5.25
    endloop
  endfacet
  facet normal 0 1 0
    outer loop
      vertex 6.55 -5.55 4.55
      vertex 6.55 -5.55 5.45
      vertex 7.375 -5.55 4.55
    endloop
  endfacet
  facet normal 0 1 0
    outer loop
      vertex 7.375 -5.55 4.55
      vertex 6.55 -5.55 5.45
      vertex 7.17607 -5.55 5.45
    endloop
  endfacet
  facet normal 0 1 0
    outer loop
      vertex 7.375 -5.55 4.55
      vertex 7.17607 -5.55 5.45
      vertex 7.375 -5.55 4.63528
    endloop
  endfacet
  facet normal 0 0 -1
    outer loop
      vertex 6.55 -10.45 4.55
      vertex 6.55 -5.55 4.55
      vertex 7.78016 -10.45 4.55
    endloop
  endfacet
  facet normal 0 0 -1
    outer loop
      vertex 7.78016 -10.45 4.55
      vertex 6.55 -5.55 4.55
      vertex 7.375 -5.55 4.55
    endloop
  endfacet
  facet normal 0 0 1
    outer loop
      vertex 6.55 -5.55 5.45
      vertex 6.55 -10.45 5.45
      vertex 7.56228 -10.45 5.45
    endloop
  endfacet
  facet normal 0 0 1
    outer loop
      vertex 7.17607 -5.55 5.45
      vertex 6.55 -5.55 5.45
      vertex 7.56228 -10.45 5.45
    endloop
  endfacet
  facet normal 0 -1 0
    outer loop
      vertex 6.55 -10.45 5.45
      vertex 6.55 -10.45 4.55
      vertex 7.78016 -10.45 4.55
    endloop
  endfacet
  facet normal 0 -1 0
    outer loop
      vertex 7.56228 -10.45 5.45
      vertex 6.55 -10.45 5.45
      vertex 7.78016 -10.45 4.55771
    endloop
  endfacet
  facet normal 0 -1 0
    outer loop
      vertex 7.78016 -10.45 4.55771
      vertex 6.55 -10.45 5.45
      vertex 7.78016 -10.45 4.55
    endloop
  endfacet
  facet normal -0.996599 -0.0824042 0
    outer loop
      vertex 7.375 -5.55 4.63528
      vertex 6.8521 0.773966 4.7354
      vertex 7.375 -5.55 4.55
    endloop
  endfacet
  facet normal -0.996599 -0.0824045 7.60352e-06
    outer loop
      vertex 7.78016 -10.45 4.55
      vertex 7.375 -5.55 4.55
      vertex 7.95904 -12.6135 3.16814
    endloop
  endfacet
  facet normal -0.996599 -0.0824045 7.38433e-06
    outer loop
      vertex 7.375 -5.55 4.55
      vertex 6.8521 0.773966 4.7354
      vertex 7.95904 -12.6135 3.16814
    endloop
  endfacet
  facet normal -0.968625 -0.0763468 -0.236509
    outer loop
      vertex 7.17607 -5.55 5.45
      vertex 6.8521 0.773966 4.7354
      vertex 7.375 -5.55 4.63528
    endloop
  endfacet
  facet normal -0.968626 -0.0763455 -0.236506
    outer loop
      vertex 7.40975 -12.6135 6.77309
      vertex 7.17607 -5.55 5.45
      vertex 7.56228 -10.45 5.45
    endloop
  endfacet
  facet normal -0.968623 -0.0763477 -0.236518
    outer loop
      vertex 7.40975 -12.6135 6.77309
      vertex 6.8521 0.773966 4.7354
      vertex 7.17607 -5.55 5.45
    endloop
  endfacet
  facet normal -0.996599 -0.0823997 0
    outer loop
      vertex 7.78016 -10.45 4.55
      vertex 7.95904 -12.6135 3.16814
      vertex 7.78016 -10.45 4.55771
    endloop
  endfacet
  facet normal -0.996599 -0.0823997 0
    outer loop
      vertex 7.78016 -10.45 4.55771
      vertex 7.95904 -12.6135 3.16814
      vertex 7.95904 -12.6135 4.52345
    endloop
  endfacet
  facet normal -0.968622 -0.076354 -0.236519
    outer loop
      vertex 7.78016 -10.45 4.55771
      vertex 7.40975 -12.6135 6.77309
      vertex 7.56228 -10.45 5.45
    endloop
  endfacet
  facet normal -0.968626 -0.0763416 -0.236507
    outer loop
      vertex 7.95904 -12.6135 4.52345
      vertex 7.40975 -12.6135 6.77309
      vertex 7.78016 -10.45 4.55771
    endloop
  endfacet
  facet normal 0 0.954846 0.297102
    outer loop
      vertex 6.64426 0.476772 5.69054
      vertex 8.42376 0.476772 5.69054
      vertex 6.8521 0.773966 4.7354
    endloop
  endfacet
  facet normal 0 0.954846 0.297102
    outer loop
      vertex 6.8521 0.773966 4.7354
      vertex 8.42376 0.476772 5.69054
      vertex 8.63161 0.773966 4.7354
    endloop
  endfacet
  facet normal -0.969123 -0.0760693 -0.234552
    outer loop
      vertex 7.40975 -12.6135 6.77309
      vertex 6.64426 0.476772 5.69054
      vertex 6.8521 0.773966 4.7354
    endloop
  endfacet
  facet normal -0.996599 -0.0824036 0
    outer loop
      vertex 6.8521 0.773966 4.7354
      vertex 6.8521 0.773966 3.38009
      vertex 7.95904 -12.6135 3.16814
    endloop
  endfacet
  facet normal 0 1 0
    outer loop
      vertex 6.8521 0.773966 3.38009
      vertex 6.8521 0.773966 4.7354
      vertex 7.73514 0.773966 3.38009
    endloop
  endfacet
  facet normal 0 1 0
    outer loop
      vertex 7.73514 0.773966 3.38009
      vertex 6.8521 0.773966 4.7354
      vertex 8.63161 0.773966 4.7354
    endloop
  endfacet
  facet normal -0.0183279 0.0143123 -0.99973
    outer loop
      vertex 7.95904 -12.6135 3.16814
      vertex 6.8521 0.773966 3.38009
      vertex 8.84208 -11.4827 3.16814
    endloop
  endfacet
  facet normal 0.788159 -0.615472 0
    outer loop
      vertex 7.95904 -12.6135 4.52345
      vertex 7.95904 -12.6135 3.16814
      vertex 8.84208 -11.4827 3.16814
    endloop
  endfacet
  facet normal -0.984574 -0.0708078 -0.160003
    outer loop
      vertex 6.95047 -6.30945 6.80946
      vertex 6.64426 0.476772 5.69054
      vertex 7.40975 -12.6135 6.77309
    endloop
  endfacet
  facet normal 0.230141 0.0111528 0.973093
    outer loop
      vertex 9.18925 -11.4827 6.33927
      vertex 6.95047 -6.30945 6.80946
      vertex 7.40975 -12.6135 6.77309
    endloop
  endfacet
  facet normal 0.554701 -0.820953 0.13544
    outer loop
      vertex 9.18925 -11.4827 6.33927
      vertex 7.40975 -12.6135 6.77309
      vertex 7.95904 -12.6135 4.52345
    endloop
  endfacet
  facet normal 0.529407 -0.833114 0.16015
    outer loop
      vertex 9.18925 -11.4827 6.33927
      vertex 7.95904 -12.6135 4.52345
      vertex 9.73855 -11.4827 4.52345
    endloop
  endfacet
  facet normal 0.505466 -0.795438 -0.33434
    outer loop
      vertex 9.73855 -11.4827 4.52345
      vertex 7.95904 -12.6135 4.52345
      vertex 8.84208 -11.4827 3.16814
    endloop
  endfacet
  facet normal 0.764579 0.549238 0.337278
    outer loop
      vertex 8.63161 0.773966 4.7354
      vertex 8.42376 0.476772 5.69054
      vertex 10.5771 -1.9343 4.7354
    endloop
  endfacet
  facet normal 0.715464 0.513958 -0.473243
    outer loop
      vertex 9.68064 -1.9343 3.38009
      vertex 7.73514 0.773966 3.38009
      vertex 8.63161 0.773966 4.7354
    endloop
  endfacet
  facet normal 0.715466 0.513957 -0.47324
    outer loop
      vertex 9.68064 -1.9343 3.38009
      vertex 8.63161 0.773966 4.7354
      vertex 10.5771 -1.9343 4.7354
    endloop
  endfacet
  facet normal 0.147459 0.105931 0.983379
    outer loop
      vertex 10.3693 -2.23149 5.69054
      vertex 8.42376 0.476772 5.69054
      vertex 8.72998 -6.30945 6.37564
    endloop
  endfacet
  facet normal 0.235461 0.108132 0.96585
    outer loop
      vertex 8.42376 0.476772 5.69054
      vertex 6.95047 -6.30945 6.80946
      vertex 8.72998 -6.30945 6.37564
    endloop
  endfacet
  facet normal 0 0.162685 0.986678
    outer loop
      vertex 8.42376 0.476772 5.69054
      vertex 6.64426 0.476772 5.69054
      vertex 6.95047 -6.30945 6.80946
    endloop
  endfacet
  facet normal 0.764583 0.549255 0.337242
    outer loop
      vertex 10.5771 -1.9343 4.7354
      vertex 8.42376 0.476772 5.69054
      vertex 10.3693 -2.23149 5.69054
    endloop
  endfacet
  facet normal 0 0.01729 -0.999851
    outer loop
      vertex 8.84208 -11.4827 3.16814
      vertex 6.8521 0.773966 3.38009
      vertex 7.73514 0.773966 3.38009
    endloop
  endfacet
  facet normal 0.0275183 0.019768 -0.999426
    outer loop
      vertex 8.84208 -11.4827 3.16814
      vertex 7.73514 0.773966 3.38009
      vertex 9.68064 -1.9343 3.38009
    endloop
  endfacet
  facet normal 0 -1 0
    outer loop
      vertex 9.73855 -11.4827 4.52345
      vertex 8.84208 -11.4827 3.16814
      vertex 10.7876 -11.4827 3.16814
    endloop
  endfacet
  facet normal 0 -1 0
    outer loop
      vertex 15.3476 -11.4827 3.16814
      vertex 9.73855 -11.4827 4.52345
      vertex 12.9133 -11.4827 3.16814
    endloop
  endfacet
  facet normal 0 -1 0
    outer loop
      vertex 12.9133 -11.4827 3.16814
      vertex 9.73855 -11.4827 4.52345
      vertex 10.7876 -11.4827 3.16814
    endloop
  endfacet
  facet normal 0 -1 0
    outer loop
      vertex 16.9248 -11.4827 3.16814
      vertex 9.73855 -11.4827 4.52345
      vertex 15.3476 -11.4827 3.16814
    endloop
  endfacet
  facet normal 0 -1 0
    outer loop
      vertex 16.244 -11.4827 4.52345
      vertex 9.73855 -11.4827 4.52345
      vertex 16.9248 -11.4827 3.16814
    endloop
  endfacet
  facet normal 0 -1 0
    outer loop
      vertex 17.8213 -11.4827 4.52345
      vertex 16.244 -11.4827 4.52345
      vertex 16.9248 -11.4827 3.16814
    endloop
  endfacet
  facet normal 0 0.022192 -0.999754
    outer loop
      vertex 10.7876 -11.4827 3.16814
      vertex 8.84208 -11.4827 3.16814
      vertex 9.68064 -1.9343 3.38009
    endloop
  endfacet
  facet normal 0.236826 0.0141952 0.971448
    outer loop
      vertex 8.72998 -6.30945 6.37564
      vertex 6.95047 -6.30945 6.80946
      vertex 9.18925 -11.4827 6.33927
    endloop
  endfacet
  facet normal 0.00345578 -0.0067234 0.999971
    outer loop
      vertex 11.1348 -10.4827 6.33927
      vertex 8.72998 -6.30945 6.37564
      vertex 9.18925 -11.4827 6.33927
    endloop
  endfacet
  facet normal 0.452833 -0.881009 0.136986
    outer loop
      vertex 11.1348 -10.4827 6.33927
      vertex 9.18925 -11.4827 6.33927
      vertex 9.73855 -11.4827 4.52345
    endloop
  endfacet
  facet normal 0 -0.875951 0.4824
    outer loop
      vertex 11.1348 -10.4827 6.33927
      vertex 9.73855 -11.4827 4.52345
      vertex 16.244 -11.4827 4.52345
    endloop
  endfacet
  facet normal 0 -0.875951 0.4824
    outer loop
      vertex 15.6947 -10.4827 6.33927
      vertex 11.1348 -10.4827 6.33927
      vertex 16.244 -11.4827 4.52345
    endloop
  endfacet
  facet normal 0.654591 0.669675 0.350781
    outer loop
      vertex 10.5771 -1.9343 4.7354
      vertex 10.3693 -2.23149 5.69054
      vertex 12.7028 -4.01212 4.7354
    endloop
  endfacet
  facet normal 0.634478 0.649087 -0.419671
    outer loop
      vertex 11.8063 -4.01212 3.38009
      vertex 9.68064 -1.9343 3.38009
      vertex 10.5771 -1.9343 4.7354
    endloop
  endfacet
  facet normal 0.634468 0.649089 -0.419683
    outer loop
      vertex 11.8063 -4.01212 3.38009
      vertex 10.5771 -1.9343 4.7354
      vertex 12.7028 -4.01212 4.7354
    endloop
  endfacet
  facet normal 0.024456 0.0250191 -0.999388
    outer loop
      vertex 10.7876 -11.4827 3.16814
      vertex 9.68064 -1.9343 3.38009
      vertex 11.8063 -4.01212 3.38009
    endloop
  endfacet
  facet normal 0.171789 0.175747 0.96933
    outer loop
      vertex 12.495 -4.30931 5.69054
      vertex 10.3693 -2.23149 5.69054
      vertex 10.6755 -6.30945 6.37564
    endloop
  endfacet
  facet normal 0 0.165679 0.98618
    outer loop
      vertex 10.3693 -2.23149 5.69054
      vertex 8.72998 -6.30945 6.37564
      vertex 10.6755 -6.30945 6.37564
    endloop
  endfacet
  facet normal 0.654591 0.669675 0.350781
    outer loop
      vertex 12.7028 -4.01212 4.7354
      vertex 10.3693 -2.23149 5.69054
      vertex 12.495 -4.30931 5.69054
    endloop
  endfacet
  facet normal 0 -0.0087147 0.999962
    outer loop
      vertex 10.6755 -6.30945 6.37564
      vertex 8.72998 -6.30945 6.37564
      vertex 11.1348 -10.4827 6.33927
    endloop
  endfacet
  facet normal 0 -0.0087147 0.999962
    outer loop
      vertex 12.8012 -6.30945 6.37564
      vertex 10.6755 -6.30945 6.37564
      vertex 15.6947 -10.4827 6.33927
    endloop
  endfacet
  facet normal 0 -0.0087147 0.999962
    outer loop
      vertex 15.6947 -10.4827 6.33927
      vertex 10.6755 -6.30945 6.37564
      vertex 11.1348 -10.4827 6.33927
    endloop
  endfacet
  facet normal 0 -0.0087147 0.999962
    outer loop
      vertex 15.2355 -6.30945 6.37564
      vertex 12.8012 -6.30945 6.37564
      vertex 15.6947 -10.4827 6.33927
    endloop
  endfacet
  facet normal 0 -0.494681 0.869075
    outer loop
      vertex 17.272 -9.45378 5.67832
      vertex 16.244 -11.4827 4.52345
      vertex 17.8213 -11.4827 4.52345
    endloop
  endfacet
  facet normal 0.609109 -0.602306 0.515959
    outer loop
      vertex 17.272 -9.45378 5.67832
      vertex 15.6947 -10.4827 6.33927
      vertex 16.244 -11.4827 4.52345
    endloop
  endfacet
  facet normal 0.973301 0.191348 0.126771
    outer loop
      vertex 17.8213 -11.4827 4.52345
      vertex 16.7144 -5.99282 4.7354
      vertex 17.272 -9.45378 5.67832
    endloop
  endfacet
  facet normal 0.819466 0.186153 -0.542054
    outer loop
      vertex 16.9248 -11.4827 3.16814
      vertex 16.7144 -5.99282 4.7354
      vertex 17.8213 -11.4827 4.52345
    endloop
  endfacet
  facet normal 0 0.0385787 -0.999256
    outer loop
      vertex 16.9248 -11.4827 3.16814
      vertex 15.3476 -11.4827 3.16814
      vertex 15.8179 -5.99282 3.38009
    endloop
  endfacet
  facet normal 0.819466 0.186153 -0.542054
    outer loop
      vertex 16.9248 -11.4827 3.16814
      vertex 15.8179 -5.99282 3.38009
      vertex 16.7144 -5.99282 4.7354
    endloop
  endfacet
  facet normal 0 0.0339416 -0.999424
    outer loop
      vertex 15.3476 -11.4827 3.16814
      vertex 12.9133 -11.4827 3.16814
      vertex 14.2406 -5.24174 3.38009
    endloop
  endfacet
  facet normal 0.0176487 0.037063 -0.999157
    outer loop
      vertex 15.3476 -11.4827 3.16814
      vertex 14.2406 -5.24174 3.38009
      vertex 15.8179 -5.99282 3.38009
    endloop
  endfacet
  facet normal 0 0.0283599 -0.999598
    outer loop
      vertex 12.9133 -11.4827 3.16814
      vertex 10.7876 -11.4827 3.16814
      vertex 11.8063 -4.01212 3.38009
    endloop
  endfacet
  facet normal 0.0154813 0.0306486 -0.99941
    outer loop
      vertex 12.9133 -11.4827 3.16814
      vertex 11.8063 -4.01212 3.38009
      vertex 14.2406 -5.24174 3.38009
    endloop
  endfacet
  facet normal 0.368213 0.0324183 0.929176
    outer loop
      vertex 17.272 -9.45378 5.67832
      vertex 15.2355 -6.30945 6.37564
      vertex 15.6947 -10.4827 6.33927
    endloop
  endfacet
  facet normal 0.42205 0.835532 0.351795
    outer loop
      vertex 12.7028 -4.01212 4.7354
      vertex 12.495 -4.30931 5.69054
      vertex 14.9293 -5.53894 5.69054
    endloop
  endfacet
  facet normal 0.432062 0.855361 -0.285797
    outer loop
      vertex 11.8063 -4.01212 3.38009
      vertex 12.7028 -4.01212 4.7354
      vertex 14.2406 -5.24174 3.38009
    endloop
  endfacet
  facet normal 0.432062 0.855361 -0.285797
    outer loop
      vertex 14.2406 -5.24174 3.38009
      vertex 12.7028 -4.01212 4.7354
      vertex 15.1371 -5.24174 4.7354
    endloop
  endfacet
  facet normal 0.422046 0.835531 0.351803
    outer loop
      vertex 15.1371 -5.24174 4.7354
      vertex 12.7028 -4.01212 4.7354
      vertex 14.9293 -5.53894 5.69054
    endloop
  endfacet
  facet normal 0.173142 0.342769 0.923326
    outer loop
      vertex 14.9293 -5.53894 5.69054
      vertex 12.495 -4.30931 5.69054
      vertex 12.8012 -6.30945 6.37564
    endloop
  endfacet
  facet normal 0 0.324044 0.946042
    outer loop
      vertex 12.495 -4.30931 5.69054
      vertex 10.6755 -6.30945 6.37564
      vertex 12.8012 -6.30945 6.37564
    endloop
  endfacet
  facet normal 0 0.664473 0.747312
    outer loop
      vertex 14.9293 -5.53894 5.69054
      vertex 12.8012 -6.30945 6.37564
      vertex 15.2355 -6.30945 6.37564
    endloop
  endfacet
  facet normal -0.155312 -0.3087 0.938394
    outer loop
      vertex 16.8127 -6.30945 6.63668
      vertex 15.2355 -6.30945 6.37564
      vertex 17.272 -9.45378 5.67832
    endloop
  endfacet
  facet normal 0.216146 0.695333 0.685414
    outer loop
      vertex 17.3455 -6.29002 5.69054
      vertex 14.9293 -5.53894 5.69054
      vertex 15.2355 -6.30945 6.37564
    endloop
  endfacet
  facet normal -0.00310855 0.999819 0.0187818
    outer loop
      vertex 17.3455 -6.29002 5.69054
      vertex 15.2355 -6.30945 6.37564
      vertex 16.8127 -6.30945 6.63668
    endloop
  endfacet
  facet normal 0.831735 -0.0171794 -0.554907
    outer loop
      vertex 17.272 -9.45378 5.67832
      vertex 16.7144 -5.99282 4.7354
      vertex 17.3455 -6.29002 5.69054
    endloop
  endfacet
  facet normal 0.871322 -0.0221359 0.490213
    outer loop
      vertex 17.3455 -6.29002 5.69054
      vertex 16.8127 -6.30945 6.63668
      vertex 17.272 -9.45378 5.67832
    endloop
  endfacet
  facet normal 0.41353 0.86843 -0.273538
    outer loop
      vertex 15.8179 -5.99282 3.38009
      vertex 15.1371 -5.24174 4.7354
      vertex 16.7144 -5.99282 4.7354
    endloop
  endfacet
  facet normal 0.295338 0.950093 0.100488
    outer loop
      vertex 16.7144 -5.99282 4.7354
      vertex 14.9293 -5.53894 5.69054
      vertex 17.3455 -6.29002 5.69054
    endloop
  endfacet
  facet normal 0.402623 0.845525 0.350687
    outer loop
      vertex 15.1371 -5.24174 4.7354
      vertex 14.9293 -5.53894 5.69054
      vertex 16.7144 -5.99282 4.7354
    endloop
  endfacet
  facet normal 0.41353 0.86843 -0.273538
    outer loop
      vertex 15.8179 -5.99282 3.38009
      vertex 14.2406 -5.24174 3.38009
      vertex 15.1371 -5.24174 4.7354
    endloop
  endfacet
endsolid OpenSCAD_Model
