solid OpenSCAD_Model
  facet normal -0.700876 -0.713283 0
    outer loop
      vertex -29.2869 -14.7833 4.29427
      vertex -29.2869 -14.7833 3.70038
      vertex -27.6332 -16.4083 3.70038
    endloop
  endfacet
  facet normal -0.700876 -0.713283 0
    outer loop
      vertex -27.6332 -16.4083 4.29427
      vertex -29.2869 -14.7833 4.29427
      vertex -27.6332 -16.4083 3.70038
    endloop
  endfacet
  facet normal 0 0 -1
    outer loop
      vertex -29.2869 -14.7833 3.70038
      vertex -29.2869 -7.50904 3.70038
      vertex -27.6332 -16.4083 3.70038
    endloop
  endfacet
  facet normal 0 0 -1
    outer loop
      vertex -27.6332 -16.4083 3.70038
      vertex -29.2869 -7.50904 3.70038
      vertex -27.6332 -7.43478 3.70038
    endloop
  endfacet
  facet normal 0 0 -1
    outer loop
      vertex -27.6332 -16.4083 3.70038
      vertex -27.6332 -7.43478 3.70038
      vertex -25.7694 -10.201 3.70038
    endloop
  endfacet
  facet normal 0 0 -1
    outer loop
      vertex -27.6332 -16.4083 3.70038
      vertex -25.7694 -10.201 3.70038
      vertex -24.1719 -10.9096 3.70038
    endloop
  endfacet
  facet normal 0 0 -1
    outer loop
      vertex -27.6332 -16.4083 3.70038
      vertex -24.1719 -10.9096 3.70038
      vertex -24.1719 -17.7017 3.70038
    endloop
  endfacet
  facet normal 0 0 -1
    outer loop
      vertex -27.6332 -16.4083 3.70038
      vertex -24.1719 -17.7017 3.70038
      vertex -25.7694 -17.7017 3.70038
    endloop
  endfacet
  facet normal -1 0 0
    outer loop
      vertex -29.2869 -14.7833 3.70038
      vertex -29.2869 -14.7833 4.29427
      vertex -29.2869 -7.50904 3.70038
    endloop
  endfacet
  facet normal -1 0 0
    outer loop
      vertex -29.2869 -7.50904 3.70038
      vertex -29.2869 -14.7833 4.29427
      vertex -29.2869 -13.8096 4.93392
    endloop
  endfacet
  facet normal -1 0 0
    outer loop
      vertex -29.2869 -7.50904 3.70038
      vertex -29.2869 -13.8096 4.93392
      vertex -29.2869 -8.5324 4.93392
    endloop
  endfacet
  facet normal -1 0 0
    outer loop
      vertex -29.2869 -7.50904 3.70038
      vertex -29.2869 -8.5324 4.93392
      vertex -29.2869 -7.50904 4.29427
    endloop
  endfacet
  facet normal -1 0 0
    outer loop
      vertex -29.2869 -7.50904 3.70038
      vertex -29.2869 -7.50904 4.29427
      vertex -29.2869 -7.43478 3.82071
    endloop
  endfacet
  facet normal -0.474801 -0.483206 0.735578
    outer loop
      vertex -29.2869 -13.8096 4.93392
      vertex -29.2869 -14.7833 4.29427
      vertex -27.6332 -15.4345 4.93392
    endloop
  endfacet
  facet normal -0.474801 -0.483206 0.735579
    outer loop
      vertex -27.6332 -15.4345 4.93392
      vertex -29.2869 -14.7833 4.29427
      vertex -27.6332 -16.4083 4.29427
    endloop
  endfacet
  facet normal -0.356048 -0.513061 0.781024
    outer loop
      vertex -25.7694 -16.728 4.93392
      vertex -27.6332 -16.4083 4.29427
      vertex -25.7694 -17.7017 4.29427
    endloop
  endfacet
  facet normal -0.570132 -0.821553 0
    outer loop
      vertex -27.6332 -16.4083 4.29427
      vertex -27.6332 -16.4083 3.70038
      vertex -25.7694 -17.7017 3.70038
    endloop
  endfacet
  facet normal -0.570132 -0.821553 0
    outer loop
      vertex -25.7694 -17.7017 4.29427
      vertex -27.6332 -16.4083 4.29427
      vertex -25.7694 -17.7017 3.70038
    endloop
  endfacet
  facet normal -0.356048 -0.51306 0.781025
    outer loop
      vertex -27.6332 -15.4345 4.93392
      vertex -27.6332 -16.4083 4.29427
      vertex -25.7694 -16.728 4.93392
    endloop
  endfacet
  facet normal 0 -1 0
    outer loop
      vertex -25.7694 -17.7017 4.29427
      vertex -25.7694 -17.7017 3.70038
      vertex -24.1719 -17.7017 3.70038
    endloop
  endfacet
  facet normal 0 -1 0
    outer loop
      vertex -20.2121 -17.7017 3.70038
      vertex -25.7694 -17.7017 4.29427
      vertex -22.2683 -17.7017 3.70038
    endloop
  endfacet
  facet normal 0 -1 0
    outer loop
      vertex -22.2683 -17.7017 3.70038
      vertex -25.7694 -17.7017 4.29427
      vertex -24.1719 -17.7017 3.70038
    endloop
  endfacet
  facet normal 0 -1 0
    outer loop
      vertex -20.3441 -17.7017 3.82071
      vertex -25.7694 -17.7017 4.29427
      vertex -20.2121 -17.7017 3.70038
    endloop
  endfacet
  facet normal 0 -1 0
    outer loop
      vertex -22.2683 -17.7017 4.29427
      vertex -25.7694 -17.7017 4.29427
      vertex -20.3441 -17.7017 3.82071
    endloop
  endfacet
  facet normal 0 -1 0
    outer loop
      vertex -20.3441 -17.7017 4.29427
      vertex -22.2683 -17.7017 4.29427
      vertex -20.3441 -17.7017 3.82071
    endloop
  endfacet
  facet normal 0 -1.54085e-07 -1
    outer loop
      vertex -22.2683 -17.7017 3.70038
      vertex -24.1719 -17.7017 3.70038
      vertex -22.2683 -11.2118 3.70038
    endloop
  endfacet
  facet normal -5.25311e-07 0 -1
    outer loop
      vertex -22.2683 -11.2118 3.70038
      vertex -24.1719 -17.7017 3.70038
      vertex -24.1719 -10.9096 3.70038
    endloop
  endfacet
  facet normal 0.156761 0.987637 0
    outer loop
      vertex -24.1719 -10.9096 3.70038
      vertex -24.1719 -10.9096 3.82071
      vertex -22.2683 -11.2118 3.70038
    endloop
  endfacet
  facet normal 0.156761 0.987637 0
    outer loop
      vertex -22.2683 -11.2118 3.70038
      vertex -24.1719 -10.9096 3.82071
      vertex -24.1719 -10.9096 4.29427
    endloop
  endfacet
  facet normal 0.156761 0.987637 0
    outer loop
      vertex -22.2683 -11.2118 3.70038
      vertex -24.1719 -10.9096 4.29427
      vertex -22.2683 -11.2118 4.29427
    endloop
  endfacet
  facet normal 0.40552 0.914086 0
    outer loop
      vertex -25.7694 -10.201 3.70038
      vertex -25.7694 -10.201 3.82071
      vertex -24.1719 -10.9096 3.70038
    endloop
  endfacet
  facet normal 0.40552 0.914086 0
    outer loop
      vertex -24.1719 -10.9096 3.70038
      vertex -25.7694 -10.201 3.82071
      vertex -24.1719 -10.9096 3.82071
    endloop
  endfacet
  facet normal 0.829311 0.558787 0
    outer loop
      vertex -25.7694 -10.201 3.70038
      vertex -27.6332 -7.43478 3.70038
      vertex -27.6332 -7.43478 3.82071
    endloop
  endfacet
  facet normal 0.829311 0.558787 0
    outer loop
      vertex -25.7694 -10.201 3.82071
      vertex -25.7694 -10.201 3.70038
      vertex -27.6332 -7.43478 3.82071
    endloop
  endfacet
  facet normal -0.0381859 0.850358 -0.524817
    outer loop
      vertex -27.6332 -7.43478 3.70038
      vertex -29.2869 -7.50904 3.70038
      vertex -29.2869 -7.43478 3.82071
    endloop
  endfacet
  facet normal 0 1 0
    outer loop
      vertex -27.6332 -7.43478 3.70038
      vertex -29.2869 -7.43478 3.82071
      vertex -27.6332 -7.43478 3.82071
    endloop
  endfacet
  facet normal 0 0.987927 0.154918
    outer loop
      vertex -29.2869 -7.43478 3.82071
      vertex -29.2869 -7.50904 4.29427
      vertex -27.6332 -7.43478 3.82071
    endloop
  endfacet
  facet normal 0.263816 0.174621 0.948635
    outer loop
      vertex -27.6332 -7.43478 3.82071
      vertex -29.2869 -7.50904 4.29427
      vertex -27.6332 -10.0074 4.29427
    endloop
  endfacet
  facet normal 0.625062 0.413731 0.661909
    outer loop
      vertex -29.2869 -7.50904 4.29427
      vertex -29.2869 -8.5324 4.93392
      vertex -27.6332 -10.0074 4.29427
    endloop
  endfacet
  facet normal 0.625062 0.413731 0.661909
    outer loop
      vertex -27.6332 -10.0074 4.29427
      vertex -29.2869 -8.5324 4.93392
      vertex -27.6332 -11.0308 4.93392
    endloop
  endfacet
  facet normal 0 0 1
    outer loop
      vertex -29.2869 -8.5324 4.93392
      vertex -29.2869 -13.8096 4.93392
      vertex -27.6332 -15.4345 4.93392
    endloop
  endfacet
  facet normal 0 0 1
    outer loop
      vertex -27.6332 -11.0308 4.93392
      vertex -29.2869 -8.5324 4.93392
      vertex -25.7694 -16.728 4.93392
    endloop
  endfacet
  facet normal 0 0 1
    outer loop
      vertex -25.7694 -16.728 4.93392
      vertex -29.2869 -8.5324 4.93392
      vertex -27.6332 -15.4345 4.93392
    endloop
  endfacet
  facet normal 0 0 1
    outer loop
      vertex -22.2683 -12.2352 4.93392
      vertex -24.1719 -12.2352 4.93392
      vertex -22.2683 -16.728 4.93392
    endloop
  endfacet
  facet normal 0 0 1
    outer loop
      vertex -24.1719 -12.2352 4.93392
      vertex -25.7694 -12.2352 4.93392
      vertex -22.2683 -16.728 4.93392
    endloop
  endfacet
  facet normal 0 0 1
    outer loop
      vertex -22.2683 -16.728 4.93392
      vertex -27.6332 -11.0308 4.93392
      vertex -25.7694 -16.728 4.93392
    endloop
  endfacet
  facet normal 0 0 1
    outer loop
      vertex -25.7694 -12.2352 4.93392
      vertex -27.6332 -11.0308 4.93392
      vertex -22.2683 -16.728 4.93392
    endloop
  endfacet
  facet normal 0 -0.54904 0.835796
    outer loop
      vertex -25.7694 -16.728 4.93392
      vertex -25.7694 -17.7017 4.29427
      vertex -22.2683 -17.7017 4.29427
    endloop
  endfacet
  facet normal 0 -0.54904 0.835796
    outer loop
      vertex -22.2683 -16.728 4.93392
      vertex -25.7694 -16.728 4.93392
      vertex -22.2683 -17.7017 4.29427
    endloop
  endfacet
  facet normal 0 -0.704402 0.709801
    outer loop
      vertex -20.3441 -16.8679 5.1217
      vertex -22.2683 -17.7017 4.29427
      vertex -20.3441 -17.7017 4.29427
    endloop
  endfacet
  facet normal -0.120613 -0.545032 0.829694
    outer loop
      vertex -22.2683 -16.728 4.93392
      vertex -22.2683 -17.7017 4.29427
      vertex -20.3441 -16.8679 5.1217
    endloop
  endfacet
  facet normal -0.315615 -0.668398 0.673521
    outer loop
      vertex -20.3441 -16.8679 5.1217
      vertex -20.3441 -17.7017 4.29427
      vertex -13.1288 -18.0106 7.36891
    endloop
  endfacet
  facet normal -0.0427648 -0.999085 0
    outer loop
      vertex -20.3441 -17.7017 4.29427
      vertex -20.3441 -17.7017 3.82071
      vertex -13.1288 -18.0106 4.88093
    endloop
  endfacet
  facet normal -0.0427648 -0.999085 0
    outer loop
      vertex -13.1288 -18.0106 7.36891
      vertex -20.3441 -17.7017 4.29427
      vertex -13.1288 -18.0106 4.88093
    endloop
  endfacet
  facet normal -0.036807 -0.998506 -0.0403772
    outer loop
      vertex -13.1288 -18.0106 4.88093
      vertex -20.3441 -17.7017 3.82071
      vertex -20.2121 -17.7017 3.70038
    endloop
  endfacet
  facet normal 0 0 -1
    outer loop
      vertex -22.2683 -17.7017 3.70038
      vertex -20.2121 -11.2118 3.70038
      vertex -20.2121 -17.7017 3.70038
    endloop
  endfacet
  facet normal 0 0 -1
    outer loop
      vertex -20.2121 -17.7017 3.70038
      vertex -20.2121 -11.2118 3.70038
      vertex -13.1288 -12.0316 3.70038
    endloop
  endfacet
  facet normal 0 0 -1
    outer loop
      vertex -20.2121 -17.7017 3.70038
      vertex -13.1288 -12.0316 3.70038
      vertex -13.1288 -18.0106 3.70038
    endloop
  endfacet
  facet normal -0.0435602 -0.999051 0
    outer loop
      vertex -13.1288 -18.0106 4.88093
      vertex -20.2121 -17.7017 3.70038
      vertex -13.1288 -18.0106 3.70038
    endloop
  endfacet
  facet normal 4.86341e-07 -1.54085e-07 -1
    outer loop
      vertex -20.2121 -11.2118 3.70038
      vertex -22.2683 -17.7017 3.70038
      vertex -22.2683 -11.2118 3.70038
    endloop
  endfacet
  facet normal -2.48219e-08 0.998697 0.051038
    outer loop
      vertex -20.2121 -11.2118 3.70038
      vertex -22.2683 -11.2118 3.70038
      vertex -17.31 -11.2938 5.30466
    endloop
  endfacet
  facet normal 0.0165327 0.999863 0
    outer loop
      vertex -17.31 -11.2938 5.30466
      vertex -22.2683 -11.2118 3.70038
      vertex -22.2683 -11.2118 4.29427
    endloop
  endfacet
  facet normal 0 0.530034 0.847976
    outer loop
      vertex -22.2683 -11.2118 4.29427
      vertex -24.1719 -12.2352 4.93392
      vertex -22.2683 -12.2352 4.93392
    endloop
  endfacet
  facet normal 0.0688199 0.433584 0.898481
    outer loop
      vertex -24.1719 -10.9096 4.29427
      vertex -24.1719 -12.2352 4.93392
      vertex -22.2683 -11.2118 4.29427
    endloop
  endfacet
  facet normal -0.177095 0.39565 0.901165
    outer loop
      vertex -17.31 -11.2938 5.30466
      vertex -22.2683 -11.2118 4.29427
      vertex -20.3441 -12.2352 5.1217
    endloop
  endfacet
  facet normal -0.0824697 0.528228 0.845088
    outer loop
      vertex -22.2683 -11.2118 4.29427
      vertex -22.2683 -12.2352 4.93392
      vertex -20.3441 -12.2352 5.1217
    endloop
  endfacet
  facet normal 0.0635602 0.997978 0
    outer loop
      vertex -24.1719 -10.9096 3.82071
      vertex -25.7694 -10.8079 4.29427
      vertex -24.1719 -10.9096 4.29427
    endloop
  endfacet
  facet normal 0 0.434615 0.900617
    outer loop
      vertex -24.1719 -10.9096 4.29427
      vertex -25.7694 -12.2352 4.93392
      vertex -24.1719 -12.2352 4.93392
    endloop
  endfacet
  facet normal 0.0260386 0.408841 0.912234
    outer loop
      vertex -25.7694 -10.8079 4.29427
      vertex -25.7694 -12.2352 4.93392
      vertex -24.1719 -10.9096 4.29427
    endloop
  endfacet
  facet normal 0.263275 0.593451 0.760593
    outer loop
      vertex -25.7694 -10.201 3.82071
      vertex -25.7694 -10.8079 4.29427
      vertex -24.1719 -10.9096 3.82071
    endloop
  endfacet
  facet normal 0.25543 0.594747 0.762254
    outer loop
      vertex -25.7694 -10.201 3.82071
      vertex -27.6332 -10.0074 4.29427
      vertex -25.7694 -10.8079 4.29427
    endloop
  endfacet
  facet normal 0.259476 0.174834 0.949792
    outer loop
      vertex -27.6332 -7.43478 3.82071
      vertex -27.6332 -10.0074 4.29427
      vertex -25.7694 -10.201 3.82071
    endloop
  endfacet
  facet normal 0.221959 0.516812 0.826825
    outer loop
      vertex -27.6332 -10.0074 4.29427
      vertex -27.6332 -11.0308 4.93392
      vertex -25.7694 -10.8079 4.29427
    endloop
  endfacet
  facet normal 0.2555 0.395405 0.882255
    outer loop
      vertex -25.7694 -10.8079 4.29427
      vertex -27.6332 -11.0308 4.93392
      vertex -25.7694 -12.2352 4.93392
    endloop
  endfacet
  facet normal -0.0971257 0 0.995272
    outer loop
      vertex -22.2683 -12.2352 4.93392
      vertex -22.2683 -16.728 4.93392
      vertex -20.3441 -16.8679 5.1217
    endloop
  endfacet
  facet normal -0.0971257 0 0.995272
    outer loop
      vertex -20.3441 -12.2352 5.1217
      vertex -22.2683 -12.2352 4.93392
      vertex -20.3441 -16.8679 5.1217
    endloop
  endfacet
  facet normal -0.611767 0 0.791038
    outer loop
      vertex -17.9861 -15.9 6.94534
      vertex -20.3441 -16.8679 5.1217
      vertex -17.6166 -15.8602 7.23109
    endloop
  endfacet
  facet normal -0.611767 0 0.791038
    outer loop
      vertex -20.3441 -12.2352 5.1217
      vertex -20.3441 -16.8679 5.1217
      vertex -19.9659 -15.9 5.4142
    endloop
  endfacet
  facet normal -0.611767 0 0.791038
    outer loop
      vertex -20.3441 -12.2352 5.1217
      vertex -19.9659 -15.9 5.4142
      vertex -19.9659 -13.4 5.4142
    endloop
  endfacet
  facet normal -0.611767 0 0.791038
    outer loop
      vertex -17.6166 -13.5776 7.23109
      vertex -17.9861 -13.4 6.94534
      vertex -17.6166 -15.8602 7.23109
    endloop
  endfacet
  facet normal -0.611767 0 0.791038
    outer loop
      vertex -17.6166 -13.5776 7.23109
      vertex -20.3441 -12.2352 5.1217
      vertex -17.9861 -13.4 6.94534
    endloop
  endfacet
  facet normal -0.611767 0 0.791038
    outer loop
      vertex -19.9659 -15.9 5.4142
      vertex -20.3441 -16.8679 5.1217
      vertex -17.9861 -15.9 6.94534
    endloop
  endfacet
  facet normal -0.611767 0 0.791038
    outer loop
      vertex -19.9659 -13.4 5.4142
      vertex -17.9861 -13.4 6.94534
      vertex -20.3441 -12.2352 5.1217
    endloop
  endfacet
  facet normal -0.611767 0 0.791038
    outer loop
      vertex -17.9861 -13.4 6.94534
      vertex -17.9861 -15.9 6.94534
      vertex -17.6166 -15.8602 7.23109
    endloop
  endfacet
  facet normal -0.320769 -0.623754 0.712768
    outer loop
      vertex -17.6166 -15.8602 7.23109
      vertex -20.3441 -16.8679 5.1217
      vertex -13.1288 -18.0106 7.36891
    endloop
  endfacet
  facet normal -0.0306944 0 0.999529
    outer loop
      vertex -17.6166 -13.5776 7.23109
      vertex -17.6166 -15.8602 7.23109
      vertex -13.1288 -18.0106 7.36891
    endloop
  endfacet
  facet normal -0.0306944 0 0.999529
    outer loop
      vertex -13.1288 -12.0316 7.36891
      vertex -17.6166 -13.5776 7.23109
      vertex -13.1288 -18.0106 7.36891
    endloop
  endfacet
  facet normal 1 0 0
    outer loop
      vertex -13.1288 -17.65 3.85
      vertex -13.1288 -18.0106 3.70038
      vertex -13.1288 -12.0316 3.70038
    endloop
  endfacet
  facet normal 1 0 0
    outer loop
      vertex -13.1288 -17.65 7.15
      vertex -13.1288 -12.35 7.15
      vertex -13.1288 -12.0316 7.36891
    endloop
  endfacet
  facet normal 1 0 0
    outer loop
      vertex -13.1288 -18.0106 4.88093
      vertex -13.1288 -18.0106 3.70038
      vertex -13.1288 -17.65 3.85
    endloop
  endfacet
  facet normal 1 0 0
    outer loop
      vertex -13.1288 -18.0106 7.36891
      vertex -13.1288 -17.65 7.15
      vertex -13.1288 -12.0316 7.36891
    endloop
  endfacet
  facet normal 1 0 0
    outer loop
      vertex -13.1288 -18.0106 7.36891
      vertex -13.1288 -18.0106 4.88093
      vertex -13.1288 -17.65 7.15
    endloop
  endfacet
  facet normal 1 0 0
    outer loop
      vertex -13.1288 -12.0316 7.36891
      vertex -13.1288 -12.35 7.15
      vertex -13.1288 -12.0316 4.88093
    endloop
  endfacet
  facet normal 1 0 0
    outer loop
      vertex -13.1288 -12.35 7.15
      vertex -13.1288 -12.35 3.85
      vertex -13.1288 -12.0316 4.88093
    endloop
  endfacet
  facet normal 1 0 0
    outer loop
      vertex -13.1288 -12.0316 4.88093
      vertex -13.1288 -12.35 3.85
      vertex -13.1288 -12.0316 3.70038
    endloop
  endfacet
  facet normal 1 0 0
    outer loop
      vertex -13.1288 -12.35 3.85
      vertex -13.1288 -17.65 3.85
      vertex -13.1288 -12.0316 3.70038
    endloop
  endfacet
  facet normal 1 0 0
    outer loop
      vertex -13.1288 -17.65 3.85
      vertex -13.1288 -17.65 7.15
      vertex -13.1288 -18.0106 4.88093
    endloop
  endfacet
  facet normal 0.114974 0.993368 0
    outer loop
      vertex -13.1288 -12.0316 3.70038
      vertex -20.2121 -11.2118 3.70038
      vertex -13.1288 -12.0316 4.88093
    endloop
  endfacet
  facet normal 0.148061 0.964527 -0.218552
    outer loop
      vertex -13.1288 -12.0316 4.88093
      vertex -20.2121 -11.2118 3.70038
      vertex -17.31 -11.2938 5.30466
    endloop
  endfacet
  facet normal -0.243599 0.644241 0.724992
    outer loop
      vertex -17.31 -11.2938 5.30466
      vertex -20.3441 -12.2352 5.1217
      vertex -17.6166 -13.5776 7.23109
    endloop
  endfacet
  facet normal 0.173784 0.984784 0
    outer loop
      vertex -13.1288 -12.0316 4.88093
      vertex -17.31 -11.2938 5.30466
      vertex -13.1288 -12.0316 7.36891
    endloop
  endfacet
  facet normal -0.244175 0.644192 0.724842
    outer loop
      vertex -17.31 -11.2938 5.30466
      vertex -17.6166 -13.5776 7.23109
      vertex -13.1288 -12.0316 7.36891
    endloop
  endfacet
  facet normal 0.819152 0 0.573576
    outer loop
      vertex -18.807 -15.9 3.75909
      vertex -18.807 -13.4 3.75909
      vertex -19.9659 -13.4 5.4142
    endloop
  endfacet
  facet normal 0.819152 0 0.573576
    outer loop
      vertex -19.9659 -15.9 5.4142
      vertex -18.807 -15.9 3.75909
      vertex -19.9659 -13.4 5.4142
    endloop
  endfacet
  facet normal 0 1 0
    outer loop
      vertex -16.7591 -15.9 5.19303
      vertex -18.807 -15.9 3.75909
      vertex -17.9861 -15.9 6.94534
    endloop
  endfacet
  facet normal 0 1 0
    outer loop
      vertex -17.9861 -15.9 6.94534
      vertex -18.807 -15.9 3.75909
      vertex -19.9659 -15.9 5.4142
    endloop
  endfacet
  facet normal -0.819152 0 -0.573576
    outer loop
      vertex -16.7591 -13.4 5.19303
      vertex -16.7591 -15.9 5.19303
      vertex -17.9861 -13.4 6.94534
    endloop
  endfacet
  facet normal -0.819152 0 -0.573576
    outer loop
      vertex -17.9861 -13.4 6.94534
      vertex -16.7591 -15.9 5.19303
      vertex -17.9861 -15.9 6.94534
    endloop
  endfacet
  facet normal 0 -1 0
    outer loop
      vertex -18.807 -13.4 3.75909
      vertex -16.7591 -13.4 5.19303
      vertex -17.9861 -13.4 6.94534
    endloop
  endfacet
  facet normal 0 -1 0
    outer loop
      vertex -19.9659 -13.4 5.4142
      vertex -18.807 -13.4 3.75909
      vertex -17.9861 -13.4 6.94534
    endloop
  endfacet
  facet normal 0 0 -1
    outer loop
      vertex -13.1288 -17.65 3.85
      vertex -13.1288 -12.35 3.85
      vertex -10.35 -17.65 3.85
    endloop
  endfacet
  facet normal 0 0 -1
    outer loop
      vertex -10.35 -17.65 3.85
      vertex -13.1288 -12.35 3.85
      vertex -10.35 -12.35 3.85
    endloop
  endfacet
  facet normal 0 -1 0
    outer loop
      vertex -13.1288 -17.65 7.15
      vertex -13.1288 -17.65 3.85
      vertex -10.35 -17.65 3.85
    endloop
  endfacet
  facet normal 0 -1 0
    outer loop
      vertex -10.35 -17.65 7.15
      vertex -13.1288 -17.65 7.15
      vertex -10.35 -17.65 3.85
    endloop
  endfacet
  facet normal 0 1 0
    outer loop
      vertex -13.1288 -12.35 3.85
      vertex -13.1288 -12.35 7.15
      vertex -10.35 -12.35 3.85
    endloop
  endfacet
  facet normal 0 1 0
    outer loop
      vertex -10.35 -12.35 3.85
      vertex -13.1288 -12.35 7.15
      vertex -10.35 -12.35 7.15
    endloop
  endfacet
  facet normal 0 0 1
    outer loop
      vertex -13.1288 -12.35 7.15
      vertex -13.1288 -17.65 7.15
      vertex -10.35 -17.65 7.15
    endloop
  endfacet
  facet normal 0 0 1
    outer loop
      vertex -10.35 -12.35 7.15
      vertex -13.1288 -12.35 7.15
      vertex -10.35 -17.65 7.15
    endloop
  endfacet
  facet normal -0.573576 0 0.819152
    outer loop
      vertex -16.7591 -15.9 5.19303
      vertex -16.7591 -13.4 5.19303
      vertex -18.807 -13.4 3.75909
    endloop
  endfacet
  facet normal -0.573576 0 0.819152
    outer loop
      vertex -18.807 -15.9 3.75909
      vertex -16.7591 -15.9 5.19303
      vertex -18.807 -13.4 3.75909
    endloop
  endfacet
  facet normal 1 0 0
    outer loop
      vertex -10.35 -17.65 7.15
      vertex -10.35 -17.65 3.85
      vertex -10.35 -12.35 3.85
    endloop
  endfacet
  facet normal 1 0 0
    outer loop
      vertex -10.35 -12.35 7.15
      vertex -10.35 -17.65 7.15
      vertex -10.35 -12.35 3.85
    endloop
  endfacet
  facet normal -1 0 0
    outer loop
      vertex 10.35 -17.65 3.85
      vertex 10.35 -17.65 7.15
      vertex 10.35 -12.35 3.85
    endloop
  endfacet
  facet normal -1 0 0
    outer loop
      vertex 10.35 -12.35 3.85
      vertex 10.35 -17.65 7.15
      vertex 10.35 -12.35 7.15
    endloop
  endfacet
  facet normal 0 -1 0
    outer loop
      vertex 10.35 -17.65 7.15
      vertex 10.35 -17.65 3.85
      vertex 13.1288 -17.65 3.85
    endloop
  endfacet
  facet normal 0 -1 0
    outer loop
      vertex 13.1288 -17.65 7.15
      vertex 10.35 -17.65 7.15
      vertex 13.1288 -17.65 3.85
    endloop
  endfacet
  facet normal 0 0 -1
    outer loop
      vertex 10.35 -17.65 3.85
      vertex 10.35 -12.35 3.85
      vertex 13.1288 -17.65 3.85
    endloop
  endfacet
  facet normal 0 0 -1
    outer loop
      vertex 13.1288 -17.65 3.85
      vertex 10.35 -12.35 3.85
      vertex 13.1288 -12.35 3.85
    endloop
  endfacet
  facet normal 0 1 0
    outer loop
      vertex 10.35 -12.35 3.85
      vertex 10.35 -12.35 7.15
      vertex 13.1288 -12.35 3.85
    endloop
  endfacet
  facet normal 0 1 0
    outer loop
      vertex 13.1288 -12.35 3.85
      vertex 10.35 -12.35 7.15
      vertex 13.1288 -12.35 7.15
    endloop
  endfacet
  facet normal 0 0 1
    outer loop
      vertex 10.35 -12.35 7.15
      vertex 10.35 -17.65 7.15
      vertex 13.1288 -17.65 7.15
    endloop
  endfacet
  facet normal 0 0 1
    outer loop
      vertex 13.1288 -12.35 7.15
      vertex 10.35 -12.35 7.15
      vertex 13.1288 -17.65 7.15
    endloop
  endfacet
  facet normal -1 0 0
    outer loop
      vertex 13.1288 -12.35 7.15
      vertex 13.1288 -12.0316 4.88093
      vertex 13.1288 -12.0316 3.70038
    endloop
  endfacet
  facet normal -1 0 0
    outer loop
      vertex 13.1288 -12.35 7.15
      vertex 13.1288 -18.0106 7.36891
      vertex 13.1288 -12.0316 7.36891
    endloop
  endfacet
  facet normal -1 0 0
    outer loop
      vertex 13.1288 -17.65 3.85
      vertex 13.1288 -18.0106 4.88093
      vertex 13.1288 -18.0106 7.36891
    endloop
  endfacet
  facet normal -1 0 0
    outer loop
      vertex 13.1288 -18.0106 3.70038
      vertex 13.1288 -18.0106 4.88093
      vertex 13.1288 -17.65 3.85
    endloop
  endfacet
  facet normal -1 0 0
    outer loop
      vertex 13.1288 -18.0106 3.70038
      vertex 13.1288 -17.65 3.85
      vertex 13.1288 -12.0316 3.70038
    endloop
  endfacet
  facet normal -1 0 0
    outer loop
      vertex 13.1288 -12.35 7.15
      vertex 13.1288 -12.0316 3.70038
      vertex 13.1288 -12.35 3.85
    endloop
  endfacet
  facet normal -1 0 0
    outer loop
      vertex 13.1288 -17.65 3.85
      vertex 13.1288 -18.0106 7.36891
      vertex 13.1288 -17.65 7.15
    endloop
  endfacet
  facet normal -1 0 0
    outer loop
      vertex 13.1288 -12.0316 4.88093
      vertex 13.1288 -12.35 7.15
      vertex 13.1288 -12.0316 7.36891
    endloop
  endfacet
  facet normal -1 0 0
    outer loop
      vertex 13.1288 -17.65 7.15
      vertex 13.1288 -18.0106 7.36891
      vertex 13.1288 -12.35 7.15
    endloop
  endfacet
  facet normal -1 0 0
    outer loop
      vertex 13.1288 -12.35 3.85
      vertex 13.1288 -12.0316 3.70038
      vertex 13.1288 -17.65 3.85
    endloop
  endfacet
  facet normal -0.114974 0.993368 0
    outer loop
      vertex 20.2121 -11.2118 3.70038
      vertex 13.1288 -12.0316 3.70038
      vertex 13.1288 -12.0316 4.88093
    endloop
  endfacet
  facet normal 0 0 -1
    outer loop
      vertex 13.1288 -18.0106 3.70038
      vertex 13.1288 -12.0316 3.70038
      vertex 20.2121 -17.7017 3.70038
    endloop
  endfacet
  facet normal 0 0 -1
    outer loop
      vertex 20.2121 -17.7017 3.70038
      vertex 13.1288 -12.0316 3.70038
      vertex 20.2121 -11.2118 3.70038
    endloop
  endfacet
  facet normal 0 0 -1
    outer loop
      vertex 20.2121 -17.7017 3.70038
      vertex 20.2121 -11.2118 3.70038
      vertex 22.2683 -17.7017 3.70038
    endloop
  endfacet
  facet normal -0.173784 0.984784 0
    outer loop
      vertex 17.31 -11.2938 5.30466
      vertex 13.1288 -12.0316 4.88093
      vertex 13.1288 -12.0316 7.36891
    endloop
  endfacet
  facet normal -0.148061 0.964527 -0.218552
    outer loop
      vertex 20.2121 -11.2118 3.70038
      vertex 13.1288 -12.0316 4.88093
      vertex 17.31 -11.2938 5.30466
    endloop
  endfacet
  facet normal 0.0306944 0 0.999529
    outer loop
      vertex 13.1288 -12.0316 7.36891
      vertex 13.1288 -18.0106 7.36891
      vertex 17.6166 -15.8602 7.23109
    endloop
  endfacet
  facet normal 0.0306944 0 0.999529
    outer loop
      vertex 17.6166 -13.5776 7.23109
      vertex 13.1288 -12.0316 7.36891
      vertex 17.6166 -15.8602 7.23109
    endloop
  endfacet
  facet normal 0.244175 0.644192 0.724842
    outer loop
      vertex 17.31 -11.2938 5.30466
      vertex 13.1288 -12.0316 7.36891
      vertex 17.6166 -13.5776 7.23109
    endloop
  endfacet
  facet normal 0.320769 -0.623754 0.712768
    outer loop
      vertex 17.6166 -15.8602 7.23109
      vertex 13.1288 -18.0106 7.36891
      vertex 20.3441 -16.8679 5.1217
    endloop
  endfacet
  facet normal 0.315615 -0.668398 0.673521
    outer loop
      vertex 20.3441 -16.8679 5.1217
      vertex 13.1288 -18.0106 7.36891
      vertex 20.3441 -17.7017 4.29427
    endloop
  endfacet
  facet normal 0.0427648 -0.999085 0
    outer loop
      vertex 13.1288 -18.0106 7.36891
      vertex 13.1288 -18.0106 4.88093
      vertex 20.3441 -17.7017 3.82071
    endloop
  endfacet
  facet normal 0.0427648 -0.999085 0
    outer loop
      vertex 20.3441 -17.7017 4.29427
      vertex 13.1288 -18.0106 7.36891
      vertex 20.3441 -17.7017 3.82071
    endloop
  endfacet
  facet normal 0.036807 -0.998506 -0.0403772
    outer loop
      vertex 20.3441 -17.7017 3.82071
      vertex 13.1288 -18.0106 4.88093
      vertex 20.2121 -17.7017 3.70038
    endloop
  endfacet
  facet normal 0.0435602 -0.999051 0
    outer loop
      vertex 13.1288 -18.0106 4.88093
      vertex 13.1288 -18.0106 3.70038
      vertex 20.2121 -17.7017 3.70038
    endloop
  endfacet
  facet normal -4.86341e-07 -1.54085e-07 -1
    outer loop
      vertex 22.2683 -17.7017 3.70038
      vertex 20.2121 -11.2118 3.70038
      vertex 22.2683 -11.2118 3.70038
    endloop
  endfacet
  facet normal 2.48219e-08 0.998697 0.051038
    outer loop
      vertex 20.2121 -11.2118 3.70038
      vertex 17.31 -11.2938 5.30466
      vertex 22.2683 -11.2118 3.70038
    endloop
  endfacet
  facet normal 0 -1 0
    outer loop
      vertex 20.3441 -17.7017 3.82071
      vertex 20.2121 -17.7017 3.70038
      vertex 22.2683 -17.7017 3.70038
    endloop
  endfacet
  facet normal 0 -1 0
    outer loop
      vertex 25.7694 -17.7017 3.70038
      vertex 20.3441 -17.7017 3.82071
      vertex 24.1719 -17.7017 3.70038
    endloop
  endfacet
  facet normal 0 -1 0
    outer loop
      vertex 24.1719 -17.7017 3.70038
      vertex 20.3441 -17.7017 3.82071
      vertex 22.2683 -17.7017 3.70038
    endloop
  endfacet
  facet normal 0 -1 0
    outer loop
      vertex 25.7694 -17.7017 4.29427
      vertex 20.3441 -17.7017 3.82071
      vertex 25.7694 -17.7017 3.70038
    endloop
  endfacet
  facet normal 0 -1 0
    outer loop
      vertex 22.2683 -17.7017 4.29427
      vertex 20.3441 -17.7017 3.82071
      vertex 25.7694 -17.7017 4.29427
    endloop
  endfacet
  facet normal 0 -1 0
    outer loop
      vertex 20.3441 -17.7017 4.29427
      vertex 20.3441 -17.7017 3.82071
      vertex 22.2683 -17.7017 4.29427
    endloop
  endfacet
  facet normal 0 -1.54085e-07 -1
    outer loop
      vertex 24.1719 -17.7017 3.70038
      vertex 22.2683 -17.7017 3.70038
      vertex 22.2683 -11.2118 3.70038
    endloop
  endfacet
  facet normal 0.243599 0.644241 0.724992
    outer loop
      vertex 20.3441 -12.2352 5.1217
      vertex 17.31 -11.2938 5.30466
      vertex 17.6166 -13.5776 7.23109
    endloop
  endfacet
  facet normal -0.0165327 0.999863 0
    outer loop
      vertex 22.2683 -11.2118 3.70038
      vertex 17.31 -11.2938 5.30466
      vertex 22.2683 -11.2118 4.29427
    endloop
  endfacet
  facet normal 0.177095 0.39565 0.901165
    outer loop
      vertex 22.2683 -11.2118 4.29427
      vertex 17.31 -11.2938 5.30466
      vertex 20.3441 -12.2352 5.1217
    endloop
  endfacet
  facet normal 0.611767 0 0.791038
    outer loop
      vertex 18.1756 -15.9 6.7988
      vertex 17.6166 -15.8602 7.23109
      vertex 20.3441 -16.8679 5.1217
    endloop
  endfacet
  facet normal 0.611767 0 0.791038
    outer loop
      vertex 17.6166 -13.5776 7.23109
      vertex 17.6166 -15.8602 7.23109
      vertex 18.1756 -15.9 6.7988
    endloop
  endfacet
  facet normal 0.611767 0 0.791038
    outer loop
      vertex 20.3441 -12.2352 5.1217
      vertex 17.6166 -13.5776 7.23109
      vertex 18.1756 -13.4 6.7988
    endloop
  endfacet
  facet normal 0.611767 0 0.791038
    outer loop
      vertex 20.3441 -12.2352 5.1217
      vertex 20.228 -13.4 5.21153
      vertex 20.3441 -16.8679 5.1217
    endloop
  endfacet
  facet normal 0.611767 0 0.791038
    outer loop
      vertex 20.3441 -12.2352 5.1217
      vertex 18.1756 -13.4 6.7988
      vertex 20.228 -13.4 5.21153
    endloop
  endfacet
  facet normal 0.611767 0 0.791038
    outer loop
      vertex 20.228 -13.4 5.21153
      vertex 20.228 -15.9 5.21153
      vertex 20.3441 -16.8679 5.1217
    endloop
  endfacet
  facet normal 0.611767 0 0.791038
    outer loop
      vertex 18.1756 -15.9 6.7988
      vertex 18.1756 -13.4 6.7988
      vertex 17.6166 -13.5776 7.23109
    endloop
  endfacet
  facet normal 0.611767 0 0.791038
    outer loop
      vertex 20.228 -15.9 5.21153
      vertex 18.1756 -15.9 6.7988
      vertex 20.3441 -16.8679 5.1217
    endloop
  endfacet
  facet normal 0 -0.704402 0.709801
    outer loop
      vertex 20.3441 -16.8679 5.1217
      vertex 20.3441 -17.7017 4.29427
      vertex 22.2683 -17.7017 4.29427
    endloop
  endfacet
  facet normal 0.0971257 0 0.995272
    outer loop
      vertex 20.3441 -12.2352 5.1217
      vertex 20.3441 -16.8679 5.1217
      vertex 22.2683 -16.728 4.93392
    endloop
  endfacet
  facet normal 0.0971257 0 0.995272
    outer loop
      vertex 22.2683 -12.2352 4.93392
      vertex 20.3441 -12.2352 5.1217
      vertex 22.2683 -16.728 4.93392
    endloop
  endfacet
  facet normal 0.120613 -0.545032 0.829694
    outer loop
      vertex 22.2683 -16.728 4.93392
      vertex 20.3441 -16.8679 5.1217
      vertex 22.2683 -17.7017 4.29427
    endloop
  endfacet
  facet normal 5.25311e-07 0 -1
    outer loop
      vertex 24.1719 -17.7017 3.70038
      vertex 22.2683 -11.2118 3.70038
      vertex 24.1719 -10.9096 3.70038
    endloop
  endfacet
  facet normal -0.156761 0.987637 0
    outer loop
      vertex 22.2683 -11.2118 3.70038
      vertex 22.2683 -11.2118 4.29427
      vertex 24.1719 -10.9096 3.70038
    endloop
  endfacet
  facet normal -0.156761 0.987637 0
    outer loop
      vertex 24.1719 -10.9096 3.82071
      vertex 22.2683 -11.2118 4.29427
      vertex 24.1719 -10.9096 4.29427
    endloop
  endfacet
  facet normal -0.156761 0.987637 0
    outer loop
      vertex 24.1719 -10.9096 3.70038
      vertex 22.2683 -11.2118 4.29427
      vertex 24.1719 -10.9096 3.82071
    endloop
  endfacet
  facet normal 0 -0.54904 0.835796
    outer loop
      vertex 22.2683 -16.728 4.93392
      vertex 22.2683 -17.7017 4.29427
      vertex 25.7694 -17.7017 4.29427
    endloop
  endfacet
  facet normal 0 -0.54904 0.835796
    outer loop
      vertex 25.7694 -16.728 4.93392
      vertex 22.2683 -16.728 4.93392
      vertex 25.7694 -17.7017 4.29427
    endloop
  endfacet
  facet normal 0.356048 -0.513061 0.781024
    outer loop
      vertex 25.7694 -16.728 4.93392
      vertex 25.7694 -17.7017 4.29427
      vertex 27.6332 -16.4083 4.29427
    endloop
  endfacet
  facet normal 0.570132 -0.821553 0
    outer loop
      vertex 25.7694 -17.7017 4.29427
      vertex 25.7694 -17.7017 3.70038
      vertex 27.6332 -16.4083 3.70038
    endloop
  endfacet
  facet normal 0.570132 -0.821553 0
    outer loop
      vertex 27.6332 -16.4083 4.29427
      vertex 25.7694 -17.7017 4.29427
      vertex 27.6332 -16.4083 3.70038
    endloop
  endfacet
  facet normal 0 0 -1
    outer loop
      vertex 24.1719 -17.7017 3.70038
      vertex 24.1719 -10.9096 3.70038
      vertex 25.7694 -17.7017 3.70038
    endloop
  endfacet
  facet normal 0 0 -1
    outer loop
      vertex 25.7694 -17.7017 3.70038
      vertex 24.1719 -10.9096 3.70038
      vertex 25.7694 -10.201 3.70038
    endloop
  endfacet
  facet normal 0 0 -1
    outer loop
      vertex 25.7694 -17.7017 3.70038
      vertex 25.7694 -10.201 3.70038
      vertex 27.6332 -7.43478 3.70038
    endloop
  endfacet
  facet normal 0 0 -1
    outer loop
      vertex 25.7694 -17.7017 3.70038
      vertex 27.6332 -7.43478 3.70038
      vertex 29.2869 -7.50904 3.70038
    endloop
  endfacet
  facet normal 0 0 -1
    outer loop
      vertex 25.7694 -17.7017 3.70038
      vertex 29.2869 -7.50904 3.70038
      vertex 29.2869 -14.7833 3.70038
    endloop
  endfacet
  facet normal 0 0 -1
    outer loop
      vertex 25.7694 -17.7017 3.70038
      vertex 29.2869 -14.7833 3.70038
      vertex 27.6332 -16.4083 3.70038
    endloop
  endfacet
  facet normal 0.0824697 0.528228 0.845088
    outer loop
      vertex 22.2683 -11.2118 4.29427
      vertex 20.3441 -12.2352 5.1217
      vertex 22.2683 -12.2352 4.93392
    endloop
  endfacet
  facet normal 0 0.530034 0.847976
    outer loop
      vertex 22.2683 -11.2118 4.29427
      vertex 22.2683 -12.2352 4.93392
      vertex 24.1719 -12.2352 4.93392
    endloop
  endfacet
  facet normal -0.0688199 0.433584 0.898481
    outer loop
      vertex 24.1719 -10.9096 4.29427
      vertex 22.2683 -11.2118 4.29427
      vertex 24.1719 -12.2352 4.93392
    endloop
  endfacet
  facet normal 0.573576 0 -0.819152
    outer loop
      vertex 18.1756 -13.4 6.7988
      vertex 18.1756 -15.9 6.7988
      vertex 16.7591 -13.4 5.80697
    endloop
  endfacet
  facet normal 0.573576 0 -0.819152
    outer loop
      vertex 16.7591 -13.4 5.80697
      vertex 18.1756 -15.9 6.7988
      vertex 16.7591 -15.9 5.80697
    endloop
  endfacet
  facet normal 0 1 0
    outer loop
      vertex 20.228 -15.9 5.21153
      vertex 20.2409 -15.9 5.19303
      vertex 18.1756 -15.9 6.7988
    endloop
  endfacet
  facet normal 0 1 0
    outer loop
      vertex 18.1756 -15.9 6.7988
      vertex 20.2409 -15.9 5.19303
      vertex 18.193 -15.9 3.75909
    endloop
  endfacet
  facet normal 0 1 0
    outer loop
      vertex 18.1756 -15.9 6.7988
      vertex 18.193 -15.9 3.75909
      vertex 16.7591 -15.9 5.80697
    endloop
  endfacet
  facet normal -0.819152 0 -0.573576
    outer loop
      vertex 20.2409 -13.4 5.19303
      vertex 20.2409 -15.9 5.19303
      vertex 20.228 -13.4 5.21153
    endloop
  endfacet
  facet normal -0.819152 0 -0.573576
    outer loop
      vertex 20.228 -13.4 5.21153
      vertex 20.2409 -15.9 5.19303
      vertex 20.228 -15.9 5.21153
    endloop
  endfacet
  facet normal 0 -1 0
    outer loop
      vertex 18.193 -13.4 3.75909
      vertex 20.2409 -13.4 5.19303
      vertex 20.228 -13.4 5.21153
    endloop
  endfacet
  facet normal 0 -1 0
    outer loop
      vertex 16.7591 -13.4 5.80697
      vertex 18.193 -13.4 3.75909
      vertex 18.1756 -13.4 6.7988
    endloop
  endfacet
  facet normal 0 -1 0
    outer loop
      vertex 18.1756 -13.4 6.7988
      vertex 18.193 -13.4 3.75909
      vertex 20.228 -13.4 5.21153
    endloop
  endfacet
  facet normal 0 0 1
    outer loop
      vertex 22.2683 -12.2352 4.93392
      vertex 22.2683 -16.728 4.93392
      vertex 25.7694 -16.728 4.93392
    endloop
  endfacet
  facet normal 0 0 1
    outer loop
      vertex 29.2869 -13.8096 4.93392
      vertex 22.2683 -12.2352 4.93392
      vertex 27.6332 -15.4345 4.93392
    endloop
  endfacet
  facet normal 0 0 1
    outer loop
      vertex 27.6332 -15.4345 4.93392
      vertex 22.2683 -12.2352 4.93392
      vertex 25.7694 -16.728 4.93392
    endloop
  endfacet
  facet normal 0 0 1
    outer loop
      vertex 25.7694 -12.2352 4.93392
      vertex 24.1719 -12.2352 4.93392
      vertex 29.2869 -13.8096 4.93392
    endloop
  endfacet
  facet normal 0 0 1
    outer loop
      vertex 29.2869 -8.5324 4.93392
      vertex 27.6332 -11.0308 4.93392
      vertex 29.2869 -13.8096 4.93392
    endloop
  endfacet
  facet normal 0 0 1
    outer loop
      vertex 27.6332 -11.0308 4.93392
      vertex 25.7694 -12.2352 4.93392
      vertex 29.2869 -13.8096 4.93392
    endloop
  endfacet
  facet normal 0 0 1
    outer loop
      vertex 24.1719 -12.2352 4.93392
      vertex 22.2683 -12.2352 4.93392
      vertex 29.2869 -13.8096 4.93392
    endloop
  endfacet
  facet normal -0.40552 0.914086 0
    outer loop
      vertex 24.1719 -10.9096 3.70038
      vertex 24.1719 -10.9096 3.82071
      vertex 25.7694 -10.201 3.70038
    endloop
  endfacet
  facet normal -0.40552 0.914086 0
    outer loop
      vertex 25.7694 -10.201 3.70038
      vertex 24.1719 -10.9096 3.82071
      vertex 25.7694 -10.201 3.82071
    endloop
  endfacet
  facet normal -0.0635602 0.997978 0
    outer loop
      vertex 25.7694 -10.8079 4.29427
      vertex 24.1719 -10.9096 3.82071
      vertex 24.1719 -10.9096 4.29427
    endloop
  endfacet
  facet normal -0.263275 0.593451 0.760593
    outer loop
      vertex 25.7694 -10.201 3.82071
      vertex 24.1719 -10.9096 3.82071
      vertex 25.7694 -10.8079 4.29427
    endloop
  endfacet
  facet normal -0.0260386 0.408841 0.912234
    outer loop
      vertex 25.7694 -10.8079 4.29427
      vertex 24.1719 -10.9096 4.29427
      vertex 25.7694 -12.2352 4.93392
    endloop
  endfacet
  facet normal 0 0.434615 0.900617
    outer loop
      vertex 24.1719 -10.9096 4.29427
      vertex 24.1719 -12.2352 4.93392
      vertex 25.7694 -12.2352 4.93392
    endloop
  endfacet
  facet normal 0.356048 -0.51306 0.781025
    outer loop
      vertex 27.6332 -15.4345 4.93392
      vertex 25.7694 -16.728 4.93392
      vertex 27.6332 -16.4083 4.29427
    endloop
  endfacet
  facet normal 0.474801 -0.483206 0.735579
    outer loop
      vertex 27.6332 -15.4345 4.93392
      vertex 27.6332 -16.4083 4.29427
      vertex 29.2869 -14.7833 4.29427
    endloop
  endfacet
  facet normal 0.700876 -0.713283 0
    outer loop
      vertex 27.6332 -16.4083 4.29427
      vertex 27.6332 -16.4083 3.70038
      vertex 29.2869 -14.7833 3.70038
    endloop
  endfacet
  facet normal 0.700876 -0.713283 0
    outer loop
      vertex 29.2869 -14.7833 4.29427
      vertex 27.6332 -16.4083 4.29427
      vertex 29.2869 -14.7833 3.70038
    endloop
  endfacet
  facet normal 1 0 0
    outer loop
      vertex 29.2869 -14.7833 4.29427
      vertex 29.2869 -14.7833 3.70038
      vertex 29.2869 -7.50904 3.70038
    endloop
  endfacet
  facet normal 1 0 0
    outer loop
      vertex 29.2869 -7.50904 4.29427
      vertex 29.2869 -14.7833 4.29427
      vertex 29.2869 -7.43478 3.82071
    endloop
  endfacet
  facet normal 1 0 0
    outer loop
      vertex 29.2869 -7.43478 3.82071
      vertex 29.2869 -14.7833 4.29427
      vertex 29.2869 -7.50904 3.70038
    endloop
  endfacet
  facet normal 1 0 0
    outer loop
      vertex 29.2869 -8.5324 4.93392
      vertex 29.2869 -14.7833 4.29427
      vertex 29.2869 -7.50904 4.29427
    endloop
  endfacet
  facet normal 1 0 0
    outer loop
      vertex 29.2869 -13.8096 4.93392
      vertex 29.2869 -14.7833 4.29427
      vertex 29.2869 -8.5324 4.93392
    endloop
  endfacet
  facet normal 0.0381859 0.850358 -0.524817
    outer loop
      vertex 29.2869 -7.50904 3.70038
      vertex 27.6332 -7.43478 3.70038
      vertex 29.2869 -7.43478 3.82071
    endloop
  endfacet
  facet normal 0 1 0
    outer loop
      vertex 29.2869 -7.43478 3.82071
      vertex 27.6332 -7.43478 3.70038
      vertex 27.6332 -7.43478 3.82071
    endloop
  endfacet
  facet normal -0.829311 0.558787 0
    outer loop
      vertex 25.7694 -10.201 3.70038
      vertex 25.7694 -10.201 3.82071
      vertex 27.6332 -7.43478 3.70038
    endloop
  endfacet
  facet normal -0.829311 0.558787 0
    outer loop
      vertex 27.6332 -7.43478 3.70038
      vertex 25.7694 -10.201 3.82071
      vertex 27.6332 -7.43478 3.82071
    endloop
  endfacet
  facet normal 0.819152 0 0.573576
    outer loop
      vertex 18.193 -15.9 3.75909
      vertex 18.193 -13.4 3.75909
      vertex 16.7591 -13.4 5.80697
    endloop
  endfacet
  facet normal 0.819152 0 0.573576
    outer loop
      vertex 16.7591 -15.9 5.80697
      vertex 18.193 -15.9 3.75909
      vertex 16.7591 -13.4 5.80697
    endloop
  endfacet
  facet normal -0.573576 0 0.819152
    outer loop
      vertex 20.2409 -15.9 5.19303
      vertex 20.2409 -13.4 5.19303
      vertex 18.193 -13.4 3.75909
    endloop
  endfacet
  facet normal -0.573576 0 0.819152
    outer loop
      vertex 18.193 -15.9 3.75909
      vertex 20.2409 -15.9 5.19303
      vertex 18.193 -13.4 3.75909
    endloop
  endfacet
  facet normal -0.2555 0.395405 0.882255
    outer loop
      vertex 25.7694 -10.8079 4.29427
      vertex 25.7694 -12.2352 4.93392
      vertex 27.6332 -11.0308 4.93392
    endloop
  endfacet
  facet normal -0.221959 0.516812 0.826825
    outer loop
      vertex 27.6332 -10.0074 4.29427
      vertex 25.7694 -10.8079 4.29427
      vertex 27.6332 -11.0308 4.93392
    endloop
  endfacet
  facet normal -0.625062 0.413731 0.661909
    outer loop
      vertex 27.6332 -10.0074 4.29427
      vertex 27.6332 -11.0308 4.93392
      vertex 29.2869 -8.5324 4.93392
    endloop
  endfacet
  facet normal -0.625062 0.413731 0.661909
    outer loop
      vertex 29.2869 -7.50904 4.29427
      vertex 27.6332 -10.0074 4.29427
      vertex 29.2869 -8.5324 4.93392
    endloop
  endfacet
  facet normal 0.474801 -0.483206 0.735578
    outer loop
      vertex 29.2869 -13.8096 4.93392
      vertex 27.6332 -15.4345 4.93392
      vertex 29.2869 -14.7833 4.29427
    endloop
  endfacet
  facet normal -0.259476 0.174834 0.949792
    outer loop
      vertex 27.6332 -7.43478 3.82071
      vertex 25.7694 -10.201 3.82071
      vertex 27.6332 -10.0074 4.29427
    endloop
  endfacet
  facet normal -0.25543 0.594747 0.762254
    outer loop
      vertex 25.7694 -10.201 3.82071
      vertex 25.7694 -10.8079 4.29427
      vertex 27.6332 -10.0074 4.29427
    endloop
  endfacet
  facet normal -0.263816 0.174621 0.948635
    outer loop
      vertex 27.6332 -7.43478 3.82071
      vertex 27.6332 -10.0074 4.29427
      vertex 29.2869 -7.50904 4.29427
    endloop
  endfacet
  facet normal 0 0.987927 0.154918
    outer loop
      vertex 29.2869 -7.43478 3.82071
      vertex 27.6332 -7.43478 3.82071
      vertex 29.2869 -7.50904 4.29427
    endloop
  endfacet
endsolid OpenSCAD_Model
