solid OpenSCAD_Model
  facet normal -1 0 0
    outer loop
      vertex -28.8934 -30.3662 5.45813
      vertex -28.8934 -30.3662 6.77202
      vertex -28.8934 -26.5881 4.37409
    endloop
  endfacet
  facet normal -1 0 0
    outer loop
      vertex -28.8934 -26.5881 4.37409
      vertex -28.8934 -30.3662 6.77202
      vertex -28.8934 -26.5881 7.51084
    endloop
  endfacet
  facet normal -1 0 0
    outer loop
      vertex -28.8934 -26.5881 4.37409
      vertex -28.8934 -26.5881 7.51084
      vertex -28.8934 -19.5881 7.51084
    endloop
  endfacet
  facet normal -1 0 0
    outer loop
      vertex -28.8934 -26.5881 4.37409
      vertex -28.8934 -19.5881 7.51084
      vertex -28.8934 -19.5881 4.37409
    endloop
  endfacet
  facet normal -0.624237 -0.781235 0
    outer loop
      vertex -28.8934 -30.3662 6.77202
      vertex -28.8934 -30.3662 5.45813
      vertex -25.7775 -32.856 5.22798
    endloop
  endfacet
  facet normal -0.624237 -0.781235 0
    outer loop
      vertex -25.7775 -32.856 6.77202
      vertex -28.8934 -30.3662 6.77202
      vertex -25.7775 -32.856 5.22798
    endloop
  endfacet
  facet normal -0.279742 -0.264789 -0.922839
    outer loop
      vertex -25.7775 -32.856 5.22798
      vertex -28.8934 -30.3662 5.45813
      vertex -28.8934 -26.5881 4.37409
    endloop
  endfacet
  facet normal -0.506516 -0.358626 -0.78411
    outer loop
      vertex -25.7775 -32.856 5.22798
      vertex -28.8934 -26.5881 4.37409
      vertex -25.7775 -29.0779 3.5
    endloop
  endfacet
  facet normal -0.270096 0 -0.962833
    outer loop
      vertex -28.8934 -26.5881 4.37409
      vertex -28.8934 -19.5881 4.37409
      vertex -25.7775 -29.0779 3.5
    endloop
  endfacet
  facet normal -0.270096 0 -0.962833
    outer loop
      vertex -25.7775 -29.0779 3.5
      vertex -28.8934 -19.5881 4.37409
      vertex -25.7775 -22.0779 3.5
    endloop
  endfacet
  facet normal 0.624237 0.781235 0
    outer loop
      vertex -28.8934 -19.5881 4.37409
      vertex -28.8934 -19.5881 7.51084
      vertex -25.7775 -22.0779 3.5
    endloop
  endfacet
  facet normal 0.624237 0.781235 0
    outer loop
      vertex -25.7775 -22.0779 3.5
      vertex -28.8934 -19.5881 7.51084
      vertex -25.7775 -22.0779 6.1
    endloop
  endfacet
  facet normal 0.502547 0.146078 0.85212
    outer loop
      vertex -25.7775 -22.0779 6.1
      vertex -28.8934 -19.5881 7.51084
      vertex -25.7775 -29.0779 7.3
    endloop
  endfacet
  facet normal 0.0675096 0 0.997719
    outer loop
      vertex -28.8934 -19.5881 7.51084
      vertex -28.8934 -26.5881 7.51084
      vertex -25.7775 -29.0779 7.3
    endloop
  endfacet
  facet normal -0.0866158 -0.191195 0.977723
    outer loop
      vertex -28.8934 -26.5881 7.51084
      vertex -28.8934 -30.3662 6.77202
      vertex -25.7775 -29.0779 7.3
    endloop
  endfacet
  facet normal -0.109918 -0.137563 0.984375
    outer loop
      vertex -25.7775 -29.0779 7.3
      vertex -28.8934 -30.3662 6.77202
      vertex -25.7775 -32.856 6.77202
    endloop
  endfacet
  facet normal -0.0851439 -0.137899 0.98678
    outer loop
      vertex -25.7775 -29.0779 7.3
      vertex -25.7775 -32.856 6.77202
      vertex -22.9137 -30.8461 7.3
    endloop
  endfacet
  facet normal -0.0851443 -0.137899 0.98678
    outer loop
      vertex -22.9137 -30.8461 7.3
      vertex -25.7775 -32.856 6.77202
      vertex -22.9137 -34.6242 6.77202
    endloop
  endfacet
  facet normal -0.525366 -0.850876 0
    outer loop
      vertex -25.7775 -32.856 6.77202
      vertex -25.7775 -32.856 5.22798
      vertex -22.9137 -34.6242 5.22798
    endloop
  endfacet
  facet normal -0.525366 -0.850876 0
    outer loop
      vertex -22.9137 -34.6242 6.77202
      vertex -25.7775 -32.856 6.77202
      vertex -22.9137 -34.6242 5.22798
    endloop
  endfacet
  facet normal -0.24874 -0.402856 -0.880815
    outer loop
      vertex -25.7775 -32.856 5.22798
      vertex -25.7775 -29.0779 3.5
      vertex -22.9137 -34.6242 5.22798
    endloop
  endfacet
  facet normal -0.24874 -0.402856 -0.880815
    outer loop
      vertex -22.9137 -34.6242 5.22798
      vertex -25.7775 -29.0779 3.5
      vertex -22.9137 -30.8461 3.5
    endloop
  endfacet
  facet normal 0 0 -1
    outer loop
      vertex -20.55 -29.45 3.5
      vertex -22.9137 -30.8461 3.5
      vertex -23.45 -29.45 3.5
    endloop
  endfacet
  facet normal 0 0 -1
    outer loop
      vertex -23.45 -26.55 3.5
      vertex -25.7775 -22.0779 3.5
      vertex -22.9137 -23.8461 3.5
    endloop
  endfacet
  facet normal 0 0 -1
    outer loop
      vertex -20.55 -29.45 3.5
      vertex -10 -25 3.5
      vertex -22.9137 -30.8461 3.5
    endloop
  endfacet
  facet normal 0 0 -1
    outer loop
      vertex -22.9137 -30.8461 3.5
      vertex -10 -25 3.5
      vertex -10 -32 3.5
    endloop
  endfacet
  facet normal 0 0 -1
    outer loop
      vertex -22.9137 -30.8461 3.5
      vertex -10 -32 3.5
      vertex -12.9915 -32 3.5
    endloop
  endfacet
  facet normal 0 0 -1
    outer loop
      vertex -22.9137 -30.8461 3.5
      vertex -12.9915 -32 3.5
      vertex -15.755 -32 3.5
    endloop
  endfacet
  facet normal 0 0 -1
    outer loop
      vertex -22.9137 -30.8461 3.5
      vertex -15.755 -32 3.5
      vertex -17.7768 -32 3.5
    endloop
  endfacet
  facet normal 0 0 -1
    outer loop
      vertex -22.9137 -30.8461 3.5
      vertex -17.7768 -32 3.5
      vertex -20.2857 -32 3.5
    endloop
  endfacet
  facet normal 0 0 -1
    outer loop
      vertex -23.45 -29.45 3.5
      vertex -25.7775 -22.0779 3.5
      vertex -23.45 -26.55 3.5
    endloop
  endfacet
  facet normal 0 0 -1
    outer loop
      vertex -25.7775 -29.0779 3.5
      vertex -25.7775 -22.0779 3.5
      vertex -23.45 -29.45 3.5
    endloop
  endfacet
  facet normal 0 0 -1
    outer loop
      vertex -25.7775 -29.0779 3.5
      vertex -23.45 -29.45 3.5
      vertex -22.9137 -30.8461 3.5
    endloop
  endfacet
  facet normal 0 0 -1
    outer loop
      vertex -20.2857 -25 3.5
      vertex -10 -25 3.5
      vertex -20.55 -29.45 3.5
    endloop
  endfacet
  facet normal 0 0 -1
    outer loop
      vertex -20.2857 -25 3.5
      vertex -20.55 -29.45 3.5
      vertex -20.55 -26.55 3.5
    endloop
  endfacet
  facet normal 0 0 -1
    outer loop
      vertex -23.45 -26.55 3.5
      vertex -22.9137 -23.8461 3.5
      vertex -20.2857 -25 3.5
    endloop
  endfacet
  facet normal 0 0 -1
    outer loop
      vertex -23.45 -26.55 3.5
      vertex -20.2857 -25 3.5
      vertex -20.55 -26.55 3.5
    endloop
  endfacet
  facet normal 0.525366 0.850876 0
    outer loop
      vertex -25.7775 -22.0779 3.5
      vertex -25.7775 -22.0779 6.1
      vertex -22.9137 -23.8461 3.5
    endloop
  endfacet
  facet normal 0.525366 0.850876 0
    outer loop
      vertex -22.9137 -23.8461 3.5
      vertex -25.7775 -22.0779 6.1
      vertex -22.9137 -23.8461 7.3
    endloop
  endfacet
  facet normal -0.386472 0 0.922301
    outer loop
      vertex -22.9137 -23.8461 7.3
      vertex -25.7775 -22.0779 6.1
      vertex -22.9137 -30.8461 7.3
    endloop
  endfacet
  facet normal 0.103763 0.168052 0.980302
    outer loop
      vertex -25.7775 -22.0779 6.1
      vertex -25.7775 -29.0779 7.3
      vertex -22.9137 -30.8461 7.3
    endloop
  endfacet
  facet normal -0.134897 -0.137136 0.981324
    outer loop
      vertex -22.9137 -30.8461 7.3
      vertex -22.9137 -34.6242 6.77202
      vertex -20.2857 -32 7.5
    endloop
  endfacet
  facet normal -0.0758844 0 0.997117
    outer loop
      vertex -22.9137 -23.8461 7.3
      vertex -22.9137 -30.8461 7.3
      vertex -20.2857 -32 7.5
    endloop
  endfacet
  facet normal -0.0758844 0 0.997117
    outer loop
      vertex -20.2857 -25 7.5
      vertex -22.9137 -23.8461 7.3
      vertex -20.2857 -32 7.5
    endloop
  endfacet
  facet normal -0.0827914 -0.188553 0.978567
    outer loop
      vertex -20.2857 -32 7.5
      vertex -22.9137 -34.6242 6.77202
      vertex -20.2857 -35.7781 6.77202
    endloop
  endfacet
  facet normal -0.402039 -0.915623 0
    outer loop
      vertex -22.9137 -34.6242 6.77202
      vertex -22.9137 -34.6242 5.22798
      vertex -20.2857 -35.7781 5.22798
    endloop
  endfacet
  facet normal -0.402039 -0.915623 0
    outer loop
      vertex -20.2857 -35.7781 6.77202
      vertex -22.9137 -34.6242 6.77202
      vertex -20.2857 -35.7781 5.22798
    endloop
  endfacet
  facet normal -0.179658 -0.409161 -0.894601
    outer loop
      vertex -20.2857 -35.7781 5.22798
      vertex -22.9137 -34.6242 5.22798
      vertex -22.9137 -30.8461 3.5
    endloop
  endfacet
  facet normal -0.179657 -0.409161 -0.894601
    outer loop
      vertex -20.2857 -35.7781 5.22798
      vertex -22.9137 -30.8461 3.5
      vertex -20.2857 -32 3.5
    endloop
  endfacet
  facet normal 0 -0.415928 -0.909397
    outer loop
      vertex -20.2857 -35.7781 5.22798
      vertex -20.2857 -32 3.5
      vertex -17.7768 -35.7781 5.22798
    endloop
  endfacet
  facet normal 0 -0.415928 -0.909397
    outer loop
      vertex -17.7768 -35.7781 5.22798
      vertex -20.2857 -32 3.5
      vertex -17.7768 -32 3.5
    endloop
  endfacet
  facet normal 0 -0.606851 -0.794816
    outer loop
      vertex -15.755 -34.2632 5.22798
      vertex -17.7768 -32 3.5
      vertex -15.755 -32 3.5
    endloop
  endfacet
  facet normal 0.297541 -0.397091 -0.86821
    outer loop
      vertex -15.755 -34.2632 5.22798
      vertex -17.7768 -35.7781 5.22798
      vertex -17.7768 -32 3.5
    endloop
  endfacet
  facet normal 0.168909 -0.598132 -0.783395
    outer loop
      vertex -12.9915 -33.4828 5.22798
      vertex -15.755 -34.2632 5.22798
      vertex -15.755 -32 3.5
    endloop
  endfacet
  facet normal 0 -0.758892 -0.651216
    outer loop
      vertex -12.9915 -33.4828 5.22798
      vertex -15.755 -32 3.5
      vertex -12.9915 -32 3.5
    endloop
  endfacet
  facet normal 1 0 0
    outer loop
      vertex -12.9915 -33.4828 6.77202
      vertex -12.9915 -33.4828 5.22798
      vertex -12.9915 -32 3.5
    endloop
  endfacet
  facet normal 1 0 0
    outer loop
      vertex -12.9915 -32 8.5
      vertex -12.9915 -33.4828 6.77202
      vertex -12.9915 -32 3.5
    endloop
  endfacet
  facet normal 0 -1 0
    outer loop
      vertex -12.9915 -32 8.5
      vertex -12.9915 -32 3.5
      vertex -10 -32 3.5
    endloop
  endfacet
  facet normal 0 -1 0
    outer loop
      vertex -10 -32 8.5
      vertex -12.9915 -32 8.5
      vertex -10 -32 3.5
    endloop
  endfacet
  facet normal 1 0 0
    outer loop
      vertex -10 -31.45 4.05
      vertex -10 -32 3.5
      vertex -10 -25 3.5
    endloop
  endfacet
  facet normal 1 0 0
    outer loop
      vertex -10 -32 8.5
      vertex -10 -32 3.5
      vertex -10 -31.45 4.05
    endloop
  endfacet
  facet normal 1 0 0
    outer loop
      vertex -10 -31.45 7.95
      vertex -10 -25.55 7.95
      vertex -10 -32 8.5
    endloop
  endfacet
  facet normal 1 0 0
    outer loop
      vertex -10 -32 8.5
      vertex -10 -31.45 4.05
      vertex -10 -31.45 7.95
    endloop
  endfacet
  facet normal 1 0 0
    outer loop
      vertex -10 -25 8.5
      vertex -10 -25.55 7.95
      vertex -10 -25 3.5
    endloop
  endfacet
  facet normal 1 0 0
    outer loop
      vertex -10 -25 8.5
      vertex -10 -32 8.5
      vertex -10 -25.55 7.95
    endloop
  endfacet
  facet normal 1 0 0
    outer loop
      vertex -10 -25.55 7.95
      vertex -10 -25.55 4.05
      vertex -10 -25 3.5
    endloop
  endfacet
  facet normal 1 0 0
    outer loop
      vertex -10 -25.55 4.05
      vertex -10 -31.45 4.05
      vertex -10 -25 3.5
    endloop
  endfacet
  facet normal 0 1 0
    outer loop
      vertex -20.2857 -25 3.5
      vertex -20.2857 -25 7.5
      vertex -10 -25 3.5
    endloop
  endfacet
  facet normal 0 1 0
    outer loop
      vertex -10 -25 3.5
      vertex -20.2857 -25 7.5
      vertex -17.7768 -25 7.7
    endloop
  endfacet
  facet normal 0 1 0
    outer loop
      vertex -10 -25 3.5
      vertex -17.7768 -25 7.7
      vertex -15.755 -25 7.9
    endloop
  endfacet
  facet normal 0 1 0
    outer loop
      vertex -15.755 -25 7.9
      vertex -12.9915 -25 8.5
      vertex -10 -25 3.5
    endloop
  endfacet
  facet normal 0 1 0
    outer loop
      vertex -10 -25 3.5
      vertex -12.9915 -25 8.5
      vertex -10 -25 8.5
    endloop
  endfacet
  facet normal 0.402038 0.915623 0
    outer loop
      vertex -22.9137 -23.8461 3.5
      vertex -22.9137 -23.8461 7.3
      vertex -20.2857 -25 3.5
    endloop
  endfacet
  facet normal 0.402038 0.915623 0
    outer loop
      vertex -20.2857 -25 3.5
      vertex -22.9137 -23.8461 7.3
      vertex -20.2857 -25 7.5
    endloop
  endfacet
  facet normal 1 0 0
    outer loop
      vertex -23.45 -26.55 3.5
      vertex -23.45 -26.55 4.95
      vertex -23.45 -29.45 4.95
    endloop
  endfacet
  facet normal 1 0 0
    outer loop
      vertex -23.45 -29.45 3.5
      vertex -23.45 -26.55 3.5
      vertex -23.45 -29.45 4.95
    endloop
  endfacet
  facet normal 0 -1 0
    outer loop
      vertex -20.55 -26.55 3.5
      vertex -20.55 -26.55 4.95
      vertex -23.45 -26.55 4.95
    endloop
  endfacet
  facet normal 0 -1 0
    outer loop
      vertex -23.45 -26.55 3.5
      vertex -20.55 -26.55 3.5
      vertex -23.45 -26.55 4.95
    endloop
  endfacet
  facet normal -1 0 0
    outer loop
      vertex -20.55 -26.55 4.95
      vertex -20.55 -26.55 3.5
      vertex -20.55 -29.45 4.95
    endloop
  endfacet
  facet normal -1 0 0
    outer loop
      vertex -20.55 -29.45 4.95
      vertex -20.55 -26.55 3.5
      vertex -20.55 -29.45 3.5
    endloop
  endfacet
  facet normal 0 1 0
    outer loop
      vertex -20.55 -29.45 4.95
      vertex -20.55 -29.45 3.5
      vertex -23.45 -29.45 4.95
    endloop
  endfacet
  facet normal 0 1 0
    outer loop
      vertex -23.45 -29.45 4.95
      vertex -20.55 -29.45 3.5
      vertex -23.45 -29.45 3.5
    endloop
  endfacet
  facet normal -0.0794626 0 0.996838
    outer loop
      vertex -20.2857 -25 7.5
      vertex -20.2857 -32 7.5
      vertex -17.7768 -32 7.7
    endloop
  endfacet
  facet normal -0.0794626 0 0.996838
    outer loop
      vertex -17.7768 -25 7.7
      vertex -20.2857 -25 7.5
      vertex -17.7768 -32 7.7
    endloop
  endfacet
  facet normal -0.0780362 -0.188626 0.978944
    outer loop
      vertex -20.2857 -32 7.5
      vertex -20.2857 -35.7781 6.77202
      vertex -17.7768 -32 7.7
    endloop
  endfacet
  facet normal 0 -0.23853 0.971135
    outer loop
      vertex -17.7768 -32 7.7
      vertex -20.2857 -35.7781 6.77202
      vertex -17.7768 -35.7781 6.77202
    endloop
  endfacet
  facet normal 0 -1 0
    outer loop
      vertex -20.2857 -35.7781 6.77202
      vertex -20.2857 -35.7781 5.22798
      vertex -17.7768 -35.7781 5.22798
    endloop
  endfacet
  facet normal 0 -1 0
    outer loop
      vertex -17.7768 -35.7781 6.77202
      vertex -20.2857 -35.7781 6.77202
      vertex -17.7768 -35.7781 5.22798
    endloop
  endfacet
  facet normal 0.599643 -0.800268 0
    outer loop
      vertex -17.7768 -35.7781 6.77202
      vertex -17.7768 -35.7781 5.22798
      vertex -15.755 -34.2632 5.22798
    endloop
  endfacet
  facet normal 0.599643 -0.800268 0
    outer loop
      vertex -15.755 -34.2632 6.77202
      vertex -17.7768 -35.7781 6.77202
      vertex -15.755 -34.2632 5.22798
    endloop
  endfacet
  facet normal 0.271766 -0.962363 0
    outer loop
      vertex -15.755 -34.2632 6.77202
      vertex -15.755 -34.2632 5.22798
      vertex -12.9915 -33.4828 5.22798
    endloop
  endfacet
  facet normal 0.271766 -0.962363 0
    outer loop
      vertex -12.9915 -33.4828 6.77202
      vertex -15.755 -34.2632 6.77202
      vertex -12.9915 -33.4828 5.22798
    endloop
  endfacet
  facet normal 0.209549 -0.742043 0.636758
    outer loop
      vertex -12.9915 -32 8.5
      vertex -15.755 -34.2632 6.77202
      vertex -12.9915 -33.4828 6.77202
    endloop
  endfacet
  facet normal -0.190752 -0.437876 0.878566
    outer loop
      vertex -15.755 -32 7.9
      vertex -15.755 -34.2632 6.77202
      vertex -12.9915 -32 8.5
    endloop
  endfacet
  facet normal -0.212174 0 0.977232
    outer loop
      vertex -15.755 -25 7.9
      vertex -15.755 -32 7.9
      vertex -12.9915 -32 8.5
    endloop
  endfacet
  facet normal -0.212174 0 0.977232
    outer loop
      vertex -12.9915 -25 8.5
      vertex -15.755 -25 7.9
      vertex -12.9915 -32 8.5
    endloop
  endfacet
  facet normal 0 0 1
    outer loop
      vertex -12.9915 -25 8.5
      vertex -12.9915 -32 8.5
      vertex -10 -32 8.5
    endloop
  endfacet
  facet normal 0 0 1
    outer loop
      vertex -10 -25 8.5
      vertex -12.9915 -25 8.5
      vertex -10 -32 8.5
    endloop
  endfacet
  facet normal 0 0 -1
    outer loop
      vertex -10 -31.45 4.05
      vertex -10 -25.55 4.05
      vertex -6.05 -31.45 4.05
    endloop
  endfacet
  facet normal 0 0 -1
    outer loop
      vertex -6.05 -31.45 4.05
      vertex -10 -25.55 4.05
      vertex -6.05 -25.55 4.05
    endloop
  endfacet
  facet normal 0 -1 0
    outer loop
      vertex -10 -31.45 7.95
      vertex -10 -31.45 4.05
      vertex -6.05 -31.45 4.05
    endloop
  endfacet
  facet normal 0 -1 0
    outer loop
      vertex -6.05 -31.45 7.95
      vertex -10 -31.45 7.95
      vertex -6.05 -31.45 4.05
    endloop
  endfacet
  facet normal 0 1 0
    outer loop
      vertex -10 -25.55 4.05
      vertex -10 -25.55 7.95
      vertex -6.05 -25.55 4.05
    endloop
  endfacet
  facet normal 0 1 0
    outer loop
      vertex -6.05 -25.55 4.05
      vertex -10 -25.55 7.95
      vertex -6.05 -25.55 7.95
    endloop
  endfacet
  facet normal 0 0 1
    outer loop
      vertex -10 -25.55 7.95
      vertex -10 -31.45 7.95
      vertex -6.05 -31.45 7.95
    endloop
  endfacet
  facet normal 0 0 1
    outer loop
      vertex -6.05 -25.55 7.95
      vertex -10 -25.55 7.95
      vertex -6.05 -31.45 7.95
    endloop
  endfacet
  facet normal -0.0984439 0 0.995143
    outer loop
      vertex -17.7768 -25 7.7
      vertex -17.7768 -32 7.7
      vertex -15.755 -32 7.9
    endloop
  endfacet
  facet normal -0.0984439 0 0.995143
    outer loop
      vertex -15.755 -25 7.9
      vertex -17.7768 -25 7.7
      vertex -15.755 -32 7.9
    endloop
  endfacet
  facet normal 0 0 -1
    outer loop
      vertex -20.55 -26.55 4.95
      vertex -20.55 -29.45 4.95
      vertex -23.45 -26.55 4.95
    endloop
  endfacet
  facet normal 0 0 -1
    outer loop
      vertex -23.45 -26.55 4.95
      vertex -20.55 -29.45 4.95
      vertex -23.45 -29.45 4.95
    endloop
  endfacet
  facet normal -0.0956287 -0.237437 0.966685
    outer loop
      vertex -17.7768 -32 7.7
      vertex -17.7768 -35.7781 6.77202
      vertex -15.755 -32 7.9
    endloop
  endfacet
  facet normal 0.317001 -0.423061 0.84884
    outer loop
      vertex -15.755 -32 7.9
      vertex -17.7768 -35.7781 6.77202
      vertex -15.755 -34.2632 6.77202
    endloop
  endfacet
  facet normal 1 0 0
    outer loop
      vertex -6.05 -31.45 7.95
      vertex -6.05 -31.45 4.05
      vertex -6.05 -25.55 4.05
    endloop
  endfacet
  facet normal 1 0 0
    outer loop
      vertex -6.05 -25.55 7.95
      vertex -6.05 -31.45 7.95
      vertex -6.05 -25.55 4.05
    endloop
  endfacet
  facet normal -1 0 0
    outer loop
      vertex 6.05 -31.45 4.05
      vertex 6.05 -31.45 7.95
      vertex 6.05 -25.55 4.05
    endloop
  endfacet
  facet normal -1 0 0
    outer loop
      vertex 6.05 -25.55 4.05
      vertex 6.05 -31.45 7.95
      vertex 6.05 -25.55 7.95
    endloop
  endfacet
  facet normal 0 -1 0
    outer loop
      vertex 6.05 -31.45 7.95
      vertex 6.05 -31.45 4.05
      vertex 10 -31.45 4.05
    endloop
  endfacet
  facet normal 0 -1 0
    outer loop
      vertex 10 -31.45 7.95
      vertex 6.05 -31.45 7.95
      vertex 10 -31.45 4.05
    endloop
  endfacet
  facet normal 0 0 -1
    outer loop
      vertex 6.05 -31.45 4.05
      vertex 6.05 -25.55 4.05
      vertex 10 -31.45 4.05
    endloop
  endfacet
  facet normal 0 0 -1
    outer loop
      vertex 10 -31.45 4.05
      vertex 6.05 -25.55 4.05
      vertex 10 -25.55 4.05
    endloop
  endfacet
  facet normal 0 1 0
    outer loop
      vertex 6.05 -25.55 4.05
      vertex 6.05 -25.55 7.95
      vertex 10 -25.55 4.05
    endloop
  endfacet
  facet normal 0 1 0
    outer loop
      vertex 10 -25.55 4.05
      vertex 6.05 -25.55 7.95
      vertex 10 -25.55 7.95
    endloop
  endfacet
  facet normal 0 0 1
    outer loop
      vertex 6.05 -25.55 7.95
      vertex 6.05 -31.45 7.95
      vertex 10 -31.45 7.95
    endloop
  endfacet
  facet normal 0 0 1
    outer loop
      vertex 10 -25.55 7.95
      vertex 6.05 -25.55 7.95
      vertex 10 -31.45 7.95
    endloop
  endfacet
  facet normal -1 0 0
    outer loop
      vertex 10 -25.55 4.05
      vertex 10 -25 3.5
      vertex 10 -31.45 4.05
    endloop
  endfacet
  facet normal -1 0 0
    outer loop
      vertex 10 -25.55 7.95
      vertex 10 -32 8.5
      vertex 10 -25 8.5
    endloop
  endfacet
  facet normal -1 0 0
    outer loop
      vertex 10 -32 3.5
      vertex 10 -32 8.5
      vertex 10 -31.45 7.95
    endloop
  endfacet
  facet normal -1 0 0
    outer loop
      vertex 10 -32 3.5
      vertex 10 -31.45 7.95
      vertex 10 -31.45 4.05
    endloop
  endfacet
  facet normal -1 0 0
    outer loop
      vertex 10 -32 3.5
      vertex 10 -31.45 4.05
      vertex 10 -25 3.5
    endloop
  endfacet
  facet normal -1 0 0
    outer loop
      vertex 10 -25 3.5
      vertex 10 -25.55 4.05
      vertex 10 -25 8.5
    endloop
  endfacet
  facet normal -1 0 0
    outer loop
      vertex 10 -25.55 4.05
      vertex 10 -25.55 7.95
      vertex 10 -25 8.5
    endloop
  endfacet
  facet normal -1 0 0
    outer loop
      vertex 10 -31.45 7.95
      vertex 10 -32 8.5
      vertex 10 -25.55 7.95
    endloop
  endfacet
  facet normal 0 1 0
    outer loop
      vertex 10 -25 3.5
      vertex 10 -25 8.5
      vertex 20.2857 -25 3.5
    endloop
  endfacet
  facet normal 0 1 0
    outer loop
      vertex 20.2857 -25 3.5
      vertex 10 -25 8.5
      vertex 12.9915 -25 8.5
    endloop
  endfacet
  facet normal 0 1 0
    outer loop
      vertex 20.2857 -25 3.5
      vertex 12.9915 -25 8.5
      vertex 15.755 -25 7.9
    endloop
  endfacet
  facet normal 0 1 0
    outer loop
      vertex 20.2857 -25 3.5
      vertex 15.755 -25 7.9
      vertex 17.7768 -25 7.7
    endloop
  endfacet
  facet normal 0 1 0
    outer loop
      vertex 17.7768 -25 7.7
      vertex 20.2857 -25 7.5
      vertex 20.2857 -25 3.5
    endloop
  endfacet
  facet normal 0 0 -1
    outer loop
      vertex 10 -32 3.5
      vertex 10 -25 3.5
      vertex 12.9915 -32 3.5
    endloop
  endfacet
  facet normal 0 0 -1
    outer loop
      vertex 12.9915 -32 3.5
      vertex 10 -25 3.5
      vertex 20.2857 -25 3.5
    endloop
  endfacet
  facet normal 0 0 -1
    outer loop
      vertex 12.9915 -32 3.5
      vertex 20.2857 -25 3.5
      vertex 22.9137 -23.8461 3.5
    endloop
  endfacet
  facet normal 0 0 -1
    outer loop
      vertex 22.9137 -23.8461 3.5
      vertex 25.7775 -22.0779 3.5
      vertex 12.9915 -32 3.5
    endloop
  endfacet
  facet normal 0 0 -1
    outer loop
      vertex 23.45 -26.55 3.5
      vertex 25.7775 -22.0779 3.5
      vertex 25.7775 -29.0779 3.5
    endloop
  endfacet
  facet normal 0 0 -1
    outer loop
      vertex 12.9915 -32 3.5
      vertex 25.7775 -29.0779 3.5
      vertex 22.9137 -30.8461 3.5
    endloop
  endfacet
  facet normal 0 0 -1
    outer loop
      vertex 17.7768 -32 3.5
      vertex 22.9137 -30.8461 3.5
      vertex 20.2857 -32 3.5
    endloop
  endfacet
  facet normal 0 0 -1
    outer loop
      vertex 15.755 -32 3.5
      vertex 22.9137 -30.8461 3.5
      vertex 17.7768 -32 3.5
    endloop
  endfacet
  facet normal 0 0 -1
    outer loop
      vertex 12.9915 -32 3.5
      vertex 22.9137 -30.8461 3.5
      vertex 15.755 -32 3.5
    endloop
  endfacet
  facet normal 0 0 -1
    outer loop
      vertex 12.9915 -32 3.5
      vertex 25.7775 -22.0779 3.5
      vertex 20.55 -26.55 3.5
    endloop
  endfacet
  facet normal 0 0 -1
    outer loop
      vertex 12.9915 -32 3.5
      vertex 20.55 -26.55 3.5
      vertex 20.55 -29.45 3.5
    endloop
  endfacet
  facet normal 0 0 -1
    outer loop
      vertex 12.9915 -32 3.5
      vertex 20.55 -29.45 3.5
      vertex 23.45 -29.45 3.5
    endloop
  endfacet
  facet normal 0 0 -1
    outer loop
      vertex 12.9915 -32 3.5
      vertex 23.45 -29.45 3.5
      vertex 25.7775 -29.0779 3.5
    endloop
  endfacet
  facet normal 0 0 -1
    outer loop
      vertex 20.55 -26.55 3.5
      vertex 25.7775 -22.0779 3.5
      vertex 23.45 -26.55 3.5
    endloop
  endfacet
  facet normal 0 0 -1
    outer loop
      vertex 23.45 -26.55 3.5
      vertex 25.7775 -29.0779 3.5
      vertex 23.45 -29.45 3.5
    endloop
  endfacet
  facet normal 0 0 1
    outer loop
      vertex 10 -25 8.5
      vertex 10 -32 8.5
      vertex 12.9915 -32 8.5
    endloop
  endfacet
  facet normal 0 0 1
    outer loop
      vertex 12.9915 -25 8.5
      vertex 10 -25 8.5
      vertex 12.9915 -32 8.5
    endloop
  endfacet
  facet normal 0 -1 0
    outer loop
      vertex 10 -32 8.5
      vertex 10 -32 3.5
      vertex 12.9915 -32 3.5
    endloop
  endfacet
  facet normal 0 -1 0
    outer loop
      vertex 12.9915 -32 8.5
      vertex 10 -32 8.5
      vertex 12.9915 -32 3.5
    endloop
  endfacet
  facet normal -0.402038 0.915623 0
    outer loop
      vertex 20.2857 -25 3.5
      vertex 20.2857 -25 7.5
      vertex 22.9137 -23.8461 3.5
    endloop
  endfacet
  facet normal -0.402038 0.915623 0
    outer loop
      vertex 22.9137 -23.8461 3.5
      vertex 20.2857 -25 7.5
      vertex 22.9137 -23.8461 7.3
    endloop
  endfacet
  facet normal 0.0758844 0 0.997117
    outer loop
      vertex 20.2857 -25 7.5
      vertex 20.2857 -32 7.5
      vertex 22.9137 -30.8461 7.3
    endloop
  endfacet
  facet normal 0.0758844 0 0.997117
    outer loop
      vertex 22.9137 -23.8461 7.3
      vertex 20.2857 -25 7.5
      vertex 22.9137 -30.8461 7.3
    endloop
  endfacet
  facet normal 0.0794626 0 0.996838
    outer loop
      vertex 17.7768 -25 7.7
      vertex 17.7768 -32 7.7
      vertex 20.2857 -32 7.5
    endloop
  endfacet
  facet normal 0.0794626 0 0.996838
    outer loop
      vertex 20.2857 -25 7.5
      vertex 17.7768 -25 7.7
      vertex 20.2857 -32 7.5
    endloop
  endfacet
  facet normal 0.0984439 0 0.995143
    outer loop
      vertex 15.755 -25 7.9
      vertex 15.755 -32 7.9
      vertex 17.7768 -32 7.7
    endloop
  endfacet
  facet normal 0.0984439 0 0.995143
    outer loop
      vertex 17.7768 -25 7.7
      vertex 15.755 -25 7.9
      vertex 17.7768 -32 7.7
    endloop
  endfacet
  facet normal 0.212174 0 0.977232
    outer loop
      vertex 12.9915 -25 8.5
      vertex 12.9915 -32 8.5
      vertex 15.755 -32 7.9
    endloop
  endfacet
  facet normal 0.212174 0 0.977232
    outer loop
      vertex 15.755 -25 7.9
      vertex 12.9915 -25 8.5
      vertex 15.755 -32 7.9
    endloop
  endfacet
  facet normal 0 -0.758892 -0.651216
    outer loop
      vertex 15.755 -32 3.5
      vertex 12.9915 -33.4828 5.22798
      vertex 12.9915 -32 3.5
    endloop
  endfacet
  facet normal -1 0 0
    outer loop
      vertex 12.9915 -33.4828 5.22798
      vertex 12.9915 -33.4828 6.77202
      vertex 12.9915 -32 3.5
    endloop
  endfacet
  facet normal -1 0 0
    outer loop
      vertex 12.9915 -32 3.5
      vertex 12.9915 -33.4828 6.77202
      vertex 12.9915 -32 8.5
    endloop
  endfacet
  facet normal 0 -0.606851 -0.794816
    outer loop
      vertex 17.7768 -32 3.5
      vertex 15.755 -34.2632 5.22798
      vertex 15.755 -32 3.5
    endloop
  endfacet
  facet normal -0.168909 -0.598132 -0.783395
    outer loop
      vertex 15.755 -34.2632 5.22798
      vertex 12.9915 -33.4828 5.22798
      vertex 15.755 -32 3.5
    endloop
  endfacet
  facet normal -0.297541 -0.397091 -0.86821
    outer loop
      vertex 17.7768 -35.7781 5.22798
      vertex 15.755 -34.2632 5.22798
      vertex 17.7768 -32 3.5
    endloop
  endfacet
  facet normal 0 -0.415928 -0.909397
    outer loop
      vertex 17.7768 -35.7781 5.22798
      vertex 17.7768 -32 3.5
      vertex 20.2857 -35.7781 5.22798
    endloop
  endfacet
  facet normal 0 -0.415928 -0.909397
    outer loop
      vertex 20.2857 -35.7781 5.22798
      vertex 17.7768 -32 3.5
      vertex 20.2857 -32 3.5
    endloop
  endfacet
  facet normal 0.179657 -0.409161 -0.894601
    outer loop
      vertex 22.9137 -30.8461 3.5
      vertex 20.2857 -35.7781 5.22798
      vertex 20.2857 -32 3.5
    endloop
  endfacet
  facet normal 0.179658 -0.409161 -0.894601
    outer loop
      vertex 22.9137 -34.6242 5.22798
      vertex 20.2857 -35.7781 5.22798
      vertex 22.9137 -30.8461 3.5
    endloop
  endfacet
  facet normal 0.24874 -0.402856 -0.880815
    outer loop
      vertex 22.9137 -34.6242 5.22798
      vertex 22.9137 -30.8461 3.5
      vertex 25.7775 -32.856 5.22798
    endloop
  endfacet
  facet normal 0.24874 -0.402856 -0.880815
    outer loop
      vertex 25.7775 -32.856 5.22798
      vertex 22.9137 -30.8461 3.5
      vertex 25.7775 -29.0779 3.5
    endloop
  endfacet
  facet normal 0.506516 -0.358626 -0.78411
    outer loop
      vertex 28.8934 -26.5881 4.37409
      vertex 25.7775 -32.856 5.22798
      vertex 25.7775 -29.0779 3.5
    endloop
  endfacet
  facet normal 0.270096 0 -0.962833
    outer loop
      vertex 25.7775 -29.0779 3.5
      vertex 25.7775 -22.0779 3.5
      vertex 28.8934 -26.5881 4.37409
    endloop
  endfacet
  facet normal 0.270096 0 -0.962833
    outer loop
      vertex 28.8934 -26.5881 4.37409
      vertex 25.7775 -22.0779 3.5
      vertex 28.8934 -19.5881 4.37409
    endloop
  endfacet
  facet normal -0.525366 0.850876 0
    outer loop
      vertex 22.9137 -23.8461 3.5
      vertex 22.9137 -23.8461 7.3
      vertex 25.7775 -22.0779 3.5
    endloop
  endfacet
  facet normal -0.525366 0.850876 0
    outer loop
      vertex 25.7775 -22.0779 3.5
      vertex 22.9137 -23.8461 7.3
      vertex 25.7775 -22.0779 6.1
    endloop
  endfacet
  facet normal -0.624237 0.781235 0
    outer loop
      vertex 25.7775 -22.0779 3.5
      vertex 25.7775 -22.0779 6.1
      vertex 28.8934 -19.5881 4.37409
    endloop
  endfacet
  facet normal -0.624237 0.781235 0
    outer loop
      vertex 28.8934 -19.5881 4.37409
      vertex 25.7775 -22.0779 6.1
      vertex 28.8934 -19.5881 7.51084
    endloop
  endfacet
  facet normal 1 0 0
    outer loop
      vertex 20.55 -26.55 3.5
      vertex 20.55 -26.55 4.95
      vertex 20.55 -29.45 4.95
    endloop
  endfacet
  facet normal 1 0 0
    outer loop
      vertex 20.55 -29.45 3.5
      vertex 20.55 -26.55 3.5
      vertex 20.55 -29.45 4.95
    endloop
  endfacet
  facet normal 0 -1 0
    outer loop
      vertex 23.45 -26.55 3.5
      vertex 23.45 -26.55 4.95
      vertex 20.55 -26.55 4.95
    endloop
  endfacet
  facet normal 0 -1 0
    outer loop
      vertex 20.55 -26.55 3.5
      vertex 23.45 -26.55 3.5
      vertex 20.55 -26.55 4.95
    endloop
  endfacet
  facet normal -1 0 0
    outer loop
      vertex 23.45 -26.55 4.95
      vertex 23.45 -26.55 3.5
      vertex 23.45 -29.45 4.95
    endloop
  endfacet
  facet normal -1 0 0
    outer loop
      vertex 23.45 -29.45 4.95
      vertex 23.45 -26.55 3.5
      vertex 23.45 -29.45 3.5
    endloop
  endfacet
  facet normal 0 1 0
    outer loop
      vertex 23.45 -29.45 4.95
      vertex 23.45 -29.45 3.5
      vertex 20.55 -29.45 4.95
    endloop
  endfacet
  facet normal 0 1 0
    outer loop
      vertex 20.55 -29.45 4.95
      vertex 23.45 -29.45 3.5
      vertex 20.55 -29.45 3.5
    endloop
  endfacet
  facet normal 0.190752 -0.437876 0.878566
    outer loop
      vertex 15.755 -32 7.9
      vertex 12.9915 -32 8.5
      vertex 15.755 -34.2632 6.77202
    endloop
  endfacet
  facet normal -0.209549 -0.742043 0.636758
    outer loop
      vertex 12.9915 -32 8.5
      vertex 12.9915 -33.4828 6.77202
      vertex 15.755 -34.2632 6.77202
    endloop
  endfacet
  facet normal 0.386472 0 0.922301
    outer loop
      vertex 22.9137 -23.8461 7.3
      vertex 22.9137 -30.8461 7.3
      vertex 25.7775 -22.0779 6.1
    endloop
  endfacet
  facet normal 0.134897 -0.137136 0.981324
    outer loop
      vertex 22.9137 -30.8461 7.3
      vertex 20.2857 -32 7.5
      vertex 22.9137 -34.6242 6.77202
    endloop
  endfacet
  facet normal -0.103763 0.168052 0.980302
    outer loop
      vertex 25.7775 -22.0779 6.1
      vertex 22.9137 -30.8461 7.3
      vertex 25.7775 -29.0779 7.3
    endloop
  endfacet
  facet normal 0.0851439 -0.137899 0.98678
    outer loop
      vertex 25.7775 -29.0779 7.3
      vertex 22.9137 -30.8461 7.3
      vertex 25.7775 -32.856 6.77202
    endloop
  endfacet
  facet normal 0.0851443 -0.137899 0.98678
    outer loop
      vertex 22.9137 -30.8461 7.3
      vertex 22.9137 -34.6242 6.77202
      vertex 25.7775 -32.856 6.77202
    endloop
  endfacet
  facet normal 0.0827914 -0.188553 0.978567
    outer loop
      vertex 20.2857 -32 7.5
      vertex 20.2857 -35.7781 6.77202
      vertex 22.9137 -34.6242 6.77202
    endloop
  endfacet
  facet normal 0.0780362 -0.188626 0.978944
    outer loop
      vertex 20.2857 -32 7.5
      vertex 17.7768 -32 7.7
      vertex 20.2857 -35.7781 6.77202
    endloop
  endfacet
  facet normal 0.0956287 -0.237437 0.966685
    outer loop
      vertex 17.7768 -32 7.7
      vertex 15.755 -32 7.9
      vertex 17.7768 -35.7781 6.77202
    endloop
  endfacet
  facet normal 0 -0.23853 0.971135
    outer loop
      vertex 17.7768 -32 7.7
      vertex 17.7768 -35.7781 6.77202
      vertex 20.2857 -35.7781 6.77202
    endloop
  endfacet
  facet normal -0.317001 -0.423061 0.84884
    outer loop
      vertex 15.755 -32 7.9
      vertex 15.755 -34.2632 6.77202
      vertex 17.7768 -35.7781 6.77202
    endloop
  endfacet
  facet normal -0.271766 -0.962363 0
    outer loop
      vertex 12.9915 -33.4828 6.77202
      vertex 12.9915 -33.4828 5.22798
      vertex 15.755 -34.2632 5.22798
    endloop
  endfacet
  facet normal -0.271766 -0.962363 0
    outer loop
      vertex 15.755 -34.2632 6.77202
      vertex 12.9915 -33.4828 6.77202
      vertex 15.755 -34.2632 5.22798
    endloop
  endfacet
  facet normal -0.599643 -0.800268 0
    outer loop
      vertex 15.755 -34.2632 6.77202
      vertex 15.755 -34.2632 5.22798
      vertex 17.7768 -35.7781 5.22798
    endloop
  endfacet
  facet normal -0.599643 -0.800268 0
    outer loop
      vertex 17.7768 -35.7781 6.77202
      vertex 15.755 -34.2632 6.77202
      vertex 17.7768 -35.7781 5.22798
    endloop
  endfacet
  facet normal 0 -1 0
    outer loop
      vertex 17.7768 -35.7781 6.77202
      vertex 17.7768 -35.7781 5.22798
      vertex 20.2857 -35.7781 5.22798
    endloop
  endfacet
  facet normal 0 -1 0
    outer loop
      vertex 20.2857 -35.7781 6.77202
      vertex 17.7768 -35.7781 6.77202
      vertex 20.2857 -35.7781 5.22798
    endloop
  endfacet
  facet normal 0.402039 -0.915623 0
    outer loop
      vertex 20.2857 -35.7781 6.77202
      vertex 20.2857 -35.7781 5.22798
      vertex 22.9137 -34.6242 5.22798
    endloop
  endfacet
  facet normal 0.402039 -0.915623 0
    outer loop
      vertex 22.9137 -34.6242 6.77202
      vertex 20.2857 -35.7781 6.77202
      vertex 22.9137 -34.6242 5.22798
    endloop
  endfacet
  facet normal 0.525366 -0.850876 0
    outer loop
      vertex 22.9137 -34.6242 6.77202
      vertex 22.9137 -34.6242 5.22798
      vertex 25.7775 -32.856 5.22798
    endloop
  endfacet
  facet normal 0.525366 -0.850876 0
    outer loop
      vertex 25.7775 -32.856 6.77202
      vertex 22.9137 -34.6242 6.77202
      vertex 25.7775 -32.856 5.22798
    endloop
  endfacet
  facet normal 0.279742 -0.264789 -0.922839
    outer loop
      vertex 28.8934 -30.3662 5.45813
      vertex 25.7775 -32.856 5.22798
      vertex 28.8934 -26.5881 4.37409
    endloop
  endfacet
  facet normal 0.624237 -0.781235 0
    outer loop
      vertex 25.7775 -32.856 6.77202
      vertex 25.7775 -32.856 5.22798
      vertex 28.8934 -30.3662 5.45813
    endloop
  endfacet
  facet normal 0.624237 -0.781235 0
    outer loop
      vertex 28.8934 -30.3662 6.77202
      vertex 25.7775 -32.856 6.77202
      vertex 28.8934 -30.3662 5.45813
    endloop
  endfacet
  facet normal 1 0 0
    outer loop
      vertex 28.8934 -30.3662 6.77202
      vertex 28.8934 -30.3662 5.45813
      vertex 28.8934 -26.5881 4.37409
    endloop
  endfacet
  facet normal 1 0 0
    outer loop
      vertex 28.8934 -19.5881 7.51084
      vertex 28.8934 -30.3662 6.77202
      vertex 28.8934 -19.5881 4.37409
    endloop
  endfacet
  facet normal 1 0 0
    outer loop
      vertex 28.8934 -19.5881 4.37409
      vertex 28.8934 -30.3662 6.77202
      vertex 28.8934 -26.5881 4.37409
    endloop
  endfacet
  facet normal 1 0 0
    outer loop
      vertex 28.8934 -26.5881 7.51084
      vertex 28.8934 -30.3662 6.77202
      vertex 28.8934 -19.5881 7.51084
    endloop
  endfacet
  facet normal -0.502547 0.146078 0.85212
    outer loop
      vertex 25.7775 -22.0779 6.1
      vertex 25.7775 -29.0779 7.3
      vertex 28.8934 -19.5881 7.51084
    endloop
  endfacet
  facet normal -0.0675096 0 0.997719
    outer loop
      vertex 28.8934 -19.5881 7.51084
      vertex 25.7775 -29.0779 7.3
      vertex 28.8934 -26.5881 7.51084
    endloop
  endfacet
  facet normal 0 0 -1
    outer loop
      vertex 23.45 -26.55 4.95
      vertex 23.45 -29.45 4.95
      vertex 20.55 -26.55 4.95
    endloop
  endfacet
  facet normal 0 0 -1
    outer loop
      vertex 20.55 -26.55 4.95
      vertex 23.45 -29.45 4.95
      vertex 20.55 -29.45 4.95
    endloop
  endfacet
  facet normal 0.0866158 -0.191195 0.977723
    outer loop
      vertex 28.8934 -26.5881 7.51084
      vertex 25.7775 -29.0779 7.3
      vertex 28.8934 -30.3662 6.77202
    endloop
  endfacet
  facet normal 0.109918 -0.137563 0.984375
    outer loop
      vertex 25.7775 -29.0779 7.3
      vertex 25.7775 -32.856 6.77202
      vertex 28.8934 -30.3662 6.77202
    endloop
  endfacet
endsolid OpenSCAD_Model
