solid OpenSCAD_Model
  facet normal -0.719266 -0.0385641 0.693664
    outer loop
      vertex -10.7007 -6.62449 7.10636
      vertex -13.8579 0.698181 4.23977
      vertex -13.479 -6.36744 4.23977
    endloop
  endfacet
  facet normal 0 0 -1
    outer loop
      vertex -13.8579 0.698181 4.23977
      vertex -10.004 9.64688 4.23977
      vertex -13.479 -6.36744 4.23977
    endloop
  endfacet
  facet normal 0 0 -1
    outer loop
      vertex -13.479 -6.36744 4.23977
      vertex -10.004 9.64688 4.23977
      vertex -7.39862 8.04465 4.23977
    endloop
  endfacet
  facet normal 0 0 -1
    outer loop
      vertex -7.39862 8.04465 4.23977
      vertex -6.17918 12.703 4.23977
      vertex -7.6034 0.698181 4.23977
    endloop
  endfacet
  facet normal 0 0 -1
    outer loop
      vertex -7.39862 8.04465 4.23977
      vertex -7.6034 0.698181 4.23977
      vertex -9.19128 0.698181 4.23977
    endloop
  endfacet
  facet normal 0 0 -1
    outer loop
      vertex -7.39862 8.04465 4.23977
      vertex -9.19128 0.698181 4.23977
      vertex -13.479 -6.36744 4.23977
    endloop
  endfacet
  facet normal 0 0 -1
    outer loop
      vertex -13.479 -6.36744 4.23977
      vertex -9.19654 -6.36744 4.23977
      vertex -8.39023 -10.238 4.23977
    endloop
  endfacet
  facet normal 0 0 -1
    outer loop
      vertex -13.479 -6.36744 4.23977
      vertex -8.39023 -10.238 4.23977
      vertex -11.055 -10.238 4.23977
    endloop
  endfacet
  facet normal 0 0 -1
    outer loop
      vertex -9.19654 -6.36744 4.23977
      vertex -13.479 -6.36744 4.23977
      vertex -9.19128 0.698181 4.23977
    endloop
  endfacet
  facet normal -0.780603 0.336176 -0.526919
    outer loop
      vertex -10.004 9.64688 4.23977
      vertex -13.8579 0.698181 4.23977
      vertex -12.6391 6.79545 6.32437
    endloop
  endfacet
  facet normal -0.756082 -0.0713027 0.650581
    outer loop
      vertex -12.6391 6.79545 6.32437
      vertex -13.8579 0.698181 4.23977
      vertex -10.7007 -6.62449 7.10636
    endloop
  endfacet
  facet normal 0.285395 0.0967854 0.95351
    outer loop
      vertex -9.96833 -8.78403 7.10636
      vertex -12.6391 6.79545 6.32437
      vertex -10.7007 -6.62449 7.10636
    endloop
  endfacet
  facet normal -0.880598 -0.298635 -0.36792
    outer loop
      vertex -9.96833 -8.78403 7.10636
      vertex -10.7007 -6.62449 7.10636
      vertex -9.29312 -9.32001 5.92532
    endloop
  endfacet
  facet normal 0 -0.401319 0.915939
    outer loop
      vertex -10.7007 -6.62449 7.10636
      vertex -11.9579 -9.32001 5.92532
      vertex -9.29312 -9.32001 5.92532
    endloop
  endfacet
  facet normal -0.584838 0.538545 -0.606576
    outer loop
      vertex -11.055 -10.238 4.23977
      vertex -11.9579 -9.32001 5.92532
      vertex -10.7007 -6.62449 7.10636
    endloop
  endfacet
  facet normal -0.670269 -0.419769 0.611992
    outer loop
      vertex -10.7007 -6.62449 7.10636
      vertex -13.479 -6.36744 4.23977
      vertex -11.055 -10.238 4.23977
    endloop
  endfacet
  facet normal 0 -0.878204 0.478287
    outer loop
      vertex -9.29312 -9.32001 5.92532
      vertex -11.9579 -9.32001 5.92532
      vertex -11.055 -10.238 4.23977
    endloop
  endfacet
  facet normal 0 -0.878204 0.478287
    outer loop
      vertex -8.39023 -10.238 4.23977
      vertex -9.29312 -9.32001 5.92532
      vertex -11.055 -10.238 4.23977
    endloop
  endfacet
  facet normal -0.711725 -0.702457 0.00132827
    outer loop
      vertex -3.92795 -14.7598 3.87548
      vertex -9.29312 -9.32001 5.92532
      vertex -8.39023 -10.238 4.23977
    endloop
  endfacet
  facet normal -0.0942094 -0.0127714 -0.99547
    outer loop
      vertex -3.92795 -14.7598 3.87548
      vertex -8.39023 -10.238 4.23977
      vertex -5.24008 -5.08075 3.87548
    endloop
  endfacet
  facet normal -0.0858999 -0.0178945 -0.996143
    outer loop
      vertex -8.39023 -10.238 4.23977
      vertex -9.19654 -6.36744 4.23977
      vertex -5.24008 -5.08075 3.87548
    endloop
  endfacet
  facet normal 0.973203 -0.0428196 0.225924
    outer loop
      vertex -9.1178 6.79545 6.39536
      vertex -9.96833 -8.78403 7.10636
      vertex -9.19654 -6.36744 4.23977
    endloop
  endfacet
  facet normal 0.999489 -0.000743361 -0.0319699
    outer loop
      vertex -9.1178 6.79545 6.39536
      vertex -9.19654 -6.36744 4.23977
      vertex -9.19128 0.698181 4.23977
    endloop
  endfacet
  facet normal -0.189598 0.759254 0.622564
    outer loop
      vertex -5.24008 -5.08075 3.87548
      vertex -9.19654 -6.36744 4.23977
      vertex -6.38343 -8.5368 7.74214
    endloop
  endfacet
  facet normal -0.161712 0.775531 0.610247
    outer loop
      vertex -9.19654 -6.36744 4.23977
      vertex -9.96833 -8.78403 7.10636
      vertex -6.38343 -8.5368 7.74214
    endloop
  endfacet
  facet normal 0 -0.333317 0.942815
    outer loop
      vertex -9.1178 6.79545 6.39536
      vertex -9.19128 0.698181 4.23977
      vertex -7.6034 0.698181 4.23977
    endloop
  endfacet
  facet normal -0.697588 -0.386544 0.603286
    outer loop
      vertex -7.40405 4.61501 6.97992
      vertex -9.1178 6.79545 6.39536
      vertex -7.6034 0.698181 4.23977
    endloop
  endfacet
  facet normal -0.998782 0.0189635 0.0455585
    outer loop
      vertex -7.40405 4.61501 6.97992
      vertex -7.6034 0.698181 4.23977
      vertex -7.41019 0.698181 8.47558
    endloop
  endfacet
  facet normal -0.782999 -0.620997 0.0357158
    outer loop
      vertex -7.41019 0.698181 8.47558
      vertex -7.6034 0.698181 4.23977
      vertex -4.31876 -3.24191 7.74214
    endloop
  endfacet
  facet normal -0.832332 -0.517582 0.198322
    outer loop
      vertex -4.31876 -3.24191 7.74214
      vertex -7.6034 0.698181 4.23977
      vertex -5.24008 -3.24191 3.87548
    endloop
  endfacet
  facet normal -0.750896 -0.401949 -0.524016
    outer loop
      vertex -5.24008 -3.24191 3.87548
      vertex -7.6034 0.698181 4.23977
      vertex -3.32172 -3.24191 1.12654
    endloop
  endfacet
  facet normal -0.72637 -0.301203 -0.617789
    outer loop
      vertex -3.32172 -3.24191 1.12654
      vertex -7.6034 0.698181 4.23977
      vertex -6.49806 4.41803 1.12654
    endloop
  endfacet
  facet normal -0.97495 0.177272 -0.134339
    outer loop
      vertex -6.49806 4.41803 1.12654
      vertex -7.6034 0.698181 4.23977
      vertex -4.99163 12.703 1.12654
    endloop
  endfacet
  facet normal -0.928645 0.110172 -0.354234
    outer loop
      vertex -4.99163 12.703 1.12654
      vertex -7.6034 0.698181 4.23977
      vertex -6.17918 12.703 4.23977
    endloop
  endfacet
  facet normal -0.799159 0.297912 0.522105
    outer loop
      vertex -6.17918 12.703 4.23977
      vertex -7.40405 4.61501 6.97992
      vertex -5.63348 6.7434 8.47558
    endloop
  endfacet
  facet normal -0.922695 0.241538 0.300488
    outer loop
      vertex -7.39862 8.04465 4.23977
      vertex -7.40405 4.61501 6.97992
      vertex -6.17918 12.703 4.23977
    endloop
  endfacet
  facet normal -0.891492 0.299332 -0.340062
    outer loop
      vertex -4.99163 12.703 1.12654
      vertex -6.17918 12.703 4.23977
      vertex -3.39868 17.4473 1.12654
    endloop
  endfacet
  facet normal -0.897922 0.37463 -0.231058
    outer loop
      vertex -3.39868 17.4473 1.12654
      vertex -6.17918 12.703 4.23977
      vertex -4.41882 16.9223 4.23977
    endloop
  endfacet
  facet normal -0.673689 0.281076 0.683476
    outer loop
      vertex -4.41882 16.9223 4.23977
      vertex -6.17918 12.703 4.23977
      vertex -4.41882 8.40576 7.74214
    endloop
  endfacet
  facet normal -0.261557 0.543137 0.797866
    outer loop
      vertex -4.41882 8.40576 7.74214
      vertex -6.17918 12.703 4.23977
      vertex -5.63348 6.7434 8.47558
    endloop
  endfacet
  facet normal 0.466155 0.551783 0.691546
    outer loop
      vertex -7.39862 8.04465 4.23977
      vertex -9.1178 6.79545 6.39536
      vertex -7.40405 4.61501 6.97992
    endloop
  endfacet
  facet normal 0.387163 0.629558 0.673618
    outer loop
      vertex -7.39862 8.04465 4.23977
      vertex -10.004 9.64688 4.23977
      vertex -9.1178 6.79545 6.39536
    endloop
  endfacet
  facet normal -0.0161273 0.59977 0.80001
    outer loop
      vertex -10.004 9.64688 4.23977
      vertex -12.6391 6.79545 6.32437
      vertex -9.1178 6.79545 6.39536
    endloop
  endfacet
  facet normal -0.0201328 0.0466771 0.998707
    outer loop
      vertex -9.1178 6.79545 6.39536
      vertex -12.6391 6.79545 6.32437
      vertex -9.96833 -8.78403 7.10636
    endloop
  endfacet
  facet normal -0.145048 -0.311678 0.939052
    outer loop
      vertex -6.38343 -8.5368 7.74214
      vertex -9.96833 -8.78403 7.10636
      vertex -5.3022 -13.2916 6.331
    endloop
  endfacet
  facet normal -0.699318 -0.710617 -0.0773141
    outer loop
      vertex -5.3022 -13.2916 6.331
      vertex -9.96833 -8.78403 7.10636
      vertex -9.29312 -9.32001 5.92532
    endloop
  endfacet
  facet normal -0.706523 -0.707159 0.0274234
    outer loop
      vertex -5.3022 -13.2916 6.331
      vertex -9.29312 -9.32001 5.92532
      vertex -3.92795 -14.7598 3.87548
    endloop
  endfacet
  facet normal -0.625443 -0.772232 0.11171
    outer loop
      vertex -3.23732 -14.7598 7.74214
      vertex -5.3022 -13.2916 6.331
      vertex -3.92795 -14.7598 3.87548
    endloop
  endfacet
  facet normal -0.85804 0.490184 0.153254
    outer loop
      vertex -3.92795 -14.7598 3.87548
      vertex -4.30386 -16.6268 7.74214
      vertex -3.23732 -14.7598 7.74214
    endloop
  endfacet
  facet normal -0.919136 0.382262 0.0952068
    outer loop
      vertex -3.92795 -14.7598 3.87548
      vertex -5.22201 -17.8714 3.87548
      vertex -4.30386 -16.6268 7.74214
    endloop
  endfacet
  facet normal -0.836193 0.347767 -0.424074
    outer loop
      vertex -3.31026 -16.6268 1.12654
      vertex -5.22201 -17.8714 3.87548
      vertex -3.92795 -14.7598 3.87548
    endloop
  endfacet
  facet normal -0.82571 0.362813 -0.431937
    outer loop
      vertex -3.31026 -16.6268 1.12654
      vertex -3.92795 -14.7598 3.87548
      vertex -2.48995 -14.7598 1.12654
    endloop
  endfacet
  facet normal -0.837754 -0.325755 -0.438237
    outer loop
      vertex -3.92795 -14.7598 3.87548
      vertex -4.90974 -8.5368 1.12654
      vertex -2.48995 -14.7598 1.12654
    endloop
  endfacet
  facet normal -0.989709 -0.134169 0.0497468
    outer loop
      vertex -3.92795 -14.7598 3.87548
      vertex -5.24008 -5.08075 3.87548
      vertex -4.90974 -8.5368 1.12654
    endloop
  endfacet
  facet normal -0.767387 0.352606 -0.535525
    outer loop
      vertex -4.90974 -8.5368 1.12654
      vertex -5.24008 -5.08075 3.87548
      vertex -3.32172 -5.08075 1.12654
    endloop
  endfacet
  facet normal -0.820057 0 -0.572281
    outer loop
      vertex -5.24008 -5.08075 3.87548
      vertex -5.24008 -3.24191 3.87548
      vertex -3.32172 -5.08075 1.12654
    endloop
  endfacet
  facet normal -0.820057 0 -0.572281
    outer loop
      vertex -3.32172 -5.08075 1.12654
      vertex -5.24008 -3.24191 3.87548
      vertex -3.32172 -3.24191 1.12654
    endloop
  endfacet
  facet normal -0.972767 0 0.231784
    outer loop
      vertex -5.24008 -5.08075 3.87548
      vertex -4.31876 -5.08075 7.74214
      vertex -5.24008 -3.24191 3.87548
    endloop
  endfacet
  facet normal -0.972767 0 0.231784
    outer loop
      vertex -5.24008 -3.24191 3.87548
      vertex -4.31876 -5.08075 7.74214
      vertex -4.31876 -3.24191 7.74214
    endloop
  endfacet
  facet normal -0.841058 0.502454 0.200402
    outer loop
      vertex -5.24008 -5.08075 3.87548
      vertex -6.38343 -8.5368 7.74214
      vertex -4.31876 -5.08075 7.74214
    endloop
  endfacet
  facet normal -0.590061 0.352507 0.726338
    outer loop
      vertex -4.31876 -5.08075 7.74214
      vertex -6.38343 -8.5368 7.74214
      vertex -4.74158 -8.31925 8.97037
    endloop
  endfacet
  facet normal 0 -0.984673 0.174409
    outer loop
      vertex -4.74158 -8.31925 8.97037
      vertex -6.38343 -8.5368 7.74214
      vertex 0 -8.5368 7.74214
    endloop
  endfacet
  facet normal 0 -0.984673 0.174409
    outer loop
      vertex 4.74158 -8.31925 8.97037
      vertex -4.74158 -8.31925 8.97037
      vertex 6.38343 -8.5368 7.74214
    endloop
  endfacet
  facet normal 0 -0.984673 0.174409
    outer loop
      vertex 6.38343 -8.5368 7.74214
      vertex -4.74158 -8.31925 8.97037
      vertex 0 -8.5368 7.74214
    endloop
  endfacet
  facet normal 0 0.0730943 0.997325
    outer loop
      vertex 0 -8.5368 7.74214
      vertex -6.38343 -8.5368 7.74214
      vertex -2.40519 -11.6483 7.97019
    endloop
  endfacet
  facet normal -0.0942832 -0.0476656 0.994404
    outer loop
      vertex -2.40519 -11.6483 7.97019
      vertex -6.38343 -8.5368 7.74214
      vertex -3.23732 -14.7598 7.74214
    endloop
  endfacet
  facet normal -0.684543 -0.346075 0.641586
    outer loop
      vertex -3.23732 -14.7598 7.74214
      vertex -6.38343 -8.5368 7.74214
      vertex -5.3022 -13.2916 6.331
    endloop
  endfacet
  facet normal -0.773252 0.227262 0.591975
    outer loop
      vertex -7.40405 4.61501 6.97992
      vertex -7.41019 0.698181 8.47558
      vertex -5.63348 6.7434 8.47558
    endloop
  endfacet
  facet normal -0.122611 0.0360359 0.9918
    outer loop
      vertex -5.63348 6.7434 8.47558
      vertex -7.41019 0.698181 8.47558
      vertex -2.01266 5.4454 8.97037
    endloop
  endfacet
  facet normal -0.103716 0.0142703 0.994505
    outer loop
      vertex -2.01266 5.4454 8.97037
      vertex -7.41019 0.698181 8.47558
      vertex -3.20795 -3.24191 8.97037
    endloop
  endfacet
  facet normal -0.605662 -0.577174 0.547762
    outer loop
      vertex -3.20795 -3.24191 8.97037
      vertex -7.41019 0.698181 8.47558
      vertex -4.31876 -3.24191 7.74214
    endloop
  endfacet
  facet normal -0.741669 0 0.670767
    outer loop
      vertex -4.31876 -3.24191 7.74214
      vertex -4.31876 -5.08075 7.74214
      vertex -3.20795 -3.24191 8.97037
    endloop
  endfacet
  facet normal 0 0 -1
    outer loop
      vertex -6.49806 4.41803 1.12654
      vertex -4.99163 12.703 1.12654
      vertex -3.32172 -3.24191 1.12654
    endloop
  endfacet
  facet normal 0 0 -1
    outer loop
      vertex -3.32172 -3.24191 1.12654
      vertex -4.99163 12.703 1.12654
      vertex -3.39868 17.4473 1.12654
    endloop
  endfacet
  facet normal 0 0 -1
    outer loop
      vertex -0.156793 15.4918 1.12654
      vertex -3.39868 17.4473 1.12654
      vertex 3.39868 17.4473 1.12654
    endloop
  endfacet
  facet normal 0 0 -1
    outer loop
      vertex -1.21352 0.881678 1.12654
      vertex 3.39868 17.4473 1.12654
      vertex 4.99163 12.703 1.12654
    endloop
  endfacet
  facet normal 0 0 -1
    outer loop
      vertex 0.463525 1.42658 1.12654
      vertex 4.99163 12.703 1.12654
      vertex 6.49806 4.41803 1.12654
    endloop
  endfacet
  facet normal 0 0 -1
    outer loop
      vertex 1.0037 -1.11472 1.12654
      vertex 6.49806 4.41803 1.12654
      vertex 3.32172 -3.24191 1.12654
    endloop
  endfacet
  facet normal 0 0 -1
    outer loop
      vertex -3.32172 -3.24191 1.12654
      vertex 3.32172 -3.24191 1.12654
      vertex 3.32172 -5.08075 1.12654
    endloop
  endfacet
  facet normal 0 0 -1
    outer loop
      vertex 3.32172 -5.08075 1.12654
      vertex 4.90974 -8.5368 1.12654
      vertex -3.32172 -3.24191 1.12654
    endloop
  endfacet
  facet normal 0 0 -1
    outer loop
      vertex -3.32172 -3.24191 1.12654
      vertex 4.90974 -8.5368 1.12654
      vertex 2.48995 -14.7598 1.12654
    endloop
  endfacet
  facet normal 0 0 -1
    outer loop
      vertex -3.32172 -3.24191 1.12654
      vertex 2.48995 -14.7598 1.12654
      vertex 3.31026 -16.6268 1.12654
    endloop
  endfacet
  facet normal 0 0 -1
    outer loop
      vertex -3.32172 -3.24191 1.12654
      vertex 3.31026 -16.6268 1.12654
      vertex 0 -17.8714 1.12654
    endloop
  endfacet
  facet normal 0 0 -1
    outer loop
      vertex -1.46722 0.311868 1.12654
      vertex -3.32172 -3.24191 1.12654
      vertex -1.21352 0.881678 1.12654
    endloop
  endfacet
  facet normal 0 0 -1
    outer loop
      vertex -3.32172 -5.08075 1.12654
      vertex -2.48995 -14.7598 1.12654
      vertex -4.90974 -8.5368 1.12654
    endloop
  endfacet
  facet normal 0 0 -1
    outer loop
      vertex 0 -17.8714 1.12654
      vertex -3.31026 -16.6268 1.12654
      vertex -2.48995 -14.7598 1.12654
    endloop
  endfacet
  facet normal 0 0 -1
    outer loop
      vertex 1.5 14 1.12654
      vertex 3.39868 17.4473 1.12654
      vertex 1.37032 13.3899 1.12654
    endloop
  endfacet
  facet normal 0 0 -1
    outer loop
      vertex -3.32172 -5.08075 1.12654
      vertex 0 -17.8714 1.12654
      vertex -2.48995 -14.7598 1.12654
    endloop
  endfacet
  facet normal 0 0 -1
    outer loop
      vertex -3.32172 -3.24191 1.12654
      vertex 0 -17.8714 1.12654
      vertex -3.32172 -5.08075 1.12654
    endloop
  endfacet
  facet normal 0 0 -1
    outer loop
      vertex -0.75 -1.29904 1.12654
      vertex -3.32172 -3.24191 1.12654
      vertex -1.21352 -0.881678 1.12654
    endloop
  endfacet
  facet normal 0 0 -1
    outer loop
      vertex -3.32172 -3.24191 1.12654
      vertex -1.46722 0.311868 1.12654
      vertex -1.46722 -0.311868 1.12654
    endloop
  endfacet
  facet normal 0 0 -1
    outer loop
      vertex -3.32172 -3.24191 1.12654
      vertex -1.46722 -0.311868 1.12654
      vertex -1.21352 -0.881678 1.12654
    endloop
  endfacet
  facet normal 0 0 -1
    outer loop
      vertex 1.5 0 1.12654
      vertex 6.49806 4.41803 1.12654
      vertex 1.37032 -0.610105 1.12654
    endloop
  endfacet
  facet normal 0 0 -1
    outer loop
      vertex -3.32172 -3.24191 1.12654
      vertex -0.75 -1.29904 1.12654
      vertex 3.32172 -3.24191 1.12654
    endloop
  endfacet
  facet normal 0 0 -1
    outer loop
      vertex 1.37032 0.610105 1.12654
      vertex 6.49806 4.41803 1.12654
      vertex 1.5 0 1.12654
    endloop
  endfacet
  facet normal 0 0 -1
    outer loop
      vertex -0.75 -1.29904 1.12654
      vertex -0.156793 -1.49178 1.12654
      vertex 3.32172 -3.24191 1.12654
    endloop
  endfacet
  facet normal 0 0 -1
    outer loop
      vertex -0.156793 -1.49178 1.12654
      vertex 0.463525 -1.42658 1.12654
      vertex 3.32172 -3.24191 1.12654
    endloop
  endfacet
  facet normal 0 0 -1
    outer loop
      vertex 1.37032 -0.610105 1.12654
      vertex 6.49806 4.41803 1.12654
      vertex 1.0037 -1.11472 1.12654
    endloop
  endfacet
  facet normal 0 0 -1
    outer loop
      vertex 0.463525 -1.42658 1.12654
      vertex 1.0037 -1.11472 1.12654
      vertex 3.32172 -3.24191 1.12654
    endloop
  endfacet
  facet normal 0 0 -1
    outer loop
      vertex 0.463525 1.42658 1.12654
      vertex 6.49806 4.41803 1.12654
      vertex 1.0037 1.11472 1.12654
    endloop
  endfacet
  facet normal 0 0 -1
    outer loop
      vertex -0.156793 1.49178 1.12654
      vertex 4.99163 12.703 1.12654
      vertex 0.463525 1.42658 1.12654
    endloop
  endfacet
  facet normal 0 0 -1
    outer loop
      vertex -1.21352 0.881678 1.12654
      vertex 4.99163 12.703 1.12654
      vertex -0.75 1.29904 1.12654
    endloop
  endfacet
  facet normal 0 0 -1
    outer loop
      vertex -0.75 1.29904 1.12654
      vertex 4.99163 12.703 1.12654
      vertex -0.156793 1.49178 1.12654
    endloop
  endfacet
  facet normal 0 0 -1
    outer loop
      vertex -3.32172 -3.24191 1.12654
      vertex 3.39868 17.4473 1.12654
      vertex -1.21352 0.881678 1.12654
    endloop
  endfacet
  facet normal 0 0 -1
    outer loop
      vertex 1.0037 1.11472 1.12654
      vertex 6.49806 4.41803 1.12654
      vertex 1.37032 0.610105 1.12654
    endloop
  endfacet
  facet normal 0 0 -1
    outer loop
      vertex -3.32172 -3.24191 1.12654
      vertex -3.39868 17.4473 1.12654
      vertex -1.46722 14.3119 1.12654
    endloop
  endfacet
  facet normal 0 0 -1
    outer loop
      vertex -3.32172 -3.24191 1.12654
      vertex -1.46722 14.3119 1.12654
      vertex -1.46722 13.6881 1.12654
    endloop
  endfacet
  facet normal 0 0 -1
    outer loop
      vertex -3.32172 -3.24191 1.12654
      vertex -1.46722 13.6881 1.12654
      vertex -1.21352 13.1183 1.12654
    endloop
  endfacet
  facet normal 0 0 -1
    outer loop
      vertex -3.32172 -3.24191 1.12654
      vertex -1.21352 13.1183 1.12654
      vertex -0.75 12.701 1.12654
    endloop
  endfacet
  facet normal 0 0 -1
    outer loop
      vertex -3.32172 -3.24191 1.12654
      vertex -0.75 12.701 1.12654
      vertex -0.156793 12.5082 1.12654
    endloop
  endfacet
  facet normal 0 0 -1
    outer loop
      vertex -3.32172 -3.24191 1.12654
      vertex -0.156793 12.5082 1.12654
      vertex 0.463525 12.5734 1.12654
    endloop
  endfacet
  facet normal 0 0 -1
    outer loop
      vertex -3.32172 -3.24191 1.12654
      vertex 0.463525 12.5734 1.12654
      vertex 1.0037 12.8853 1.12654
    endloop
  endfacet
  facet normal 0 0 -1
    outer loop
      vertex -3.32172 -3.24191 1.12654
      vertex 1.0037 12.8853 1.12654
      vertex 1.37032 13.3899 1.12654
    endloop
  endfacet
  facet normal 0 0 -1
    outer loop
      vertex -3.32172 -3.24191 1.12654
      vertex 1.37032 13.3899 1.12654
      vertex 3.39868 17.4473 1.12654
    endloop
  endfacet
  facet normal 0 0 -1
    outer loop
      vertex 1.37032 14.6101 1.12654
      vertex 3.39868 17.4473 1.12654
      vertex 1.5 14 1.12654
    endloop
  endfacet
  facet normal 0 0 -1
    outer loop
      vertex 1.0037 15.1147 1.12654
      vertex 3.39868 17.4473 1.12654
      vertex 1.37032 14.6101 1.12654
    endloop
  endfacet
  facet normal 0 0 -1
    outer loop
      vertex 0.463525 15.4266 1.12654
      vertex 3.39868 17.4473 1.12654
      vertex 1.0037 15.1147 1.12654
    endloop
  endfacet
  facet normal 0 0 -1
    outer loop
      vertex -0.156793 15.4918 1.12654
      vertex 3.39868 17.4473 1.12654
      vertex 0.463525 15.4266 1.12654
    endloop
  endfacet
  facet normal 0 0 -1
    outer loop
      vertex -0.75 15.299 1.12654
      vertex -3.39868 17.4473 1.12654
      vertex -0.156793 15.4918 1.12654
    endloop
  endfacet
  facet normal 0 0 -1
    outer loop
      vertex -1.21352 14.8817 1.12654
      vertex -3.39868 17.4473 1.12654
      vertex -0.75 15.299 1.12654
    endloop
  endfacet
  facet normal 0 0 -1
    outer loop
      vertex -1.46722 14.3119 1.12654
      vertex -3.39868 17.4473 1.12654
      vertex -1.21352 14.8817 1.12654
    endloop
  endfacet
  facet normal 0.015667 0.394007 0.918974
    outer loop
      vertex -4.41882 8.40576 7.74214
      vertex -5.63348 6.7434 8.47558
      vertex -2.01266 5.4454 8.97037
    endloop
  endfacet
  facet normal 0 0.949875 -0.312629
    outer loop
      vertex 3.39868 17.4473 1.12654
      vertex -3.39868 17.4473 1.12654
      vertex 0 18.4719 4.23977
    endloop
  endfacet
  facet normal -0.330502 0.942447 0.0506223
    outer loop
      vertex -3.39868 17.4473 1.12654
      vertex -4.41882 16.9223 4.23977
      vertex 0 18.4719 4.23977
    endloop
  endfacet
  facet normal -0.0434388 0.123868 0.991347
    outer loop
      vertex 0 18.4719 4.23977
      vertex -4.41882 16.9223 4.23977
      vertex 0 9.2032 5.39788
    endloop
  endfacet
  facet normal 0.388806 0.350413 0.85208
    outer loop
      vertex -4.41882 16.9223 4.23977
      vertex -4.41882 8.40576 7.74214
      vertex 0 9.2032 5.39788
    endloop
  endfacet
  facet normal 0.199821 0.749184 0.631502
    outer loop
      vertex 0 9.2032 5.39788
      vertex -4.41882 8.40576 7.74214
      vertex 0 7.22718 7.74214
    endloop
  endfacet
  facet normal 0.123891 0.4645 0.876864
    outer loop
      vertex 0 7.22718 7.74214
      vertex -4.41882 8.40576 7.74214
      vertex -2.01266 5.4454 8.97037
    endloop
  endfacet
  facet normal 0 -0.0730945 0.997325
    outer loop
      vertex -2.40519 -11.6483 7.97019
      vertex -3.23732 -14.7598 7.74214
      vertex 0 -14.7598 7.74214
    endloop
  endfacet
  facet normal 0 0.141861 0.989887
    outer loop
      vertex 0 -14.7598 7.74214
      vertex -3.23732 -14.7598 7.74214
      vertex -1.07911 -15.797 7.89078
    endloop
  endfacet
  facet normal -0.135099 -0.140561 0.980811
    outer loop
      vertex -1.07911 -15.797 7.89078
      vertex -3.23732 -14.7598 7.74214
      vertex 0 -17.8714 7.74214
    endloop
  endfacet
  facet normal 0 0 1
    outer loop
      vertex -3.23732 -14.7598 7.74214
      vertex -4.30386 -16.6268 7.74214
      vertex 0 -17.8714 7.74214
    endloop
  endfacet
  facet normal -0.260099 -0.899422 0.351268
    outer loop
      vertex -4.30386 -16.6268 7.74214
      vertex -5.22201 -17.8714 3.87548
      vertex 0 -17.8714 7.74214
    endloop
  endfacet
  facet normal 0 -1 0
    outer loop
      vertex 0 -17.8714 7.74214
      vertex -5.22201 -17.8714 3.87548
      vertex 0 -17.8714 1.12654
    endloop
  endfacet
  facet normal 0 -1 0
    outer loop
      vertex 5.22201 -17.8714 3.87548
      vertex 0 -17.8714 7.74214
      vertex 0 -17.8714 1.12654
    endloop
  endfacet
  facet normal -0.292571 -0.778145 -0.555781
    outer loop
      vertex 0 -17.8714 1.12654
      vertex -5.22201 -17.8714 3.87548
      vertex -3.31026 -16.6268 1.12654
    endloop
  endfacet
  facet normal -0.87851 0.265356 0.397248
    outer loop
      vertex -4.31876 -5.08075 7.74214
      vertex -4.74158 -8.31925 8.97037
      vertex -3.20795 -3.24191 8.97037
    endloop
  endfacet
  facet normal 0 0 1
    outer loop
      vertex -3.20795 -3.24191 8.97037
      vertex -4.74158 -8.31925 8.97037
      vertex 4.74158 -8.31925 8.97037
    endloop
  endfacet
  facet normal 0 0 1
    outer loop
      vertex 2.01266 5.4454 8.97037
      vertex -3.20795 -3.24191 8.97037
      vertex 3.20795 -3.24191 8.97037
    endloop
  endfacet
  facet normal 0 0 1
    outer loop
      vertex 3.20795 -3.24191 8.97037
      vertex -3.20795 -3.24191 8.97037
      vertex 4.74158 -8.31925 8.97037
    endloop
  endfacet
  facet normal 0 0 1
    outer loop
      vertex -2.01266 5.4454 8.97037
      vertex -3.20795 -3.24191 8.97037
      vertex 2.01266 5.4454 8.97037
    endloop
  endfacet
  facet normal 0.87851 0.265356 0.397248
    outer loop
      vertex 4.31876 -5.08075 7.74214
      vertex 3.20795 -3.24191 8.97037
      vertex 4.74158 -8.31925 8.97037
    endloop
  endfacet
  facet normal 0.590061 0.352507 0.726338
    outer loop
      vertex 6.38343 -8.5368 7.74214
      vertex 4.31876 -5.08075 7.74214
      vertex 4.74158 -8.31925 8.97037
    endloop
  endfacet
  facet normal 0.161712 0.775531 0.610247
    outer loop
      vertex 9.19654 -6.36744 4.23977
      vertex 6.38343 -8.5368 7.74214
      vertex 9.96833 -8.78403 7.10636
    endloop
  endfacet
  facet normal 0.145048 -0.311678 0.939052
    outer loop
      vertex 6.38343 -8.5368 7.74214
      vertex 5.3022 -13.2916 6.331
      vertex 9.96833 -8.78403 7.10636
    endloop
  endfacet
  facet normal 0.684543 -0.346075 0.641586
    outer loop
      vertex 6.38343 -8.5368 7.74214
      vertex 3.23732 -14.7598 7.74214
      vertex 5.3022 -13.2916 6.331
    endloop
  endfacet
  facet normal 0.0942832 -0.0476656 0.994404
    outer loop
      vertex 6.38343 -8.5368 7.74214
      vertex 2.40519 -11.6483 7.97019
      vertex 3.23732 -14.7598 7.74214
    endloop
  endfacet
  facet normal 0 0.0730943 0.997325
    outer loop
      vertex 6.38343 -8.5368 7.74214
      vertex 0 -8.5368 7.74214
      vertex 2.40519 -11.6483 7.97019
    endloop
  endfacet
  facet normal 0.841058 0.502454 0.200402
    outer loop
      vertex 5.24008 -5.08075 3.87548
      vertex 4.31876 -5.08075 7.74214
      vertex 6.38343 -8.5368 7.74214
    endloop
  endfacet
  facet normal 0.189598 0.759254 0.622564
    outer loop
      vertex 9.19654 -6.36744 4.23977
      vertex 5.24008 -5.08075 3.87548
      vertex 6.38343 -8.5368 7.74214
    endloop
  endfacet
  facet normal -0.0943904 0 0.995535
    outer loop
      vertex 0 -8.5368 7.74214
      vertex 0 -14.7598 7.74214
      vertex 2.40519 -11.6483 7.97019
    endloop
  endfacet
  facet normal 0.0943904 0 0.995535
    outer loop
      vertex 0 -8.5368 7.74214
      vertex -2.40519 -11.6483 7.97019
      vertex 0 -14.7598 7.74214
    endloop
  endfacet
  facet normal 0 0.567548 0.82334
    outer loop
      vertex 0 7.22718 7.74214
      vertex -2.01266 5.4454 8.97037
      vertex 2.01266 5.4454 8.97037
    endloop
  endfacet
  facet normal 0.292571 -0.778145 -0.555781
    outer loop
      vertex 5.22201 -17.8714 3.87548
      vertex 0 -17.8714 1.12654
      vertex 3.31026 -16.6268 1.12654
    endloop
  endfacet
  facet normal 0.82571 0.362813 -0.431937
    outer loop
      vertex 3.31026 -16.6268 1.12654
      vertex 2.48995 -14.7598 1.12654
      vertex 3.92795 -14.7598 3.87548
    endloop
  endfacet
  facet normal 0.836193 0.347767 -0.424074
    outer loop
      vertex 5.22201 -17.8714 3.87548
      vertex 3.31026 -16.6268 1.12654
      vertex 3.92795 -14.7598 3.87548
    endloop
  endfacet
  facet normal 0.837754 -0.325755 -0.438237
    outer loop
      vertex 3.92795 -14.7598 3.87548
      vertex 2.48995 -14.7598 1.12654
      vertex 4.90974 -8.5368 1.12654
    endloop
  endfacet
  facet normal 0.989709 -0.134169 0.0497468
    outer loop
      vertex 5.24008 -5.08075 3.87548
      vertex 3.92795 -14.7598 3.87548
      vertex 4.90974 -8.5368 1.12654
    endloop
  endfacet
  facet normal 0.767387 0.352606 -0.535525
    outer loop
      vertex 4.90974 -8.5368 1.12654
      vertex 3.32172 -5.08075 1.12654
      vertex 5.24008 -5.08075 3.87548
    endloop
  endfacet
  facet normal 0.820057 0 -0.572281
    outer loop
      vertex 5.24008 -5.08075 3.87548
      vertex 3.32172 -5.08075 1.12654
      vertex 3.32172 -3.24191 1.12654
    endloop
  endfacet
  facet normal 0.820057 0 -0.572281
    outer loop
      vertex 5.24008 -3.24191 3.87548
      vertex 5.24008 -5.08075 3.87548
      vertex 3.32172 -3.24191 1.12654
    endloop
  endfacet
  facet normal 0.750896 -0.401949 -0.524016
    outer loop
      vertex 5.24008 -3.24191 3.87548
      vertex 3.32172 -3.24191 1.12654
      vertex 7.6034 0.698181 4.23977
    endloop
  endfacet
  facet normal 0.72637 -0.301203 -0.617789
    outer loop
      vertex 7.6034 0.698181 4.23977
      vertex 3.32172 -3.24191 1.12654
      vertex 6.49806 4.41803 1.12654
    endloop
  endfacet
  facet normal 0.97495 0.177272 -0.134339
    outer loop
      vertex 6.49806 4.41803 1.12654
      vertex 4.99163 12.703 1.12654
      vertex 7.6034 0.698181 4.23977
    endloop
  endfacet
  facet normal 0.928645 0.110172 -0.354234
    outer loop
      vertex 7.6034 0.698181 4.23977
      vertex 4.99163 12.703 1.12654
      vertex 6.17918 12.703 4.23977
    endloop
  endfacet
  facet normal 0.891492 0.299332 -0.340062
    outer loop
      vertex 4.99163 12.703 1.12654
      vertex 3.39868 17.4473 1.12654
      vertex 6.17918 12.703 4.23977
    endloop
  endfacet
  facet normal 0.897922 0.37463 -0.231058
    outer loop
      vertex 6.17918 12.703 4.23977
      vertex 3.39868 17.4473 1.12654
      vertex 4.41882 16.9223 4.23977
    endloop
  endfacet
  facet normal 0.330502 0.942447 0.0506223
    outer loop
      vertex 3.39868 17.4473 1.12654
      vertex 0 18.4719 4.23977
      vertex 4.41882 16.9223 4.23977
    endloop
  endfacet
  facet normal 0.913545 -0.406737 0
    outer loop
      vertex -1.21352 0.881678 1.12654
      vertex -1.21352 0.881678 4.5
      vertex -1.46722 0.311868 4.5
    endloop
  endfacet
  facet normal 0.913545 -0.406737 0
    outer loop
      vertex -1.46722 0.311868 1.12654
      vertex -1.21352 0.881678 1.12654
      vertex -1.46722 0.311868 4.5
    endloop
  endfacet
  facet normal 1 0 0
    outer loop
      vertex -1.46722 0.311868 1.12654
      vertex -1.46722 0.311868 4.5
      vertex -1.46722 -0.311868 4.5
    endloop
  endfacet
  facet normal 1 0 0
    outer loop
      vertex -1.46722 -0.311868 1.12654
      vertex -1.46722 0.311868 1.12654
      vertex -1.46722 -0.311868 4.5
    endloop
  endfacet
  facet normal 0.669131 -0.743145 0
    outer loop
      vertex -0.75 1.29904 1.12654
      vertex -0.75 1.29904 4.5
      vertex -1.21352 0.881678 4.5
    endloop
  endfacet
  facet normal 0.669131 -0.743145 0
    outer loop
      vertex -1.21352 0.881678 1.12654
      vertex -0.75 1.29904 1.12654
      vertex -1.21352 0.881678 4.5
    endloop
  endfacet
  facet normal 0.309018 -0.951056 0
    outer loop
      vertex -0.156793 1.49178 1.12654
      vertex -0.156793 1.49178 4.5
      vertex -0.75 1.29904 4.5
    endloop
  endfacet
  facet normal 0.309018 -0.951056 0
    outer loop
      vertex -0.75 1.29904 1.12654
      vertex -0.156793 1.49178 1.12654
      vertex -0.75 1.29904 4.5
    endloop
  endfacet
  facet normal -0.104528 -0.994522 0
    outer loop
      vertex 0.463525 1.42658 1.12654
      vertex 0.463525 1.42658 4.5
      vertex -0.156793 1.49178 4.5
    endloop
  endfacet
  facet normal -0.104528 -0.994522 0
    outer loop
      vertex -0.156793 1.49178 1.12654
      vertex 0.463525 1.42658 1.12654
      vertex -0.156793 1.49178 4.5
    endloop
  endfacet
  facet normal -0.5 -0.866025 0
    outer loop
      vertex 1.0037 1.11472 1.12654
      vertex 1.0037 1.11472 4.5
      vertex 0.463525 1.42658 4.5
    endloop
  endfacet
  facet normal -0.5 -0.866025 0
    outer loop
      vertex 0.463525 1.42658 1.12654
      vertex 1.0037 1.11472 1.12654
      vertex 0.463525 1.42658 4.5
    endloop
  endfacet
  facet normal -0.809017 -0.587785 0
    outer loop
      vertex 1.37032 0.610105 4.5
      vertex 1.0037 1.11472 4.5
      vertex 1.37032 0.610105 1.12654
    endloop
  endfacet
  facet normal -0.809017 -0.587785 0
    outer loop
      vertex 1.37032 0.610105 1.12654
      vertex 1.0037 1.11472 4.5
      vertex 1.0037 1.11472 1.12654
    endloop
  endfacet
  facet normal -0.978148 -0.207912 0
    outer loop
      vertex 1.5 0 4.5
      vertex 1.37032 0.610105 4.5
      vertex 1.5 0 1.12654
    endloop
  endfacet
  facet normal -0.978148 -0.207912 0
    outer loop
      vertex 1.5 0 1.12654
      vertex 1.37032 0.610105 4.5
      vertex 1.37032 0.610105 1.12654
    endloop
  endfacet
  facet normal -0.978148 0.207912 0
    outer loop
      vertex 1.5 0 4.5
      vertex 1.5 0 1.12654
      vertex 1.37032 -0.610105 4.5
    endloop
  endfacet
  facet normal -0.978148 0.207912 0
    outer loop
      vertex 1.37032 -0.610105 4.5
      vertex 1.5 0 1.12654
      vertex 1.37032 -0.610105 1.12654
    endloop
  endfacet
  facet normal -0.809017 0.587785 0
    outer loop
      vertex 1.37032 -0.610105 4.5
      vertex 1.37032 -0.610105 1.12654
      vertex 1.0037 -1.11472 4.5
    endloop
  endfacet
  facet normal -0.809017 0.587785 0
    outer loop
      vertex 1.0037 -1.11472 4.5
      vertex 1.37032 -0.610105 1.12654
      vertex 1.0037 -1.11472 1.12654
    endloop
  endfacet
  facet normal -0.5 0.866025 0
    outer loop
      vertex 1.0037 -1.11472 4.5
      vertex 1.0037 -1.11472 1.12654
      vertex 0.463525 -1.42658 4.5
    endloop
  endfacet
  facet normal -0.5 0.866025 0
    outer loop
      vertex 0.463525 -1.42658 4.5
      vertex 1.0037 -1.11472 1.12654
      vertex 0.463525 -1.42658 1.12654
    endloop
  endfacet
  facet normal -0.104528 0.994522 0
    outer loop
      vertex 0.463525 -1.42658 4.5
      vertex 0.463525 -1.42658 1.12654
      vertex -0.156793 -1.49178 4.5
    endloop
  endfacet
  facet normal -0.104528 0.994522 0
    outer loop
      vertex -0.156793 -1.49178 4.5
      vertex 0.463525 -1.42658 1.12654
      vertex -0.156793 -1.49178 1.12654
    endloop
  endfacet
  facet normal 0.309018 0.951056 0
    outer loop
      vertex -0.156793 -1.49178 4.5
      vertex -0.156793 -1.49178 1.12654
      vertex -0.75 -1.29904 4.5
    endloop
  endfacet
  facet normal 0.309018 0.951056 0
    outer loop
      vertex -0.75 -1.29904 4.5
      vertex -0.156793 -1.49178 1.12654
      vertex -0.75 -1.29904 1.12654
    endloop
  endfacet
  facet normal 0.669131 0.743145 0
    outer loop
      vertex -0.75 -1.29904 4.5
      vertex -0.75 -1.29904 1.12654
      vertex -1.21352 -0.881678 4.5
    endloop
  endfacet
  facet normal 0.669131 0.743145 0
    outer loop
      vertex -1.21352 -0.881678 4.5
      vertex -0.75 -1.29904 1.12654
      vertex -1.21352 -0.881678 1.12654
    endloop
  endfacet
  facet normal 0.913545 0.406737 0
    outer loop
      vertex -1.46722 -0.311868 4.5
      vertex -1.21352 -0.881678 4.5
      vertex -1.21352 -0.881678 1.12654
    endloop
  endfacet
  facet normal 0.913545 0.406737 0
    outer loop
      vertex -1.46722 -0.311868 1.12654
      vertex -1.46722 -0.311868 4.5
      vertex -1.21352 -0.881678 1.12654
    endloop
  endfacet
  facet normal 0.913545 -0.406737 0
    outer loop
      vertex -1.21352 14.8817 1.12654
      vertex -1.21352 14.8817 2.5
      vertex -1.46722 14.3119 2.5
    endloop
  endfacet
  facet normal 0.913545 -0.406737 0
    outer loop
      vertex -1.46722 14.3119 1.12654
      vertex -1.21352 14.8817 1.12654
      vertex -1.46722 14.3119 2.5
    endloop
  endfacet
  facet normal 1 0 0
    outer loop
      vertex -1.46722 14.3119 1.12654
      vertex -1.46722 14.3119 2.5
      vertex -1.46722 13.6881 2.5
    endloop
  endfacet
  facet normal 1 0 0
    outer loop
      vertex -1.46722 13.6881 1.12654
      vertex -1.46722 14.3119 1.12654
      vertex -1.46722 13.6881 2.5
    endloop
  endfacet
  facet normal 0.669131 -0.743145 0
    outer loop
      vertex -0.75 15.299 1.12654
      vertex -0.75 15.299 2.5
      vertex -1.21352 14.8817 2.5
    endloop
  endfacet
  facet normal 0.669131 -0.743145 0
    outer loop
      vertex -1.21352 14.8817 1.12654
      vertex -0.75 15.299 1.12654
      vertex -1.21352 14.8817 2.5
    endloop
  endfacet
  facet normal 0.309018 -0.951056 0
    outer loop
      vertex -0.156793 15.4918 1.12654
      vertex -0.156793 15.4918 2.5
      vertex -0.75 15.299 2.5
    endloop
  endfacet
  facet normal 0.309018 -0.951056 0
    outer loop
      vertex -0.75 15.299 1.12654
      vertex -0.156793 15.4918 1.12654
      vertex -0.75 15.299 2.5
    endloop
  endfacet
  facet normal -0.104528 -0.994522 0
    outer loop
      vertex 0.463525 15.4266 1.12654
      vertex 0.463525 15.4266 2.5
      vertex -0.156793 15.4918 2.5
    endloop
  endfacet
  facet normal -0.104528 -0.994522 0
    outer loop
      vertex -0.156793 15.4918 1.12654
      vertex 0.463525 15.4266 1.12654
      vertex -0.156793 15.4918 2.5
    endloop
  endfacet
  facet normal -0.5 -0.866025 0
    outer loop
      vertex 1.0037 15.1147 1.12654
      vertex 1.0037 15.1147 2.5
      vertex 0.463525 15.4266 2.5
    endloop
  endfacet
  facet normal -0.5 -0.866025 0
    outer loop
      vertex 0.463525 15.4266 1.12654
      vertex 1.0037 15.1147 1.12654
      vertex 0.463525 15.4266 2.5
    endloop
  endfacet
  facet normal -0.809017 -0.587785 0
    outer loop
      vertex 1.37032 14.6101 2.5
      vertex 1.0037 15.1147 2.5
      vertex 1.37032 14.6101 1.12654
    endloop
  endfacet
  facet normal -0.809017 -0.587785 0
    outer loop
      vertex 1.37032 14.6101 1.12654
      vertex 1.0037 15.1147 2.5
      vertex 1.0037 15.1147 1.12654
    endloop
  endfacet
  facet normal -0.978148 -0.207912 0
    outer loop
      vertex 1.5 14 2.5
      vertex 1.37032 14.6101 2.5
      vertex 1.5 14 1.12654
    endloop
  endfacet
  facet normal -0.978148 -0.207912 0
    outer loop
      vertex 1.5 14 1.12654
      vertex 1.37032 14.6101 2.5
      vertex 1.37032 14.6101 1.12654
    endloop
  endfacet
  facet normal -0.978148 0.207912 0
    outer loop
      vertex 1.5 14 2.5
      vertex 1.5 14 1.12654
      vertex 1.37032 13.3899 2.5
    endloop
  endfacet
  facet normal -0.978148 0.207912 0
    outer loop
      vertex 1.37032 13.3899 2.5
      vertex 1.5 14 1.12654
      vertex 1.37032 13.3899 1.12654
    endloop
  endfacet
  facet normal -0.809017 0.587785 0
    outer loop
      vertex 1.37032 13.3899 2.5
      vertex 1.37032 13.3899 1.12654
      vertex 1.0037 12.8853 2.5
    endloop
  endfacet
  facet normal -0.809017 0.587785 0
    outer loop
      vertex 1.0037 12.8853 2.5
      vertex 1.37032 13.3899 1.12654
      vertex 1.0037 12.8853 1.12654
    endloop
  endfacet
  facet normal -0.5 0.866025 0
    outer loop
      vertex 1.0037 12.8853 2.5
      vertex 1.0037 12.8853 1.12654
      vertex 0.463525 12.5734 2.5
    endloop
  endfacet
  facet normal -0.5 0.866025 0
    outer loop
      vertex 0.463525 12.5734 2.5
      vertex 1.0037 12.8853 1.12654
      vertex 0.463525 12.5734 1.12654
    endloop
  endfacet
  facet normal -0.104528 0.994522 0
    outer loop
      vertex 0.463525 12.5734 2.5
      vertex 0.463525 12.5734 1.12654
      vertex -0.156793 12.5082 2.5
    endloop
  endfacet
  facet normal -0.104528 0.994522 0
    outer loop
      vertex -0.156793 12.5082 2.5
      vertex 0.463525 12.5734 1.12654
      vertex -0.156793 12.5082 1.12654
    endloop
  endfacet
  facet normal 0.309018 0.951056 0
    outer loop
      vertex -0.156793 12.5082 2.5
      vertex -0.156793 12.5082 1.12654
      vertex -0.75 12.701 2.5
    endloop
  endfacet
  facet normal 0.309018 0.951056 0
    outer loop
      vertex -0.75 12.701 2.5
      vertex -0.156793 12.5082 1.12654
      vertex -0.75 12.701 1.12654
    endloop
  endfacet
  facet normal 0.669131 0.743145 0
    outer loop
      vertex -0.75 12.701 2.5
      vertex -0.75 12.701 1.12654
      vertex -1.21352 13.1183 2.5
    endloop
  endfacet
  facet normal 0.669131 0.743145 0
    outer loop
      vertex -1.21352 13.1183 2.5
      vertex -0.75 12.701 1.12654
      vertex -1.21352 13.1183 1.12654
    endloop
  endfacet
  facet normal 0.913545 0.406737 0
    outer loop
      vertex -1.46722 13.6881 2.5
      vertex -1.21352 13.1183 2.5
      vertex -1.21352 13.1183 1.12654
    endloop
  endfacet
  facet normal 0.913545 0.406737 0
    outer loop
      vertex -1.46722 13.6881 1.12654
      vertex -1.46722 13.6881 2.5
      vertex -1.21352 13.1183 1.12654
    endloop
  endfacet
  facet normal 0.0434388 0.123868 0.991347
    outer loop
      vertex 0 18.4719 4.23977
      vertex 0 9.2032 5.39788
      vertex 4.41882 16.9223 4.23977
    endloop
  endfacet
  facet normal -0.388806 0.350413 0.85208
    outer loop
      vertex 4.41882 16.9223 4.23977
      vertex 0 9.2032 5.39788
      vertex 4.41882 8.40576 7.74214
    endloop
  endfacet
  facet normal -0.199821 0.749184 0.631502
    outer loop
      vertex 0 9.2032 5.39788
      vertex 0 7.22718 7.74214
      vertex 4.41882 8.40576 7.74214
    endloop
  endfacet
  facet normal -0.123891 0.4645 0.876864
    outer loop
      vertex 4.41882 8.40576 7.74214
      vertex 0 7.22718 7.74214
      vertex 2.01266 5.4454 8.97037
    endloop
  endfacet
  facet normal 0 -0.0730945 0.997325
    outer loop
      vertex 2.40519 -11.6483 7.97019
      vertex 0 -14.7598 7.74214
      vertex 3.23732 -14.7598 7.74214
    endloop
  endfacet
  facet normal 0 0.141861 0.989887
    outer loop
      vertex 3.23732 -14.7598 7.74214
      vertex 0 -14.7598 7.74214
      vertex 1.07911 -15.797 7.89078
    endloop
  endfacet
  facet normal -0.136453 0 0.990647
    outer loop
      vertex 0 -14.7598 7.74214
      vertex 0 -17.8714 7.74214
      vertex 1.07911 -15.797 7.89078
    endloop
  endfacet
  facet normal 0.136453 0 0.990647
    outer loop
      vertex 0 -14.7598 7.74214
      vertex -1.07911 -15.797 7.89078
      vertex 0 -17.8714 7.74214
    endloop
  endfacet
  facet normal 0.135099 -0.140561 0.980811
    outer loop
      vertex 1.07911 -15.797 7.89078
      vertex 0 -17.8714 7.74214
      vertex 3.23732 -14.7598 7.74214
    endloop
  endfacet
  facet normal 0 0 1
    outer loop
      vertex 3.23732 -14.7598 7.74214
      vertex 0 -17.8714 7.74214
      vertex 4.30386 -16.6268 7.74214
    endloop
  endfacet
  facet normal 0.260099 -0.899422 0.351268
    outer loop
      vertex 4.30386 -16.6268 7.74214
      vertex 0 -17.8714 7.74214
      vertex 5.22201 -17.8714 3.87548
    endloop
  endfacet
  facet normal 0.919136 0.382262 0.0952068
    outer loop
      vertex 5.22201 -17.8714 3.87548
      vertex 3.92795 -14.7598 3.87548
      vertex 4.30386 -16.6268 7.74214
    endloop
  endfacet
  facet normal 0.103716 0.0142703 0.994505
    outer loop
      vertex 7.41019 0.698181 8.47558
      vertex 2.01266 5.4454 8.97037
      vertex 3.20795 -3.24191 8.97037
    endloop
  endfacet
  facet normal -0.015667 0.394007 0.918974
    outer loop
      vertex 4.41882 8.40576 7.74214
      vertex 2.01266 5.4454 8.97037
      vertex 5.63348 6.7434 8.47558
    endloop
  endfacet
  facet normal 0.122611 0.0360359 0.9918
    outer loop
      vertex 5.63348 6.7434 8.47558
      vertex 2.01266 5.4454 8.97037
      vertex 7.41019 0.698181 8.47558
    endloop
  endfacet
  facet normal 0.605662 -0.577174 0.547762
    outer loop
      vertex 7.41019 0.698181 8.47558
      vertex 3.20795 -3.24191 8.97037
      vertex 4.31876 -3.24191 7.74214
    endloop
  endfacet
  facet normal 0.741669 0 0.670767
    outer loop
      vertex 4.31876 -3.24191 7.74214
      vertex 3.20795 -3.24191 8.97037
      vertex 4.31876 -5.08075 7.74214
    endloop
  endfacet
  facet normal 0.972767 0 0.231784
    outer loop
      vertex 4.31876 -3.24191 7.74214
      vertex 4.31876 -5.08075 7.74214
      vertex 5.24008 -5.08075 3.87548
    endloop
  endfacet
  facet normal 0.972767 0 0.231784
    outer loop
      vertex 5.24008 -3.24191 3.87548
      vertex 4.31876 -3.24191 7.74214
      vertex 5.24008 -5.08075 3.87548
    endloop
  endfacet
  facet normal -0.999489 -0.000743361 -0.0319699
    outer loop
      vertex 9.19654 -6.36744 4.23977
      vertex 9.1178 6.79545 6.39536
      vertex 9.19128 0.698181 4.23977
    endloop
  endfacet
  facet normal -0.973203 -0.0428196 0.225924
    outer loop
      vertex 9.96833 -8.78403 7.10636
      vertex 9.1178 6.79545 6.39536
      vertex 9.19654 -6.36744 4.23977
    endloop
  endfacet
  facet normal 0.0858999 -0.0178945 -0.996143
    outer loop
      vertex 8.39023 -10.238 4.23977
      vertex 5.24008 -5.08075 3.87548
      vertex 9.19654 -6.36744 4.23977
    endloop
  endfacet
  facet normal 0 0 -1
    outer loop
      vertex 6.17918 12.703 4.23977
      vertex 7.39862 8.04465 4.23977
      vertex 7.6034 0.698181 4.23977
    endloop
  endfacet
  facet normal 0 0 -1
    outer loop
      vertex 7.6034 0.698181 4.23977
      vertex 7.39862 8.04465 4.23977
      vertex 10.004 9.64688 4.23977
    endloop
  endfacet
  facet normal 0 0 -1
    outer loop
      vertex 7.6034 0.698181 4.23977
      vertex 10.004 9.64688 4.23977
      vertex 9.19128 0.698181 4.23977
    endloop
  endfacet
  facet normal 0 0 -1
    outer loop
      vertex 9.19128 0.698181 4.23977
      vertex 13.8579 0.698181 4.23977
      vertex 13.479 -6.36744 4.23977
    endloop
  endfacet
  facet normal 0 0 -1
    outer loop
      vertex 9.19654 -6.36744 4.23977
      vertex 11.055 -10.238 4.23977
      vertex 8.39023 -10.238 4.23977
    endloop
  endfacet
  facet normal 0 0 -1
    outer loop
      vertex 10.004 9.64688 4.23977
      vertex 13.8579 0.698181 4.23977
      vertex 9.19128 0.698181 4.23977
    endloop
  endfacet
  facet normal 0 0 -1
    outer loop
      vertex 9.19128 0.698181 4.23977
      vertex 13.479 -6.36744 4.23977
      vertex 11.055 -10.238 4.23977
    endloop
  endfacet
  facet normal 0 0 -1
    outer loop
      vertex 9.19128 0.698181 4.23977
      vertex 11.055 -10.238 4.23977
      vertex 9.19654 -6.36744 4.23977
    endloop
  endfacet
  facet normal 0.0201328 0.0466771 0.998707
    outer loop
      vertex 12.6391 6.79545 6.32437
      vertex 9.1178 6.79545 6.39536
      vertex 9.96833 -8.78403 7.10636
    endloop
  endfacet
  facet normal -0.285395 0.0967854 0.95351
    outer loop
      vertex 12.6391 6.79545 6.32437
      vertex 9.96833 -8.78403 7.10636
      vertex 10.7007 -6.62449 7.10636
    endloop
  endfacet
  facet normal 0.880598 -0.298635 -0.36792
    outer loop
      vertex 9.96833 -8.78403 7.10636
      vertex 9.29312 -9.32001 5.92532
      vertex 10.7007 -6.62449 7.10636
    endloop
  endfacet
  facet normal 0.699318 -0.710617 -0.0773141
    outer loop
      vertex 9.96833 -8.78403 7.10636
      vertex 5.3022 -13.2916 6.331
      vertex 9.29312 -9.32001 5.92532
    endloop
  endfacet
  facet normal 0.706523 -0.707159 0.0274234
    outer loop
      vertex 5.3022 -13.2916 6.331
      vertex 3.92795 -14.7598 3.87548
      vertex 9.29312 -9.32001 5.92532
    endloop
  endfacet
  facet normal 0.625443 -0.772232 0.11171
    outer loop
      vertex 5.3022 -13.2916 6.331
      vertex 3.23732 -14.7598 7.74214
      vertex 3.92795 -14.7598 3.87548
    endloop
  endfacet
  facet normal 0.85804 0.490184 0.153254
    outer loop
      vertex 3.92795 -14.7598 3.87548
      vertex 3.23732 -14.7598 7.74214
      vertex 4.30386 -16.6268 7.74214
    endloop
  endfacet
  facet normal 0.0942094 -0.0127714 -0.99547
    outer loop
      vertex 8.39023 -10.238 4.23977
      vertex 3.92795 -14.7598 3.87548
      vertex 5.24008 -5.08075 3.87548
    endloop
  endfacet
  facet normal 0.711725 -0.702457 0.00132827
    outer loop
      vertex 9.29312 -9.32001 5.92532
      vertex 3.92795 -14.7598 3.87548
      vertex 8.39023 -10.238 4.23977
    endloop
  endfacet
  facet normal 0.832332 -0.517582 0.198322
    outer loop
      vertex 7.6034 0.698181 4.23977
      vertex 4.31876 -3.24191 7.74214
      vertex 5.24008 -3.24191 3.87548
    endloop
  endfacet
  facet normal 0.782999 -0.620997 0.0357158
    outer loop
      vertex 7.41019 0.698181 8.47558
      vertex 4.31876 -3.24191 7.74214
      vertex 7.6034 0.698181 4.23977
    endloop
  endfacet
  facet normal 0.998782 0.0189635 0.0455585
    outer loop
      vertex 7.6034 0.698181 4.23977
      vertex 7.40405 4.61501 6.97992
      vertex 7.41019 0.698181 8.47558
    endloop
  endfacet
  facet normal 0.697588 -0.386544 0.603286
    outer loop
      vertex 9.1178 6.79545 6.39536
      vertex 7.40405 4.61501 6.97992
      vertex 7.6034 0.698181 4.23977
    endloop
  endfacet
  facet normal 0 -0.333317 0.942815
    outer loop
      vertex 9.1178 6.79545 6.39536
      vertex 7.6034 0.698181 4.23977
      vertex 9.19128 0.698181 4.23977
    endloop
  endfacet
  facet normal 0.799159 0.297912 0.522105
    outer loop
      vertex 6.17918 12.703 4.23977
      vertex 5.63348 6.7434 8.47558
      vertex 7.40405 4.61501 6.97992
    endloop
  endfacet
  facet normal 0.261557 0.543137 0.797866
    outer loop
      vertex 6.17918 12.703 4.23977
      vertex 4.41882 8.40576 7.74214
      vertex 5.63348 6.7434 8.47558
    endloop
  endfacet
  facet normal 0.673689 0.281076 0.683476
    outer loop
      vertex 4.41882 16.9223 4.23977
      vertex 4.41882 8.40576 7.74214
      vertex 6.17918 12.703 4.23977
    endloop
  endfacet
  facet normal 0.922695 0.241538 0.300488
    outer loop
      vertex 7.39862 8.04465 4.23977
      vertex 6.17918 12.703 4.23977
      vertex 7.40405 4.61501 6.97992
    endloop
  endfacet
  facet normal 0 0 -1
    outer loop
      vertex -1.21352 0.881678 4.5
      vertex -0.75 1.29904 4.5
      vertex -1.46722 0.311868 4.5
    endloop
  endfacet
  facet normal 0 0 -1
    outer loop
      vertex -1.46722 0.311868 4.5
      vertex -0.75 1.29904 4.5
      vertex -0.156793 1.49178 4.5
    endloop
  endfacet
  facet normal 0 0 -1
    outer loop
      vertex -1.46722 0.311868 4.5
      vertex -0.156793 1.49178 4.5
      vertex 0.463525 1.42658 4.5
    endloop
  endfacet
  facet normal 0 0 -1
    outer loop
      vertex -1.46722 0.311868 4.5
      vertex 0.463525 1.42658 4.5
      vertex 1.0037 1.11472 4.5
    endloop
  endfacet
  facet normal 0 0 -1
    outer loop
      vertex -1.46722 0.311868 4.5
      vertex 1.0037 1.11472 4.5
      vertex 1.37032 0.610105 4.5
    endloop
  endfacet
  facet normal 0 0 -1
    outer loop
      vertex -1.46722 0.311868 4.5
      vertex 1.37032 0.610105 4.5
      vertex 1.5 0 4.5
    endloop
  endfacet
  facet normal 0 0 -1
    outer loop
      vertex -1.46722 0.311868 4.5
      vertex 1.5 0 4.5
      vertex 1.37032 -0.610105 4.5
    endloop
  endfacet
  facet normal 0 0 -1
    outer loop
      vertex -1.46722 0.311868 4.5
      vertex 1.37032 -0.610105 4.5
      vertex 1.0037 -1.11472 4.5
    endloop
  endfacet
  facet normal 0 0 -1
    outer loop
      vertex -1.46722 0.311868 4.5
      vertex 1.0037 -1.11472 4.5
      vertex 0.463525 -1.42658 4.5
    endloop
  endfacet
  facet normal 0 0 -1
    outer loop
      vertex -1.46722 0.311868 4.5
      vertex 0.463525 -1.42658 4.5
      vertex -0.156793 -1.49178 4.5
    endloop
  endfacet
  facet normal 0 0 -1
    outer loop
      vertex -1.46722 0.311868 4.5
      vertex -0.156793 -1.49178 4.5
      vertex -0.75 -1.29904 4.5
    endloop
  endfacet
  facet normal 0 0 -1
    outer loop
      vertex -1.46722 0.311868 4.5
      vertex -0.75 -1.29904 4.5
      vertex -1.21352 -0.881678 4.5
    endloop
  endfacet
  facet normal 0 0 -1
    outer loop
      vertex -1.46722 0.311868 4.5
      vertex -1.21352 -0.881678 4.5
      vertex -1.46722 -0.311868 4.5
    endloop
  endfacet
  facet normal 0 0 -1
    outer loop
      vertex -1.21352 14.8817 2.5
      vertex -0.75 15.299 2.5
      vertex -1.46722 14.3119 2.5
    endloop
  endfacet
  facet normal 0 0 -1
    outer loop
      vertex -1.46722 14.3119 2.5
      vertex -0.75 15.299 2.5
      vertex -0.156793 15.4918 2.5
    endloop
  endfacet
  facet normal 0 0 -1
    outer loop
      vertex -1.46722 14.3119 2.5
      vertex -0.156793 15.4918 2.5
      vertex 0.463525 15.4266 2.5
    endloop
  endfacet
  facet normal 0 0 -1
    outer loop
      vertex -1.46722 14.3119 2.5
      vertex 0.463525 15.4266 2.5
      vertex 1.0037 15.1147 2.5
    endloop
  endfacet
  facet normal 0 0 -1
    outer loop
      vertex -1.46722 14.3119 2.5
      vertex 1.0037 15.1147 2.5
      vertex 1.37032 14.6101 2.5
    endloop
  endfacet
  facet normal 0 0 -1
    outer loop
      vertex -1.46722 14.3119 2.5
      vertex 1.37032 14.6101 2.5
      vertex 1.5 14 2.5
    endloop
  endfacet
  facet normal 0 0 -1
    outer loop
      vertex -1.46722 14.3119 2.5
      vertex 1.5 14 2.5
      vertex 1.37032 13.3899 2.5
    endloop
  endfacet
  facet normal 0 0 -1
    outer loop
      vertex -1.46722 14.3119 2.5
      vertex 1.37032 13.3899 2.5
      vertex 1.0037 12.8853 2.5
    endloop
  endfacet
  facet normal 0 0 -1
    outer loop
      vertex -1.46722 14.3119 2.5
      vertex 1.0037 12.8853 2.5
      vertex 0.463525 12.5734 2.5
    endloop
  endfacet
  facet normal 0 0 -1
    outer loop
      vertex -1.46722 14.3119 2.5
      vertex 0.463525 12.5734 2.5
      vertex -0.156793 12.5082 2.5
    endloop
  endfacet
  facet normal 0 0 -1
    outer loop
      vertex -1.46722 14.3119 2.5
      vertex -0.156793 12.5082 2.5
      vertex -0.75 12.701 2.5
    endloop
  endfacet
  facet normal 0 0 -1
    outer loop
      vertex -1.46722 14.3119 2.5
      vertex -0.75 12.701 2.5
      vertex -1.21352 13.1183 2.5
    endloop
  endfacet
  facet normal 0 0 -1
    outer loop
      vertex -1.46722 14.3119 2.5
      vertex -1.21352 13.1183 2.5
      vertex -1.46722 13.6881 2.5
    endloop
  endfacet
  facet normal 0.773252 0.227262 0.591975
    outer loop
      vertex 7.40405 4.61501 6.97992
      vertex 5.63348 6.7434 8.47558
      vertex 7.41019 0.698181 8.47558
    endloop
  endfacet
  facet normal -0.466155 0.551783 0.691546
    outer loop
      vertex 9.1178 6.79545 6.39536
      vertex 7.39862 8.04465 4.23977
      vertex 7.40405 4.61501 6.97992
    endloop
  endfacet
  facet normal -0.387163 0.629558 0.673618
    outer loop
      vertex 10.004 9.64688 4.23977
      vertex 7.39862 8.04465 4.23977
      vertex 9.1178 6.79545 6.39536
    endloop
  endfacet
  facet normal 0.0161273 0.59977 0.80001
    outer loop
      vertex 10.004 9.64688 4.23977
      vertex 9.1178 6.79545 6.39536
      vertex 12.6391 6.79545 6.32437
    endloop
  endfacet
  facet normal 0 -0.878204 0.478287
    outer loop
      vertex 9.29312 -9.32001 5.92532
      vertex 8.39023 -10.238 4.23977
      vertex 11.055 -10.238 4.23977
    endloop
  endfacet
  facet normal 0 -0.878204 0.478287
    outer loop
      vertex 11.9579 -9.32001 5.92532
      vertex 9.29312 -9.32001 5.92532
      vertex 11.055 -10.238 4.23977
    endloop
  endfacet
  facet normal 0.584838 0.538545 -0.606576
    outer loop
      vertex 11.055 -10.238 4.23977
      vertex 10.7007 -6.62449 7.10636
      vertex 11.9579 -9.32001 5.92532
    endloop
  endfacet
  facet normal 0.670269 -0.419769 0.611992
    outer loop
      vertex 13.479 -6.36744 4.23977
      vertex 10.7007 -6.62449 7.10636
      vertex 11.055 -10.238 4.23977
    endloop
  endfacet
  facet normal 0.719266 -0.0385641 0.693664
    outer loop
      vertex 13.8579 0.698181 4.23977
      vertex 10.7007 -6.62449 7.10636
      vertex 13.479 -6.36744 4.23977
    endloop
  endfacet
  facet normal 0.756082 -0.0713027 0.650581
    outer loop
      vertex 12.6391 6.79545 6.32437
      vertex 10.7007 -6.62449 7.10636
      vertex 13.8579 0.698181 4.23977
    endloop
  endfacet
  facet normal 0.780603 0.336176 -0.526919
    outer loop
      vertex 13.8579 0.698181 4.23977
      vertex 10.004 9.64688 4.23977
      vertex 12.6391 6.79545 6.32437
    endloop
  endfacet
  facet normal 0 -0.401319 0.915939
    outer loop
      vertex 10.7007 -6.62449 7.10636
      vertex 9.29312 -9.32001 5.92532
      vertex 11.9579 -9.32001 5.92532
    endloop
  endfacet
endsolid OpenSCAD_Model
