solid OpenSCAD_Model
  facet normal 0 0 -1
    outer loop
      vertex -19.7989 -1.13803 3.5
      vertex -16.2534 3.58204 3.5
      vertex -19.6428 -14.5625 3.5
    endloop
  endfacet
  facet normal 0 0 -1
    outer loop
      vertex -19.6428 -14.5625 3.5
      vertex -16.2534 3.58204 3.5
      vertex -13.7986 6.60031 3.5
    endloop
  endfacet
  facet normal 0 0 -1
    outer loop
      vertex -19.6428 -14.5625 3.5
      vertex -13.7986 6.60031 3.5
      vertex -7.93926 12.7298 3.5
    endloop
  endfacet
  facet normal 0 0 -1
    outer loop
      vertex -12.5082 -7.15679 3.5
      vertex -7.93926 12.7298 3.5
      vertex -11.0789 -14.5625 3.5
    endloop
  endfacet
  facet normal 0 0 -1
    outer loop
      vertex -19.6428 -14.5625 3.5
      vertex -7.93926 12.7298 3.5
      vertex -15.4266 -6.53647 3.5
    endloop
  endfacet
  facet normal 0 0 -1
    outer loop
      vertex -19.6428 -14.5625 3.5
      vertex -15.4266 -6.53647 3.5
      vertex -15.4918 -7.15679 3.5
    endloop
  endfacet
  facet normal 0 0 -1
    outer loop
      vertex -19.6428 -14.5625 3.5
      vertex -15.4918 -7.15679 3.5
      vertex -15.299 -7.75 3.5
    endloop
  endfacet
  facet normal 0 0 -1
    outer loop
      vertex -19.6428 -14.5625 3.5
      vertex -15.299 -7.75 3.5
      vertex -11.0789 -14.5625 3.5
    endloop
  endfacet
  facet normal 0 0 -1
    outer loop
      vertex -15.299 -7.75 3.5
      vertex -14.8817 -8.21352 3.5
      vertex -11.0789 -14.5625 3.5
    endloop
  endfacet
  facet normal 0 0 -1
    outer loop
      vertex -12.5734 -6.53648 3.5
      vertex -7.93926 12.7298 3.5
      vertex -12.5082 -7.15679 3.5
    endloop
  endfacet
  facet normal 0 0 -1
    outer loop
      vertex -14 -5.5 3.5
      vertex -7.93926 12.7298 3.5
      vertex -13.3899 -5.62968 3.5
    endloop
  endfacet
  facet normal 0 0 -1
    outer loop
      vertex -14.3119 -8.46722 3.5
      vertex -13.6881 -8.46722 3.5
      vertex -11.0789 -14.5625 3.5
    endloop
  endfacet
  facet normal 0 0 -1
    outer loop
      vertex -13.3899 -5.62968 3.5
      vertex -7.93926 12.7298 3.5
      vertex -12.8853 -5.9963 3.5
    endloop
  endfacet
  facet normal 0 0 -1
    outer loop
      vertex -13.6881 -8.46722 3.5
      vertex -13.1183 -8.21352 3.5
      vertex -11.0789 -14.5625 3.5
    endloop
  endfacet
  facet normal 0 0 -1
    outer loop
      vertex -12.8853 -5.9963 3.5
      vertex -7.93926 12.7298 3.5
      vertex -12.5734 -6.53648 3.5
    endloop
  endfacet
  facet normal 0 0 -1
    outer loop
      vertex -13.1183 -8.21352 3.5
      vertex -12.701 -7.75 3.5
      vertex -11.0789 -14.5625 3.5
    endloop
  endfacet
  facet normal 0 0 -1
    outer loop
      vertex -12.701 -7.75 3.5
      vertex -12.5082 -7.15679 3.5
      vertex -11.0789 -14.5625 3.5
    endloop
  endfacet
  facet normal 0 0 -1
    outer loop
      vertex -14.6101 -5.62968 3.5
      vertex -7.93926 12.7298 3.5
      vertex -14 -5.5 3.5
    endloop
  endfacet
  facet normal 0 0 -1
    outer loop
      vertex -15.1147 -5.9963 3.5
      vertex -7.93926 12.7298 3.5
      vertex -14.6101 -5.62968 3.5
    endloop
  endfacet
  facet normal 0 0 -1
    outer loop
      vertex -15.4266 -6.53647 3.5
      vertex -7.93926 12.7298 3.5
      vertex -15.1147 -5.9963 3.5
    endloop
  endfacet
  facet normal 0 0 -1
    outer loop
      vertex -14.3119 -8.46722 3.5
      vertex -11.0789 -14.5625 3.5
      vertex -14.8817 -8.21352 3.5
    endloop
  endfacet
  facet normal -0.688914 0.517471 0.507564
    outer loop
      vertex -16.2534 3.58204 3.5
      vertex -19.7989 -1.13803 3.5
      vertex -18.9483 -2.49558 6.03859
    endloop
  endfacet
  facet normal -0.949313 -0.00718097 0.314251
    outer loop
      vertex -18.9483 -2.49558 6.03859
      vertex -19.7989 -1.13803 3.5
      vertex -19.0665 -14.5625 5.40573
    endloop
  endfacet
  facet normal -0.957128 -0.0111278 0.289452
    outer loop
      vertex -19.0665 -14.5625 5.40573
      vertex -19.7989 -1.13803 3.5
      vertex -19.6428 -14.5625 3.5
    endloop
  endfacet
  facet normal 0 -1 0
    outer loop
      vertex -19.0665 -14.5625 5.40573
      vertex -19.6428 -14.5625 3.5
      vertex -11.0789 -14.5625 3.5
    endloop
  endfacet
  facet normal 0 -1 0
    outer loop
      vertex -11.5226 -14.5625 6.31616
      vertex -19.0665 -14.5625 5.40573
      vertex -11.0789 -14.5625 3.5
    endloop
  endfacet
  facet normal 0 -1 0
    outer loop
      vertex -9.52092 -14.5625 8.5
      vertex -11.5226 -14.5625 6.31616
      vertex -11.0789 -14.5625 3.5
    endloop
  endfacet
  facet normal 0 -1 0
    outer loop
      vertex -16.6117 -14.5625 5.94344
      vertex -19.0665 -14.5625 5.40573
      vertex -11.5226 -14.5625 6.31616
    endloop
  endfacet
  facet normal -0.538476 -0.825767 0.167786
    outer loop
      vertex -9.52092 -14.5625 8.5
      vertex -11.0789 -14.5625 3.5
      vertex -6.73267 -17.3901 3.53194
    endloop
  endfacet
  facet normal -0.480574 -0.74391 -0.464377
    outer loop
      vertex -6.73267 -17.3901 3.53194
      vertex -11.0789 -14.5625 3.5
      vertex -3.31975 -17.3901 -3e-06
    endloop
  endfacet
  facet normal -0.466811 -0.221049 -0.856285
    outer loop
      vertex -3.31975 -17.3901 -3e-06
      vertex -11.0789 -14.5625 3.5
      vertex -6.49422 -10.6863 -3e-06
    endloop
  endfacet
  facet normal -0.62764 0.0403542 -0.777457
    outer loop
      vertex -6.49422 -10.6863 -3e-06
      vertex -11.0789 -14.5625 3.5
      vertex -4.98868 12.7298 -3e-06
    endloop
  endfacet
  facet normal -0.761625 0.0876151 -0.642068
    outer loop
      vertex -4.98868 12.7298 -3e-06
      vertex -11.0789 -14.5625 3.5
      vertex -7.93926 12.7298 3.5
    endloop
  endfacet
  facet normal -0.755003 0.157663 -0.636485
    outer loop
      vertex -4.98868 12.7298 -3e-06
      vertex -7.93926 12.7298 3.5
      vertex -3.39667 20.3535 -3e-06
    endloop
  endfacet
  facet normal -0.851543 0.314977 -0.419123
    outer loop
      vertex -3.39667 20.3535 -3e-06
      vertex -7.93926 12.7298 3.5
      vertex -5.67747 19.5099 4
    endloop
  endfacet
  facet normal -0.753574 0.205336 0.62447
    outer loop
      vertex -5.67747 19.5099 4
      vertex -7.93926 12.7298 3.5
      vertex -5.67747 5.82441 8.5
    endloop
  endfacet
  facet normal -0.81721 0.137578 0.559678
    outer loop
      vertex -5.67747 5.82441 8.5
      vertex -7.93926 12.7298 3.5
      vertex -7.23812 -3.44581 8.5
    endloop
  endfacet
  facet normal -0.199673 0.281463 0.938568
    outer loop
      vertex -7.93926 12.7298 3.5
      vertex -9.61677 5.19124 5.40383
      vertex -7.23812 -3.44581 8.5
    endloop
  endfacet
  facet normal 0.0978692 0.223155 0.969857
    outer loop
      vertex -7.93926 12.7298 3.5
      vertex -12.761 6.6003 5.39691
      vertex -9.61677 5.19124 5.40383
    endloop
  endfacet
  facet normal -0.672214 0.642592 0.3677
    outer loop
      vertex -7.93926 12.7298 3.5
      vertex -13.7986 6.60031 3.5
      vertex -12.761 6.6003 5.39691
    endloop
  endfacet
  facet normal -0.596744 0.485339 0.639017
    outer loop
      vertex -13.7986 6.60031 3.5
      vertex -16.2534 3.58204 3.5
      vertex -15.6444 1.06617 5.97955
    endloop
  endfacet
  facet normal -0.782303 0.452646 0.427917
    outer loop
      vertex -13.7986 6.60031 3.5
      vertex -15.6444 1.06617 5.97955
      vertex -12.761 6.6003 5.39691
    endloop
  endfacet
  facet normal -0.545951 0.51734 0.659012
    outer loop
      vertex -16.2534 3.58204 3.5
      vertex -18.9483 -2.49558 6.03859
      vertex -15.6444 1.06617 5.97955
    endloop
  endfacet
  facet normal 0.866025 -0.5 0
    outer loop
      vertex -15.1147 -5.9963 3.5
      vertex -15.1147 -5.9963 4.5
      vertex -15.4266 -6.53647 4.5
    endloop
  endfacet
  facet normal 0.866025 -0.5 0
    outer loop
      vertex -15.4266 -6.53647 3.5
      vertex -15.1147 -5.9963 3.5
      vertex -15.4266 -6.53647 4.5
    endloop
  endfacet
  facet normal 0.994522 -0.104528 0
    outer loop
      vertex -15.4266 -6.53647 3.5
      vertex -15.4266 -6.53647 4.5
      vertex -15.4918 -7.15679 4.5
    endloop
  endfacet
  facet normal 0.994522 -0.104528 0
    outer loop
      vertex -15.4918 -7.15679 3.5
      vertex -15.4266 -6.53647 3.5
      vertex -15.4918 -7.15679 4.5
    endloop
  endfacet
  facet normal 0.587785 -0.809017 0
    outer loop
      vertex -14.6101 -5.62968 3.5
      vertex -14.6101 -5.62968 4.5
      vertex -15.1147 -5.9963 4.5
    endloop
  endfacet
  facet normal 0.587785 -0.809017 0
    outer loop
      vertex -15.1147 -5.9963 3.5
      vertex -14.6101 -5.62968 3.5
      vertex -15.1147 -5.9963 4.5
    endloop
  endfacet
  facet normal 0.207912 -0.978148 0
    outer loop
      vertex -14 -5.5 3.5
      vertex -14 -5.5 4.5
      vertex -14.6101 -5.62968 4.5
    endloop
  endfacet
  facet normal 0.207912 -0.978148 0
    outer loop
      vertex -14.6101 -5.62968 3.5
      vertex -14 -5.5 3.5
      vertex -14.6101 -5.62968 4.5
    endloop
  endfacet
  facet normal -0.207912 -0.978148 0
    outer loop
      vertex -13.3899 -5.62968 3.5
      vertex -13.3899 -5.62968 4.5
      vertex -14 -5.5 4.5
    endloop
  endfacet
  facet normal -0.207912 -0.978148 0
    outer loop
      vertex -14 -5.5 3.5
      vertex -13.3899 -5.62968 3.5
      vertex -14 -5.5 4.5
    endloop
  endfacet
  facet normal -0.587785 -0.809017 0
    outer loop
      vertex -12.8853 -5.9963 3.5
      vertex -12.8853 -5.9963 4.5
      vertex -13.3899 -5.62968 4.5
    endloop
  endfacet
  facet normal -0.587785 -0.809017 0
    outer loop
      vertex -13.3899 -5.62968 3.5
      vertex -12.8853 -5.9963 3.5
      vertex -13.3899 -5.62968 4.5
    endloop
  endfacet
  facet normal -0.866025 -0.5 0
    outer loop
      vertex -12.5734 -6.53648 4.5
      vertex -12.8853 -5.9963 4.5
      vertex -12.5734 -6.53648 3.5
    endloop
  endfacet
  facet normal -0.866025 -0.5 0
    outer loop
      vertex -12.5734 -6.53648 3.5
      vertex -12.8853 -5.9963 4.5
      vertex -12.8853 -5.9963 3.5
    endloop
  endfacet
  facet normal -0.994522 -0.104528 0
    outer loop
      vertex -12.5082 -7.15679 4.5
      vertex -12.5734 -6.53648 4.5
      vertex -12.5082 -7.15679 3.5
    endloop
  endfacet
  facet normal -0.994522 -0.104528 0
    outer loop
      vertex -12.5082 -7.15679 3.5
      vertex -12.5734 -6.53648 4.5
      vertex -12.5734 -6.53648 3.5
    endloop
  endfacet
  facet normal -0.951056 0.309018 0
    outer loop
      vertex -12.5082 -7.15679 4.5
      vertex -12.5082 -7.15679 3.5
      vertex -12.701 -7.75 4.5
    endloop
  endfacet
  facet normal -0.951056 0.309018 0
    outer loop
      vertex -12.701 -7.75 4.5
      vertex -12.5082 -7.15679 3.5
      vertex -12.701 -7.75 3.5
    endloop
  endfacet
  facet normal -0.743145 0.669131 0
    outer loop
      vertex -12.701 -7.75 4.5
      vertex -12.701 -7.75 3.5
      vertex -13.1183 -8.21352 4.5
    endloop
  endfacet
  facet normal -0.743145 0.669131 0
    outer loop
      vertex -13.1183 -8.21352 4.5
      vertex -12.701 -7.75 3.5
      vertex -13.1183 -8.21352 3.5
    endloop
  endfacet
  facet normal -0.406737 0.913545 0
    outer loop
      vertex -13.1183 -8.21352 4.5
      vertex -13.1183 -8.21352 3.5
      vertex -13.6881 -8.46722 4.5
    endloop
  endfacet
  facet normal -0.406737 0.913545 0
    outer loop
      vertex -13.6881 -8.46722 4.5
      vertex -13.1183 -8.21352 3.5
      vertex -13.6881 -8.46722 3.5
    endloop
  endfacet
  facet normal 2.22045e-16 1 0
    outer loop
      vertex -13.6881 -8.46722 4.5
      vertex -13.6881 -8.46722 3.5
      vertex -14.3119 -8.46722 4.5
    endloop
  endfacet
  facet normal 2.22045e-16 1 0
    outer loop
      vertex -14.3119 -8.46722 4.5
      vertex -13.6881 -8.46722 3.5
      vertex -14.3119 -8.46722 3.5
    endloop
  endfacet
  facet normal 0.406737 0.913545 0
    outer loop
      vertex -14.3119 -8.46722 4.5
      vertex -14.3119 -8.46722 3.5
      vertex -14.8817 -8.21352 4.5
    endloop
  endfacet
  facet normal 0.406737 0.913545 0
    outer loop
      vertex -14.8817 -8.21352 4.5
      vertex -14.3119 -8.46722 3.5
      vertex -14.8817 -8.21352 3.5
    endloop
  endfacet
  facet normal 0.743145 0.669131 0
    outer loop
      vertex -15.299 -7.75 4.5
      vertex -14.8817 -8.21352 4.5
      vertex -14.8817 -8.21352 3.5
    endloop
  endfacet
  facet normal 0.743145 0.669131 0
    outer loop
      vertex -15.299 -7.75 3.5
      vertex -15.299 -7.75 4.5
      vertex -14.8817 -8.21352 3.5
    endloop
  endfacet
  facet normal 0.951056 0.309018 0
    outer loop
      vertex -15.4918 -7.15679 4.5
      vertex -15.299 -7.75 4.5
      vertex -15.299 -7.75 3.5
    endloop
  endfacet
  facet normal 0.951056 0.309018 0
    outer loop
      vertex -15.4918 -7.15679 3.5
      vertex -15.4918 -7.15679 4.5
      vertex -15.299 -7.75 3.5
    endloop
  endfacet
  facet normal -0.213711 -0.0490755 0.975663
    outer loop
      vertex -18.9483 -2.49558 6.03859
      vertex -19.0665 -14.5625 5.40573
      vertex -16.6117 -14.5625 5.94344
    endloop
  endfacet
  facet normal 0.0218106 -0.00366005 0.999755
    outer loop
      vertex -15.6444 1.06617 5.97955
      vertex -18.9483 -2.49558 6.03859
      vertex -16.6117 -14.5625 5.94344
    endloop
  endfacet
  facet normal -0.0730447 0.00221614 0.997326
    outer loop
      vertex -15.6444 1.06617 5.97955
      vertex -16.6117 -14.5625 5.94344
      vertex -11.5226 -14.5625 6.31616
    endloop
  endfacet
  facet normal 0.105982 0.0493414 0.993143
    outer loop
      vertex -12.761 6.6003 5.39691
      vertex -15.6444 1.06617 5.97955
      vertex -11.5226 -14.5625 6.31616
    endloop
  endfacet
  facet normal 0.0177094 0.044424 0.998856
    outer loop
      vertex -9.61677 5.19124 5.40383
      vertex -12.761 6.6003 5.39691
      vertex -11.5226 -14.5625 6.31616
    endloop
  endfacet
  facet normal -0.640054 0.0969546 0.762188
    outer loop
      vertex -9.61677 5.19124 5.40383
      vertex -11.5226 -14.5625 6.31616
      vertex -7.23812 -3.44581 8.5
    endloop
  endfacet
  facet normal -0.728875 0.149674 0.668086
    outer loop
      vertex -7.23812 -3.44581 8.5
      vertex -11.5226 -14.5625 6.31616
      vertex -9.52092 -14.5625 8.5
    endloop
  endfacet
  facet normal 0 0 1
    outer loop
      vertex -7.23812 -3.44581 8.5
      vertex -9.52092 -14.5625 8.5
      vertex -5.54892 -17.3901 8.5
    endloop
  endfacet
  facet normal 0 0 1
    outer loop
      vertex 5.54892 -17.3901 8.5
      vertex -7.23812 -3.44581 8.5
      vertex -4e-06 -13.7571 8.5
    endloop
  endfacet
  facet normal 0 0 1
    outer loop
      vertex -4e-06 -13.7571 8.5
      vertex -7.23812 -3.44581 8.5
      vertex -5.54892 -17.3901 8.5
    endloop
  endfacet
  facet normal 0 0 1
    outer loop
      vertex 9.52092 -14.5625 8.5
      vertex -7.23812 -3.44581 8.5
      vertex 5.54892 -17.3901 8.5
    endloop
  endfacet
  facet normal 0 0 1
    outer loop
      vertex 7.23812 -3.44581 8.5
      vertex -7.23812 -3.44581 8.5
      vertex 9.52092 -14.5625 8.5
    endloop
  endfacet
  facet normal 0 0 1
    outer loop
      vertex 5.67747 5.82441 8.5
      vertex -7.23812 -3.44581 8.5
      vertex 7.23812 -3.44581 8.5
    endloop
  endfacet
  facet normal 0 0 1
    outer loop
      vertex -4e-06 5.82441 8.5
      vertex -7.23812 -3.44581 8.5
      vertex 5.67747 5.82441 8.5
    endloop
  endfacet
  facet normal 0 0 1
    outer loop
      vertex -5.67747 5.82441 8.5
      vertex -7.23812 -3.44581 8.5
      vertex -4e-06 5.82441 8.5
    endloop
  endfacet
  facet normal -0.574488 -0.806986 0.136885
    outer loop
      vertex -5.54892 -17.3901 8.5
      vertex -9.52092 -14.5625 8.5
      vertex -6.73267 -17.3901 3.53194
    endloop
  endfacet
  facet normal -0.101403 -0.994552 0.0241615
    outer loop
      vertex -5.54892 -17.3901 8.5
      vertex -6.73267 -17.3901 3.53194
      vertex -4e-06 -18 6.68377
    endloop
  endfacet
  facet normal -0.0902161 -0.995922 5.96024e-07
    outer loop
      vertex -4e-06 -18 6.68377
      vertex -6.73267 -17.3901 3.53194
      vertex -4e-06 -18 -3e-06
    endloop
  endfacet
  facet normal -0.177996 -0.968883 -0.171996
    outer loop
      vertex -4e-06 -18 -3e-06
      vertex -6.73267 -17.3901 3.53194
      vertex -3.31975 -17.3901 -3e-06
    endloop
  endfacet
  facet normal 0 0 -1
    outer loop
      vertex -6.49422 -10.6863 -3e-06
      vertex -4.98868 12.7298 -3e-06
      vertex -3.31975 -17.3901 -3e-06
    endloop
  endfacet
  facet normal 0 0 -1
    outer loop
      vertex -3.31975 -17.3901 -3e-06
      vertex -4.98868 12.7298 -3e-06
      vertex -3.39667 20.3535 -3e-06
    endloop
  endfacet
  facet normal 0 0 -1
    outer loop
      vertex -1.46722 0.311868 -3e-06
      vertex -3.39667 20.3535 -3e-06
      vertex 3.39667 20.3535 -3e-06
    endloop
  endfacet
  facet normal 0 0 -1
    outer loop
      vertex 0.463525 1.42658 -3e-06
      vertex 3.39667 20.3535 -3e-06
      vertex 4.98868 12.7298 -3e-06
    endloop
  endfacet
  facet normal 0 0 -1
    outer loop
      vertex 1.37032 -0.610105 -3e-06
      vertex 4.98868 12.7298 -3e-06
      vertex 6.49422 -10.6863 -3e-06
    endloop
  endfacet
  facet normal 0 0 -1
    outer loop
      vertex -3.31975 -17.3901 -3e-06
      vertex 6.49422 -10.6863 -3e-06
      vertex 3.31975 -17.3901 -3e-06
    endloop
  endfacet
  facet normal 0 0 -1
    outer loop
      vertex -3.31975 -17.3901 -3e-06
      vertex 3.31975 -17.3901 -3e-06
      vertex -4e-06 -18 -3e-06
    endloop
  endfacet
  facet normal 0 0 -1
    outer loop
      vertex -3.31975 -17.3901 -3e-06
      vertex -3.39667 20.3535 -3e-06
      vertex -1.46722 0.311868 -3e-06
    endloop
  endfacet
  facet normal 0 0 -1
    outer loop
      vertex -1.21352 0.881678 -3e-06
      vertex -1.46722 0.311868 -3e-06
      vertex 3.39667 20.3535 -3e-06
    endloop
  endfacet
  facet normal 0 0 -1
    outer loop
      vertex -3.31975 -17.3901 -3e-06
      vertex -1.46722 0.311868 -3e-06
      vertex -1.46722 -0.311868 -3e-06
    endloop
  endfacet
  facet normal 0 0 -1
    outer loop
      vertex -3.31975 -17.3901 -3e-06
      vertex -1.46722 -0.311868 -3e-06
      vertex -1.21352 -0.881678 -3e-06
    endloop
  endfacet
  facet normal 0 0 -1
    outer loop
      vertex -3.31975 -17.3901 -3e-06
      vertex -1.21352 -0.881678 -3e-06
      vertex -0.75 -1.29904 -3e-06
    endloop
  endfacet
  facet normal 0 0 -1
    outer loop
      vertex 1.37032 -0.610105 -3e-06
      vertex -3.31975 -17.3901 -3e-06
      vertex 1.0037 -1.11472 -3e-06
    endloop
  endfacet
  facet normal 0 0 -1
    outer loop
      vertex -3.31975 -17.3901 -3e-06
      vertex -0.156793 -1.49178 -3e-06
      vertex 0.463525 -1.42658 -3e-06
    endloop
  endfacet
  facet normal 0 0 -1
    outer loop
      vertex -3.31975 -17.3901 -3e-06
      vertex 0.463525 -1.42658 -3e-06
      vertex 1.0037 -1.11472 -3e-06
    endloop
  endfacet
  facet normal 0 0 -1
    outer loop
      vertex 1.5 0 -3e-06
      vertex 4.98868 12.7298 -3e-06
      vertex 1.37032 -0.610105 -3e-06
    endloop
  endfacet
  facet normal 0 0 -1
    outer loop
      vertex -3.31975 -17.3901 -3e-06
      vertex 1.37032 -0.610105 -3e-06
      vertex 6.49422 -10.6863 -3e-06
    endloop
  endfacet
  facet normal 0 0 -1
    outer loop
      vertex 1.37032 0.610105 -3e-06
      vertex 4.98868 12.7298 -3e-06
      vertex 1.5 0 -3e-06
    endloop
  endfacet
  facet normal 0 0 -1
    outer loop
      vertex 1.0037 1.11472 -3e-06
      vertex 4.98868 12.7298 -3e-06
      vertex 1.37032 0.610105 -3e-06
    endloop
  endfacet
  facet normal 0 0 -1
    outer loop
      vertex 0.463525 1.42658 -3e-06
      vertex 4.98868 12.7298 -3e-06
      vertex 1.0037 1.11472 -3e-06
    endloop
  endfacet
  facet normal 0 0 -1
    outer loop
      vertex -0.156793 1.49178 -3e-06
      vertex 3.39667 20.3535 -3e-06
      vertex 0.463525 1.42658 -3e-06
    endloop
  endfacet
  facet normal 0 0 -1
    outer loop
      vertex -1.21352 0.881678 -3e-06
      vertex 3.39667 20.3535 -3e-06
      vertex -0.75 1.29904 -3e-06
    endloop
  endfacet
  facet normal 0 0 -1
    outer loop
      vertex -0.156793 -1.49178 -3e-06
      vertex -3.31975 -17.3901 -3e-06
      vertex -0.75 -1.29904 -3e-06
    endloop
  endfacet
  facet normal 0 0 -1
    outer loop
      vertex -0.75 1.29904 -3e-06
      vertex 3.39667 20.3535 -3e-06
      vertex -0.156793 1.49178 -3e-06
    endloop
  endfacet
  facet normal 0 0.924721 -0.380645
    outer loop
      vertex 3.39667 20.3535 -3e-06
      vertex -3.39667 20.3535 -3e-06
      vertex -4e-06 22 4
    endloop
  endfacet
  facet normal -0.401404 0.915199 -0.0358675
    outer loop
      vertex -3.39667 20.3535 -3e-06
      vertex -5.67747 19.5099 4
      vertex -4e-06 22 4
    endloop
  endfacet
  facet normal -0.116748 0.266186 0.956825
    outer loop
      vertex -4e-06 22 4
      vertex -5.67747 19.5099 4
      vertex -4e-06 5.82441 8.5
    endloop
  endfacet
  facet normal 0 0.312363 0.949963
    outer loop
      vertex -5.67747 19.5099 4
      vertex -5.67747 5.82441 8.5
      vertex -4e-06 5.82441 8.5
    endloop
  endfacet
  facet normal 0 0 -1
    outer loop
      vertex -15.1147 -5.9963 4.5
      vertex -14.6101 -5.62968 4.5
      vertex -15.4266 -6.53647 4.5
    endloop
  endfacet
  facet normal 0 0 -1
    outer loop
      vertex -15.4266 -6.53647 4.5
      vertex -14.6101 -5.62968 4.5
      vertex -14 -5.5 4.5
    endloop
  endfacet
  facet normal 0 0 -1
    outer loop
      vertex -15.4266 -6.53647 4.5
      vertex -14 -5.5 4.5
      vertex -13.3899 -5.62968 4.5
    endloop
  endfacet
  facet normal 0 0 -1
    outer loop
      vertex -15.4266 -6.53647 4.5
      vertex -13.3899 -5.62968 4.5
      vertex -12.8853 -5.9963 4.5
    endloop
  endfacet
  facet normal 0 0 -1
    outer loop
      vertex -15.4266 -6.53647 4.5
      vertex -12.8853 -5.9963 4.5
      vertex -12.5734 -6.53648 4.5
    endloop
  endfacet
  facet normal 0 0 -1
    outer loop
      vertex -15.4266 -6.53647 4.5
      vertex -12.5734 -6.53648 4.5
      vertex -12.5082 -7.15679 4.5
    endloop
  endfacet
  facet normal 0 0 -1
    outer loop
      vertex -15.4266 -6.53647 4.5
      vertex -12.5082 -7.15679 4.5
      vertex -12.701 -7.75 4.5
    endloop
  endfacet
  facet normal 0 0 -1
    outer loop
      vertex -15.4266 -6.53647 4.5
      vertex -12.701 -7.75 4.5
      vertex -13.1183 -8.21352 4.5
    endloop
  endfacet
  facet normal 0 0 -1
    outer loop
      vertex -15.4266 -6.53647 4.5
      vertex -13.1183 -8.21352 4.5
      vertex -13.6881 -8.46722 4.5
    endloop
  endfacet
  facet normal 0 0 -1
    outer loop
      vertex -15.4266 -6.53647 4.5
      vertex -13.6881 -8.46722 4.5
      vertex -14.3119 -8.46722 4.5
    endloop
  endfacet
  facet normal 0 0 -1
    outer loop
      vertex -15.4266 -6.53647 4.5
      vertex -14.3119 -8.46722 4.5
      vertex -14.8817 -8.21352 4.5
    endloop
  endfacet
  facet normal 0 0 -1
    outer loop
      vertex -15.4266 -6.53647 4.5
      vertex -14.8817 -8.21352 4.5
      vertex -15.299 -7.75 4.5
    endloop
  endfacet
  facet normal 0 0 -1
    outer loop
      vertex -15.4266 -6.53647 4.5
      vertex -15.299 -7.75 4.5
      vertex -15.4918 -7.15679 4.5
    endloop
  endfacet
  facet normal 0.116748 0.266186 0.956825
    outer loop
      vertex -4e-06 22 4
      vertex -4e-06 5.82441 8.5
      vertex 5.67747 19.5099 4
    endloop
  endfacet
  facet normal 0 0.312363 0.949963
    outer loop
      vertex 5.67747 19.5099 4
      vertex -4e-06 5.82441 8.5
      vertex 5.67747 5.82441 8.5
    endloop
  endfacet
  facet normal 0.753574 0.205336 0.62447
    outer loop
      vertex 5.67747 19.5099 4
      vertex 5.67747 5.82441 8.5
      vertex 7.93926 12.7298 3.5
    endloop
  endfacet
  facet normal 0.81721 0.137578 0.559678
    outer loop
      vertex 7.93926 12.7298 3.5
      vertex 5.67747 5.82441 8.5
      vertex 7.23812 -3.44581 8.5
    endloop
  endfacet
  facet normal 0.199673 0.281463 0.938568
    outer loop
      vertex 7.93926 12.7298 3.5
      vertex 7.23812 -3.44581 8.5
      vertex 9.61677 5.19124 5.40383
    endloop
  endfacet
  facet normal 0.640054 0.0969546 0.762188
    outer loop
      vertex 9.61677 5.19124 5.40383
      vertex 7.23812 -3.44581 8.5
      vertex 11.5226 -14.5625 6.31616
    endloop
  endfacet
  facet normal 0.728875 0.149674 0.668086
    outer loop
      vertex 11.5226 -14.5625 6.31616
      vertex 7.23812 -3.44581 8.5
      vertex 9.52092 -14.5625 8.5
    endloop
  endfacet
  facet normal 0.538476 -0.825767 0.167786
    outer loop
      vertex 9.52092 -14.5625 8.5
      vertex 6.73267 -17.3901 3.53194
      vertex 11.0789 -14.5625 3.5
    endloop
  endfacet
  facet normal 0.574488 -0.806986 0.136885
    outer loop
      vertex 9.52092 -14.5625 8.5
      vertex 5.54892 -17.3901 8.5
      vertex 6.73267 -17.3901 3.53194
    endloop
  endfacet
  facet normal 0 -1 0
    outer loop
      vertex 11.5226 -14.5625 6.31616
      vertex 9.52092 -14.5625 8.5
      vertex 11.0789 -14.5625 3.5
    endloop
  endfacet
  facet normal 0 -1 0
    outer loop
      vertex 19.6428 -14.5625 3.5
      vertex 11.5226 -14.5625 6.31616
      vertex 11.0789 -14.5625 3.5
    endloop
  endfacet
  facet normal 0 -1 0
    outer loop
      vertex 16.6117 -14.5625 5.94344
      vertex 19.6428 -14.5625 3.5
      vertex 19.0665 -14.5625 5.40573
    endloop
  endfacet
  facet normal 0 -1 0
    outer loop
      vertex 16.6117 -14.5625 5.94344
      vertex 11.5226 -14.5625 6.31616
      vertex 19.6428 -14.5625 3.5
    endloop
  endfacet
  facet normal 0.101403 -0.994552 0.0241615
    outer loop
      vertex 5.54892 -17.3901 8.5
      vertex -4e-06 -18 6.68377
      vertex 6.73267 -17.3901 3.53194
    endloop
  endfacet
  facet normal -0.249501 -0.38108 0.89024
    outer loop
      vertex -4e-06 -13.7571 8.5
      vertex -4e-06 -18 6.68377
      vertex 5.54892 -17.3901 8.5
    endloop
  endfacet
  facet normal 0.249501 -0.38108 0.89024
    outer loop
      vertex -4e-06 -13.7571 8.5
      vertex -5.54892 -17.3901 8.5
      vertex -4e-06 -18 6.68377
    endloop
  endfacet
  facet normal 0.090216 -0.995922 5.96024e-07
    outer loop
      vertex -4e-06 -18 6.68377
      vertex -4e-06 -18 -3e-06
      vertex 6.73267 -17.3901 3.53194
    endloop
  endfacet
  facet normal 0.177995 -0.968883 -0.171995
    outer loop
      vertex 6.73267 -17.3901 3.53194
      vertex -4e-06 -18 -3e-06
      vertex 3.31975 -17.3901 -3e-06
    endloop
  endfacet
  facet normal 0.466811 -0.221049 -0.856285
    outer loop
      vertex 11.0789 -14.5625 3.5
      vertex 3.31975 -17.3901 -3e-06
      vertex 6.49422 -10.6863 -3e-06
    endloop
  endfacet
  facet normal 0.480574 -0.74391 -0.464377
    outer loop
      vertex 6.73267 -17.3901 3.53194
      vertex 3.31975 -17.3901 -3e-06
      vertex 11.0789 -14.5625 3.5
    endloop
  endfacet
  facet normal 0.62764 0.0403542 -0.777457
    outer loop
      vertex 6.49422 -10.6863 -3e-06
      vertex 4.98868 12.7298 -3e-06
      vertex 11.0789 -14.5625 3.5
    endloop
  endfacet
  facet normal 0.755003 0.157663 -0.636485
    outer loop
      vertex 4.98868 12.7298 -3e-06
      vertex 3.39667 20.3535 -3e-06
      vertex 7.93926 12.7298 3.5
    endloop
  endfacet
  facet normal 0.761625 0.0876151 -0.642068
    outer loop
      vertex 11.0789 -14.5625 3.5
      vertex 4.98868 12.7298 -3e-06
      vertex 7.93926 12.7298 3.5
    endloop
  endfacet
  facet normal 0.851543 0.314977 -0.419123
    outer loop
      vertex 7.93926 12.7298 3.5
      vertex 3.39667 20.3535 -3e-06
      vertex 5.67747 19.5099 4
    endloop
  endfacet
  facet normal 0.401403 0.915199 -0.0358672
    outer loop
      vertex 3.39667 20.3535 -3e-06
      vertex -4e-06 22 4
      vertex 5.67747 19.5099 4
    endloop
  endfacet
  facet normal 0.913545 -0.406737 0
    outer loop
      vertex -1.21352 0.881678 -3e-06
      vertex -1.21352 0.881678 4.5
      vertex -1.46722 0.311868 4.5
    endloop
  endfacet
  facet normal 0.913545 -0.406737 0
    outer loop
      vertex -1.46722 0.311868 -3e-06
      vertex -1.21352 0.881678 -3e-06
      vertex -1.46722 0.311868 4.5
    endloop
  endfacet
  facet normal 1 0 0
    outer loop
      vertex -1.46722 0.311868 -3e-06
      vertex -1.46722 0.311868 4.5
      vertex -1.46722 -0.311868 4.5
    endloop
  endfacet
  facet normal 1 0 0
    outer loop
      vertex -1.46722 -0.311868 -3e-06
      vertex -1.46722 0.311868 -3e-06
      vertex -1.46722 -0.311868 4.5
    endloop
  endfacet
  facet normal 0.669131 -0.743145 0
    outer loop
      vertex -0.75 1.29904 -3e-06
      vertex -0.75 1.29904 4.5
      vertex -1.21352 0.881678 4.5
    endloop
  endfacet
  facet normal 0.669131 -0.743145 0
    outer loop
      vertex -1.21352 0.881678 -3e-06
      vertex -0.75 1.29904 -3e-06
      vertex -1.21352 0.881678 4.5
    endloop
  endfacet
  facet normal 0.309018 -0.951056 0
    outer loop
      vertex -0.156793 1.49178 -3e-06
      vertex -0.156793 1.49178 4.5
      vertex -0.75 1.29904 4.5
    endloop
  endfacet
  facet normal 0.309018 -0.951056 0
    outer loop
      vertex -0.75 1.29904 -3e-06
      vertex -0.156793 1.49178 -3e-06
      vertex -0.75 1.29904 4.5
    endloop
  endfacet
  facet normal -0.104528 -0.994522 0
    outer loop
      vertex 0.463525 1.42658 -3e-06
      vertex 0.463525 1.42658 4.5
      vertex -0.156793 1.49178 4.5
    endloop
  endfacet
  facet normal -0.104528 -0.994522 0
    outer loop
      vertex -0.156793 1.49178 -3e-06
      vertex 0.463525 1.42658 -3e-06
      vertex -0.156793 1.49178 4.5
    endloop
  endfacet
  facet normal -0.5 -0.866025 0
    outer loop
      vertex 1.0037 1.11472 -3e-06
      vertex 1.0037 1.11472 4.5
      vertex 0.463525 1.42658 4.5
    endloop
  endfacet
  facet normal -0.5 -0.866025 0
    outer loop
      vertex 0.463525 1.42658 -3e-06
      vertex 1.0037 1.11472 -3e-06
      vertex 0.463525 1.42658 4.5
    endloop
  endfacet
  facet normal -0.809017 -0.587785 0
    outer loop
      vertex 1.37032 0.610105 4.5
      vertex 1.0037 1.11472 4.5
      vertex 1.37032 0.610105 -3e-06
    endloop
  endfacet
  facet normal -0.809017 -0.587785 0
    outer loop
      vertex 1.37032 0.610105 -3e-06
      vertex 1.0037 1.11472 4.5
      vertex 1.0037 1.11472 -3e-06
    endloop
  endfacet
  facet normal -0.978148 -0.207912 0
    outer loop
      vertex 1.5 0 4.5
      vertex 1.37032 0.610105 4.5
      vertex 1.5 0 -3e-06
    endloop
  endfacet
  facet normal -0.978148 -0.207912 0
    outer loop
      vertex 1.5 0 -3e-06
      vertex 1.37032 0.610105 4.5
      vertex 1.37032 0.610105 -3e-06
    endloop
  endfacet
  facet normal -0.978148 0.207912 0
    outer loop
      vertex 1.5 0 4.5
      vertex 1.5 0 -3e-06
      vertex 1.37032 -0.610105 4.5
    endloop
  endfacet
  facet normal -0.978148 0.207912 0
    outer loop
      vertex 1.37032 -0.610105 4.5
      vertex 1.5 0 -3e-06
      vertex 1.37032 -0.610105 -3e-06
    endloop
  endfacet
  facet normal -0.809017 0.587785 0
    outer loop
      vertex 1.37032 -0.610105 4.5
      vertex 1.37032 -0.610105 -3e-06
      vertex 1.0037 -1.11472 4.5
    endloop
  endfacet
  facet normal -0.809017 0.587785 0
    outer loop
      vertex 1.0037 -1.11472 4.5
      vertex 1.37032 -0.610105 -3e-06
      vertex 1.0037 -1.11472 -3e-06
    endloop
  endfacet
  facet normal -0.5 0.866025 0
    outer loop
      vertex 1.0037 -1.11472 4.5
      vertex 1.0037 -1.11472 -3e-06
      vertex 0.463525 -1.42658 4.5
    endloop
  endfacet
  facet normal -0.5 0.866025 0
    outer loop
      vertex 0.463525 -1.42658 4.5
      vertex 1.0037 -1.11472 -3e-06
      vertex 0.463525 -1.42658 -3e-06
    endloop
  endfacet
  facet normal -0.104528 0.994522 0
    outer loop
      vertex 0.463525 -1.42658 4.5
      vertex 0.463525 -1.42658 -3e-06
      vertex -0.156793 -1.49178 4.5
    endloop
  endfacet
  facet normal -0.104528 0.994522 0
    outer loop
      vertex -0.156793 -1.49178 4.5
      vertex 0.463525 -1.42658 -3e-06
      vertex -0.156793 -1.49178 -3e-06
    endloop
  endfacet
  facet normal 0.309018 0.951056 0
    outer loop
      vertex -0.156793 -1.49178 4.5
      vertex -0.156793 -1.49178 -3e-06
      vertex -0.75 -1.29904 4.5
    endloop
  endfacet
  facet normal 0.309018 0.951056 0
    outer loop
      vertex -0.75 -1.29904 4.5
      vertex -0.156793 -1.49178 -3e-06
      vertex -0.75 -1.29904 -3e-06
    endloop
  endfacet
  facet normal 0.669131 0.743145 0
    outer loop
      vertex -0.75 -1.29904 4.5
      vertex -0.75 -1.29904 -3e-06
      vertex -1.21352 -0.881678 4.5
    endloop
  endfacet
  facet normal 0.669131 0.743145 0
    outer loop
      vertex -1.21352 -0.881678 4.5
      vertex -0.75 -1.29904 -3e-06
      vertex -1.21352 -0.881678 -3e-06
    endloop
  endfacet
  facet normal 0.913545 0.406737 0
    outer loop
      vertex -1.46722 -0.311868 4.5
      vertex -1.21352 -0.881678 4.5
      vertex -1.21352 -0.881678 -3e-06
    endloop
  endfacet
  facet normal 0.913545 0.406737 0
    outer loop
      vertex -1.46722 -0.311868 -3e-06
      vertex -1.46722 -0.311868 4.5
      vertex -1.21352 -0.881678 -3e-06
    endloop
  endfacet
  facet normal 0 0 -1
    outer loop
      vertex 7.93926 12.7298 3.5
      vertex 13.7986 6.60031 3.5
      vertex 11.0789 -14.5625 3.5
    endloop
  endfacet
  facet normal 0 0 -1
    outer loop
      vertex 12.5734 -6.53647 3.5
      vertex 13.7986 6.60031 3.5
      vertex 16.2534 3.58204 3.5
    endloop
  endfacet
  facet normal 0 0 -1
    outer loop
      vertex 15.1147 -5.9963 3.5
      vertex 16.2534 3.58204 3.5
      vertex 19.7989 -1.13803 3.5
    endloop
  endfacet
  facet normal 0 0 -1
    outer loop
      vertex 11.0789 -14.5625 3.5
      vertex 19.7989 -1.13803 3.5
      vertex 19.6428 -14.5625 3.5
    endloop
  endfacet
  facet normal 0 0 -1
    outer loop
      vertex 11.0789 -14.5625 3.5
      vertex 13.7986 6.60031 3.5
      vertex 12.5734 -6.53647 3.5
    endloop
  endfacet
  facet normal 0 0 -1
    outer loop
      vertex 12.8853 -5.9963 3.5
      vertex 12.5734 -6.53647 3.5
      vertex 16.2534 3.58204 3.5
    endloop
  endfacet
  facet normal 0 0 -1
    outer loop
      vertex 11.0789 -14.5625 3.5
      vertex 12.5734 -6.53647 3.5
      vertex 12.5082 -7.15679 3.5
    endloop
  endfacet
  facet normal 0 0 -1
    outer loop
      vertex 11.0789 -14.5625 3.5
      vertex 12.5082 -7.15679 3.5
      vertex 12.701 -7.75 3.5
    endloop
  endfacet
  facet normal 0 0 -1
    outer loop
      vertex 15.4918 -7.15679 3.5
      vertex 19.7989 -1.13803 3.5
      vertex 15.299 -7.75 3.5
    endloop
  endfacet
  facet normal 0 0 -1
    outer loop
      vertex 11.0789 -14.5625 3.5
      vertex 13.1183 -8.21352 3.5
      vertex 13.6881 -8.46722 3.5
    endloop
  endfacet
  facet normal 0 0 -1
    outer loop
      vertex 11.0789 -14.5625 3.5
      vertex 13.6881 -8.46722 3.5
      vertex 14.3119 -8.46722 3.5
    endloop
  endfacet
  facet normal 0 0 -1
    outer loop
      vertex 11.0789 -14.5625 3.5
      vertex 14.3119 -8.46722 3.5
      vertex 14.8817 -8.21352 3.5
    endloop
  endfacet
  facet normal 0 0 -1
    outer loop
      vertex 11.0789 -14.5625 3.5
      vertex 14.8817 -8.21352 3.5
      vertex 15.299 -7.75 3.5
    endloop
  endfacet
  facet normal 0 0 -1
    outer loop
      vertex 11.0789 -14.5625 3.5
      vertex 15.299 -7.75 3.5
      vertex 19.7989 -1.13803 3.5
    endloop
  endfacet
  facet normal 0 0 -1
    outer loop
      vertex 15.4266 -6.53648 3.5
      vertex 19.7989 -1.13803 3.5
      vertex 15.4918 -7.15679 3.5
    endloop
  endfacet
  facet normal 0 0 -1
    outer loop
      vertex 15.1147 -5.9963 3.5
      vertex 19.7989 -1.13803 3.5
      vertex 15.4266 -6.53648 3.5
    endloop
  endfacet
  facet normal 0 0 -1
    outer loop
      vertex 14.6101 -5.62968 3.5
      vertex 16.2534 3.58204 3.5
      vertex 15.1147 -5.9963 3.5
    endloop
  endfacet
  facet normal 0 0 -1
    outer loop
      vertex 13.3899 -5.62968 3.5
      vertex 16.2534 3.58204 3.5
      vertex 14 -5.5 3.5
    endloop
  endfacet
  facet normal 0 0 -1
    outer loop
      vertex 14 -5.5 3.5
      vertex 16.2534 3.58204 3.5
      vertex 14.6101 -5.62968 3.5
    endloop
  endfacet
  facet normal 0 0 -1
    outer loop
      vertex 13.1183 -8.21352 3.5
      vertex 11.0789 -14.5625 3.5
      vertex 12.701 -7.75 3.5
    endloop
  endfacet
  facet normal 0 0 -1
    outer loop
      vertex 12.8853 -5.9963 3.5
      vertex 16.2534 3.58204 3.5
      vertex 13.3899 -5.62968 3.5
    endloop
  endfacet
  facet normal 0.672214 0.642592 0.3677
    outer loop
      vertex 13.7986 6.60031 3.5
      vertex 7.93926 12.7298 3.5
      vertex 12.761 6.6003 5.39691
    endloop
  endfacet
  facet normal -0.0978692 0.223155 0.969857
    outer loop
      vertex 12.761 6.6003 5.39691
      vertex 7.93926 12.7298 3.5
      vertex 9.61677 5.19124 5.40383
    endloop
  endfacet
  facet normal -0.0177094 0.044424 0.998856
    outer loop
      vertex 12.761 6.6003 5.39691
      vertex 9.61677 5.19124 5.40383
      vertex 11.5226 -14.5625 6.31616
    endloop
  endfacet
  facet normal -0.105982 0.0493414 0.993143
    outer loop
      vertex 12.761 6.6003 5.39691
      vertex 11.5226 -14.5625 6.31616
      vertex 15.6444 1.06617 5.97955
    endloop
  endfacet
  facet normal 0.0730447 0.00221614 0.997326
    outer loop
      vertex 15.6444 1.06617 5.97955
      vertex 11.5226 -14.5625 6.31616
      vertex 16.6117 -14.5625 5.94344
    endloop
  endfacet
  facet normal 0.213711 -0.0490755 0.975663
    outer loop
      vertex 18.9483 -2.49558 6.03859
      vertex 16.6117 -14.5625 5.94344
      vertex 19.0665 -14.5625 5.40573
    endloop
  endfacet
  facet normal -0.0218106 -0.00366005 0.999755
    outer loop
      vertex 18.9483 -2.49558 6.03859
      vertex 15.6444 1.06617 5.97955
      vertex 16.6117 -14.5625 5.94344
    endloop
  endfacet
  facet normal 0.949313 -0.00718097 0.314251
    outer loop
      vertex 19.7989 -1.13803 3.5
      vertex 18.9483 -2.49558 6.03859
      vertex 19.0665 -14.5625 5.40573
    endloop
  endfacet
  facet normal 0.957128 -0.0111278 0.289452
    outer loop
      vertex 19.7989 -1.13803 3.5
      vertex 19.0665 -14.5625 5.40573
      vertex 19.6428 -14.5625 3.5
    endloop
  endfacet
  facet normal 0 0 -1
    outer loop
      vertex -1.21352 0.881678 4.5
      vertex -0.75 1.29904 4.5
      vertex -1.46722 0.311868 4.5
    endloop
  endfacet
  facet normal 0 0 -1
    outer loop
      vertex -1.46722 0.311868 4.5
      vertex -0.75 1.29904 4.5
      vertex -0.156793 1.49178 4.5
    endloop
  endfacet
  facet normal 0 0 -1
    outer loop
      vertex -1.46722 0.311868 4.5
      vertex -0.156793 1.49178 4.5
      vertex 0.463525 1.42658 4.5
    endloop
  endfacet
  facet normal 0 0 -1
    outer loop
      vertex -1.46722 0.311868 4.5
      vertex 0.463525 1.42658 4.5
      vertex 1.0037 1.11472 4.5
    endloop
  endfacet
  facet normal 0 0 -1
    outer loop
      vertex -1.46722 0.311868 4.5
      vertex 1.0037 1.11472 4.5
      vertex 1.37032 0.610105 4.5
    endloop
  endfacet
  facet normal 0 0 -1
    outer loop
      vertex -1.46722 0.311868 4.5
      vertex 1.37032 0.610105 4.5
      vertex 1.5 0 4.5
    endloop
  endfacet
  facet normal 0 0 -1
    outer loop
      vertex -1.46722 0.311868 4.5
      vertex 1.5 0 4.5
      vertex 1.37032 -0.610105 4.5
    endloop
  endfacet
  facet normal 0 0 -1
    outer loop
      vertex -1.46722 0.311868 4.5
      vertex 1.37032 -0.610105 4.5
      vertex 1.0037 -1.11472 4.5
    endloop
  endfacet
  facet normal 0 0 -1
    outer loop
      vertex -1.46722 0.311868 4.5
      vertex 1.0037 -1.11472 4.5
      vertex 0.463525 -1.42658 4.5
    endloop
  endfacet
  facet normal 0 0 -1
    outer loop
      vertex -1.46722 0.311868 4.5
      vertex 0.463525 -1.42658 4.5
      vertex -0.156793 -1.49178 4.5
    endloop
  endfacet
  facet normal 0 0 -1
    outer loop
      vertex -1.46722 0.311868 4.5
      vertex -0.156793 -1.49178 4.5
      vertex -0.75 -1.29904 4.5
    endloop
  endfacet
  facet normal 0 0 -1
    outer loop
      vertex -1.46722 0.311868 4.5
      vertex -0.75 -1.29904 4.5
      vertex -1.21352 -0.881678 4.5
    endloop
  endfacet
  facet normal 0 0 -1
    outer loop
      vertex -1.46722 0.311868 4.5
      vertex -1.21352 -0.881678 4.5
      vertex -1.46722 -0.311868 4.5
    endloop
  endfacet
  facet normal 0.688914 0.517471 0.507564
    outer loop
      vertex 19.7989 -1.13803 3.5
      vertex 16.2534 3.58204 3.5
      vertex 18.9483 -2.49558 6.03859
    endloop
  endfacet
  facet normal 0.596744 0.485339 0.639017
    outer loop
      vertex 16.2534 3.58204 3.5
      vertex 13.7986 6.60031 3.5
      vertex 15.6444 1.06617 5.97955
    endloop
  endfacet
  facet normal 0.545951 0.51734 0.659012
    outer loop
      vertex 16.2534 3.58204 3.5
      vertex 15.6444 1.06617 5.97955
      vertex 18.9483 -2.49558 6.03859
    endloop
  endfacet
  facet normal 0.782303 0.452646 0.427917
    outer loop
      vertex 13.7986 6.60031 3.5
      vertex 12.761 6.6003 5.39691
      vertex 15.6444 1.06617 5.97955
    endloop
  endfacet
  facet normal 0.866025 -0.5 0
    outer loop
      vertex 12.8853 -5.9963 3.5
      vertex 12.8853 -5.9963 4.5
      vertex 12.5734 -6.53647 4.5
    endloop
  endfacet
  facet normal 0.866025 -0.5 0
    outer loop
      vertex 12.5734 -6.53647 3.5
      vertex 12.8853 -5.9963 3.5
      vertex 12.5734 -6.53647 4.5
    endloop
  endfacet
  facet normal 0.994522 -0.104528 0
    outer loop
      vertex 12.5734 -6.53647 3.5
      vertex 12.5734 -6.53647 4.5
      vertex 12.5082 -7.15679 4.5
    endloop
  endfacet
  facet normal 0.994522 -0.104528 0
    outer loop
      vertex 12.5082 -7.15679 3.5
      vertex 12.5734 -6.53647 3.5
      vertex 12.5082 -7.15679 4.5
    endloop
  endfacet
  facet normal 0.587785 -0.809017 0
    outer loop
      vertex 13.3899 -5.62968 3.5
      vertex 13.3899 -5.62968 4.5
      vertex 12.8853 -5.9963 4.5
    endloop
  endfacet
  facet normal 0.587785 -0.809017 0
    outer loop
      vertex 12.8853 -5.9963 3.5
      vertex 13.3899 -5.62968 3.5
      vertex 12.8853 -5.9963 4.5
    endloop
  endfacet
  facet normal 0.207912 -0.978148 0
    outer loop
      vertex 14 -5.5 3.5
      vertex 14 -5.5 4.5
      vertex 13.3899 -5.62968 4.5
    endloop
  endfacet
  facet normal 0.207912 -0.978148 0
    outer loop
      vertex 13.3899 -5.62968 3.5
      vertex 14 -5.5 3.5
      vertex 13.3899 -5.62968 4.5
    endloop
  endfacet
  facet normal -0.207912 -0.978148 0
    outer loop
      vertex 14.6101 -5.62968 3.5
      vertex 14.6101 -5.62968 4.5
      vertex 14 -5.5 4.5
    endloop
  endfacet
  facet normal -0.207912 -0.978148 0
    outer loop
      vertex 14 -5.5 3.5
      vertex 14.6101 -5.62968 3.5
      vertex 14 -5.5 4.5
    endloop
  endfacet
  facet normal -0.587785 -0.809017 0
    outer loop
      vertex 15.1147 -5.9963 3.5
      vertex 15.1147 -5.9963 4.5
      vertex 14.6101 -5.62968 4.5
    endloop
  endfacet
  facet normal -0.587785 -0.809017 0
    outer loop
      vertex 14.6101 -5.62968 3.5
      vertex 15.1147 -5.9963 3.5
      vertex 14.6101 -5.62968 4.5
    endloop
  endfacet
  facet normal -0.866025 -0.5 0
    outer loop
      vertex 15.4266 -6.53648 4.5
      vertex 15.1147 -5.9963 4.5
      vertex 15.4266 -6.53648 3.5
    endloop
  endfacet
  facet normal -0.866025 -0.5 0
    outer loop
      vertex 15.4266 -6.53648 3.5
      vertex 15.1147 -5.9963 4.5
      vertex 15.1147 -5.9963 3.5
    endloop
  endfacet
  facet normal -0.994522 -0.104528 0
    outer loop
      vertex 15.4918 -7.15679 4.5
      vertex 15.4266 -6.53648 4.5
      vertex 15.4918 -7.15679 3.5
    endloop
  endfacet
  facet normal -0.994522 -0.104528 0
    outer loop
      vertex 15.4918 -7.15679 3.5
      vertex 15.4266 -6.53648 4.5
      vertex 15.4266 -6.53648 3.5
    endloop
  endfacet
  facet normal -0.951056 0.309018 0
    outer loop
      vertex 15.4918 -7.15679 4.5
      vertex 15.4918 -7.15679 3.5
      vertex 15.299 -7.75 4.5
    endloop
  endfacet
  facet normal -0.951056 0.309018 0
    outer loop
      vertex 15.299 -7.75 4.5
      vertex 15.4918 -7.15679 3.5
      vertex 15.299 -7.75 3.5
    endloop
  endfacet
  facet normal -0.743145 0.669131 0
    outer loop
      vertex 15.299 -7.75 4.5
      vertex 15.299 -7.75 3.5
      vertex 14.8817 -8.21352 4.5
    endloop
  endfacet
  facet normal -0.743145 0.669131 0
    outer loop
      vertex 14.8817 -8.21352 4.5
      vertex 15.299 -7.75 3.5
      vertex 14.8817 -8.21352 3.5
    endloop
  endfacet
  facet normal -0.406737 0.913545 0
    outer loop
      vertex 14.8817 -8.21352 4.5
      vertex 14.8817 -8.21352 3.5
      vertex 14.3119 -8.46722 4.5
    endloop
  endfacet
  facet normal -0.406737 0.913545 0
    outer loop
      vertex 14.3119 -8.46722 4.5
      vertex 14.8817 -8.21352 3.5
      vertex 14.3119 -8.46722 3.5
    endloop
  endfacet
  facet normal 2.22045e-16 1 0
    outer loop
      vertex 14.3119 -8.46722 4.5
      vertex 14.3119 -8.46722 3.5
      vertex 13.6881 -8.46722 4.5
    endloop
  endfacet
  facet normal 2.22045e-16 1 0
    outer loop
      vertex 13.6881 -8.46722 4.5
      vertex 14.3119 -8.46722 3.5
      vertex 13.6881 -8.46722 3.5
    endloop
  endfacet
  facet normal 0.406737 0.913545 0
    outer loop
      vertex 13.6881 -8.46722 4.5
      vertex 13.6881 -8.46722 3.5
      vertex 13.1183 -8.21352 4.5
    endloop
  endfacet
  facet normal 0.406737 0.913545 0
    outer loop
      vertex 13.1183 -8.21352 4.5
      vertex 13.6881 -8.46722 3.5
      vertex 13.1183 -8.21352 3.5
    endloop
  endfacet
  facet normal 0.743145 0.669131 0
    outer loop
      vertex 12.701 -7.75 4.5
      vertex 13.1183 -8.21352 4.5
      vertex 13.1183 -8.21352 3.5
    endloop
  endfacet
  facet normal 0.743145 0.669131 0
    outer loop
      vertex 12.701 -7.75 3.5
      vertex 12.701 -7.75 4.5
      vertex 13.1183 -8.21352 3.5
    endloop
  endfacet
  facet normal 0.951056 0.309018 0
    outer loop
      vertex 12.5082 -7.15679 4.5
      vertex 12.701 -7.75 4.5
      vertex 12.701 -7.75 3.5
    endloop
  endfacet
  facet normal 0.951056 0.309018 0
    outer loop
      vertex 12.5082 -7.15679 3.5
      vertex 12.5082 -7.15679 4.5
      vertex 12.701 -7.75 3.5
    endloop
  endfacet
  facet normal 0 0 -1
    outer loop
      vertex 12.8853 -5.9963 4.5
      vertex 13.3899 -5.62968 4.5
      vertex 12.5734 -6.53647 4.5
    endloop
  endfacet
  facet normal 0 0 -1
    outer loop
      vertex 12.5734 -6.53647 4.5
      vertex 13.3899 -5.62968 4.5
      vertex 14 -5.5 4.5
    endloop
  endfacet
  facet normal 0 0 -1
    outer loop
      vertex 12.5734 -6.53647 4.5
      vertex 14 -5.5 4.5
      vertex 14.6101 -5.62968 4.5
    endloop
  endfacet
  facet normal 0 0 -1
    outer loop
      vertex 12.5734 -6.53647 4.5
      vertex 14.6101 -5.62968 4.5
      vertex 15.1147 -5.9963 4.5
    endloop
  endfacet
  facet normal 0 0 -1
    outer loop
      vertex 12.5734 -6.53647 4.5
      vertex 15.1147 -5.9963 4.5
      vertex 15.4266 -6.53648 4.5
    endloop
  endfacet
  facet normal 0 0 -1
    outer loop
      vertex 12.5734 -6.53647 4.5
      vertex 15.4266 -6.53648 4.5
      vertex 15.4918 -7.15679 4.5
    endloop
  endfacet
  facet normal 0 0 -1
    outer loop
      vertex 12.5734 -6.53647 4.5
      vertex 15.4918 -7.15679 4.5
      vertex 15.299 -7.75 4.5
    endloop
  endfacet
  facet normal 0 0 -1
    outer loop
      vertex 12.5734 -6.53647 4.5
      vertex 15.299 -7.75 4.5
      vertex 14.8817 -8.21352 4.5
    endloop
  endfacet
  facet normal 0 0 -1
    outer loop
      vertex 12.5734 -6.53647 4.5
      vertex 14.8817 -8.21352 4.5
      vertex 14.3119 -8.46722 4.5
    endloop
  endfacet
  facet normal 0 0 -1
    outer loop
      vertex 12.5734 -6.53647 4.5
      vertex 14.3119 -8.46722 4.5
      vertex 13.6881 -8.46722 4.5
    endloop
  endfacet
  facet normal 0 0 -1
    outer loop
      vertex 12.5734 -6.53647 4.5
      vertex 13.6881 -8.46722 4.5
      vertex 13.1183 -8.21352 4.5
    endloop
  endfacet
  facet normal 0 0 -1
    outer loop
      vertex 12.5734 -6.53647 4.5
      vertex 13.1183 -8.21352 4.5
      vertex 12.701 -7.75 4.5
    endloop
  endfacet
  facet normal 0 0 -1
    outer loop
      vertex 12.5734 -6.53647 4.5
      vertex 12.701 -7.75 4.5
      vertex 12.5082 -7.15679 4.5
    endloop
  endfacet
endsolid OpenSCAD_Model
