solid OpenSCAD_Model
  facet normal -0.907152 -0.052725 0.417487
    outer loop
      vertex -9.62701 -7.12178 5.23679
      vertex -10.9429 0.750592 3.37168
      vertex -10.5014 -6.84543 3.37168
    endloop
  endfacet
  facet normal 0 0 -1
    outer loop
      vertex -10.9429 0.750592 3.37168
      vertex -7.33852 7.58732 3.37168
      vertex -10.5014 -6.84543 3.37168
    endloop
  endfacet
  facet normal 0 0 -1
    outer loop
      vertex -10.5014 -6.84543 3.37168
      vertex -7.33852 7.58732 3.37168
      vertex -5.45377 8.64854 3.37168
    endloop
  endfacet
  facet normal 0 0 -1
    outer loop
      vertex -5.45377 8.64854 3.37168
      vertex -4.57162 13.6566 3.37168
      vertex -5.60192 0.750592 3.37168
    endloop
  endfacet
  facet normal 0 0 -1
    outer loop
      vertex -6.7506 0.750592 3.37168
      vertex -5.45377 8.64854 3.37168
      vertex -5.60192 0.750592 3.37168
    endloop
  endfacet
  facet normal 0 0 -1
    outer loop
      vertex -10.5014 -6.84543 3.37168
      vertex -5.45377 8.64854 3.37168
      vertex -6.7506 0.750592 3.37168
    endloop
  endfacet
  facet normal 0 0 -1
    outer loop
      vertex -10.5014 -6.84543 3.37168
      vertex -6.58696 -5.44915 3.37168
      vertex -6.00367 -11.0065 3.37168
    endloop
  endfacet
  facet normal 0 0 -1
    outer loop
      vertex -10.5014 -6.84543 3.37168
      vertex -6.00367 -11.0065 3.37168
      vertex -7.9314 -11.0065 3.37168
    endloop
  endfacet
  facet normal 0 0 -1
    outer loop
      vertex -6.58696 -5.44915 3.37168
      vertex -10.5014 -6.84543 3.37168
      vertex -6.7506 0.750592 3.37168
    endloop
  endfacet
  facet normal -0.873245 0.460385 -0.159653
    outer loop
      vertex -7.33852 7.58732 3.37168
      vertex -10.9429 0.750592 3.37168
      vertex -7.70471 7.55386 5.27813
    endloop
  endfacet
  facet normal -0.624652 0.0796319 0.776833
    outer loop
      vertex -7.70471 7.55386 5.27813
      vertex -10.9429 0.750592 3.37168
      vertex -9.62701 -7.12178 5.23679
    endloop
  endfacet
  facet normal -0.462977 0.0581517 0.88446
    outer loop
      vertex -7.70471 7.55386 5.27813
      vertex -9.62701 -7.12178 5.23679
      vertex -6.8094 0.343423 6.22086
    endloop
  endfacet
  facet normal -0.430891 0.0438161 0.90134
    outer loop
      vertex -6.8094 0.343423 6.22086
      vertex -9.62701 -7.12178 5.23679
      vertex -6.92136 -5.22244 6.43791
    endloop
  endfacet
  facet normal -0.469346 0.114936 0.875502
    outer loop
      vertex -6.92136 -5.22244 6.43791
      vertex -9.62701 -7.12178 5.23679
      vertex -7.14528 -9.44342 6.872
    endloop
  endfacet
  facet normal -0.69913 -0.713366 0.0482334
    outer loop
      vertex -7.14528 -9.44342 6.872
      vertex -9.62701 -7.12178 5.23679
      vertex -6.65683 -10.0196 5.42987
    endloop
  endfacet
  facet normal 0 0.0664801 0.997788
    outer loop
      vertex -6.65683 -10.0196 5.42987
      vertex -9.62701 -7.12178 5.23679
      vertex -8.58455 -10.0196 5.42987
    endloop
  endfacet
  facet normal -0.93011 -0.343292 -0.130557
    outer loop
      vertex -8.58455 -10.0196 5.42987
      vertex -9.62701 -7.12178 5.23679
      vertex -7.9314 -11.0065 3.37168
    endloop
  endfacet
  facet normal -0.810086 -0.500334 0.305658
    outer loop
      vertex -9.62701 -7.12178 5.23679
      vertex -10.5014 -6.84543 3.37168
      vertex -7.9314 -11.0065 3.37168
    endloop
  endfacet
  facet normal 0 -0.9017 0.432363
    outer loop
      vertex -6.65683 -10.0196 5.42987
      vertex -8.58455 -10.0196 5.42987
      vertex -7.9314 -11.0065 3.37168
    endloop
  endfacet
  facet normal 0 -0.9017 0.432363
    outer loop
      vertex -6.00367 -11.0065 3.37168
      vertex -6.65683 -10.0196 5.42987
      vertex -7.9314 -11.0065 3.37168
    endloop
  endfacet
  facet normal -0.846734 -0.531841 -0.0136897
    outer loop
      vertex -2.94306 -15.8678 2.92686
      vertex -6.65683 -10.0196 5.42987
      vertex -6.00367 -11.0065 3.37168
    endloop
  endfacet
  facet normal -0.162235 -0.0118571 -0.986681
    outer loop
      vertex -2.94306 -15.8678 2.92686
      vertex -6.00367 -11.0065 3.37168
      vertex -3.89227 -2.88025 2.92686
    endloop
  endfacet
  facet normal -0.14838 -0.0155735 -0.988808
    outer loop
      vertex -6.00367 -11.0065 3.37168
      vertex -6.58696 -5.44915 3.37168
      vertex -3.89227 -2.88025 2.92686
    endloop
  endfacet
  facet normal 0.993971 0.0262357 0.106462
    outer loop
      vertex -6.7506 0.750592 3.37168
      vertex -6.92136 -5.22244 6.43791
      vertex -6.58696 -5.44915 3.37168
    endloop
  endfacet
  facet normal -0.695323 0.707185 -0.12812
    outer loop
      vertex -6.58696 -5.44915 3.37168
      vertex -6.92136 -5.22244 6.43791
      vertex -3.89227 -2.88025 2.92686
    endloop
  endfacet
  facet normal 0.999652 -0.019412 0.0178566
    outer loop
      vertex -6.8094 0.343423 6.22086
      vertex -6.92136 -5.22244 6.43791
      vertex -6.7506 0.750592 3.37168
    endloop
  endfacet
  facet normal 0 -0.989943 -0.14147
    outer loop
      vertex -5.60192 0.750592 3.37168
      vertex -6.8094 0.343423 6.22086
      vertex -6.7506 0.750592 3.37168
    endloop
  endfacet
  facet normal 0.298061 -0.954494 -0.0100857
    outer loop
      vertex -5.46214 0.750592 7.50235
      vertex -6.8094 0.343423 6.22086
      vertex -5.60192 0.750592 3.37168
    endloop
  endfacet
  facet normal -0.595351 -0.803213 0.0201453
    outer loop
      vertex -5.46214 0.750592 7.50235
      vertex -5.60192 0.750592 3.37168
      vertex -3.22578 -0.903366 7.64834
    endloop
  endfacet
  facet normal -0.679106 -0.727754 0.0958637
    outer loop
      vertex -3.22578 -0.903366 7.64834
      vertex -5.60192 0.750592 3.37168
      vertex -3.89227 -0.903366 2.92686
    endloop
  endfacet
  facet normal -0.699126 -0.633514 -0.331486
    outer loop
      vertex -3.89227 -0.903366 2.92686
      vertex -5.60192 0.750592 3.37168
      vertex -2.50451 -0.90337 0
    endloop
  endfacet
  facet normal -0.770931 -0.31336 -0.5545
    outer loop
      vertex -2.50451 -0.90337 0
      vertex -5.60192 0.750592 3.37168
      vertex -4.8023 4.74969 0
    endloop
  endfacet
  facet normal -0.988482 0.120941 -0.0909778
    outer loop
      vertex -4.8023 4.74969 0
      vertex -5.60192 0.750592 3.37168
      vertex -3.71254 13.6566 0
    endloop
  endfacet
  facet normal -0.966153 0.0771286 -0.246169
    outer loop
      vertex -3.71254 13.6566 0
      vertex -5.60192 0.750592 3.37168
      vertex -4.57162 13.6566 3.37168
    endloop
  endfacet
  facet normal 0.0603092 0.35312 0.933632
    outer loop
      vertex -4.57162 13.6566 3.37168
      vertex -6.03672 8.63709 5.36481
      vertex -5.4577 4.96145 6.71761
    endloop
  endfacet
  facet normal -0.946612 0.166743 -0.275905
    outer loop
      vertex -5.45377 8.64854 3.37168
      vertex -6.03672 8.63709 5.36481
      vertex -4.57162 13.6566 3.37168
    endloop
  endfacet
  facet normal -0.946618 0.213874 -0.241191
    outer loop
      vertex -3.71254 13.6566 0
      vertex -4.57162 13.6566 3.37168
      vertex -2.56018 18.757 0
    endloop
  endfacet
  facet normal -0.94986 0.266668 -0.163263
    outer loop
      vertex -2.56018 18.757 0
      vertex -4.57162 13.6566 3.37168
      vertex -3.29816 18.1926 3.37168
    endloop
  endfacet
  facet normal -0.833313 0.233948 0.500857
    outer loop
      vertex -3.29816 18.1926 3.37168
      vertex -4.57162 13.6566 3.37168
      vertex -3.29816 9.03676 7.64834
    endloop
  endfacet
  facet normal -0.401014 0.560339 0.724713
    outer loop
      vertex -3.29816 9.03676 7.64834
      vertex -4.57162 13.6566 3.37168
      vertex -4.17686 7.24961 8.54393
    endloop
  endfacet
  facet normal -0.908067 0.227783 0.351467
    outer loop
      vertex -4.57162 13.6566 3.37168
      vertex -5.4577 4.96145 6.71761
      vertex -4.17686 7.24961 8.54393
    endloop
  endfacet
  facet normal -0.485994 0.863129 -0.137182
    outer loop
      vertex -5.45377 8.64854 3.37168
      vertex -7.33852 7.58732 3.37168
      vertex -6.03672 8.63709 5.36481
    endloop
  endfacet
  facet normal -0.53924 0.837449 -0.0888788
    outer loop
      vertex -7.33852 7.58732 3.37168
      vertex -7.70471 7.55386 5.27813
      vertex -6.03672 8.63709 5.36481
    endloop
  endfacet
  facet normal -0.124847 0.113371 0.985678
    outer loop
      vertex -6.03672 8.63709 5.36481
      vertex -7.70471 7.55386 5.27813
      vertex -6.8094 0.343423 6.22086
    endloop
  endfacet
  facet normal -0.719342 0.137304 0.680952
    outer loop
      vertex -6.03672 8.63709 5.36481
      vertex -6.8094 0.343423 6.22086
      vertex -5.4577 4.96145 6.71761
    endloop
  endfacet
  facet normal -0.703751 0.130876 0.698287
    outer loop
      vertex -5.4577 4.96145 6.71761
      vertex -6.8094 0.343423 6.22086
      vertex -5.46214 0.750592 7.50235
    endloop
  endfacet
  facet normal -0.551772 0.83035 0.0778889
    outer loop
      vertex -3.89227 -2.88025 2.92686
      vertex -6.92136 -5.22244 6.43791
      vertex -3.22578 -2.88025 7.64834
    endloop
  endfacet
  facet normal -0.35838 0.0849997 0.929698
    outer loop
      vertex -3.22578 -2.88025 7.64834
      vertex -6.92136 -5.22244 6.43791
      vertex -4.71938 -9.17764 7.64834
    endloop
  endfacet
  facet normal -0.31409 0.113597 0.942573
    outer loop
      vertex -6.92136 -5.22244 6.43791
      vertex -7.14528 -9.44342 6.872
      vertex -4.71938 -9.17764 7.64834
    endloop
  endfacet
  facet normal -0.251898 -0.34352 0.904733
    outer loop
      vertex -4.71938 -9.17764 7.64834
      vertex -7.14528 -9.44342 6.872
      vertex -3.93721 -14.2894 5.92523
    endloop
  endfacet
  facet normal -0.837953 -0.54156 -0.0674326
    outer loop
      vertex -3.93721 -14.2894 5.92523
      vertex -7.14528 -9.44342 6.872
      vertex -6.65683 -10.0196 5.42987
    endloop
  endfacet
  facet normal -0.843589 -0.536981 0.00298491
    outer loop
      vertex -3.93721 -14.2894 5.92523
      vertex -6.65683 -10.0196 5.42987
      vertex -2.94306 -15.8678 2.92686
    endloop
  endfacet
  facet normal -0.766636 -0.636937 0.081121
    outer loop
      vertex -2.44346 -15.8678 7.64834
      vertex -3.93721 -14.2894 5.92523
      vertex -2.94306 -15.8678 2.92686
    endloop
  endfacet
  facet normal -0.928889 0.357077 0.0982897
    outer loop
      vertex -2.94306 -15.8678 2.92686
      vertex -3.215 -17.8749 7.64834
      vertex -2.44346 -15.8678 7.64834
    endloop
  endfacet
  facet normal -0.961324 0.269029 0.058993
    outer loop
      vertex -2.94306 -15.8678 2.92686
      vertex -3.87919 -19.2129 2.92686
      vertex -3.215 -17.8749 7.64834
    endloop
  endfacet
  facet normal -0.913996 0.255784 -0.314938
    outer loop
      vertex -2.49622 -17.8749 0
      vertex -3.87919 -19.2129 2.92686
      vertex -2.94306 -15.8678 2.92686
    endloop
  endfacet
  facet normal -0.907689 0.268373 -0.322608
    outer loop
      vertex -2.49622 -17.8749 0
      vertex -2.94306 -15.8678 2.92686
      vertex -1.9028 -15.8678 0
    endloop
  endfacet
  facet normal -0.914862 -0.239374 -0.325158
    outer loop
      vertex -2.94306 -15.8678 2.92686
      vertex -3.6533 -9.17764 0
      vertex -1.9028 -15.8678 0
    endloop
  endfacet
  facet normal -0.994517 -0.0726852 0.0751882
    outer loop
      vertex -2.94306 -15.8678 2.92686
      vertex -3.89227 -2.88025 2.92686
      vertex -3.6533 -9.17764 0
    endloop
  endfacet
  facet normal -0.891546 0.162638 -0.422722
    outer loop
      vertex -3.6533 -9.17764 0
      vertex -3.89227 -2.88025 2.92686
      vertex -2.50451 -2.88025 0
    endloop
  endfacet
  facet normal -0.903577 0 -0.428426
    outer loop
      vertex -3.89227 -2.88025 2.92686
      vertex -3.89227 -0.903366 2.92686
      vertex -2.50451 -2.88025 0
    endloop
  endfacet
  facet normal -0.903577 0 -0.428426
    outer loop
      vertex -2.50451 -2.88025 0
      vertex -3.89227 -0.903366 2.92686
      vertex -2.50451 -0.90337 0
    endloop
  endfacet
  facet normal -0.990183 0 0.139776
    outer loop
      vertex -3.89227 -2.88025 2.92686
      vertex -3.22578 -2.88025 7.64834
      vertex -3.89227 -0.903366 2.92686
    endloop
  endfacet
  facet normal -0.990183 0 0.139776
    outer loop
      vertex -3.89227 -0.903366 2.92686
      vertex -3.22578 -2.88025 7.64834
      vertex -3.22578 -0.903366 7.64834
    endloop
  endfacet
  facet normal -0.865982 0.0924998 0.491446
    outer loop
      vertex -5.4577 4.96145 6.71761
      vertex -5.46214 0.750592 7.50235
      vertex -4.17686 7.24961 8.54393
    endloop
  endfacet
  facet normal -0.336743 -0.0837125 0.937868
    outer loop
      vertex -4.17686 7.24961 8.54393
      vertex -5.46214 0.750592 7.50235
      vertex -2.14728 5.85417 9.1481
    endloop
  endfacet
  facet normal -0.467968 0.0190391 0.88354
    outer loop
      vertex -2.14728 5.85417 9.1481
      vertex -5.46214 0.750592 7.50235
      vertex -2.42221 -0.903366 9.1481
    endloop
  endfacet
  facet normal -0.578346 -0.754647 0.309878
    outer loop
      vertex -2.42221 -0.903366 9.1481
      vertex -5.46214 0.750592 7.50235
      vertex -3.22578 -0.903366 7.64834
    endloop
  endfacet
  facet normal -0.881448 0 0.472281
    outer loop
      vertex -3.22578 -0.903366 7.64834
      vertex -3.22578 -2.88025 7.64834
      vertex -2.42221 -0.903366 9.1481
    endloop
  endfacet
  facet normal 0 0 -1
    outer loop
      vertex -4.8023 4.74969 0
      vertex -3.71254 13.6566 0
      vertex -2.50451 -0.90337 0
    endloop
  endfacet
  facet normal 0 0 -1
    outer loop
      vertex -2.50451 -0.90337 0
      vertex -3.71254 13.6566 0
      vertex -2.56018 18.757 0
    endloop
  endfacet
  facet normal 0 0 -1
    outer loop
      vertex -0.632173 15.6318 0
      vertex -2.56018 18.757 0
      vertex 2.56018 18.757 0
    endloop
  endfacet
  facet normal 0 0 -1
    outer loop
      vertex 1.68319 13.5211 0
      vertex 2.56018 18.757 0
      vertex 3.71254 13.6566 0
    endloop
  endfacet
  facet normal 0 0 -1
    outer loop
      vertex 0.16147 1.74253 0
      vertex 3.71254 13.6566 0
      vertex 4.8023 4.74969 0
    endloop
  endfacet
  facet normal 0 0 -1
    outer loop
      vertex 1.63183 -0.632173 0
      vertex 4.8023 4.74969 0
      vertex 2.50451 -0.90337 0
    endloop
  endfacet
  facet normal 0 0 -1
    outer loop
      vertex 0.780042 -1.56654 0
      vertex 2.50451 -0.90337 0
      vertex 2.50451 -2.88025 0
    endloop
  endfacet
  facet normal 0 0 -1
    outer loop
      vertex 2.50451 -2.88025 0
      vertex 3.6533 -9.17764 0
      vertex -2.50451 -0.90337 0
    endloop
  endfacet
  facet normal 0 0 -1
    outer loop
      vertex -2.50451 -0.90337 0
      vertex 3.6533 -9.17764 0
      vertex 1.9028 -15.8678 0
    endloop
  endfacet
  facet normal 0 0 -1
    outer loop
      vertex 1.39653 12.9454 0
      vertex -2.50451 -0.90337 0
      vertex 0.921256 12.5121 0
    endloop
  endfacet
  facet normal 0 0 -1
    outer loop
      vertex -2.50451 -2.88025 0
      vertex -1.9028 -15.8678 0
      vertex -3.6533 -9.17764 0
    endloop
  endfacet
  facet normal 0 0 -1
    outer loop
      vertex -1e-06 -19.2129 0
      vertex -2.49622 -17.8749 0
      vertex -1.9028 -15.8678 0
    endloop
  endfacet
  facet normal 0 0 -1
    outer loop
      vertex -2.50451 -2.88025 0
      vertex -1e-06 -19.2129 0
      vertex -1.9028 -15.8678 0
    endloop
  endfacet
  facet normal 0 0 -1
    outer loop
      vertex 2.49622 -17.8749 0
      vertex -1e-06 -19.2129 0
      vertex -2.50451 -2.88025 0
    endloop
  endfacet
  facet normal 0 0 -1
    outer loop
      vertex -2.50451 -0.90337 0
      vertex -2.56018 18.757 0
      vertex -1.74253 14.1615 0
    endloop
  endfacet
  facet normal 0 0 -1
    outer loop
      vertex -2.50451 -0.90337 0
      vertex -1.74253 14.1615 0
      vertex -1.68319 13.5211 0
    endloop
  endfacet
  facet normal 0 0 -1
    outer loop
      vertex -2.50451 -0.90337 0
      vertex -1.68319 13.5211 0
      vertex -1.39653 12.9454 0
    endloop
  endfacet
  facet normal 0 0 -1
    outer loop
      vertex -2.50451 -0.90337 0
      vertex -1.39653 12.9454 0
      vertex -0.921256 12.5121 0
    endloop
  endfacet
  facet normal 0 0 -1
    outer loop
      vertex -2.50451 -0.90337 0
      vertex -0.921256 12.5121 0
      vertex -0.321562 12.2798 0
    endloop
  endfacet
  facet normal 0 0 -1
    outer loop
      vertex -2.50451 -0.90337 0
      vertex -0.321562 12.2798 0
      vertex 0.321562 12.2798 0
    endloop
  endfacet
  facet normal 0 0 -1
    outer loop
      vertex -2.50451 -0.90337 0
      vertex 0.321562 12.2798 0
      vertex 0.921256 12.5121 0
    endloop
  endfacet
  facet normal 0 0 -1
    outer loop
      vertex 1.17897 15.2933 0
      vertex 2.56018 18.757 0
      vertex 1.56654 14.78 0
    endloop
  endfacet
  facet normal 0 0 -1
    outer loop
      vertex -2.50451 -0.90337 0
      vertex 1.39653 12.9454 0
      vertex 3.71254 13.6566 0
    endloop
  endfacet
  facet normal 0 0 -1
    outer loop
      vertex 1.74253 14.1615 0
      vertex 2.56018 18.757 0
      vertex 1.68319 13.5211 0
    endloop
  endfacet
  facet normal 0 0 -1
    outer loop
      vertex 1.39653 12.9454 0
      vertex 1.68319 13.5211 0
      vertex 3.71254 13.6566 0
    endloop
  endfacet
  facet normal 0 0 -1
    outer loop
      vertex 1.56654 14.78 0
      vertex 2.56018 18.757 0
      vertex 1.74253 14.1615 0
    endloop
  endfacet
  facet normal 0 0 -1
    outer loop
      vertex 0.632173 15.6318 0
      vertex 2.56018 18.757 0
      vertex 1.17897 15.2933 0
    endloop
  endfacet
  facet normal 0 0 -1
    outer loop
      vertex 3.88578e-16 15.75 0
      vertex 2.56018 18.757 0
      vertex 0.632173 15.6318 0
    endloop
  endfacet
  facet normal 0 0 -1
    outer loop
      vertex -0.632173 15.6318 0
      vertex 2.56018 18.757 0
      vertex 3.88578e-16 15.75 0
    endloop
  endfacet
  facet normal 0 0 -1
    outer loop
      vertex -1.17897 15.2933 0
      vertex -2.56018 18.757 0
      vertex -0.632173 15.6318 0
    endloop
  endfacet
  facet normal 0 0 -1
    outer loop
      vertex -1.7202 -0.321562 0
      vertex -2.50451 -0.90337 0
      vertex -1.7202 0.321562 0
    endloop
  endfacet
  facet normal 0 0 -1
    outer loop
      vertex -1.56654 14.78 0
      vertex -2.56018 18.757 0
      vertex -1.17897 15.2933 0
    endloop
  endfacet
  facet normal 0 0 -1
    outer loop
      vertex -1.74253 14.1615 0
      vertex -2.56018 18.757 0
      vertex -1.56654 14.78 0
    endloop
  endfacet
  facet normal 0 0 -1
    outer loop
      vertex -1.48788 -0.921256 0
      vertex -2.50451 -0.90337 0
      vertex -1.7202 -0.321562 0
    endloop
  endfacet
  facet normal 0 0 -1
    outer loop
      vertex 0.16147 -1.74253 0
      vertex 2.50451 -2.88025 0
      vertex -0.47891 -1.68319 0
    endloop
  endfacet
  facet normal 0 0 -1
    outer loop
      vertex -2.50451 -0.90337 0
      vertex -1.48788 -0.921256 0
      vertex -1.05461 -1.39653 0
    endloop
  endfacet
  facet normal 0 0 -1
    outer loop
      vertex -2.50451 -0.90337 0
      vertex -1.05461 -1.39653 0
      vertex -0.47891 -1.68319 0
    endloop
  endfacet
  facet normal 0 0 -1
    outer loop
      vertex -2.50451 -0.90337 0
      vertex -0.47891 -1.68319 0
      vertex 2.50451 -2.88025 0
    endloop
  endfacet
  facet normal 0 0 -1
    outer loop
      vertex 0.780042 -1.56654 0
      vertex 2.50451 -2.88025 0
      vertex 0.16147 -1.74253 0
    endloop
  endfacet
  facet normal 0 0 -1
    outer loop
      vertex 1.29327 -1.17897 0
      vertex 2.50451 -0.90337 0
      vertex 0.780042 -1.56654 0
    endloop
  endfacet
  facet normal 0 0 -1
    outer loop
      vertex 1.63183 -0.632173 0
      vertex 2.50451 -0.90337 0
      vertex 1.29327 -1.17897 0
    endloop
  endfacet
  facet normal 0 0 -1
    outer loop
      vertex 1.75 0 0
      vertex 4.8023 4.74969 0
      vertex 1.63183 -0.632173 0
    endloop
  endfacet
  facet normal 0 0 -1
    outer loop
      vertex 0.16147 1.74253 0
      vertex 4.8023 4.74969 0
      vertex 0.780042 1.56654 0
    endloop
  endfacet
  facet normal 0 0 -1
    outer loop
      vertex 1.63183 0.632173 0
      vertex 4.8023 4.74969 0
      vertex 1.75 0 0
    endloop
  endfacet
  facet normal 0 0 -1
    outer loop
      vertex 1.29327 1.17897 0
      vertex 4.8023 4.74969 0
      vertex 1.63183 0.632173 0
    endloop
  endfacet
  facet normal 0 0 -1
    outer loop
      vertex 0.780042 1.56654 0
      vertex 4.8023 4.74969 0
      vertex 1.29327 1.17897 0
    endloop
  endfacet
  facet normal 0 0 -1
    outer loop
      vertex -0.47891 1.68319 0
      vertex 3.71254 13.6566 0
      vertex 0.16147 1.74253 0
    endloop
  endfacet
  facet normal 0 0 -1
    outer loop
      vertex -1.48788 0.921256 0
      vertex 3.71254 13.6566 0
      vertex -1.05461 1.39653 0
    endloop
  endfacet
  facet normal 0 0 -1
    outer loop
      vertex -1.05461 1.39653 0
      vertex 3.71254 13.6566 0
      vertex -0.47891 1.68319 0
    endloop
  endfacet
  facet normal 0 0 -1
    outer loop
      vertex -2.50451 -0.90337 0
      vertex 3.71254 13.6566 0
      vertex -1.48788 0.921256 0
    endloop
  endfacet
  facet normal 0 0 -1
    outer loop
      vertex -2.50451 -0.90337 0
      vertex -1.48788 0.921256 0
      vertex -1.7202 0.321562 0
    endloop
  endfacet
  facet normal 0 0 -1
    outer loop
      vertex 1.9028 -15.8678 0
      vertex 2.49622 -17.8749 0
      vertex -2.50451 -2.88025 0
    endloop
  endfacet
  facet normal 0 0 -1
    outer loop
      vertex -2.50451 -0.90337 0
      vertex 1.9028 -15.8678 0
      vertex -2.50451 -2.88025 0
    endloop
  endfacet
  facet normal 0 0.950555 -0.310556
    outer loop
      vertex 2.56018 18.757 0
      vertex -2.56018 18.757 0
      vertex 0 19.8586 3.37168
    endloop
  endfacet
  facet normal -0.450282 0.891448 0.0506619
    outer loop
      vertex -2.56018 18.757 0
      vertex -3.29816 18.1926 3.37168
      vertex 0 19.8586 3.37168
    endloop
  endfacet
  facet normal -0.0707958 0.140158 0.987595
    outer loop
      vertex 0 19.8586 3.37168
      vertex -3.29816 18.1926 3.37168
      vertex -1e-06 9.89407 4.78583
    endloop
  endfacet
  facet normal 0.560242 0.350553 0.750494
    outer loop
      vertex -3.29816 18.1926 3.37168
      vertex -3.29816 9.03676 7.64834
      vertex -1e-06 9.89407 4.78583
    endloop
  endfacet
  facet normal 0.0315127 0.435367 0.899701
    outer loop
      vertex -3.29816 9.03676 7.64834
      vertex -4.17686 7.24961 8.54393
      vertex -2.14728 5.85417 9.1481
    endloop
  endfacet
  facet normal 0.294788 0.767338 0.569466
    outer loop
      vertex -1e-06 9.89407 4.78583
      vertex -3.29816 9.03676 7.64834
      vertex -1e-06 7.76971 7.64834
    endloop
  endfacet
  facet normal 0.181371 0.472112 0.862679
    outer loop
      vertex -1e-06 7.76971 7.64834
      vertex -3.29816 9.03676 7.64834
      vertex -2.14728 5.85417 9.1481
    endloop
  endfacet
  facet normal -0.934825 0.12899 0.330854
    outer loop
      vertex -3.22578 -2.88025 7.64834
      vertex -3.53164 -8.94376 9.1481
      vertex -2.42221 -0.903366 9.1481
    endloop
  endfacet
  facet normal -0.784169 0.185987 0.59202
    outer loop
      vertex -3.22578 -2.88025 7.64834
      vertex -4.71938 -9.17764 7.64834
      vertex -3.53164 -8.94376 9.1481
    endloop
  endfacet
  facet normal 0 -0.988058 0.154083
    outer loop
      vertex -3.53164 -8.94376 9.1481
      vertex -4.71938 -9.17764 7.64834
      vertex -1e-06 -9.17764 7.64834
    endloop
  endfacet
  facet normal 0 -0.988058 0.154083
    outer loop
      vertex 3.53164 -8.94376 9.1481
      vertex -3.53164 -8.94376 9.1481
      vertex 4.71938 -9.17764 7.64834
    endloop
  endfacet
  facet normal 0 -0.988058 0.154083
    outer loop
      vertex 4.71938 -9.17764 7.64834
      vertex -3.53164 -8.94376 9.1481
      vertex -1e-06 -9.17764 7.64834
    endloop
  endfacet
  facet normal 0 0.0829572 0.996553
    outer loop
      vertex -1e-06 -9.17764 7.64834
      vertex -4.71938 -9.17764 7.64834
      vertex -1.84148 -12.5227 7.9268
    endloop
  endfacet
  facet normal -0.157802 -0.0536822 0.986011
    outer loop
      vertex -1.84148 -12.5227 7.9268
      vertex -4.71938 -9.17764 7.64834
      vertex -2.44346 -15.8678 7.64834
    endloop
  endfacet
  facet normal -0.83799 -0.285073 0.465302
    outer loop
      vertex -2.44346 -15.8678 7.64834
      vertex -4.71938 -9.17764 7.64834
      vertex -3.93721 -14.2894 5.92523
    endloop
  endfacet
  facet normal 0 -0.0829574 0.996553
    outer loop
      vertex -1.84148 -12.5227 7.9268
      vertex -2.44346 -15.8678 7.64834
      vertex -1e-06 -15.8678 7.64834
    endloop
  endfacet
  facet normal 0 0.160659 0.98701
    outer loop
      vertex -1e-06 -15.8678 7.64834
      vertex -2.44346 -15.8678 7.64834
      vertex -1.15129 -16.9829 7.82984
    endloop
  endfacet
  facet normal -0.343797 -0.25113 0.904841
    outer loop
      vertex -1.15129 -16.9829 7.82984
      vertex -2.44346 -15.8678 7.64834
      vertex -1e-06 -19.2129 7.64834
    endloop
  endfacet
  facet normal 0 0 1
    outer loop
      vertex -2.44346 -15.8678 7.64834
      vertex -3.215 -17.8749 7.64834
      vertex -1e-06 -19.2129 7.64834
    endloop
  endfacet
  facet normal -0.366413 -0.880405 0.301046
    outer loop
      vertex -3.215 -17.8749 7.64834
      vertex -3.87919 -19.2129 2.92686
      vertex -1e-06 -19.2129 7.64834
    endloop
  endfacet
  facet normal 0 -1 0
    outer loop
      vertex -1e-06 -19.2129 7.64834
      vertex -3.87919 -19.2129 2.92686
      vertex -1e-06 -19.2129 0
    endloop
  endfacet
  facet normal 0 -1 0
    outer loop
      vertex 3.87919 -19.2129 2.92686
      vertex -1e-06 -19.2129 7.64834
      vertex -1e-06 -19.2129 0
    endloop
  endfacet
  facet normal -0.400416 -0.747009 -0.530702
    outer loop
      vertex -1e-06 -19.2129 0
      vertex -3.87919 -19.2129 2.92686
      vertex -2.49622 -17.8749 0
    endloop
  endfacet
  facet normal 0 0.61647 0.787378
    outer loop
      vertex -1e-06 7.76971 7.64834
      vertex -2.14728 5.85417 9.1481
      vertex 2.14728 5.85417 9.1481
    endloop
  endfacet
  facet normal 0 0 1
    outer loop
      vertex -2.42221 -0.903366 9.1481
      vertex -3.53164 -8.94376 9.1481
      vertex 3.53164 -8.94376 9.1481
    endloop
  endfacet
  facet normal 0 0 1
    outer loop
      vertex 2.14728 5.85417 9.1481
      vertex -2.42221 -0.903366 9.1481
      vertex 2.42221 -0.903366 9.1481
    endloop
  endfacet
  facet normal 0 0 1
    outer loop
      vertex 2.42221 -0.903366 9.1481
      vertex -2.42221 -0.903366 9.1481
      vertex 3.53164 -8.94376 9.1481
    endloop
  endfacet
  facet normal 0 0 1
    outer loop
      vertex -2.14728 5.85417 9.1481
      vertex -2.42221 -0.903366 9.1481
      vertex 2.14728 5.85417 9.1481
    endloop
  endfacet
  facet normal 0.400416 -0.747009 -0.530702
    outer loop
      vertex 3.87919 -19.2129 2.92686
      vertex -1e-06 -19.2129 0
      vertex 2.49622 -17.8749 0
    endloop
  endfacet
  facet normal 0.907689 0.268373 -0.322608
    outer loop
      vertex 2.49622 -17.8749 0
      vertex 1.9028 -15.8678 0
      vertex 2.94306 -15.8678 2.92686
    endloop
  endfacet
  facet normal 0.913996 0.255784 -0.314938
    outer loop
      vertex 3.87919 -19.2129 2.92686
      vertex 2.49622 -17.8749 0
      vertex 2.94306 -15.8678 2.92686
    endloop
  endfacet
  facet normal 0.914862 -0.239374 -0.325158
    outer loop
      vertex 2.94306 -15.8678 2.92686
      vertex 1.9028 -15.8678 0
      vertex 3.6533 -9.17764 0
    endloop
  endfacet
  facet normal 0.994517 -0.0726852 0.0751882
    outer loop
      vertex 3.89227 -2.88025 2.92686
      vertex 2.94306 -15.8678 2.92686
      vertex 3.6533 -9.17764 0
    endloop
  endfacet
  facet normal 0.891546 0.162638 -0.422722
    outer loop
      vertex 3.6533 -9.17764 0
      vertex 2.50451 -2.88025 0
      vertex 3.89227 -2.88025 2.92686
    endloop
  endfacet
  facet normal 0.903577 0 -0.428426
    outer loop
      vertex 3.89227 -2.88025 2.92686
      vertex 2.50451 -2.88025 0
      vertex 2.50451 -0.90337 0
    endloop
  endfacet
  facet normal 0.903577 0 -0.428426
    outer loop
      vertex 3.89227 -0.903366 2.92686
      vertex 3.89227 -2.88025 2.92686
      vertex 2.50451 -0.90337 0
    endloop
  endfacet
  facet normal 0.699126 -0.633514 -0.331486
    outer loop
      vertex 3.89227 -0.903366 2.92686
      vertex 2.50451 -0.90337 0
      vertex 5.60192 0.750592 3.37168
    endloop
  endfacet
  facet normal 0.770931 -0.31336 -0.5545
    outer loop
      vertex 5.60192 0.750592 3.37168
      vertex 2.50451 -0.90337 0
      vertex 4.8023 4.74969 0
    endloop
  endfacet
  facet normal 0.988482 0.120941 -0.0909778
    outer loop
      vertex 4.8023 4.74969 0
      vertex 3.71254 13.6566 0
      vertex 5.60192 0.750592 3.37168
    endloop
  endfacet
  facet normal 0.966153 0.0771286 -0.246169
    outer loop
      vertex 5.60192 0.750592 3.37168
      vertex 3.71254 13.6566 0
      vertex 4.57162 13.6566 3.37168
    endloop
  endfacet
  facet normal 0.946618 0.213874 -0.241191
    outer loop
      vertex 3.71254 13.6566 0
      vertex 2.56018 18.757 0
      vertex 4.57162 13.6566 3.37168
    endloop
  endfacet
  facet normal 0.94986 0.266668 -0.163263
    outer loop
      vertex 4.57162 13.6566 3.37168
      vertex 2.56018 18.757 0
      vertex 3.29816 18.1926 3.37168
    endloop
  endfacet
  facet normal 0.450282 0.891448 0.0506619
    outer loop
      vertex 2.56018 18.757 0
      vertex 0 19.8586 3.37168
      vertex 3.29816 18.1926 3.37168
    endloop
  endfacet
  facet normal 0.961826 -0.273663 0
    outer loop
      vertex -1.56654 14.78 0
      vertex -1.56654 14.78 3.125
      vertex -1.74253 14.1615 3.125
    endloop
  endfacet
  facet normal 0.961826 -0.273663 0
    outer loop
      vertex -1.74253 14.1615 0
      vertex -1.56654 14.78 0
      vertex -1.74253 14.1615 3.125
    endloop
  endfacet
  facet normal 0.995734 0.0922684 0
    outer loop
      vertex -1.74253 14.1615 3.125
      vertex -1.68319 13.5211 3.125
      vertex -1.68319 13.5211 0
    endloop
  endfacet
  facet normal 0.995734 0.0922684 0
    outer loop
      vertex -1.74253 14.1615 0
      vertex -1.74253 14.1615 3.125
      vertex -1.68319 13.5211 0
    endloop
  endfacet
  facet normal 0.798017 -0.602635 0
    outer loop
      vertex -1.17897 15.2933 0
      vertex -1.17897 15.2933 3.125
      vertex -1.56654 14.78 3.125
    endloop
  endfacet
  facet normal 0.798017 -0.602635 0
    outer loop
      vertex -1.56654 14.78 0
      vertex -1.17897 15.2933 0
      vertex -1.56654 14.78 3.125
    endloop
  endfacet
  facet normal 0.526432 -0.850217 0
    outer loop
      vertex -0.632173 15.6318 0
      vertex -0.632173 15.6318 3.125
      vertex -1.17897 15.2933 3.125
    endloop
  endfacet
  facet normal 0.526432 -0.850217 0
    outer loop
      vertex -1.17897 15.2933 0
      vertex -0.632173 15.6318 0
      vertex -1.17897 15.2933 3.125
    endloop
  endfacet
  facet normal 0.18375 -0.982973 0
    outer loop
      vertex 3.88578e-16 15.75 0
      vertex 3.88578e-16 15.75 3.125
      vertex -0.632173 15.6318 3.125
    endloop
  endfacet
  facet normal 0.18375 -0.982973 0
    outer loop
      vertex -0.632173 15.6318 0
      vertex 3.88578e-16 15.75 0
      vertex -0.632173 15.6318 3.125
    endloop
  endfacet
  facet normal -0.18375 -0.982973 0
    outer loop
      vertex 0.632173 15.6318 0
      vertex 0.632173 15.6318 3.125
      vertex 3.88578e-16 15.75 3.125
    endloop
  endfacet
  facet normal -0.18375 -0.982973 0
    outer loop
      vertex 3.88578e-16 15.75 0
      vertex 0.632173 15.6318 0
      vertex 3.88578e-16 15.75 3.125
    endloop
  endfacet
  facet normal -0.526432 -0.850217 0
    outer loop
      vertex 1.17897 15.2933 0
      vertex 1.17897 15.2933 3.125
      vertex 0.632173 15.6318 3.125
    endloop
  endfacet
  facet normal -0.526432 -0.850217 0
    outer loop
      vertex 0.632173 15.6318 0
      vertex 1.17897 15.2933 0
      vertex 0.632173 15.6318 3.125
    endloop
  endfacet
  facet normal -0.798017 -0.602635 0
    outer loop
      vertex 1.56654 14.78 3.125
      vertex 1.17897 15.2933 3.125
      vertex 1.56654 14.78 0
    endloop
  endfacet
  facet normal -0.798017 -0.602635 0
    outer loop
      vertex 1.56654 14.78 0
      vertex 1.17897 15.2933 3.125
      vertex 1.17897 15.2933 0
    endloop
  endfacet
  facet normal -0.961826 -0.273663 0
    outer loop
      vertex 1.74253 14.1615 3.125
      vertex 1.56654 14.78 3.125
      vertex 1.74253 14.1615 0
    endloop
  endfacet
  facet normal -0.961826 -0.273663 0
    outer loop
      vertex 1.74253 14.1615 0
      vertex 1.56654 14.78 3.125
      vertex 1.56654 14.78 0
    endloop
  endfacet
  facet normal -0.995734 0.0922684 0
    outer loop
      vertex 1.74253 14.1615 3.125
      vertex 1.74253 14.1615 0
      vertex 1.68319 13.5211 3.125
    endloop
  endfacet
  facet normal -0.995734 0.0922684 0
    outer loop
      vertex 1.68319 13.5211 3.125
      vertex 1.74253 14.1615 0
      vertex 1.68319 13.5211 0
    endloop
  endfacet
  facet normal -0.895163 0.445738 0
    outer loop
      vertex 1.68319 13.5211 3.125
      vertex 1.68319 13.5211 0
      vertex 1.39653 12.9454 3.125
    endloop
  endfacet
  facet normal -0.895163 0.445738 0
    outer loop
      vertex 1.39653 12.9454 3.125
      vertex 1.68319 13.5211 0
      vertex 1.39653 12.9454 0
    endloop
  endfacet
  facet normal -0.673695 0.739009 0
    outer loop
      vertex 1.39653 12.9454 3.125
      vertex 1.39653 12.9454 0
      vertex 0.921256 12.5121 3.125
    endloop
  endfacet
  facet normal -0.673695 0.739009 0
    outer loop
      vertex 0.921256 12.5121 3.125
      vertex 1.39653 12.9454 0
      vertex 0.921256 12.5121 0
    endloop
  endfacet
  facet normal -0.361242 0.932472 0
    outer loop
      vertex 0.921256 12.5121 3.125
      vertex 0.921256 12.5121 0
      vertex 0.321562 12.2798 3.125
    endloop
  endfacet
  facet normal -0.361242 0.932472 0
    outer loop
      vertex 0.321562 12.2798 3.125
      vertex 0.921256 12.5121 0
      vertex 0.321562 12.2798 0
    endloop
  endfacet
  facet normal 2.22045e-16 1 0
    outer loop
      vertex 0.321562 12.2798 3.125
      vertex 0.321562 12.2798 0
      vertex -0.321562 12.2798 3.125
    endloop
  endfacet
  facet normal 2.22045e-16 1 0
    outer loop
      vertex -0.321562 12.2798 3.125
      vertex 0.321562 12.2798 0
      vertex -0.321562 12.2798 0
    endloop
  endfacet
  facet normal 0.361242 0.932472 0
    outer loop
      vertex -0.321562 12.2798 3.125
      vertex -0.321562 12.2798 0
      vertex -0.921256 12.5121 3.125
    endloop
  endfacet
  facet normal 0.361242 0.932472 0
    outer loop
      vertex -0.921256 12.5121 3.125
      vertex -0.321562 12.2798 0
      vertex -0.921256 12.5121 0
    endloop
  endfacet
  facet normal 0.673695 0.739009 0
    outer loop
      vertex -0.921256 12.5121 3.125
      vertex -0.921256 12.5121 0
      vertex -1.39653 12.9454 3.125
    endloop
  endfacet
  facet normal 0.673695 0.739009 0
    outer loop
      vertex -1.39653 12.9454 3.125
      vertex -0.921256 12.5121 0
      vertex -1.39653 12.9454 0
    endloop
  endfacet
  facet normal 0.895163 0.445738 0
    outer loop
      vertex -1.68319 13.5211 3.125
      vertex -1.39653 12.9454 3.125
      vertex -1.39653 12.9454 0
    endloop
  endfacet
  facet normal 0.895163 0.445738 0
    outer loop
      vertex -1.68319 13.5211 0
      vertex -1.68319 13.5211 3.125
      vertex -1.39653 12.9454 0
    endloop
  endfacet
  facet normal 0.932472 -0.361242 0
    outer loop
      vertex -1.48788 0.921256 0
      vertex -1.48788 0.921256 7.025
      vertex -1.7202 0.321562 7.025
    endloop
  endfacet
  facet normal 0.932472 -0.361242 0
    outer loop
      vertex -1.7202 0.321562 0
      vertex -1.48788 0.921256 0
      vertex -1.7202 0.321562 7.025
    endloop
  endfacet
  facet normal 1 0 0
    outer loop
      vertex -1.7202 0.321562 0
      vertex -1.7202 0.321562 7.025
      vertex -1.7202 -0.321562 7.025
    endloop
  endfacet
  facet normal 1 0 0
    outer loop
      vertex -1.7202 -0.321562 0
      vertex -1.7202 0.321562 0
      vertex -1.7202 -0.321562 7.025
    endloop
  endfacet
  facet normal 0.739009 -0.673695 0
    outer loop
      vertex -1.05461 1.39653 0
      vertex -1.05461 1.39653 7.025
      vertex -1.48788 0.921256 7.025
    endloop
  endfacet
  facet normal 0.739009 -0.673695 0
    outer loop
      vertex -1.48788 0.921256 0
      vertex -1.05461 1.39653 0
      vertex -1.48788 0.921256 7.025
    endloop
  endfacet
  facet normal 0.445738 -0.895163 0
    outer loop
      vertex -0.47891 1.68319 0
      vertex -0.47891 1.68319 7.025
      vertex -1.05461 1.39653 7.025
    endloop
  endfacet
  facet normal 0.445738 -0.895163 0
    outer loop
      vertex -1.05461 1.39653 0
      vertex -0.47891 1.68319 0
      vertex -1.05461 1.39653 7.025
    endloop
  endfacet
  facet normal 0.0922684 -0.995734 0
    outer loop
      vertex 0.16147 1.74253 0
      vertex 0.16147 1.74253 7.025
      vertex -0.47891 1.68319 7.025
    endloop
  endfacet
  facet normal 0.0922684 -0.995734 0
    outer loop
      vertex -0.47891 1.68319 0
      vertex 0.16147 1.74253 0
      vertex -0.47891 1.68319 7.025
    endloop
  endfacet
  facet normal -0.273663 -0.961826 0
    outer loop
      vertex 0.780042 1.56654 0
      vertex 0.780042 1.56654 7.025
      vertex 0.16147 1.74253 7.025
    endloop
  endfacet
  facet normal -0.273663 -0.961826 0
    outer loop
      vertex 0.16147 1.74253 0
      vertex 0.780042 1.56654 0
      vertex 0.16147 1.74253 7.025
    endloop
  endfacet
  facet normal -0.602635 -0.798017 0
    outer loop
      vertex 1.29327 1.17897 0
      vertex 1.29327 1.17897 7.025
      vertex 0.780042 1.56654 7.025
    endloop
  endfacet
  facet normal -0.602635 -0.798017 0
    outer loop
      vertex 0.780042 1.56654 0
      vertex 1.29327 1.17897 0
      vertex 0.780042 1.56654 7.025
    endloop
  endfacet
  facet normal -0.850217 -0.526432 0
    outer loop
      vertex 1.63183 0.632173 7.025
      vertex 1.29327 1.17897 7.025
      vertex 1.63183 0.632173 0
    endloop
  endfacet
  facet normal -0.850217 -0.526432 0
    outer loop
      vertex 1.63183 0.632173 0
      vertex 1.29327 1.17897 7.025
      vertex 1.29327 1.17897 0
    endloop
  endfacet
  facet normal -0.982973 -0.18375 0
    outer loop
      vertex 1.75 0 7.025
      vertex 1.63183 0.632173 7.025
      vertex 1.75 0 0
    endloop
  endfacet
  facet normal -0.982973 -0.18375 0
    outer loop
      vertex 1.75 0 0
      vertex 1.63183 0.632173 7.025
      vertex 1.63183 0.632173 0
    endloop
  endfacet
  facet normal -0.982973 0.18375 0
    outer loop
      vertex 1.75 0 7.025
      vertex 1.75 0 0
      vertex 1.63183 -0.632173 7.025
    endloop
  endfacet
  facet normal -0.982973 0.18375 0
    outer loop
      vertex 1.63183 -0.632173 7.025
      vertex 1.75 0 0
      vertex 1.63183 -0.632173 0
    endloop
  endfacet
  facet normal -0.850217 0.526432 0
    outer loop
      vertex 1.63183 -0.632173 7.025
      vertex 1.63183 -0.632173 0
      vertex 1.29327 -1.17897 7.025
    endloop
  endfacet
  facet normal -0.850217 0.526432 0
    outer loop
      vertex 1.29327 -1.17897 7.025
      vertex 1.63183 -0.632173 0
      vertex 1.29327 -1.17897 0
    endloop
  endfacet
  facet normal -0.602635 0.798017 0
    outer loop
      vertex 1.29327 -1.17897 7.025
      vertex 1.29327 -1.17897 0
      vertex 0.780042 -1.56654 7.025
    endloop
  endfacet
  facet normal -0.602635 0.798017 0
    outer loop
      vertex 0.780042 -1.56654 7.025
      vertex 1.29327 -1.17897 0
      vertex 0.780042 -1.56654 0
    endloop
  endfacet
  facet normal -0.273663 0.961826 0
    outer loop
      vertex 0.780042 -1.56654 7.025
      vertex 0.780042 -1.56654 0
      vertex 0.16147 -1.74253 7.025
    endloop
  endfacet
  facet normal -0.273663 0.961826 0
    outer loop
      vertex 0.16147 -1.74253 7.025
      vertex 0.780042 -1.56654 0
      vertex 0.16147 -1.74253 0
    endloop
  endfacet
  facet normal 0.0922684 0.995734 0
    outer loop
      vertex 0.16147 -1.74253 7.025
      vertex 0.16147 -1.74253 0
      vertex -0.47891 -1.68319 7.025
    endloop
  endfacet
  facet normal 0.0922684 0.995734 0
    outer loop
      vertex -0.47891 -1.68319 7.025
      vertex 0.16147 -1.74253 0
      vertex -0.47891 -1.68319 0
    endloop
  endfacet
  facet normal 0.445738 0.895163 0
    outer loop
      vertex -0.47891 -1.68319 7.025
      vertex -0.47891 -1.68319 0
      vertex -1.05461 -1.39653 7.025
    endloop
  endfacet
  facet normal 0.445738 0.895163 0
    outer loop
      vertex -1.05461 -1.39653 7.025
      vertex -0.47891 -1.68319 0
      vertex -1.05461 -1.39653 0
    endloop
  endfacet
  facet normal 0.739009 0.673695 0
    outer loop
      vertex -1.48788 -0.921256 7.025
      vertex -1.05461 -1.39653 7.025
      vertex -1.05461 -1.39653 0
    endloop
  endfacet
  facet normal 0.739009 0.673695 0
    outer loop
      vertex -1.48788 -0.921256 0
      vertex -1.48788 -0.921256 7.025
      vertex -1.05461 -1.39653 0
    endloop
  endfacet
  facet normal 0.932472 0.361242 0
    outer loop
      vertex -1.7202 -0.321562 7.025
      vertex -1.48788 -0.921256 7.025
      vertex -1.48788 -0.921256 0
    endloop
  endfacet
  facet normal 0.932472 0.361242 0
    outer loop
      vertex -1.7202 -0.321562 0
      vertex -1.7202 -0.321562 7.025
      vertex -1.48788 -0.921256 0
    endloop
  endfacet
  facet normal 0.0707957 0.140158 0.987595
    outer loop
      vertex 0 19.8586 3.37168
      vertex -1e-06 9.89407 4.78583
      vertex 3.29816 18.1926 3.37168
    endloop
  endfacet
  facet normal -0.560242 0.350553 0.750494
    outer loop
      vertex 3.29816 18.1926 3.37168
      vertex -1e-06 9.89407 4.78583
      vertex 3.29816 9.03676 7.64834
    endloop
  endfacet
  facet normal -0.294788 0.767338 0.569466
    outer loop
      vertex -1e-06 9.89407 4.78583
      vertex -1e-06 7.76971 7.64834
      vertex 3.29816 9.03676 7.64834
    endloop
  endfacet
  facet normal -0.181371 0.472112 0.862679
    outer loop
      vertex 3.29816 9.03676 7.64834
      vertex -1e-06 7.76971 7.64834
      vertex 2.14728 5.85417 9.1481
    endloop
  endfacet
  facet normal 0.934825 0.12899 0.330854
    outer loop
      vertex 3.22578 -2.88025 7.64834
      vertex 2.42221 -0.903366 9.1481
      vertex 3.53164 -8.94376 9.1481
    endloop
  endfacet
  facet normal 0.784169 0.185987 0.59202
    outer loop
      vertex 4.71938 -9.17764 7.64834
      vertex 3.22578 -2.88025 7.64834
      vertex 3.53164 -8.94376 9.1481
    endloop
  endfacet
  facet normal 0.31409 0.113597 0.942573
    outer loop
      vertex 6.92136 -5.22244 6.43791
      vertex 4.71938 -9.17764 7.64834
      vertex 7.14528 -9.44342 6.872
    endloop
  endfacet
  facet normal 0.251898 -0.34352 0.904733
    outer loop
      vertex 4.71938 -9.17764 7.64834
      vertex 3.93721 -14.2894 5.92523
      vertex 7.14528 -9.44342 6.872
    endloop
  endfacet
  facet normal 0.83799 -0.285073 0.465302
    outer loop
      vertex 4.71938 -9.17764 7.64834
      vertex 2.44346 -15.8678 7.64834
      vertex 3.93721 -14.2894 5.92523
    endloop
  endfacet
  facet normal 0.157802 -0.0536822 0.986011
    outer loop
      vertex 4.71938 -9.17764 7.64834
      vertex 1.84148 -12.5227 7.9268
      vertex 2.44346 -15.8678 7.64834
    endloop
  endfacet
  facet normal 0 0.0829572 0.996553
    outer loop
      vertex 4.71938 -9.17764 7.64834
      vertex -1e-06 -9.17764 7.64834
      vertex 1.84148 -12.5227 7.9268
    endloop
  endfacet
  facet normal 0.35838 0.0849997 0.929698
    outer loop
      vertex 6.92136 -5.22244 6.43791
      vertex 3.22578 -2.88025 7.64834
      vertex 4.71938 -9.17764 7.64834
    endloop
  endfacet
  facet normal -0.149515 0 0.988759
    outer loop
      vertex -1e-06 -9.17764 7.64834
      vertex -1e-06 -15.8678 7.64834
      vertex 1.84148 -12.5227 7.9268
    endloop
  endfacet
  facet normal 0.149515 0 0.988759
    outer loop
      vertex -1e-06 -9.17764 7.64834
      vertex -1.84148 -12.5227 7.9268
      vertex -1e-06 -15.8678 7.64834
    endloop
  endfacet
  facet normal 0 -0.0829574 0.996553
    outer loop
      vertex 1.84148 -12.5227 7.9268
      vertex -1e-06 -15.8678 7.64834
      vertex 2.44346 -15.8678 7.64834
    endloop
  endfacet
  facet normal 0 0.160659 0.98701
    outer loop
      vertex 2.44346 -15.8678 7.64834
      vertex -1e-06 -15.8678 7.64834
      vertex 1.15129 -16.9829 7.82984
    endloop
  endfacet
  facet normal -0.155725 0 0.987801
    outer loop
      vertex -1e-06 -15.8678 7.64834
      vertex -1e-06 -19.2129 7.64834
      vertex 1.15129 -16.9829 7.82984
    endloop
  endfacet
  facet normal 0.155725 0 0.9878
    outer loop
      vertex -1e-06 -15.8678 7.64834
      vertex -1.15129 -16.9829 7.82984
      vertex -1e-06 -19.2129 7.64834
    endloop
  endfacet
  facet normal 0.343798 -0.25113 0.904841
    outer loop
      vertex 1.15129 -16.9829 7.82984
      vertex -1e-06 -19.2129 7.64834
      vertex 2.44346 -15.8678 7.64834
    endloop
  endfacet
  facet normal 0 0 1
    outer loop
      vertex 2.44346 -15.8678 7.64834
      vertex -1e-06 -19.2129 7.64834
      vertex 3.215 -17.8749 7.64834
    endloop
  endfacet
  facet normal 0.366412 -0.880405 0.301046
    outer loop
      vertex 3.215 -17.8749 7.64834
      vertex -1e-06 -19.2129 7.64834
      vertex 3.87919 -19.2129 2.92686
    endloop
  endfacet
  facet normal 0.961324 0.269029 0.058993
    outer loop
      vertex 3.87919 -19.2129 2.92686
      vertex 2.94306 -15.8678 2.92686
      vertex 3.215 -17.8749 7.64834
    endloop
  endfacet
  facet normal 0.467968 0.0190391 0.88354
    outer loop
      vertex 5.46214 0.750592 7.50235
      vertex 2.14728 5.85417 9.1481
      vertex 2.42221 -0.903366 9.1481
    endloop
  endfacet
  facet normal -0.0315127 0.435367 0.899701
    outer loop
      vertex 3.29816 9.03676 7.64834
      vertex 2.14728 5.85417 9.1481
      vertex 4.17686 7.24961 8.54393
    endloop
  endfacet
  facet normal 0.336743 -0.0837125 0.937868
    outer loop
      vertex 4.17686 7.24961 8.54393
      vertex 2.14728 5.85417 9.1481
      vertex 5.46214 0.750592 7.50235
    endloop
  endfacet
  facet normal 0.578346 -0.754647 0.309878
    outer loop
      vertex 5.46214 0.750592 7.50235
      vertex 2.42221 -0.903366 9.1481
      vertex 3.22578 -0.903366 7.64834
    endloop
  endfacet
  facet normal 0.881448 0 0.472281
    outer loop
      vertex 3.22578 -0.903366 7.64834
      vertex 2.42221 -0.903366 9.1481
      vertex 3.22578 -2.88025 7.64834
    endloop
  endfacet
  facet normal 0.162235 -0.0118571 -0.986681
    outer loop
      vertex 6.00367 -11.0065 3.37168
      vertex 2.94306 -15.8678 2.92686
      vertex 3.89227 -2.88025 2.92686
    endloop
  endfacet
  facet normal 0.928889 0.357077 0.0982897
    outer loop
      vertex 2.94306 -15.8678 2.92686
      vertex 2.44346 -15.8678 7.64834
      vertex 3.215 -17.8749 7.64834
    endloop
  endfacet
  facet normal 0.766636 -0.636937 0.081121
    outer loop
      vertex 3.93721 -14.2894 5.92523
      vertex 2.44346 -15.8678 7.64834
      vertex 2.94306 -15.8678 2.92686
    endloop
  endfacet
  facet normal 0.843589 -0.536981 0.00298491
    outer loop
      vertex 3.93721 -14.2894 5.92523
      vertex 2.94306 -15.8678 2.92686
      vertex 6.65683 -10.0196 5.42987
    endloop
  endfacet
  facet normal 0.846734 -0.531841 -0.0136897
    outer loop
      vertex 6.65683 -10.0196 5.42987
      vertex 2.94306 -15.8678 2.92686
      vertex 6.00367 -11.0065 3.37168
    endloop
  endfacet
  facet normal 0.551772 0.83035 0.0778889
    outer loop
      vertex 3.89227 -2.88025 2.92686
      vertex 3.22578 -2.88025 7.64834
      vertex 6.92136 -5.22244 6.43791
    endloop
  endfacet
  facet normal 0.990183 0 0.139776
    outer loop
      vertex 3.22578 -0.903366 7.64834
      vertex 3.22578 -2.88025 7.64834
      vertex 3.89227 -2.88025 2.92686
    endloop
  endfacet
  facet normal 0.990183 0 0.139776
    outer loop
      vertex 3.89227 -0.903366 2.92686
      vertex 3.22578 -0.903366 7.64834
      vertex 3.89227 -2.88025 2.92686
    endloop
  endfacet
  facet normal 0.14838 -0.0155735 -0.988808
    outer loop
      vertex 6.00367 -11.0065 3.37168
      vertex 3.89227 -2.88025 2.92686
      vertex 6.58696 -5.44915 3.37168
    endloop
  endfacet
  facet normal 0.695323 0.707185 -0.12812
    outer loop
      vertex 6.58696 -5.44915 3.37168
      vertex 3.89227 -2.88025 2.92686
      vertex 6.92136 -5.22244 6.43791
    endloop
  endfacet
  facet normal 0.679106 -0.727754 0.0958637
    outer loop
      vertex 5.60192 0.750592 3.37168
      vertex 3.22578 -0.903366 7.64834
      vertex 3.89227 -0.903366 2.92686
    endloop
  endfacet
  facet normal 0 -0.989943 -0.14147
    outer loop
      vertex 6.8094 0.343423 6.22086
      vertex 5.60192 0.750592 3.37168
      vertex 6.7506 0.750592 3.37168
    endloop
  endfacet
  facet normal 0 0 -1
    outer loop
      vertex 4.57162 13.6566 3.37168
      vertex 5.45377 8.64854 3.37168
      vertex 5.60192 0.750592 3.37168
    endloop
  endfacet
  facet normal 0 0 -1
    outer loop
      vertex 5.60192 0.750592 3.37168
      vertex 5.45377 8.64854 3.37168
      vertex 7.33852 7.58732 3.37168
    endloop
  endfacet
  facet normal 0 0 -1
    outer loop
      vertex 7.33852 7.58732 3.37168
      vertex 6.7506 0.750592 3.37168
      vertex 5.60192 0.750592 3.37168
    endloop
  endfacet
  facet normal 0 0 -1
    outer loop
      vertex 6.7506 0.750592 3.37168
      vertex 10.9429 0.750592 3.37168
      vertex 10.5014 -6.84543 3.37168
    endloop
  endfacet
  facet normal 0 0 -1
    outer loop
      vertex 6.58696 -5.44915 3.37168
      vertex 7.9314 -11.0065 3.37168
      vertex 6.00367 -11.0065 3.37168
    endloop
  endfacet
  facet normal 0 0 -1
    outer loop
      vertex 7.33852 7.58732 3.37168
      vertex 10.9429 0.750592 3.37168
      vertex 6.7506 0.750592 3.37168
    endloop
  endfacet
  facet normal 0 0 -1
    outer loop
      vertex 6.7506 0.750592 3.37168
      vertex 10.5014 -6.84543 3.37168
      vertex 7.9314 -11.0065 3.37168
    endloop
  endfacet
  facet normal 0 0 -1
    outer loop
      vertex 6.7506 0.750592 3.37168
      vertex 7.9314 -11.0065 3.37168
      vertex 6.58696 -5.44915 3.37168
    endloop
  endfacet
  facet normal 0.595351 -0.803213 0.0201453
    outer loop
      vertex 5.46214 0.750592 7.50235
      vertex 3.22578 -0.903366 7.64834
      vertex 5.60192 0.750592 3.37168
    endloop
  endfacet
  facet normal -0.298061 -0.954494 -0.0100857
    outer loop
      vertex 6.8094 0.343423 6.22086
      vertex 5.46214 0.750592 7.50235
      vertex 5.60192 0.750592 3.37168
    endloop
  endfacet
  facet normal -0.0603092 0.35312 0.933632
    outer loop
      vertex 6.03672 8.63709 5.36481
      vertex 4.57162 13.6566 3.37168
      vertex 5.4577 4.96145 6.71761
    endloop
  endfacet
  facet normal 0.908067 0.227783 0.351467
    outer loop
      vertex 4.57162 13.6566 3.37168
      vertex 4.17686 7.24961 8.54393
      vertex 5.4577 4.96145 6.71761
    endloop
  endfacet
  facet normal 0.401014 0.560339 0.724713
    outer loop
      vertex 4.57162 13.6566 3.37168
      vertex 3.29816 9.03676 7.64834
      vertex 4.17686 7.24961 8.54393
    endloop
  endfacet
  facet normal 0.833313 0.233948 0.500857
    outer loop
      vertex 3.29816 18.1926 3.37168
      vertex 3.29816 9.03676 7.64834
      vertex 4.57162 13.6566 3.37168
    endloop
  endfacet
  facet normal 0.946612 0.166743 -0.275905
    outer loop
      vertex 5.45377 8.64854 3.37168
      vertex 4.57162 13.6566 3.37168
      vertex 6.03672 8.63709 5.36481
    endloop
  endfacet
  facet normal 0 0 -1
    outer loop
      vertex -1.17897 15.2933 3.125
      vertex -0.632173 15.6318 3.125
      vertex -1.56654 14.78 3.125
    endloop
  endfacet
  facet normal 0 0 -1
    outer loop
      vertex -1.56654 14.78 3.125
      vertex -0.632173 15.6318 3.125
      vertex 3.88578e-16 15.75 3.125
    endloop
  endfacet
  facet normal 0 0 -1
    outer loop
      vertex -1.56654 14.78 3.125
      vertex 3.88578e-16 15.75 3.125
      vertex 0.632173 15.6318 3.125
    endloop
  endfacet
  facet normal 0 0 -1
    outer loop
      vertex -1.56654 14.78 3.125
      vertex 0.632173 15.6318 3.125
      vertex 1.17897 15.2933 3.125
    endloop
  endfacet
  facet normal 0 0 -1
    outer loop
      vertex -1.56654 14.78 3.125
      vertex 1.17897 15.2933 3.125
      vertex 1.56654 14.78 3.125
    endloop
  endfacet
  facet normal 0 0 -1
    outer loop
      vertex -1.56654 14.78 3.125
      vertex 1.56654 14.78 3.125
      vertex 1.74253 14.1615 3.125
    endloop
  endfacet
  facet normal 0 0 -1
    outer loop
      vertex -1.56654 14.78 3.125
      vertex 1.74253 14.1615 3.125
      vertex 1.68319 13.5211 3.125
    endloop
  endfacet
  facet normal 0 0 -1
    outer loop
      vertex -1.56654 14.78 3.125
      vertex 1.68319 13.5211 3.125
      vertex 1.39653 12.9454 3.125
    endloop
  endfacet
  facet normal 0 0 -1
    outer loop
      vertex -1.56654 14.78 3.125
      vertex 1.39653 12.9454 3.125
      vertex 0.921256 12.5121 3.125
    endloop
  endfacet
  facet normal 0 0 -1
    outer loop
      vertex -1.56654 14.78 3.125
      vertex 0.921256 12.5121 3.125
      vertex 0.321562 12.2798 3.125
    endloop
  endfacet
  facet normal 0 0 -1
    outer loop
      vertex -1.56654 14.78 3.125
      vertex 0.321562 12.2798 3.125
      vertex -0.321562 12.2798 3.125
    endloop
  endfacet
  facet normal 0 0 -1
    outer loop
      vertex -1.56654 14.78 3.125
      vertex -0.321562 12.2798 3.125
      vertex -0.921256 12.5121 3.125
    endloop
  endfacet
  facet normal 0 0 -1
    outer loop
      vertex -1.56654 14.78 3.125
      vertex -0.921256 12.5121 3.125
      vertex -1.39653 12.9454 3.125
    endloop
  endfacet
  facet normal 0 0 -1
    outer loop
      vertex -1.56654 14.78 3.125
      vertex -1.39653 12.9454 3.125
      vertex -1.68319 13.5211 3.125
    endloop
  endfacet
  facet normal 0 0 -1
    outer loop
      vertex -1.56654 14.78 3.125
      vertex -1.68319 13.5211 3.125
      vertex -1.74253 14.1615 3.125
    endloop
  endfacet
  facet normal 0 0 -1
    outer loop
      vertex -1.48788 0.921256 7.025
      vertex -1.05461 1.39653 7.025
      vertex -1.7202 0.321562 7.025
    endloop
  endfacet
  facet normal 0 0 -1
    outer loop
      vertex -1.7202 0.321562 7.025
      vertex -1.05461 1.39653 7.025
      vertex -0.47891 1.68319 7.025
    endloop
  endfacet
  facet normal 0 0 -1
    outer loop
      vertex -1.7202 0.321562 7.025
      vertex -0.47891 1.68319 7.025
      vertex 0.16147 1.74253 7.025
    endloop
  endfacet
  facet normal 0 0 -1
    outer loop
      vertex -1.7202 0.321562 7.025
      vertex 0.16147 1.74253 7.025
      vertex 0.780042 1.56654 7.025
    endloop
  endfacet
  facet normal 0 0 -1
    outer loop
      vertex -1.7202 0.321562 7.025
      vertex 0.780042 1.56654 7.025
      vertex 1.29327 1.17897 7.025
    endloop
  endfacet
  facet normal 0 0 -1
    outer loop
      vertex -1.7202 0.321562 7.025
      vertex 1.29327 1.17897 7.025
      vertex 1.63183 0.632173 7.025
    endloop
  endfacet
  facet normal 0 0 -1
    outer loop
      vertex -1.7202 0.321562 7.025
      vertex 1.63183 0.632173 7.025
      vertex 1.75 0 7.025
    endloop
  endfacet
  facet normal 0 0 -1
    outer loop
      vertex -1.7202 0.321562 7.025
      vertex 1.75 0 7.025
      vertex 1.63183 -0.632173 7.025
    endloop
  endfacet
  facet normal 0 0 -1
    outer loop
      vertex -1.7202 0.321562 7.025
      vertex 1.63183 -0.632173 7.025
      vertex 1.29327 -1.17897 7.025
    endloop
  endfacet
  facet normal 0 0 -1
    outer loop
      vertex -1.7202 0.321562 7.025
      vertex 1.29327 -1.17897 7.025
      vertex 0.780042 -1.56654 7.025
    endloop
  endfacet
  facet normal 0 0 -1
    outer loop
      vertex -1.7202 0.321562 7.025
      vertex 0.780042 -1.56654 7.025
      vertex 0.16147 -1.74253 7.025
    endloop
  endfacet
  facet normal 0 0 -1
    outer loop
      vertex -1.7202 0.321562 7.025
      vertex 0.16147 -1.74253 7.025
      vertex -0.47891 -1.68319 7.025
    endloop
  endfacet
  facet normal 0 0 -1
    outer loop
      vertex -1.7202 0.321562 7.025
      vertex -0.47891 -1.68319 7.025
      vertex -1.05461 -1.39653 7.025
    endloop
  endfacet
  facet normal 0 0 -1
    outer loop
      vertex -1.7202 0.321562 7.025
      vertex -1.05461 -1.39653 7.025
      vertex -1.48788 -0.921256 7.025
    endloop
  endfacet
  facet normal 0 0 -1
    outer loop
      vertex -1.7202 0.321562 7.025
      vertex -1.48788 -0.921256 7.025
      vertex -1.7202 -0.321562 7.025
    endloop
  endfacet
  facet normal -0.999652 -0.019412 0.0178566
    outer loop
      vertex 6.8094 0.343423 6.22086
      vertex 6.7506 0.750592 3.37168
      vertex 6.92136 -5.22244 6.43791
    endloop
  endfacet
  facet normal 0.430891 0.0438161 0.90134
    outer loop
      vertex 9.62701 -7.12178 5.23679
      vertex 6.8094 0.343423 6.22086
      vertex 6.92136 -5.22244 6.43791
    endloop
  endfacet
  facet normal 0.469346 0.114936 0.875502
    outer loop
      vertex 9.62701 -7.12178 5.23679
      vertex 6.92136 -5.22244 6.43791
      vertex 7.14528 -9.44342 6.872
    endloop
  endfacet
  facet normal -0.993971 0.0262357 0.106462
    outer loop
      vertex 6.7506 0.750592 3.37168
      vertex 6.58696 -5.44915 3.37168
      vertex 6.92136 -5.22244 6.43791
    endloop
  endfacet
  facet normal 0.69913 -0.713366 0.0482334
    outer loop
      vertex 7.14528 -9.44342 6.872
      vertex 6.65683 -10.0196 5.42987
      vertex 9.62701 -7.12178 5.23679
    endloop
  endfacet
  facet normal 0.837953 -0.54156 -0.0674326
    outer loop
      vertex 7.14528 -9.44342 6.872
      vertex 3.93721 -14.2894 5.92523
      vertex 6.65683 -10.0196 5.42987
    endloop
  endfacet
  facet normal 0.865982 0.0924998 0.491446
    outer loop
      vertex 5.4577 4.96145 6.71761
      vertex 4.17686 7.24961 8.54393
      vertex 5.46214 0.750592 7.50235
    endloop
  endfacet
  facet normal 0.703751 0.130876 0.698287
    outer loop
      vertex 6.8094 0.343423 6.22086
      vertex 5.4577 4.96145 6.71761
      vertex 5.46214 0.750592 7.50235
    endloop
  endfacet
  facet normal 0 -0.9017 0.432363
    outer loop
      vertex 6.65683 -10.0196 5.42987
      vertex 6.00367 -11.0065 3.37168
      vertex 7.9314 -11.0065 3.37168
    endloop
  endfacet
  facet normal 0 -0.9017 0.432363
    outer loop
      vertex 8.58455 -10.0196 5.42987
      vertex 6.65683 -10.0196 5.42987
      vertex 7.9314 -11.0065 3.37168
    endloop
  endfacet
  facet normal 0 0.0664801 0.997788
    outer loop
      vertex 9.62701 -7.12178 5.23679
      vertex 6.65683 -10.0196 5.42987
      vertex 8.58455 -10.0196 5.42987
    endloop
  endfacet
  facet normal 0.719342 0.137304 0.680952
    outer loop
      vertex 6.03672 8.63709 5.36481
      vertex 5.4577 4.96145 6.71761
      vertex 6.8094 0.343423 6.22086
    endloop
  endfacet
  facet normal 0.124847 0.113371 0.985678
    outer loop
      vertex 7.70471 7.55386 5.27813
      vertex 6.03672 8.63709 5.36481
      vertex 6.8094 0.343423 6.22086
    endloop
  endfacet
  facet normal 0.462977 0.0581517 0.88446
    outer loop
      vertex 7.70471 7.55386 5.27813
      vertex 6.8094 0.343423 6.22086
      vertex 9.62701 -7.12178 5.23679
    endloop
  endfacet
  facet normal 0.93011 -0.343292 -0.130557
    outer loop
      vertex 8.58455 -10.0196 5.42987
      vertex 7.9314 -11.0065 3.37168
      vertex 9.62701 -7.12178 5.23679
    endloop
  endfacet
  facet normal 0.810086 -0.500334 0.305658
    outer loop
      vertex 9.62701 -7.12178 5.23679
      vertex 7.9314 -11.0065 3.37168
      vertex 10.5014 -6.84543 3.37168
    endloop
  endfacet
  facet normal 0.907152 -0.052725 0.417487
    outer loop
      vertex 10.9429 0.750592 3.37168
      vertex 9.62701 -7.12178 5.23679
      vertex 10.5014 -6.84543 3.37168
    endloop
  endfacet
  facet normal 0.624652 0.0796319 0.776833
    outer loop
      vertex 10.9429 0.750592 3.37168
      vertex 7.70471 7.55386 5.27813
      vertex 9.62701 -7.12178 5.23679
    endloop
  endfacet
  facet normal 0.873245 0.460385 -0.159653
    outer loop
      vertex 10.9429 0.750592 3.37168
      vertex 7.33852 7.58732 3.37168
      vertex 7.70471 7.55386 5.27813
    endloop
  endfacet
  facet normal 0.53924 0.837449 -0.0888788
    outer loop
      vertex 7.33852 7.58732 3.37168
      vertex 6.03672 8.63709 5.36481
      vertex 7.70471 7.55386 5.27813
    endloop
  endfacet
  facet normal 0.485994 0.863129 -0.137182
    outer loop
      vertex 7.33852 7.58732 3.37168
      vertex 5.45377 8.64854 3.37168
      vertex 6.03672 8.63709 5.36481
    endloop
  endfacet
endsolid OpenSCAD_Model
