solid OpenSCAD_Model
  facet normal -0.90285 -0.0454166 0.42755
    outer loop
      vertex -9.90603 -8.46709 5.23679
      vertex -11.2601 0.892379 3.37168
      vertex -10.8058 -8.13853 3.37168
    endloop
  endfacet
  facet normal 0 0 -1
    outer loop
      vertex -11.2601 0.892379 3.37168
      vertex -7.55121 9.02056 3.37168
      vertex -10.8058 -8.13853 3.37168
    endloop
  endfacet
  facet normal 0 0 -1
    outer loop
      vertex -10.8058 -8.13853 3.37168
      vertex -7.55121 9.02056 3.37168
      vertex -5.61184 10.2823 3.37168
    endloop
  endfacet
  facet normal 0 0 -1
    outer loop
      vertex -5.61184 10.2823 3.37168
      vertex -4.70412 16.2363 3.37168
      vertex -5.76428 0.892379 3.37168
    endloop
  endfacet
  facet normal 0 0 -1
    outer loop
      vertex -6.94626 0.892379 3.37168
      vertex -5.61184 10.2823 3.37168
      vertex -5.76428 0.892379 3.37168
    endloop
  endfacet
  facet normal 0 0 -1
    outer loop
      vertex -10.8058 -8.13853 3.37168
      vertex -5.61184 10.2823 3.37168
      vertex -6.94626 0.892379 3.37168
    endloop
  endfacet
  facet normal 0 0 -1
    outer loop
      vertex -10.8058 -8.13853 3.37168
      vertex -6.77787 -6.47849 3.37168
      vertex -6.17768 -13.0857 3.37168
    endloop
  endfacet
  facet normal 0 0 -1
    outer loop
      vertex -10.8058 -8.13853 3.37168
      vertex -6.17768 -13.0857 3.37168
      vertex -8.16128 -13.0857 3.37168
    endloop
  endfacet
  facet normal 0 0 -1
    outer loop
      vertex -6.77787 -6.47849 3.37168
      vertex -10.8058 -8.13853 3.37168
      vertex -6.94626 0.892379 3.37168
    endloop
  endfacet
  facet normal -0.896726 0.409174 -0.168699
    outer loop
      vertex -7.55121 9.02056 3.37168
      vertex -11.2601 0.892379 3.37168
      vertex -7.92802 8.98078 5.27813
    endloop
  endfacet
  facet normal -0.614326 0.0677816 0.786135
    outer loop
      vertex -7.92802 8.98078 5.27813
      vertex -11.2601 0.892379 3.37168
      vertex -9.90603 -8.46709 5.23679
    endloop
  endfacet
  facet normal -0.452866 0.0492306 0.890218
    outer loop
      vertex -7.92802 8.98078 5.27813
      vertex -9.90603 -8.46709 5.23679
      vertex -7.00676 0.408296 6.22086
    endloop
  endfacet
  facet normal -0.421049 0.0370563 0.906281
    outer loop
      vertex -7.00676 0.408296 6.22086
      vertex -9.90603 -8.46709 5.23679
      vertex -7.12197 -6.20896 6.43791
    endloop
  endfacet
  facet normal -0.459843 0.097462 0.882636
    outer loop
      vertex -7.12197 -6.20896 6.43791
      vertex -9.90603 -8.46709 5.23679
      vertex -7.35238 -11.2273 6.872
    endloop
  endfacet
  facet normal -0.748496 -0.661008 0.0531353
    outer loop
      vertex -7.35238 -11.2273 6.872
      vertex -9.90603 -8.46709 5.23679
      vertex -6.84976 -11.9124 5.42987
    endloop
  endfacet
  facet normal 0 0.0559535 0.998433
    outer loop
      vertex -6.84976 -11.9124 5.42987
      vertex -9.90603 -8.46709 5.23679
      vertex -8.83336 -11.9124 5.42987
    endloop
  endfacet
  facet normal -0.943688 -0.301454 -0.136302
    outer loop
      vertex -8.83336 -11.9124 5.42987
      vertex -9.90603 -8.46709 5.23679
      vertex -8.16128 -13.0857 3.37168
    endloop
  endfacet
  facet normal -0.834351 -0.446007 0.323938
    outer loop
      vertex -9.90603 -8.46709 5.23679
      vertex -10.8058 -8.13853 3.37168
      vertex -8.16128 -13.0857 3.37168
    endloop
  endfacet
  facet normal 0 -0.868749 0.495252
    outer loop
      vertex -6.84976 -11.9124 5.42987
      vertex -8.83336 -11.9124 5.42987
      vertex -8.16128 -13.0857 3.37168
    endloop
  endfacet
  facet normal 0 -0.868749 0.495252
    outer loop
      vertex -6.17768 -13.0857 3.37168
      vertex -6.84976 -11.9124 5.42987
      vertex -8.16128 -13.0857 3.37168
    endloop
  endfacet
  facet normal -0.878477 -0.47756 -0.0146144
    outer loop
      vertex -3.02836 -18.8653 2.92686
      vertex -6.84976 -11.9124 5.42987
      vertex -6.17768 -13.0857 3.37168
    endloop
  endfacet
  facet normal -0.157784 -0.00998069 -0.987423
    outer loop
      vertex -3.02836 -18.8653 2.92686
      vertex -6.17768 -13.0857 3.37168
      vertex -4.00508 -3.42432 2.92686
    endloop
  endfacet
  facet normal -0.144294 -0.0131076 -0.989448
    outer loop
      vertex -6.17768 -13.0857 3.37168
      vertex -6.77787 -6.47849 3.37168
      vertex -4.00508 -3.42432 2.92686
    endloop
  endfacet
  facet normal 0.993725 0.0227012 0.109521
    outer loop
      vertex -6.94626 0.892379 3.37168
      vertex -7.12197 -6.20896 6.43791
      vertex -6.77787 -6.47849 3.37168
    endloop
  endfacet
  facet normal -0.74313 0.654146 -0.140897
    outer loop
      vertex -6.77787 -6.47849 3.37168
      vertex -7.12197 -6.20896 6.43791
      vertex -4.00508 -3.42432 2.92686
    endloop
  endfacet
  facet normal 0.99969 -0.0168016 0.0183747
    outer loop
      vertex -7.00676 0.408296 6.22086
      vertex -7.12197 -6.20896 6.43791
      vertex -6.94626 0.892379 3.37168
    endloop
  endfacet
  facet normal 0 -0.985872 -0.167502
    outer loop
      vertex -5.76428 0.892379 3.37168
      vertex -7.00676 0.408296 6.22086
      vertex -6.94626 0.892379 3.37168
    endloop
  endfacet
  facet normal 0.339363 -0.940581 -0.0118161
    outer loop
      vertex -5.62046 0.892379 7.50235
      vertex -7.00676 0.408296 6.22086
      vertex -5.76428 0.892379 3.37168
    endloop
  endfacet
  facet normal -0.650301 -0.759339 0.0226424
    outer loop
      vertex -5.62046 0.892379 7.50235
      vertex -5.76428 0.892379 3.37168
      vertex -3.31927 -1.07401 7.64834
    endloop
  endfacet
  facet normal -0.729066 -0.676202 0.105899
    outer loop
      vertex -3.31927 -1.07401 7.64834
      vertex -5.76428 0.892379 3.37168
      vertex -4.00508 -1.07401 2.92686
    endloop
  endfacet
  facet normal -0.734598 -0.576121 -0.3584
    outer loop
      vertex -4.00508 -1.07401 2.92686
      vertex -5.76428 0.892379 3.37168
      vertex -2.5771 -1.07402 0
    endloop
  endfacet
  facet normal -0.773472 -0.272104 -0.572452
    outer loop
      vertex -2.5771 -1.07402 0
      vertex -5.76428 0.892379 3.37168
      vertex -4.94149 5.6469 0
    endloop
  endfacet
  facet normal -0.990059 0.10484 -0.0937642
    outer loop
      vertex -4.94149 5.6469 0
      vertex -5.76428 0.892379 3.37168
      vertex -3.82014 16.2363 0
    endloop
  endfacet
  facet normal -0.965154 0.0666852 -0.253042
    outer loop
      vertex -3.82014 16.2363 0
      vertex -5.76428 0.892379 3.37168
      vertex -4.70412 16.2363 3.37168
    endloop
  endfacet
  facet normal 0.0597158 0.302616 0.95124
    outer loop
      vertex -4.70412 16.2363 3.37168
      vertex -6.21169 10.2686 5.36481
      vertex -5.61588 5.89867 6.71761
    endloop
  endfacet
  facet normal -0.947797 0.144495 -0.284257
    outer loop
      vertex -5.61184 10.2823 3.37168
      vertex -6.21169 10.2686 5.36481
      vertex -4.70412 16.2363 3.37168
    endloop
  endfacet
  facet normal -0.950454 0.185856 -0.249188
    outer loop
      vertex -3.82014 16.2363 0
      vertex -4.70412 16.2363 3.37168
      vertex -2.63439 22.3002 0
    endloop
  endfacet
  facet normal -0.957685 0.2327 -0.169379
    outer loop
      vertex -2.63439 22.3002 0
      vertex -4.70412 16.2363 3.37168
      vertex -3.39375 21.6292 3.37168
    endloop
  endfacet
  facet normal -0.832889 0.202377 0.515111
    outer loop
      vertex -3.39375 21.6292 3.37168
      vertex -4.70412 16.2363 3.37168
      vertex -3.39375 10.7438 7.64834
    endloop
  endfacet
  facet normal -0.410978 0.497018 0.764245
    outer loop
      vertex -3.39375 10.7438 7.64834
      vertex -4.70412 16.2363 3.37168
      vertex -4.29791 8.61906 8.54393
    endloop
  endfacet
  facet normal -0.910691 0.197714 0.362699
    outer loop
      vertex -4.70412 16.2363 3.37168
      vertex -5.61588 5.89867 6.71761
      vertex -4.29791 8.61906 8.54393
    endloop
  endfacet
  facet normal -0.538608 0.827906 -0.15644
    outer loop
      vertex -5.61184 10.2823 3.37168
      vertex -7.55121 9.02056 3.37168
      vertex -6.21169 10.2686 5.36481
    endloop
  endfacet
  facet normal -0.593869 0.798233 -0.10072
    outer loop
      vertex -7.55121 9.02056 3.37168
      vertex -7.92802 8.98078 5.27813
      vertex -6.21169 10.2686 5.36481
    endloop
  endfacet
  facet normal -0.121612 0.0955789 0.987965
    outer loop
      vertex -6.21169 10.2686 5.36481
      vertex -7.92802 8.98078 5.27813
      vertex -7.00676 0.408296 6.22086
    endloop
  endfacet
  facet normal -0.71137 0.117518 0.692923
    outer loop
      vertex -6.21169 10.2686 5.36481
      vertex -7.00676 0.408296 6.22086
      vertex -5.61588 5.89867 6.71761
    endloop
  endfacet
  facet normal -0.695328 0.111916 0.709925
    outer loop
      vertex -5.61588 5.89867 6.71761
      vertex -7.00676 0.408296 6.22086
      vertex -5.62046 0.892379 7.50235
    endloop
  endfacet
  facet normal -0.606618 0.790096 0.0881129
    outer loop
      vertex -4.00508 -3.42432 2.92686
      vertex -7.12197 -6.20896 6.43791
      vertex -3.31927 -3.42432 7.64834
    endloop
  endfacet
  facet normal -0.349907 0.0718273 0.934027
    outer loop
      vertex -3.31927 -3.42432 7.64834
      vertex -7.12197 -6.20896 6.43791
      vertex -4.85616 -10.9113 7.64834
    endloop
  endfacet
  facet normal -0.306665 0.0959935 0.946964
    outer loop
      vertex -7.12197 -6.20896 6.43791
      vertex -7.35238 -11.2273 6.872
      vertex -4.85616 -10.9113 7.64834
    endloop
  endfacet
  facet normal -0.249596 -0.294598 0.92245
    outer loop
      vertex -4.85616 -10.9113 7.64834
      vertex -7.35238 -11.2273 6.872
      vertex -4.05132 -16.9886 5.92523
    endloop
  endfacet
  facet normal -0.870475 -0.486907 -0.0720805
    outer loop
      vertex -4.05132 -16.9886 5.92523
      vertex -7.35238 -11.2273 6.872
      vertex -6.84976 -11.9124 5.42987
    endloop
  endfacet
  facet normal -0.87587 -0.482536 0.00318903
    outer loop
      vertex -4.05132 -16.9886 5.92523
      vertex -6.84976 -11.9124 5.42987
      vertex -3.02836 -18.8653 2.92686
    endloop
  endfacet
  facet normal -0.808739 -0.581539 0.0880563
    outer loop
      vertex -2.51428 -18.8653 7.64834
      vertex -4.05132 -16.9886 5.92523
      vertex -3.02836 -18.8653 2.92686
    endloop
  endfacet
  facet normal -0.943838 0.314021 0.102766
    outer loop
      vertex -3.02836 -18.8653 2.92686
      vertex -3.30818 -21.2515 7.64834
      vertex -2.51428 -18.8653 7.64834
    endloop
  endfacet
  facet normal -0.970073 0.234961 0.0612553
    outer loop
      vertex -3.02836 -18.8653 2.92686
      vertex -3.99163 -22.8423 2.92686
      vertex -3.30818 -21.2515 7.64834
    endloop
  endfacet
  facet normal -0.918871 0.22256 -0.325795
    outer loop
      vertex -2.56857 -21.2515 0
      vertex -3.99163 -22.8423 2.92686
      vertex -3.02836 -18.8653 2.92686
    endloop
  endfacet
  facet normal -0.913163 0.233675 -0.33396
    outer loop
      vertex -2.56857 -21.2515 0
      vertex -3.02836 -18.8653 2.92686
      vertex -1.95795 -18.8653 0
    endloop
  endfacet
  facet normal -0.918618 -0.208027 -0.335955
    outer loop
      vertex -3.02836 -18.8653 2.92686
      vertex -3.75918 -10.9113 0
      vertex -1.95795 -18.8653 0
    endloop
  endfacet
  facet normal -0.995011 -0.0629398 0.0774057
    outer loop
      vertex -3.02836 -18.8653 2.92686
      vertex -4.00508 -3.42432 2.92686
      vertex -3.75918 -10.9113 0
    endloop
  endfacet
  facet normal -0.889826 0.14049 -0.434135
    outer loop
      vertex -3.75918 -10.9113 0
      vertex -4.00508 -3.42432 2.92686
      vertex -2.5771 -3.42433 0
    endloop
  endfacet
  facet normal -0.898739 0 -0.438484
    outer loop
      vertex -4.00508 -3.42432 2.92686
      vertex -4.00508 -1.07401 2.92686
      vertex -2.5771 -3.42433 0
    endloop
  endfacet
  facet normal -0.898739 0 -0.438484
    outer loop
      vertex -2.5771 -3.42433 0
      vertex -4.00508 -1.07401 2.92686
      vertex -2.5771 -1.07402 0
    endloop
  endfacet
  facet normal -0.989615 0 0.143744
    outer loop
      vertex -4.00508 -3.42432 2.92686
      vertex -3.31927 -3.42432 7.64834
      vertex -4.00508 -1.07401 2.92686
    endloop
  endfacet
  facet normal -0.989615 0 0.143744
    outer loop
      vertex -4.00508 -1.07401 2.92686
      vertex -3.31927 -3.42432 7.64834
      vertex -3.31927 -1.07401 7.64834
    endloop
  endfacet
  facet normal -0.860809 0.0795797 0.502668
    outer loop
      vertex -5.61588 5.89867 6.71761
      vertex -5.62046 0.892379 7.50235
      vertex -4.29791 8.61906 8.54393
    endloop
  endfacet
  facet normal -0.328633 -0.0707074 0.941807
    outer loop
      vertex -4.29791 8.61906 8.54393
      vertex -5.62046 0.892379 7.50235
      vertex -2.20952 6.96002 9.1481
    endloop
  endfacet
  facet normal -0.457603 0.0161132 0.889011
    outer loop
      vertex -2.20952 6.96002 9.1481
      vertex -5.62046 0.892379 7.50235
      vertex -2.49241 -1.07401 9.1481
    endloop
  endfacet
  facet normal -0.622653 -0.703177 0.343287
    outer loop
      vertex -2.49241 -1.07401 9.1481
      vertex -5.62046 0.892379 7.50235
      vertex -3.31927 -1.07401 7.64834
    endloop
  endfacet
  facet normal -0.875723 0 0.482813
    outer loop
      vertex -3.31927 -1.07401 7.64834
      vertex -3.31927 -3.42432 7.64834
      vertex -2.49241 -1.07401 9.1481
    endloop
  endfacet
  facet normal 0 0 -1
    outer loop
      vertex -4.94149 5.6469 0
      vertex -3.82014 16.2363 0
      vertex -2.5771 -1.07402 0
    endloop
  endfacet
  facet normal 0 0 -1
    outer loop
      vertex -2.5771 -1.07402 0
      vertex -3.82014 16.2363 0
      vertex -2.63439 22.3002 0
    endloop
  endfacet
  facet normal 0 0 -1
    outer loop
      vertex -1.17897 15.2933 0
      vertex -2.63439 22.3002 0
      vertex 2.63439 22.3002 0
    endloop
  endfacet
  facet normal 0 0 -1
    outer loop
      vertex 1.68319 13.5211 0
      vertex 2.63439 22.3002 0
      vertex 3.82014 16.2363 0
    endloop
  endfacet
  facet normal 0 0 -1
    outer loop
      vertex -0.47891 1.68319 0
      vertex 3.82014 16.2363 0
      vertex 4.94149 5.6469 0
    endloop
  endfacet
  facet normal 0 0 -1
    outer loop
      vertex 1.63183 -0.632173 0
      vertex 4.94149 5.6469 0
      vertex 2.5771 -1.07402 0
    endloop
  endfacet
  facet normal 0 0 -1
    outer loop
      vertex 0.16147 -1.74253 0
      vertex 2.5771 -1.07402 0
      vertex 2.5771 -3.42433 0
    endloop
  endfacet
  facet normal 0 0 -1
    outer loop
      vertex 2.5771 -3.42433 0
      vertex 3.75918 -10.9113 0
      vertex -2.5771 -1.07402 0
    endloop
  endfacet
  facet normal 0 0 -1
    outer loop
      vertex -2.5771 -1.07402 0
      vertex 3.75918 -10.9113 0
      vertex 1.95795 -18.8653 0
    endloop
  endfacet
  facet normal 0 0 -1
    outer loop
      vertex 0.921256 12.5121 0
      vertex -2.5771 -1.07402 0
      vertex 0.321562 12.2798 0
    endloop
  endfacet
  facet normal 0 0 -1
    outer loop
      vertex -2.5771 -3.42433 0
      vertex -1.95795 -18.8653 0
      vertex -3.75918 -10.9113 0
    endloop
  endfacet
  facet normal 0 0 -1
    outer loop
      vertex -1e-06 -22.8423 0
      vertex -2.56857 -21.2515 0
      vertex -1.95795 -18.8653 0
    endloop
  endfacet
  facet normal 0 0 -1
    outer loop
      vertex -2.5771 -3.42433 0
      vertex -1e-06 -22.8423 0
      vertex -1.95795 -18.8653 0
    endloop
  endfacet
  facet normal 0 0 -1
    outer loop
      vertex 2.56857 -21.2515 0
      vertex -1e-06 -22.8423 0
      vertex -2.5771 -3.42433 0
    endloop
  endfacet
  facet normal 0 0 -1
    outer loop
      vertex -2.5771 -1.07402 0
      vertex -2.63439 22.3002 0
      vertex -1.74253 14.1615 0
    endloop
  endfacet
  facet normal 0 0 -1
    outer loop
      vertex -0.47891 1.68319 0
      vertex 4.94149 5.6469 0
      vertex 0.16147 1.74253 0
    endloop
  endfacet
  facet normal 0 0 -1
    outer loop
      vertex -2.5771 -1.07402 0
      vertex -1.74253 14.1615 0
      vertex -1.68319 13.5211 0
    endloop
  endfacet
  facet normal 0 0 -1
    outer loop
      vertex -2.5771 -1.07402 0
      vertex -1.68319 13.5211 0
      vertex -1.39653 12.9454 0
    endloop
  endfacet
  facet normal 0 0 -1
    outer loop
      vertex -2.5771 -1.07402 0
      vertex -1.39653 12.9454 0
      vertex -0.921256 12.5121 0
    endloop
  endfacet
  facet normal 0 0 -1
    outer loop
      vertex -2.5771 -1.07402 0
      vertex -0.921256 12.5121 0
      vertex -0.321562 12.2798 0
    endloop
  endfacet
  facet normal 0 0 -1
    outer loop
      vertex -2.5771 -1.07402 0
      vertex -0.321562 12.2798 0
      vertex 0.321562 12.2798 0
    endloop
  endfacet
  facet normal 0 0 -1
    outer loop
      vertex 0.632173 15.6318 0
      vertex 2.63439 22.3002 0
      vertex 1.17897 15.2933 0
    endloop
  endfacet
  facet normal 0 0 -1
    outer loop
      vertex -2.5771 -1.07402 0
      vertex 0.921256 12.5121 0
      vertex 1.39653 12.9454 0
    endloop
  endfacet
  facet normal 0 0 -1
    outer loop
      vertex -2.5771 -1.07402 0
      vertex 1.39653 12.9454 0
      vertex 3.82014 16.2363 0
    endloop
  endfacet
  facet normal 0 0 -1
    outer loop
      vertex 1.74253 14.1615 0
      vertex 2.63439 22.3002 0
      vertex 1.68319 13.5211 0
    endloop
  endfacet
  facet normal 0 0 -1
    outer loop
      vertex 1.17897 15.2933 0
      vertex 2.63439 22.3002 0
      vertex 1.56654 14.78 0
    endloop
  endfacet
  facet normal 0 0 -1
    outer loop
      vertex 1.56654 14.78 0
      vertex 2.63439 22.3002 0
      vertex 1.74253 14.1615 0
    endloop
  endfacet
  facet normal 0 0 -1
    outer loop
      vertex 1.68319 13.5211 0
      vertex 3.82014 16.2363 0
      vertex 1.39653 12.9454 0
    endloop
  endfacet
  facet normal 0 0 -1
    outer loop
      vertex 3.88578e-16 15.75 0
      vertex 2.63439 22.3002 0
      vertex 0.632173 15.6318 0
    endloop
  endfacet
  facet normal 0 0 -1
    outer loop
      vertex -0.632173 15.6318 0
      vertex 2.63439 22.3002 0
      vertex 3.88578e-16 15.75 0
    endloop
  endfacet
  facet normal 0 0 -1
    outer loop
      vertex -1.17897 15.2933 0
      vertex 2.63439 22.3002 0
      vertex -0.632173 15.6318 0
    endloop
  endfacet
  facet normal 0 0 -1
    outer loop
      vertex -1.56654 14.78 0
      vertex -2.63439 22.3002 0
      vertex -1.17897 15.2933 0
    endloop
  endfacet
  facet normal 0 0 -1
    outer loop
      vertex -1.7202 -0.321562 0
      vertex -2.5771 -1.07402 0
      vertex -1.7202 0.321562 0
    endloop
  endfacet
  facet normal 0 0 -1
    outer loop
      vertex -1.74253 14.1615 0
      vertex -2.63439 22.3002 0
      vertex -1.56654 14.78 0
    endloop
  endfacet
  facet normal 0 0 -1
    outer loop
      vertex -2.5771 -1.07402 0
      vertex 3.82014 16.2363 0
      vertex -1.7202 0.321562 0
    endloop
  endfacet
  facet normal 0 0 -1
    outer loop
      vertex -1.05461 -1.39653 0
      vertex -2.5771 -1.07402 0
      vertex -1.48788 -0.921256 0
    endloop
  endfacet
  facet normal 0 0 -1
    outer loop
      vertex -2.5771 -1.07402 0
      vertex -1.7202 -0.321562 0
      vertex -1.48788 -0.921256 0
    endloop
  endfacet
  facet normal 0 0 -1
    outer loop
      vertex 1.63183 -0.632173 0
      vertex 2.5771 -1.07402 0
      vertex 1.29327 -1.17897 0
    endloop
  endfacet
  facet normal 0 0 -1
    outer loop
      vertex -2.5771 -1.07402 0
      vertex -1.05461 -1.39653 0
      vertex 2.5771 -3.42433 0
    endloop
  endfacet
  facet normal 0 0 -1
    outer loop
      vertex -1.05461 -1.39653 0
      vertex -0.47891 -1.68319 0
      vertex 2.5771 -3.42433 0
    endloop
  endfacet
  facet normal 0 0 -1
    outer loop
      vertex 0.780042 -1.56654 0
      vertex 2.5771 -1.07402 0
      vertex 0.16147 -1.74253 0
    endloop
  endfacet
  facet normal 0 0 -1
    outer loop
      vertex -0.47891 -1.68319 0
      vertex 0.16147 -1.74253 0
      vertex 2.5771 -3.42433 0
    endloop
  endfacet
  facet normal 0 0 -1
    outer loop
      vertex 1.29327 -1.17897 0
      vertex 2.5771 -1.07402 0
      vertex 0.780042 -1.56654 0
    endloop
  endfacet
  facet normal 0 0 -1
    outer loop
      vertex 1.75 0 0
      vertex 4.94149 5.6469 0
      vertex 1.63183 -0.632173 0
    endloop
  endfacet
  facet normal 0 0 -1
    outer loop
      vertex 0.16147 1.74253 0
      vertex 4.94149 5.6469 0
      vertex 0.780042 1.56654 0
    endloop
  endfacet
  facet normal 0 0 -1
    outer loop
      vertex 1.63183 0.632173 0
      vertex 4.94149 5.6469 0
      vertex 1.75 0 0
    endloop
  endfacet
  facet normal 0 0 -1
    outer loop
      vertex 1.29327 1.17897 0
      vertex 4.94149 5.6469 0
      vertex 1.63183 0.632173 0
    endloop
  endfacet
  facet normal 0 0 -1
    outer loop
      vertex 0.780042 1.56654 0
      vertex 4.94149 5.6469 0
      vertex 1.29327 1.17897 0
    endloop
  endfacet
  facet normal 0 0 -1
    outer loop
      vertex -1.05461 1.39653 0
      vertex 3.82014 16.2363 0
      vertex -0.47891 1.68319 0
    endloop
  endfacet
  facet normal 0 0 -1
    outer loop
      vertex -1.48788 0.921256 0
      vertex 3.82014 16.2363 0
      vertex -1.05461 1.39653 0
    endloop
  endfacet
  facet normal 0 0 -1
    outer loop
      vertex -1.7202 0.321562 0
      vertex 3.82014 16.2363 0
      vertex -1.48788 0.921256 0
    endloop
  endfacet
  facet normal 0 0 -1
    outer loop
      vertex 1.95795 -18.8653 0
      vertex 2.56857 -21.2515 0
      vertex -2.5771 -3.42433 0
    endloop
  endfacet
  facet normal 0 0 -1
    outer loop
      vertex -2.5771 -1.07402 0
      vertex 1.95795 -18.8653 0
      vertex -2.5771 -3.42433 0
    endloop
  endfacet
  facet normal 0 0.932151 -0.36207
    outer loop
      vertex 2.63439 22.3002 0
      vertex -2.63439 22.3002 0
      vertex 0 23.6098 3.37168
    endloop
  endfacet
  facet normal -0.503195 0.862207 0.0582566
    outer loop
      vertex -2.63439 22.3002 0
      vertex -3.39375 21.6292 3.37168
      vertex 0 23.6098 3.37168
    endloop
  endfacet
  facet normal -0.0690097 0.118246 0.990583
    outer loop
      vertex 0 23.6098 3.37168
      vertex -3.39375 21.6292 3.37168
      vertex -1e-06 11.7631 4.78583
    endloop
  endfacet
  facet normal 0.559603 0.303054 0.771365
    outer loop
      vertex -3.39375 21.6292 3.37168
      vertex -3.39375 10.7438 7.64834
      vertex -1e-06 11.7631 4.78583
    endloop
  endfacet
  facet normal 0.031512 0.376799 0.925759
    outer loop
      vertex -3.39375 10.7438 7.64834
      vertex -4.29791 8.61906 8.54393
      vertex -2.20952 6.96002 9.1481
    endloop
  endfacet
  facet normal 0.315806 0.711475 0.627749
    outer loop
      vertex -1e-06 11.7631 4.78583
      vertex -3.39375 10.7438 7.64834
      vertex -1e-06 9.23741 7.64834
    endloop
  endfacet
  facet normal 0.182485 0.411117 0.89313
    outer loop
      vertex -1e-06 9.23741 7.64834
      vertex -3.39375 10.7438 7.64834
      vertex -2.20952 6.96002 9.1481
    endloop
  endfacet
  facet normal -0.933769 0.111514 0.340059
    outer loop
      vertex -3.31927 -3.42432 7.64834
      vertex -3.634 -10.6332 9.1481
      vertex -2.49241 -1.07401 9.1481
    endloop
  endfacet
  facet normal -0.779532 0.160019 0.605577
    outer loop
      vertex -3.31927 -3.42432 7.64834
      vertex -4.85616 -10.9113 7.64834
      vertex -3.634 -10.6332 9.1481
    endloop
  endfacet
  facet normal 0 -0.983244 0.182297
    outer loop
      vertex -3.634 -10.6332 9.1481
      vertex -4.85616 -10.9113 7.64834
      vertex -1e-06 -10.9113 7.64834
    endloop
  endfacet
  facet normal 0 -0.983244 0.182297
    outer loop
      vertex 3.634 -10.6332 9.1481
      vertex -3.634 -10.6332 9.1481
      vertex 4.85616 -10.9113 7.64834
    endloop
  endfacet
  facet normal 0 -0.983244 0.182297
    outer loop
      vertex 4.85616 -10.9113 7.64834
      vertex -3.634 -10.6332 9.1481
      vertex -1e-06 -10.9113 7.64834
    endloop
  endfacet
  facet normal 0 0.0698467 0.997558
    outer loop
      vertex -1e-06 -10.9113 7.64834
      vertex -4.85616 -10.9113 7.64834
      vertex -1.89486 -14.8883 7.9268
    endloop
  endfacet
  facet normal -0.153528 -0.0452031 0.98711
    outer loop
      vertex -1.89486 -14.8883 7.9268
      vertex -4.85616 -10.9113 7.64834
      vertex -2.51428 -18.8653 7.64834
    endloop
  endfacet
  facet normal -0.841218 -0.247679 0.480632
    outer loop
      vertex -2.51428 -18.8653 7.64834
      vertex -4.85616 -10.9113 7.64834
      vertex -4.05132 -16.9886 5.92523
    endloop
  endfacet
  facet normal 0 -0.0698469 0.997558
    outer loop
      vertex -1.89486 -14.8883 7.9268
      vertex -2.51428 -18.8653 7.64834
      vertex -1e-06 -18.8653 7.64834
    endloop
  endfacet
  facet normal 0 0.135645 0.990757
    outer loop
      vertex -1e-06 -18.8653 7.64834
      vertex -2.51428 -18.8653 7.64834
      vertex -1.18466 -20.1909 7.82984
    endloop
  endfacet
  facet normal -0.338373 -0.213921 0.916374
    outer loop
      vertex -1.18466 -20.1909 7.82984
      vertex -2.51428 -18.8653 7.64834
      vertex -1e-06 -22.8423 7.64834
    endloop
  endfacet
  facet normal 0 0 1
    outer loop
      vertex -2.51428 -18.8653 7.64834
      vertex -3.30818 -21.2515 7.64834
      vertex -1e-06 -22.8423 7.64834
    endloop
  endfacet
  facet normal -0.406915 -0.846212 0.344014
    outer loop
      vertex -3.30818 -21.2515 7.64834
      vertex -3.99163 -22.8423 2.92686
      vertex -1e-06 -22.8423 7.64834
    endloop
  endfacet
  facet normal 0 -1 0
    outer loop
      vertex -1e-06 -22.8423 7.64834
      vertex -3.99163 -22.8423 2.92686
      vertex -1e-06 -22.8423 0
    endloop
  endfacet
  facet normal 0 -1 0
    outer loop
      vertex 3.99163 -22.8423 2.92686
      vertex -1e-06 -22.8423 7.64834
      vertex -1e-06 -22.8423 0
    endloop
  endfacet
  facet normal -0.427686 -0.690562 -0.583274
    outer loop
      vertex -1e-06 -22.8423 0
      vertex -3.99163 -22.8423 2.92686
      vertex -2.56857 -21.2515 0
    endloop
  endfacet
  facet normal 0 0.549994 0.835169
    outer loop
      vertex -1e-06 9.23741 7.64834
      vertex -2.20952 6.96002 9.1481
      vertex 2.20952 6.96002 9.1481
    endloop
  endfacet
  facet normal 0 0 1
    outer loop
      vertex -2.49241 -1.07401 9.1481
      vertex -3.634 -10.6332 9.1481
      vertex 3.634 -10.6332 9.1481
    endloop
  endfacet
  facet normal 0 0 1
    outer loop
      vertex 2.20952 6.96002 9.1481
      vertex -2.49241 -1.07401 9.1481
      vertex 2.49241 -1.07401 9.1481
    endloop
  endfacet
  facet normal 0 0 1
    outer loop
      vertex 2.49241 -1.07401 9.1481
      vertex -2.49241 -1.07401 9.1481
      vertex 3.634 -10.6332 9.1481
    endloop
  endfacet
  facet normal 0 0 1
    outer loop
      vertex -2.20952 6.96002 9.1481
      vertex -2.49241 -1.07401 9.1481
      vertex 2.20952 6.96002 9.1481
    endloop
  endfacet
  facet normal 0.427686 -0.690562 -0.583274
    outer loop
      vertex 3.99163 -22.8423 2.92686
      vertex -1e-06 -22.8423 0
      vertex 2.56857 -21.2515 0
    endloop
  endfacet
  facet normal 0.913163 0.233675 -0.33396
    outer loop
      vertex 2.56857 -21.2515 0
      vertex 1.95795 -18.8653 0
      vertex 3.02836 -18.8653 2.92686
    endloop
  endfacet
  facet normal 0.918871 0.22256 -0.325795
    outer loop
      vertex 3.99163 -22.8423 2.92686
      vertex 2.56857 -21.2515 0
      vertex 3.02836 -18.8653 2.92686
    endloop
  endfacet
  facet normal 0.918618 -0.208027 -0.335955
    outer loop
      vertex 3.02836 -18.8653 2.92686
      vertex 1.95795 -18.8653 0
      vertex 3.75918 -10.9113 0
    endloop
  endfacet
  facet normal 0.995011 -0.0629398 0.0774057
    outer loop
      vertex 4.00508 -3.42432 2.92686
      vertex 3.02836 -18.8653 2.92686
      vertex 3.75918 -10.9113 0
    endloop
  endfacet
  facet normal 0.889826 0.14049 -0.434135
    outer loop
      vertex 3.75918 -10.9113 0
      vertex 2.5771 -3.42433 0
      vertex 4.00508 -3.42432 2.92686
    endloop
  endfacet
  facet normal 0.898739 0 -0.438484
    outer loop
      vertex 4.00508 -3.42432 2.92686
      vertex 2.5771 -3.42433 0
      vertex 2.5771 -1.07402 0
    endloop
  endfacet
  facet normal 0.898739 0 -0.438484
    outer loop
      vertex 4.00508 -1.07401 2.92686
      vertex 4.00508 -3.42432 2.92686
      vertex 2.5771 -1.07402 0
    endloop
  endfacet
  facet normal 0.734598 -0.576121 -0.3584
    outer loop
      vertex 4.00508 -1.07401 2.92686
      vertex 2.5771 -1.07402 0
      vertex 5.76428 0.892379 3.37168
    endloop
  endfacet
  facet normal 0.773472 -0.272104 -0.572452
    outer loop
      vertex 5.76428 0.892379 3.37168
      vertex 2.5771 -1.07402 0
      vertex 4.94149 5.6469 0
    endloop
  endfacet
  facet normal 0.990059 0.10484 -0.0937642
    outer loop
      vertex 4.94149 5.6469 0
      vertex 3.82014 16.2363 0
      vertex 5.76428 0.892379 3.37168
    endloop
  endfacet
  facet normal 0.965154 0.0666852 -0.253042
    outer loop
      vertex 5.76428 0.892379 3.37168
      vertex 3.82014 16.2363 0
      vertex 4.70412 16.2363 3.37168
    endloop
  endfacet
  facet normal 0.950454 0.185856 -0.249188
    outer loop
      vertex 3.82014 16.2363 0
      vertex 2.63439 22.3002 0
      vertex 4.70412 16.2363 3.37168
    endloop
  endfacet
  facet normal 0.957685 0.2327 -0.169379
    outer loop
      vertex 4.70412 16.2363 3.37168
      vertex 2.63439 22.3002 0
      vertex 3.39375 21.6292 3.37168
    endloop
  endfacet
  facet normal 0.503195 0.862207 0.0582566
    outer loop
      vertex 2.63439 22.3002 0
      vertex 0 23.6098 3.37168
      vertex 3.39375 21.6292 3.37168
    endloop
  endfacet
  facet normal 0.995734 0.0922684 0
    outer loop
      vertex -1.74253 14.1615 3.125
      vertex -1.68319 13.5211 3.125
      vertex -1.68319 13.5211 0
    endloop
  endfacet
  facet normal 0.995734 0.0922684 0
    outer loop
      vertex -1.74253 14.1615 0
      vertex -1.74253 14.1615 3.125
      vertex -1.68319 13.5211 0
    endloop
  endfacet
  facet normal 0.961826 -0.273663 0
    outer loop
      vertex -1.56654 14.78 0
      vertex -1.56654 14.78 3.125
      vertex -1.74253 14.1615 3.125
    endloop
  endfacet
  facet normal 0.961826 -0.273663 0
    outer loop
      vertex -1.74253 14.1615 0
      vertex -1.56654 14.78 0
      vertex -1.74253 14.1615 3.125
    endloop
  endfacet
  facet normal 0.798017 -0.602635 0
    outer loop
      vertex -1.17897 15.2933 0
      vertex -1.17897 15.2933 3.125
      vertex -1.56654 14.78 3.125
    endloop
  endfacet
  facet normal 0.798017 -0.602635 0
    outer loop
      vertex -1.56654 14.78 0
      vertex -1.17897 15.2933 0
      vertex -1.56654 14.78 3.125
    endloop
  endfacet
  facet normal 0.526432 -0.850217 0
    outer loop
      vertex -0.632173 15.6318 0
      vertex -0.632173 15.6318 3.125
      vertex -1.17897 15.2933 3.125
    endloop
  endfacet
  facet normal 0.526432 -0.850217 0
    outer loop
      vertex -1.17897 15.2933 0
      vertex -0.632173 15.6318 0
      vertex -1.17897 15.2933 3.125
    endloop
  endfacet
  facet normal 0.18375 -0.982973 0
    outer loop
      vertex 3.88578e-16 15.75 0
      vertex 3.88578e-16 15.75 3.125
      vertex -0.632173 15.6318 3.125
    endloop
  endfacet
  facet normal 0.18375 -0.982973 0
    outer loop
      vertex -0.632173 15.6318 0
      vertex 3.88578e-16 15.75 0
      vertex -0.632173 15.6318 3.125
    endloop
  endfacet
  facet normal -0.18375 -0.982973 0
    outer loop
      vertex 0.632173 15.6318 0
      vertex 0.632173 15.6318 3.125
      vertex 3.88578e-16 15.75 3.125
    endloop
  endfacet
  facet normal -0.18375 -0.982973 0
    outer loop
      vertex 3.88578e-16 15.75 0
      vertex 0.632173 15.6318 0
      vertex 3.88578e-16 15.75 3.125
    endloop
  endfacet
  facet normal -0.526432 -0.850217 0
    outer loop
      vertex 1.17897 15.2933 0
      vertex 1.17897 15.2933 3.125
      vertex 0.632173 15.6318 3.125
    endloop
  endfacet
  facet normal -0.526432 -0.850217 0
    outer loop
      vertex 0.632173 15.6318 0
      vertex 1.17897 15.2933 0
      vertex 0.632173 15.6318 3.125
    endloop
  endfacet
  facet normal -0.798017 -0.602635 0
    outer loop
      vertex 1.56654 14.78 3.125
      vertex 1.17897 15.2933 3.125
      vertex 1.56654 14.78 0
    endloop
  endfacet
  facet normal -0.798017 -0.602635 0
    outer loop
      vertex 1.56654 14.78 0
      vertex 1.17897 15.2933 3.125
      vertex 1.17897 15.2933 0
    endloop
  endfacet
  facet normal -0.961826 -0.273663 0
    outer loop
      vertex 1.74253 14.1615 3.125
      vertex 1.56654 14.78 3.125
      vertex 1.74253 14.1615 0
    endloop
  endfacet
  facet normal -0.961826 -0.273663 0
    outer loop
      vertex 1.74253 14.1615 0
      vertex 1.56654 14.78 3.125
      vertex 1.56654 14.78 0
    endloop
  endfacet
  facet normal -0.995734 0.0922684 0
    outer loop
      vertex 1.74253 14.1615 3.125
      vertex 1.74253 14.1615 0
      vertex 1.68319 13.5211 3.125
    endloop
  endfacet
  facet normal -0.995734 0.0922684 0
    outer loop
      vertex 1.68319 13.5211 3.125
      vertex 1.74253 14.1615 0
      vertex 1.68319 13.5211 0
    endloop
  endfacet
  facet normal -0.895163 0.445738 0
    outer loop
      vertex 1.68319 13.5211 3.125
      vertex 1.68319 13.5211 0
      vertex 1.39653 12.9454 3.125
    endloop
  endfacet
  facet normal -0.895163 0.445738 0
    outer loop
      vertex 1.39653 12.9454 3.125
      vertex 1.68319 13.5211 0
      vertex 1.39653 12.9454 0
    endloop
  endfacet
  facet normal -0.673695 0.739009 0
    outer loop
      vertex 1.39653 12.9454 3.125
      vertex 1.39653 12.9454 0
      vertex 0.921256 12.5121 3.125
    endloop
  endfacet
  facet normal -0.673695 0.739009 0
    outer loop
      vertex 0.921256 12.5121 3.125
      vertex 1.39653 12.9454 0
      vertex 0.921256 12.5121 0
    endloop
  endfacet
  facet normal -0.361242 0.932472 0
    outer loop
      vertex 0.921256 12.5121 3.125
      vertex 0.921256 12.5121 0
      vertex 0.321562 12.2798 3.125
    endloop
  endfacet
  facet normal -0.361242 0.932472 0
    outer loop
      vertex 0.321562 12.2798 3.125
      vertex 0.921256 12.5121 0
      vertex 0.321562 12.2798 0
    endloop
  endfacet
  facet normal 2.22045e-16 1 0
    outer loop
      vertex 0.321562 12.2798 3.125
      vertex 0.321562 12.2798 0
      vertex -0.321562 12.2798 3.125
    endloop
  endfacet
  facet normal 2.22045e-16 1 0
    outer loop
      vertex -0.321562 12.2798 3.125
      vertex 0.321562 12.2798 0
      vertex -0.321562 12.2798 0
    endloop
  endfacet
  facet normal 0.361242 0.932472 0
    outer loop
      vertex -0.321562 12.2798 3.125
      vertex -0.321562 12.2798 0
      vertex -0.921256 12.5121 3.125
    endloop
  endfacet
  facet normal 0.361242 0.932472 0
    outer loop
      vertex -0.921256 12.5121 3.125
      vertex -0.321562 12.2798 0
      vertex -0.921256 12.5121 0
    endloop
  endfacet
  facet normal 0.673695 0.739009 0
    outer loop
      vertex -0.921256 12.5121 3.125
      vertex -0.921256 12.5121 0
      vertex -1.39653 12.9454 3.125
    endloop
  endfacet
  facet normal 0.673695 0.739009 0
    outer loop
      vertex -1.39653 12.9454 3.125
      vertex -0.921256 12.5121 0
      vertex -1.39653 12.9454 0
    endloop
  endfacet
  facet normal 0.895163 0.445738 0
    outer loop
      vertex -1.68319 13.5211 3.125
      vertex -1.39653 12.9454 3.125
      vertex -1.39653 12.9454 0
    endloop
  endfacet
  facet normal 0.895163 0.445738 0
    outer loop
      vertex -1.68319 13.5211 0
      vertex -1.68319 13.5211 3.125
      vertex -1.39653 12.9454 0
    endloop
  endfacet
  facet normal 0.932472 -0.361242 0
    outer loop
      vertex -1.48788 0.921256 0
      vertex -1.48788 0.921256 7.025
      vertex -1.7202 0.321562 7.025
    endloop
  endfacet
  facet normal 0.932472 -0.361242 0
    outer loop
      vertex -1.7202 0.321562 0
      vertex -1.48788 0.921256 0
      vertex -1.7202 0.321562 7.025
    endloop
  endfacet
  facet normal 1 0 0
    outer loop
      vertex -1.7202 0.321562 0
      vertex -1.7202 0.321562 7.025
      vertex -1.7202 -0.321562 7.025
    endloop
  endfacet
  facet normal 1 0 0
    outer loop
      vertex -1.7202 -0.321562 0
      vertex -1.7202 0.321562 0
      vertex -1.7202 -0.321562 7.025
    endloop
  endfacet
  facet normal 0.739009 -0.673695 0
    outer loop
      vertex -1.05461 1.39653 0
      vertex -1.05461 1.39653 7.025
      vertex -1.48788 0.921256 7.025
    endloop
  endfacet
  facet normal 0.739009 -0.673695 0
    outer loop
      vertex -1.48788 0.921256 0
      vertex -1.05461 1.39653 0
      vertex -1.48788 0.921256 7.025
    endloop
  endfacet
  facet normal 0.445738 -0.895163 0
    outer loop
      vertex -0.47891 1.68319 0
      vertex -0.47891 1.68319 7.025
      vertex -1.05461 1.39653 7.025
    endloop
  endfacet
  facet normal 0.445738 -0.895163 0
    outer loop
      vertex -1.05461 1.39653 0
      vertex -0.47891 1.68319 0
      vertex -1.05461 1.39653 7.025
    endloop
  endfacet
  facet normal 0.0922684 -0.995734 0
    outer loop
      vertex 0.16147 1.74253 0
      vertex 0.16147 1.74253 7.025
      vertex -0.47891 1.68319 7.025
    endloop
  endfacet
  facet normal 0.0922684 -0.995734 0
    outer loop
      vertex -0.47891 1.68319 0
      vertex 0.16147 1.74253 0
      vertex -0.47891 1.68319 7.025
    endloop
  endfacet
  facet normal -0.273663 -0.961826 0
    outer loop
      vertex 0.780042 1.56654 0
      vertex 0.780042 1.56654 7.025
      vertex 0.16147 1.74253 7.025
    endloop
  endfacet
  facet normal -0.273663 -0.961826 0
    outer loop
      vertex 0.16147 1.74253 0
      vertex 0.780042 1.56654 0
      vertex 0.16147 1.74253 7.025
    endloop
  endfacet
  facet normal -0.602635 -0.798017 0
    outer loop
      vertex 1.29327 1.17897 0
      vertex 1.29327 1.17897 7.025
      vertex 0.780042 1.56654 7.025
    endloop
  endfacet
  facet normal -0.602635 -0.798017 0
    outer loop
      vertex 0.780042 1.56654 0
      vertex 1.29327 1.17897 0
      vertex 0.780042 1.56654 7.025
    endloop
  endfacet
  facet normal -0.850217 -0.526432 0
    outer loop
      vertex 1.63183 0.632173 7.025
      vertex 1.29327 1.17897 7.025
      vertex 1.63183 0.632173 0
    endloop
  endfacet
  facet normal -0.850217 -0.526432 0
    outer loop
      vertex 1.63183 0.632173 0
      vertex 1.29327 1.17897 7.025
      vertex 1.29327 1.17897 0
    endloop
  endfacet
  facet normal -0.982973 -0.18375 0
    outer loop
      vertex 1.75 0 7.025
      vertex 1.63183 0.632173 7.025
      vertex 1.75 0 0
    endloop
  endfacet
  facet normal -0.982973 -0.18375 0
    outer loop
      vertex 1.75 0 0
      vertex 1.63183 0.632173 7.025
      vertex 1.63183 0.632173 0
    endloop
  endfacet
  facet normal -0.982973 0.18375 0
    outer loop
      vertex 1.75 0 7.025
      vertex 1.75 0 0
      vertex 1.63183 -0.632173 7.025
    endloop
  endfacet
  facet normal -0.982973 0.18375 0
    outer loop
      vertex 1.63183 -0.632173 7.025
      vertex 1.75 0 0
      vertex 1.63183 -0.632173 0
    endloop
  endfacet
  facet normal -0.850217 0.526432 0
    outer loop
      vertex 1.63183 -0.632173 7.025
      vertex 1.63183 -0.632173 0
      vertex 1.29327 -1.17897 7.025
    endloop
  endfacet
  facet normal -0.850217 0.526432 0
    outer loop
      vertex 1.29327 -1.17897 7.025
      vertex 1.63183 -0.632173 0
      vertex 1.29327 -1.17897 0
    endloop
  endfacet
  facet normal -0.602635 0.798017 0
    outer loop
      vertex 1.29327 -1.17897 7.025
      vertex 1.29327 -1.17897 0
      vertex 0.780042 -1.56654 7.025
    endloop
  endfacet
  facet normal -0.602635 0.798017 0
    outer loop
      vertex 0.780042 -1.56654 7.025
      vertex 1.29327 -1.17897 0
      vertex 0.780042 -1.56654 0
    endloop
  endfacet
  facet normal -0.273663 0.961826 0
    outer loop
      vertex 0.780042 -1.56654 7.025
      vertex 0.780042 -1.56654 0
      vertex 0.16147 -1.74253 7.025
    endloop
  endfacet
  facet normal -0.273663 0.961826 0
    outer loop
      vertex 0.16147 -1.74253 7.025
      vertex 0.780042 -1.56654 0
      vertex 0.16147 -1.74253 0
    endloop
  endfacet
  facet normal 0.0922684 0.995734 0
    outer loop
      vertex 0.16147 -1.74253 7.025
      vertex 0.16147 -1.74253 0
      vertex -0.47891 -1.68319 7.025
    endloop
  endfacet
  facet normal 0.0922684 0.995734 0
    outer loop
      vertex -0.47891 -1.68319 7.025
      vertex 0.16147 -1.74253 0
      vertex -0.47891 -1.68319 0
    endloop
  endfacet
  facet normal 0.445738 0.895163 0
    outer loop
      vertex -0.47891 -1.68319 7.025
      vertex -0.47891 -1.68319 0
      vertex -1.05461 -1.39653 7.025
    endloop
  endfacet
  facet normal 0.445738 0.895163 0
    outer loop
      vertex -1.05461 -1.39653 7.025
      vertex -0.47891 -1.68319 0
      vertex -1.05461 -1.39653 0
    endloop
  endfacet
  facet normal 0.739009 0.673695 0
    outer loop
      vertex -1.48788 -0.921256 7.025
      vertex -1.05461 -1.39653 7.025
      vertex -1.05461 -1.39653 0
    endloop
  endfacet
  facet normal 0.739009 0.673695 0
    outer loop
      vertex -1.48788 -0.921256 0
      vertex -1.48788 -0.921256 7.025
      vertex -1.05461 -1.39653 0
    endloop
  endfacet
  facet normal 0.932472 0.361242 0
    outer loop
      vertex -1.7202 -0.321562 7.025
      vertex -1.48788 -0.921256 7.025
      vertex -1.48788 -0.921256 0
    endloop
  endfacet
  facet normal 0.932472 0.361242 0
    outer loop
      vertex -1.7202 -0.321562 0
      vertex -1.7202 -0.321562 7.025
      vertex -1.48788 -0.921256 0
    endloop
  endfacet
  facet normal 0.0690097 0.118246 0.990583
    outer loop
      vertex 0 23.6098 3.37168
      vertex -1e-06 11.7631 4.78583
      vertex 3.39375 21.6292 3.37168
    endloop
  endfacet
  facet normal -0.559602 0.303054 0.771365
    outer loop
      vertex 3.39375 21.6292 3.37168
      vertex -1e-06 11.7631 4.78583
      vertex 3.39375 10.7438 7.64834
    endloop
  endfacet
  facet normal -0.315806 0.711475 0.627749
    outer loop
      vertex -1e-06 11.7631 4.78583
      vertex -1e-06 9.23741 7.64834
      vertex 3.39375 10.7438 7.64834
    endloop
  endfacet
  facet normal -0.182485 0.411117 0.89313
    outer loop
      vertex 3.39375 10.7438 7.64834
      vertex -1e-06 9.23741 7.64834
      vertex 2.20952 6.96002 9.1481
    endloop
  endfacet
  facet normal 0.933769 0.111514 0.340059
    outer loop
      vertex 3.31927 -3.42432 7.64834
      vertex 2.49241 -1.07401 9.1481
      vertex 3.634 -10.6332 9.1481
    endloop
  endfacet
  facet normal 0.779532 0.160019 0.605577
    outer loop
      vertex 4.85616 -10.9113 7.64834
      vertex 3.31927 -3.42432 7.64834
      vertex 3.634 -10.6332 9.1481
    endloop
  endfacet
  facet normal 0.306665 0.0959935 0.946964
    outer loop
      vertex 7.12197 -6.20896 6.43791
      vertex 4.85616 -10.9113 7.64834
      vertex 7.35238 -11.2273 6.872
    endloop
  endfacet
  facet normal 0.249596 -0.294598 0.92245
    outer loop
      vertex 4.85616 -10.9113 7.64834
      vertex 4.05132 -16.9886 5.92523
      vertex 7.35238 -11.2273 6.872
    endloop
  endfacet
  facet normal 0.841218 -0.247679 0.480632
    outer loop
      vertex 4.85616 -10.9113 7.64834
      vertex 2.51428 -18.8653 7.64834
      vertex 4.05132 -16.9886 5.92523
    endloop
  endfacet
  facet normal 0.153528 -0.0452031 0.98711
    outer loop
      vertex 4.85616 -10.9113 7.64834
      vertex 1.89486 -14.8883 7.9268
      vertex 2.51428 -18.8653 7.64834
    endloop
  endfacet
  facet normal 0 0.0698467 0.997558
    outer loop
      vertex 4.85616 -10.9113 7.64834
      vertex -1e-06 -10.9113 7.64834
      vertex 1.89486 -14.8883 7.9268
    endloop
  endfacet
  facet normal 0.349907 0.0718273 0.934027
    outer loop
      vertex 7.12197 -6.20896 6.43791
      vertex 3.31927 -3.42432 7.64834
      vertex 4.85616 -10.9113 7.64834
    endloop
  endfacet
  facet normal -0.145394 0 0.989374
    outer loop
      vertex -1e-06 -10.9113 7.64834
      vertex -1e-06 -18.8653 7.64834
      vertex 1.89486 -14.8883 7.9268
    endloop
  endfacet
  facet normal 0.145394 0 0.989374
    outer loop
      vertex -1e-06 -10.9113 7.64834
      vertex -1.89486 -14.8883 7.9268
      vertex -1e-06 -18.8653 7.64834
    endloop
  endfacet
  facet normal 0 -0.0698469 0.997558
    outer loop
      vertex 1.89486 -14.8883 7.9268
      vertex -1e-06 -18.8653 7.64834
      vertex 2.51428 -18.8653 7.64834
    endloop
  endfacet
  facet normal 0 0.135645 0.990757
    outer loop
      vertex 2.51428 -18.8653 7.64834
      vertex -1e-06 -18.8653 7.64834
      vertex 1.18466 -20.1909 7.82984
    endloop
  endfacet
  facet normal -0.15144 0 0.988466
    outer loop
      vertex -1e-06 -18.8653 7.64834
      vertex -1e-06 -22.8423 7.64834
      vertex 1.18466 -20.1909 7.82984
    endloop
  endfacet
  facet normal 0.151441 0 0.988466
    outer loop
      vertex -1e-06 -18.8653 7.64834
      vertex -1.18466 -20.1909 7.82984
      vertex -1e-06 -22.8423 7.64834
    endloop
  endfacet
  facet normal 0.338373 -0.213921 0.916374
    outer loop
      vertex 1.18466 -20.1909 7.82984
      vertex -1e-06 -22.8423 7.64834
      vertex 2.51428 -18.8653 7.64834
    endloop
  endfacet
  facet normal 0 0 1
    outer loop
      vertex 2.51428 -18.8653 7.64834
      vertex -1e-06 -22.8423 7.64834
      vertex 3.30818 -21.2515 7.64834
    endloop
  endfacet
  facet normal 0.406915 -0.846212 0.344014
    outer loop
      vertex 3.30818 -21.2515 7.64834
      vertex -1e-06 -22.8423 7.64834
      vertex 3.99163 -22.8423 2.92686
    endloop
  endfacet
  facet normal 0.970073 0.234961 0.0612553
    outer loop
      vertex 3.99163 -22.8423 2.92686
      vertex 3.02836 -18.8653 2.92686
      vertex 3.30818 -21.2515 7.64834
    endloop
  endfacet
  facet normal 0.457603 0.0161132 0.889011
    outer loop
      vertex 5.62046 0.892379 7.50235
      vertex 2.20952 6.96002 9.1481
      vertex 2.49241 -1.07401 9.1481
    endloop
  endfacet
  facet normal -0.031512 0.376799 0.925759
    outer loop
      vertex 3.39375 10.7438 7.64834
      vertex 2.20952 6.96002 9.1481
      vertex 4.29791 8.61906 8.54393
    endloop
  endfacet
  facet normal 0.328633 -0.0707074 0.941807
    outer loop
      vertex 4.29791 8.61906 8.54393
      vertex 2.20952 6.96002 9.1481
      vertex 5.62046 0.892379 7.50235
    endloop
  endfacet
  facet normal 0.622653 -0.703177 0.343287
    outer loop
      vertex 5.62046 0.892379 7.50235
      vertex 2.49241 -1.07401 9.1481
      vertex 3.31927 -1.07401 7.64834
    endloop
  endfacet
  facet normal 0.875723 0 0.482813
    outer loop
      vertex 3.31927 -1.07401 7.64834
      vertex 2.49241 -1.07401 9.1481
      vertex 3.31927 -3.42432 7.64834
    endloop
  endfacet
  facet normal 0.157784 -0.00998069 -0.987423
    outer loop
      vertex 6.17768 -13.0857 3.37168
      vertex 3.02836 -18.8653 2.92686
      vertex 4.00508 -3.42432 2.92686
    endloop
  endfacet
  facet normal 0.943838 0.314021 0.102766
    outer loop
      vertex 3.02836 -18.8653 2.92686
      vertex 2.51428 -18.8653 7.64834
      vertex 3.30818 -21.2515 7.64834
    endloop
  endfacet
  facet normal 0.808739 -0.581539 0.0880563
    outer loop
      vertex 4.05132 -16.9886 5.92523
      vertex 2.51428 -18.8653 7.64834
      vertex 3.02836 -18.8653 2.92686
    endloop
  endfacet
  facet normal 0.87587 -0.482536 0.00318903
    outer loop
      vertex 4.05132 -16.9886 5.92523
      vertex 3.02836 -18.8653 2.92686
      vertex 6.84976 -11.9124 5.42987
    endloop
  endfacet
  facet normal 0.878477 -0.47756 -0.0146144
    outer loop
      vertex 6.84976 -11.9124 5.42987
      vertex 3.02836 -18.8653 2.92686
      vertex 6.17768 -13.0857 3.37168
    endloop
  endfacet
  facet normal 0.606618 0.790096 0.0881129
    outer loop
      vertex 4.00508 -3.42432 2.92686
      vertex 3.31927 -3.42432 7.64834
      vertex 7.12197 -6.20896 6.43791
    endloop
  endfacet
  facet normal 0.989615 0 0.143744
    outer loop
      vertex 3.31927 -1.07401 7.64834
      vertex 3.31927 -3.42432 7.64834
      vertex 4.00508 -3.42432 2.92686
    endloop
  endfacet
  facet normal 0.989615 0 0.143744
    outer loop
      vertex 4.00508 -1.07401 2.92686
      vertex 3.31927 -1.07401 7.64834
      vertex 4.00508 -3.42432 2.92686
    endloop
  endfacet
  facet normal 0.144294 -0.0131076 -0.989448
    outer loop
      vertex 6.17768 -13.0857 3.37168
      vertex 4.00508 -3.42432 2.92686
      vertex 6.77787 -6.47849 3.37168
    endloop
  endfacet
  facet normal 0.74313 0.654146 -0.140897
    outer loop
      vertex 6.77787 -6.47849 3.37168
      vertex 4.00508 -3.42432 2.92686
      vertex 7.12197 -6.20896 6.43791
    endloop
  endfacet
  facet normal 0.729066 -0.676202 0.105899
    outer loop
      vertex 5.76428 0.892379 3.37168
      vertex 3.31927 -1.07401 7.64834
      vertex 4.00508 -1.07401 2.92686
    endloop
  endfacet
  facet normal 0 -0.985872 -0.167502
    outer loop
      vertex 7.00676 0.408296 6.22086
      vertex 5.76428 0.892379 3.37168
      vertex 6.94626 0.892379 3.37168
    endloop
  endfacet
  facet normal 0 0 -1
    outer loop
      vertex 4.70412 16.2363 3.37168
      vertex 5.61184 10.2823 3.37168
      vertex 5.76428 0.892379 3.37168
    endloop
  endfacet
  facet normal 0 0 -1
    outer loop
      vertex 5.76428 0.892379 3.37168
      vertex 5.61184 10.2823 3.37168
      vertex 7.55121 9.02056 3.37168
    endloop
  endfacet
  facet normal 0 0 -1
    outer loop
      vertex 7.55121 9.02056 3.37168
      vertex 6.94626 0.892379 3.37168
      vertex 5.76428 0.892379 3.37168
    endloop
  endfacet
  facet normal 0 0 -1
    outer loop
      vertex 6.94626 0.892379 3.37168
      vertex 11.2601 0.892379 3.37168
      vertex 10.8058 -8.13853 3.37168
    endloop
  endfacet
  facet normal 0 0 -1
    outer loop
      vertex 6.77787 -6.47849 3.37168
      vertex 8.16128 -13.0857 3.37168
      vertex 6.17768 -13.0857 3.37168
    endloop
  endfacet
  facet normal 0 0 -1
    outer loop
      vertex 7.55121 9.02056 3.37168
      vertex 11.2601 0.892379 3.37168
      vertex 6.94626 0.892379 3.37168
    endloop
  endfacet
  facet normal 0 0 -1
    outer loop
      vertex 6.94626 0.892379 3.37168
      vertex 10.8058 -8.13853 3.37168
      vertex 8.16128 -13.0857 3.37168
    endloop
  endfacet
  facet normal 0 0 -1
    outer loop
      vertex 6.94626 0.892379 3.37168
      vertex 8.16128 -13.0857 3.37168
      vertex 6.77787 -6.47849 3.37168
    endloop
  endfacet
  facet normal 0.650301 -0.759339 0.0226424
    outer loop
      vertex 5.62046 0.892379 7.50235
      vertex 3.31927 -1.07401 7.64834
      vertex 5.76428 0.892379 3.37168
    endloop
  endfacet
  facet normal -0.339363 -0.940581 -0.0118161
    outer loop
      vertex 7.00676 0.408296 6.22086
      vertex 5.62046 0.892379 7.50235
      vertex 5.76428 0.892379 3.37168
    endloop
  endfacet
  facet normal -0.0597158 0.302616 0.95124
    outer loop
      vertex 6.21169 10.2686 5.36481
      vertex 4.70412 16.2363 3.37168
      vertex 5.61588 5.89867 6.71761
    endloop
  endfacet
  facet normal 0.910691 0.197714 0.362699
    outer loop
      vertex 4.70412 16.2363 3.37168
      vertex 4.29791 8.61906 8.54393
      vertex 5.61588 5.89867 6.71761
    endloop
  endfacet
  facet normal 0.410978 0.497018 0.764245
    outer loop
      vertex 4.70412 16.2363 3.37168
      vertex 3.39375 10.7438 7.64834
      vertex 4.29791 8.61906 8.54393
    endloop
  endfacet
  facet normal 0.832889 0.202377 0.515111
    outer loop
      vertex 3.39375 21.6292 3.37168
      vertex 3.39375 10.7438 7.64834
      vertex 4.70412 16.2363 3.37168
    endloop
  endfacet
  facet normal 0.947797 0.144495 -0.284257
    outer loop
      vertex 5.61184 10.2823 3.37168
      vertex 4.70412 16.2363 3.37168
      vertex 6.21169 10.2686 5.36481
    endloop
  endfacet
  facet normal 0 0 -1
    outer loop
      vertex -1.17897 15.2933 3.125
      vertex -0.632173 15.6318 3.125
      vertex -1.56654 14.78 3.125
    endloop
  endfacet
  facet normal 0 0 -1
    outer loop
      vertex -1.56654 14.78 3.125
      vertex -0.632173 15.6318 3.125
      vertex 3.88578e-16 15.75 3.125
    endloop
  endfacet
  facet normal 0 0 -1
    outer loop
      vertex -1.56654 14.78 3.125
      vertex 3.88578e-16 15.75 3.125
      vertex 0.632173 15.6318 3.125
    endloop
  endfacet
  facet normal 0 0 -1
    outer loop
      vertex -1.56654 14.78 3.125
      vertex 0.632173 15.6318 3.125
      vertex 1.17897 15.2933 3.125
    endloop
  endfacet
  facet normal 0 0 -1
    outer loop
      vertex -1.56654 14.78 3.125
      vertex 1.17897 15.2933 3.125
      vertex 1.56654 14.78 3.125
    endloop
  endfacet
  facet normal 0 0 -1
    outer loop
      vertex -1.56654 14.78 3.125
      vertex 1.56654 14.78 3.125
      vertex 1.74253 14.1615 3.125
    endloop
  endfacet
  facet normal 0 0 -1
    outer loop
      vertex -1.56654 14.78 3.125
      vertex 1.74253 14.1615 3.125
      vertex 1.68319 13.5211 3.125
    endloop
  endfacet
  facet normal 0 0 -1
    outer loop
      vertex -1.56654 14.78 3.125
      vertex 1.68319 13.5211 3.125
      vertex 1.39653 12.9454 3.125
    endloop
  endfacet
  facet normal 0 0 -1
    outer loop
      vertex -1.56654 14.78 3.125
      vertex 1.39653 12.9454 3.125
      vertex 0.921256 12.5121 3.125
    endloop
  endfacet
  facet normal 0 0 -1
    outer loop
      vertex -1.56654 14.78 3.125
      vertex 0.921256 12.5121 3.125
      vertex 0.321562 12.2798 3.125
    endloop
  endfacet
  facet normal 0 0 -1
    outer loop
      vertex -1.56654 14.78 3.125
      vertex 0.321562 12.2798 3.125
      vertex -0.321562 12.2798 3.125
    endloop
  endfacet
  facet normal 0 0 -1
    outer loop
      vertex -1.56654 14.78 3.125
      vertex -0.321562 12.2798 3.125
      vertex -0.921256 12.5121 3.125
    endloop
  endfacet
  facet normal 0 0 -1
    outer loop
      vertex -1.56654 14.78 3.125
      vertex -0.921256 12.5121 3.125
      vertex -1.39653 12.9454 3.125
    endloop
  endfacet
  facet normal 0 0 -1
    outer loop
      vertex -1.56654 14.78 3.125
      vertex -1.39653 12.9454 3.125
      vertex -1.68319 13.5211 3.125
    endloop
  endfacet
  facet normal 0 0 -1
    outer loop
      vertex -1.56654 14.78 3.125
      vertex -1.68319 13.5211 3.125
      vertex -1.74253 14.1615 3.125
    endloop
  endfacet
  facet normal 0 0 -1
    outer loop
      vertex -1.48788 0.921256 7.025
      vertex -1.05461 1.39653 7.025
      vertex -1.7202 0.321562 7.025
    endloop
  endfacet
  facet normal 0 0 -1
    outer loop
      vertex -1.7202 0.321562 7.025
      vertex -1.05461 1.39653 7.025
      vertex -0.47891 1.68319 7.025
    endloop
  endfacet
  facet normal 0 0 -1
    outer loop
      vertex -1.7202 0.321562 7.025
      vertex -0.47891 1.68319 7.025
      vertex 0.16147 1.74253 7.025
    endloop
  endfacet
  facet normal 0 0 -1
    outer loop
      vertex -1.7202 0.321562 7.025
      vertex 0.16147 1.74253 7.025
      vertex 0.780042 1.56654 7.025
    endloop
  endfacet
  facet normal 0 0 -1
    outer loop
      vertex -1.7202 0.321562 7.025
      vertex 0.780042 1.56654 7.025
      vertex 1.29327 1.17897 7.025
    endloop
  endfacet
  facet normal 0 0 -1
    outer loop
      vertex -1.7202 0.321562 7.025
      vertex 1.29327 1.17897 7.025
      vertex 1.63183 0.632173 7.025
    endloop
  endfacet
  facet normal 0 0 -1
    outer loop
      vertex -1.7202 0.321562 7.025
      vertex 1.63183 0.632173 7.025
      vertex 1.75 0 7.025
    endloop
  endfacet
  facet normal 0 0 -1
    outer loop
      vertex -1.7202 0.321562 7.025
      vertex 1.75 0 7.025
      vertex 1.63183 -0.632173 7.025
    endloop
  endfacet
  facet normal 0 0 -1
    outer loop
      vertex -1.7202 0.321562 7.025
      vertex 1.63183 -0.632173 7.025
      vertex 1.29327 -1.17897 7.025
    endloop
  endfacet
  facet normal 0 0 -1
    outer loop
      vertex -1.7202 0.321562 7.025
      vertex 1.29327 -1.17897 7.025
      vertex 0.780042 -1.56654 7.025
    endloop
  endfacet
  facet normal 0 0 -1
    outer loop
      vertex -1.7202 0.321562 7.025
      vertex 0.780042 -1.56654 7.025
      vertex 0.16147 -1.74253 7.025
    endloop
  endfacet
  facet normal 0 0 -1
    outer loop
      vertex -1.7202 0.321562 7.025
      vertex 0.16147 -1.74253 7.025
      vertex -0.47891 -1.68319 7.025
    endloop
  endfacet
  facet normal 0 0 -1
    outer loop
      vertex -1.7202 0.321562 7.025
      vertex -0.47891 -1.68319 7.025
      vertex -1.05461 -1.39653 7.025
    endloop
  endfacet
  facet normal 0 0 -1
    outer loop
      vertex -1.7202 0.321562 7.025
      vertex -1.05461 -1.39653 7.025
      vertex -1.48788 -0.921256 7.025
    endloop
  endfacet
  facet normal 0 0 -1
    outer loop
      vertex -1.7202 0.321562 7.025
      vertex -1.48788 -0.921256 7.025
      vertex -1.7202 -0.321562 7.025
    endloop
  endfacet
  facet normal -0.99969 -0.0168016 0.0183747
    outer loop
      vertex 7.00676 0.408296 6.22086
      vertex 6.94626 0.892379 3.37168
      vertex 7.12197 -6.20896 6.43791
    endloop
  endfacet
  facet normal 0.421049 0.0370563 0.906281
    outer loop
      vertex 9.90603 -8.46709 5.23679
      vertex 7.00676 0.408296 6.22086
      vertex 7.12197 -6.20896 6.43791
    endloop
  endfacet
  facet normal 0.459843 0.097462 0.882636
    outer loop
      vertex 9.90603 -8.46709 5.23679
      vertex 7.12197 -6.20896 6.43791
      vertex 7.35238 -11.2273 6.872
    endloop
  endfacet
  facet normal -0.993725 0.0227012 0.109521
    outer loop
      vertex 6.94626 0.892379 3.37168
      vertex 6.77787 -6.47849 3.37168
      vertex 7.12197 -6.20896 6.43791
    endloop
  endfacet
  facet normal 0.748496 -0.661008 0.0531353
    outer loop
      vertex 7.35238 -11.2273 6.872
      vertex 6.84976 -11.9124 5.42987
      vertex 9.90603 -8.46709 5.23679
    endloop
  endfacet
  facet normal 0.870475 -0.486907 -0.0720805
    outer loop
      vertex 7.35238 -11.2273 6.872
      vertex 4.05132 -16.9886 5.92523
      vertex 6.84976 -11.9124 5.42987
    endloop
  endfacet
  facet normal 0.860809 0.0795797 0.502668
    outer loop
      vertex 5.61588 5.89867 6.71761
      vertex 4.29791 8.61906 8.54393
      vertex 5.62046 0.892379 7.50235
    endloop
  endfacet
  facet normal 0.695328 0.111916 0.709925
    outer loop
      vertex 7.00676 0.408296 6.22086
      vertex 5.61588 5.89867 6.71761
      vertex 5.62046 0.892379 7.50235
    endloop
  endfacet
  facet normal 0 -0.868749 0.495252
    outer loop
      vertex 6.84976 -11.9124 5.42987
      vertex 6.17768 -13.0857 3.37168
      vertex 8.16128 -13.0857 3.37168
    endloop
  endfacet
  facet normal 0 -0.868749 0.495252
    outer loop
      vertex 8.83336 -11.9124 5.42987
      vertex 6.84976 -11.9124 5.42987
      vertex 8.16128 -13.0857 3.37168
    endloop
  endfacet
  facet normal 0 0.0559535 0.998433
    outer loop
      vertex 9.90603 -8.46709 5.23679
      vertex 6.84976 -11.9124 5.42987
      vertex 8.83336 -11.9124 5.42987
    endloop
  endfacet
  facet normal 0.71137 0.117518 0.692923
    outer loop
      vertex 6.21169 10.2686 5.36481
      vertex 5.61588 5.89867 6.71761
      vertex 7.00676 0.408296 6.22086
    endloop
  endfacet
  facet normal 0.121612 0.0955789 0.987965
    outer loop
      vertex 7.92802 8.98078 5.27813
      vertex 6.21169 10.2686 5.36481
      vertex 7.00676 0.408296 6.22086
    endloop
  endfacet
  facet normal 0.452866 0.0492306 0.890218
    outer loop
      vertex 7.92802 8.98078 5.27813
      vertex 7.00676 0.408296 6.22086
      vertex 9.90603 -8.46709 5.23679
    endloop
  endfacet
  facet normal 0.943688 -0.301454 -0.136302
    outer loop
      vertex 8.83336 -11.9124 5.42987
      vertex 8.16128 -13.0857 3.37168
      vertex 9.90603 -8.46709 5.23679
    endloop
  endfacet
  facet normal 0.834351 -0.446007 0.323938
    outer loop
      vertex 9.90603 -8.46709 5.23679
      vertex 8.16128 -13.0857 3.37168
      vertex 10.8058 -8.13853 3.37168
    endloop
  endfacet
  facet normal 0.90285 -0.0454166 0.42755
    outer loop
      vertex 11.2601 0.892379 3.37168
      vertex 9.90603 -8.46709 5.23679
      vertex 10.8058 -8.13853 3.37168
    endloop
  endfacet
  facet normal 0.614326 0.0677816 0.786135
    outer loop
      vertex 11.2601 0.892379 3.37168
      vertex 7.92802 8.98078 5.27813
      vertex 9.90603 -8.46709 5.23679
    endloop
  endfacet
  facet normal 0.896726 0.409174 -0.168699
    outer loop
      vertex 11.2601 0.892379 3.37168
      vertex 7.55121 9.02056 3.37168
      vertex 7.92802 8.98078 5.27813
    endloop
  endfacet
  facet normal 0.593869 0.798233 -0.10072
    outer loop
      vertex 7.55121 9.02056 3.37168
      vertex 6.21169 10.2686 5.36481
      vertex 7.92802 8.98078 5.27813
    endloop
  endfacet
  facet normal 0.538608 0.827906 -0.15644
    outer loop
      vertex 7.55121 9.02056 3.37168
      vertex 5.61184 10.2823 3.37168
      vertex 6.21169 10.2686 5.36481
    endloop
  endfacet
endsolid OpenSCAD_Model
