solid OpenSCAD_Model
  facet normal -0.567584 0.107141 0.816315
    outer loop
      vertex -11.2783 -1.30182 4.23977
      vertex -12.6121 -8.36745 4.23977
      vertex -8.53779 -8.6245 7.10636
    endloop
  endfacet
  facet normal -0.518008 -0.504112 0.691041
    outer loop
      vertex -8.53779 -8.6245 7.10636
      vertex -12.6121 -8.36745 4.23977
      vertex -8.84536 -12.238 4.23977
    endloop
  endfacet
  facet normal 0 0 -1
    outer loop
      vertex -12.6121 -8.36745 4.23977
      vertex -11.2783 -1.30182 4.23977
      vertex -8.84536 -12.238 4.23977
    endloop
  endfacet
  facet normal 0 0 -1
    outer loop
      vertex -8.84536 -12.238 4.23977
      vertex -11.2783 -1.30182 4.23977
      vertex -7.93303 7.64688 4.23977
    endloop
  endfacet
  facet normal 0 0 -1
    outer loop
      vertex -7.22757 -1.30182 4.23977
      vertex -7.93303 7.64688 4.23977
      vertex -5.67147 6.04465 4.23977
    endloop
  endfacet
  facet normal 0 0 -1
    outer loop
      vertex -8.84536 -12.238 4.23977
      vertex -7.93303 7.64688 4.23977
      vertex -7.22757 -1.30182 4.23977
    endloop
  endfacet
  facet normal 0 0 -1
    outer loop
      vertex -7.23213 -8.36745 4.23977
      vertex -8.84536 -12.238 4.23977
      vertex -7.22757 -1.30182 4.23977
    endloop
  endfacet
  facet normal 0 0 -1
    outer loop
      vertex -8.84536 -12.238 4.23977
      vertex -7.23213 -8.36745 4.23977
      vertex -6.53223 -12.238 4.23977
    endloop
  endfacet
  facet normal 0 0 -1
    outer loop
      vertex -7.22757 -1.30182 4.23977
      vertex -5.67147 6.04465 4.23977
      vertex -4.61295 10.703 4.23977
    endloop
  endfacet
  facet normal 0 0 -1
    outer loop
      vertex -7.22757 -1.30182 4.23977
      vertex -4.61295 10.703 4.23977
      vertex -5.84923 -1.30182 4.23977
    endloop
  endfacet
  facet normal -0.821143 0.306968 -0.481139
    outer loop
      vertex -7.93303 7.64688 4.23977
      vertex -11.2783 -1.30182 4.23977
      vertex -10.2204 4.79544 6.32437
    endloop
  endfacet
  facet normal -0.799468 -0.065445 0.597134
    outer loop
      vertex -10.2204 4.79544 6.32437
      vertex -11.2783 -1.30182 4.23977
      vertex -8.53779 -8.6245 7.10636
    endloop
  endfacet
  facet normal 0.324488 0.0955212 0.941054
    outer loop
      vertex -7.90207 -10.784 7.10636
      vertex -10.2204 4.79544 6.32437
      vertex -8.53779 -8.6245 7.10636
    endloop
  endfacet
  facet normal -0.906031 -0.266713 -0.328592
    outer loop
      vertex -7.90207 -10.784 7.10636
      vertex -8.53779 -8.6245 7.10636
      vertex -7.31596 -11.32 5.92532
    endloop
  endfacet
  facet normal 0 -0.401319 0.915939
    outer loop
      vertex -8.53779 -8.6245 7.10636
      vertex -9.62909 -11.32 5.92532
      vertex -7.31596 -11.32 5.92532
    endloop
  endfacet
  facet normal -0.638947 0.510727 -0.575244
    outer loop
      vertex -8.84536 -12.238 4.23977
      vertex -9.62909 -11.32 5.92532
      vertex -8.53779 -8.6245 7.10636
    endloop
  endfacet
  facet normal 0 -0.878204 0.478287
    outer loop
      vertex -7.31596 -11.32 5.92532
      vertex -9.62909 -11.32 5.92532
      vertex -8.84536 -12.238 4.23977
    endloop
  endfacet
  facet normal 0 -0.878204 0.478287
    outer loop
      vertex -6.53223 -12.238 4.23977
      vertex -7.31596 -11.32 5.92532
      vertex -8.84536 -12.238 4.23977
    endloop
  endfacet
  facet normal -0.75941 -0.650611 0.00123012
    outer loop
      vertex -2.6588 -16.7598 3.87548
      vertex -7.31596 -11.32 5.92532
      vertex -6.53223 -12.238 4.23977
    endloop
  endfacet
  facet normal -0.108374 -0.0127529 -0.994028
    outer loop
      vertex -2.6588 -16.7598 3.87548
      vertex -6.53223 -12.238 4.23977
      vertex -3.79778 -7.08075 3.87548
    endloop
  endfacet
  facet normal -0.0988396 -0.017873 -0.994943
    outer loop
      vertex -6.53223 -12.238 4.23977
      vertex -7.23213 -8.36745 4.23977
      vertex -3.79778 -7.08075 3.87548
    endloop
  endfacet
  facet normal 0.979609 -0.0374136 0.197401
    outer loop
      vertex -7.16378 4.79544 6.39536
      vertex -7.90207 -10.784 7.10636
      vertex -7.23213 -8.36745 4.23977
    endloop
  endfacet
  facet normal 0.999615 -0.000645271 -0.0277553
    outer loop
      vertex -7.16378 4.79544 6.39536
      vertex -7.23213 -8.36745 4.23977
      vertex -7.22757 -1.30182 4.23977
    endloop
  endfacet
  facet normal -0.194781 0.711148 0.675522
    outer loop
      vertex -3.79778 -7.08075 3.87548
      vertex -7.23213 -8.36745 4.23977
      vertex -4.79025 -10.5368 7.22763
    endloop
  endfacet
  facet normal -0.0858632 0.771543 0.630357
    outer loop
      vertex -7.23213 -8.36745 4.23977
      vertex -7.90207 -10.784 7.10636
      vertex -4.79025 -10.5368 7.22763
    endloop
  endfacet
  facet normal 0 -0.333317 0.942815
    outer loop
      vertex -7.16378 4.79544 6.39536
      vertex -7.22757 -1.30182 4.23977
      vertex -5.84923 -1.30182 4.23977
    endloop
  endfacet
  facet normal -0.746416 -0.35902 0.560329
    outer loop
      vertex -5.67618 2.61501 6.97992
      vertex -7.16378 4.79544 6.39536
      vertex -5.84923 -1.30182 4.23977
    endloop
  endfacet
  facet normal -0.998906 0.0126371 0.0450201
    outer loop
      vertex -5.67618 2.61501 6.97992
      vertex -5.84923 -1.30182 4.23977
      vertex -5.68152 -1.30182 7.96107
    endloop
  endfacet
  facet normal -0.822722 -0.567234 0.0370796
    outer loop
      vertex -5.68152 -1.30182 7.96107
      vertex -5.84923 -1.30182 4.23977
      vertex -2.99804 -5.24191 7.22763
    endloop
  endfacet
  facet normal -0.860197 -0.466846 0.205222
    outer loop
      vertex -2.99804 -5.24191 7.22763
      vertex -5.84923 -1.30182 4.23977
      vertex -3.79778 -5.24191 3.87548
    endloop
  endfacet
  facet normal -0.79484 -0.369326 -0.481485
    outer loop
      vertex -3.79778 -5.24191 3.87548
      vertex -5.84923 -1.30182 4.23977
      vertex -2.13258 -5.24191 1.12654
    endloop
  endfacet
  facet normal -0.772755 -0.278152 -0.570509
    outer loop
      vertex -2.13258 -5.24191 1.12654
      vertex -5.84923 -1.30182 4.23977
      vertex -4.88976 2.41803 1.12654
    endloop
  endfacet
  facet normal -0.98095 0.154825 -0.117329
    outer loop
      vertex -4.88976 2.41803 1.12654
      vertex -5.84923 -1.30182 4.23977
      vertex -3.58212 10.703 1.12654
    endloop
  endfacet
  facet normal -0.944809 0.097298 -0.31284
    outer loop
      vertex -3.58212 10.703 1.12654
      vertex -5.84923 -1.30182 4.23977
      vertex -4.61295 10.703 4.23977
    endloop
  endfacet
  facet normal -0.768986 0.293493 0.56791
    outer loop
      vertex -4.61295 10.703 4.23977
      vertex -5.67618 2.61501 6.97992
      vertex -4.13927 4.74339 7.96107
    endloop
  endfacet
  facet normal -0.940078 0.213614 0.265747
    outer loop
      vertex -5.67147 6.04465 4.23977
      vertex -5.67618 2.61501 6.97992
      vertex -4.61295 10.703 4.23977
    endloop
  endfacet
  facet normal -0.914938 0.266664 -0.302949
    outer loop
      vertex -3.58212 10.703 1.12654
      vertex -4.61295 10.703 4.23977
      vertex -2.19938 15.4473 1.12654
    endloop
  endfacet
  facet normal -0.920164 0.333248 -0.205534
    outer loop
      vertex -2.19938 15.4473 1.12654
      vertex -4.61295 10.703 4.23977
      vertex -3.08489 14.9223 4.23977
    endloop
  endfacet
  facet normal -0.674691 0.244347 0.696481
    outer loop
      vertex -3.08489 14.9223 4.23977
      vertex -4.61295 10.703 4.23977
      vertex -3.08489 6.40576 7.22763
    endloop
  endfacet
  facet normal -0.214606 0.504975 0.836029
    outer loop
      vertex -3.08489 6.40576 7.22763
      vertex -4.61295 10.703 4.23977
      vertex -4.13927 4.74339 7.96107
    endloop
  endfacet
  facet normal 0.518894 0.533157 0.668201
    outer loop
      vertex -5.67147 6.04465 4.23977
      vertex -7.16378 4.79544 6.39536
      vertex -5.67618 2.61501 6.97992
    endloop
  endfacet
  facet normal 0.435471 0.614667 0.657685
    outer loop
      vertex -5.67147 6.04465 4.23977
      vertex -7.93303 7.64688 4.23977
      vertex -7.16378 4.79544 6.39536
    endloop
  endfacet
  facet normal -0.0185782 0.599744 0.799976
    outer loop
      vertex -7.93303 7.64688 4.23977
      vertex -10.2204 4.79544 6.32437
      vertex -7.16378 4.79544 6.39536
    endloop
  endfacet
  facet normal -0.0231919 0.046674 0.998641
    outer loop
      vertex -7.16378 4.79544 6.39536
      vertex -10.2204 4.79544 6.32437
      vertex -7.90207 -10.784 7.10636
    endloop
  endfacet
  facet normal -0.0145144 -0.287119 0.957785
    outer loop
      vertex -4.79025 -10.5368 7.22763
      vertex -7.90207 -10.784 7.10636
      vertex -3.8517 -15.2916 5.81648
    endloop
  endfacet
  facet normal -0.752428 -0.654216 -0.0765081
    outer loop
      vertex -3.8517 -15.2916 5.81648
      vertex -7.90207 -10.784 7.10636
      vertex -7.31596 -11.32 5.92532
    endloop
  endfacet
  facet normal -0.752672 -0.657478 0.0347612
    outer loop
      vertex -3.8517 -15.2916 5.81648
      vertex -7.31596 -11.32 5.92532
      vertex -2.6588 -16.7598 3.87548
    endloop
  endfacet
  facet normal -0.684843 -0.718325 0.122474
    outer loop
      vertex -2.05932 -16.7598 7.22763
      vertex -3.8517 -15.2916 5.81648
      vertex -2.6588 -16.7598 3.87548
    endloop
  endfacet
  facet normal -0.884612 0.438674 0.1582
    outer loop
      vertex -2.6588 -16.7598 3.87548
      vertex -2.98511 -18.6268 7.22763
      vertex -2.05932 -16.7598 7.22763
    endloop
  endfacet
  facet normal -0.93614 0.337956 0.0970915
    outer loop
      vertex -2.6588 -16.7598 3.87548
      vertex -3.78209 -19.8714 3.87548
      vertex -2.98511 -18.6268 7.22763
    endloop
  endfacet
  facet normal -0.869032 0.313729 -0.382568
    outer loop
      vertex -2.12263 -18.6268 1.12654
      vertex -3.78209 -19.8714 3.87548
      vertex -2.6588 -16.7598 3.87548
    endloop
  endfacet
  facet normal -0.860134 0.328064 -0.390568
    outer loop
      vertex -2.12263 -18.6268 1.12654
      vertex -2.6588 -16.7598 3.87548
      vertex -1.41057 -16.7598 1.12654
    endloop
  endfacet
  facet normal -0.870351 -0.29377 -0.395208
    outer loop
      vertex -2.6588 -16.7598 3.87548
      vertex -3.51103 -10.5368 1.12654
      vertex -1.41057 -16.7598 1.12654
    endloop
  endfacet
  facet normal -0.992216 -0.116758 0.0432914
    outer loop
      vertex -2.6588 -16.7598 3.87548
      vertex -3.79778 -7.08075 3.87548
      vertex -3.51103 -10.5368 1.12654
    endloop
  endfacet
  facet normal -0.809502 0.322872 -0.490367
    outer loop
      vertex -3.51103 -10.5368 1.12654
      vertex -3.79778 -7.08075 3.87548
      vertex -2.13258 -7.08075 1.12654
    endloop
  endfacet
  facet normal -0.85531 0 -0.518116
    outer loop
      vertex -3.79778 -7.08075 3.87548
      vertex -3.79778 -5.24191 3.87548
      vertex -2.13258 -7.08075 1.12654
    endloop
  endfacet
  facet normal -0.85531 0 -0.518116
    outer loop
      vertex -2.13258 -7.08075 1.12654
      vertex -3.79778 -5.24191 3.87548
      vertex -2.13258 -5.24191 1.12654
    endloop
  endfacet
  facet normal -0.972701 0 0.232063
    outer loop
      vertex -3.79778 -7.08075 3.87548
      vertex -2.99804 -7.08075 7.22763
      vertex -3.79778 -5.24191 3.87548
    endloop
  endfacet
  facet normal -0.972701 0 0.232063
    outer loop
      vertex -3.79778 -5.24191 3.87548
      vertex -2.99804 -7.08075 7.22763
      vertex -2.99804 -5.24191 7.22763
    endloop
  endfacet
  facet normal -0.868471 0.450364 0.207196
    outer loop
      vertex -3.79778 -7.08075 3.87548
      vertex -4.79025 -10.5368 7.22763
      vertex -2.99804 -7.08075 7.22763
    endloop
  endfacet
  facet normal -0.644072 0.333997 0.688199
    outer loop
      vertex -2.99804 -7.08075 7.22763
      vertex -4.79025 -10.5368 7.22763
      vertex -3.36506 -10.3193 8.45585
    endloop
  endfacet
  facet normal 0 -0.984673 0.17441
    outer loop
      vertex -3.36506 -10.3193 8.45585
      vertex -4.79025 -10.5368 7.22763
      vertex 0 -10.5368 7.22763
    endloop
  endfacet
  facet normal 0 -0.984673 0.17441
    outer loop
      vertex 3.36506 -10.3193 8.45585
      vertex -3.36506 -10.3193 8.45585
      vertex 4.79025 -10.5368 7.22763
    endloop
  endfacet
  facet normal 0 -0.984673 0.17441
    outer loop
      vertex 4.79025 -10.5368 7.22763
      vertex -3.36506 -10.3193 8.45585
      vertex 0 -10.5368 7.22763
    endloop
  endfacet
  facet normal 0 0.0730944 0.997325
    outer loop
      vertex 0 -10.5368 7.22763
      vertex -4.79025 -10.5368 7.22763
      vertex -1.33699 -13.6483 7.45567
    endloop
  endfacet
  facet normal -0.108459 -0.0475964 0.992961
    outer loop
      vertex -1.33699 -13.6483 7.45567
      vertex -4.79025 -10.5368 7.22763
      vertex -2.05932 -16.7598 7.22763
    endloop
  endfacet
  facet normal -0.734328 -0.322254 0.597424
    outer loop
      vertex -2.05932 -16.7598 7.22763
      vertex -4.79025 -10.5368 7.22763
      vertex -3.8517 -15.2916 5.81648
    endloop
  endfacet
  facet normal -0.691498 0.176414 0.700506
    outer loop
      vertex -5.67618 2.61501 6.97992
      vertex -5.68152 -1.30182 7.96107
      vertex -4.13927 4.74339 7.96107
    endloop
  endfacet
  facet normal -0.140905 0.0359476 0.98937
    outer loop
      vertex -4.13927 4.74339 7.96107
      vertex -5.68152 -1.30182 7.96107
      vertex -0.996262 3.44539 8.45585
    endloop
  endfacet
  facet normal -0.119274 0.0142453 0.992759
    outer loop
      vertex -0.996262 3.44539 8.45585
      vertex -5.68152 -1.30182 7.96107
      vertex -2.03382 -5.24191 8.45585
    endloop
  endfacet
  facet normal -0.659297 -0.545375 0.517584
    outer loop
      vertex -2.03382 -5.24191 8.45585
      vertex -5.68152 -1.30182 7.96107
      vertex -2.99804 -5.24191 7.22763
    endloop
  endfacet
  facet normal -0.78657 0 0.6175
    outer loop
      vertex -2.99804 -5.24191 7.22763
      vertex -2.99804 -7.08075 7.22763
      vertex -2.03382 -5.24191 8.45585
    endloop
  endfacet
  facet normal 0 0 -1
    outer loop
      vertex -4.88976 2.41803 1.12654
      vertex -3.58212 10.703 1.12654
      vertex -2.13258 -5.24191 1.12654
    endloop
  endfacet
  facet normal 0 0 -1
    outer loop
      vertex -2.13258 -5.24191 1.12654
      vertex -3.58212 10.703 1.12654
      vertex -2.19938 15.4473 1.12654
    endloop
  endfacet
  facet normal 0 0 -1
    outer loop
      vertex -1.46722 0.311868 1.12654
      vertex -2.19938 15.4473 1.12654
      vertex 2.19938 15.4473 1.12654
    endloop
  endfacet
  facet normal 0 0 -1
    outer loop
      vertex -0.75 1.29904 1.12654
      vertex 2.19938 15.4473 1.12654
      vertex 3.58212 10.703 1.12654
    endloop
  endfacet
  facet normal 0 0 -1
    outer loop
      vertex 1.5 0 1.12654
      vertex 3.58212 10.703 1.12654
      vertex 4.88976 2.41803 1.12654
    endloop
  endfacet
  facet normal 0 0 -1
    outer loop
      vertex -2.13258 -5.24191 1.12654
      vertex 4.88976 2.41803 1.12654
      vertex 2.13258 -5.24191 1.12654
    endloop
  endfacet
  facet normal 0 0 -1
    outer loop
      vertex -2.13258 -5.24191 1.12654
      vertex 2.13258 -5.24191 1.12654
      vertex 2.13258 -7.08075 1.12654
    endloop
  endfacet
  facet normal 0 0 -1
    outer loop
      vertex 2.13258 -7.08075 1.12654
      vertex 3.51103 -10.5368 1.12654
      vertex -2.13258 -5.24191 1.12654
    endloop
  endfacet
  facet normal 0 0 -1
    outer loop
      vertex -2.13258 -5.24191 1.12654
      vertex 3.51103 -10.5368 1.12654
      vertex 1.41057 -16.7598 1.12654
    endloop
  endfacet
  facet normal 0 0 -1
    outer loop
      vertex 1.41057 -16.7598 1.12654
      vertex 2.12263 -18.6268 1.12654
      vertex 0 -19.8714 1.12654
    endloop
  endfacet
  facet normal 0 0 -1
    outer loop
      vertex -1.21352 -0.881678 1.12654
      vertex -2.13258 -5.24191 1.12654
      vertex -1.46722 -0.311868 1.12654
    endloop
  endfacet
  facet normal 0 0 -1
    outer loop
      vertex -2.13258 -7.08075 1.12654
      vertex -1.41057 -16.7598 1.12654
      vertex -3.51103 -10.5368 1.12654
    endloop
  endfacet
  facet normal 0 0 -1
    outer loop
      vertex 0 -19.8714 1.12654
      vertex -2.12263 -18.6268 1.12654
      vertex -1.41057 -16.7598 1.12654
    endloop
  endfacet
  facet normal 0 0 -1
    outer loop
      vertex -2.13258 -7.08075 1.12654
      vertex 0 -19.8714 1.12654
      vertex -1.41057 -16.7598 1.12654
    endloop
  endfacet
  facet normal 0 0 -1
    outer loop
      vertex 1.41057 -16.7598 1.12654
      vertex 0 -19.8714 1.12654
      vertex -2.13258 -7.08075 1.12654
    endloop
  endfacet
  facet normal 0 0 -1
    outer loop
      vertex -2.13258 -5.24191 1.12654
      vertex -2.19938 15.4473 1.12654
      vertex -1.46722 0.311868 1.12654
    endloop
  endfacet
  facet normal 0 0 -1
    outer loop
      vertex -1.21352 0.881678 1.12654
      vertex -1.46722 0.311868 1.12654
      vertex 2.19938 15.4473 1.12654
    endloop
  endfacet
  facet normal 0 0 -1
    outer loop
      vertex -2.13258 -5.24191 1.12654
      vertex -1.46722 0.311868 1.12654
      vertex -1.46722 -0.311868 1.12654
    endloop
  endfacet
  facet normal 0 0 -1
    outer loop
      vertex -0.156793 -1.49178 1.12654
      vertex -2.13258 -5.24191 1.12654
      vertex -0.75 -1.29904 1.12654
    endloop
  endfacet
  facet normal 0 0 -1
    outer loop
      vertex -2.13258 -5.24191 1.12654
      vertex -1.21352 -0.881678 1.12654
      vertex -0.75 -1.29904 1.12654
    endloop
  endfacet
  facet normal 0 0 -1
    outer loop
      vertex -0.156793 1.49178 1.12654
      vertex 3.58212 10.703 1.12654
      vertex 0.463525 1.42658 1.12654
    endloop
  endfacet
  facet normal 0 0 -1
    outer loop
      vertex -2.13258 -5.24191 1.12654
      vertex -0.156793 -1.49178 1.12654
      vertex 0.463525 -1.42658 1.12654
    endloop
  endfacet
  facet normal 0 0 -1
    outer loop
      vertex -2.13258 -5.24191 1.12654
      vertex 0.463525 -1.42658 1.12654
      vertex 1.0037 -1.11472 1.12654
    endloop
  endfacet
  facet normal 0 0 -1
    outer loop
      vertex -2.13258 -5.24191 1.12654
      vertex 1.0037 -1.11472 1.12654
      vertex 4.88976 2.41803 1.12654
    endloop
  endfacet
  facet normal 0 0 -1
    outer loop
      vertex 1.5 0 1.12654
      vertex 4.88976 2.41803 1.12654
      vertex 1.37032 -0.610105 1.12654
    endloop
  endfacet
  facet normal 0 0 -1
    outer loop
      vertex 1.37032 0.610105 1.12654
      vertex 3.58212 10.703 1.12654
      vertex 1.5 0 1.12654
    endloop
  endfacet
  facet normal 0 0 -1
    outer loop
      vertex 0.463525 1.42658 1.12654
      vertex 3.58212 10.703 1.12654
      vertex 1.0037 1.11472 1.12654
    endloop
  endfacet
  facet normal 0 0 -1
    outer loop
      vertex 1.0037 1.11472 1.12654
      vertex 3.58212 10.703 1.12654
      vertex 1.37032 0.610105 1.12654
    endloop
  endfacet
  facet normal 0 0 -1
    outer loop
      vertex 1.37032 -0.610105 1.12654
      vertex 4.88976 2.41803 1.12654
      vertex 1.0037 -1.11472 1.12654
    endloop
  endfacet
  facet normal 0 0 -1
    outer loop
      vertex -0.75 1.29904 1.12654
      vertex 3.58212 10.703 1.12654
      vertex -0.156793 1.49178 1.12654
    endloop
  endfacet
  facet normal 0 0 -1
    outer loop
      vertex -1.21352 0.881678 1.12654
      vertex 2.19938 15.4473 1.12654
      vertex -0.75 1.29904 1.12654
    endloop
  endfacet
  facet normal 0 0 -1
    outer loop
      vertex -2.13258 -5.24191 1.12654
      vertex 1.41057 -16.7598 1.12654
      vertex -2.13258 -7.08075 1.12654
    endloop
  endfacet
  facet normal 0.0180481 0.393991 0.918937
    outer loop
      vertex -3.08489 6.40576 7.22763
      vertex -4.13927 4.74339 7.96107
      vertex -0.996262 3.44539 8.45585
    endloop
  endfacet
  facet normal 0 0.949875 -0.312629
    outer loop
      vertex 2.19938 15.4473 1.12654
      vertex -2.19938 15.4473 1.12654
      vertex 0 16.4719 4.23977
    endloop
  endfacet
  facet normal -0.448755 0.893359 0.0230007
    outer loop
      vertex -2.19938 15.4473 1.12654
      vertex -3.08489 14.9223 4.23977
      vertex 0 16.4719 4.23977
    endloop
  endfacet
  facet normal -0.0755069 0.150315 0.98575
    outer loop
      vertex 0 16.4719 4.23977
      vertex -3.08489 14.9223 4.23977
      vertex 0 8.8771 5.39788
    endloop
  endfacet
  facet normal 0.282485 0.317565 0.905182
    outer loop
      vertex -3.08489 14.9223 4.23977
      vertex -3.08489 6.40576 7.22763
      vertex 0 8.8771 5.39788
    endloop
  endfacet
  facet normal 0.16876 0.441722 0.881137
    outer loop
      vertex 0 8.8771 5.39788
      vertex -3.08489 6.40576 7.22763
      vertex 0 5.22718 7.22763
    endloop
  endfacet
  facet normal 0.185416 0.48532 0.85445
    outer loop
      vertex 0 5.22718 7.22763
      vertex -3.08489 6.40576 7.22763
      vertex -0.996262 3.44539 8.45585
    endloop
  endfacet
  facet normal 0 -0.0730945 0.997325
    outer loop
      vertex -1.33699 -13.6483 7.45567
      vertex -2.05932 -16.7598 7.22763
      vertex 0 -16.7598 7.22763
    endloop
  endfacet
  facet normal 0 0.141862 0.989887
    outer loop
      vertex 0 -16.7598 7.22763
      vertex -2.05932 -16.7598 7.22763
      vertex -1.07911 -17.797 7.37627
    endloop
  endfacet
  facet normal -0.432575 -0.286293 0.854936
    outer loop
      vertex -1.07911 -17.797 7.37627
      vertex -2.05932 -16.7598 7.22763
      vertex 0 -19.8714 7.22763
    endloop
  endfacet
  facet normal 0 0 1
    outer loop
      vertex -2.05932 -16.7598 7.22763
      vertex -2.98511 -18.6268 7.22763
      vertex 0 -19.8714 7.22763
    endloop
  endfacet
  facet normal -0.352993 -0.846628 0.398267
    outer loop
      vertex -2.98511 -18.6268 7.22763
      vertex -3.78209 -19.8714 3.87548
      vertex 0 -19.8714 7.22763
    endloop
  endfacet
  facet normal 0 -1 0
    outer loop
      vertex 0 -19.8714 7.22763
      vertex -3.78209 -19.8714 3.87548
      vertex 0 -19.8714 1.12654
    endloop
  endfacet
  facet normal 0 -1 0
    outer loop
      vertex 3.78209 -19.8714 3.87548
      vertex 0 -19.8714 7.22763
      vertex 0 -19.8714 1.12654
    endloop
  endfacet
  facet normal -0.415173 -0.70806 -0.571211
    outer loop
      vertex 0 -19.8714 1.12654
      vertex -3.78209 -19.8714 3.87548
      vertex -2.12263 -18.6268 1.12654
    endloop
  endfacet
  facet normal -0.904316 0.237105 0.354955
    outer loop
      vertex -2.99804 -7.08075 7.22763
      vertex -3.36506 -10.3193 8.45585
      vertex -2.03382 -5.24191 8.45585
    endloop
  endfacet
  facet normal 0 0 1
    outer loop
      vertex -2.03382 -5.24191 8.45585
      vertex -3.36506 -10.3193 8.45585
      vertex 3.36506 -10.3193 8.45585
    endloop
  endfacet
  facet normal 0 0 1
    outer loop
      vertex 0.996262 3.44539 8.45585
      vertex -2.03382 -5.24191 8.45585
      vertex 2.03382 -5.24191 8.45585
    endloop
  endfacet
  facet normal 0 0 1
    outer loop
      vertex 2.03382 -5.24191 8.45585
      vertex -2.03382 -5.24191 8.45585
      vertex 3.36506 -10.3193 8.45585
    endloop
  endfacet
  facet normal 0 0 1
    outer loop
      vertex -0.996262 3.44539 8.45585
      vertex -2.03382 -5.24191 8.45585
      vertex 0.996262 3.44539 8.45585
    endloop
  endfacet
  facet normal 0.904316 0.237105 0.354955
    outer loop
      vertex 2.99804 -7.08075 7.22763
      vertex 2.03382 -5.24191 8.45585
      vertex 3.36506 -10.3193 8.45585
    endloop
  endfacet
  facet normal 0.644072 0.333997 0.688199
    outer loop
      vertex 4.79025 -10.5368 7.22763
      vertex 2.99804 -7.08075 7.22763
      vertex 3.36506 -10.3193 8.45585
    endloop
  endfacet
  facet normal 0.0858632 0.771543 0.630357
    outer loop
      vertex 7.23213 -8.36745 4.23977
      vertex 4.79025 -10.5368 7.22763
      vertex 7.90207 -10.784 7.10636
    endloop
  endfacet
  facet normal 0.0145144 -0.287119 0.957785
    outer loop
      vertex 4.79025 -10.5368 7.22763
      vertex 3.8517 -15.2916 5.81648
      vertex 7.90207 -10.784 7.10636
    endloop
  endfacet
  facet normal 0.734328 -0.322254 0.597424
    outer loop
      vertex 4.79025 -10.5368 7.22763
      vertex 2.05932 -16.7598 7.22763
      vertex 3.8517 -15.2916 5.81648
    endloop
  endfacet
  facet normal 0.108459 -0.0475964 0.992961
    outer loop
      vertex 4.79025 -10.5368 7.22763
      vertex 1.33699 -13.6483 7.45567
      vertex 2.05932 -16.7598 7.22763
    endloop
  endfacet
  facet normal 0 0.0730944 0.997325
    outer loop
      vertex 4.79025 -10.5368 7.22763
      vertex 0 -10.5368 7.22763
      vertex 1.33699 -13.6483 7.45567
    endloop
  endfacet
  facet normal 0.868471 0.450364 0.207196
    outer loop
      vertex 3.79778 -7.08075 3.87548
      vertex 2.99804 -7.08075 7.22763
      vertex 4.79025 -10.5368 7.22763
    endloop
  endfacet
  facet normal 0.194781 0.711148 0.675522
    outer loop
      vertex 7.23213 -8.36745 4.23977
      vertex 3.79778 -7.08075 3.87548
      vertex 4.79025 -10.5368 7.22763
    endloop
  endfacet
  facet normal -0.168137 0 0.985764
    outer loop
      vertex 0 -10.5368 7.22763
      vertex 0 -16.7598 7.22763
      vertex 1.33699 -13.6483 7.45567
    endloop
  endfacet
  facet normal 0.168137 0 0.985764
    outer loop
      vertex 0 -10.5368 7.22763
      vertex -1.33699 -13.6483 7.45567
      vertex 0 -16.7598 7.22763
    endloop
  endfacet
  facet normal 0 0.567548 0.82334
    outer loop
      vertex 0 5.22718 7.22763
      vertex -0.996262 3.44539 8.45585
      vertex 0.996262 3.44539 8.45585
    endloop
  endfacet
  facet normal 0.415173 -0.70806 -0.571211
    outer loop
      vertex 3.78209 -19.8714 3.87548
      vertex 0 -19.8714 1.12654
      vertex 2.12263 -18.6268 1.12654
    endloop
  endfacet
  facet normal 0.860134 0.328064 -0.390568
    outer loop
      vertex 2.12263 -18.6268 1.12654
      vertex 1.41057 -16.7598 1.12654
      vertex 2.6588 -16.7598 3.87548
    endloop
  endfacet
  facet normal 0.869032 0.313729 -0.382568
    outer loop
      vertex 3.78209 -19.8714 3.87548
      vertex 2.12263 -18.6268 1.12654
      vertex 2.6588 -16.7598 3.87548
    endloop
  endfacet
  facet normal 0.870351 -0.29377 -0.395208
    outer loop
      vertex 2.6588 -16.7598 3.87548
      vertex 1.41057 -16.7598 1.12654
      vertex 3.51103 -10.5368 1.12654
    endloop
  endfacet
  facet normal 0.992216 -0.116758 0.0432914
    outer loop
      vertex 3.79778 -7.08075 3.87548
      vertex 2.6588 -16.7598 3.87548
      vertex 3.51103 -10.5368 1.12654
    endloop
  endfacet
  facet normal 0.809502 0.322872 -0.490367
    outer loop
      vertex 3.51103 -10.5368 1.12654
      vertex 2.13258 -7.08075 1.12654
      vertex 3.79778 -7.08075 3.87548
    endloop
  endfacet
  facet normal 0.85531 0 -0.518116
    outer loop
      vertex 3.79778 -7.08075 3.87548
      vertex 2.13258 -7.08075 1.12654
      vertex 2.13258 -5.24191 1.12654
    endloop
  endfacet
  facet normal 0.85531 0 -0.518116
    outer loop
      vertex 3.79778 -5.24191 3.87548
      vertex 3.79778 -7.08075 3.87548
      vertex 2.13258 -5.24191 1.12654
    endloop
  endfacet
  facet normal 0.79484 -0.369326 -0.481485
    outer loop
      vertex 3.79778 -5.24191 3.87548
      vertex 2.13258 -5.24191 1.12654
      vertex 5.84923 -1.30182 4.23977
    endloop
  endfacet
  facet normal 0.772755 -0.278152 -0.570509
    outer loop
      vertex 5.84923 -1.30182 4.23977
      vertex 2.13258 -5.24191 1.12654
      vertex 4.88976 2.41803 1.12654
    endloop
  endfacet
  facet normal 0.98095 0.154825 -0.117329
    outer loop
      vertex 4.88976 2.41803 1.12654
      vertex 3.58212 10.703 1.12654
      vertex 5.84923 -1.30182 4.23977
    endloop
  endfacet
  facet normal 0.944809 0.097298 -0.31284
    outer loop
      vertex 5.84923 -1.30182 4.23977
      vertex 3.58212 10.703 1.12654
      vertex 4.61295 10.703 4.23977
    endloop
  endfacet
  facet normal 0.914938 0.266664 -0.302949
    outer loop
      vertex 3.58212 10.703 1.12654
      vertex 2.19938 15.4473 1.12654
      vertex 4.61295 10.703 4.23977
    endloop
  endfacet
  facet normal 0.920164 0.333248 -0.205534
    outer loop
      vertex 4.61295 10.703 4.23977
      vertex 2.19938 15.4473 1.12654
      vertex 3.08489 14.9223 4.23977
    endloop
  endfacet
  facet normal 0.448755 0.893359 0.0230007
    outer loop
      vertex 2.19938 15.4473 1.12654
      vertex 0 16.4719 4.23977
      vertex 3.08489 14.9223 4.23977
    endloop
  endfacet
  facet normal 0.913545 -0.406737 0
    outer loop
      vertex -1.21352 0.881678 1.12654
      vertex -1.21352 0.881678 5
      vertex -1.46722 0.311868 5
    endloop
  endfacet
  facet normal 0.913545 -0.406737 0
    outer loop
      vertex -1.46722 0.311868 1.12654
      vertex -1.21352 0.881678 1.12654
      vertex -1.46722 0.311868 5
    endloop
  endfacet
  facet normal 1 0 0
    outer loop
      vertex -1.46722 0.311868 1.12654
      vertex -1.46722 0.311868 5
      vertex -1.46722 -0.311868 5
    endloop
  endfacet
  facet normal 1 0 0
    outer loop
      vertex -1.46722 -0.311868 1.12654
      vertex -1.46722 0.311868 1.12654
      vertex -1.46722 -0.311868 5
    endloop
  endfacet
  facet normal 0.669131 -0.743145 0
    outer loop
      vertex -0.75 1.29904 1.12654
      vertex -0.75 1.29904 5
      vertex -1.21352 0.881678 5
    endloop
  endfacet
  facet normal 0.669131 -0.743145 0
    outer loop
      vertex -1.21352 0.881678 1.12654
      vertex -0.75 1.29904 1.12654
      vertex -1.21352 0.881678 5
    endloop
  endfacet
  facet normal 0.309018 -0.951056 0
    outer loop
      vertex -0.156793 1.49178 1.12654
      vertex -0.156793 1.49178 5
      vertex -0.75 1.29904 5
    endloop
  endfacet
  facet normal 0.309018 -0.951056 0
    outer loop
      vertex -0.75 1.29904 1.12654
      vertex -0.156793 1.49178 1.12654
      vertex -0.75 1.29904 5
    endloop
  endfacet
  facet normal -0.104528 -0.994522 0
    outer loop
      vertex 0.463525 1.42658 1.12654
      vertex 0.463525 1.42658 5
      vertex -0.156793 1.49178 5
    endloop
  endfacet
  facet normal -0.104528 -0.994522 0
    outer loop
      vertex -0.156793 1.49178 1.12654
      vertex 0.463525 1.42658 1.12654
      vertex -0.156793 1.49178 5
    endloop
  endfacet
  facet normal -0.5 -0.866025 0
    outer loop
      vertex 1.0037 1.11472 1.12654
      vertex 1.0037 1.11472 5
      vertex 0.463525 1.42658 5
    endloop
  endfacet
  facet normal -0.5 -0.866025 0
    outer loop
      vertex 0.463525 1.42658 1.12654
      vertex 1.0037 1.11472 1.12654
      vertex 0.463525 1.42658 5
    endloop
  endfacet
  facet normal -0.809017 -0.587785 0
    outer loop
      vertex 1.37032 0.610105 5
      vertex 1.0037 1.11472 5
      vertex 1.37032 0.610105 1.12654
    endloop
  endfacet
  facet normal -0.809017 -0.587785 0
    outer loop
      vertex 1.37032 0.610105 1.12654
      vertex 1.0037 1.11472 5
      vertex 1.0037 1.11472 1.12654
    endloop
  endfacet
  facet normal -0.978148 -0.207912 0
    outer loop
      vertex 1.5 0 5
      vertex 1.37032 0.610105 5
      vertex 1.5 0 1.12654
    endloop
  endfacet
  facet normal -0.978148 -0.207912 0
    outer loop
      vertex 1.5 0 1.12654
      vertex 1.37032 0.610105 5
      vertex 1.37032 0.610105 1.12654
    endloop
  endfacet
  facet normal -0.978148 0.207912 0
    outer loop
      vertex 1.5 0 5
      vertex 1.5 0 1.12654
      vertex 1.37032 -0.610105 5
    endloop
  endfacet
  facet normal -0.978148 0.207912 0
    outer loop
      vertex 1.37032 -0.610105 5
      vertex 1.5 0 1.12654
      vertex 1.37032 -0.610105 1.12654
    endloop
  endfacet
  facet normal -0.809017 0.587785 0
    outer loop
      vertex 1.37032 -0.610105 5
      vertex 1.37032 -0.610105 1.12654
      vertex 1.0037 -1.11472 5
    endloop
  endfacet
  facet normal -0.809017 0.587785 0
    outer loop
      vertex 1.0037 -1.11472 5
      vertex 1.37032 -0.610105 1.12654
      vertex 1.0037 -1.11472 1.12654
    endloop
  endfacet
  facet normal -0.5 0.866025 0
    outer loop
      vertex 1.0037 -1.11472 5
      vertex 1.0037 -1.11472 1.12654
      vertex 0.463525 -1.42658 5
    endloop
  endfacet
  facet normal -0.5 0.866025 0
    outer loop
      vertex 0.463525 -1.42658 5
      vertex 1.0037 -1.11472 1.12654
      vertex 0.463525 -1.42658 1.12654
    endloop
  endfacet
  facet normal -0.104528 0.994522 0
    outer loop
      vertex 0.463525 -1.42658 5
      vertex 0.463525 -1.42658 1.12654
      vertex -0.156793 -1.49178 5
    endloop
  endfacet
  facet normal -0.104528 0.994522 0
    outer loop
      vertex -0.156793 -1.49178 5
      vertex 0.463525 -1.42658 1.12654
      vertex -0.156793 -1.49178 1.12654
    endloop
  endfacet
  facet normal 0.309018 0.951056 0
    outer loop
      vertex -0.156793 -1.49178 5
      vertex -0.156793 -1.49178 1.12654
      vertex -0.75 -1.29904 5
    endloop
  endfacet
  facet normal 0.309018 0.951056 0
    outer loop
      vertex -0.75 -1.29904 5
      vertex -0.156793 -1.49178 1.12654
      vertex -0.75 -1.29904 1.12654
    endloop
  endfacet
  facet normal 0.669131 0.743145 0
    outer loop
      vertex -0.75 -1.29904 5
      vertex -0.75 -1.29904 1.12654
      vertex -1.21352 -0.881678 5
    endloop
  endfacet
  facet normal 0.669131 0.743145 0
    outer loop
      vertex -1.21352 -0.881678 5
      vertex -0.75 -1.29904 1.12654
      vertex -1.21352 -0.881678 1.12654
    endloop
  endfacet
  facet normal 0.913545 0.406737 0
    outer loop
      vertex -1.46722 -0.311868 5
      vertex -1.21352 -0.881678 5
      vertex -1.21352 -0.881678 1.12654
    endloop
  endfacet
  facet normal 0.913545 0.406737 0
    outer loop
      vertex -1.46722 -0.311868 1.12654
      vertex -1.46722 -0.311868 5
      vertex -1.21352 -0.881678 1.12654
    endloop
  endfacet
  facet normal 0.0755069 0.150315 0.98575
    outer loop
      vertex 0 16.4719 4.23977
      vertex 0 8.8771 5.39788
      vertex 3.08489 14.9223 4.23977
    endloop
  endfacet
  facet normal -0.282485 0.317565 0.905182
    outer loop
      vertex 3.08489 14.9223 4.23977
      vertex 0 8.8771 5.39788
      vertex 3.08489 6.40576 7.22763
    endloop
  endfacet
  facet normal -0.16876 0.441722 0.881137
    outer loop
      vertex 0 8.8771 5.39788
      vertex 0 5.22718 7.22763
      vertex 3.08489 6.40576 7.22763
    endloop
  endfacet
  facet normal -0.185416 0.48532 0.85445
    outer loop
      vertex 3.08489 6.40576 7.22763
      vertex 0 5.22718 7.22763
      vertex 0.996262 3.44539 8.45585
    endloop
  endfacet
  facet normal 0 -0.0730945 0.997325
    outer loop
      vertex 1.33699 -13.6483 7.45567
      vertex 0 -16.7598 7.22763
      vertex 2.05932 -16.7598 7.22763
    endloop
  endfacet
  facet normal 0 0.141862 0.989887
    outer loop
      vertex 2.05932 -16.7598 7.22763
      vertex 0 -16.7598 7.22763
      vertex 1.07911 -17.797 7.37627
    endloop
  endfacet
  facet normal -0.136454 0 0.990646
    outer loop
      vertex 0 -16.7598 7.22763
      vertex 0 -19.8714 7.22763
      vertex 1.07911 -17.797 7.37627
    endloop
  endfacet
  facet normal 0.136454 0 0.990646
    outer loop
      vertex 0 -16.7598 7.22763
      vertex -1.07911 -17.797 7.37627
      vertex 0 -19.8714 7.22763
    endloop
  endfacet
  facet normal 0.432575 -0.286293 0.854936
    outer loop
      vertex 1.07911 -17.797 7.37627
      vertex 0 -19.8714 7.22763
      vertex 2.05932 -16.7598 7.22763
    endloop
  endfacet
  facet normal 0 0 1
    outer loop
      vertex 2.05932 -16.7598 7.22763
      vertex 0 -19.8714 7.22763
      vertex 2.98511 -18.6268 7.22763
    endloop
  endfacet
  facet normal 0.352993 -0.846628 0.398267
    outer loop
      vertex 2.98511 -18.6268 7.22763
      vertex 0 -19.8714 7.22763
      vertex 3.78209 -19.8714 3.87548
    endloop
  endfacet
  facet normal 0.93614 0.337956 0.0970915
    outer loop
      vertex 3.78209 -19.8714 3.87548
      vertex 2.6588 -16.7598 3.87548
      vertex 2.98511 -18.6268 7.22763
    endloop
  endfacet
  facet normal 0.119274 0.0142453 0.992759
    outer loop
      vertex 5.68152 -1.30182 7.96107
      vertex 0.996262 3.44539 8.45585
      vertex 2.03382 -5.24191 8.45585
    endloop
  endfacet
  facet normal -0.0180481 0.393991 0.918937
    outer loop
      vertex 3.08489 6.40576 7.22763
      vertex 0.996262 3.44539 8.45585
      vertex 4.13927 4.74339 7.96107
    endloop
  endfacet
  facet normal 0.140905 0.0359476 0.98937
    outer loop
      vertex 4.13927 4.74339 7.96107
      vertex 0.996262 3.44539 8.45585
      vertex 5.68152 -1.30182 7.96107
    endloop
  endfacet
  facet normal 0.659297 -0.545375 0.517584
    outer loop
      vertex 5.68152 -1.30182 7.96107
      vertex 2.03382 -5.24191 8.45585
      vertex 2.99804 -5.24191 7.22763
    endloop
  endfacet
  facet normal 0.78657 0 0.6175
    outer loop
      vertex 2.99804 -5.24191 7.22763
      vertex 2.03382 -5.24191 8.45585
      vertex 2.99804 -7.08075 7.22763
    endloop
  endfacet
  facet normal 0.972701 0 0.232063
    outer loop
      vertex 2.99804 -5.24191 7.22763
      vertex 2.99804 -7.08075 7.22763
      vertex 3.79778 -7.08075 3.87548
    endloop
  endfacet
  facet normal 0.972701 0 0.232063
    outer loop
      vertex 3.79778 -5.24191 3.87548
      vertex 2.99804 -5.24191 7.22763
      vertex 3.79778 -7.08075 3.87548
    endloop
  endfacet
  facet normal -0.999615 -0.000645271 -0.0277553
    outer loop
      vertex 7.23213 -8.36745 4.23977
      vertex 7.16378 4.79544 6.39536
      vertex 7.22757 -1.30182 4.23977
    endloop
  endfacet
  facet normal -0.979609 -0.0374136 0.197401
    outer loop
      vertex 7.90207 -10.784 7.10636
      vertex 7.16378 4.79544 6.39536
      vertex 7.23213 -8.36745 4.23977
    endloop
  endfacet
  facet normal 0.0988396 -0.017873 -0.994943
    outer loop
      vertex 6.53223 -12.238 4.23977
      vertex 3.79778 -7.08075 3.87548
      vertex 7.23213 -8.36745 4.23977
    endloop
  endfacet
  facet normal 0 0 -1
    outer loop
      vertex 4.61295 10.703 4.23977
      vertex 5.67147 6.04465 4.23977
      vertex 5.84923 -1.30182 4.23977
    endloop
  endfacet
  facet normal 0 0 -1
    outer loop
      vertex 5.84923 -1.30182 4.23977
      vertex 5.67147 6.04465 4.23977
      vertex 7.93303 7.64688 4.23977
    endloop
  endfacet
  facet normal 0 0 -1
    outer loop
      vertex 5.84923 -1.30182 4.23977
      vertex 7.93303 7.64688 4.23977
      vertex 7.22757 -1.30182 4.23977
    endloop
  endfacet
  facet normal 0 0 -1
    outer loop
      vertex 7.22757 -1.30182 4.23977
      vertex 11.2783 -1.30182 4.23977
      vertex 12.6121 -8.36745 4.23977
    endloop
  endfacet
  facet normal 0 0 -1
    outer loop
      vertex 7.23213 -8.36745 4.23977
      vertex 8.84536 -12.238 4.23977
      vertex 6.53223 -12.238 4.23977
    endloop
  endfacet
  facet normal 0 0 -1
    outer loop
      vertex 7.93303 7.64688 4.23977
      vertex 11.2783 -1.30182 4.23977
      vertex 7.22757 -1.30182 4.23977
    endloop
  endfacet
  facet normal 0 0 -1
    outer loop
      vertex 7.22757 -1.30182 4.23977
      vertex 12.6121 -8.36745 4.23977
      vertex 8.84536 -12.238 4.23977
    endloop
  endfacet
  facet normal 0 0 -1
    outer loop
      vertex 7.22757 -1.30182 4.23977
      vertex 8.84536 -12.238 4.23977
      vertex 7.23213 -8.36745 4.23977
    endloop
  endfacet
  facet normal 0.0231919 0.046674 0.998641
    outer loop
      vertex 10.2204 4.79544 6.32437
      vertex 7.16378 4.79544 6.39536
      vertex 7.90207 -10.784 7.10636
    endloop
  endfacet
  facet normal -0.324488 0.0955212 0.941054
    outer loop
      vertex 10.2204 4.79544 6.32437
      vertex 7.90207 -10.784 7.10636
      vertex 8.53779 -8.6245 7.10636
    endloop
  endfacet
  facet normal 0.906031 -0.266713 -0.328592
    outer loop
      vertex 7.90207 -10.784 7.10636
      vertex 7.31596 -11.32 5.92532
      vertex 8.53779 -8.6245 7.10636
    endloop
  endfacet
  facet normal 0.752428 -0.654216 -0.0765081
    outer loop
      vertex 7.90207 -10.784 7.10636
      vertex 3.8517 -15.2916 5.81648
      vertex 7.31596 -11.32 5.92532
    endloop
  endfacet
  facet normal 0.752672 -0.657478 0.0347612
    outer loop
      vertex 3.8517 -15.2916 5.81648
      vertex 2.6588 -16.7598 3.87548
      vertex 7.31596 -11.32 5.92532
    endloop
  endfacet
  facet normal 0.684843 -0.718325 0.122474
    outer loop
      vertex 3.8517 -15.2916 5.81648
      vertex 2.05932 -16.7598 7.22763
      vertex 2.6588 -16.7598 3.87548
    endloop
  endfacet
  facet normal 0.884612 0.438674 0.1582
    outer loop
      vertex 2.6588 -16.7598 3.87548
      vertex 2.05932 -16.7598 7.22763
      vertex 2.98511 -18.6268 7.22763
    endloop
  endfacet
  facet normal 0.108374 -0.0127529 -0.994028
    outer loop
      vertex 6.53223 -12.238 4.23977
      vertex 2.6588 -16.7598 3.87548
      vertex 3.79778 -7.08075 3.87548
    endloop
  endfacet
  facet normal 0.75941 -0.650611 0.00123012
    outer loop
      vertex 7.31596 -11.32 5.92532
      vertex 2.6588 -16.7598 3.87548
      vertex 6.53223 -12.238 4.23977
    endloop
  endfacet
  facet normal 0.860197 -0.466846 0.205222
    outer loop
      vertex 5.84923 -1.30182 4.23977
      vertex 2.99804 -5.24191 7.22763
      vertex 3.79778 -5.24191 3.87548
    endloop
  endfacet
  facet normal 0.822722 -0.567234 0.0370796
    outer loop
      vertex 5.68152 -1.30182 7.96107
      vertex 2.99804 -5.24191 7.22763
      vertex 5.84923 -1.30182 4.23977
    endloop
  endfacet
  facet normal 0.998906 0.0126371 0.0450201
    outer loop
      vertex 5.84923 -1.30182 4.23977
      vertex 5.67618 2.61501 6.97992
      vertex 5.68152 -1.30182 7.96107
    endloop
  endfacet
  facet normal 0.746416 -0.35902 0.560329
    outer loop
      vertex 7.16378 4.79544 6.39536
      vertex 5.67618 2.61501 6.97992
      vertex 5.84923 -1.30182 4.23977
    endloop
  endfacet
  facet normal 0 -0.333317 0.942815
    outer loop
      vertex 7.16378 4.79544 6.39536
      vertex 5.84923 -1.30182 4.23977
      vertex 7.22757 -1.30182 4.23977
    endloop
  endfacet
  facet normal 0.768986 0.293493 0.56791
    outer loop
      vertex 4.61295 10.703 4.23977
      vertex 4.13927 4.74339 7.96107
      vertex 5.67618 2.61501 6.97992
    endloop
  endfacet
  facet normal 0.214606 0.504975 0.836029
    outer loop
      vertex 4.61295 10.703 4.23977
      vertex 3.08489 6.40576 7.22763
      vertex 4.13927 4.74339 7.96107
    endloop
  endfacet
  facet normal 0.674691 0.244347 0.696481
    outer loop
      vertex 3.08489 14.9223 4.23977
      vertex 3.08489 6.40576 7.22763
      vertex 4.61295 10.703 4.23977
    endloop
  endfacet
  facet normal 0.940078 0.213614 0.265747
    outer loop
      vertex 5.67147 6.04465 4.23977
      vertex 4.61295 10.703 4.23977
      vertex 5.67618 2.61501 6.97992
    endloop
  endfacet
  facet normal 0 0 -1
    outer loop
      vertex -1.21352 0.881678 5
      vertex -0.75 1.29904 5
      vertex -1.46722 0.311868 5
    endloop
  endfacet
  facet normal 0 0 -1
    outer loop
      vertex -1.46722 0.311868 5
      vertex -0.75 1.29904 5
      vertex -0.156793 1.49178 5
    endloop
  endfacet
  facet normal 0 0 -1
    outer loop
      vertex -1.46722 0.311868 5
      vertex -0.156793 1.49178 5
      vertex 0.463525 1.42658 5
    endloop
  endfacet
  facet normal 0 0 -1
    outer loop
      vertex -1.46722 0.311868 5
      vertex 0.463525 1.42658 5
      vertex 1.0037 1.11472 5
    endloop
  endfacet
  facet normal 0 0 -1
    outer loop
      vertex -1.46722 0.311868 5
      vertex 1.0037 1.11472 5
      vertex 1.37032 0.610105 5
    endloop
  endfacet
  facet normal 0 0 -1
    outer loop
      vertex -1.46722 0.311868 5
      vertex 1.37032 0.610105 5
      vertex 1.5 0 5
    endloop
  endfacet
  facet normal 0 0 -1
    outer loop
      vertex -1.46722 0.311868 5
      vertex 1.5 0 5
      vertex 1.37032 -0.610105 5
    endloop
  endfacet
  facet normal 0 0 -1
    outer loop
      vertex -1.46722 0.311868 5
      vertex 1.37032 -0.610105 5
      vertex 1.0037 -1.11472 5
    endloop
  endfacet
  facet normal 0 0 -1
    outer loop
      vertex -1.46722 0.311868 5
      vertex 1.0037 -1.11472 5
      vertex 0.463525 -1.42658 5
    endloop
  endfacet
  facet normal 0 0 -1
    outer loop
      vertex -1.46722 0.311868 5
      vertex 0.463525 -1.42658 5
      vertex -0.156793 -1.49178 5
    endloop
  endfacet
  facet normal 0 0 -1
    outer loop
      vertex -1.46722 0.311868 5
      vertex -0.156793 -1.49178 5
      vertex -0.75 -1.29904 5
    endloop
  endfacet
  facet normal 0 0 -1
    outer loop
      vertex -1.46722 0.311868 5
      vertex -0.75 -1.29904 5
      vertex -1.21352 -0.881678 5
    endloop
  endfacet
  facet normal 0 0 -1
    outer loop
      vertex -1.46722 0.311868 5
      vertex -1.21352 -0.881678 5
      vertex -1.46722 -0.311868 5
    endloop
  endfacet
  facet normal 0.691498 0.176414 0.700506
    outer loop
      vertex 5.67618 2.61501 6.97992
      vertex 4.13927 4.74339 7.96107
      vertex 5.68152 -1.30182 7.96107
    endloop
  endfacet
  facet normal -0.518894 0.533157 0.668201
    outer loop
      vertex 7.16378 4.79544 6.39536
      vertex 5.67147 6.04465 4.23977
      vertex 5.67618 2.61501 6.97992
    endloop
  endfacet
  facet normal -0.435471 0.614667 0.657685
    outer loop
      vertex 7.93303 7.64688 4.23977
      vertex 5.67147 6.04465 4.23977
      vertex 7.16378 4.79544 6.39536
    endloop
  endfacet
  facet normal 0.0185782 0.599744 0.799976
    outer loop
      vertex 7.93303 7.64688 4.23977
      vertex 7.16378 4.79544 6.39536
      vertex 10.2204 4.79544 6.32437
    endloop
  endfacet
  facet normal 0 -0.878204 0.478287
    outer loop
      vertex 7.31596 -11.32 5.92532
      vertex 6.53223 -12.238 4.23977
      vertex 8.84536 -12.238 4.23977
    endloop
  endfacet
  facet normal 0 -0.878204 0.478287
    outer loop
      vertex 9.62909 -11.32 5.92532
      vertex 7.31596 -11.32 5.92532
      vertex 8.84536 -12.238 4.23977
    endloop
  endfacet
  facet normal 0.638947 0.510727 -0.575244
    outer loop
      vertex 8.84536 -12.238 4.23977
      vertex 8.53779 -8.6245 7.10636
      vertex 9.62909 -11.32 5.92532
    endloop
  endfacet
  facet normal 0.518008 -0.504112 0.691041
    outer loop
      vertex 12.6121 -8.36745 4.23977
      vertex 8.53779 -8.6245 7.10636
      vertex 8.84536 -12.238 4.23977
    endloop
  endfacet
  facet normal 0.567584 0.107141 0.816315
    outer loop
      vertex 11.2783 -1.30182 4.23977
      vertex 8.53779 -8.6245 7.10636
      vertex 12.6121 -8.36745 4.23977
    endloop
  endfacet
  facet normal 0.799468 -0.065445 0.597134
    outer loop
      vertex 10.2204 4.79544 6.32437
      vertex 8.53779 -8.6245 7.10636
      vertex 11.2783 -1.30182 4.23977
    endloop
  endfacet
  facet normal 0.821143 0.306968 -0.481139
    outer loop
      vertex 11.2783 -1.30182 4.23977
      vertex 7.93303 7.64688 4.23977
      vertex 10.2204 4.79544 6.32437
    endloop
  endfacet
  facet normal 0 -0.401319 0.915939
    outer loop
      vertex 8.53779 -8.6245 7.10636
      vertex 7.31596 -11.32 5.92532
      vertex 9.62909 -11.32 5.92532
    endloop
  endfacet
endsolid OpenSCAD_Model
