solid OpenSCAD_Model
  facet normal -0.98897 0.0910626 0.116817
    outer loop
      vertex -20.3179 2.95281 1.98051
      vertex -20.514 0.922862 1.9029
      vertex -20.4167 0.922862 2.72666
    endloop
  endfacet
  facet normal -0.955319 -0.273189 0.112842
    outer loop
      vertex -20.4167 0.922862 2.72666
      vertex -20.514 0.922862 1.9029
      vertex -19.5189 -2.76227 1.40585
    endloop
  endfacet
  facet normal -0.268985 0.0570457 -0.961454
    outer loop
      vertex -19.5189 -2.76227 1.40585
      vertex -20.514 0.922862 1.9029
      vertex -18.7183 3.59589 1.55913
    endloop
  endfacet
  facet normal -0.278021 0.0634992 -0.958474
    outer loop
      vertex -18.7183 3.59589 1.55913
      vertex -20.514 0.922862 1.9029
      vertex -20.3179 2.95281 1.98051
    endloop
  endfacet
  facet normal -0.281654 0.906558 0.314362
    outer loop
      vertex -18.7183 3.59589 1.55913
      vertex -20.3179 2.95281 1.98051
      vertex -18.1416 3.26405 3.0328
    endloop
  endfacet
  facet normal -0.38851 0.703146 0.595521
    outer loop
      vertex -18.1416 3.26405 3.0328
      vertex -20.3179 2.95281 1.98051
      vertex -20.1766 2.39892 2.72666
    endloop
  endfacet
  facet normal -0.953752 0.125017 0.273364
    outer loop
      vertex -20.1766 2.39892 2.72666
      vertex -20.3179 2.95281 1.98051
      vertex -20.2741 1.65534 2.72666
    endloop
  endfacet
  facet normal -0.914547 0.178006 0.363206
    outer loop
      vertex -20.3179 2.95281 1.98051
      vertex -20.4167 0.922862 2.72666
      vertex -20.2741 1.65534 2.72666
    endloop
  endfacet
  facet normal -0.150338 0.0292616 0.988202
    outer loop
      vertex -20.2741 1.65534 2.72666
      vertex -20.4167 0.922862 2.72666
      vertex -19.1216 -2.76227 3.0328
    endloop
  endfacet
  facet normal -0.924786 -0.306238 0.225807
    outer loop
      vertex -19.1216 -2.76227 3.0328
      vertex -20.4167 0.922862 2.72666
      vertex -19.5189 -2.76227 1.40585
    endloop
  endfacet
  facet normal -0.866194 -0.452742 0.2115
    outer loop
      vertex -19.5189 -2.76227 1.40585
      vertex -18.0769 -5.52107 1.40585
      vertex -19.1216 -2.76227 3.0328
    endloop
  endfacet
  facet normal -0.866194 -0.452742 0.2115
    outer loop
      vertex -19.1216 -2.76227 3.0328
      vertex -18.0769 -5.52107 1.40585
      vertex -17.6796 -5.52107 3.0328
    endloop
  endfacet
  facet normal 0.0298483 0.0156011 -0.999433
    outer loop
      vertex -18.0769 -5.52107 1.40585
      vertex -19.5189 -2.76227 1.40585
      vertex -17.2763 2.76665 1.55913
    endloop
  endfacet
  facet normal 0.0129233 0.0224722 -0.999664
    outer loop
      vertex -17.2763 2.76665 1.55913
      vertex -19.5189 -2.76227 1.40585
      vertex -18.7183 3.59589 1.55913
    endloop
  endfacet
  facet normal 0.329535 0.573027 0.750364
    outer loop
      vertex -17.2763 2.76665 1.55913
      vertex -18.7183 3.59589 1.55913
      vertex -16.6996 0.505258 3.0328
    endloop
  endfacet
  facet normal 0.861276 0.450171 -0.235688
    outer loop
      vertex -16.6996 0.505258 3.0328
      vertex -18.7183 3.59589 1.55913
      vertex -18.1416 3.26405 3.0328
    endloop
  endfacet
  facet normal 0 0 1
    outer loop
      vertex -18.5395 0.228222 3.0328
      vertex -19.1216 -2.76227 3.0328
      vertex -17.6796 -5.52107 3.0328
    endloop
  endfacet
  facet normal 0 0 1
    outer loop
      vertex -17.0976 -2.53057 3.0328
      vertex -18.5395 0.228222 3.0328
      vertex -15.8775 -7.04283 3.0328
    endloop
  endfacet
  facet normal 0 0 1
    outer loop
      vertex -15.8775 -7.04283 3.0328
      vertex -18.5395 0.228222 3.0328
      vertex -17.6796 -5.52107 3.0328
    endloop
  endfacet
  facet normal 0 0 1
    outer loop
      vertex -16.6996 0.505258 3.0328
      vertex -18.5395 0.228222 3.0328
      vertex -17.0976 -2.53057 3.0328
    endloop
  endfacet
  facet normal 0 0 1
    outer loop
      vertex -18.1416 3.26405 3.0328
      vertex -18.5395 0.228222 3.0328
      vertex -16.6996 0.505258 3.0328
    endloop
  endfacet
  facet normal -0.157296 0.0206184 0.987336
    outer loop
      vertex -18.1416 3.26405 3.0328
      vertex -20.1766 2.39892 2.72666
      vertex -18.5395 0.228222 3.0328
    endloop
  endfacet
  facet normal -0.157296 0.0206183 0.987336
    outer loop
      vertex -20.1766 2.39892 2.72666
      vertex -20.2741 1.65534 2.72666
      vertex -18.5395 0.228222 3.0328
    endloop
  endfacet
  facet normal -0.150338 0.0292617 0.988202
    outer loop
      vertex -18.5395 0.228222 3.0328
      vertex -20.2741 1.65534 2.72666
      vertex -19.1216 -2.76227 3.0328
    endloop
  endfacet
  facet normal -0.637319 -0.754724 0.155616
    outer loop
      vertex -15.8775 -7.04283 3.0328
      vertex -17.6796 -5.52107 3.0328
      vertex -16.2748 -7.04283 1.40585
    endloop
  endfacet
  facet normal -0.637319 -0.754724 0.155615
    outer loop
      vertex -17.6796 -5.52107 3.0328
      vertex -18.0769 -5.52107 1.40585
      vertex -16.2748 -7.04283 1.40585
    endloop
  endfacet
  facet normal 0.0123419 0.0146155 -0.999817
    outer loop
      vertex -16.2748 -7.04283 1.40585
      vertex -18.0769 -5.52107 1.40585
      vertex -15.4742 2.76665 1.55913
    endloop
  endfacet
  facet normal 0 0.0184916 -0.999829
    outer loop
      vertex -15.4742 2.76665 1.55913
      vertex -18.0769 -5.52107 1.40585
      vertex -17.2763 2.76665 1.55913
    endloop
  endfacet
  facet normal 0 0.545969 0.837806
    outer loop
      vertex -15.4742 2.76665 1.55913
      vertex -17.2763 2.76665 1.55913
      vertex -16.6996 0.505258 3.0328
    endloop
  endfacet
  facet normal 0 0.545969 0.837806
    outer loop
      vertex -14.8975 0.505258 3.0328
      vertex -15.4742 2.76665 1.55913
      vertex -16.6996 0.505258 3.0328
    endloop
  endfacet
  facet normal 0 0.206765 0.978391
    outer loop
      vertex -14.8975 0.505258 3.0328
      vertex -16.6996 0.505258 3.0328
      vertex -15.2955 -2.53057 3.67437
    endloop
  endfacet
  facet normal -0.335067 0.0439207 0.94117
    outer loop
      vertex -16.6996 0.505258 3.0328
      vertex -17.0976 -2.53057 3.0328
      vertex -15.2955 -2.53057 3.67437
    endloop
  endfacet
  facet normal -0.33402 -0.0903131 0.938229
    outer loop
      vertex -15.2955 -2.53057 3.67437
      vertex -17.0976 -2.53057 3.0328
      vertex -15.8775 -7.04283 3.0328
    endloop
  endfacet
  facet normal -0.049083 -0.134389 0.989712
    outer loop
      vertex -15.2955 -2.53057 3.67437
      vertex -15.8775 -7.04283 3.0328
      vertex -14.0749 -7.70121 3.0328
    endloop
  endfacet
  facet normal -0.341868 -0.936033 0.0834743
    outer loop
      vertex -14.0749 -7.70121 3.0328
      vertex -15.8775 -7.04283 3.0328
      vertex -14.4721 -7.70121 1.40585
    endloop
  endfacet
  facet normal -0.341868 -0.936033 0.0834746
    outer loop
      vertex -15.8775 -7.04283 3.0328
      vertex -16.2748 -7.04283 1.40585
      vertex -14.4721 -7.70121 1.40585
    endloop
  endfacet
  facet normal 0.00606421 0.0166038 -0.999844
    outer loop
      vertex -14.4721 -7.70121 1.40585
      vertex -16.2748 -7.04283 1.40585
      vertex -13.6716 1.23652 1.55913
    endloop
  endfacet
  facet normal 0.0124019 0.0146106 -0.999816
    outer loop
      vertex -13.6716 1.23652 1.55913
      vertex -16.2748 -7.04283 1.40585
      vertex -15.4742 2.76665 1.55913
    endloop
  endfacet
  facet normal 0.477039 0.561998 0.675716
    outer loop
      vertex -13.6716 1.23652 1.55913
      vertex -15.4742 2.76665 1.55913
      vertex -13.0949 -1.02487 3.0328
    endloop
  endfacet
  facet normal 0.477039 0.561998 0.675716
    outer loop
      vertex -13.0949 -1.02487 3.0328
      vertex -15.4742 2.76665 1.55913
      vertex -14.8975 0.505258 3.0328
    endloop
  endfacet
  facet normal 0 0 1
    outer loop
      vertex -13.0949 -1.02487 3.0328
      vertex -14.8975 0.505258 3.0328
      vertex -13.4928 -4.0607 3.0328
    endloop
  endfacet
  facet normal 0.430155 0.132335 0.893003
    outer loop
      vertex -14.8975 0.505258 3.0328
      vertex -15.2955 -2.53057 3.67437
      vertex -13.4928 -4.0607 3.0328
    endloop
  endfacet
  facet normal 0.298695 -0.0477575 0.953153
    outer loop
      vertex -13.4928 -4.0607 3.0328
      vertex -15.2955 -2.53057 3.67437
      vertex -14.0749 -7.70121 3.0328
    endloop
  endfacet
  facet normal 0 0 1
    outer loop
      vertex -13.4928 -4.0607 3.0328
      vertex -14.0749 -7.70121 3.0328
      vertex -12.4789 -7.06161 3.0328
    endloop
  endfacet
  facet normal 0.370466 -0.924431 -0.0904571
    outer loop
      vertex -14.0749 -7.70121 3.0328
      vertex -14.4721 -7.70121 1.40585
      vertex -12.8761 -7.06161 1.40585
    endloop
  endfacet
  facet normal 0.370466 -0.924431 -0.0904571
    outer loop
      vertex -12.4789 -7.06161 3.0328
      vertex -14.0749 -7.70121 3.0328
      vertex -12.8761 -7.06161 1.40585
    endloop
  endfacet
  facet normal -0.00684843 0.017089 -0.999831
    outer loop
      vertex -12.4879 -1.07874 1.50545
      vertex -12.0756 2.22712 1.55913
      vertex -12.3472 -0.924435 1.50712
    endloop
  endfacet
  facet normal -0.00684843 0.017089 -0.999831
    outer loop
      vertex -12.7202 -1.67844 1.49679
      vertex -12.0756 2.22712 1.55913
      vertex -12.4879 -1.07874 1.50545
    endloop
  endfacet
  facet normal -0.00684843 0.017089 -0.999831
    outer loop
      vertex -14.4721 -7.70121 1.40585
      vertex -12.0756 2.22712 1.55913
      vertex -12.7202 -1.67844 1.49679
    endloop
  endfacet
  facet normal -0.00684843 0.017089 -0.999831
    outer loop
      vertex -14.4721 -7.70121 1.40585
      vertex -12.7202 -2.32156 1.4858
      vertex -12.8761 -7.06161 1.40585
    endloop
  endfacet
  facet normal -0.00684843 0.017089 -0.999831
    outer loop
      vertex -12.7202 -2.32156 1.4858
      vertex -12.5136 -2.8549 1.47527
      vertex -12.8761 -7.06161 1.40585
    endloop
  endfacet
  facet normal -0.00684843 0.017089 -0.999831
    outer loop
      vertex -12.7202 -2.32156 1.4858
      vertex -14.4721 -7.70121 1.40585
      vertex -12.7202 -1.67844 1.49679
    endloop
  endfacet
  facet normal -0.0112684 0.018155 -0.999772
    outer loop
      vertex -12.0756 2.22712 1.55913
      vertex -14.4721 -7.70121 1.40585
      vertex -13.6716 1.23652 1.55913
    endloop
  endfacet
  facet normal -0.291153 0.469091 0.833776
    outer loop
      vertex -12.0756 2.22712 1.55913
      vertex -13.6716 1.23652 1.55913
      vertex -11.4989 -0.034267 3.0328
    endloop
  endfacet
  facet normal -0.291153 0.469091 0.833776
    outer loop
      vertex -11.4989 -0.034267 3.0328
      vertex -13.6716 1.23652 1.55913
      vertex -13.0949 -1.02487 3.0328
    endloop
  endfacet
  facet normal -0.0658158 0.106039 0.992181
    outer loop
      vertex -11.4989 -0.034267 3.0328
      vertex -13.0949 -1.02487 3.0328
      vertex -11.8968 -3.0701 3.33086
    endloop
  endfacet
  facet normal -0.199149 0.0261044 0.979622
    outer loop
      vertex -13.0949 -1.02487 3.0328
      vertex -13.4928 -4.0607 3.0328
      vertex -11.8968 -3.0701 3.33086
    endloop
  endfacet
  facet normal -0.152368 -0.0514812 0.986982
    outer loop
      vertex -11.8968 -3.0701 3.33086
      vertex -13.4928 -4.0607 3.0328
      vertex -12.4789 -7.06161 3.0328
    endloop
  endfacet
  facet normal -0.0238657 -0.0709827 0.997192
    outer loop
      vertex -11.8968 -3.0701 3.33086
      vertex -12.4789 -7.06161 3.0328
      vertex -6.89152 -6.19596 3.22814
    endloop
  endfacet
  facet normal 0.155438 -0.984229 -0.0844502
    outer loop
      vertex -6.89152 -6.19596 3.22814
      vertex -12.4789 -7.06161 3.0328
      vertex -8.05388 -6.19596 1.0887
    endloop
  endfacet
  facet normal 0.173822 -0.983862 -0.0424424
    outer loop
      vertex -12.4789 -7.06161 3.0328
      vertex -12.8761 -7.06161 1.40585
      vertex -8.05388 -6.19596 1.0887
    endloop
  endfacet
  facet normal -0.0595441 0.0216003 -0.997992
    outer loop
      vertex -12.8761 -7.06161 1.40585
      vertex -12.5136 -2.8549 1.47527
      vertex -12.4879 -2.92126 1.4723
    endloop
  endfacet
  facet normal -0.0595441 0.0216003 -0.997992
    outer loop
      vertex -12.8761 -7.06161 1.40585
      vertex -12.4879 -2.92126 1.4723
      vertex -12.0546 -3.39653 1.43616
    endloop
  endfacet
  facet normal -0.0595441 0.0216003 -0.997992
    outer loop
      vertex -12.8761 -7.06161 1.40585
      vertex -12.0546 -3.39653 1.43616
      vertex -11.4789 -3.68319 1.39561
    endloop
  endfacet
  facet normal -0.0595441 0.0216003 -0.997992
    outer loop
      vertex -12.8761 -7.06161 1.40585
      vertex -11.4789 -3.68319 1.39561
      vertex -11.1477 -3.71388 1.37518
    endloop
  endfacet
  facet normal -0.0704721 0.02725 -0.997141
    outer loop
      vertex -12.8761 -7.06161 1.40585
      vertex -11.1477 -3.71388 1.37518
      vertex -8.05388 -6.19596 1.0887
    endloop
  endfacet
  facet normal -0.0704721 0.02725 -0.997141
    outer loop
      vertex -8.05388 -6.19596 1.0887
      vertex -11.1477 -3.71388 1.37518
      vertex -10.8385 -3.74253 1.35255
    endloop
  endfacet
  facet normal -0.0704721 0.02725 -0.997141
    outer loop
      vertex -8.05388 -6.19596 1.0887
      vertex -10.8385 -3.74253 1.35255
      vertex -10.22 -3.56654 1.31364
    endloop
  endfacet
  facet normal -0.0704721 0.02725 -0.997141
    outer loop
      vertex -10.22 -3.56654 1.31364
      vertex -9.70673 -3.17897 1.28796
      vertex -8.05388 -6.19596 1.0887
    endloop
  endfacet
  facet normal -0.0704721 0.02725 -0.997141
    outer loop
      vertex -9.70673 -3.17897 1.28796
      vertex -9.36817 -2.63217 1.27898
      vertex -8.05388 -6.19596 1.0887
    endloop
  endfacet
  facet normal -0.0704721 0.02725 -0.997141
    outer loop
      vertex -9.36817 -2.63217 1.27898
      vertex -9.25 -2 1.2879
      vertex -8.05388 -6.19596 1.0887
    endloop
  endfacet
  facet normal -0.0704721 0.02725 -0.997141
    outer loop
      vertex -9.25 -2 1.2879
      vertex -9.36817 -1.36783 1.31353
      vertex -8.05388 -6.19596 1.0887
    endloop
  endfacet
  facet normal -0.0704721 0.02725 -0.997141
    outer loop
      vertex -9.36817 -1.36783 1.31353
      vertex -9.67808 -0.867306 1.34911
      vertex -6.36119 5.55718 1.29026
    endloop
  endfacet
  facet normal -0.0704721 0.02725 -0.997141
    outer loop
      vertex -9.36817 -1.36783 1.31353
      vertex -6.36119 5.55718 1.29026
      vertex -8.05388 -6.19596 1.0887
    endloop
  endfacet
  facet normal 0.932472 0.361242 0
    outer loop
      vertex -12.7202 -2.32156 2.625
      vertex -12.4879 -2.92126 2.625
      vertex -12.4879 -2.92126 1.4723
    endloop
  endfacet
  facet normal 0.932472 0.361242 0
    outer loop
      vertex -12.7202 -2.32156 1.4858
      vertex -12.7202 -2.32156 2.625
      vertex -12.5136 -2.8549 1.47527
    endloop
  endfacet
  facet normal 0.932472 0.361242 0
    outer loop
      vertex -12.5136 -2.8549 1.47527
      vertex -12.7202 -2.32156 2.625
      vertex -12.4879 -2.92126 1.4723
    endloop
  endfacet
  facet normal 1 0 0
    outer loop
      vertex -12.7202 -1.67844 1.49679
      vertex -12.7202 -1.67844 2.625
      vertex -12.7202 -2.32156 2.625
    endloop
  endfacet
  facet normal 1 0 0
    outer loop
      vertex -12.7202 -2.32156 1.4858
      vertex -12.7202 -1.67844 1.49679
      vertex -12.7202 -2.32156 2.625
    endloop
  endfacet
  facet normal 0.932472 -0.361242 0
    outer loop
      vertex -12.4879 -1.07874 1.50545
      vertex -12.4879 -1.07874 2.625
      vertex -12.7202 -1.67844 2.625
    endloop
  endfacet
  facet normal 0.932472 -0.361242 0
    outer loop
      vertex -12.7202 -1.67844 1.49679
      vertex -12.4879 -1.07874 1.50545
      vertex -12.7202 -1.67844 2.625
    endloop
  endfacet
  facet normal 0.739009 -0.673695 0
    outer loop
      vertex -12.3472 -0.924435 1.50712
      vertex -12.0546 -0.60347 1.49661
      vertex -12.0546 -0.60347 2.625
    endloop
  endfacet
  facet normal 0.739009 -0.673695 0
    outer loop
      vertex -12.4879 -1.07874 1.50545
      vertex -12.3472 -0.924435 1.50712
      vertex -12.4879 -1.07874 2.625
    endloop
  endfacet
  facet normal 0.739009 -0.673695 0
    outer loop
      vertex -12.4879 -1.07874 2.625
      vertex -12.3472 -0.924435 1.50712
      vertex -12.0546 -0.60347 2.625
    endloop
  endfacet
  facet normal -0.0595441 0.0216003 -0.997992
    outer loop
      vertex -12.3472 -0.924435 1.50712
      vertex -12.0756 2.22712 1.55913
      vertex -12.0546 -0.60347 1.49661
    endloop
  endfacet
  facet normal -0.0595441 0.0216003 -0.997992
    outer loop
      vertex -12.0546 -0.60347 1.49661
      vertex -12.0756 2.22712 1.55913
      vertex -6.36119 5.55718 1.29026
    endloop
  endfacet
  facet normal -0.0595441 0.0216003 -0.997992
    outer loop
      vertex -6.36119 5.55718 1.29026
      vertex -9.67808 -0.867306 1.34911
      vertex -9.70673 -0.821033 1.35182
    endloop
  endfacet
  facet normal -0.0595441 0.0216003 -0.997992
    outer loop
      vertex -6.36119 5.55718 1.29026
      vertex -9.70673 -0.821033 1.35182
      vertex -10.22 -0.433464 1.39083
    endloop
  endfacet
  facet normal -0.0595441 0.0216003 -0.997992
    outer loop
      vertex -6.36119 5.55718 1.29026
      vertex -10.22 -0.433464 1.39083
      vertex -10.8385 -0.257465 1.43155
    endloop
  endfacet
  facet normal -0.0595441 0.0216003 -0.997992
    outer loop
      vertex -6.36119 5.55718 1.29026
      vertex -10.8385 -0.257465 1.43155
      vertex -11.4789 -0.316805 1.46847
    endloop
  endfacet
  facet normal -0.0595441 0.0216003 -0.997992
    outer loop
      vertex -12.0546 -0.60347 1.49661
      vertex -6.36119 5.55718 1.29026
      vertex -11.4789 -0.316805 1.46847
    endloop
  endfacet
  facet normal -0.243268 0.48526 0.839847
    outer loop
      vertex -6.36119 5.55718 1.29026
      vertex -12.0756 2.22712 1.55913
      vertex -11.4989 -0.034267 3.0328
    endloop
  endfacet
  facet normal -0.243268 0.48526 0.839847
    outer loop
      vertex -6.36119 5.55718 1.29026
      vertex -11.4989 -0.034267 3.0328
      vertex -5.60281 2.58344 3.22814
    endloop
  endfacet
  facet normal -0.0351558 0.00460823 0.999371
    outer loop
      vertex -5.60281 2.58344 3.22814
      vertex -11.4989 -0.034267 3.0328
      vertex -6.12609 -1.40868 3.22814
    endloop
  endfacet
  facet normal -0.0108232 0.0991092 0.995018
    outer loop
      vertex -11.4989 -0.034267 3.0328
      vertex -11.8968 -3.0701 3.33086
      vertex -6.12609 -1.40868 3.22814
    endloop
  endfacet
  facet normal 0.0186551 -0.00298271 0.999822
    outer loop
      vertex -6.12609 -1.40868 3.22814
      vertex -11.8968 -3.0701 3.33086
      vertex -6.89152 -6.19596 3.22814
    endloop
  endfacet
  facet normal -0.89673 0.143376 0.41871
    outer loop
      vertex -6.12609 -1.40868 3.22814
      vertex -6.89152 -6.19596 3.22814
      vertex -6.77313 -12.8912 5.77426
    endloop
  endfacet
  facet normal -0.981317 0.0529859 0.184957
    outer loop
      vertex -6.89152 -6.19596 3.22814
      vertex -7.98619 -12.8912 -0.661766
      vertex -6.77313 -12.8912 5.77426
    endloop
  endfacet
  facet normal -0.870939 -0.13252 0.473184
    outer loop
      vertex -6.89152 -6.19596 3.22814
      vertex -8.05388 -6.19596 1.0887
      vertex -7.98619 -12.8912 -0.661766
    endloop
  endfacet
  facet normal -0.922214 0.0890552 -0.376284
    outer loop
      vertex -7.98619 -12.8912 -0.661766
      vertex -8.05388 -6.19596 1.0887
      vertex -5.54164 14.4011 -0.193714
    endloop
  endfacet
  facet normal -0.954987 0.13299 0.265166
    outer loop
      vertex -5.54164 14.4011 -0.193714
      vertex -8.05388 -6.19596 1.0887
      vertex -6.36119 5.55718 1.29026
    endloop
  endfacet
  facet normal 0.0922684 0.995734 0
    outer loop
      vertex -10.8385 -3.74253 2.625
      vertex -10.8385 -3.74253 1.35255
      vertex -11.4789 -3.68319 2.625
    endloop
  endfacet
  facet normal 0.0922684 0.995734 0
    outer loop
      vertex -11.4789 -3.68319 2.625
      vertex -10.8385 -3.74253 1.35255
      vertex -11.1477 -3.71388 1.37518
    endloop
  endfacet
  facet normal 0.0922684 0.995734 0
    outer loop
      vertex -11.4789 -3.68319 2.625
      vertex -11.1477 -3.71388 1.37518
      vertex -11.4789 -3.68319 1.39561
    endloop
  endfacet
  facet normal 0.445738 0.895163 0
    outer loop
      vertex -11.4789 -3.68319 2.625
      vertex -11.4789 -3.68319 1.39561
      vertex -12.0546 -3.39653 2.625
    endloop
  endfacet
  facet normal 0.445738 0.895163 0
    outer loop
      vertex -12.0546 -3.39653 2.625
      vertex -11.4789 -3.68319 1.39561
      vertex -12.0546 -3.39653 1.43616
    endloop
  endfacet
  facet normal 0.739009 0.673695 0
    outer loop
      vertex -12.4879 -2.92126 2.625
      vertex -12.0546 -3.39653 2.625
      vertex -12.0546 -3.39653 1.43616
    endloop
  endfacet
  facet normal 0.739009 0.673695 0
    outer loop
      vertex -12.4879 -2.92126 1.4723
      vertex -12.4879 -2.92126 2.625
      vertex -12.0546 -3.39653 1.43616
    endloop
  endfacet
  facet normal -0.883757 0.155928 0.441203
    outer loop
      vertex -5.54164 14.4011 -0.193714
      vertex -6.36119 5.55718 1.29026
      vertex -3.78058 7.49572 5.77426
    endloop
  endfacet
  facet normal -0.87874 0.0822817 0.470155
    outer loop
      vertex -3.78058 7.49572 5.77426
      vertex -6.36119 5.55718 1.29026
      vertex -5.60281 2.58344 3.22814
    endloop
  endfacet
  facet normal -0.850217 -0.526432 0
    outer loop
      vertex -9.36817 -1.36783 1.31353
      vertex -9.36817 -1.36783 2.625
      vertex -9.67808 -0.867306 1.34911
    endloop
  endfacet
  facet normal -0.850217 -0.526432 0
    outer loop
      vertex -9.67808 -0.867306 1.34911
      vertex -9.36817 -1.36783 2.625
      vertex -9.70673 -0.821033 2.625
    endloop
  endfacet
  facet normal -0.850217 -0.526432 0
    outer loop
      vertex -9.67808 -0.867306 1.34911
      vertex -9.70673 -0.821033 2.625
      vertex -9.70673 -0.821033 1.35182
    endloop
  endfacet
  facet normal -0.982973 -0.18375 0
    outer loop
      vertex -9.25 -2 2.625
      vertex -9.36817 -1.36783 2.625
      vertex -9.25 -2 1.2879
    endloop
  endfacet
  facet normal -0.982973 -0.18375 0
    outer loop
      vertex -9.25 -2 1.2879
      vertex -9.36817 -1.36783 2.625
      vertex -9.36817 -1.36783 1.31353
    endloop
  endfacet
  facet normal -0.982973 0.18375 0
    outer loop
      vertex -9.25 -2 2.625
      vertex -9.25 -2 1.2879
      vertex -9.36817 -2.63217 2.625
    endloop
  endfacet
  facet normal -0.982973 0.18375 0
    outer loop
      vertex -9.36817 -2.63217 2.625
      vertex -9.25 -2 1.2879
      vertex -9.36817 -2.63217 1.27898
    endloop
  endfacet
  facet normal -0.850217 0.526432 0
    outer loop
      vertex -9.36817 -2.63217 2.625
      vertex -9.36817 -2.63217 1.27898
      vertex -9.70673 -3.17897 2.625
    endloop
  endfacet
  facet normal -0.850217 0.526432 0
    outer loop
      vertex -9.70673 -3.17897 2.625
      vertex -9.36817 -2.63217 1.27898
      vertex -9.70673 -3.17897 1.28796
    endloop
  endfacet
  facet normal -0.602635 0.798017 0
    outer loop
      vertex -9.70673 -3.17897 2.625
      vertex -9.70673 -3.17897 1.28796
      vertex -10.22 -3.56654 2.625
    endloop
  endfacet
  facet normal -0.602635 0.798017 0
    outer loop
      vertex -10.22 -3.56654 2.625
      vertex -9.70673 -3.17897 1.28796
      vertex -10.22 -3.56654 1.31364
    endloop
  endfacet
  facet normal -0.273663 0.961826 0
    outer loop
      vertex -10.22 -3.56654 2.625
      vertex -10.22 -3.56654 1.31364
      vertex -10.8385 -3.74253 2.625
    endloop
  endfacet
  facet normal -0.273663 0.961826 0
    outer loop
      vertex -10.8385 -3.74253 2.625
      vertex -10.22 -3.56654 1.31364
      vertex -10.8385 -3.74253 1.35255
    endloop
  endfacet
  facet normal 0 0 -1
    outer loop
      vertex -12.4879 -1.07874 2.625
      vertex -12.0546 -0.60347 2.625
      vertex -12.7202 -1.67844 2.625
    endloop
  endfacet
  facet normal 0 0 -1
    outer loop
      vertex -12.7202 -1.67844 2.625
      vertex -12.0546 -0.60347 2.625
      vertex -11.4789 -0.316805 2.625
    endloop
  endfacet
  facet normal 0 0 -1
    outer loop
      vertex -12.7202 -1.67844 2.625
      vertex -11.4789 -0.316805 2.625
      vertex -10.8385 -0.257465 2.625
    endloop
  endfacet
  facet normal 0 0 -1
    outer loop
      vertex -12.7202 -1.67844 2.625
      vertex -10.8385 -0.257465 2.625
      vertex -10.22 -0.433464 2.625
    endloop
  endfacet
  facet normal 0 0 -1
    outer loop
      vertex -12.7202 -1.67844 2.625
      vertex -10.22 -0.433464 2.625
      vertex -9.70673 -0.821033 2.625
    endloop
  endfacet
  facet normal 0 0 -1
    outer loop
      vertex -12.7202 -1.67844 2.625
      vertex -9.70673 -0.821033 2.625
      vertex -9.36817 -1.36783 2.625
    endloop
  endfacet
  facet normal 0 0 -1
    outer loop
      vertex -12.7202 -1.67844 2.625
      vertex -9.36817 -1.36783 2.625
      vertex -9.25 -2 2.625
    endloop
  endfacet
  facet normal 0 0 -1
    outer loop
      vertex -12.7202 -1.67844 2.625
      vertex -9.25 -2 2.625
      vertex -9.36817 -2.63217 2.625
    endloop
  endfacet
  facet normal 0 0 -1
    outer loop
      vertex -12.7202 -1.67844 2.625
      vertex -9.36817 -2.63217 2.625
      vertex -9.70673 -3.17897 2.625
    endloop
  endfacet
  facet normal 0 0 -1
    outer loop
      vertex -12.7202 -1.67844 2.625
      vertex -9.70673 -3.17897 2.625
      vertex -10.22 -3.56654 2.625
    endloop
  endfacet
  facet normal 0 0 -1
    outer loop
      vertex -12.7202 -1.67844 2.625
      vertex -10.22 -3.56654 2.625
      vertex -10.8385 -3.74253 2.625
    endloop
  endfacet
  facet normal 0 0 -1
    outer loop
      vertex -12.7202 -1.67844 2.625
      vertex -10.8385 -3.74253 2.625
      vertex -11.4789 -3.68319 2.625
    endloop
  endfacet
  facet normal 0 0 -1
    outer loop
      vertex -12.7202 -1.67844 2.625
      vertex -11.4789 -3.68319 2.625
      vertex -12.0546 -3.39653 2.625
    endloop
  endfacet
  facet normal 0 0 -1
    outer loop
      vertex -12.7202 -1.67844 2.625
      vertex -12.0546 -3.39653 2.625
      vertex -12.4879 -2.92126 2.625
    endloop
  endfacet
  facet normal 0 0 -1
    outer loop
      vertex -12.7202 -1.67844 2.625
      vertex -12.4879 -2.92126 2.625
      vertex -12.7202 -2.32156 2.625
    endloop
  endfacet
  facet normal 0.445738 -0.895163 0
    outer loop
      vertex -11.4789 -0.316805 1.46847
      vertex -11.4789 -0.316805 2.625
      vertex -12.0546 -0.60347 2.625
    endloop
  endfacet
  facet normal 0.445738 -0.895163 0
    outer loop
      vertex -12.0546 -0.60347 1.49661
      vertex -11.4789 -0.316805 1.46847
      vertex -12.0546 -0.60347 2.625
    endloop
  endfacet
  facet normal 0.0922684 -0.995734 0
    outer loop
      vertex -10.8385 -0.257465 1.43155
      vertex -10.8385 -0.257465 2.625
      vertex -11.4789 -0.316805 2.625
    endloop
  endfacet
  facet normal 0.0922684 -0.995734 0
    outer loop
      vertex -11.4789 -0.316805 1.46847
      vertex -10.8385 -0.257465 1.43155
      vertex -11.4789 -0.316805 2.625
    endloop
  endfacet
  facet normal -0.273663 -0.961826 0
    outer loop
      vertex -10.22 -0.433464 1.39083
      vertex -10.22 -0.433464 2.625
      vertex -10.8385 -0.257465 2.625
    endloop
  endfacet
  facet normal -0.273663 -0.961826 0
    outer loop
      vertex -10.8385 -0.257465 1.43155
      vertex -10.22 -0.433464 1.39083
      vertex -10.8385 -0.257465 2.625
    endloop
  endfacet
  facet normal -0.602635 -0.798017 0
    outer loop
      vertex -9.70673 -0.821033 1.35182
      vertex -9.70673 -0.821033 2.625
      vertex -10.22 -0.433464 2.625
    endloop
  endfacet
  facet normal -0.602635 -0.798017 0
    outer loop
      vertex -10.22 -0.433464 1.39083
      vertex -9.70673 -0.821033 1.35182
      vertex -10.22 -0.433464 2.625
    endloop
  endfacet
  facet normal -0.901172 0.118126 0.417055
    outer loop
      vertex -3.78058 7.49572 5.77426
      vertex -5.60281 2.58344 3.22814
      vertex -4.99572 -1.77449 5.77426
    endloop
  endfacet
  facet normal -0.901172 0.118126 0.417055
    outer loop
      vertex -5.60281 2.58344 3.22814
      vertex -6.12609 -1.40868 3.22814
      vertex -4.99572 -1.77449 5.77426
    endloop
  endfacet
  facet normal -0.89673 0.143376 0.41871
    outer loop
      vertex -6.12609 -1.40868 3.22814
      vertex -6.77313 -12.8912 5.77426
      vertex -4.99572 -1.77449 5.77426
    endloop
  endfacet
  facet normal -0.636572 -0.761827 0.11998
    outer loop
      vertex -6.77313 -12.8912 5.77426
      vertex -7.98619 -12.8912 -0.661766
      vertex -4.60217 -15.7188 -0.661766
    endloop
  endfacet
  facet normal 0 0 1
    outer loop
      vertex -4.99572 -1.77449 5.77426
      vertex -6.77313 -12.8912 5.77426
      vertex -3.68049 -15.7188 5.77426
    endloop
  endfacet
  facet normal 0 0 1
    outer loop
      vertex -3.78058 7.49572 5.77426
      vertex -4.99572 -1.77449 5.77426
      vertex -3.68049 -15.7188 5.77426
    endloop
  endfacet
  facet normal -0.67165 -0.734598 0.0961852
    outer loop
      vertex -3.68049 -15.7188 5.77426
      vertex -6.77313 -12.8912 5.77426
      vertex -4.60217 -15.7188 -0.661766
    endloop
  endfacet
  facet normal -0.512789 -0.613687 -0.600363
    outer loop
      vertex -4.60217 -15.7188 -0.661766
      vertex -7.98619 -12.8912 -0.661766
      vertex -1.94483 -15.7188 -2.93148
    endloop
  endfacet
  facet normal -0.408708 -0.150689 -0.900139
    outer loop
      vertex -1.94483 -15.7188 -2.93148
      vertex -7.98619 -12.8912 -0.661766
      vertex -4.41651 -9.01499 -2.93148
    endloop
  endfacet
  facet normal -0.557761 0.027922 -0.829532
    outer loop
      vertex -4.41651 -9.01499 -2.93148
      vertex -7.98619 -12.8912 -0.661766
      vertex -3.24428 14.4011 -2.93148
    endloop
  endfacet
  facet normal -0.763612 0.0793853 -0.640776
    outer loop
      vertex -3.24428 14.4011 -2.93148
      vertex -7.98619 -12.8912 -0.661766
      vertex -5.54164 14.4011 -0.193714
    endloop
  endfacet
  facet normal -0.760156 0.123596 -0.637876
    outer loop
      vertex -3.24428 14.4011 -2.93148
      vertex -5.54164 14.4011 -0.193714
      vertex -2.00472 22.0248 -2.93148
    endloop
  endfacet
  facet normal -0.847947 0.220245 -0.48216
    outer loop
      vertex -2.00472 22.0248 -2.93148
      vertex -5.54164 14.4011 -0.193714
      vertex -3.78058 21.1812 -0.193714
    endloop
  endfacet
  facet normal -0.838523 0.217798 0.499443
    outer loop
      vertex -3.78058 21.1812 -0.193714
      vertex -5.54164 14.4011 -0.193714
      vertex -3.78058 7.49572 5.77426
    endloop
  endfacet
  facet normal -0.306307 -0.00132072 0.951932
    outer loop
      vertex 0 -12.0858 6.96359
      vertex -3.78058 7.49572 5.77426
      vertex -3.68049 -15.7188 5.77426
    endloop
  endfacet
  facet normal 0.196269 0.391952 0.898806
    outer loop
      vertex -3.78058 21.1812 -0.193714
      vertex -3.78058 7.49572 5.77426
      vertex 0 7.49572 4.94871
    endloop
  endfacet
  facet normal 0.212269 0.100024 0.972079
    outer loop
      vertex 0 7.49572 4.94871
      vertex -3.78058 7.49572 5.77426
      vertex 0 -12.0858 6.96359
    endloop
  endfacet
  facet normal -0.152912 -0.987997 0.021898
    outer loop
      vertex -3.68049 -15.7188 5.77426
      vertex -4.60217 -15.7188 -0.661766
      vertex 0 -16.3287 3.95804
    endloop
  endfacet
  facet normal -0.131372 -0.991333 5.75561e-07
    outer loop
      vertex 0 -16.3287 3.95804
      vertex -4.60217 -15.7188 -0.661766
      vertex 0 -16.3287 -2.93148
    endloop
  endfacet
  facet normal -0.282395 -0.900524 -0.330621
    outer loop
      vertex 0 -16.3287 -2.93148
      vertex -4.60217 -15.7188 -0.661766
      vertex -1.94483 -15.7188 -2.93148
    endloop
  endfacet
  facet normal 0.293388 -0.552603 0.780098
    outer loop
      vertex 0 -12.0858 6.96359
      vertex -3.68049 -15.7188 5.77426
      vertex 0 -16.3287 3.95804
    endloop
  endfacet
  facet normal 0 0 -1
    outer loop
      vertex -4.41651 -9.01499 -2.93148
      vertex -3.24428 14.4011 -2.93148
      vertex -1.94483 -15.7188 -2.93148
    endloop
  endfacet
  facet normal 0 0 -1
    outer loop
      vertex -1.94483 -15.7188 -2.93148
      vertex -3.24428 14.4011 -2.93148
      vertex -2.00472 22.0248 -2.93148
    endloop
  endfacet
  facet normal 0 0 -1
    outer loop
      vertex -1.7202 0.321562 -2.93148
      vertex -2.00472 22.0248 -2.93148
      vertex 2.00472 22.0248 -2.93148
    endloop
  endfacet
  facet normal 0 0 -1
    outer loop
      vertex 0.780042 1.56654 -2.93148
      vertex 2.00472 22.0248 -2.93148
      vertex 3.24428 14.4011 -2.93148
    endloop
  endfacet
  facet normal 0 0 -1
    outer loop
      vertex 1.75 0 -2.93148
      vertex 3.24428 14.4011 -2.93148
      vertex 4.41651 -9.01499 -2.93148
    endloop
  endfacet
  facet normal 0 0 -1
    outer loop
      vertex -1.94483 -15.7188 -2.93148
      vertex 4.41651 -9.01499 -2.93148
      vertex 1.94483 -15.7188 -2.93148
    endloop
  endfacet
  facet normal 0 0 -1
    outer loop
      vertex -1.94483 -15.7188 -2.93148
      vertex 1.94483 -15.7188 -2.93148
      vertex 0 -16.3287 -2.93148
    endloop
  endfacet
  facet normal 0 0 -1
    outer loop
      vertex -1.94483 -15.7188 -2.93148
      vertex -2.00472 22.0248 -2.93148
      vertex -1.7202 0.321562 -2.93148
    endloop
  endfacet
  facet normal 0 0 -1
    outer loop
      vertex 0.16147 -1.74253 -2.93148
      vertex -1.94483 -15.7188 -2.93148
      vertex -0.47891 -1.68319 -2.93148
    endloop
  endfacet
  facet normal 0 0 -1
    outer loop
      vertex -1.94483 -15.7188 -2.93148
      vertex -1.7202 0.321562 -2.93148
      vertex -1.7202 -0.321562 -2.93148
    endloop
  endfacet
  facet normal 0 0 -1
    outer loop
      vertex -1.94483 -15.7188 -2.93148
      vertex -1.7202 -0.321562 -2.93148
      vertex -1.48788 -0.921256 -2.93148
    endloop
  endfacet
  facet normal 0 0 -1
    outer loop
      vertex -1.94483 -15.7188 -2.93148
      vertex -1.48788 -0.921256 -2.93148
      vertex -1.05461 -1.39653 -2.93148
    endloop
  endfacet
  facet normal 0 0 -1
    outer loop
      vertex -1.94483 -15.7188 -2.93148
      vertex -1.05461 -1.39653 -2.93148
      vertex -0.47891 -1.68319 -2.93148
    endloop
  endfacet
  facet normal 0 0 -1
    outer loop
      vertex -0.47891 1.68319 -2.93148
      vertex 2.00472 22.0248 -2.93148
      vertex 0.16147 1.74253 -2.93148
    endloop
  endfacet
  facet normal 0 0 -1
    outer loop
      vertex 1.63183 0.632173 -2.93148
      vertex 3.24428 14.4011 -2.93148
      vertex 1.75 0 -2.93148
    endloop
  endfacet
  facet normal 0 0 -1
    outer loop
      vertex -1.94483 -15.7188 -2.93148
      vertex 0.780042 -1.56654 -2.93148
      vertex 4.41651 -9.01499 -2.93148
    endloop
  endfacet
  facet normal 0 0 -1
    outer loop
      vertex 0.780042 1.56654 -2.93148
      vertex 3.24428 14.4011 -2.93148
      vertex 1.29327 1.17897 -2.93148
    endloop
  endfacet
  facet normal 0 0 -1
    outer loop
      vertex 0.780042 -1.56654 -2.93148
      vertex 1.29327 -1.17897 -2.93148
      vertex 4.41651 -9.01499 -2.93148
    endloop
  endfacet
  facet normal 0 0 -1
    outer loop
      vertex 1.29327 1.17897 -2.93148
      vertex 3.24428 14.4011 -2.93148
      vertex 1.63183 0.632173 -2.93148
    endloop
  endfacet
  facet normal 0 0 -1
    outer loop
      vertex 1.29327 -1.17897 -2.93148
      vertex 1.63183 -0.632173 -2.93148
      vertex 4.41651 -9.01499 -2.93148
    endloop
  endfacet
  facet normal 0 0 -1
    outer loop
      vertex 1.63183 -0.632173 -2.93148
      vertex 1.75 0 -2.93148
      vertex 4.41651 -9.01499 -2.93148
    endloop
  endfacet
  facet normal 0 0 -1
    outer loop
      vertex 0.16147 1.74253 -2.93148
      vertex 2.00472 22.0248 -2.93148
      vertex 0.780042 1.56654 -2.93148
    endloop
  endfacet
  facet normal 0 0 -1
    outer loop
      vertex 0.780042 -1.56654 -2.93148
      vertex -1.94483 -15.7188 -2.93148
      vertex 0.16147 -1.74253 -2.93148
    endloop
  endfacet
  facet normal 0 0 -1
    outer loop
      vertex -1.05461 1.39653 -2.93148
      vertex 2.00472 22.0248 -2.93148
      vertex -0.47891 1.68319 -2.93148
    endloop
  endfacet
  facet normal 0 0 -1
    outer loop
      vertex -1.48788 0.921256 -2.93148
      vertex 2.00472 22.0248 -2.93148
      vertex -1.05461 1.39653 -2.93148
    endloop
  endfacet
  facet normal 0 0 -1
    outer loop
      vertex -1.7202 0.321562 -2.93148
      vertex 2.00472 22.0248 -2.93148
      vertex -1.48788 0.921256 -2.93148
    endloop
  endfacet
  facet normal 0 0.856958 -0.515387
    outer loop
      vertex 2.00472 22.0248 -2.93148
      vertex -2.00472 22.0248 -2.93148
      vertex 0 23.6713 -0.193714
    endloop
  endfacet
  facet normal -0.547362 0.831022 -0.0989849
    outer loop
      vertex -2.00472 22.0248 -2.93148
      vertex -3.78058 21.1812 -0.193714
      vertex 0 23.6713 -0.193714
    endloop
  endfacet
  facet normal -0.195696 0.297112 0.934573
    outer loop
      vertex 0 23.6713 -0.193714
      vertex -3.78058 21.1812 -0.193714
      vertex 0 7.49572 4.94871
    endloop
  endfacet
  facet normal 0.306307 -0.00132072 0.951932
    outer loop
      vertex 3.78058 7.49572 5.77426
      vertex 0 -12.0858 6.96359
      vertex 3.68049 -15.7188 5.77426
    endloop
  endfacet
  facet normal -0.293388 -0.552603 0.780098
    outer loop
      vertex 0 -12.0858 6.96359
      vertex 0 -16.3287 3.95804
      vertex 3.68049 -15.7188 5.77426
    endloop
  endfacet
  facet normal -0.212269 0.100024 0.972079
    outer loop
      vertex 0 7.49572 4.94871
      vertex 0 -12.0858 6.96359
      vertex 3.78058 7.49572 5.77426
    endloop
  endfacet
  facet normal -0.196269 0.391952 0.898806
    outer loop
      vertex 3.78058 21.1812 -0.193714
      vertex 0 7.49572 4.94871
      vertex 3.78058 7.49572 5.77426
    endloop
  endfacet
  facet normal 0.195696 0.297112 0.934573
    outer loop
      vertex 0 23.6713 -0.193714
      vertex 0 7.49572 4.94871
      vertex 3.78058 21.1812 -0.193714
    endloop
  endfacet
  facet normal 0.152912 -0.987997 0.021898
    outer loop
      vertex 3.68049 -15.7188 5.77426
      vertex 0 -16.3287 3.95804
      vertex 4.60217 -15.7188 -0.661766
    endloop
  endfacet
  facet normal 0.131372 -0.991333 5.75561e-07
    outer loop
      vertex 0 -16.3287 3.95804
      vertex 0 -16.3287 -2.93148
      vertex 4.60217 -15.7188 -0.661766
    endloop
  endfacet
  facet normal 0.282395 -0.900524 -0.330621
    outer loop
      vertex 4.60217 -15.7188 -0.661766
      vertex 0 -16.3287 -2.93148
      vertex 1.94483 -15.7188 -2.93148
    endloop
  endfacet
  facet normal 0.408708 -0.150689 -0.900139
    outer loop
      vertex 7.98619 -12.8912 -0.661766
      vertex 1.94483 -15.7188 -2.93148
      vertex 4.41651 -9.01499 -2.93148
    endloop
  endfacet
  facet normal 0.512789 -0.613687 -0.600363
    outer loop
      vertex 4.60217 -15.7188 -0.661766
      vertex 1.94483 -15.7188 -2.93148
      vertex 7.98619 -12.8912 -0.661766
    endloop
  endfacet
  facet normal 0.557761 0.027922 -0.829532
    outer loop
      vertex 4.41651 -9.01499 -2.93148
      vertex 3.24428 14.4011 -2.93148
      vertex 7.98619 -12.8912 -0.661766
    endloop
  endfacet
  facet normal 0.760156 0.123596 -0.637876
    outer loop
      vertex 3.24428 14.4011 -2.93148
      vertex 2.00472 22.0248 -2.93148
      vertex 5.54164 14.4011 -0.193714
    endloop
  endfacet
  facet normal 0.763612 0.0793853 -0.640776
    outer loop
      vertex 7.98619 -12.8912 -0.661766
      vertex 3.24428 14.4011 -2.93148
      vertex 5.54164 14.4011 -0.193714
    endloop
  endfacet
  facet normal 0.847947 0.220245 -0.48216
    outer loop
      vertex 5.54164 14.4011 -0.193714
      vertex 2.00472 22.0248 -2.93148
      vertex 3.78058 21.1812 -0.193714
    endloop
  endfacet
  facet normal 0.547362 0.831022 -0.0989849
    outer loop
      vertex 2.00472 22.0248 -2.93148
      vertex 0 23.6713 -0.193714
      vertex 3.78058 21.1812 -0.193714
    endloop
  endfacet
  facet normal 0.932472 -0.361242 0
    outer loop
      vertex -1.48788 0.921256 -2.93148
      vertex -1.48788 0.921256 -0.875
      vertex -1.7202 0.321562 -0.875
    endloop
  endfacet
  facet normal 0.932472 -0.361242 0
    outer loop
      vertex -1.7202 0.321562 -2.93148
      vertex -1.48788 0.921256 -2.93148
      vertex -1.7202 0.321562 -0.875
    endloop
  endfacet
  facet normal 1 0 0
    outer loop
      vertex -1.7202 0.321562 -2.93148
      vertex -1.7202 0.321562 -0.875
      vertex -1.7202 -0.321562 -0.875
    endloop
  endfacet
  facet normal 1 0 0
    outer loop
      vertex -1.7202 -0.321562 -2.93148
      vertex -1.7202 0.321562 -2.93148
      vertex -1.7202 -0.321562 -0.875
    endloop
  endfacet
  facet normal 0.739009 -0.673695 0
    outer loop
      vertex -1.05461 1.39653 -2.93148
      vertex -1.05461 1.39653 -0.875
      vertex -1.48788 0.921256 -0.875
    endloop
  endfacet
  facet normal 0.739009 -0.673695 0
    outer loop
      vertex -1.48788 0.921256 -2.93148
      vertex -1.05461 1.39653 -2.93148
      vertex -1.48788 0.921256 -0.875
    endloop
  endfacet
  facet normal 0.445738 -0.895163 0
    outer loop
      vertex -0.47891 1.68319 -2.93148
      vertex -0.47891 1.68319 -0.875
      vertex -1.05461 1.39653 -0.875
    endloop
  endfacet
  facet normal 0.445738 -0.895163 0
    outer loop
      vertex -1.05461 1.39653 -2.93148
      vertex -0.47891 1.68319 -2.93148
      vertex -1.05461 1.39653 -0.875
    endloop
  endfacet
  facet normal 0.0922684 -0.995734 0
    outer loop
      vertex 0.16147 1.74253 -2.93148
      vertex 0.16147 1.74253 -0.875
      vertex -0.47891 1.68319 -0.875
    endloop
  endfacet
  facet normal 0.0922684 -0.995734 0
    outer loop
      vertex -0.47891 1.68319 -2.93148
      vertex 0.16147 1.74253 -2.93148
      vertex -0.47891 1.68319 -0.875
    endloop
  endfacet
  facet normal -0.273663 -0.961826 0
    outer loop
      vertex 0.780042 1.56654 -2.93148
      vertex 0.780042 1.56654 -0.875
      vertex 0.16147 1.74253 -0.875
    endloop
  endfacet
  facet normal -0.273663 -0.961826 0
    outer loop
      vertex 0.16147 1.74253 -2.93148
      vertex 0.780042 1.56654 -2.93148
      vertex 0.16147 1.74253 -0.875
    endloop
  endfacet
  facet normal -0.602635 -0.798017 0
    outer loop
      vertex 1.29327 1.17897 -2.93148
      vertex 1.29327 1.17897 -0.875
      vertex 0.780042 1.56654 -0.875
    endloop
  endfacet
  facet normal -0.602635 -0.798017 0
    outer loop
      vertex 0.780042 1.56654 -2.93148
      vertex 1.29327 1.17897 -2.93148
      vertex 0.780042 1.56654 -0.875
    endloop
  endfacet
  facet normal -0.850217 -0.526432 0
    outer loop
      vertex 1.63183 0.632173 -0.875
      vertex 1.29327 1.17897 -0.875
      vertex 1.63183 0.632173 -2.93148
    endloop
  endfacet
  facet normal -0.850217 -0.526432 0
    outer loop
      vertex 1.63183 0.632173 -2.93148
      vertex 1.29327 1.17897 -0.875
      vertex 1.29327 1.17897 -2.93148
    endloop
  endfacet
  facet normal -0.982973 -0.18375 0
    outer loop
      vertex 1.75 0 -0.875
      vertex 1.63183 0.632173 -0.875
      vertex 1.75 0 -2.93148
    endloop
  endfacet
  facet normal -0.982973 -0.18375 0
    outer loop
      vertex 1.75 0 -2.93148
      vertex 1.63183 0.632173 -0.875
      vertex 1.63183 0.632173 -2.93148
    endloop
  endfacet
  facet normal -0.982973 0.18375 0
    outer loop
      vertex 1.75 0 -0.875
      vertex 1.75 0 -2.93148
      vertex 1.63183 -0.632173 -0.875
    endloop
  endfacet
  facet normal -0.982973 0.18375 0
    outer loop
      vertex 1.63183 -0.632173 -0.875
      vertex 1.75 0 -2.93148
      vertex 1.63183 -0.632173 -2.93148
    endloop
  endfacet
  facet normal -0.850217 0.526432 0
    outer loop
      vertex 1.63183 -0.632173 -0.875
      vertex 1.63183 -0.632173 -2.93148
      vertex 1.29327 -1.17897 -0.875
    endloop
  endfacet
  facet normal -0.850217 0.526432 0
    outer loop
      vertex 1.29327 -1.17897 -0.875
      vertex 1.63183 -0.632173 -2.93148
      vertex 1.29327 -1.17897 -2.93148
    endloop
  endfacet
  facet normal -0.602635 0.798017 0
    outer loop
      vertex 1.29327 -1.17897 -0.875
      vertex 1.29327 -1.17897 -2.93148
      vertex 0.780042 -1.56654 -0.875
    endloop
  endfacet
  facet normal -0.602635 0.798017 0
    outer loop
      vertex 0.780042 -1.56654 -0.875
      vertex 1.29327 -1.17897 -2.93148
      vertex 0.780042 -1.56654 -2.93148
    endloop
  endfacet
  facet normal -0.273663 0.961826 0
    outer loop
      vertex 0.780042 -1.56654 -0.875
      vertex 0.780042 -1.56654 -2.93148
      vertex 0.16147 -1.74253 -0.875
    endloop
  endfacet
  facet normal -0.273663 0.961826 0
    outer loop
      vertex 0.16147 -1.74253 -0.875
      vertex 0.780042 -1.56654 -2.93148
      vertex 0.16147 -1.74253 -2.93148
    endloop
  endfacet
  facet normal 0.0922684 0.995734 0
    outer loop
      vertex 0.16147 -1.74253 -0.875
      vertex 0.16147 -1.74253 -2.93148
      vertex -0.47891 -1.68319 -0.875
    endloop
  endfacet
  facet normal 0.0922684 0.995734 0
    outer loop
      vertex -0.47891 -1.68319 -0.875
      vertex 0.16147 -1.74253 -2.93148
      vertex -0.47891 -1.68319 -2.93148
    endloop
  endfacet
  facet normal 0.445738 0.895163 0
    outer loop
      vertex -0.47891 -1.68319 -0.875
      vertex -0.47891 -1.68319 -2.93148
      vertex -1.05461 -1.39653 -0.875
    endloop
  endfacet
  facet normal 0.445738 0.895163 0
    outer loop
      vertex -1.05461 -1.39653 -0.875
      vertex -0.47891 -1.68319 -2.93148
      vertex -1.05461 -1.39653 -2.93148
    endloop
  endfacet
  facet normal 0.739009 0.673695 0
    outer loop
      vertex -1.48788 -0.921256 -0.875
      vertex -1.05461 -1.39653 -0.875
      vertex -1.05461 -1.39653 -2.93148
    endloop
  endfacet
  facet normal 0.739009 0.673695 0
    outer loop
      vertex -1.48788 -0.921256 -2.93148
      vertex -1.48788 -0.921256 -0.875
      vertex -1.05461 -1.39653 -2.93148
    endloop
  endfacet
  facet normal 0.932472 0.361242 0
    outer loop
      vertex -1.7202 -0.321562 -0.875
      vertex -1.48788 -0.921256 -0.875
      vertex -1.48788 -0.921256 -2.93148
    endloop
  endfacet
  facet normal 0.932472 0.361242 0
    outer loop
      vertex -1.7202 -0.321562 -2.93148
      vertex -1.7202 -0.321562 -0.875
      vertex -1.48788 -0.921256 -2.93148
    endloop
  endfacet
  facet normal 0.838523 0.217798 0.499443
    outer loop
      vertex 3.78058 21.1812 -0.193714
      vertex 3.78058 7.49572 5.77426
      vertex 5.54164 14.4011 -0.193714
    endloop
  endfacet
  facet normal 0.883757 0.155928 0.441203
    outer loop
      vertex 5.54164 14.4011 -0.193714
      vertex 3.78058 7.49572 5.77426
      vertex 6.36119 5.55718 1.29026
    endloop
  endfacet
  facet normal 0.87874 0.0822817 0.470155
    outer loop
      vertex 6.36119 5.55718 1.29026
      vertex 3.78058 7.49572 5.77426
      vertex 5.60281 2.58344 3.22814
    endloop
  endfacet
  facet normal 0.901172 0.118126 0.417055
    outer loop
      vertex 5.60281 2.58344 3.22814
      vertex 3.78058 7.49572 5.77426
      vertex 4.99572 -1.77449 5.77426
    endloop
  endfacet
  facet normal 0 0 1
    outer loop
      vertex 4.99572 -1.77449 5.77426
      vertex 3.68049 -15.7188 5.77426
      vertex 6.77313 -12.8912 5.77426
    endloop
  endfacet
  facet normal 0 0 1
    outer loop
      vertex 3.78058 7.49572 5.77426
      vertex 3.68049 -15.7188 5.77426
      vertex 4.99572 -1.77449 5.77426
    endloop
  endfacet
  facet normal 0.67165 -0.734598 0.0961852
    outer loop
      vertex 6.77313 -12.8912 5.77426
      vertex 3.68049 -15.7188 5.77426
      vertex 4.60217 -15.7188 -0.661766
    endloop
  endfacet
  facet normal 0.636572 -0.761827 0.11998
    outer loop
      vertex 6.77313 -12.8912 5.77426
      vertex 4.60217 -15.7188 -0.661766
      vertex 7.98619 -12.8912 -0.661766
    endloop
  endfacet
  facet normal 0.981317 0.0529859 0.184957
    outer loop
      vertex 6.89152 -6.19596 3.22814
      vertex 6.77313 -12.8912 5.77426
      vertex 7.98619 -12.8912 -0.661766
    endloop
  endfacet
  facet normal 0.870939 -0.13252 0.473184
    outer loop
      vertex 8.05388 -6.19596 1.0887
      vertex 6.89152 -6.19596 3.22814
      vertex 7.98619 -12.8912 -0.661766
    endloop
  endfacet
  facet normal 0.922214 0.0890552 -0.376284
    outer loop
      vertex 7.98619 -12.8912 -0.661766
      vertex 5.54164 14.4011 -0.193714
      vertex 8.05388 -6.19596 1.0887
    endloop
  endfacet
  facet normal 0.954987 0.13299 0.265166
    outer loop
      vertex 8.05388 -6.19596 1.0887
      vertex 5.54164 14.4011 -0.193714
      vertex 6.36119 5.55718 1.29026
    endloop
  endfacet
  facet normal 0 0 -1
    outer loop
      vertex -1.48788 0.921256 -0.875
      vertex -1.05461 1.39653 -0.875
      vertex -1.7202 0.321562 -0.875
    endloop
  endfacet
  facet normal 0 0 -1
    outer loop
      vertex -1.7202 0.321562 -0.875
      vertex -1.05461 1.39653 -0.875
      vertex -0.47891 1.68319 -0.875
    endloop
  endfacet
  facet normal 0 0 -1
    outer loop
      vertex -1.7202 0.321562 -0.875
      vertex -0.47891 1.68319 -0.875
      vertex 0.16147 1.74253 -0.875
    endloop
  endfacet
  facet normal 0 0 -1
    outer loop
      vertex -1.7202 0.321562 -0.875
      vertex 0.16147 1.74253 -0.875
      vertex 0.780042 1.56654 -0.875
    endloop
  endfacet
  facet normal 0 0 -1
    outer loop
      vertex -1.7202 0.321562 -0.875
      vertex 0.780042 1.56654 -0.875
      vertex 1.29327 1.17897 -0.875
    endloop
  endfacet
  facet normal 0 0 -1
    outer loop
      vertex -1.7202 0.321562 -0.875
      vertex 1.29327 1.17897 -0.875
      vertex 1.63183 0.632173 -0.875
    endloop
  endfacet
  facet normal 0 0 -1
    outer loop
      vertex -1.7202 0.321562 -0.875
      vertex 1.63183 0.632173 -0.875
      vertex 1.75 0 -0.875
    endloop
  endfacet
  facet normal 0 0 -1
    outer loop
      vertex -1.7202 0.321562 -0.875
      vertex 1.75 0 -0.875
      vertex 1.63183 -0.632173 -0.875
    endloop
  endfacet
  facet normal 0 0 -1
    outer loop
      vertex -1.7202 0.321562 -0.875
      vertex 1.63183 -0.632173 -0.875
      vertex 1.29327 -1.17897 -0.875
    endloop
  endfacet
  facet normal 0 0 -1
    outer loop
      vertex -1.7202 0.321562 -0.875
      vertex 1.29327 -1.17897 -0.875
      vertex 0.780042 -1.56654 -0.875
    endloop
  endfacet
  facet normal 0 0 -1
    outer loop
      vertex -1.7202 0.321562 -0.875
      vertex 0.780042 -1.56654 -0.875
      vertex 0.16147 -1.74253 -0.875
    endloop
  endfacet
  facet normal 0 0 -1
    outer loop
      vertex -1.7202 0.321562 -0.875
      vertex 0.16147 -1.74253 -0.875
      vertex -0.47891 -1.68319 -0.875
    endloop
  endfacet
  facet normal 0 0 -1
    outer loop
      vertex -1.7202 0.321562 -0.875
      vertex -0.47891 -1.68319 -0.875
      vertex -1.05461 -1.39653 -0.875
    endloop
  endfacet
  facet normal 0 0 -1
    outer loop
      vertex -1.7202 0.321562 -0.875
      vertex -1.05461 -1.39653 -0.875
      vertex -1.48788 -0.921256 -0.875
    endloop
  endfacet
  facet normal 0 0 -1
    outer loop
      vertex -1.7202 0.321562 -0.875
      vertex -1.48788 -0.921256 -0.875
      vertex -1.7202 -0.321562 -0.875
    endloop
  endfacet
  facet normal 0.243268 0.48526 0.839847
    outer loop
      vertex 12.0756 2.22712 1.55913
      vertex 6.36119 5.55718 1.29026
      vertex 11.4989 -0.034267 3.0328
    endloop
  endfacet
  facet normal 0.243268 0.48526 0.839847
    outer loop
      vertex 6.36119 5.55718 1.29026
      vertex 5.60281 2.58344 3.22814
      vertex 11.4989 -0.034267 3.0328
    endloop
  endfacet
  facet normal 0.0704721 0.02725 -0.997141
    outer loop
      vertex 6.36119 5.55718 1.29026
      vertex 9.68777 -0.886066 1.34928
      vertex 9.51212 -1.07874 1.3316
    endloop
  endfacet
  facet normal 0.0704721 0.02725 -0.997141
    outer loop
      vertex 6.36119 5.55718 1.29026
      vertex 9.51212 -1.07874 1.3316
      vertex 9.2798 -1.67844 1.29879
    endloop
  endfacet
  facet normal 0.0704721 0.02725 -0.997141
    outer loop
      vertex 6.36119 5.55718 1.29026
      vertex 9.2798 -1.67844 1.29879
      vertex 8.05388 -6.19596 1.0887
    endloop
  endfacet
  facet normal 0.0704721 0.02725 -0.997141
    outer loop
      vertex 8.05388 -6.19596 1.0887
      vertex 9.2798 -2.32156 1.28122
      vertex 9.51212 -2.92126 1.28125
    endloop
  endfacet
  facet normal 0.0704721 0.02725 -0.997141
    outer loop
      vertex 9.51212 -2.92126 1.28125
      vertex 9.94539 -3.39653 1.29888
      vertex 8.05388 -6.19596 1.0887
    endloop
  endfacet
  facet normal 0.0704721 0.02725 -0.997141
    outer loop
      vertex 9.94539 -3.39653 1.29888
      vertex 10.5211 -3.68319 1.33173
      vertex 8.05388 -6.19596 1.0887
    endloop
  endfacet
  facet normal 0.0704721 0.02725 -0.997141
    outer loop
      vertex 10.5211 -3.68319 1.33173
      vertex 11.1615 -3.74253 1.37537
      vertex 8.05388 -6.19596 1.0887
    endloop
  endfacet
  facet normal 0.0704721 0.02725 -0.997141
    outer loop
      vertex 11.1615 -3.74253 1.37537
      vertex 11.1624 -3.74227 1.37544
      vertex 8.05388 -6.19596 1.0887
    endloop
  endfacet
  facet normal 0.0704721 0.02725 -0.997141
    outer loop
      vertex 8.05388 -6.19596 1.0887
      vertex 11.1624 -3.74227 1.37544
      vertex 12.8761 -7.06161 1.40585
    endloop
  endfacet
  facet normal 0.0704721 0.02725 -0.997141
    outer loop
      vertex 9.2798 -2.32156 1.28122
      vertex 8.05388 -6.19596 1.0887
      vertex 9.2798 -1.67844 1.29879
    endloop
  endfacet
  facet normal 0.0595441 0.0216003 -0.997992
    outer loop
      vertex 6.36119 5.55718 1.29026
      vertex 12.0756 2.22712 1.55913
      vertex 9.68777 -0.886066 1.34928
    endloop
  endfacet
  facet normal 0.0595441 0.0216003 -0.997992
    outer loop
      vertex 12.2933 -0.821033 1.50614
      vertex 12.0756 2.22712 1.55913
      vertex 12.3456 -0.905522 1.50744
    endloop
  endfacet
  facet normal 0.0595441 0.0216003 -0.997992
    outer loop
      vertex 11.78 -0.433464 1.48391
      vertex 12.0756 2.22712 1.55913
      vertex 12.2933 -0.821033 1.50614
    endloop
  endfacet
  facet normal 0.0595441 0.0216003 -0.997992
    outer loop
      vertex 11.1615 -0.257465 1.45081
      vertex 12.0756 2.22712 1.55913
      vertex 11.78 -0.433464 1.48391
    endloop
  endfacet
  facet normal 0.0595441 0.0216003 -0.997992
    outer loop
      vertex 10.5211 -0.316805 1.41132
      vertex 12.0756 2.22712 1.55913
      vertex 11.1615 -0.257465 1.45081
    endloop
  endfacet
  facet normal 0.0595441 0.0216003 -0.997992
    outer loop
      vertex 9.94539 -0.60347 1.37077
      vertex 12.0756 2.22712 1.55913
      vertex 10.5211 -0.316805 1.41132
    endloop
  endfacet
  facet normal 0.0595441 0.0216003 -0.997992
    outer loop
      vertex 9.68777 -0.886066 1.34928
      vertex 12.0756 2.22712 1.55913
      vertex 9.94539 -0.60347 1.37077
    endloop
  endfacet
  facet normal 0.0351558 0.00460823 0.999371
    outer loop
      vertex 11.4989 -0.034267 3.0328
      vertex 5.60281 2.58344 3.22814
      vertex 6.12609 -1.40868 3.22814
    endloop
  endfacet
  facet normal 0.901172 0.118126 0.417055
    outer loop
      vertex 5.60281 2.58344 3.22814
      vertex 4.99572 -1.77449 5.77426
      vertex 6.12609 -1.40868 3.22814
    endloop
  endfacet
  facet normal 0.89673 0.143376 0.41871
    outer loop
      vertex 6.12609 -1.40868 3.22814
      vertex 4.99572 -1.77449 5.77426
      vertex 6.77313 -12.8912 5.77426
    endloop
  endfacet
  facet normal 0.89673 0.143376 0.41871
    outer loop
      vertex 6.89152 -6.19596 3.22814
      vertex 6.12609 -1.40868 3.22814
      vertex 6.77313 -12.8912 5.77426
    endloop
  endfacet
  facet normal 0.0238657 -0.0709827 0.997192
    outer loop
      vertex 11.8968 -3.0701 3.33086
      vertex 6.89152 -6.19596 3.22814
      vertex 12.4789 -7.06161 3.0328
    endloop
  endfacet
  facet normal -0.155438 -0.984229 -0.0844502
    outer loop
      vertex 12.4789 -7.06161 3.0328
      vertex 6.89152 -6.19596 3.22814
      vertex 8.05388 -6.19596 1.0887
    endloop
  endfacet
  facet normal -0.0186551 -0.00298271 0.999822
    outer loop
      vertex 11.8968 -3.0701 3.33086
      vertex 6.12609 -1.40868 3.22814
      vertex 6.89152 -6.19596 3.22814
    endloop
  endfacet
  facet normal -0.173822 -0.983862 -0.0424424
    outer loop
      vertex 12.4789 -7.06161 3.0328
      vertex 8.05388 -6.19596 1.0887
      vertex 12.8761 -7.06161 1.40585
    endloop
  endfacet
  facet normal 0.00684843 0.017089 -0.999831
    outer loop
      vertex 12.5112 -2.82702 1.47573
      vertex 14.4721 -7.70121 1.40585
      vertex 12.8761 -7.06161 1.40585
    endloop
  endfacet
  facet normal 0.00684843 0.017089 -0.999831
    outer loop
      vertex 12.6318 -2.63217 1.47988
      vertex 14.4721 -7.70121 1.40585
      vertex 12.5112 -2.82702 1.47573
    endloop
  endfacet
  facet normal 0.00684843 0.017089 -0.999831
    outer loop
      vertex 12.0756 2.22712 1.55913
      vertex 14.4721 -7.70121 1.40585
      vertex 12.75 -2 1.4915
    endloop
  endfacet
  facet normal 0.00684843 0.017089 -0.999831
    outer loop
      vertex 12.0756 2.22712 1.55913
      vertex 12.75 -2 1.4915
      vertex 12.6318 -1.36783 1.50149
    endloop
  endfacet
  facet normal 0.00684843 0.017089 -0.999831
    outer loop
      vertex 12.0756 2.22712 1.55913
      vertex 12.6318 -1.36783 1.50149
      vertex 12.3456 -0.905522 1.50744
    endloop
  endfacet
  facet normal 0.00684843 0.017089 -0.999831
    outer loop
      vertex 12.75 -2 1.4915
      vertex 14.4721 -7.70121 1.40585
      vertex 12.6318 -2.63217 1.47988
    endloop
  endfacet
  facet normal 0.0112684 0.018155 -0.999772
    outer loop
      vertex 14.4721 -7.70121 1.40585
      vertex 12.0756 2.22712 1.55913
      vertex 13.6716 1.23652 1.55913
    endloop
  endfacet
  facet normal 0.291153 0.469091 0.833776
    outer loop
      vertex 12.0756 2.22712 1.55913
      vertex 11.4989 -0.034267 3.0328
      vertex 13.6716 1.23652 1.55913
    endloop
  endfacet
  facet normal 0.291153 0.469091 0.833776
    outer loop
      vertex 13.6716 1.23652 1.55913
      vertex 11.4989 -0.034267 3.0328
      vertex 13.0949 -1.02487 3.0328
    endloop
  endfacet
  facet normal 0.0658158 0.106039 0.992181
    outer loop
      vertex 13.0949 -1.02487 3.0328
      vertex 11.4989 -0.034267 3.0328
      vertex 11.8968 -3.0701 3.33086
    endloop
  endfacet
  facet normal 0.0108232 0.0991092 0.995018
    outer loop
      vertex 11.4989 -0.034267 3.0328
      vertex 6.12609 -1.40868 3.22814
      vertex 11.8968 -3.0701 3.33086
    endloop
  endfacet
  facet normal -0.370466 -0.924431 -0.0904571
    outer loop
      vertex 14.0749 -7.70121 3.0328
      vertex 12.4789 -7.06161 3.0328
      vertex 12.8761 -7.06161 1.40585
    endloop
  endfacet
  facet normal -0.370466 -0.924431 -0.0904571
    outer loop
      vertex 14.4721 -7.70121 1.40585
      vertex 14.0749 -7.70121 3.0328
      vertex 12.8761 -7.06161 1.40585
    endloop
  endfacet
  facet normal 0.0595441 0.0216003 -0.997992
    outer loop
      vertex 11.1624 -3.74227 1.37544
      vertex 11.78 -3.56654 1.4161
      vertex 12.8761 -7.06161 1.40585
    endloop
  endfacet
  facet normal 0.0595441 0.0216003 -0.997992
    outer loop
      vertex 12.8761 -7.06161 1.40585
      vertex 11.78 -3.56654 1.4161
      vertex 12.2933 -3.17897 1.45511
    endloop
  endfacet
  facet normal 0.0595441 0.0216003 -0.997992
    outer loop
      vertex 12.2933 -3.17897 1.45511
      vertex 12.5112 -2.82702 1.47573
      vertex 12.8761 -7.06161 1.40585
    endloop
  endfacet
  facet normal -0.273663 0.961826 0
    outer loop
      vertex 11.78 -3.56654 2.625
      vertex 11.78 -3.56654 1.4161
      vertex 11.1615 -3.74253 2.625
    endloop
  endfacet
  facet normal -0.273663 0.961826 0
    outer loop
      vertex 11.1615 -3.74253 2.625
      vertex 11.78 -3.56654 1.4161
      vertex 11.1624 -3.74227 1.37544
    endloop
  endfacet
  facet normal -0.273663 0.961826 0
    outer loop
      vertex 11.1615 -3.74253 2.625
      vertex 11.1624 -3.74227 1.37544
      vertex 11.1615 -3.74253 1.37537
    endloop
  endfacet
  facet normal 0.0922684 0.995734 0
    outer loop
      vertex 11.1615 -3.74253 2.625
      vertex 11.1615 -3.74253 1.37537
      vertex 10.5211 -3.68319 2.625
    endloop
  endfacet
  facet normal 0.0922684 0.995734 0
    outer loop
      vertex 10.5211 -3.68319 2.625
      vertex 11.1615 -3.74253 1.37537
      vertex 10.5211 -3.68319 1.33173
    endloop
  endfacet
  facet normal 0.445738 0.895163 0
    outer loop
      vertex 10.5211 -3.68319 2.625
      vertex 10.5211 -3.68319 1.33173
      vertex 9.94539 -3.39653 2.625
    endloop
  endfacet
  facet normal 0.445738 0.895163 0
    outer loop
      vertex 9.94539 -3.39653 2.625
      vertex 10.5211 -3.68319 1.33173
      vertex 9.94539 -3.39653 1.29888
    endloop
  endfacet
  facet normal 0.739009 0.673695 0
    outer loop
      vertex 9.51212 -2.92126 2.625
      vertex 9.94539 -3.39653 2.625
      vertex 9.94539 -3.39653 1.29888
    endloop
  endfacet
  facet normal 0.739009 0.673695 0
    outer loop
      vertex 9.51212 -2.92126 1.28125
      vertex 9.51212 -2.92126 2.625
      vertex 9.94539 -3.39653 1.29888
    endloop
  endfacet
  facet normal 0.932472 0.361242 0
    outer loop
      vertex 9.2798 -2.32156 2.625
      vertex 9.51212 -2.92126 2.625
      vertex 9.51212 -2.92126 1.28125
    endloop
  endfacet
  facet normal 0.932472 0.361242 0
    outer loop
      vertex 9.2798 -2.32156 1.28122
      vertex 9.2798 -2.32156 2.625
      vertex 9.51212 -2.92126 1.28125
    endloop
  endfacet
  facet normal 1 0 0
    outer loop
      vertex 9.2798 -1.67844 1.29879
      vertex 9.2798 -1.67844 2.625
      vertex 9.2798 -2.32156 2.625
    endloop
  endfacet
  facet normal 1 0 0
    outer loop
      vertex 9.2798 -2.32156 1.28122
      vertex 9.2798 -1.67844 1.29879
      vertex 9.2798 -2.32156 2.625
    endloop
  endfacet
  facet normal 0.932472 -0.361242 0
    outer loop
      vertex 9.51212 -1.07874 1.3316
      vertex 9.51212 -1.07874 2.625
      vertex 9.2798 -1.67844 2.625
    endloop
  endfacet
  facet normal 0.932472 -0.361242 0
    outer loop
      vertex 9.2798 -1.67844 1.29879
      vertex 9.51212 -1.07874 1.3316
      vertex 9.2798 -1.67844 2.625
    endloop
  endfacet
  facet normal 0.739009 -0.673695 0
    outer loop
      vertex 9.68777 -0.886066 1.34928
      vertex 9.94539 -0.60347 1.37077
      vertex 9.94539 -0.60347 2.625
    endloop
  endfacet
  facet normal 0.739009 -0.673695 0
    outer loop
      vertex 9.51212 -1.07874 1.3316
      vertex 9.68777 -0.886066 1.34928
      vertex 9.51212 -1.07874 2.625
    endloop
  endfacet
  facet normal 0.739009 -0.673695 0
    outer loop
      vertex 9.51212 -1.07874 2.625
      vertex 9.68777 -0.886066 1.34928
      vertex 9.94539 -0.60347 2.625
    endloop
  endfacet
  facet normal 0.445738 -0.895163 0
    outer loop
      vertex 10.5211 -0.316805 1.41132
      vertex 10.5211 -0.316805 2.625
      vertex 9.94539 -0.60347 2.625
    endloop
  endfacet
  facet normal 0.445738 -0.895163 0
    outer loop
      vertex 9.94539 -0.60347 1.37077
      vertex 10.5211 -0.316805 1.41132
      vertex 9.94539 -0.60347 2.625
    endloop
  endfacet
  facet normal 0.0922684 -0.995734 0
    outer loop
      vertex 11.1615 -0.257465 1.45081
      vertex 11.1615 -0.257465 2.625
      vertex 10.5211 -0.316805 2.625
    endloop
  endfacet
  facet normal 0.0922684 -0.995734 0
    outer loop
      vertex 10.5211 -0.316805 1.41132
      vertex 11.1615 -0.257465 1.45081
      vertex 10.5211 -0.316805 2.625
    endloop
  endfacet
  facet normal -0.273663 -0.961826 0
    outer loop
      vertex 11.78 -0.433464 1.48391
      vertex 11.78 -0.433464 2.625
      vertex 11.1615 -0.257465 2.625
    endloop
  endfacet
  facet normal -0.273663 -0.961826 0
    outer loop
      vertex 11.1615 -0.257465 1.45081
      vertex 11.78 -0.433464 1.48391
      vertex 11.1615 -0.257465 2.625
    endloop
  endfacet
  facet normal -0.602635 -0.798017 0
    outer loop
      vertex 12.2933 -0.821033 1.50614
      vertex 12.2933 -0.821033 2.625
      vertex 11.78 -0.433464 2.625
    endloop
  endfacet
  facet normal -0.602635 -0.798017 0
    outer loop
      vertex 11.78 -0.433464 1.48391
      vertex 12.2933 -0.821033 1.50614
      vertex 11.78 -0.433464 2.625
    endloop
  endfacet
  facet normal -0.850217 -0.526432 0
    outer loop
      vertex 12.6318 -1.36783 1.50149
      vertex 12.6318 -1.36783 2.625
      vertex 12.3456 -0.905522 1.50744
    endloop
  endfacet
  facet normal -0.850217 -0.526432 0
    outer loop
      vertex 12.3456 -0.905522 1.50744
      vertex 12.6318 -1.36783 2.625
      vertex 12.2933 -0.821033 2.625
    endloop
  endfacet
  facet normal -0.850217 -0.526432 0
    outer loop
      vertex 12.3456 -0.905522 1.50744
      vertex 12.2933 -0.821033 2.625
      vertex 12.2933 -0.821033 1.50614
    endloop
  endfacet
  facet normal 0.199149 0.0261044 0.979622
    outer loop
      vertex 13.0949 -1.02487 3.0328
      vertex 11.8968 -3.0701 3.33086
      vertex 13.4928 -4.0607 3.0328
    endloop
  endfacet
  facet normal 0.152368 -0.0514812 0.986982
    outer loop
      vertex 13.4928 -4.0607 3.0328
      vertex 11.8968 -3.0701 3.33086
      vertex 12.4789 -7.06161 3.0328
    endloop
  endfacet
  facet normal 0 0 1
    outer loop
      vertex 13.4928 -4.0607 3.0328
      vertex 12.4789 -7.06161 3.0328
      vertex 14.0749 -7.70121 3.0328
    endloop
  endfacet
  facet normal -0.982973 -0.18375 0
    outer loop
      vertex 12.75 -2 2.625
      vertex 12.6318 -1.36783 2.625
      vertex 12.75 -2 1.4915
    endloop
  endfacet
  facet normal -0.982973 -0.18375 0
    outer loop
      vertex 12.75 -2 1.4915
      vertex 12.6318 -1.36783 2.625
      vertex 12.6318 -1.36783 1.50149
    endloop
  endfacet
  facet normal -0.982973 0.18375 0
    outer loop
      vertex 12.75 -2 2.625
      vertex 12.75 -2 1.4915
      vertex 12.6318 -2.63217 2.625
    endloop
  endfacet
  facet normal -0.982973 0.18375 0
    outer loop
      vertex 12.6318 -2.63217 2.625
      vertex 12.75 -2 1.4915
      vertex 12.6318 -2.63217 1.47988
    endloop
  endfacet
  facet normal -0.850217 0.526432 0
    outer loop
      vertex 12.6318 -2.63217 2.625
      vertex 12.6318 -2.63217 1.47988
      vertex 12.2933 -3.17897 2.625
    endloop
  endfacet
  facet normal -0.850217 0.526432 0
    outer loop
      vertex 12.2933 -3.17897 2.625
      vertex 12.6318 -2.63217 1.47988
      vertex 12.5112 -2.82702 1.47573
    endloop
  endfacet
  facet normal -0.850217 0.526432 0
    outer loop
      vertex 12.2933 -3.17897 2.625
      vertex 12.5112 -2.82702 1.47573
      vertex 12.2933 -3.17897 1.45511
    endloop
  endfacet
  facet normal -0.00606421 0.0166038 -0.999844
    outer loop
      vertex 14.4721 -7.70121 1.40585
      vertex 13.6716 1.23652 1.55913
      vertex 16.2748 -7.04283 1.40585
    endloop
  endfacet
  facet normal 0.341868 -0.936033 0.0834743
    outer loop
      vertex 15.8775 -7.04283 3.0328
      vertex 14.0749 -7.70121 3.0328
      vertex 14.4721 -7.70121 1.40585
    endloop
  endfacet
  facet normal 0.341868 -0.936033 0.0834746
    outer loop
      vertex 15.8775 -7.04283 3.0328
      vertex 14.4721 -7.70121 1.40585
      vertex 16.2748 -7.04283 1.40585
    endloop
  endfacet
  facet normal -0.0124019 0.0146106 -0.999816
    outer loop
      vertex 16.2748 -7.04283 1.40585
      vertex 13.6716 1.23652 1.55913
      vertex 15.4742 2.76665 1.55913
    endloop
  endfacet
  facet normal -0.477039 0.561998 0.675716
    outer loop
      vertex 13.6716 1.23652 1.55913
      vertex 13.0949 -1.02487 3.0328
      vertex 15.4742 2.76665 1.55913
    endloop
  endfacet
  facet normal -0.477039 0.561998 0.675716
    outer loop
      vertex 15.4742 2.76665 1.55913
      vertex 13.0949 -1.02487 3.0328
      vertex 14.8975 0.505258 3.0328
    endloop
  endfacet
  facet normal 0 0 1
    outer loop
      vertex 14.8975 0.505258 3.0328
      vertex 13.0949 -1.02487 3.0328
      vertex 13.4928 -4.0607 3.0328
    endloop
  endfacet
  facet normal 0.049083 -0.134389 0.989712
    outer loop
      vertex 15.2955 -2.53057 3.67437
      vertex 14.0749 -7.70121 3.0328
      vertex 15.8775 -7.04283 3.0328
    endloop
  endfacet
  facet normal -0.298695 -0.0477575 0.953153
    outer loop
      vertex 15.2955 -2.53057 3.67437
      vertex 13.4928 -4.0607 3.0328
      vertex 14.0749 -7.70121 3.0328
    endloop
  endfacet
  facet normal -0.602635 0.798017 0
    outer loop
      vertex 12.2933 -3.17897 2.625
      vertex 12.2933 -3.17897 1.45511
      vertex 11.78 -3.56654 2.625
    endloop
  endfacet
  facet normal -0.602635 0.798017 0
    outer loop
      vertex 11.78 -3.56654 2.625
      vertex 12.2933 -3.17897 1.45511
      vertex 11.78 -3.56654 1.4161
    endloop
  endfacet
  facet normal 0 0 -1
    outer loop
      vertex 9.51212 -1.07874 2.625
      vertex 9.94539 -0.60347 2.625
      vertex 9.2798 -1.67844 2.625
    endloop
  endfacet
  facet normal 0 0 -1
    outer loop
      vertex 9.2798 -1.67844 2.625
      vertex 9.94539 -0.60347 2.625
      vertex 10.5211 -0.316805 2.625
    endloop
  endfacet
  facet normal 0 0 -1
    outer loop
      vertex 9.2798 -1.67844 2.625
      vertex 10.5211 -0.316805 2.625
      vertex 11.1615 -0.257465 2.625
    endloop
  endfacet
  facet normal 0 0 -1
    outer loop
      vertex 9.2798 -1.67844 2.625
      vertex 11.1615 -0.257465 2.625
      vertex 11.78 -0.433464 2.625
    endloop
  endfacet
  facet normal 0 0 -1
    outer loop
      vertex 9.2798 -1.67844 2.625
      vertex 11.78 -0.433464 2.625
      vertex 12.2933 -0.821033 2.625
    endloop
  endfacet
  facet normal 0 0 -1
    outer loop
      vertex 9.2798 -1.67844 2.625
      vertex 12.2933 -0.821033 2.625
      vertex 12.6318 -1.36783 2.625
    endloop
  endfacet
  facet normal 0 0 -1
    outer loop
      vertex 9.2798 -1.67844 2.625
      vertex 12.6318 -1.36783 2.625
      vertex 12.75 -2 2.625
    endloop
  endfacet
  facet normal 0 0 -1
    outer loop
      vertex 9.2798 -1.67844 2.625
      vertex 12.75 -2 2.625
      vertex 12.6318 -2.63217 2.625
    endloop
  endfacet
  facet normal 0 0 -1
    outer loop
      vertex 9.2798 -1.67844 2.625
      vertex 12.6318 -2.63217 2.625
      vertex 12.2933 -3.17897 2.625
    endloop
  endfacet
  facet normal 0 0 -1
    outer loop
      vertex 9.2798 -1.67844 2.625
      vertex 12.2933 -3.17897 2.625
      vertex 11.78 -3.56654 2.625
    endloop
  endfacet
  facet normal 0 0 -1
    outer loop
      vertex 9.2798 -1.67844 2.625
      vertex 11.78 -3.56654 2.625
      vertex 11.1615 -3.74253 2.625
    endloop
  endfacet
  facet normal 0 0 -1
    outer loop
      vertex 9.2798 -1.67844 2.625
      vertex 11.1615 -3.74253 2.625
      vertex 10.5211 -3.68319 2.625
    endloop
  endfacet
  facet normal 0 0 -1
    outer loop
      vertex 9.2798 -1.67844 2.625
      vertex 10.5211 -3.68319 2.625
      vertex 9.94539 -3.39653 2.625
    endloop
  endfacet
  facet normal 0 0 -1
    outer loop
      vertex 9.2798 -1.67844 2.625
      vertex 9.94539 -3.39653 2.625
      vertex 9.51212 -2.92126 2.625
    endloop
  endfacet
  facet normal 0 0 -1
    outer loop
      vertex 9.2798 -1.67844 2.625
      vertex 9.51212 -2.92126 2.625
      vertex 9.2798 -2.32156 2.625
    endloop
  endfacet
  facet normal -0.430155 0.132335 0.893003
    outer loop
      vertex 14.8975 0.505258 3.0328
      vertex 13.4928 -4.0607 3.0328
      vertex 15.2955 -2.53057 3.67437
    endloop
  endfacet
  facet normal 0.637319 -0.754724 0.155616
    outer loop
      vertex 17.6796 -5.52107 3.0328
      vertex 15.8775 -7.04283 3.0328
      vertex 16.2748 -7.04283 1.40585
    endloop
  endfacet
  facet normal 0.637319 -0.754724 0.155615
    outer loop
      vertex 17.6796 -5.52107 3.0328
      vertex 16.2748 -7.04283 1.40585
      vertex 18.0769 -5.52107 1.40585
    endloop
  endfacet
  facet normal -0.0123419 0.0146155 -0.999817
    outer loop
      vertex 16.2748 -7.04283 1.40585
      vertex 15.4742 2.76665 1.55913
      vertex 18.0769 -5.52107 1.40585
    endloop
  endfacet
  facet normal 0.33402 -0.0903131 0.938229
    outer loop
      vertex 17.0976 -2.53057 3.0328
      vertex 15.2955 -2.53057 3.67437
      vertex 15.8775 -7.04283 3.0328
    endloop
  endfacet
  facet normal 0 0 1
    outer loop
      vertex 17.0976 -2.53057 3.0328
      vertex 15.8775 -7.04283 3.0328
      vertex 17.6796 -5.52107 3.0328
    endloop
  endfacet
  facet normal 0 0 1
    outer loop
      vertex 18.5395 0.228222 3.0328
      vertex 17.0976 -2.53057 3.0328
      vertex 19.1216 -2.76227 3.0328
    endloop
  endfacet
  facet normal 0 0 1
    outer loop
      vertex 19.1216 -2.76227 3.0328
      vertex 17.0976 -2.53057 3.0328
      vertex 17.6796 -5.52107 3.0328
    endloop
  endfacet
  facet normal 0 0 1
    outer loop
      vertex 18.1416 3.26405 3.0328
      vertex 17.0976 -2.53057 3.0328
      vertex 18.5395 0.228222 3.0328
    endloop
  endfacet
  facet normal 0 0 1
    outer loop
      vertex 16.6996 0.505258 3.0328
      vertex 17.0976 -2.53057 3.0328
      vertex 18.1416 3.26405 3.0328
    endloop
  endfacet
  facet normal 0 0.0184916 -0.999829
    outer loop
      vertex 18.0769 -5.52107 1.40585
      vertex 15.4742 2.76665 1.55913
      vertex 17.2763 2.76665 1.55913
    endloop
  endfacet
  facet normal 0 0.545969 0.837806
    outer loop
      vertex 15.4742 2.76665 1.55913
      vertex 14.8975 0.505258 3.0328
      vertex 16.6996 0.505258 3.0328
    endloop
  endfacet
  facet normal 0 0.545969 0.837806
    outer loop
      vertex 17.2763 2.76665 1.55913
      vertex 15.4742 2.76665 1.55913
      vertex 16.6996 0.505258 3.0328
    endloop
  endfacet
  facet normal 0 0.206765 0.978391
    outer loop
      vertex 16.6996 0.505258 3.0328
      vertex 14.8975 0.505258 3.0328
      vertex 15.2955 -2.53057 3.67437
    endloop
  endfacet
  facet normal 0.335067 0.0439207 0.94117
    outer loop
      vertex 16.6996 0.505258 3.0328
      vertex 15.2955 -2.53057 3.67437
      vertex 17.0976 -2.53057 3.0328
    endloop
  endfacet
  facet normal 0.866194 -0.452742 0.2115
    outer loop
      vertex 19.1216 -2.76227 3.0328
      vertex 17.6796 -5.52107 3.0328
      vertex 18.0769 -5.52107 1.40585
    endloop
  endfacet
  facet normal 0.866194 -0.452742 0.2115
    outer loop
      vertex 19.5189 -2.76227 1.40585
      vertex 19.1216 -2.76227 3.0328
      vertex 18.0769 -5.52107 1.40585
    endloop
  endfacet
  facet normal -0.0298483 0.0156011 -0.999433
    outer loop
      vertex 18.0769 -5.52107 1.40585
      vertex 17.2763 2.76665 1.55913
      vertex 19.5189 -2.76227 1.40585
    endloop
  endfacet
  facet normal -0.329535 0.573027 0.750364
    outer loop
      vertex 17.2763 2.76665 1.55913
      vertex 16.6996 0.505258 3.0328
      vertex 18.7183 3.59589 1.55913
    endloop
  endfacet
  facet normal -0.861276 0.450171 -0.235688
    outer loop
      vertex 18.7183 3.59589 1.55913
      vertex 16.6996 0.505258 3.0328
      vertex 18.1416 3.26405 3.0328
    endloop
  endfacet
  facet normal 0.38851 0.703146 0.595521
    outer loop
      vertex 20.3179 2.95281 1.98051
      vertex 18.1416 3.26405 3.0328
      vertex 20.1766 2.39892 2.72666
    endloop
  endfacet
  facet normal 0.157296 0.0206184 0.987336
    outer loop
      vertex 20.1766 2.39892 2.72666
      vertex 18.1416 3.26405 3.0328
      vertex 18.5395 0.228222 3.0328
    endloop
  endfacet
  facet normal 0.281654 0.906558 0.314362
    outer loop
      vertex 18.7183 3.59589 1.55913
      vertex 18.1416 3.26405 3.0328
      vertex 20.3179 2.95281 1.98051
    endloop
  endfacet
  facet normal 0.150338 0.0292617 0.988202
    outer loop
      vertex 20.2741 1.65534 2.72666
      vertex 18.5395 0.228222 3.0328
      vertex 19.1216 -2.76227 3.0328
    endloop
  endfacet
  facet normal 0.157296 0.0206183 0.987336
    outer loop
      vertex 20.1766 2.39892 2.72666
      vertex 18.5395 0.228222 3.0328
      vertex 20.2741 1.65534 2.72666
    endloop
  endfacet
  facet normal 0.150338 0.0292616 0.988202
    outer loop
      vertex 20.2741 1.65534 2.72666
      vertex 19.1216 -2.76227 3.0328
      vertex 20.4167 0.922862 2.72666
    endloop
  endfacet
  facet normal 0.924786 -0.306238 0.225807
    outer loop
      vertex 20.4167 0.922862 2.72666
      vertex 19.1216 -2.76227 3.0328
      vertex 19.5189 -2.76227 1.40585
    endloop
  endfacet
  facet normal -0.0129233 0.0224722 -0.999664
    outer loop
      vertex 19.5189 -2.76227 1.40585
      vertex 17.2763 2.76665 1.55913
      vertex 18.7183 3.59589 1.55913
    endloop
  endfacet
  facet normal 0.955319 -0.273189 0.112842
    outer loop
      vertex 20.4167 0.922862 2.72666
      vertex 19.5189 -2.76227 1.40585
      vertex 20.514 0.922862 1.9029
    endloop
  endfacet
  facet normal 0.268985 0.0570457 -0.961454
    outer loop
      vertex 19.5189 -2.76227 1.40585
      vertex 18.7183 3.59589 1.55913
      vertex 20.514 0.922862 1.9029
    endloop
  endfacet
  facet normal 0.278021 0.0634992 -0.958474
    outer loop
      vertex 20.514 0.922862 1.9029
      vertex 18.7183 3.59589 1.55913
      vertex 20.3179 2.95281 1.98051
    endloop
  endfacet
  facet normal 0.98897 0.0910626 0.116817
    outer loop
      vertex 20.514 0.922862 1.9029
      vertex 20.3179 2.95281 1.98051
      vertex 20.4167 0.922862 2.72666
    endloop
  endfacet
  facet normal 0.914547 0.178006 0.363206
    outer loop
      vertex 20.3179 2.95281 1.98051
      vertex 20.2741 1.65534 2.72666
      vertex 20.4167 0.922862 2.72666
    endloop
  endfacet
  facet normal 0.953752 0.125017 0.273364
    outer loop
      vertex 20.3179 2.95281 1.98051
      vertex 20.1766 2.39892 2.72666
      vertex 20.2741 1.65534 2.72666
    endloop
  endfacet
endsolid OpenSCAD_Model
