solid OpenSCAD_Model
  facet normal -0.98897 0.0910626 0.116817
    outer loop
      vertex -20.3179 2.95281 1.98051
      vertex -20.514 0.922862 1.9029
      vertex -20.4167 0.922862 2.72666
    endloop
  endfacet
  facet normal -0.955319 -0.273189 0.112842
    outer loop
      vertex -20.4167 0.922862 2.72666
      vertex -20.514 0.922862 1.9029
      vertex -19.5189 -2.76227 1.40585
    endloop
  endfacet
  facet normal -0.268985 0.0570457 -0.961454
    outer loop
      vertex -19.5189 -2.76227 1.40585
      vertex -20.514 0.922862 1.9029
      vertex -18.7183 3.59589 1.55913
    endloop
  endfacet
  facet normal -0.278021 0.0634992 -0.958474
    outer loop
      vertex -18.7183 3.59589 1.55913
      vertex -20.514 0.922862 1.9029
      vertex -20.3179 2.95281 1.98051
    endloop
  endfacet
  facet normal -0.281654 0.906558 0.314362
    outer loop
      vertex -18.7183 3.59589 1.55913
      vertex -20.3179 2.95281 1.98051
      vertex -18.1416 3.26405 3.0328
    endloop
  endfacet
  facet normal -0.38851 0.703146 0.595521
    outer loop
      vertex -18.1416 3.26405 3.0328
      vertex -20.3179 2.95281 1.98051
      vertex -20.1766 2.39892 2.72666
    endloop
  endfacet
  facet normal -0.953752 0.125017 0.273364
    outer loop
      vertex -20.1766 2.39892 2.72666
      vertex -20.3179 2.95281 1.98051
      vertex -20.2741 1.65534 2.72666
    endloop
  endfacet
  facet normal -0.914547 0.178006 0.363206
    outer loop
      vertex -20.3179 2.95281 1.98051
      vertex -20.4167 0.922862 2.72666
      vertex -20.2741 1.65534 2.72666
    endloop
  endfacet
  facet normal -0.150338 0.0292616 0.988202
    outer loop
      vertex -20.2741 1.65534 2.72666
      vertex -20.4167 0.922862 2.72666
      vertex -19.1216 -2.76227 3.0328
    endloop
  endfacet
  facet normal -0.924786 -0.306238 0.225807
    outer loop
      vertex -19.1216 -2.76227 3.0328
      vertex -20.4167 0.922862 2.72666
      vertex -19.5189 -2.76227 1.40585
    endloop
  endfacet
  facet normal -0.866194 -0.452742 0.2115
    outer loop
      vertex -19.5189 -2.76227 1.40585
      vertex -18.0769 -5.52107 1.40585
      vertex -19.1216 -2.76227 3.0328
    endloop
  endfacet
  facet normal -0.866194 -0.452742 0.2115
    outer loop
      vertex -19.1216 -2.76227 3.0328
      vertex -18.0769 -5.52107 1.40585
      vertex -17.6796 -5.52107 3.0328
    endloop
  endfacet
  facet normal 0.0298483 0.0156011 -0.999433
    outer loop
      vertex -18.0769 -5.52107 1.40585
      vertex -19.5189 -2.76227 1.40585
      vertex -17.2763 2.76665 1.55913
    endloop
  endfacet
  facet normal 0.0129233 0.0224722 -0.999664
    outer loop
      vertex -17.2763 2.76665 1.55913
      vertex -19.5189 -2.76227 1.40585
      vertex -18.7183 3.59589 1.55913
    endloop
  endfacet
  facet normal 0.329535 0.573027 0.750364
    outer loop
      vertex -17.2763 2.76665 1.55913
      vertex -18.7183 3.59589 1.55913
      vertex -16.6996 0.505258 3.0328
    endloop
  endfacet
  facet normal 0.861276 0.450171 -0.235688
    outer loop
      vertex -16.6996 0.505258 3.0328
      vertex -18.7183 3.59589 1.55913
      vertex -18.1416 3.26405 3.0328
    endloop
  endfacet
  facet normal 0 0 1
    outer loop
      vertex -18.5395 0.228222 3.0328
      vertex -19.1216 -2.76227 3.0328
      vertex -17.6796 -5.52107 3.0328
    endloop
  endfacet
  facet normal 0 0 1
    outer loop
      vertex -17.0976 -2.53057 3.0328
      vertex -18.5395 0.228222 3.0328
      vertex -15.8775 -7.04283 3.0328
    endloop
  endfacet
  facet normal 0 0 1
    outer loop
      vertex -15.8775 -7.04283 3.0328
      vertex -18.5395 0.228222 3.0328
      vertex -17.6796 -5.52107 3.0328
    endloop
  endfacet
  facet normal 0 0 1
    outer loop
      vertex -16.6996 0.505258 3.0328
      vertex -18.5395 0.228222 3.0328
      vertex -17.0976 -2.53057 3.0328
    endloop
  endfacet
  facet normal 0 0 1
    outer loop
      vertex -18.1416 3.26405 3.0328
      vertex -18.5395 0.228222 3.0328
      vertex -16.6996 0.505258 3.0328
    endloop
  endfacet
  facet normal -0.157296 0.0206184 0.987336
    outer loop
      vertex -18.1416 3.26405 3.0328
      vertex -20.1766 2.39892 2.72666
      vertex -18.5395 0.228222 3.0328
    endloop
  endfacet
  facet normal -0.157296 0.0206183 0.987336
    outer loop
      vertex -20.1766 2.39892 2.72666
      vertex -20.2741 1.65534 2.72666
      vertex -18.5395 0.228222 3.0328
    endloop
  endfacet
  facet normal -0.150338 0.0292617 0.988202
    outer loop
      vertex -18.5395 0.228222 3.0328
      vertex -20.2741 1.65534 2.72666
      vertex -19.1216 -2.76227 3.0328
    endloop
  endfacet
  facet normal -0.637319 -0.754724 0.155616
    outer loop
      vertex -15.8775 -7.04283 3.0328
      vertex -17.6796 -5.52107 3.0328
      vertex -16.2748 -7.04283 1.40585
    endloop
  endfacet
  facet normal -0.637319 -0.754724 0.155615
    outer loop
      vertex -17.6796 -5.52107 3.0328
      vertex -18.0769 -5.52107 1.40585
      vertex -16.2748 -7.04283 1.40585
    endloop
  endfacet
  facet normal 0.0123419 0.0146155 -0.999817
    outer loop
      vertex -16.2748 -7.04283 1.40585
      vertex -18.0769 -5.52107 1.40585
      vertex -15.4742 2.76665 1.55913
    endloop
  endfacet
  facet normal 0 0.0184916 -0.999829
    outer loop
      vertex -15.4742 2.76665 1.55913
      vertex -18.0769 -5.52107 1.40585
      vertex -17.2763 2.76665 1.55913
    endloop
  endfacet
  facet normal 0 0.545969 0.837806
    outer loop
      vertex -15.4742 2.76665 1.55913
      vertex -17.2763 2.76665 1.55913
      vertex -16.6996 0.505258 3.0328
    endloop
  endfacet
  facet normal 0 0.545969 0.837806
    outer loop
      vertex -14.8975 0.505258 3.0328
      vertex -15.4742 2.76665 1.55913
      vertex -16.6996 0.505258 3.0328
    endloop
  endfacet
  facet normal 0 0.206765 0.978391
    outer loop
      vertex -14.8975 0.505258 3.0328
      vertex -16.6996 0.505258 3.0328
      vertex -15.2955 -2.53057 3.67437
    endloop
  endfacet
  facet normal -0.335067 0.0439207 0.94117
    outer loop
      vertex -16.6996 0.505258 3.0328
      vertex -17.0976 -2.53057 3.0328
      vertex -15.2955 -2.53057 3.67437
    endloop
  endfacet
  facet normal -0.33402 -0.0903131 0.938229
    outer loop
      vertex -15.2955 -2.53057 3.67437
      vertex -17.0976 -2.53057 3.0328
      vertex -15.8775 -7.04283 3.0328
    endloop
  endfacet
  facet normal -0.049083 -0.134389 0.989712
    outer loop
      vertex -15.2955 -2.53057 3.67437
      vertex -15.8775 -7.04283 3.0328
      vertex -14.0749 -7.70121 3.0328
    endloop
  endfacet
  facet normal -0.341868 -0.936033 0.0834743
    outer loop
      vertex -14.0749 -7.70121 3.0328
      vertex -15.8775 -7.04283 3.0328
      vertex -14.4721 -7.70121 1.40585
    endloop
  endfacet
  facet normal -0.341868 -0.936033 0.0834746
    outer loop
      vertex -15.8775 -7.04283 3.0328
      vertex -16.2748 -7.04283 1.40585
      vertex -14.4721 -7.70121 1.40585
    endloop
  endfacet
  facet normal 0.00606421 0.0166038 -0.999844
    outer loop
      vertex -14.4721 -7.70121 1.40585
      vertex -16.2748 -7.04283 1.40585
      vertex -13.6716 1.23652 1.55913
    endloop
  endfacet
  facet normal 0.0124019 0.0146106 -0.999816
    outer loop
      vertex -13.6716 1.23652 1.55913
      vertex -16.2748 -7.04283 1.40585
      vertex -15.4742 2.76665 1.55913
    endloop
  endfacet
  facet normal 0.477039 0.561998 0.675716
    outer loop
      vertex -13.6716 1.23652 1.55913
      vertex -15.4742 2.76665 1.55913
      vertex -13.0949 -1.02487 3.0328
    endloop
  endfacet
  facet normal 0.477039 0.561998 0.675716
    outer loop
      vertex -13.0949 -1.02487 3.0328
      vertex -15.4742 2.76665 1.55913
      vertex -14.8975 0.505258 3.0328
    endloop
  endfacet
  facet normal 0 0 1
    outer loop
      vertex -13.0949 -1.02487 3.0328
      vertex -14.8975 0.505258 3.0328
      vertex -13.4928 -4.0607 3.0328
    endloop
  endfacet
  facet normal 0.430155 0.132335 0.893003
    outer loop
      vertex -14.8975 0.505258 3.0328
      vertex -15.2955 -2.53057 3.67437
      vertex -13.4928 -4.0607 3.0328
    endloop
  endfacet
  facet normal 0.298695 -0.0477575 0.953153
    outer loop
      vertex -13.4928 -4.0607 3.0328
      vertex -15.2955 -2.53057 3.67437
      vertex -14.0749 -7.70121 3.0328
    endloop
  endfacet
  facet normal 0 0 1
    outer loop
      vertex -13.4928 -4.0607 3.0328
      vertex -14.0749 -7.70121 3.0328
      vertex -12.4789 -7.06161 3.0328
    endloop
  endfacet
  facet normal 0.370466 -0.924431 -0.0904571
    outer loop
      vertex -14.0749 -7.70121 3.0328
      vertex -14.4721 -7.70121 1.40585
      vertex -12.8761 -7.06161 1.40585
    endloop
  endfacet
  facet normal 0.370466 -0.924431 -0.0904571
    outer loop
      vertex -12.4789 -7.06161 3.0328
      vertex -14.0749 -7.70121 3.0328
      vertex -12.8761 -7.06161 1.40585
    endloop
  endfacet
  facet normal -0.00684843 0.017089 -0.999831
    outer loop
      vertex -12.8761 -7.06161 1.40585
      vertex -14.4721 -7.70121 1.40585
      vertex -12.0756 2.22712 1.55913
    endloop
  endfacet
  facet normal -0.0112684 0.018155 -0.999772
    outer loop
      vertex -12.0756 2.22712 1.55913
      vertex -14.4721 -7.70121 1.40585
      vertex -13.6716 1.23652 1.55913
    endloop
  endfacet
  facet normal -0.291153 0.469091 0.833776
    outer loop
      vertex -12.0756 2.22712 1.55913
      vertex -13.6716 1.23652 1.55913
      vertex -11.4989 -0.034267 3.0328
    endloop
  endfacet
  facet normal -0.291153 0.469091 0.833776
    outer loop
      vertex -11.4989 -0.034267 3.0328
      vertex -13.6716 1.23652 1.55913
      vertex -13.0949 -1.02487 3.0328
    endloop
  endfacet
  facet normal -0.0658158 0.106039 0.992181
    outer loop
      vertex -11.4989 -0.034267 3.0328
      vertex -13.0949 -1.02487 3.0328
      vertex -11.8968 -3.0701 3.33086
    endloop
  endfacet
  facet normal -0.199149 0.0261044 0.979622
    outer loop
      vertex -13.0949 -1.02487 3.0328
      vertex -13.4928 -4.0607 3.0328
      vertex -11.8968 -3.0701 3.33086
    endloop
  endfacet
  facet normal -0.152368 -0.0514812 0.986982
    outer loop
      vertex -11.8968 -3.0701 3.33086
      vertex -13.4928 -4.0607 3.0328
      vertex -12.4789 -7.06161 3.0328
    endloop
  endfacet
  facet normal -0.0270324 -0.0705174 0.997144
    outer loop
      vertex -11.8968 -3.0701 3.33086
      vertex -12.4789 -7.06161 3.0328
      vertex -7.53149 -6.19596 3.22814
    endloop
  endfacet
  facet normal 0.173822 -0.983862 -0.0424425
    outer loop
      vertex -7.53149 -6.19596 3.22814
      vertex -12.4789 -7.06161 3.0328
      vertex -8.05388 -6.19596 1.0887
    endloop
  endfacet
  facet normal 0.173822 -0.983862 -0.0424424
    outer loop
      vertex -12.4789 -7.06161 3.0328
      vertex -12.8761 -7.06161 1.40585
      vertex -8.05388 -6.19596 1.0887
    endloop
  endfacet
  facet normal -0.0674687 0.0222747 -0.997473
    outer loop
      vertex -7.00116 5.55718 1.29026
      vertex -12.8761 -7.06161 1.40585
      vertex -12.0756 2.22712 1.55913
    endloop
  endfacet
  facet normal -0.0697823 0.0233535 -0.997289
    outer loop
      vertex -8.05388 -6.19596 1.0887
      vertex -12.8761 -7.06161 1.40585
      vertex -7.00116 5.55718 1.29026
    endloop
  endfacet
  facet normal -0.268609 0.476887 0.836916
    outer loop
      vertex -7.00116 5.55718 1.29026
      vertex -12.0756 2.22712 1.55913
      vertex -11.4989 -0.034267 3.0328
    endloop
  endfacet
  facet normal -0.268609 0.476887 0.836916
    outer loop
      vertex -7.00116 5.55718 1.29026
      vertex -11.4989 -0.034267 3.0328
      vertex -6.24278 2.58344 3.22814
    endloop
  endfacet
  facet normal -0.0397284 0.00520759 0.999197
    outer loop
      vertex -6.24278 2.58344 3.22814
      vertex -11.4989 -0.034267 3.0328
      vertex -6.76607 -1.40868 3.22814
    endloop
  endfacet
  facet normal -0.0122326 0.0992906 0.994983
    outer loop
      vertex -11.4989 -0.034267 3.0328
      vertex -11.8968 -3.0701 3.33086
      vertex -6.76607 -1.40868 3.22814
    endloop
  endfacet
  facet normal 0.021108 -0.00337489 0.999772
    outer loop
      vertex -6.76607 -1.40868 3.22814
      vertex -11.8968 -3.0701 3.33086
      vertex -7.53149 -6.19596 3.22814
    endloop
  endfacet
  facet normal -0.89673 0.143376 0.41871
    outer loop
      vertex -6.76607 -1.40868 3.22814
      vertex -7.53149 -6.19596 3.22814
      vertex -7.41311 -12.8912 5.77426
    endloop
  endfacet
  facet normal -0.981317 0.0529859 0.184957
    outer loop
      vertex -7.53149 -6.19596 3.22814
      vertex -8.62616 -12.8912 -0.661766
      vertex -7.41311 -12.8912 5.77426
    endloop
  endfacet
  facet normal -0.971246 0.021015 0.237151
    outer loop
      vertex -8.05388 -6.19596 1.0887
      vertex -8.62616 -12.8912 -0.661766
      vertex -7.53149 -6.19596 3.22814
    endloop
  endfacet
  facet normal -0.995849 0.0894836 -0.0166854
    outer loop
      vertex -6.18161 14.4011 -0.193714
      vertex -8.62616 -12.8912 -0.661766
      vertex -8.05388 -6.19596 1.0887
    endloop
  endfacet
  facet normal -0.995849 0.0894836 -0.0166851
    outer loop
      vertex -6.18161 14.4011 -0.193714
      vertex -8.05388 -6.19596 1.0887
      vertex -7.00116 5.55718 1.29026
    endloop
  endfacet
  facet normal -0.883757 0.155928 0.441203
    outer loop
      vertex -6.18161 14.4011 -0.193714
      vertex -7.00116 5.55718 1.29026
      vertex -4.42056 7.49572 5.77426
    endloop
  endfacet
  facet normal -0.87874 0.0822815 0.470155
    outer loop
      vertex -4.42056 7.49572 5.77426
      vertex -7.00116 5.55718 1.29026
      vertex -6.24278 2.58344 3.22814
    endloop
  endfacet
  facet normal -0.901172 0.118126 0.417055
    outer loop
      vertex -4.42056 7.49572 5.77426
      vertex -6.24278 2.58344 3.22814
      vertex -5.6357 -1.77449 5.77426
    endloop
  endfacet
  facet normal -0.901172 0.118126 0.417055
    outer loop
      vertex -6.24278 2.58344 3.22814
      vertex -6.76607 -1.40868 3.22814
      vertex -5.6357 -1.77449 5.77426
    endloop
  endfacet
  facet normal -0.89673 0.143376 0.41871
    outer loop
      vertex -6.76607 -1.40868 3.22814
      vertex -7.41311 -12.8912 5.77426
      vertex -5.6357 -1.77449 5.77426
    endloop
  endfacet
  facet normal -0.636572 -0.761827 0.11998
    outer loop
      vertex -7.41311 -12.8912 5.77426
      vertex -8.62616 -12.8912 -0.661766
      vertex -5.24215 -15.7188 -0.661766
    endloop
  endfacet
  facet normal 0 0 1
    outer loop
      vertex -5.6357 -1.77449 5.77426
      vertex -7.41311 -12.8912 5.77426
      vertex -4.32046 -15.7188 5.77426
    endloop
  endfacet
  facet normal 0 0 1
    outer loop
      vertex 4.32046 -15.7188 5.77426
      vertex -5.6357 -1.77449 5.77426
      vertex 0 -12.0858 5.77426
    endloop
  endfacet
  facet normal 0 0 1
    outer loop
      vertex 0 -12.0858 5.77426
      vertex -5.6357 -1.77449 5.77426
      vertex -4.32046 -15.7188 5.77426
    endloop
  endfacet
  facet normal 0 0 1
    outer loop
      vertex -1.48788 -6.92126 5.77426
      vertex -5.6357 -1.77449 5.77426
      vertex 4.32046 -15.7188 5.77426
    endloop
  endfacet
  facet normal 0 0 1
    outer loop
      vertex 4.42056 7.49572 5.77426
      vertex -5.6357 -1.77449 5.77426
      vertex 5.6357 -1.77449 5.77426
    endloop
  endfacet
  facet normal 0 0 1
    outer loop
      vertex 0 7.49572 5.77426
      vertex -5.6357 -1.77449 5.77426
      vertex 4.42056 7.49572 5.77426
    endloop
  endfacet
  facet normal 0 0 1
    outer loop
      vertex -4.42056 7.49572 5.77426
      vertex -5.6357 -1.77449 5.77426
      vertex 0 7.49572 5.77426
    endloop
  endfacet
  facet normal 0 0 1
    outer loop
      vertex -1.7202 -5.67844 5.77426
      vertex -5.6357 -1.77449 5.77426
      vertex -1.7202 -6.32156 5.77426
    endloop
  endfacet
  facet normal 0 0 1
    outer loop
      vertex -0.47891 -7.68319 5.77426
      vertex -1.05461 -7.39653 5.77426
      vertex 4.32046 -15.7188 5.77426
    endloop
  endfacet
  facet normal 0 0 1
    outer loop
      vertex 0.780042 -7.56654 5.77426
      vertex 0.16147 -7.74253 5.77426
      vertex 7.41311 -12.8912 5.77426
    endloop
  endfacet
  facet normal 0 0 1
    outer loop
      vertex -1.05461 -4.60347 5.77426
      vertex -5.6357 -1.77449 5.77426
      vertex -1.48788 -5.07874 5.77426
    endloop
  endfacet
  facet normal 0 0 1
    outer loop
      vertex -0.47891 -4.3168 5.77426
      vertex -5.6357 -1.77449 5.77426
      vertex -1.05461 -4.60347 5.77426
    endloop
  endfacet
  facet normal 0 0 1
    outer loop
      vertex 0.16147 -4.25746 5.77426
      vertex 0.780042 -4.43346 5.77426
      vertex 5.6357 -1.77449 5.77426
    endloop
  endfacet
  facet normal 0 0 1
    outer loop
      vertex 5.6357 -1.77449 5.77426
      vertex -5.6357 -1.77449 5.77426
      vertex -0.47891 -4.3168 5.77426
    endloop
  endfacet
  facet normal 0 0 1
    outer loop
      vertex 1.63183 -5.36783 5.77426
      vertex 1.75 -6 5.77426
      vertex 7.41311 -12.8912 5.77426
    endloop
  endfacet
  facet normal 0 0 1
    outer loop
      vertex 1.29327 -7.17897 5.77426
      vertex 0.780042 -7.56654 5.77426
      vertex 7.41311 -12.8912 5.77426
    endloop
  endfacet
  facet normal 0 0 1
    outer loop
      vertex 5.6357 -1.77449 5.77426
      vertex 1.29327 -4.82103 5.77426
      vertex 7.41311 -12.8912 5.77426
    endloop
  endfacet
  facet normal 0 0 1
    outer loop
      vertex 5.6357 -1.77449 5.77426
      vertex 0.780042 -4.43346 5.77426
      vertex 1.29327 -4.82103 5.77426
    endloop
  endfacet
  facet normal 0 0 1
    outer loop
      vertex 1.29327 -4.82103 5.77426
      vertex 1.63183 -5.36783 5.77426
      vertex 7.41311 -12.8912 5.77426
    endloop
  endfacet
  facet normal 0 0 1
    outer loop
      vertex 1.75 -6 5.77426
      vertex 1.63183 -6.63217 5.77426
      vertex 7.41311 -12.8912 5.77426
    endloop
  endfacet
  facet normal 0 0 1
    outer loop
      vertex 1.63183 -6.63217 5.77426
      vertex 1.29327 -7.17897 5.77426
      vertex 7.41311 -12.8912 5.77426
    endloop
  endfacet
  facet normal 0 0 1
    outer loop
      vertex -0.47891 -4.3168 5.77426
      vertex 0.16147 -4.25746 5.77426
      vertex 5.6357 -1.77449 5.77426
    endloop
  endfacet
  facet normal 0 0 1
    outer loop
      vertex 7.41311 -12.8912 5.77426
      vertex 0.16147 -7.74253 5.77426
      vertex 4.32046 -15.7188 5.77426
    endloop
  endfacet
  facet normal 0 0 1
    outer loop
      vertex 0.16147 -7.74253 5.77426
      vertex -0.47891 -7.68319 5.77426
      vertex 4.32046 -15.7188 5.77426
    endloop
  endfacet
  facet normal 0 0 1
    outer loop
      vertex -1.05461 -7.39653 5.77426
      vertex -1.48788 -6.92126 5.77426
      vertex 4.32046 -15.7188 5.77426
    endloop
  endfacet
  facet normal 0 0 1
    outer loop
      vertex -1.48788 -6.92126 5.77426
      vertex -1.7202 -6.32156 5.77426
      vertex -5.6357 -1.77449 5.77426
    endloop
  endfacet
  facet normal 0 0 1
    outer loop
      vertex -1.7202 -5.67844 5.77426
      vertex -1.48788 -5.07874 5.77426
      vertex -5.6357 -1.77449 5.77426
    endloop
  endfacet
  facet normal -0.67165 -0.734598 0.0961853
    outer loop
      vertex -4.32046 -15.7188 5.77426
      vertex -7.41311 -12.8912 5.77426
      vertex -5.24215 -15.7188 -0.661766
    endloop
  endfacet
  facet normal -0.577513 -0.691147 -0.434504
    outer loop
      vertex -5.24215 -15.7188 -0.661766
      vertex -8.62616 -12.8912 -0.661766
      vertex -2.5848 -15.7188 -4.19371
    endloop
  endfacet
  facet normal -0.564418 -0.208099 -0.798829
    outer loop
      vertex -2.5848 -15.7188 -4.19371
      vertex -8.62616 -12.8912 -0.661766
      vertex -5.05648 -9.01499 -4.19371
    endloop
  endfacet
  facet normal -0.72245 0.0361665 -0.690477
    outer loop
      vertex -5.05648 -9.01499 -4.19371
      vertex -8.62616 -12.8912 -0.661766
      vertex -3.88425 14.4011 -4.19371
    endloop
  endfacet
  facet normal -0.863949 0.0858929 -0.496201
    outer loop
      vertex -3.88425 14.4011 -4.19371
      vertex -8.62616 -12.8912 -0.661766
      vertex -6.18161 14.4011 -0.193714
    endloop
  endfacet
  facet normal -0.85866 0.139613 -0.493164
    outer loop
      vertex -3.88425 14.4011 -4.19371
      vertex -6.18161 14.4011 -0.193714
      vertex -2.64469 22.0248 -4.19371
    endloop
  endfacet
  facet normal -0.905754 0.23526 -0.352509
    outer loop
      vertex -2.64469 22.0248 -4.19371
      vertex -6.18161 14.4011 -0.193714
      vertex -4.42056 21.1812 -0.193714
    endloop
  endfacet
  facet normal -0.838523 0.217798 0.499443
    outer loop
      vertex -4.42056 21.1812 -0.193714
      vertex -6.18161 14.4011 -0.193714
      vertex -4.42056 7.49572 5.77426
    endloop
  endfacet
  facet normal 0 0.399727 0.916634
    outer loop
      vertex -4.42056 21.1812 -0.193714
      vertex -4.42056 7.49572 5.77426
      vertex 0 7.49572 5.77426
    endloop
  endfacet
  facet normal -0.131957 -0.991075 0.0188973
    outer loop
      vertex -4.32046 -15.7188 5.77426
      vertex -5.24215 -15.7188 -0.661766
      vertex -2.93372 -15.9874 1.37261
    endloop
  endfacet
  facet normal -0.131957 -0.991075 0.0188973
    outer loop
      vertex -2.2981 -16.0544 2.2981
      vertex -4.32046 -15.7188 5.77426
      vertex -2.70228 -16.0099 1.8056
    endloop
  endfacet
  facet normal -0.131957 -0.991075 0.0188973
    outer loop
      vertex -2.70228 -16.0099 1.8056
      vertex -4.32046 -15.7188 5.77426
      vertex -2.93372 -15.9874 1.37261
    endloop
  endfacet
  facet normal -0.131957 -0.991075 0.0188973
    outer loop
      vertex -1.8056 -16.1122 2.70228
      vertex -4.32046 -15.7188 5.77426
      vertex -2.2981 -16.0544 2.2981
    endloop
  endfacet
  facet normal -0.131957 -0.991075 0.0188973
    outer loop
      vertex -1.24372 -16.1813 3.00261
      vertex -4.32046 -15.7188 5.77426
      vertex -1.8056 -16.1122 2.70228
    endloop
  endfacet
  facet normal -0.131957 -0.991075 0.0188973
    outer loop
      vertex -1.00037 -16.2123 3.07643
      vertex -4.32046 -15.7188 5.77426
      vertex -1.24372 -16.1813 3.00261
    endloop
  endfacet
  facet normal -0.131957 -0.991075 0.0188973
    outer loop
      vertex 0 -16.3287 3.95804
      vertex -4.32046 -15.7188 5.77426
      vertex -1.00037 -16.2123 3.07643
    endloop
  endfacet
  facet normal -0.115563 -0.9933 4.87405e-07
    outer loop
      vertex -1.8056 -16.1186 -2.70228
      vertex -5.24215 -15.7188 -0.661766
      vertex 0 -16.3287 -4.19371
    endloop
  endfacet
  facet normal -0.115563 -0.9933 4.87405e-07
    outer loop
      vertex -1.8056 -16.1186 -2.70228
      vertex -2.2981 -16.0613 -2.2981
      vertex -5.24215 -15.7188 -0.661766
    endloop
  endfacet
  facet normal -0.115563 -0.9933 4.87405e-07
    outer loop
      vertex -0.634044 -16.2549 -3.18755
      vertex -1.24372 -16.184 -3.00261
      vertex 0 -16.3287 -4.19371
    endloop
  endfacet
  facet normal -0.115563 -0.9933 4.87405e-07
    outer loop
      vertex -1.24372 -16.184 -3.00261
      vertex -1.8056 -16.1186 -2.70228
      vertex 0 -16.3287 -4.19371
    endloop
  endfacet
  facet normal -0.115563 -0.9933 4.87405e-07
    outer loop
      vertex -2.2981 -16.0613 -2.2981
      vertex -2.70228 -16.0143 -1.8056
      vertex -5.24215 -15.7188 -0.661766
    endloop
  endfacet
  facet normal -0.115563 -0.9933 4.87405e-07
    outer loop
      vertex -3.00261 -15.9794 -1.24372
      vertex -5.24215 -15.7188 -0.661766
      vertex -2.70228 -16.0143 -1.8056
    endloop
  endfacet
  facet normal -0.115563 -0.9933 4.87405e-07
    outer loop
      vertex -3.18755 -15.9578 -0.634044
      vertex -5.24215 -15.7188 -0.661766
      vertex -3.00261 -15.9794 -1.24372
    endloop
  endfacet
  facet normal -0.115563 -0.9933 4.87405e-07
    outer loop
      vertex -3.25 -15.9506 -1.09749e-17
      vertex -5.24215 -15.7188 -0.661766
      vertex -3.18755 -15.9578 -0.634044
    endloop
  endfacet
  facet normal -0.115563 -0.9933 4.87405e-07
    outer loop
      vertex -3.18755 -15.9578 0.634044
      vertex -5.24215 -15.7188 -0.661766
      vertex -3.25 -15.9506 -1.09749e-17
    endloop
  endfacet
  facet normal -0.115563 -0.9933 4.87405e-07
    outer loop
      vertex -3.00261 -15.9794 1.24372
      vertex -5.24215 -15.7188 -0.661766
      vertex -3.18755 -15.9578 0.634044
    endloop
  endfacet
  facet normal -0.115563 -0.9933 4.87405e-07
    outer loop
      vertex -2.93372 -15.9874 1.37261
      vertex -5.24215 -15.7188 -0.661766
      vertex -3.00261 -15.9794 1.24372
    endloop
  endfacet
  facet normal -0.115563 -0.9933 4.87405e-07
    outer loop
      vertex 0 -16.3287 -3.25
      vertex -0.634044 -16.2549 -3.18755
      vertex 0 -16.3287 -4.19371
    endloop
  endfacet
  facet normal -0.226289 -0.959066 -0.170252
    outer loop
      vertex 0 -16.3287 -4.19371
      vertex -5.24215 -15.7188 -0.661766
      vertex -2.5848 -15.7188 -4.19371
    endloop
  endfacet
  facet normal 0 0.399727 0.916634
    outer loop
      vertex 4.42056 21.1812 -0.193714
      vertex 0 7.49572 5.77426
      vertex 4.42056 7.49572 5.77426
    endloop
  endfacet
  facet normal -0.191379 0.339744 0.920841
    outer loop
      vertex 0 23.6713 -0.193714
      vertex -4.42056 21.1812 -0.193714
      vertex 0 7.49572 5.77426
    endloop
  endfacet
  facet normal 0.191379 0.339744 0.920841
    outer loop
      vertex 0 23.6713 -0.193714
      vertex 0 7.49572 5.77426
      vertex 4.42056 21.1812 -0.193714
    endloop
  endfacet
  facet normal 0.838523 0.217798 0.499443
    outer loop
      vertex 4.42056 21.1812 -0.193714
      vertex 4.42056 7.49572 5.77426
      vertex 6.18161 14.4011 -0.193714
    endloop
  endfacet
  facet normal 0.883757 0.155928 0.441203
    outer loop
      vertex 6.18161 14.4011 -0.193714
      vertex 4.42056 7.49572 5.77426
      vertex 7.00116 5.55718 1.29026
    endloop
  endfacet
  facet normal 0.87874 0.0822815 0.470155
    outer loop
      vertex 7.00116 5.55718 1.29026
      vertex 4.42056 7.49572 5.77426
      vertex 6.24278 2.58344 3.22814
    endloop
  endfacet
  facet normal 0.901172 0.118126 0.417055
    outer loop
      vertex 6.24278 2.58344 3.22814
      vertex 4.42056 7.49572 5.77426
      vertex 5.6357 -1.77449 5.77426
    endloop
  endfacet
  facet normal 0.901172 0.118126 0.417055
    outer loop
      vertex 6.24278 2.58344 3.22814
      vertex 5.6357 -1.77449 5.77426
      vertex 6.76607 -1.40868 3.22814
    endloop
  endfacet
  facet normal 0.89673 0.143376 0.41871
    outer loop
      vertex 6.76607 -1.40868 3.22814
      vertex 5.6357 -1.77449 5.77426
      vertex 7.41311 -12.8912 5.77426
    endloop
  endfacet
  facet normal 0.636572 -0.761827 0.11998
    outer loop
      vertex 7.41311 -12.8912 5.77426
      vertex 5.24215 -15.7188 -0.661766
      vertex 8.62616 -12.8912 -0.661766
    endloop
  endfacet
  facet normal 0.67165 -0.734598 0.0961853
    outer loop
      vertex 7.41311 -12.8912 5.77426
      vertex 4.32046 -15.7188 5.77426
      vertex 5.24215 -15.7188 -0.661766
    endloop
  endfacet
  facet normal 0.89673 0.143376 0.41871
    outer loop
      vertex 7.53149 -6.19596 3.22814
      vertex 6.76607 -1.40868 3.22814
      vertex 7.41311 -12.8912 5.77426
    endloop
  endfacet
  facet normal 0.981317 0.0529859 0.184957
    outer loop
      vertex 7.53149 -6.19596 3.22814
      vertex 7.41311 -12.8912 5.77426
      vertex 8.62616 -12.8912 -0.661766
    endloop
  endfacet
  facet normal 0.131957 -0.991075 0.0188973
    outer loop
      vertex 4.32046 -15.7188 5.77426
      vertex 0 -16.3287 3.95804
      vertex 1.00037 -16.2123 3.07643
    endloop
  endfacet
  facet normal 0.131957 -0.991075 0.0188973
    outer loop
      vertex 1.8056 -16.1122 2.70228
      vertex 4.32046 -15.7188 5.77426
      vertex 1.24372 -16.1813 3.00261
    endloop
  endfacet
  facet normal 0.131957 -0.991075 0.0188973
    outer loop
      vertex 1.24372 -16.1813 3.00261
      vertex 4.32046 -15.7188 5.77426
      vertex 1.00037 -16.2123 3.07643
    endloop
  endfacet
  facet normal 0.131957 -0.991075 0.0188973
    outer loop
      vertex 2.2981 -16.0544 2.2981
      vertex 4.32046 -15.7188 5.77426
      vertex 1.8056 -16.1122 2.70228
    endloop
  endfacet
  facet normal 0.131957 -0.991075 0.0188973
    outer loop
      vertex 2.70228 -16.0099 1.8056
      vertex 4.32046 -15.7188 5.77426
      vertex 2.2981 -16.0544 2.2981
    endloop
  endfacet
  facet normal 0.131957 -0.991075 0.0188973
    outer loop
      vertex 2.93372 -15.9874 1.37261
      vertex 4.32046 -15.7188 5.77426
      vertex 2.70228 -16.0099 1.8056
    endloop
  endfacet
  facet normal 0.131957 -0.991075 0.0188973
    outer loop
      vertex 5.24215 -15.7188 -0.661766
      vertex 4.32046 -15.7188 5.77426
      vertex 2.93372 -15.9874 1.37261
    endloop
  endfacet
  facet normal -0.314155 -0.373602 0.87277
    outer loop
      vertex 0 -12.0858 5.77426
      vertex 0 -16.3287 3.95804
      vertex 4.32046 -15.7188 5.77426
    endloop
  endfacet
  facet normal 0.314155 -0.373602 0.87277
    outer loop
      vertex 0 -12.0858 5.77426
      vertex -4.32046 -15.7188 5.77426
      vertex 0 -16.3287 3.95804
    endloop
  endfacet
  facet normal 1 0 0
    outer loop
      vertex -1.7202 -5.67844 2.875
      vertex -1.7202 -5.67844 5.77426
      vertex -1.7202 -6.32156 5.77426
    endloop
  endfacet
  facet normal 1 0 0
    outer loop
      vertex -1.7202 -6.32156 2.875
      vertex -1.7202 -5.67844 2.875
      vertex -1.7202 -6.32156 5.77426
    endloop
  endfacet
  facet normal 0.932472 0.361242 0
    outer loop
      vertex -1.7202 -6.32156 5.77426
      vertex -1.48788 -6.92126 5.77426
      vertex -1.48788 -6.92126 2.875
    endloop
  endfacet
  facet normal 0.932472 0.361242 0
    outer loop
      vertex -1.7202 -6.32156 2.875
      vertex -1.7202 -6.32156 5.77426
      vertex -1.48788 -6.92126 2.875
    endloop
  endfacet
  facet normal 0.739009 0.673695 0
    outer loop
      vertex -1.48788 -6.92126 5.77426
      vertex -1.05461 -7.39653 5.77426
      vertex -1.05461 -7.39653 2.875
    endloop
  endfacet
  facet normal 0.739009 0.673695 0
    outer loop
      vertex -1.48788 -6.92126 2.875
      vertex -1.48788 -6.92126 5.77426
      vertex -1.05461 -7.39653 2.875
    endloop
  endfacet
  facet normal 0.445738 0.895163 0
    outer loop
      vertex -0.47891 -7.68319 5.77426
      vertex -0.47891 -7.68319 2.875
      vertex -1.05461 -7.39653 5.77426
    endloop
  endfacet
  facet normal 0.445738 0.895163 0
    outer loop
      vertex -1.05461 -7.39653 5.77426
      vertex -0.47891 -7.68319 2.875
      vertex -1.05461 -7.39653 2.875
    endloop
  endfacet
  facet normal 0.0922684 0.995734 0
    outer loop
      vertex 0.16147 -7.74253 5.77426
      vertex 0.16147 -7.74253 2.875
      vertex -0.47891 -7.68319 5.77426
    endloop
  endfacet
  facet normal 0.0922684 0.995734 0
    outer loop
      vertex -0.47891 -7.68319 5.77426
      vertex 0.16147 -7.74253 2.875
      vertex -0.47891 -7.68319 2.875
    endloop
  endfacet
  facet normal -0.273663 0.961826 0
    outer loop
      vertex 0.780042 -7.56654 5.77426
      vertex 0.780042 -7.56654 2.875
      vertex 0.16147 -7.74253 5.77426
    endloop
  endfacet
  facet normal -0.273663 0.961826 0
    outer loop
      vertex 0.16147 -7.74253 5.77426
      vertex 0.780042 -7.56654 2.875
      vertex 0.16147 -7.74253 2.875
    endloop
  endfacet
  facet normal -0.602635 0.798017 0
    outer loop
      vertex 1.29327 -7.17897 5.77426
      vertex 1.29327 -7.17897 2.875
      vertex 0.780042 -7.56654 5.77426
    endloop
  endfacet
  facet normal -0.602635 0.798017 0
    outer loop
      vertex 0.780042 -7.56654 5.77426
      vertex 1.29327 -7.17897 2.875
      vertex 0.780042 -7.56654 2.875
    endloop
  endfacet
  facet normal -0.850217 0.526432 0
    outer loop
      vertex 1.63183 -6.63217 5.77426
      vertex 1.63183 -6.63217 2.875
      vertex 1.29327 -7.17897 5.77426
    endloop
  endfacet
  facet normal -0.850217 0.526432 0
    outer loop
      vertex 1.29327 -7.17897 5.77426
      vertex 1.63183 -6.63217 2.875
      vertex 1.29327 -7.17897 2.875
    endloop
  endfacet
  facet normal -0.982973 0.18375 0
    outer loop
      vertex 1.75 -6 5.77426
      vertex 1.75 -6 2.875
      vertex 1.63183 -6.63217 5.77426
    endloop
  endfacet
  facet normal -0.982973 0.18375 0
    outer loop
      vertex 1.63183 -6.63217 5.77426
      vertex 1.75 -6 2.875
      vertex 1.63183 -6.63217 2.875
    endloop
  endfacet
  facet normal -0.982973 -0.18375 0
    outer loop
      vertex 1.75 -6 5.77426
      vertex 1.63183 -5.36783 5.77426
      vertex 1.75 -6 2.875
    endloop
  endfacet
  facet normal -0.982973 -0.18375 0
    outer loop
      vertex 1.75 -6 2.875
      vertex 1.63183 -5.36783 5.77426
      vertex 1.63183 -5.36783 2.875
    endloop
  endfacet
  facet normal -0.850217 -0.526432 0
    outer loop
      vertex 1.63183 -5.36783 5.77426
      vertex 1.29327 -4.82103 5.77426
      vertex 1.63183 -5.36783 2.875
    endloop
  endfacet
  facet normal -0.850217 -0.526432 0
    outer loop
      vertex 1.63183 -5.36783 2.875
      vertex 1.29327 -4.82103 5.77426
      vertex 1.29327 -4.82103 2.875
    endloop
  endfacet
  facet normal -0.602635 -0.798017 0
    outer loop
      vertex 1.29327 -4.82103 2.875
      vertex 1.29327 -4.82103 5.77426
      vertex 0.780042 -4.43346 5.77426
    endloop
  endfacet
  facet normal -0.602635 -0.798017 0
    outer loop
      vertex 0.780042 -4.43346 2.875
      vertex 1.29327 -4.82103 2.875
      vertex 0.780042 -4.43346 5.77426
    endloop
  endfacet
  facet normal -0.273663 -0.961826 0
    outer loop
      vertex 0.780042 -4.43346 2.875
      vertex 0.780042 -4.43346 5.77426
      vertex 0.16147 -4.25746 5.77426
    endloop
  endfacet
  facet normal -0.273663 -0.961826 0
    outer loop
      vertex 0.16147 -4.25746 2.875
      vertex 0.780042 -4.43346 2.875
      vertex 0.16147 -4.25746 5.77426
    endloop
  endfacet
  facet normal 0.0922684 -0.995734 0
    outer loop
      vertex 0.16147 -4.25746 2.875
      vertex 0.16147 -4.25746 5.77426
      vertex -0.47891 -4.3168 5.77426
    endloop
  endfacet
  facet normal 0.0922684 -0.995734 0
    outer loop
      vertex -0.47891 -4.3168 2.875
      vertex 0.16147 -4.25746 2.875
      vertex -0.47891 -4.3168 5.77426
    endloop
  endfacet
  facet normal 0.445738 -0.895163 0
    outer loop
      vertex -0.47891 -4.3168 2.875
      vertex -0.47891 -4.3168 5.77426
      vertex -1.05461 -4.60347 5.77426
    endloop
  endfacet
  facet normal 0.445738 -0.895163 0
    outer loop
      vertex -1.05461 -4.60347 2.875
      vertex -0.47891 -4.3168 2.875
      vertex -1.05461 -4.60347 5.77426
    endloop
  endfacet
  facet normal 0.739009 -0.673695 0
    outer loop
      vertex -1.05461 -4.60347 2.875
      vertex -1.05461 -4.60347 5.77426
      vertex -1.48788 -5.07874 5.77426
    endloop
  endfacet
  facet normal 0.739009 -0.673695 0
    outer loop
      vertex -1.48788 -5.07874 2.875
      vertex -1.05461 -4.60347 2.875
      vertex -1.48788 -5.07874 5.77426
    endloop
  endfacet
  facet normal 0.932472 -0.361242 0
    outer loop
      vertex -1.48788 -5.07874 2.875
      vertex -1.48788 -5.07874 5.77426
      vertex -1.7202 -5.67844 5.77426
    endloop
  endfacet
  facet normal 0.932472 -0.361242 0
    outer loop
      vertex -1.7202 -5.67844 2.875
      vertex -1.48788 -5.07874 2.875
      vertex -1.7202 -5.67844 5.77426
    endloop
  endfacet
  facet normal 0 0 -1
    outer loop
      vertex -5.05648 -9.01499 -4.19371
      vertex -3.88425 14.4011 -4.19371
      vertex -2.5848 -15.7188 -4.19371
    endloop
  endfacet
  facet normal 0 0 -1
    outer loop
      vertex -2.5848 -15.7188 -4.19371
      vertex -3.88425 14.4011 -4.19371
      vertex -2.64469 22.0248 -4.19371
    endloop
  endfacet
  facet normal 0 0 -1
    outer loop
      vertex -1.7202 0.321562 -4.19371
      vertex -2.64469 22.0248 -4.19371
      vertex 2.64469 22.0248 -4.19371
    endloop
  endfacet
  facet normal 0 0 -1
    outer loop
      vertex 0.16147 1.74253 -4.19371
      vertex 2.64469 22.0248 -4.19371
      vertex 3.88425 14.4011 -4.19371
    endloop
  endfacet
  facet normal 0 0 -1
    outer loop
      vertex 1.75 0 -4.19371
      vertex 3.88425 14.4011 -4.19371
      vertex 5.05648 -9.01499 -4.19371
    endloop
  endfacet
  facet normal 0 0 -1
    outer loop
      vertex -2.5848 -15.7188 -4.19371
      vertex 5.05648 -9.01499 -4.19371
      vertex 2.5848 -15.7188 -4.19371
    endloop
  endfacet
  facet normal 0 0 -1
    outer loop
      vertex -2.5848 -15.7188 -4.19371
      vertex 2.5848 -15.7188 -4.19371
      vertex 0 -16.3287 -4.19371
    endloop
  endfacet
  facet normal 0 0 -1
    outer loop
      vertex -2.5848 -15.7188 -4.19371
      vertex -2.64469 22.0248 -4.19371
      vertex -1.7202 0.321562 -4.19371
    endloop
  endfacet
  facet normal 0 0 -1
    outer loop
      vertex -1.48788 0.921256 -4.19371
      vertex -1.7202 0.321562 -4.19371
      vertex 2.64469 22.0248 -4.19371
    endloop
  endfacet
  facet normal 0 0 -1
    outer loop
      vertex -2.5848 -15.7188 -4.19371
      vertex -1.7202 0.321562 -4.19371
      vertex -1.7202 -0.321562 -4.19371
    endloop
  endfacet
  facet normal 0 0 -1
    outer loop
      vertex -2.5848 -15.7188 -4.19371
      vertex -1.7202 -0.321562 -4.19371
      vertex -1.48788 -0.921256 -4.19371
    endloop
  endfacet
  facet normal 0 0 -1
    outer loop
      vertex -2.5848 -15.7188 -4.19371
      vertex -1.48788 -0.921256 -4.19371
      vertex -1.05461 -1.39653 -4.19371
    endloop
  endfacet
  facet normal 0 0 -1
    outer loop
      vertex 0.780042 -1.56654 -4.19371
      vertex -2.5848 -15.7188 -4.19371
      vertex 0.16147 -1.74253 -4.19371
    endloop
  endfacet
  facet normal 0 0 -1
    outer loop
      vertex -2.5848 -15.7188 -4.19371
      vertex -0.47891 -1.68319 -4.19371
      vertex 0.16147 -1.74253 -4.19371
    endloop
  endfacet
  facet normal 0 0 -1
    outer loop
      vertex 0.780042 1.56654 -4.19371
      vertex 3.88425 14.4011 -4.19371
      vertex 1.29327 1.17897 -4.19371
    endloop
  endfacet
  facet normal 0 0 -1
    outer loop
      vertex -2.5848 -15.7188 -4.19371
      vertex 0.780042 -1.56654 -4.19371
      vertex 5.05648 -9.01499 -4.19371
    endloop
  endfacet
  facet normal 0 0 -1
    outer loop
      vertex 0.780042 -1.56654 -4.19371
      vertex 1.29327 -1.17897 -4.19371
      vertex 5.05648 -9.01499 -4.19371
    endloop
  endfacet
  facet normal 0 0 -1
    outer loop
      vertex 1.29327 1.17897 -4.19371
      vertex 3.88425 14.4011 -4.19371
      vertex 1.63183 0.632173 -4.19371
    endloop
  endfacet
  facet normal 0 0 -1
    outer loop
      vertex 1.29327 -1.17897 -4.19371
      vertex 1.63183 -0.632173 -4.19371
      vertex 5.05648 -9.01499 -4.19371
    endloop
  endfacet
  facet normal 0 0 -1
    outer loop
      vertex 1.63183 -0.632173 -4.19371
      vertex 1.75 0 -4.19371
      vertex 5.05648 -9.01499 -4.19371
    endloop
  endfacet
  facet normal 0 0 -1
    outer loop
      vertex 1.63183 0.632173 -4.19371
      vertex 3.88425 14.4011 -4.19371
      vertex 1.75 0 -4.19371
    endloop
  endfacet
  facet normal 0 0 -1
    outer loop
      vertex 0.16147 1.74253 -4.19371
      vertex 3.88425 14.4011 -4.19371
      vertex 0.780042 1.56654 -4.19371
    endloop
  endfacet
  facet normal 0 0 -1
    outer loop
      vertex -0.47891 1.68319 -4.19371
      vertex 2.64469 22.0248 -4.19371
      vertex 0.16147 1.74253 -4.19371
    endloop
  endfacet
  facet normal 0 0 -1
    outer loop
      vertex -1.48788 0.921256 -4.19371
      vertex 2.64469 22.0248 -4.19371
      vertex -1.05461 1.39653 -4.19371
    endloop
  endfacet
  facet normal 0 0 -1
    outer loop
      vertex -0.47891 -1.68319 -4.19371
      vertex -2.5848 -15.7188 -4.19371
      vertex -1.05461 -1.39653 -4.19371
    endloop
  endfacet
  facet normal 0 0 -1
    outer loop
      vertex -1.05461 1.39653 -4.19371
      vertex 2.64469 22.0248 -4.19371
      vertex -0.47891 1.68319 -4.19371
    endloop
  endfacet
  facet normal 0 0.924721 -0.380645
    outer loop
      vertex 2.64469 22.0248 -4.19371
      vertex -2.64469 22.0248 -4.19371
      vertex 0 23.6713 -0.193714
    endloop
  endfacet
  facet normal -0.490508 0.870768 -0.0341259
    outer loop
      vertex -2.64469 22.0248 -4.19371
      vertex -4.42056 21.1812 -0.193714
      vertex 0 23.6713 -0.193714
    endloop
  endfacet
  facet normal 0.115563 -0.9933 4.87405e-07
    outer loop
      vertex 0 -16.3287 3.95804
      vertex 0 -16.3287 3.25
      vertex 0.634044 -16.2549 3.18755
    endloop
  endfacet
  facet normal 0.115563 -0.9933 4.87405e-07
    outer loop
      vertex 1.00037 -16.2123 3.07643
      vertex 0 -16.3287 3.95804
      vertex 0.634044 -16.2549 3.18755
    endloop
  endfacet
  facet normal -0.115563 -0.9933 4.87405e-07
    outer loop
      vertex 0 -16.3287 3.95804
      vertex -1.00037 -16.2123 3.07643
      vertex -0.634044 -16.2549 3.18755
    endloop
  endfacet
  facet normal -0.115563 -0.9933 4.87405e-07
    outer loop
      vertex 0 -16.3287 3.25
      vertex 0 -16.3287 3.95804
      vertex -0.634044 -16.2549 3.18755
    endloop
  endfacet
  facet normal 0.290285 -2.12483e-16 -0.95694
    outer loop
      vertex -0.634044 -14.375 3.18755
      vertex -0.634044 -16.2549 3.18755
      vertex -1.24372 -14.375 3.00261
    endloop
  endfacet
  facet normal 0.290285 -2.12483e-16 -0.95694
    outer loop
      vertex -1.24372 -14.375 3.00261
      vertex -0.634044 -16.2549 3.18755
      vertex -1.00037 -16.2123 3.07643
    endloop
  endfacet
  facet normal 0.290285 -2.12483e-16 -0.95694
    outer loop
      vertex -1.24372 -14.375 3.00261
      vertex -1.00037 -16.2123 3.07643
      vertex -1.24372 -16.1813 3.00261
    endloop
  endfacet
  facet normal 0.471397 -1.95826e-16 -0.881921
    outer loop
      vertex -1.24372 -14.375 3.00261
      vertex -1.24372 -16.1813 3.00261
      vertex -1.8056 -14.375 2.70228
    endloop
  endfacet
  facet normal 0.471397 -1.95826e-16 -0.881921
    outer loop
      vertex -1.8056 -14.375 2.70228
      vertex -1.24372 -16.1813 3.00261
      vertex -1.8056 -16.1122 2.70228
    endloop
  endfacet
  facet normal 0.634393 -1.71643e-16 -0.773011
    outer loop
      vertex -1.8056 -14.375 2.70228
      vertex -1.8056 -16.1122 2.70228
      vertex -2.2981 -14.375 2.2981
    endloop
  endfacet
  facet normal 0.634393 -1.71643e-16 -0.773011
    outer loop
      vertex -2.2981 -14.375 2.2981
      vertex -1.8056 -16.1122 2.70228
      vertex -2.2981 -16.0544 2.2981
    endloop
  endfacet
  facet normal 0.773011 -1.40864e-16 -0.634393
    outer loop
      vertex -2.70228 -14.375 1.8056
      vertex -2.2981 -14.375 2.2981
      vertex -2.2981 -16.0544 2.2981
    endloop
  endfacet
  facet normal 0.773011 -1.40864e-16 -0.634393
    outer loop
      vertex -2.70228 -16.0099 1.8056
      vertex -2.70228 -14.375 1.8056
      vertex -2.2981 -16.0544 2.2981
    endloop
  endfacet
  facet normal 0.881921 -1.04671e-16 -0.471397
    outer loop
      vertex -3.00261 -14.375 1.24372
      vertex -2.70228 -14.375 1.8056
      vertex -2.70228 -16.0099 1.8056
    endloop
  endfacet
  facet normal 0.881921 -1.04671e-16 -0.471397
    outer loop
      vertex -3.00261 -15.9794 1.24372
      vertex -3.00261 -14.375 1.24372
      vertex -2.93372 -15.9874 1.37261
    endloop
  endfacet
  facet normal 0.881921 -1.04671e-16 -0.471397
    outer loop
      vertex -2.93372 -15.9874 1.37261
      vertex -3.00261 -14.375 1.24372
      vertex -2.70228 -16.0099 1.8056
    endloop
  endfacet
  facet normal 0.95694 -6.44563e-17 -0.290285
    outer loop
      vertex -3.18755 -14.375 0.634044
      vertex -3.00261 -14.375 1.24372
      vertex -3.00261 -15.9794 1.24372
    endloop
  endfacet
  facet normal 0.95694 -6.44563e-17 -0.290285
    outer loop
      vertex -3.18755 -15.9578 0.634044
      vertex -3.18755 -14.375 0.634044
      vertex -3.00261 -15.9794 1.24372
    endloop
  endfacet
  facet normal 0.995185 -2.17642e-17 -0.0980173
    outer loop
      vertex -3.25 -14.375 -3.60822e-16
      vertex -3.18755 -14.375 0.634044
      vertex -3.18755 -15.9578 0.634044
    endloop
  endfacet
  facet normal 0.995185 -2.17642e-17 -0.0980173
    outer loop
      vertex -3.25 -15.9506 -1.09749e-17
      vertex -3.25 -14.375 -3.60822e-16
      vertex -3.18755 -15.9578 0.634044
    endloop
  endfacet
  facet normal 0.995185 2.17642e-17 0.0980173
    outer loop
      vertex -3.18755 -15.9578 -0.634044
      vertex -3.18755 -14.375 -0.634044
      vertex -3.25 -14.375 -3.60822e-16
    endloop
  endfacet
  facet normal 0.995185 2.17642e-17 0.0980173
    outer loop
      vertex -3.25 -15.9506 -1.09749e-17
      vertex -3.18755 -15.9578 -0.634044
      vertex -3.25 -14.375 -3.60822e-16
    endloop
  endfacet
  facet normal 0.95694 6.44563e-17 0.290285
    outer loop
      vertex -3.00261 -15.9794 -1.24372
      vertex -3.00261 -14.375 -1.24372
      vertex -3.18755 -14.375 -0.634044
    endloop
  endfacet
  facet normal 0.95694 6.44563e-17 0.290285
    outer loop
      vertex -3.18755 -15.9578 -0.634044
      vertex -3.00261 -15.9794 -1.24372
      vertex -3.18755 -14.375 -0.634044
    endloop
  endfacet
  facet normal 0.881921 1.04671e-16 0.471397
    outer loop
      vertex -2.70228 -16.0143 -1.8056
      vertex -2.70228 -14.375 -1.8056
      vertex -3.00261 -14.375 -1.24372
    endloop
  endfacet
  facet normal 0.881921 1.04671e-16 0.471397
    outer loop
      vertex -3.00261 -15.9794 -1.24372
      vertex -2.70228 -16.0143 -1.8056
      vertex -3.00261 -14.375 -1.24372
    endloop
  endfacet
  facet normal 0.773011 1.40864e-16 0.634393
    outer loop
      vertex -2.2981 -16.0613 -2.2981
      vertex -2.2981 -14.375 -2.2981
      vertex -2.70228 -14.375 -1.8056
    endloop
  endfacet
  facet normal 0.773011 1.40864e-16 0.634393
    outer loop
      vertex -2.70228 -16.0143 -1.8056
      vertex -2.2981 -16.0613 -2.2981
      vertex -2.70228 -14.375 -1.8056
    endloop
  endfacet
  facet normal 0.634393 1.71643e-16 0.773011
    outer loop
      vertex -1.8056 -16.1186 -2.70228
      vertex -1.8056 -14.375 -2.70228
      vertex -2.2981 -14.375 -2.2981
    endloop
  endfacet
  facet normal 0.634393 1.71643e-16 0.773011
    outer loop
      vertex -2.2981 -16.0613 -2.2981
      vertex -1.8056 -16.1186 -2.70228
      vertex -2.2981 -14.375 -2.2981
    endloop
  endfacet
  facet normal 0.471397 1.95826e-16 0.881921
    outer loop
      vertex -1.24372 -16.184 -3.00261
      vertex -1.24372 -14.375 -3.00261
      vertex -1.8056 -14.375 -2.70228
    endloop
  endfacet
  facet normal 0.471397 1.95826e-16 0.881921
    outer loop
      vertex -1.8056 -16.1186 -2.70228
      vertex -1.24372 -16.184 -3.00261
      vertex -1.8056 -14.375 -2.70228
    endloop
  endfacet
  facet normal 0.290285 2.12483e-16 0.95694
    outer loop
      vertex -0.634044 -16.2549 -3.18755
      vertex -0.634044 -14.375 -3.18755
      vertex -1.24372 -14.375 -3.00261
    endloop
  endfacet
  facet normal 0.290285 2.12483e-16 0.95694
    outer loop
      vertex -1.24372 -16.184 -3.00261
      vertex -0.634044 -16.2549 -3.18755
      vertex -1.24372 -14.375 -3.00261
    endloop
  endfacet
  facet normal 0.0980173 2.20975e-16 0.995185
    outer loop
      vertex 0 -16.3287 -3.25
      vertex 0 -14.375 -3.25
      vertex -0.634044 -14.375 -3.18755
    endloop
  endfacet
  facet normal 0.0980173 2.20975e-16 0.995185
    outer loop
      vertex -0.634044 -16.2549 -3.18755
      vertex 0 -16.3287 -3.25
      vertex -0.634044 -14.375 -3.18755
    endloop
  endfacet
  facet normal -0.0980173 2.20975e-16 0.995185
    outer loop
      vertex 0.634044 -16.2549 -3.18755
      vertex 0.634044 -14.375 -3.18755
      vertex 0 -14.375 -3.25
    endloop
  endfacet
  facet normal -0.0980173 2.20975e-16 0.995185
    outer loop
      vertex 0 -16.3287 -3.25
      vertex 0.634044 -16.2549 -3.18755
      vertex 0 -14.375 -3.25
    endloop
  endfacet
  facet normal 0.115563 -0.9933 4.87405e-07
    outer loop
      vertex 2.2981 -16.0613 -2.2981
      vertex 0 -16.3287 -4.19371
      vertex 5.24215 -15.7188 -0.661766
    endloop
  endfacet
  facet normal 0.115563 -0.9933 4.87405e-07
    outer loop
      vertex 2.93372 -15.9874 1.37261
      vertex 3.00261 -15.9794 1.24372
      vertex 5.24215 -15.7188 -0.661766
    endloop
  endfacet
  facet normal 0.115563 -0.9933 4.87405e-07
    outer loop
      vertex 3.00261 -15.9794 1.24372
      vertex 3.18755 -15.9578 0.634044
      vertex 5.24215 -15.7188 -0.661766
    endloop
  endfacet
  facet normal 0.115563 -0.9933 4.87405e-07
    outer loop
      vertex 3.18755 -15.9578 0.634044
      vertex 3.25 -15.9506 -1.09749e-17
      vertex 5.24215 -15.7188 -0.661766
    endloop
  endfacet
  facet normal 0.115563 -0.9933 4.87405e-07
    outer loop
      vertex 3.25 -15.9506 -1.09749e-17
      vertex 3.18755 -15.9578 -0.634044
      vertex 5.24215 -15.7188 -0.661766
    endloop
  endfacet
  facet normal 0.115563 -0.9933 4.87405e-07
    outer loop
      vertex 3.18755 -15.9578 -0.634044
      vertex 3.00261 -15.9794 -1.24372
      vertex 5.24215 -15.7188 -0.661766
    endloop
  endfacet
  facet normal 0.115563 -0.9933 4.87405e-07
    outer loop
      vertex 3.00261 -15.9794 -1.24372
      vertex 2.70228 -16.0143 -1.8056
      vertex 5.24215 -15.7188 -0.661766
    endloop
  endfacet
  facet normal 0.115563 -0.9933 4.87405e-07
    outer loop
      vertex 1.8056 -16.1186 -2.70228
      vertex 0 -16.3287 -4.19371
      vertex 2.2981 -16.0613 -2.2981
    endloop
  endfacet
  facet normal 0.115563 -0.9933 4.87405e-07
    outer loop
      vertex 1.24372 -16.184 -3.00261
      vertex 0 -16.3287 -4.19371
      vertex 1.8056 -16.1186 -2.70228
    endloop
  endfacet
  facet normal 0.115563 -0.9933 4.87405e-07
    outer loop
      vertex 0.634044 -16.2549 -3.18755
      vertex 0 -16.3287 -4.19371
      vertex 1.24372 -16.184 -3.00261
    endloop
  endfacet
  facet normal 0.115563 -0.9933 4.87405e-07
    outer loop
      vertex 0 -16.3287 -3.25
      vertex 0 -16.3287 -4.19371
      vertex 0.634044 -16.2549 -3.18755
    endloop
  endfacet
  facet normal 0.115563 -0.9933 4.87405e-07
    outer loop
      vertex 2.70228 -16.0143 -1.8056
      vertex 2.2981 -16.0613 -2.2981
      vertex 5.24215 -15.7188 -0.661766
    endloop
  endfacet
  facet normal 0.226289 -0.959066 -0.170252
    outer loop
      vertex 5.24215 -15.7188 -0.661766
      vertex 0 -16.3287 -4.19371
      vertex 2.5848 -15.7188 -4.19371
    endloop
  endfacet
  facet normal 0.490508 0.870768 -0.0341259
    outer loop
      vertex 2.64469 22.0248 -4.19371
      vertex 0 23.6713 -0.193714
      vertex 4.42056 21.1812 -0.193714
    endloop
  endfacet
  facet normal 0.905754 0.23526 -0.352509
    outer loop
      vertex 6.18161 14.4011 -0.193714
      vertex 2.64469 22.0248 -4.19371
      vertex 4.42056 21.1812 -0.193714
    endloop
  endfacet
  facet normal 0.85866 0.139613 -0.493164
    outer loop
      vertex 3.88425 14.4011 -4.19371
      vertex 2.64469 22.0248 -4.19371
      vertex 6.18161 14.4011 -0.193714
    endloop
  endfacet
  facet normal 0.863949 0.0858929 -0.496201
    outer loop
      vertex 8.62616 -12.8912 -0.661766
      vertex 3.88425 14.4011 -4.19371
      vertex 6.18161 14.4011 -0.193714
    endloop
  endfacet
  facet normal 0.995849 0.0894836 -0.0166854
    outer loop
      vertex 8.62616 -12.8912 -0.661766
      vertex 6.18161 14.4011 -0.193714
      vertex 8.05388 -6.19596 1.0887
    endloop
  endfacet
  facet normal 0.995849 0.0894836 -0.0166851
    outer loop
      vertex 8.05388 -6.19596 1.0887
      vertex 6.18161 14.4011 -0.193714
      vertex 7.00116 5.55718 1.29026
    endloop
  endfacet
  facet normal 0.268609 0.476887 0.836916
    outer loop
      vertex 12.0756 2.22712 1.55913
      vertex 7.00116 5.55718 1.29026
      vertex 11.4989 -0.034267 3.0328
    endloop
  endfacet
  facet normal 0.268609 0.476887 0.836916
    outer loop
      vertex 7.00116 5.55718 1.29026
      vertex 6.24278 2.58344 3.22814
      vertex 11.4989 -0.034267 3.0328
    endloop
  endfacet
  facet normal 0.0697823 0.0233535 -0.997289
    outer loop
      vertex 8.05388 -6.19596 1.0887
      vertex 7.00116 5.55718 1.29026
      vertex 12.8761 -7.06161 1.40585
    endloop
  endfacet
  facet normal 0.0674687 0.0222747 -0.997473
    outer loop
      vertex 12.8761 -7.06161 1.40585
      vertex 7.00116 5.55718 1.29026
      vertex 12.0756 2.22712 1.55913
    endloop
  endfacet
  facet normal 0.0397284 0.00520759 0.999197
    outer loop
      vertex 11.4989 -0.034267 3.0328
      vertex 6.24278 2.58344 3.22814
      vertex 6.76607 -1.40868 3.22814
    endloop
  endfacet
  facet normal -0.021108 -0.00337489 0.999772
    outer loop
      vertex 11.8968 -3.0701 3.33086
      vertex 6.76607 -1.40868 3.22814
      vertex 7.53149 -6.19596 3.22814
    endloop
  endfacet
  facet normal 0.0122326 0.0992906 0.994983
    outer loop
      vertex 11.4989 -0.034267 3.0328
      vertex 6.76607 -1.40868 3.22814
      vertex 11.8968 -3.0701 3.33086
    endloop
  endfacet
  facet normal 0.971246 0.021015 0.237151
    outer loop
      vertex 8.05388 -6.19596 1.0887
      vertex 7.53149 -6.19596 3.22814
      vertex 8.62616 -12.8912 -0.661766
    endloop
  endfacet
  facet normal 0.72245 0.0361665 -0.690477
    outer loop
      vertex 5.05648 -9.01499 -4.19371
      vertex 3.88425 14.4011 -4.19371
      vertex 8.62616 -12.8912 -0.661766
    endloop
  endfacet
  facet normal 0.564418 -0.208099 -0.798829
    outer loop
      vertex 8.62616 -12.8912 -0.661766
      vertex 2.5848 -15.7188 -4.19371
      vertex 5.05648 -9.01499 -4.19371
    endloop
  endfacet
  facet normal 0.577513 -0.691147 -0.434504
    outer loop
      vertex 5.24215 -15.7188 -0.661766
      vertex 2.5848 -15.7188 -4.19371
      vertex 8.62616 -12.8912 -0.661766
    endloop
  endfacet
  facet normal 0.0270324 -0.0705174 0.997144
    outer loop
      vertex 11.8968 -3.0701 3.33086
      vertex 7.53149 -6.19596 3.22814
      vertex 12.4789 -7.06161 3.0328
    endloop
  endfacet
  facet normal -0.173822 -0.983862 -0.0424425
    outer loop
      vertex 12.4789 -7.06161 3.0328
      vertex 7.53149 -6.19596 3.22814
      vertex 8.05388 -6.19596 1.0887
    endloop
  endfacet
  facet normal -0.881921 -1.04671e-16 -0.471397
    outer loop
      vertex 3.00261 -14.375 1.24372
      vertex 3.00261 -15.9794 1.24372
      vertex 2.70228 -14.375 1.8056
    endloop
  endfacet
  facet normal -0.881921 -1.04671e-16 -0.471397
    outer loop
      vertex 2.70228 -14.375 1.8056
      vertex 3.00261 -15.9794 1.24372
      vertex 2.93372 -15.9874 1.37261
    endloop
  endfacet
  facet normal -0.881921 -1.04671e-16 -0.471397
    outer loop
      vertex 2.70228 -14.375 1.8056
      vertex 2.93372 -15.9874 1.37261
      vertex 2.70228 -16.0099 1.8056
    endloop
  endfacet
  facet normal -0.773011 -1.40864e-16 -0.634393
    outer loop
      vertex 2.70228 -14.375 1.8056
      vertex 2.70228 -16.0099 1.8056
      vertex 2.2981 -14.375 2.2981
    endloop
  endfacet
  facet normal -0.773011 -1.40864e-16 -0.634393
    outer loop
      vertex 2.2981 -14.375 2.2981
      vertex 2.70228 -16.0099 1.8056
      vertex 2.2981 -16.0544 2.2981
    endloop
  endfacet
  facet normal -0.634393 -1.71643e-16 -0.773011
    outer loop
      vertex 2.2981 -14.375 2.2981
      vertex 2.2981 -16.0544 2.2981
      vertex 1.8056 -14.375 2.70228
    endloop
  endfacet
  facet normal -0.634393 -1.71643e-16 -0.773011
    outer loop
      vertex 1.8056 -14.375 2.70228
      vertex 2.2981 -16.0544 2.2981
      vertex 1.8056 -16.1122 2.70228
    endloop
  endfacet
  facet normal -0.471397 -1.95826e-16 -0.881921
    outer loop
      vertex 1.8056 -14.375 2.70228
      vertex 1.8056 -16.1122 2.70228
      vertex 1.24372 -14.375 3.00261
    endloop
  endfacet
  facet normal -0.471397 -1.95826e-16 -0.881921
    outer loop
      vertex 1.24372 -14.375 3.00261
      vertex 1.8056 -16.1122 2.70228
      vertex 1.24372 -16.1813 3.00261
    endloop
  endfacet
  facet normal -0.290285 -2.12483e-16 -0.95694
    outer loop
      vertex 1.24372 -14.375 3.00261
      vertex 1.24372 -16.1813 3.00261
      vertex 0.634044 -14.375 3.18755
    endloop
  endfacet
  facet normal -0.290285 -2.12483e-16 -0.95694
    outer loop
      vertex 0.634044 -14.375 3.18755
      vertex 1.24372 -16.1813 3.00261
      vertex 1.00037 -16.2123 3.07643
    endloop
  endfacet
  facet normal -0.290285 -2.12483e-16 -0.95694
    outer loop
      vertex 0.634044 -14.375 3.18755
      vertex 1.00037 -16.2123 3.07643
      vertex 0.634044 -16.2549 3.18755
    endloop
  endfacet
  facet normal 0 0 1
    outer loop
      vertex -1.48788 -6.92126 2.875
      vertex -1.05461 -7.39653 2.875
      vertex -0.47891 -7.68319 2.875
    endloop
  endfacet
  facet normal 0 0 1
    outer loop
      vertex 0.780042 -7.56654 2.875
      vertex -1.48788 -6.92126 2.875
      vertex 0.16147 -7.74253 2.875
    endloop
  endfacet
  facet normal 0 0 1
    outer loop
      vertex 0.16147 -7.74253 2.875
      vertex -1.48788 -6.92126 2.875
      vertex -0.47891 -7.68319 2.875
    endloop
  endfacet
  facet normal 0 0 1
    outer loop
      vertex 1.29327 -7.17897 2.875
      vertex -1.48788 -6.92126 2.875
      vertex 0.780042 -7.56654 2.875
    endloop
  endfacet
  facet normal 0 0 1
    outer loop
      vertex 1.63183 -6.63217 2.875
      vertex -1.48788 -6.92126 2.875
      vertex 1.29327 -7.17897 2.875
    endloop
  endfacet
  facet normal 0 0 1
    outer loop
      vertex 1.75 -6 2.875
      vertex -1.48788 -6.92126 2.875
      vertex 1.63183 -6.63217 2.875
    endloop
  endfacet
  facet normal 0 0 1
    outer loop
      vertex 1.63183 -5.36783 2.875
      vertex -1.48788 -6.92126 2.875
      vertex 1.75 -6 2.875
    endloop
  endfacet
  facet normal 0 0 1
    outer loop
      vertex 1.29327 -4.82103 2.875
      vertex -1.48788 -6.92126 2.875
      vertex 1.63183 -5.36783 2.875
    endloop
  endfacet
  facet normal 0 0 1
    outer loop
      vertex 0.780042 -4.43346 2.875
      vertex -1.48788 -6.92126 2.875
      vertex 1.29327 -4.82103 2.875
    endloop
  endfacet
  facet normal 0 0 1
    outer loop
      vertex 0.16147 -4.25746 2.875
      vertex -1.48788 -6.92126 2.875
      vertex 0.780042 -4.43346 2.875
    endloop
  endfacet
  facet normal 0 0 1
    outer loop
      vertex -0.47891 -4.3168 2.875
      vertex -1.48788 -6.92126 2.875
      vertex 0.16147 -4.25746 2.875
    endloop
  endfacet
  facet normal 0 0 1
    outer loop
      vertex -1.05461 -4.60347 2.875
      vertex -1.48788 -6.92126 2.875
      vertex -0.47891 -4.3168 2.875
    endloop
  endfacet
  facet normal 0 0 1
    outer loop
      vertex -1.48788 -5.07874 2.875
      vertex -1.48788 -6.92126 2.875
      vertex -1.05461 -4.60347 2.875
    endloop
  endfacet
  facet normal 0 0 1
    outer loop
      vertex -1.7202 -5.67844 2.875
      vertex -1.48788 -6.92126 2.875
      vertex -1.48788 -5.07874 2.875
    endloop
  endfacet
  facet normal 0 0 1
    outer loop
      vertex -1.7202 -6.32156 2.875
      vertex -1.48788 -6.92126 2.875
      vertex -1.7202 -5.67844 2.875
    endloop
  endfacet
  facet normal 0.932472 -0.361242 0
    outer loop
      vertex -1.48788 0.921256 -4.19371
      vertex -1.48788 0.921256 -0.875
      vertex -1.7202 0.321562 -0.875
    endloop
  endfacet
  facet normal 0.932472 -0.361242 0
    outer loop
      vertex -1.7202 0.321562 -4.19371
      vertex -1.48788 0.921256 -4.19371
      vertex -1.7202 0.321562 -0.875
    endloop
  endfacet
  facet normal 1 0 0
    outer loop
      vertex -1.7202 0.321562 -4.19371
      vertex -1.7202 0.321562 -0.875
      vertex -1.7202 -0.321562 -0.875
    endloop
  endfacet
  facet normal 1 0 0
    outer loop
      vertex -1.7202 -0.321562 -4.19371
      vertex -1.7202 0.321562 -4.19371
      vertex -1.7202 -0.321562 -0.875
    endloop
  endfacet
  facet normal 0.739009 -0.673695 0
    outer loop
      vertex -1.05461 1.39653 -4.19371
      vertex -1.05461 1.39653 -0.875
      vertex -1.48788 0.921256 -0.875
    endloop
  endfacet
  facet normal 0.739009 -0.673695 0
    outer loop
      vertex -1.48788 0.921256 -4.19371
      vertex -1.05461 1.39653 -4.19371
      vertex -1.48788 0.921256 -0.875
    endloop
  endfacet
  facet normal 0.445738 -0.895163 0
    outer loop
      vertex -0.47891 1.68319 -4.19371
      vertex -0.47891 1.68319 -0.875
      vertex -1.05461 1.39653 -0.875
    endloop
  endfacet
  facet normal 0.445738 -0.895163 0
    outer loop
      vertex -1.05461 1.39653 -4.19371
      vertex -0.47891 1.68319 -4.19371
      vertex -1.05461 1.39653 -0.875
    endloop
  endfacet
  facet normal 0.0922684 -0.995734 0
    outer loop
      vertex 0.16147 1.74253 -4.19371
      vertex 0.16147 1.74253 -0.875
      vertex -0.47891 1.68319 -0.875
    endloop
  endfacet
  facet normal 0.0922684 -0.995734 0
    outer loop
      vertex -0.47891 1.68319 -4.19371
      vertex 0.16147 1.74253 -4.19371
      vertex -0.47891 1.68319 -0.875
    endloop
  endfacet
  facet normal -0.273663 -0.961826 0
    outer loop
      vertex 0.780042 1.56654 -4.19371
      vertex 0.780042 1.56654 -0.875
      vertex 0.16147 1.74253 -0.875
    endloop
  endfacet
  facet normal -0.273663 -0.961826 0
    outer loop
      vertex 0.16147 1.74253 -4.19371
      vertex 0.780042 1.56654 -4.19371
      vertex 0.16147 1.74253 -0.875
    endloop
  endfacet
  facet normal -0.602635 -0.798017 0
    outer loop
      vertex 1.29327 1.17897 -4.19371
      vertex 1.29327 1.17897 -0.875
      vertex 0.780042 1.56654 -0.875
    endloop
  endfacet
  facet normal -0.602635 -0.798017 0
    outer loop
      vertex 0.780042 1.56654 -4.19371
      vertex 1.29327 1.17897 -4.19371
      vertex 0.780042 1.56654 -0.875
    endloop
  endfacet
  facet normal -0.850217 -0.526432 0
    outer loop
      vertex 1.63183 0.632173 -0.875
      vertex 1.29327 1.17897 -0.875
      vertex 1.63183 0.632173 -4.19371
    endloop
  endfacet
  facet normal -0.850217 -0.526432 0
    outer loop
      vertex 1.63183 0.632173 -4.19371
      vertex 1.29327 1.17897 -0.875
      vertex 1.29327 1.17897 -4.19371
    endloop
  endfacet
  facet normal -0.982973 -0.18375 0
    outer loop
      vertex 1.75 0 -0.875
      vertex 1.63183 0.632173 -0.875
      vertex 1.75 0 -4.19371
    endloop
  endfacet
  facet normal -0.982973 -0.18375 0
    outer loop
      vertex 1.75 0 -4.19371
      vertex 1.63183 0.632173 -0.875
      vertex 1.63183 0.632173 -4.19371
    endloop
  endfacet
  facet normal -0.982973 0.18375 0
    outer loop
      vertex 1.75 0 -0.875
      vertex 1.75 0 -4.19371
      vertex 1.63183 -0.632173 -0.875
    endloop
  endfacet
  facet normal -0.982973 0.18375 0
    outer loop
      vertex 1.63183 -0.632173 -0.875
      vertex 1.75 0 -4.19371
      vertex 1.63183 -0.632173 -4.19371
    endloop
  endfacet
  facet normal -0.850217 0.526432 0
    outer loop
      vertex 1.63183 -0.632173 -0.875
      vertex 1.63183 -0.632173 -4.19371
      vertex 1.29327 -1.17897 -0.875
    endloop
  endfacet
  facet normal -0.850217 0.526432 0
    outer loop
      vertex 1.29327 -1.17897 -0.875
      vertex 1.63183 -0.632173 -4.19371
      vertex 1.29327 -1.17897 -4.19371
    endloop
  endfacet
  facet normal -0.602635 0.798017 0
    outer loop
      vertex 1.29327 -1.17897 -0.875
      vertex 1.29327 -1.17897 -4.19371
      vertex 0.780042 -1.56654 -0.875
    endloop
  endfacet
  facet normal -0.602635 0.798017 0
    outer loop
      vertex 0.780042 -1.56654 -0.875
      vertex 1.29327 -1.17897 -4.19371
      vertex 0.780042 -1.56654 -4.19371
    endloop
  endfacet
  facet normal -0.273663 0.961826 0
    outer loop
      vertex 0.780042 -1.56654 -0.875
      vertex 0.780042 -1.56654 -4.19371
      vertex 0.16147 -1.74253 -0.875
    endloop
  endfacet
  facet normal -0.273663 0.961826 0
    outer loop
      vertex 0.16147 -1.74253 -0.875
      vertex 0.780042 -1.56654 -4.19371
      vertex 0.16147 -1.74253 -4.19371
    endloop
  endfacet
  facet normal 0.0922684 0.995734 0
    outer loop
      vertex 0.16147 -1.74253 -0.875
      vertex 0.16147 -1.74253 -4.19371
      vertex -0.47891 -1.68319 -0.875
    endloop
  endfacet
  facet normal 0.0922684 0.995734 0
    outer loop
      vertex -0.47891 -1.68319 -0.875
      vertex 0.16147 -1.74253 -4.19371
      vertex -0.47891 -1.68319 -4.19371
    endloop
  endfacet
  facet normal 0.445738 0.895163 0
    outer loop
      vertex -0.47891 -1.68319 -0.875
      vertex -0.47891 -1.68319 -4.19371
      vertex -1.05461 -1.39653 -0.875
    endloop
  endfacet
  facet normal 0.445738 0.895163 0
    outer loop
      vertex -1.05461 -1.39653 -0.875
      vertex -0.47891 -1.68319 -4.19371
      vertex -1.05461 -1.39653 -4.19371
    endloop
  endfacet
  facet normal 0.739009 0.673695 0
    outer loop
      vertex -1.48788 -0.921256 -0.875
      vertex -1.05461 -1.39653 -0.875
      vertex -1.05461 -1.39653 -4.19371
    endloop
  endfacet
  facet normal 0.739009 0.673695 0
    outer loop
      vertex -1.48788 -0.921256 -4.19371
      vertex -1.48788 -0.921256 -0.875
      vertex -1.05461 -1.39653 -4.19371
    endloop
  endfacet
  facet normal 0.932472 0.361242 0
    outer loop
      vertex -1.7202 -0.321562 -0.875
      vertex -1.48788 -0.921256 -0.875
      vertex -1.48788 -0.921256 -4.19371
    endloop
  endfacet
  facet normal 0.932472 0.361242 0
    outer loop
      vertex -1.7202 -0.321562 -4.19371
      vertex -1.7202 -0.321562 -0.875
      vertex -1.48788 -0.921256 -4.19371
    endloop
  endfacet
  facet normal -0.0980173 -2.20975e-16 -0.995185
    outer loop
      vertex 0.634044 -14.375 3.18755
      vertex 0.634044 -16.2549 3.18755
      vertex 0 -14.375 3.25
    endloop
  endfacet
  facet normal -0.0980173 -2.20975e-16 -0.995185
    outer loop
      vertex 0 -14.375 3.25
      vertex 0.634044 -16.2549 3.18755
      vertex 0 -16.3287 3.25
    endloop
  endfacet
  facet normal 0.0980173 -2.20975e-16 -0.995185
    outer loop
      vertex 0 -14.375 3.25
      vertex 0 -16.3287 3.25
      vertex -0.634044 -14.375 3.18755
    endloop
  endfacet
  facet normal 0.0980173 -2.20975e-16 -0.995185
    outer loop
      vertex -0.634044 -14.375 3.18755
      vertex 0 -16.3287 3.25
      vertex -0.634044 -16.2549 3.18755
    endloop
  endfacet
  facet normal 0 -1 2.22045e-16
    outer loop
      vertex -3.18755 -14.375 -0.634044
      vertex -3.00261 -14.375 -1.24372
      vertex -2.70228 -14.375 -1.8056
    endloop
  endfacet
  facet normal 0 -1 2.22045e-16
    outer loop
      vertex -1.8056 -14.375 -2.70228
      vertex -3.18755 -14.375 -0.634044
      vertex -2.2981 -14.375 -2.2981
    endloop
  endfacet
  facet normal 0 -1 2.22045e-16
    outer loop
      vertex -2.2981 -14.375 -2.2981
      vertex -3.18755 -14.375 -0.634044
      vertex -2.70228 -14.375 -1.8056
    endloop
  endfacet
  facet normal 0 -1 2.22045e-16
    outer loop
      vertex -1.24372 -14.375 -3.00261
      vertex -3.18755 -14.375 -0.634044
      vertex -1.8056 -14.375 -2.70228
    endloop
  endfacet
  facet normal 0 -1 2.22045e-16
    outer loop
      vertex -0.634044 -14.375 -3.18755
      vertex -3.18755 -14.375 -0.634044
      vertex -1.24372 -14.375 -3.00261
    endloop
  endfacet
  facet normal 0 -1 2.22045e-16
    outer loop
      vertex 0 -14.375 -3.25
      vertex -3.18755 -14.375 -0.634044
      vertex -0.634044 -14.375 -3.18755
    endloop
  endfacet
  facet normal 0 -1 2.22045e-16
    outer loop
      vertex 0.634044 -14.375 -3.18755
      vertex -3.18755 -14.375 -0.634044
      vertex 0 -14.375 -3.25
    endloop
  endfacet
  facet normal 0 -1 2.22045e-16
    outer loop
      vertex 1.24372 -14.375 -3.00261
      vertex -3.18755 -14.375 -0.634044
      vertex 0.634044 -14.375 -3.18755
    endloop
  endfacet
  facet normal 0 -1 2.22045e-16
    outer loop
      vertex 1.8056 -14.375 -2.70228
      vertex -3.18755 -14.375 -0.634044
      vertex 1.24372 -14.375 -3.00261
    endloop
  endfacet
  facet normal 0 -1 2.22045e-16
    outer loop
      vertex 2.2981 -14.375 -2.2981
      vertex -3.18755 -14.375 -0.634044
      vertex 1.8056 -14.375 -2.70228
    endloop
  endfacet
  facet normal 0 -1 2.22045e-16
    outer loop
      vertex 2.70228 -14.375 -1.8056
      vertex -3.18755 -14.375 -0.634044
      vertex 2.2981 -14.375 -2.2981
    endloop
  endfacet
  facet normal 0 -1 2.22045e-16
    outer loop
      vertex 3.00261 -14.375 -1.24372
      vertex -3.18755 -14.375 -0.634044
      vertex 2.70228 -14.375 -1.8056
    endloop
  endfacet
  facet normal 0 -1 2.22045e-16
    outer loop
      vertex 3.18755 -14.375 -0.634044
      vertex -3.18755 -14.375 -0.634044
      vertex 3.00261 -14.375 -1.24372
    endloop
  endfacet
  facet normal 0 -1 2.22045e-16
    outer loop
      vertex 3.25 -14.375 -3.60822e-16
      vertex -3.18755 -14.375 -0.634044
      vertex 3.18755 -14.375 -0.634044
    endloop
  endfacet
  facet normal 0 -1 2.22045e-16
    outer loop
      vertex 3.18755 -14.375 0.634044
      vertex -3.18755 -14.375 -0.634044
      vertex 3.25 -14.375 -3.60822e-16
    endloop
  endfacet
  facet normal 0 -1 2.22045e-16
    outer loop
      vertex 3.00261 -14.375 1.24372
      vertex -3.18755 -14.375 -0.634044
      vertex 3.18755 -14.375 0.634044
    endloop
  endfacet
  facet normal 0 -1 2.22045e-16
    outer loop
      vertex 2.70228 -14.375 1.8056
      vertex -3.18755 -14.375 -0.634044
      vertex 3.00261 -14.375 1.24372
    endloop
  endfacet
  facet normal 0 -1 2.22045e-16
    outer loop
      vertex 2.2981 -14.375 2.2981
      vertex -3.18755 -14.375 -0.634044
      vertex 2.70228 -14.375 1.8056
    endloop
  endfacet
  facet normal 0 -1 2.22045e-16
    outer loop
      vertex 1.8056 -14.375 2.70228
      vertex -3.18755 -14.375 -0.634044
      vertex 2.2981 -14.375 2.2981
    endloop
  endfacet
  facet normal 0 -1 2.22045e-16
    outer loop
      vertex 1.24372 -14.375 3.00261
      vertex -3.18755 -14.375 -0.634044
      vertex 1.8056 -14.375 2.70228
    endloop
  endfacet
  facet normal 0 -1 2.22045e-16
    outer loop
      vertex 0.634044 -14.375 3.18755
      vertex -3.18755 -14.375 -0.634044
      vertex 1.24372 -14.375 3.00261
    endloop
  endfacet
  facet normal 0 -1 2.22045e-16
    outer loop
      vertex 0 -14.375 3.25
      vertex -3.18755 -14.375 -0.634044
      vertex 0.634044 -14.375 3.18755
    endloop
  endfacet
  facet normal 0 -1 2.22045e-16
    outer loop
      vertex -0.634044 -14.375 3.18755
      vertex -3.18755 -14.375 -0.634044
      vertex 0 -14.375 3.25
    endloop
  endfacet
  facet normal 0 -1 2.22045e-16
    outer loop
      vertex -1.24372 -14.375 3.00261
      vertex -3.18755 -14.375 -0.634044
      vertex -0.634044 -14.375 3.18755
    endloop
  endfacet
  facet normal 0 -1 2.22045e-16
    outer loop
      vertex -1.8056 -14.375 2.70228
      vertex -3.18755 -14.375 -0.634044
      vertex -1.24372 -14.375 3.00261
    endloop
  endfacet
  facet normal 0 -1 2.22045e-16
    outer loop
      vertex -2.2981 -14.375 2.2981
      vertex -3.18755 -14.375 -0.634044
      vertex -1.8056 -14.375 2.70228
    endloop
  endfacet
  facet normal 0 -1 2.22045e-16
    outer loop
      vertex -2.70228 -14.375 1.8056
      vertex -3.18755 -14.375 -0.634044
      vertex -2.2981 -14.375 2.2981
    endloop
  endfacet
  facet normal 0 -1 2.22045e-16
    outer loop
      vertex -3.00261 -14.375 1.24372
      vertex -3.18755 -14.375 -0.634044
      vertex -2.70228 -14.375 1.8056
    endloop
  endfacet
  facet normal 0 -1 2.22045e-16
    outer loop
      vertex -3.18755 -14.375 0.634044
      vertex -3.18755 -14.375 -0.634044
      vertex -3.00261 -14.375 1.24372
    endloop
  endfacet
  facet normal 0 -1 2.22045e-16
    outer loop
      vertex -3.25 -14.375 -3.60822e-16
      vertex -3.18755 -14.375 -0.634044
      vertex -3.18755 -14.375 0.634044
    endloop
  endfacet
  facet normal -0.290285 2.12483e-16 0.95694
    outer loop
      vertex 1.24372 -16.184 -3.00261
      vertex 1.24372 -14.375 -3.00261
      vertex 0.634044 -14.375 -3.18755
    endloop
  endfacet
  facet normal -0.290285 2.12483e-16 0.95694
    outer loop
      vertex 0.634044 -16.2549 -3.18755
      vertex 1.24372 -16.184 -3.00261
      vertex 0.634044 -14.375 -3.18755
    endloop
  endfacet
  facet normal -0.471397 1.95826e-16 0.881921
    outer loop
      vertex 1.8056 -16.1186 -2.70228
      vertex 1.8056 -14.375 -2.70228
      vertex 1.24372 -14.375 -3.00261
    endloop
  endfacet
  facet normal -0.471397 1.95826e-16 0.881921
    outer loop
      vertex 1.24372 -16.184 -3.00261
      vertex 1.8056 -16.1186 -2.70228
      vertex 1.24372 -14.375 -3.00261
    endloop
  endfacet
  facet normal -0.634393 1.71643e-16 0.773011
    outer loop
      vertex 2.2981 -16.0613 -2.2981
      vertex 2.2981 -14.375 -2.2981
      vertex 1.8056 -14.375 -2.70228
    endloop
  endfacet
  facet normal -0.634393 1.71643e-16 0.773011
    outer loop
      vertex 1.8056 -16.1186 -2.70228
      vertex 2.2981 -16.0613 -2.2981
      vertex 1.8056 -14.375 -2.70228
    endloop
  endfacet
  facet normal -0.773011 1.40864e-16 0.634393
    outer loop
      vertex 2.70228 -14.375 -1.8056
      vertex 2.2981 -14.375 -2.2981
      vertex 2.70228 -16.0143 -1.8056
    endloop
  endfacet
  facet normal -0.773011 1.40864e-16 0.634393
    outer loop
      vertex 2.70228 -16.0143 -1.8056
      vertex 2.2981 -14.375 -2.2981
      vertex 2.2981 -16.0613 -2.2981
    endloop
  endfacet
  facet normal -0.881921 1.04671e-16 0.471397
    outer loop
      vertex 3.00261 -14.375 -1.24372
      vertex 2.70228 -14.375 -1.8056
      vertex 3.00261 -15.9794 -1.24372
    endloop
  endfacet
  facet normal -0.881921 1.04671e-16 0.471397
    outer loop
      vertex 3.00261 -15.9794 -1.24372
      vertex 2.70228 -14.375 -1.8056
      vertex 2.70228 -16.0143 -1.8056
    endloop
  endfacet
  facet normal -0.95694 6.44563e-17 0.290285
    outer loop
      vertex 3.18755 -14.375 -0.634044
      vertex 3.00261 -14.375 -1.24372
      vertex 3.18755 -15.9578 -0.634044
    endloop
  endfacet
  facet normal -0.95694 6.44563e-17 0.290285
    outer loop
      vertex 3.18755 -15.9578 -0.634044
      vertex 3.00261 -14.375 -1.24372
      vertex 3.00261 -15.9794 -1.24372
    endloop
  endfacet
  facet normal -0.995185 2.17642e-17 0.0980173
    outer loop
      vertex 3.25 -14.375 -3.60822e-16
      vertex 3.18755 -14.375 -0.634044
      vertex 3.25 -15.9506 -1.09749e-17
    endloop
  endfacet
  facet normal -0.995185 2.17642e-17 0.0980173
    outer loop
      vertex 3.25 -15.9506 -1.09749e-17
      vertex 3.18755 -14.375 -0.634044
      vertex 3.18755 -15.9578 -0.634044
    endloop
  endfacet
  facet normal -0.995185 -2.17642e-17 -0.0980173
    outer loop
      vertex 3.25 -14.375 -3.60822e-16
      vertex 3.25 -15.9506 -1.09749e-17
      vertex 3.18755 -14.375 0.634044
    endloop
  endfacet
  facet normal -0.995185 -2.17642e-17 -0.0980173
    outer loop
      vertex 3.18755 -14.375 0.634044
      vertex 3.25 -15.9506 -1.09749e-17
      vertex 3.18755 -15.9578 0.634044
    endloop
  endfacet
  facet normal -0.95694 -6.44563e-17 -0.290285
    outer loop
      vertex 3.18755 -14.375 0.634044
      vertex 3.18755 -15.9578 0.634044
      vertex 3.00261 -14.375 1.24372
    endloop
  endfacet
  facet normal -0.95694 -6.44563e-17 -0.290285
    outer loop
      vertex 3.00261 -14.375 1.24372
      vertex 3.18755 -15.9578 0.634044
      vertex 3.00261 -15.9794 1.24372
    endloop
  endfacet
  facet normal -0.173822 -0.983862 -0.0424424
    outer loop
      vertex 12.4789 -7.06161 3.0328
      vertex 8.05388 -6.19596 1.0887
      vertex 12.8761 -7.06161 1.40585
    endloop
  endfacet
  facet normal 0.00684843 0.017089 -0.999831
    outer loop
      vertex 12.8761 -7.06161 1.40585
      vertex 12.0756 2.22712 1.55913
      vertex 14.4721 -7.70121 1.40585
    endloop
  endfacet
  facet normal 0.0112684 0.018155 -0.999772
    outer loop
      vertex 14.4721 -7.70121 1.40585
      vertex 12.0756 2.22712 1.55913
      vertex 13.6716 1.23652 1.55913
    endloop
  endfacet
  facet normal 0.291153 0.469091 0.833776
    outer loop
      vertex 12.0756 2.22712 1.55913
      vertex 11.4989 -0.034267 3.0328
      vertex 13.6716 1.23652 1.55913
    endloop
  endfacet
  facet normal 0.291153 0.469091 0.833776
    outer loop
      vertex 13.6716 1.23652 1.55913
      vertex 11.4989 -0.034267 3.0328
      vertex 13.0949 -1.02487 3.0328
    endloop
  endfacet
  facet normal 0.0658158 0.106039 0.992181
    outer loop
      vertex 13.0949 -1.02487 3.0328
      vertex 11.4989 -0.034267 3.0328
      vertex 11.8968 -3.0701 3.33086
    endloop
  endfacet
  facet normal -0.370466 -0.924431 -0.0904571
    outer loop
      vertex 14.0749 -7.70121 3.0328
      vertex 12.4789 -7.06161 3.0328
      vertex 12.8761 -7.06161 1.40585
    endloop
  endfacet
  facet normal -0.370466 -0.924431 -0.0904571
    outer loop
      vertex 14.4721 -7.70121 1.40585
      vertex 14.0749 -7.70121 3.0328
      vertex 12.8761 -7.06161 1.40585
    endloop
  endfacet
  facet normal 0.199149 0.0261044 0.979622
    outer loop
      vertex 13.0949 -1.02487 3.0328
      vertex 11.8968 -3.0701 3.33086
      vertex 13.4928 -4.0607 3.0328
    endloop
  endfacet
  facet normal 0.152368 -0.0514812 0.986982
    outer loop
      vertex 13.4928 -4.0607 3.0328
      vertex 11.8968 -3.0701 3.33086
      vertex 12.4789 -7.06161 3.0328
    endloop
  endfacet
  facet normal 0 0 1
    outer loop
      vertex 13.4928 -4.0607 3.0328
      vertex 12.4789 -7.06161 3.0328
      vertex 14.0749 -7.70121 3.0328
    endloop
  endfacet
  facet normal 0 0 -1
    outer loop
      vertex -1.48788 0.921256 -0.875
      vertex -1.05461 1.39653 -0.875
      vertex -1.7202 0.321562 -0.875
    endloop
  endfacet
  facet normal 0 0 -1
    outer loop
      vertex -1.7202 0.321562 -0.875
      vertex -1.05461 1.39653 -0.875
      vertex -0.47891 1.68319 -0.875
    endloop
  endfacet
  facet normal 0 0 -1
    outer loop
      vertex -1.7202 0.321562 -0.875
      vertex -0.47891 1.68319 -0.875
      vertex 0.16147 1.74253 -0.875
    endloop
  endfacet
  facet normal 0 0 -1
    outer loop
      vertex -1.7202 0.321562 -0.875
      vertex 0.16147 1.74253 -0.875
      vertex 0.780042 1.56654 -0.875
    endloop
  endfacet
  facet normal 0 0 -1
    outer loop
      vertex -1.7202 0.321562 -0.875
      vertex 0.780042 1.56654 -0.875
      vertex 1.29327 1.17897 -0.875
    endloop
  endfacet
  facet normal 0 0 -1
    outer loop
      vertex -1.7202 0.321562 -0.875
      vertex 1.29327 1.17897 -0.875
      vertex 1.63183 0.632173 -0.875
    endloop
  endfacet
  facet normal 0 0 -1
    outer loop
      vertex -1.7202 0.321562 -0.875
      vertex 1.63183 0.632173 -0.875
      vertex 1.75 0 -0.875
    endloop
  endfacet
  facet normal 0 0 -1
    outer loop
      vertex -1.7202 0.321562 -0.875
      vertex 1.75 0 -0.875
      vertex 1.63183 -0.632173 -0.875
    endloop
  endfacet
  facet normal 0 0 -1
    outer loop
      vertex -1.7202 0.321562 -0.875
      vertex 1.63183 -0.632173 -0.875
      vertex 1.29327 -1.17897 -0.875
    endloop
  endfacet
  facet normal 0 0 -1
    outer loop
      vertex -1.7202 0.321562 -0.875
      vertex 1.29327 -1.17897 -0.875
      vertex 0.780042 -1.56654 -0.875
    endloop
  endfacet
  facet normal 0 0 -1
    outer loop
      vertex -1.7202 0.321562 -0.875
      vertex 0.780042 -1.56654 -0.875
      vertex 0.16147 -1.74253 -0.875
    endloop
  endfacet
  facet normal 0 0 -1
    outer loop
      vertex -1.7202 0.321562 -0.875
      vertex 0.16147 -1.74253 -0.875
      vertex -0.47891 -1.68319 -0.875
    endloop
  endfacet
  facet normal 0 0 -1
    outer loop
      vertex -1.7202 0.321562 -0.875
      vertex -0.47891 -1.68319 -0.875
      vertex -1.05461 -1.39653 -0.875
    endloop
  endfacet
  facet normal 0 0 -1
    outer loop
      vertex -1.7202 0.321562 -0.875
      vertex -1.05461 -1.39653 -0.875
      vertex -1.48788 -0.921256 -0.875
    endloop
  endfacet
  facet normal 0 0 -1
    outer loop
      vertex -1.7202 0.321562 -0.875
      vertex -1.48788 -0.921256 -0.875
      vertex -1.7202 -0.321562 -0.875
    endloop
  endfacet
  facet normal -0.00606421 0.0166038 -0.999844
    outer loop
      vertex 14.4721 -7.70121 1.40585
      vertex 13.6716 1.23652 1.55913
      vertex 16.2748 -7.04283 1.40585
    endloop
  endfacet
  facet normal 0.341868 -0.936033 0.0834743
    outer loop
      vertex 15.8775 -7.04283 3.0328
      vertex 14.0749 -7.70121 3.0328
      vertex 14.4721 -7.70121 1.40585
    endloop
  endfacet
  facet normal 0.341868 -0.936033 0.0834746
    outer loop
      vertex 15.8775 -7.04283 3.0328
      vertex 14.4721 -7.70121 1.40585
      vertex 16.2748 -7.04283 1.40585
    endloop
  endfacet
  facet normal -0.0124019 0.0146106 -0.999816
    outer loop
      vertex 16.2748 -7.04283 1.40585
      vertex 13.6716 1.23652 1.55913
      vertex 15.4742 2.76665 1.55913
    endloop
  endfacet
  facet normal -0.477039 0.561998 0.675716
    outer loop
      vertex 13.6716 1.23652 1.55913
      vertex 13.0949 -1.02487 3.0328
      vertex 15.4742 2.76665 1.55913
    endloop
  endfacet
  facet normal -0.477039 0.561998 0.675716
    outer loop
      vertex 15.4742 2.76665 1.55913
      vertex 13.0949 -1.02487 3.0328
      vertex 14.8975 0.505258 3.0328
    endloop
  endfacet
  facet normal 0 0 1
    outer loop
      vertex 14.8975 0.505258 3.0328
      vertex 13.0949 -1.02487 3.0328
      vertex 13.4928 -4.0607 3.0328
    endloop
  endfacet
  facet normal 0.049083 -0.134389 0.989712
    outer loop
      vertex 15.2955 -2.53057 3.67437
      vertex 14.0749 -7.70121 3.0328
      vertex 15.8775 -7.04283 3.0328
    endloop
  endfacet
  facet normal -0.298695 -0.0477575 0.953153
    outer loop
      vertex 15.2955 -2.53057 3.67437
      vertex 13.4928 -4.0607 3.0328
      vertex 14.0749 -7.70121 3.0328
    endloop
  endfacet
  facet normal -0.430155 0.132335 0.893003
    outer loop
      vertex 14.8975 0.505258 3.0328
      vertex 13.4928 -4.0607 3.0328
      vertex 15.2955 -2.53057 3.67437
    endloop
  endfacet
  facet normal 0.637319 -0.754724 0.155616
    outer loop
      vertex 17.6796 -5.52107 3.0328
      vertex 15.8775 -7.04283 3.0328
      vertex 16.2748 -7.04283 1.40585
    endloop
  endfacet
  facet normal 0.637319 -0.754724 0.155615
    outer loop
      vertex 17.6796 -5.52107 3.0328
      vertex 16.2748 -7.04283 1.40585
      vertex 18.0769 -5.52107 1.40585
    endloop
  endfacet
  facet normal -0.0123419 0.0146155 -0.999817
    outer loop
      vertex 16.2748 -7.04283 1.40585
      vertex 15.4742 2.76665 1.55913
      vertex 18.0769 -5.52107 1.40585
    endloop
  endfacet
  facet normal 0.33402 -0.0903131 0.938229
    outer loop
      vertex 17.0976 -2.53057 3.0328
      vertex 15.2955 -2.53057 3.67437
      vertex 15.8775 -7.04283 3.0328
    endloop
  endfacet
  facet normal 0 0 1
    outer loop
      vertex 17.0976 -2.53057 3.0328
      vertex 15.8775 -7.04283 3.0328
      vertex 17.6796 -5.52107 3.0328
    endloop
  endfacet
  facet normal 0 0 1
    outer loop
      vertex 18.5395 0.228222 3.0328
      vertex 17.0976 -2.53057 3.0328
      vertex 19.1216 -2.76227 3.0328
    endloop
  endfacet
  facet normal 0 0 1
    outer loop
      vertex 19.1216 -2.76227 3.0328
      vertex 17.0976 -2.53057 3.0328
      vertex 17.6796 -5.52107 3.0328
    endloop
  endfacet
  facet normal 0 0 1
    outer loop
      vertex 18.1416 3.26405 3.0328
      vertex 17.0976 -2.53057 3.0328
      vertex 18.5395 0.228222 3.0328
    endloop
  endfacet
  facet normal 0 0 1
    outer loop
      vertex 16.6996 0.505258 3.0328
      vertex 17.0976 -2.53057 3.0328
      vertex 18.1416 3.26405 3.0328
    endloop
  endfacet
  facet normal 0 0.0184916 -0.999829
    outer loop
      vertex 18.0769 -5.52107 1.40585
      vertex 15.4742 2.76665 1.55913
      vertex 17.2763 2.76665 1.55913
    endloop
  endfacet
  facet normal 0 0.545969 0.837806
    outer loop
      vertex 15.4742 2.76665 1.55913
      vertex 14.8975 0.505258 3.0328
      vertex 16.6996 0.505258 3.0328
    endloop
  endfacet
  facet normal 0 0.545969 0.837806
    outer loop
      vertex 17.2763 2.76665 1.55913
      vertex 15.4742 2.76665 1.55913
      vertex 16.6996 0.505258 3.0328
    endloop
  endfacet
  facet normal 0 0.206765 0.978391
    outer loop
      vertex 16.6996 0.505258 3.0328
      vertex 14.8975 0.505258 3.0328
      vertex 15.2955 -2.53057 3.67437
    endloop
  endfacet
  facet normal 0.335067 0.0439207 0.94117
    outer loop
      vertex 16.6996 0.505258 3.0328
      vertex 15.2955 -2.53057 3.67437
      vertex 17.0976 -2.53057 3.0328
    endloop
  endfacet
  facet normal 0.866194 -0.452742 0.2115
    outer loop
      vertex 19.1216 -2.76227 3.0328
      vertex 17.6796 -5.52107 3.0328
      vertex 18.0769 -5.52107 1.40585
    endloop
  endfacet
  facet normal 0.866194 -0.452742 0.2115
    outer loop
      vertex 19.5189 -2.76227 1.40585
      vertex 19.1216 -2.76227 3.0328
      vertex 18.0769 -5.52107 1.40585
    endloop
  endfacet
  facet normal -0.0298483 0.0156011 -0.999433
    outer loop
      vertex 18.0769 -5.52107 1.40585
      vertex 17.2763 2.76665 1.55913
      vertex 19.5189 -2.76227 1.40585
    endloop
  endfacet
  facet normal -0.329535 0.573027 0.750364
    outer loop
      vertex 17.2763 2.76665 1.55913
      vertex 16.6996 0.505258 3.0328
      vertex 18.7183 3.59589 1.55913
    endloop
  endfacet
  facet normal -0.861276 0.450171 -0.235688
    outer loop
      vertex 18.7183 3.59589 1.55913
      vertex 16.6996 0.505258 3.0328
      vertex 18.1416 3.26405 3.0328
    endloop
  endfacet
  facet normal 0.38851 0.703146 0.595521
    outer loop
      vertex 20.3179 2.95281 1.98051
      vertex 18.1416 3.26405 3.0328
      vertex 20.1766 2.39892 2.72666
    endloop
  endfacet
  facet normal 0.157296 0.0206184 0.987336
    outer loop
      vertex 20.1766 2.39892 2.72666
      vertex 18.1416 3.26405 3.0328
      vertex 18.5395 0.228222 3.0328
    endloop
  endfacet
  facet normal 0.281654 0.906558 0.314362
    outer loop
      vertex 18.7183 3.59589 1.55913
      vertex 18.1416 3.26405 3.0328
      vertex 20.3179 2.95281 1.98051
    endloop
  endfacet
  facet normal 0.150338 0.0292617 0.988202
    outer loop
      vertex 20.2741 1.65534 2.72666
      vertex 18.5395 0.228222 3.0328
      vertex 19.1216 -2.76227 3.0328
    endloop
  endfacet
  facet normal 0.157296 0.0206183 0.987336
    outer loop
      vertex 20.1766 2.39892 2.72666
      vertex 18.5395 0.228222 3.0328
      vertex 20.2741 1.65534 2.72666
    endloop
  endfacet
  facet normal 0.150338 0.0292616 0.988202
    outer loop
      vertex 20.2741 1.65534 2.72666
      vertex 19.1216 -2.76227 3.0328
      vertex 20.4167 0.922862 2.72666
    endloop
  endfacet
  facet normal 0.924786 -0.306238 0.225807
    outer loop
      vertex 20.4167 0.922862 2.72666
      vertex 19.1216 -2.76227 3.0328
      vertex 19.5189 -2.76227 1.40585
    endloop
  endfacet
  facet normal -0.0129233 0.0224722 -0.999664
    outer loop
      vertex 19.5189 -2.76227 1.40585
      vertex 17.2763 2.76665 1.55913
      vertex 18.7183 3.59589 1.55913
    endloop
  endfacet
  facet normal 0.955319 -0.273189 0.112842
    outer loop
      vertex 20.4167 0.922862 2.72666
      vertex 19.5189 -2.76227 1.40585
      vertex 20.514 0.922862 1.9029
    endloop
  endfacet
  facet normal 0.268985 0.0570457 -0.961454
    outer loop
      vertex 19.5189 -2.76227 1.40585
      vertex 18.7183 3.59589 1.55913
      vertex 20.514 0.922862 1.9029
    endloop
  endfacet
  facet normal 0.278021 0.0634992 -0.958474
    outer loop
      vertex 20.514 0.922862 1.9029
      vertex 18.7183 3.59589 1.55913
      vertex 20.3179 2.95281 1.98051
    endloop
  endfacet
  facet normal 0.98897 0.0910626 0.116817
    outer loop
      vertex 20.514 0.922862 1.9029
      vertex 20.3179 2.95281 1.98051
      vertex 20.4167 0.922862 2.72666
    endloop
  endfacet
  facet normal 0.914547 0.178006 0.363206
    outer loop
      vertex 20.3179 2.95281 1.98051
      vertex 20.2741 1.65534 2.72666
      vertex 20.4167 0.922862 2.72666
    endloop
  endfacet
  facet normal 0.953752 0.125017 0.273364
    outer loop
      vertex 20.3179 2.95281 1.98051
      vertex 20.1766 2.39892 2.72666
      vertex 20.2741 1.65534 2.72666
    endloop
  endfacet
endsolid OpenSCAD_Model
