solid OpenSCAD_Model
  facet normal -0.883583 -0.0517489 0.465407
    outer loop
      vertex -9.02345 -6.62449 4.64066
      vertex -10.2569 0.698181 3.11323
      vertex -9.84305 -6.36744 3.11323
    endloop
  endfacet
  facet normal 0 0 -1
    outer loop
      vertex -10.2569 0.698181 3.11323
      vertex -6.87844 7.05753 3.11323
      vertex -9.84305 -6.36744 3.11323
    endloop
  endfacet
  facet normal 0 0 -1
    outer loop
      vertex -9.84305 -6.36744 3.11323
      vertex -6.87844 7.05753 3.11323
      vertex -5.11185 8.04465 3.11323
    endloop
  endfacet
  facet normal 0 0 -1
    outer loop
      vertex -5.11185 8.04465 3.11323
      vertex -4.28501 12.703 3.11323
      vertex -5.25071 0.698181 3.11323
    endloop
  endfacet
  facet normal 0 0 -1
    outer loop
      vertex -6.32738 0.698181 3.11323
      vertex -5.11185 8.04465 3.11323
      vertex -5.25071 0.698181 3.11323
    endloop
  endfacet
  facet normal 0 0 -1
    outer loop
      vertex -9.84305 -6.36744 3.11323
      vertex -5.11185 8.04465 3.11323
      vertex -6.32738 0.698181 3.11323
    endloop
  endfacet
  facet normal 0 0 -1
    outer loop
      vertex -9.84305 -6.36744 3.11323
      vertex -6.174 -5.06865 3.11323
      vertex -5.62728 -10.238 3.11323
    endloop
  endfacet
  facet normal 0 0 -1
    outer loop
      vertex -9.84305 -6.36744 3.11323
      vertex -5.62728 -10.238 3.11323
      vertex -7.43415 -10.238 3.11323
    endloop
  endfacet
  facet normal 0 0 -1
    outer loop
      vertex -6.174 -5.06865 3.11323
      vertex -9.84305 -6.36744 3.11323
      vertex -6.32738 0.698181 3.11323
    endloop
  endfacet
  facet normal -0.868412 0.461347 -0.181715
    outer loop
      vertex -6.87844 7.05753 3.11323
      vertex -10.2569 0.698181 3.11323
      vertex -7.22167 7.0264 4.67452
    endloop
  endfacet
  facet normal -0.57331 0.0736471 0.816022
    outer loop
      vertex -7.22167 7.0264 4.67452
      vertex -10.2569 0.698181 3.11323
      vertex -9.02345 -6.62449 4.64066
    endloop
  endfacet
  facet normal -0.415348 0.0525692 0.908142
    outer loop
      vertex -7.22167 7.0264 4.67452
      vertex -9.02345 -6.62449 4.64066
      vertex -6.38249 0.319443 5.44657
    endloop
  endfacet
  facet normal -0.385121 0.0394621 0.922022
    outer loop
      vertex -6.38249 0.319443 5.44657
      vertex -9.02345 -6.62449 4.64066
      vertex -6.48743 -4.85778 5.62432
    endloop
  endfacet
  facet normal -0.421866 0.104101 0.900662
    outer loop
      vertex -6.48743 -4.85778 5.62432
      vertex -9.02345 -6.62449 4.64066
      vertex -6.69731 -8.78403 5.97982
    endloop
  endfacet
  facet normal -0.696159 -0.71578 0.0549693
    outer loop
      vertex -6.69731 -8.78403 5.97982
      vertex -9.02345 -6.62449 4.64066
      vertex -6.23948 -9.32001 4.79878
    endloop
  endfacet
  facet normal 0 0.0585602 0.998284
    outer loop
      vertex -6.23948 -9.32001 4.79878
      vertex -9.02345 -6.62449 4.64066
      vertex -8.04635 -9.32001 4.79878
    endloop
  endfacet
  facet normal -0.926828 -0.344703 -0.148897
    outer loop
      vertex -8.04635 -9.32001 4.79878
      vertex -9.02345 -6.62449 4.64066
      vertex -7.43415 -10.238 3.11323
    endloop
  endfacet
  facet normal -0.797115 -0.496098 0.34423
    outer loop
      vertex -9.02345 -6.62449 4.64066
      vertex -9.84305 -6.36744 3.11323
      vertex -7.43415 -10.238 3.11323
    endloop
  endfacet
  facet normal 0 -0.878204 0.478286
    outer loop
      vertex -6.23948 -9.32001 4.79878
      vertex -8.04635 -9.32001 4.79878
      vertex -7.43415 -10.238 3.11323
    endloop
  endfacet
  facet normal 0 -0.878204 0.478286
    outer loop
      vertex -5.62728 -10.238 3.11323
      vertex -6.23948 -9.32001 4.79878
      vertex -7.43415 -10.238 3.11323
    endloop
  endfacet
  facet normal -0.844872 -0.53474 -0.0156336
    outer loop
      vertex -2.75855 -14.7598 2.74894
      vertex -6.23948 -9.32001 4.79878
      vertex -5.62728 -10.238 3.11323
    endloop
  endfacet
  facet normal -0.142195 -0.0104721 -0.989783
    outer loop
      vertex -2.75855 -14.7598 2.74894
      vertex -5.62728 -10.238 3.11323
      vertex -3.64825 -2.67913 2.74894
    endloop
  endfacet
  facet normal -0.129986 -0.0137476 -0.99142
    outer loop
      vertex -5.62728 -10.238 3.11323
      vertex -6.174 -5.06865 3.11323
      vertex -3.64825 -2.67913 2.74894
    endloop
  endfacet
  facet normal 0.992224 0.0263904 0.121634
    outer loop
      vertex -6.32738 0.698181 3.11323
      vertex -6.48743 -4.85778 5.62432
      vertex -6.174 -5.06865 3.11323
    endloop
  endfacet
  facet normal -0.69092 0.708095 -0.145707
    outer loop
      vertex -6.174 -5.06865 3.11323
      vertex -6.48743 -4.85778 5.62432
      vertex -3.64825 -2.67913 2.74894
    endloop
  endfacet
  facet normal 0.9996 -0.0195598 0.0204359
    outer loop
      vertex -6.38249 0.319443 5.44657
      vertex -6.48743 -4.85778 5.62432
      vertex -6.32738 0.698181 3.11323
    endloop
  endfacet
  facet normal 0 -0.987082 -0.160219
    outer loop
      vertex -5.25071 0.698181 3.11323
      vertex -6.38249 0.319443 5.44657
      vertex -6.32738 0.698181 3.11323
    endloop
  endfacet
  facet normal 0.295988 -0.955123 -0.011463
    outer loop
      vertex -5.1197 0.698181 6.49605
      vertex -6.38249 0.319443 5.44657
      vertex -5.25071 0.698181 3.11323
    endloop
  endfacet
  facet normal -0.59238 -0.805332 0.0229417
    outer loop
      vertex -5.1197 0.698181 6.49605
      vertex -5.25071 0.698181 3.11323
      vertex -3.02354 -0.840288 6.61561
    endloop
  endfacet
  facet normal -0.675401 -0.729333 0.109119
    outer loop
      vertex -3.02354 -0.840288 6.61561
      vertex -5.25071 0.698181 3.11323
      vertex -3.64825 -0.840288 2.74894
    endloop
  endfacet
  facet normal -0.692051 -0.643297 -0.327466
    outer loop
      vertex -3.64825 -0.840288 2.74894
      vertex -5.25071 0.698181 3.11323
      vertex -2.34749 -0.840292 0
    endloop
  endfacet
  facet normal -0.766771 -0.314058 -0.559847
    outer loop
      vertex -2.34749 -0.840292 0
      vertex -5.25071 0.698181 3.11323
      vertex -4.50123 4.41803 0
    endloop
  endfacet
  facet normal -0.988246 0.121839 -0.0923317
    outer loop
      vertex -4.50123 4.41803 0
      vertex -5.25071 0.698181 3.11323
      vertex -3.47978 12.703 0
    endloop
  endfacet
  facet normal -0.965218 0.0776449 -0.249649
    outer loop
      vertex -3.47978 12.703 0
      vertex -5.25071 0.698181 3.11323
      vertex -4.28501 12.703 3.11323
    endloop
  endfacet
  facet normal 0.0534721 0.315489 0.947422
    outer loop
      vertex -4.28501 12.703 3.11323
      vertex -5.65825 8.03399 4.7455
      vertex -5.11553 4.61501 5.85338
    endloop
  endfacet
  facet normal -0.935443 0.166039 -0.312053
    outer loop
      vertex -5.11185 8.04465 3.11323
      vertex -5.65825 8.03399 4.7455
      vertex -4.28501 12.703 3.11323
    endloop
  endfacet
  facet normal -0.945448 0.215247 -0.244536
    outer loop
      vertex -3.47978 12.703 0
      vertex -4.28501 12.703 3.11323
      vertex -2.39967 17.4473 0
    endloop
  endfacet
  facet normal -0.948955 0.268457 -0.165574
    outer loop
      vertex -2.39967 17.4473 0
      vertex -4.28501 12.703 3.11323
      vertex -3.09138 16.9223 3.11323
    endloop
  endfacet
  facet normal -0.80238 0.226991 0.551961
    outer loop
      vertex -3.09138 16.9223 3.11323
      vertex -4.28501 12.703 3.11323
      vertex -3.09138 8.40576 6.61561
    endloop
  endfacet
  facet normal -0.371116 0.52254 0.76761
    outer loop
      vertex -3.09138 8.40576 6.61561
      vertex -4.28501 12.703 3.11323
      vertex -3.91499 6.7434 7.34905
    endloop
  endfacet
  facet normal -0.890826 0.225171 0.394623
    outer loop
      vertex -4.28501 12.703 3.11323
      vertex -5.11553 4.61501 5.85338
      vertex -3.91499 6.7434 7.34905
    endloop
  endfacet
  facet normal -0.481844 0.862319 -0.155667
    outer loop
      vertex -5.11185 8.04465 3.11323
      vertex -6.87844 7.05753 3.11323
      vertex -5.65825 8.03399 4.7455
    endloop
  endfacet
  facet normal -0.535704 0.838337 -0.101057
    outer loop
      vertex -6.87844 7.05753 3.11323
      vertex -7.22167 7.0264 4.67452
      vertex -5.65825 8.03399 4.7455
    endloop
  endfacet
  facet normal -0.109443 0.100145 0.988935
    outer loop
      vertex -5.65825 8.03399 4.7455
      vertex -7.22167 7.0264 4.67452
      vertex -6.38249 0.319443 5.44657
    endloop
  endfacet
  facet normal -0.672547 0.129356 0.728662
    outer loop
      vertex -5.65825 8.03399 4.7455
      vertex -6.38249 0.319443 5.44657
      vertex -5.11553 4.61501 5.85338
    endloop
  endfacet
  facet normal -0.655857 0.122904 0.744813
    outer loop
      vertex -5.11553 4.61501 5.85338
      vertex -6.38249 0.319443 5.44657
      vertex -5.1197 0.698181 6.49605
    endloop
  endfacet
  facet normal -0.548357 0.831538 0.0885937
    outer loop
      vertex -3.64825 -2.67913 2.74894
      vertex -6.48743 -4.85778 5.62432
      vertex -3.02354 -2.67913 6.61561
    endloop
  endfacet
  facet normal -0.318263 0.0760636 0.944946
    outer loop
      vertex -3.02354 -2.67913 6.61561
      vertex -6.48743 -4.85778 5.62432
      vertex -4.4235 -8.5368 6.61561
    endloop
  endfacet
  facet normal -0.278103 0.101353 0.955189
    outer loop
      vertex -6.48743 -4.85778 5.62432
      vertex -6.69731 -8.78403 5.97982
      vertex -4.4235 -8.5368 6.61561
    endloop
  endfacet
  facet normal -0.22481 -0.30893 0.924134
    outer loop
      vertex -4.4235 -8.5368 6.61561
      vertex -6.69731 -8.78403 5.97982
      vertex -3.69037 -13.2916 5.20446
    endloop
  endfacet
  facet normal -0.835482 -0.544103 -0.0769503
    outer loop
      vertex -3.69037 -13.2916 5.20446
      vertex -6.69731 -8.78403 5.97982
      vertex -6.23948 -9.32001 4.79878
    endloop
  endfacet
  facet normal -0.841722 -0.5399 0.00340887
    outer loop
      vertex -3.69037 -13.2916 5.20446
      vertex -6.23948 -9.32001 4.79878
      vertex -2.75855 -14.7598 2.74894
    endloop
  endfacet
  facet normal -0.76348 -0.639179 0.0924625
    outer loop
      vertex -2.29027 -14.7598 6.61561
      vertex -3.69037 -13.2916 5.20446
      vertex -2.75855 -14.7598 2.74894
    endloop
  endfacet
  facet normal -0.926595 0.358927 0.112217
    outer loop
      vertex -2.75855 -14.7598 2.74894
      vertex -3.01344 -16.6268 6.61561
      vertex -2.29027 -14.7598 6.61561
    endloop
  endfacet
  facet normal -0.960272 0.270795 0.0674447
    outer loop
      vertex -2.75855 -14.7598 2.74894
      vertex -3.63599 -17.8714 2.74894
      vertex -3.01344 -16.6268 6.61561
    endloop
  endfacet
  facet normal -0.913719 0.257667 -0.314204
    outer loop
      vertex -2.33973 -16.6268 0
      vertex -3.63599 -17.8714 2.74894
      vertex -2.75855 -14.7598 2.74894
    endloop
  endfacet
  facet normal -0.907377 0.270338 -0.321844
    outer loop
      vertex -2.33973 -16.6268 0
      vertex -2.75855 -14.7598 2.74894
      vertex -1.78351 -14.7598 0
    endloop
  endfacet
  facet normal -0.914654 -0.241155 -0.324425
    outer loop
      vertex -2.75855 -14.7598 2.74894
      vertex -3.42426 -8.5368 0
      vertex -1.78351 -14.7598 0
    endloop
  endfacet
  facet normal -0.994488 -0.0732403 0.0750334
    outer loop
      vertex -2.75855 -14.7598 2.74894
      vertex -3.64825 -2.67913 2.74894
      vertex -3.42426 -8.5368 0
    endloop
  endfacet
  facet normal -0.891688 0.163911 -0.421932
    outer loop
      vertex -3.42426 -8.5368 0
      vertex -3.64825 -2.67913 2.74894
      vertex -2.34749 -2.67913 0
    endloop
  endfacet
  facet normal -0.903913 0 -0.427717
    outer loop
      vertex -3.64825 -2.67913 2.74894
      vertex -3.64825 -0.840288 2.74894
      vertex -2.34749 -2.67913 0
    endloop
  endfacet
  facet normal -0.903913 0 -0.427717
    outer loop
      vertex -2.34749 -2.67913 0
      vertex -3.64825 -0.840288 2.74894
      vertex -2.34749 -0.840292 0
    endloop
  endfacet
  facet normal -0.987199 0 0.159494
    outer loop
      vertex -3.64825 -2.67913 2.74894
      vertex -3.02354 -2.67913 6.61561
      vertex -3.64825 -0.840288 2.74894
    endloop
  endfacet
  facet normal -0.987199 0 0.159494
    outer loop
      vertex -3.64825 -0.840288 2.74894
      vertex -3.02354 -2.67913 6.61561
      vertex -3.02354 -0.840288 6.61561
    endloop
  endfacet
  facet normal -0.835234 0.0898994 0.542497
    outer loop
      vertex -5.11553 4.61501 5.85338
      vertex -5.1197 0.698181 6.49605
      vertex -3.91499 6.7434 7.34905
    endloop
  endfacet
  facet normal -0.298493 -0.0747726 0.951478
    outer loop
      vertex -3.91499 6.7434 7.34905
      vertex -5.1197 0.698181 6.49605
      vertex -2.01266 5.4454 7.84383
    endloop
  endfacet
  facet normal -0.419919 0.0172153 0.907398
    outer loop
      vertex -2.01266 5.4454 7.84383
      vertex -5.1197 0.698181 6.49605
      vertex -2.27035 -0.840288 7.84383
    endloop
  endfacet
  facet normal -0.567517 -0.746194 0.348021
    outer loop
      vertex -2.27035 -0.840288 7.84383
      vertex -5.1197 0.698181 6.49605
      vertex -3.02354 -0.840288 6.61561
    endloop
  endfacet
  facet normal -0.852476 0 0.522767
    outer loop
      vertex -3.02354 -0.840288 6.61561
      vertex -3.02354 -2.67913 6.61561
      vertex -2.27035 -0.840288 7.84383
    endloop
  endfacet
  facet normal 0 0 -1
    outer loop
      vertex -4.50123 4.41803 0
      vertex -3.47978 12.703 0
      vertex -2.34749 -0.840292 0
    endloop
  endfacet
  facet normal 0 0 -1
    outer loop
      vertex -2.34749 -0.840292 0
      vertex -3.47978 12.703 0
      vertex -2.39967 17.4473 0
    endloop
  endfacet
  facet normal 0 0 -1
    outer loop
      vertex -0.75 13.299 0
      vertex -2.39967 17.4473 0
      vertex 2.39967 17.4473 0
    endloop
  endfacet
  facet normal 0 0 -1
    outer loop
      vertex 1.5 12 0
      vertex 2.39967 17.4473 0
      vertex 3.47978 12.703 0
    endloop
  endfacet
  facet normal 0 0 -1
    outer loop
      vertex -0.156793 1.49178 0
      vertex 3.47978 12.703 0
      vertex 4.50123 4.41803 0
    endloop
  endfacet
  facet normal 0 0 -1
    outer loop
      vertex 1.37032 -0.610105 0
      vertex 4.50123 4.41803 0
      vertex 2.34749 -0.840292 0
    endloop
  endfacet
  facet normal 0 0 -1
    outer loop
      vertex 0.463525 -1.42658 0
      vertex 2.34749 -0.840292 0
      vertex 2.34749 -2.67913 0
    endloop
  endfacet
  facet normal 0 0 -1
    outer loop
      vertex 2.34749 -2.67913 0
      vertex 3.42426 -8.5368 0
      vertex -2.34749 -0.840292 0
    endloop
  endfacet
  facet normal 0 0 -1
    outer loop
      vertex -2.34749 -0.840292 0
      vertex 3.42426 -8.5368 0
      vertex 1.78351 -14.7598 0
    endloop
  endfacet
  facet normal 0 0 -1
    outer loop
      vertex -1.46722 -0.311868 0
      vertex -2.34749 -0.840292 0
      vertex -1.46722 0.311868 0
    endloop
  endfacet
  facet normal 0 0 -1
    outer loop
      vertex -2.34749 -2.67913 0
      vertex -1.78351 -14.7598 0
      vertex -3.42426 -8.5368 0
    endloop
  endfacet
  facet normal 0 0 -1
    outer loop
      vertex 0 -17.8714 0
      vertex -2.33973 -16.6268 0
      vertex -1.78351 -14.7598 0
    endloop
  endfacet
  facet normal 0 0 -1
    outer loop
      vertex -0.156793 1.49178 0
      vertex 4.50123 4.41803 0
      vertex 0.463525 1.42658 0
    endloop
  endfacet
  facet normal 0 0 -1
    outer loop
      vertex -2.34749 -2.67913 0
      vertex 0 -17.8714 0
      vertex -1.78351 -14.7598 0
    endloop
  endfacet
  facet normal 0 0 -1
    outer loop
      vertex 2.33973 -16.6268 0
      vertex 0 -17.8714 0
      vertex -2.34749 -2.67913 0
    endloop
  endfacet
  facet normal 0 0 -1
    outer loop
      vertex -2.34749 -0.840292 0
      vertex 3.47978 12.703 0
      vertex -1.46722 0.311868 0
    endloop
  endfacet
  facet normal 0 0 -1
    outer loop
      vertex -1.21352 -0.881678 0
      vertex -2.34749 -0.840292 0
      vertex -1.46722 -0.311868 0
    endloop
  endfacet
  facet normal 0 0 -1
    outer loop
      vertex 0.463525 -1.42658 0
      vertex 2.34749 -2.67913 0
      vertex -0.156793 -1.49178 0
    endloop
  endfacet
  facet normal 0 0 -1
    outer loop
      vertex -2.34749 -0.840292 0
      vertex -1.21352 -0.881678 0
      vertex -0.75 -1.29904 0
    endloop
  endfacet
  facet normal 0 0 -1
    outer loop
      vertex -2.34749 -0.840292 0
      vertex -0.75 -1.29904 0
      vertex 2.34749 -2.67913 0
    endloop
  endfacet
  facet normal 0 0 -1
    outer loop
      vertex -0.75 -1.29904 0
      vertex -0.156793 -1.49178 0
      vertex 2.34749 -2.67913 0
    endloop
  endfacet
  facet normal 0 0 -1
    outer loop
      vertex 1.0037 -1.11472 0
      vertex 2.34749 -0.840292 0
      vertex 0.463525 -1.42658 0
    endloop
  endfacet
  facet normal 0 0 -1
    outer loop
      vertex 1.37032 -0.610105 0
      vertex 2.34749 -0.840292 0
      vertex 1.0037 -1.11472 0
    endloop
  endfacet
  facet normal 0 0 -1
    outer loop
      vertex 1.5 0 0
      vertex 4.50123 4.41803 0
      vertex 1.37032 -0.610105 0
    endloop
  endfacet
  facet normal 0 0 -1
    outer loop
      vertex 0.463525 1.42658 0
      vertex 4.50123 4.41803 0
      vertex 1.0037 1.11472 0
    endloop
  endfacet
  facet normal 0 0 -1
    outer loop
      vertex 1.37032 0.610105 0
      vertex 4.50123 4.41803 0
      vertex 1.5 0 0
    endloop
  endfacet
  facet normal 0 0 -1
    outer loop
      vertex 1.0037 1.11472 0
      vertex 4.50123 4.41803 0
      vertex 1.37032 0.610105 0
    endloop
  endfacet
  facet normal 0 0 -1
    outer loop
      vertex -0.75 1.29904 0
      vertex 3.47978 12.703 0
      vertex -0.156793 1.49178 0
    endloop
  endfacet
  facet normal 0 0 -1
    outer loop
      vertex 1.0037 10.8853 0
      vertex -2.34749 -0.840292 0
      vertex 0.463525 10.5734 0
    endloop
  endfacet
  facet normal 0 0 -1
    outer loop
      vertex -1.21352 0.881678 0
      vertex 3.47978 12.703 0
      vertex -0.75 1.29904 0
    endloop
  endfacet
  facet normal 0 0 -1
    outer loop
      vertex -1.46722 0.311868 0
      vertex 3.47978 12.703 0
      vertex -1.21352 0.881678 0
    endloop
  endfacet
  facet normal 0 0 -1
    outer loop
      vertex -2.34749 -0.840292 0
      vertex -2.39967 17.4473 0
      vertex -1.46722 12.3119 0
    endloop
  endfacet
  facet normal 0 0 -1
    outer loop
      vertex -2.34749 -0.840292 0
      vertex -1.46722 12.3119 0
      vertex -1.46722 11.6881 0
    endloop
  endfacet
  facet normal 0 0 -1
    outer loop
      vertex -2.34749 -0.840292 0
      vertex -1.46722 11.6881 0
      vertex -1.21352 11.1183 0
    endloop
  endfacet
  facet normal 0 0 -1
    outer loop
      vertex -2.34749 -0.840292 0
      vertex -1.21352 11.1183 0
      vertex -0.75 10.701 0
    endloop
  endfacet
  facet normal 0 0 -1
    outer loop
      vertex -2.34749 -0.840292 0
      vertex -0.75 10.701 0
      vertex -0.156793 10.5082 0
    endloop
  endfacet
  facet normal 0 0 -1
    outer loop
      vertex -2.34749 -0.840292 0
      vertex -0.156793 10.5082 0
      vertex 0.463525 10.5734 0
    endloop
  endfacet
  facet normal 0 0 -1
    outer loop
      vertex 1.0037 13.1147 0
      vertex 2.39967 17.4473 0
      vertex 1.37032 12.6101 0
    endloop
  endfacet
  facet normal 0 0 -1
    outer loop
      vertex -2.34749 -0.840292 0
      vertex 1.0037 10.8853 0
      vertex 3.47978 12.703 0
    endloop
  endfacet
  facet normal 0 0 -1
    outer loop
      vertex 1.0037 10.8853 0
      vertex 1.37032 11.3899 0
      vertex 3.47978 12.703 0
    endloop
  endfacet
  facet normal 0 0 -1
    outer loop
      vertex 1.37032 11.3899 0
      vertex 1.5 12 0
      vertex 3.47978 12.703 0
    endloop
  endfacet
  facet normal 0 0 -1
    outer loop
      vertex 1.37032 12.6101 0
      vertex 2.39967 17.4473 0
      vertex 1.5 12 0
    endloop
  endfacet
  facet normal 0 0 -1
    outer loop
      vertex 0.463525 13.4266 0
      vertex 2.39967 17.4473 0
      vertex 1.0037 13.1147 0
    endloop
  endfacet
  facet normal 0 0 -1
    outer loop
      vertex -0.156793 13.4918 0
      vertex 2.39967 17.4473 0
      vertex 0.463525 13.4266 0
    endloop
  endfacet
  facet normal 0 0 -1
    outer loop
      vertex -0.75 13.299 0
      vertex 2.39967 17.4473 0
      vertex -0.156793 13.4918 0
    endloop
  endfacet
  facet normal 0 0 -1
    outer loop
      vertex -1.21352 12.8817 0
      vertex -2.39967 17.4473 0
      vertex -0.75 13.299 0
    endloop
  endfacet
  facet normal 0 0 -1
    outer loop
      vertex -1.46722 12.3119 0
      vertex -2.39967 17.4473 0
      vertex -1.21352 12.8817 0
    endloop
  endfacet
  facet normal 0 0 -1
    outer loop
      vertex 1.78351 -14.7598 0
      vertex 2.33973 -16.6268 0
      vertex -2.34749 -2.67913 0
    endloop
  endfacet
  facet normal 0 0 -1
    outer loop
      vertex -2.34749 -0.840292 0
      vertex 1.78351 -14.7598 0
      vertex -2.34749 -2.67913 0
    endloop
  endfacet
  facet normal 0 0.949875 -0.312629
    outer loop
      vertex 2.39967 17.4473 0
      vertex -2.39967 17.4473 0
      vertex 0 18.4719 3.11323
    endloop
  endfacet
  facet normal -0.447535 0.892804 0.0511148
    outer loop
      vertex -2.39967 17.4473 0
      vertex -3.09138 16.9223 3.11323
      vertex 0 18.4719 3.11323
    endloop
  endfacet
  facet normal -0.0620303 0.123747 0.990373
    outer loop
      vertex 0 18.4719 3.11323
      vertex -3.09138 16.9223 3.11323
      vertex 0 9.2032 4.27135
    endloop
  endfacet
  facet normal 0.516521 0.325674 0.791923
    outer loop
      vertex -3.09138 16.9223 3.11323
      vertex -3.09138 8.40576 6.61561
      vertex 0 9.2032 4.27135
    endloop
  endfacet
  facet normal 0.028144 0.391797 0.919621
    outer loop
      vertex -3.09138 8.40576 6.61561
      vertex -3.91499 6.7434 7.34905
      vertex -2.01266 5.4454 7.84383
    endloop
  endfacet
  facet normal 0.279855 0.734052 0.618748
    outer loop
      vertex 0 9.2032 4.27135
      vertex -3.09138 8.40576 6.61561
      vertex 0 7.22718 6.61561
    endloop
  endfacet
  facet normal 0.163267 0.428244 0.888792
    outer loop
      vertex 0 7.22718 6.61561
      vertex -3.09138 8.40576 6.61561
      vertex -2.01266 5.4454 7.84383
    endloop
  endfacet
  facet normal -0.919246 0.127813 0.372358
    outer loop
      vertex -3.02354 -2.67913 6.61561
      vertex -3.31023 -8.31925 7.84383
      vertex -2.27035 -0.840288 7.84383
    endloop
  endfacet
  facet normal -0.744583 0.177953 0.643373
    outer loop
      vertex -3.02354 -2.67913 6.61561
      vertex -4.4235 -8.5368 6.61561
      vertex -3.31023 -8.31925 7.84383
    endloop
  endfacet
  facet normal 0 -0.984673 0.174409
    outer loop
      vertex -3.31023 -8.31925 7.84383
      vertex -4.4235 -8.5368 6.61561
      vertex 0 -8.5368 6.61561
    endloop
  endfacet
  facet normal 0 -0.984673 0.174409
    outer loop
      vertex 3.31023 -8.31925 7.84383
      vertex -3.31023 -8.31925 7.84383
      vertex 4.4235 -8.5368 6.61561
    endloop
  endfacet
  facet normal 0 -0.984673 0.174409
    outer loop
      vertex 4.4235 -8.5368 6.61561
      vertex -3.31023 -8.31925 7.84383
      vertex 0 -8.5368 6.61561
    endloop
  endfacet
  facet normal 0 0.0730947 0.997325
    outer loop
      vertex 0 -8.5368 6.61561
      vertex -4.4235 -8.5368 6.61561
      vertex -1.72603 -11.6483 6.84365
    endloop
  endfacet
  facet normal -0.13833 -0.0474188 0.98925
    outer loop
      vertex -1.72603 -11.6483 6.84365
      vertex -4.4235 -8.5368 6.61561
      vertex -2.29027 -14.7598 6.61561
    endloop
  endfacet
  facet normal -0.81074 -0.277918 0.51523
    outer loop
      vertex -2.29027 -14.7598 6.61561
      vertex -4.4235 -8.5368 6.61561
      vertex -3.69037 -13.2916 5.20446
    endloop
  endfacet
  facet normal 0 -0.0730948 0.997325
    outer loop
      vertex -1.72603 -11.6483 6.84365
      vertex -2.29027 -14.7598 6.61561
      vertex 0 -14.7598 6.61561
    endloop
  endfacet
  facet normal 0 0.141862 0.989887
    outer loop
      vertex 0 -14.7598 6.61561
      vertex -2.29027 -14.7598 6.61561
      vertex -1.07911 -15.797 6.76424
    endloop
  endfacet
  facet normal -0.306925 -0.225915 0.924532
    outer loop
      vertex -1.07911 -15.797 6.76424
      vertex -2.29027 -14.7598 6.61561
      vertex 0 -17.8714 6.61561
    endloop
  endfacet
  facet normal 0 0 1
    outer loop
      vertex -2.29027 -14.7598 6.61561
      vertex -3.01344 -16.6268 6.61561
      vertex 0 -17.8714 6.61561
    endloop
  endfacet
  facet normal -0.359294 -0.869919 0.337859
    outer loop
      vertex -3.01344 -16.6268 6.61561
      vertex -3.63599 -17.8714 2.74894
      vertex 0 -17.8714 6.61561
    endloop
  endfacet
  facet normal 0 -1 0
    outer loop
      vertex 0 -17.8714 6.61561
      vertex -3.63599 -17.8714 2.74894
      vertex 0 -17.8714 0
    endloop
  endfacet
  facet normal 0 -1 0
    outer loop
      vertex 3.63599 -17.8714 2.74894
      vertex 0 -17.8714 6.61561
      vertex 0 -17.8714 0
    endloop
  endfacet
  facet normal -0.398933 -0.749949 -0.527664
    outer loop
      vertex 0 -17.8714 0
      vertex -3.63599 -17.8714 2.74894
      vertex -2.33973 -16.6268 0
    endloop
  endfacet
  facet normal 0 0.567548 0.82334
    outer loop
      vertex 0 7.22718 6.61561
      vertex -2.01266 5.4454 7.84383
      vertex 2.01266 5.4454 7.84383
    endloop
  endfacet
  facet normal 0 0 1
    outer loop
      vertex -2.27035 -0.840288 7.84383
      vertex -3.31023 -8.31925 7.84383
      vertex 3.31023 -8.31925 7.84383
    endloop
  endfacet
  facet normal 0 0 1
    outer loop
      vertex 2.01266 5.4454 7.84383
      vertex -2.27035 -0.840288 7.84383
      vertex 2.27035 -0.840288 7.84383
    endloop
  endfacet
  facet normal 0 0 1
    outer loop
      vertex 2.27035 -0.840288 7.84383
      vertex -2.27035 -0.840288 7.84383
      vertex 3.31023 -8.31925 7.84383
    endloop
  endfacet
  facet normal 0 0 1
    outer loop
      vertex -2.01266 5.4454 7.84383
      vertex -2.27035 -0.840288 7.84383
      vertex 2.01266 5.4454 7.84383
    endloop
  endfacet
  facet normal 0.398933 -0.749949 -0.527664
    outer loop
      vertex 3.63599 -17.8714 2.74894
      vertex 0 -17.8714 0
      vertex 2.33973 -16.6268 0
    endloop
  endfacet
  facet normal 0.907377 0.270338 -0.321844
    outer loop
      vertex 2.33973 -16.6268 0
      vertex 1.78351 -14.7598 0
      vertex 2.75855 -14.7598 2.74894
    endloop
  endfacet
  facet normal 0.913719 0.257667 -0.314204
    outer loop
      vertex 3.63599 -17.8714 2.74894
      vertex 2.33973 -16.6268 0
      vertex 2.75855 -14.7598 2.74894
    endloop
  endfacet
  facet normal 0.914654 -0.241155 -0.324425
    outer loop
      vertex 2.75855 -14.7598 2.74894
      vertex 1.78351 -14.7598 0
      vertex 3.42426 -8.5368 0
    endloop
  endfacet
  facet normal 0.994488 -0.0732403 0.0750334
    outer loop
      vertex 3.64825 -2.67913 2.74894
      vertex 2.75855 -14.7598 2.74894
      vertex 3.42426 -8.5368 0
    endloop
  endfacet
  facet normal 0.891688 0.163911 -0.421932
    outer loop
      vertex 3.42426 -8.5368 0
      vertex 2.34749 -2.67913 0
      vertex 3.64825 -2.67913 2.74894
    endloop
  endfacet
  facet normal 0.903913 0 -0.427717
    outer loop
      vertex 3.64825 -2.67913 2.74894
      vertex 2.34749 -2.67913 0
      vertex 2.34749 -0.840292 0
    endloop
  endfacet
  facet normal 0.903913 0 -0.427717
    outer loop
      vertex 3.64825 -0.840288 2.74894
      vertex 3.64825 -2.67913 2.74894
      vertex 2.34749 -0.840292 0
    endloop
  endfacet
  facet normal 0.692051 -0.643297 -0.327466
    outer loop
      vertex 3.64825 -0.840288 2.74894
      vertex 2.34749 -0.840292 0
      vertex 5.25071 0.698181 3.11323
    endloop
  endfacet
  facet normal 0.766771 -0.314058 -0.559847
    outer loop
      vertex 5.25071 0.698181 3.11323
      vertex 2.34749 -0.840292 0
      vertex 4.50123 4.41803 0
    endloop
  endfacet
  facet normal 0.988246 0.121839 -0.0923317
    outer loop
      vertex 4.50123 4.41803 0
      vertex 3.47978 12.703 0
      vertex 5.25071 0.698181 3.11323
    endloop
  endfacet
  facet normal 0.965218 0.0776449 -0.249649
    outer loop
      vertex 5.25071 0.698181 3.11323
      vertex 3.47978 12.703 0
      vertex 4.28501 12.703 3.11323
    endloop
  endfacet
  facet normal 0.945448 0.215247 -0.244536
    outer loop
      vertex 3.47978 12.703 0
      vertex 2.39967 17.4473 0
      vertex 4.28501 12.703 3.11323
    endloop
  endfacet
  facet normal 0.948955 0.268457 -0.165574
    outer loop
      vertex 4.28501 12.703 3.11323
      vertex 2.39967 17.4473 0
      vertex 3.09138 16.9223 3.11323
    endloop
  endfacet
  facet normal 0.447535 0.892804 0.0511148
    outer loop
      vertex 2.39967 17.4473 0
      vertex 0 18.4719 3.11323
      vertex 3.09138 16.9223 3.11323
    endloop
  endfacet
  facet normal 0.913545 -0.406737 0
    outer loop
      vertex -1.21352 0.881678 0
      vertex -1.21352 0.881678 4.5
      vertex -1.46722 0.311868 4.5
    endloop
  endfacet
  facet normal 0.913545 -0.406737 0
    outer loop
      vertex -1.46722 0.311868 0
      vertex -1.21352 0.881678 0
      vertex -1.46722 0.311868 4.5
    endloop
  endfacet
  facet normal 1 0 0
    outer loop
      vertex -1.46722 0.311868 0
      vertex -1.46722 0.311868 4.5
      vertex -1.46722 -0.311868 4.5
    endloop
  endfacet
  facet normal 1 0 0
    outer loop
      vertex -1.46722 -0.311868 0
      vertex -1.46722 0.311868 0
      vertex -1.46722 -0.311868 4.5
    endloop
  endfacet
  facet normal 0.669131 -0.743145 0
    outer loop
      vertex -0.75 1.29904 0
      vertex -0.75 1.29904 4.5
      vertex -1.21352 0.881678 4.5
    endloop
  endfacet
  facet normal 0.669131 -0.743145 0
    outer loop
      vertex -1.21352 0.881678 0
      vertex -0.75 1.29904 0
      vertex -1.21352 0.881678 4.5
    endloop
  endfacet
  facet normal 0.309018 -0.951056 0
    outer loop
      vertex -0.156793 1.49178 0
      vertex -0.156793 1.49178 4.5
      vertex -0.75 1.29904 4.5
    endloop
  endfacet
  facet normal 0.309018 -0.951056 0
    outer loop
      vertex -0.75 1.29904 0
      vertex -0.156793 1.49178 0
      vertex -0.75 1.29904 4.5
    endloop
  endfacet
  facet normal -0.104528 -0.994522 0
    outer loop
      vertex 0.463525 1.42658 0
      vertex 0.463525 1.42658 4.5
      vertex -0.156793 1.49178 4.5
    endloop
  endfacet
  facet normal -0.104528 -0.994522 0
    outer loop
      vertex -0.156793 1.49178 0
      vertex 0.463525 1.42658 0
      vertex -0.156793 1.49178 4.5
    endloop
  endfacet
  facet normal -0.5 -0.866025 0
    outer loop
      vertex 1.0037 1.11472 0
      vertex 1.0037 1.11472 4.5
      vertex 0.463525 1.42658 4.5
    endloop
  endfacet
  facet normal -0.5 -0.866025 0
    outer loop
      vertex 0.463525 1.42658 0
      vertex 1.0037 1.11472 0
      vertex 0.463525 1.42658 4.5
    endloop
  endfacet
  facet normal -0.809017 -0.587785 0
    outer loop
      vertex 1.37032 0.610105 4.5
      vertex 1.0037 1.11472 4.5
      vertex 1.37032 0.610105 0
    endloop
  endfacet
  facet normal -0.809017 -0.587785 0
    outer loop
      vertex 1.37032 0.610105 0
      vertex 1.0037 1.11472 4.5
      vertex 1.0037 1.11472 0
    endloop
  endfacet
  facet normal -0.978148 -0.207912 0
    outer loop
      vertex 1.5 0 4.5
      vertex 1.37032 0.610105 4.5
      vertex 1.5 0 0
    endloop
  endfacet
  facet normal -0.978148 -0.207912 0
    outer loop
      vertex 1.5 0 0
      vertex 1.37032 0.610105 4.5
      vertex 1.37032 0.610105 0
    endloop
  endfacet
  facet normal -0.978148 0.207912 0
    outer loop
      vertex 1.5 0 4.5
      vertex 1.5 0 0
      vertex 1.37032 -0.610105 4.5
    endloop
  endfacet
  facet normal -0.978148 0.207912 0
    outer loop
      vertex 1.37032 -0.610105 4.5
      vertex 1.5 0 0
      vertex 1.37032 -0.610105 0
    endloop
  endfacet
  facet normal -0.809017 0.587785 0
    outer loop
      vertex 1.37032 -0.610105 4.5
      vertex 1.37032 -0.610105 0
      vertex 1.0037 -1.11472 4.5
    endloop
  endfacet
  facet normal -0.809017 0.587785 0
    outer loop
      vertex 1.0037 -1.11472 4.5
      vertex 1.37032 -0.610105 0
      vertex 1.0037 -1.11472 0
    endloop
  endfacet
  facet normal -0.5 0.866025 0
    outer loop
      vertex 1.0037 -1.11472 4.5
      vertex 1.0037 -1.11472 0
      vertex 0.463525 -1.42658 4.5
    endloop
  endfacet
  facet normal -0.5 0.866025 0
    outer loop
      vertex 0.463525 -1.42658 4.5
      vertex 1.0037 -1.11472 0
      vertex 0.463525 -1.42658 0
    endloop
  endfacet
  facet normal -0.104528 0.994522 0
    outer loop
      vertex 0.463525 -1.42658 4.5
      vertex 0.463525 -1.42658 0
      vertex -0.156793 -1.49178 4.5
    endloop
  endfacet
  facet normal -0.104528 0.994522 0
    outer loop
      vertex -0.156793 -1.49178 4.5
      vertex 0.463525 -1.42658 0
      vertex -0.156793 -1.49178 0
    endloop
  endfacet
  facet normal 0.309018 0.951056 0
    outer loop
      vertex -0.156793 -1.49178 4.5
      vertex -0.156793 -1.49178 0
      vertex -0.75 -1.29904 4.5
    endloop
  endfacet
  facet normal 0.309018 0.951056 0
    outer loop
      vertex -0.75 -1.29904 4.5
      vertex -0.156793 -1.49178 0
      vertex -0.75 -1.29904 0
    endloop
  endfacet
  facet normal 0.669131 0.743145 0
    outer loop
      vertex -0.75 -1.29904 4.5
      vertex -0.75 -1.29904 0
      vertex -1.21352 -0.881678 4.5
    endloop
  endfacet
  facet normal 0.669131 0.743145 0
    outer loop
      vertex -1.21352 -0.881678 4.5
      vertex -0.75 -1.29904 0
      vertex -1.21352 -0.881678 0
    endloop
  endfacet
  facet normal 0.913545 0.406737 0
    outer loop
      vertex -1.46722 -0.311868 4.5
      vertex -1.21352 -0.881678 4.5
      vertex -1.21352 -0.881678 0
    endloop
  endfacet
  facet normal 0.913545 0.406737 0
    outer loop
      vertex -1.46722 -0.311868 0
      vertex -1.46722 -0.311868 4.5
      vertex -1.21352 -0.881678 0
    endloop
  endfacet
  facet normal 0.913545 -0.406737 0
    outer loop
      vertex -1.21352 12.8817 0
      vertex -1.21352 12.8817 2.5
      vertex -1.46722 12.3119 2.5
    endloop
  endfacet
  facet normal 0.913545 -0.406737 0
    outer loop
      vertex -1.46722 12.3119 0
      vertex -1.21352 12.8817 0
      vertex -1.46722 12.3119 2.5
    endloop
  endfacet
  facet normal 1 0 0
    outer loop
      vertex -1.46722 12.3119 0
      vertex -1.46722 12.3119 2.5
      vertex -1.46722 11.6881 2.5
    endloop
  endfacet
  facet normal 1 0 0
    outer loop
      vertex -1.46722 11.6881 0
      vertex -1.46722 12.3119 0
      vertex -1.46722 11.6881 2.5
    endloop
  endfacet
  facet normal 0.669131 -0.743145 0
    outer loop
      vertex -0.75 13.299 0
      vertex -0.75 13.299 2.5
      vertex -1.21352 12.8817 2.5
    endloop
  endfacet
  facet normal 0.669131 -0.743145 0
    outer loop
      vertex -1.21352 12.8817 0
      vertex -0.75 13.299 0
      vertex -1.21352 12.8817 2.5
    endloop
  endfacet
  facet normal 0.309018 -0.951056 0
    outer loop
      vertex -0.156793 13.4918 0
      vertex -0.156793 13.4918 2.5
      vertex -0.75 13.299 2.5
    endloop
  endfacet
  facet normal 0.309018 -0.951056 0
    outer loop
      vertex -0.75 13.299 0
      vertex -0.156793 13.4918 0
      vertex -0.75 13.299 2.5
    endloop
  endfacet
  facet normal -0.104528 -0.994522 0
    outer loop
      vertex 0.463525 13.4266 0
      vertex 0.463525 13.4266 2.5
      vertex -0.156793 13.4918 2.5
    endloop
  endfacet
  facet normal -0.104528 -0.994522 0
    outer loop
      vertex -0.156793 13.4918 0
      vertex 0.463525 13.4266 0
      vertex -0.156793 13.4918 2.5
    endloop
  endfacet
  facet normal -0.5 -0.866025 0
    outer loop
      vertex 1.0037 13.1147 0
      vertex 1.0037 13.1147 2.5
      vertex 0.463525 13.4266 2.5
    endloop
  endfacet
  facet normal -0.5 -0.866025 0
    outer loop
      vertex 0.463525 13.4266 0
      vertex 1.0037 13.1147 0
      vertex 0.463525 13.4266 2.5
    endloop
  endfacet
  facet normal -0.809017 -0.587785 0
    outer loop
      vertex 1.37032 12.6101 2.5
      vertex 1.0037 13.1147 2.5
      vertex 1.37032 12.6101 0
    endloop
  endfacet
  facet normal -0.809017 -0.587785 0
    outer loop
      vertex 1.37032 12.6101 0
      vertex 1.0037 13.1147 2.5
      vertex 1.0037 13.1147 0
    endloop
  endfacet
  facet normal -0.978148 -0.207912 0
    outer loop
      vertex 1.5 12 2.5
      vertex 1.37032 12.6101 2.5
      vertex 1.5 12 0
    endloop
  endfacet
  facet normal -0.978148 -0.207912 0
    outer loop
      vertex 1.5 12 0
      vertex 1.37032 12.6101 2.5
      vertex 1.37032 12.6101 0
    endloop
  endfacet
  facet normal -0.978148 0.207912 0
    outer loop
      vertex 1.5 12 2.5
      vertex 1.5 12 0
      vertex 1.37032 11.3899 2.5
    endloop
  endfacet
  facet normal -0.978148 0.207912 0
    outer loop
      vertex 1.37032 11.3899 2.5
      vertex 1.5 12 0
      vertex 1.37032 11.3899 0
    endloop
  endfacet
  facet normal -0.809017 0.587785 0
    outer loop
      vertex 1.37032 11.3899 2.5
      vertex 1.37032 11.3899 0
      vertex 1.0037 10.8853 2.5
    endloop
  endfacet
  facet normal -0.809017 0.587785 0
    outer loop
      vertex 1.0037 10.8853 2.5
      vertex 1.37032 11.3899 0
      vertex 1.0037 10.8853 0
    endloop
  endfacet
  facet normal -0.5 0.866025 0
    outer loop
      vertex 1.0037 10.8853 2.5
      vertex 1.0037 10.8853 0
      vertex 0.463525 10.5734 2.5
    endloop
  endfacet
  facet normal -0.5 0.866025 0
    outer loop
      vertex 0.463525 10.5734 2.5
      vertex 1.0037 10.8853 0
      vertex 0.463525 10.5734 0
    endloop
  endfacet
  facet normal -0.104528 0.994522 0
    outer loop
      vertex 0.463525 10.5734 2.5
      vertex 0.463525 10.5734 0
      vertex -0.156793 10.5082 2.5
    endloop
  endfacet
  facet normal -0.104528 0.994522 0
    outer loop
      vertex -0.156793 10.5082 2.5
      vertex 0.463525 10.5734 0
      vertex -0.156793 10.5082 0
    endloop
  endfacet
  facet normal 0.309018 0.951056 0
    outer loop
      vertex -0.156793 10.5082 2.5
      vertex -0.156793 10.5082 0
      vertex -0.75 10.701 2.5
    endloop
  endfacet
  facet normal 0.309018 0.951056 0
    outer loop
      vertex -0.75 10.701 2.5
      vertex -0.156793 10.5082 0
      vertex -0.75 10.701 0
    endloop
  endfacet
  facet normal 0.669131 0.743145 0
    outer loop
      vertex -0.75 10.701 2.5
      vertex -0.75 10.701 0
      vertex -1.21352 11.1183 2.5
    endloop
  endfacet
  facet normal 0.669131 0.743145 0
    outer loop
      vertex -1.21352 11.1183 2.5
      vertex -0.75 10.701 0
      vertex -1.21352 11.1183 0
    endloop
  endfacet
  facet normal 0.913545 0.406737 0
    outer loop
      vertex -1.46722 11.6881 2.5
      vertex -1.21352 11.1183 2.5
      vertex -1.21352 11.1183 0
    endloop
  endfacet
  facet normal 0.913545 0.406737 0
    outer loop
      vertex -1.46722 11.6881 0
      vertex -1.46722 11.6881 2.5
      vertex -1.21352 11.1183 0
    endloop
  endfacet
  facet normal 0.0620303 0.123747 0.990373
    outer loop
      vertex 0 18.4719 3.11323
      vertex 0 9.2032 4.27135
      vertex 3.09138 16.9223 3.11323
    endloop
  endfacet
  facet normal -0.516521 0.325674 0.791923
    outer loop
      vertex 3.09138 16.9223 3.11323
      vertex 0 9.2032 4.27135
      vertex 3.09138 8.40576 6.61561
    endloop
  endfacet
  facet normal -0.279855 0.734052 0.618748
    outer loop
      vertex 0 9.2032 4.27135
      vertex 0 7.22718 6.61561
      vertex 3.09138 8.40576 6.61561
    endloop
  endfacet
  facet normal -0.163267 0.428244 0.888792
    outer loop
      vertex 3.09138 8.40576 6.61561
      vertex 0 7.22718 6.61561
      vertex 2.01266 5.4454 7.84383
    endloop
  endfacet
  facet normal 0.919246 0.127813 0.372358
    outer loop
      vertex 3.02354 -2.67913 6.61561
      vertex 2.27035 -0.840288 7.84383
      vertex 3.31023 -8.31925 7.84383
    endloop
  endfacet
  facet normal 0.744583 0.177953 0.643373
    outer loop
      vertex 4.4235 -8.5368 6.61561
      vertex 3.02354 -2.67913 6.61561
      vertex 3.31023 -8.31925 7.84383
    endloop
  endfacet
  facet normal 0.278103 0.101353 0.955189
    outer loop
      vertex 6.48743 -4.85778 5.62432
      vertex 4.4235 -8.5368 6.61561
      vertex 6.69731 -8.78403 5.97982
    endloop
  endfacet
  facet normal 0.22481 -0.30893 0.924134
    outer loop
      vertex 4.4235 -8.5368 6.61561
      vertex 3.69037 -13.2916 5.20446
      vertex 6.69731 -8.78403 5.97982
    endloop
  endfacet
  facet normal 0.81074 -0.277918 0.51523
    outer loop
      vertex 4.4235 -8.5368 6.61561
      vertex 2.29027 -14.7598 6.61561
      vertex 3.69037 -13.2916 5.20446
    endloop
  endfacet
  facet normal 0.13833 -0.0474188 0.98925
    outer loop
      vertex 4.4235 -8.5368 6.61561
      vertex 1.72603 -11.6483 6.84365
      vertex 2.29027 -14.7598 6.61561
    endloop
  endfacet
  facet normal 0 0.0730947 0.997325
    outer loop
      vertex 4.4235 -8.5368 6.61561
      vertex 0 -8.5368 6.61561
      vertex 1.72603 -11.6483 6.84365
    endloop
  endfacet
  facet normal 0.318263 0.0760636 0.944946
    outer loop
      vertex 6.48743 -4.85778 5.62432
      vertex 3.02354 -2.67913 6.61561
      vertex 4.4235 -8.5368 6.61561
    endloop
  endfacet
  facet normal -0.130983 0 0.991385
    outer loop
      vertex 0 -8.5368 6.61561
      vertex 0 -14.7598 6.61561
      vertex 1.72603 -11.6483 6.84365
    endloop
  endfacet
  facet normal 0.130983 0 0.991385
    outer loop
      vertex 0 -8.5368 6.61561
      vertex -1.72603 -11.6483 6.84365
      vertex 0 -14.7598 6.61561
    endloop
  endfacet
  facet normal 0 -0.0730948 0.997325
    outer loop
      vertex 1.72603 -11.6483 6.84365
      vertex 0 -14.7598 6.61561
      vertex 2.29027 -14.7598 6.61561
    endloop
  endfacet
  facet normal 0 0.141862 0.989887
    outer loop
      vertex 2.29027 -14.7598 6.61561
      vertex 0 -14.7598 6.61561
      vertex 1.07911 -15.797 6.76424
    endloop
  endfacet
  facet normal -0.136454 0 0.990646
    outer loop
      vertex 0 -14.7598 6.61561
      vertex 0 -17.8714 6.61561
      vertex 1.07911 -15.797 6.76424
    endloop
  endfacet
  facet normal 0.136454 0 0.990646
    outer loop
      vertex 0 -14.7598 6.61561
      vertex -1.07911 -15.797 6.76424
      vertex 0 -17.8714 6.61561
    endloop
  endfacet
  facet normal 0.306925 -0.225915 0.924532
    outer loop
      vertex 1.07911 -15.797 6.76424
      vertex 0 -17.8714 6.61561
      vertex 2.29027 -14.7598 6.61561
    endloop
  endfacet
  facet normal 0 0 1
    outer loop
      vertex 2.29027 -14.7598 6.61561
      vertex 0 -17.8714 6.61561
      vertex 3.01344 -16.6268 6.61561
    endloop
  endfacet
  facet normal 0.359294 -0.869919 0.337859
    outer loop
      vertex 3.01344 -16.6268 6.61561
      vertex 0 -17.8714 6.61561
      vertex 3.63599 -17.8714 2.74894
    endloop
  endfacet
  facet normal 0.960272 0.270795 0.0674447
    outer loop
      vertex 3.63599 -17.8714 2.74894
      vertex 2.75855 -14.7598 2.74894
      vertex 3.01344 -16.6268 6.61561
    endloop
  endfacet
  facet normal 0.419919 0.0172153 0.907398
    outer loop
      vertex 5.1197 0.698181 6.49605
      vertex 2.01266 5.4454 7.84383
      vertex 2.27035 -0.840288 7.84383
    endloop
  endfacet
  facet normal -0.028144 0.391797 0.919621
    outer loop
      vertex 3.09138 8.40576 6.61561
      vertex 2.01266 5.4454 7.84383
      vertex 3.91499 6.7434 7.34905
    endloop
  endfacet
  facet normal 0.298493 -0.0747726 0.951478
    outer loop
      vertex 3.91499 6.7434 7.34905
      vertex 2.01266 5.4454 7.84383
      vertex 5.1197 0.698181 6.49605
    endloop
  endfacet
  facet normal 0.567517 -0.746194 0.348021
    outer loop
      vertex 5.1197 0.698181 6.49605
      vertex 2.27035 -0.840288 7.84383
      vertex 3.02354 -0.840288 6.61561
    endloop
  endfacet
  facet normal 0.852476 0 0.522767
    outer loop
      vertex 3.02354 -0.840288 6.61561
      vertex 2.27035 -0.840288 7.84383
      vertex 3.02354 -2.67913 6.61561
    endloop
  endfacet
  facet normal 0.142195 -0.0104721 -0.989783
    outer loop
      vertex 5.62728 -10.238 3.11323
      vertex 2.75855 -14.7598 2.74894
      vertex 3.64825 -2.67913 2.74894
    endloop
  endfacet
  facet normal 0.926595 0.358927 0.112217
    outer loop
      vertex 2.75855 -14.7598 2.74894
      vertex 2.29027 -14.7598 6.61561
      vertex 3.01344 -16.6268 6.61561
    endloop
  endfacet
  facet normal 0.76348 -0.639179 0.0924625
    outer loop
      vertex 3.69037 -13.2916 5.20446
      vertex 2.29027 -14.7598 6.61561
      vertex 2.75855 -14.7598 2.74894
    endloop
  endfacet
  facet normal 0.841722 -0.5399 0.00340887
    outer loop
      vertex 3.69037 -13.2916 5.20446
      vertex 2.75855 -14.7598 2.74894
      vertex 6.23948 -9.32001 4.79878
    endloop
  endfacet
  facet normal 0.844872 -0.53474 -0.0156336
    outer loop
      vertex 6.23948 -9.32001 4.79878
      vertex 2.75855 -14.7598 2.74894
      vertex 5.62728 -10.238 3.11323
    endloop
  endfacet
  facet normal 0.548357 0.831538 0.0885937
    outer loop
      vertex 3.64825 -2.67913 2.74894
      vertex 3.02354 -2.67913 6.61561
      vertex 6.48743 -4.85778 5.62432
    endloop
  endfacet
  facet normal 0.987199 0 0.159494
    outer loop
      vertex 3.02354 -0.840288 6.61561
      vertex 3.02354 -2.67913 6.61561
      vertex 3.64825 -2.67913 2.74894
    endloop
  endfacet
  facet normal 0.987199 0 0.159494
    outer loop
      vertex 3.64825 -0.840288 2.74894
      vertex 3.02354 -0.840288 6.61561
      vertex 3.64825 -2.67913 2.74894
    endloop
  endfacet
  facet normal 0.129986 -0.0137476 -0.99142
    outer loop
      vertex 5.62728 -10.238 3.11323
      vertex 3.64825 -2.67913 2.74894
      vertex 6.174 -5.06865 3.11323
    endloop
  endfacet
  facet normal 0.69092 0.708095 -0.145707
    outer loop
      vertex 6.174 -5.06865 3.11323
      vertex 3.64825 -2.67913 2.74894
      vertex 6.48743 -4.85778 5.62432
    endloop
  endfacet
  facet normal 0.675401 -0.729333 0.109119
    outer loop
      vertex 5.25071 0.698181 3.11323
      vertex 3.02354 -0.840288 6.61561
      vertex 3.64825 -0.840288 2.74894
    endloop
  endfacet
  facet normal 0 -0.987082 -0.160219
    outer loop
      vertex 6.38249 0.319443 5.44657
      vertex 5.25071 0.698181 3.11323
      vertex 6.32738 0.698181 3.11323
    endloop
  endfacet
  facet normal 0 0 -1
    outer loop
      vertex 4.28501 12.703 3.11323
      vertex 5.11185 8.04465 3.11323
      vertex 5.25071 0.698181 3.11323
    endloop
  endfacet
  facet normal 0 0 -1
    outer loop
      vertex 5.25071 0.698181 3.11323
      vertex 5.11185 8.04465 3.11323
      vertex 6.87844 7.05753 3.11323
    endloop
  endfacet
  facet normal 0 0 -1
    outer loop
      vertex 6.87844 7.05753 3.11323
      vertex 6.32738 0.698181 3.11323
      vertex 5.25071 0.698181 3.11323
    endloop
  endfacet
  facet normal 0 0 -1
    outer loop
      vertex 6.32738 0.698181 3.11323
      vertex 10.2569 0.698181 3.11323
      vertex 9.84305 -6.36744 3.11323
    endloop
  endfacet
  facet normal 0 0 -1
    outer loop
      vertex 6.174 -5.06865 3.11323
      vertex 7.43415 -10.238 3.11323
      vertex 5.62728 -10.238 3.11323
    endloop
  endfacet
  facet normal 0 0 -1
    outer loop
      vertex 6.87844 7.05753 3.11323
      vertex 10.2569 0.698181 3.11323
      vertex 6.32738 0.698181 3.11323
    endloop
  endfacet
  facet normal 0 0 -1
    outer loop
      vertex 6.32738 0.698181 3.11323
      vertex 9.84305 -6.36744 3.11323
      vertex 7.43415 -10.238 3.11323
    endloop
  endfacet
  facet normal 0 0 -1
    outer loop
      vertex 6.32738 0.698181 3.11323
      vertex 7.43415 -10.238 3.11323
      vertex 6.174 -5.06865 3.11323
    endloop
  endfacet
  facet normal 0.59238 -0.805332 0.0229417
    outer loop
      vertex 5.1197 0.698181 6.49605
      vertex 3.02354 -0.840288 6.61561
      vertex 5.25071 0.698181 3.11323
    endloop
  endfacet
  facet normal -0.295988 -0.955123 -0.011463
    outer loop
      vertex 6.38249 0.319443 5.44657
      vertex 5.1197 0.698181 6.49605
      vertex 5.25071 0.698181 3.11323
    endloop
  endfacet
  facet normal -0.0534721 0.315489 0.947422
    outer loop
      vertex 5.65825 8.03399 4.7455
      vertex 4.28501 12.703 3.11323
      vertex 5.11553 4.61501 5.85338
    endloop
  endfacet
  facet normal 0.890826 0.225171 0.394623
    outer loop
      vertex 4.28501 12.703 3.11323
      vertex 3.91499 6.7434 7.34905
      vertex 5.11553 4.61501 5.85338
    endloop
  endfacet
  facet normal 0.371116 0.52254 0.76761
    outer loop
      vertex 4.28501 12.703 3.11323
      vertex 3.09138 8.40576 6.61561
      vertex 3.91499 6.7434 7.34905
    endloop
  endfacet
  facet normal 0.80238 0.226991 0.551961
    outer loop
      vertex 3.09138 16.9223 3.11323
      vertex 3.09138 8.40576 6.61561
      vertex 4.28501 12.703 3.11323
    endloop
  endfacet
  facet normal 0.935443 0.166039 -0.312053
    outer loop
      vertex 5.11185 8.04465 3.11323
      vertex 4.28501 12.703 3.11323
      vertex 5.65825 8.03399 4.7455
    endloop
  endfacet
  facet normal 0 0 -1
    outer loop
      vertex -1.21352 0.881678 4.5
      vertex -0.75 1.29904 4.5
      vertex -1.46722 0.311868 4.5
    endloop
  endfacet
  facet normal 0 0 -1
    outer loop
      vertex -1.46722 0.311868 4.5
      vertex -0.75 1.29904 4.5
      vertex -0.156793 1.49178 4.5
    endloop
  endfacet
  facet normal 0 0 -1
    outer loop
      vertex -1.46722 0.311868 4.5
      vertex -0.156793 1.49178 4.5
      vertex 0.463525 1.42658 4.5
    endloop
  endfacet
  facet normal 0 0 -1
    outer loop
      vertex -1.46722 0.311868 4.5
      vertex 0.463525 1.42658 4.5
      vertex 1.0037 1.11472 4.5
    endloop
  endfacet
  facet normal 0 0 -1
    outer loop
      vertex -1.46722 0.311868 4.5
      vertex 1.0037 1.11472 4.5
      vertex 1.37032 0.610105 4.5
    endloop
  endfacet
  facet normal 0 0 -1
    outer loop
      vertex -1.46722 0.311868 4.5
      vertex 1.37032 0.610105 4.5
      vertex 1.5 0 4.5
    endloop
  endfacet
  facet normal 0 0 -1
    outer loop
      vertex -1.46722 0.311868 4.5
      vertex 1.5 0 4.5
      vertex 1.37032 -0.610105 4.5
    endloop
  endfacet
  facet normal 0 0 -1
    outer loop
      vertex -1.46722 0.311868 4.5
      vertex 1.37032 -0.610105 4.5
      vertex 1.0037 -1.11472 4.5
    endloop
  endfacet
  facet normal 0 0 -1
    outer loop
      vertex -1.46722 0.311868 4.5
      vertex 1.0037 -1.11472 4.5
      vertex 0.463525 -1.42658 4.5
    endloop
  endfacet
  facet normal 0 0 -1
    outer loop
      vertex -1.46722 0.311868 4.5
      vertex 0.463525 -1.42658 4.5
      vertex -0.156793 -1.49178 4.5
    endloop
  endfacet
  facet normal 0 0 -1
    outer loop
      vertex -1.46722 0.311868 4.5
      vertex -0.156793 -1.49178 4.5
      vertex -0.75 -1.29904 4.5
    endloop
  endfacet
  facet normal 0 0 -1
    outer loop
      vertex -1.46722 0.311868 4.5
      vertex -0.75 -1.29904 4.5
      vertex -1.21352 -0.881678 4.5
    endloop
  endfacet
  facet normal 0 0 -1
    outer loop
      vertex -1.46722 0.311868 4.5
      vertex -1.21352 -0.881678 4.5
      vertex -1.46722 -0.311868 4.5
    endloop
  endfacet
  facet normal 0 0 -1
    outer loop
      vertex -1.21352 12.8817 2.5
      vertex -0.75 13.299 2.5
      vertex -1.46722 12.3119 2.5
    endloop
  endfacet
  facet normal 0 0 -1
    outer loop
      vertex -1.46722 12.3119 2.5
      vertex -0.75 13.299 2.5
      vertex -0.156793 13.4918 2.5
    endloop
  endfacet
  facet normal 0 0 -1
    outer loop
      vertex -1.46722 12.3119 2.5
      vertex -0.156793 13.4918 2.5
      vertex 0.463525 13.4266 2.5
    endloop
  endfacet
  facet normal 0 0 -1
    outer loop
      vertex -1.46722 12.3119 2.5
      vertex 0.463525 13.4266 2.5
      vertex 1.0037 13.1147 2.5
    endloop
  endfacet
  facet normal 0 0 -1
    outer loop
      vertex -1.46722 12.3119 2.5
      vertex 1.0037 13.1147 2.5
      vertex 1.37032 12.6101 2.5
    endloop
  endfacet
  facet normal 0 0 -1
    outer loop
      vertex -1.46722 12.3119 2.5
      vertex 1.37032 12.6101 2.5
      vertex 1.5 12 2.5
    endloop
  endfacet
  facet normal 0 0 -1
    outer loop
      vertex -1.46722 12.3119 2.5
      vertex 1.5 12 2.5
      vertex 1.37032 11.3899 2.5
    endloop
  endfacet
  facet normal 0 0 -1
    outer loop
      vertex -1.46722 12.3119 2.5
      vertex 1.37032 11.3899 2.5
      vertex 1.0037 10.8853 2.5
    endloop
  endfacet
  facet normal 0 0 -1
    outer loop
      vertex -1.46722 12.3119 2.5
      vertex 1.0037 10.8853 2.5
      vertex 0.463525 10.5734 2.5
    endloop
  endfacet
  facet normal 0 0 -1
    outer loop
      vertex -1.46722 12.3119 2.5
      vertex 0.463525 10.5734 2.5
      vertex -0.156793 10.5082 2.5
    endloop
  endfacet
  facet normal 0 0 -1
    outer loop
      vertex -1.46722 12.3119 2.5
      vertex -0.156793 10.5082 2.5
      vertex -0.75 10.701 2.5
    endloop
  endfacet
  facet normal 0 0 -1
    outer loop
      vertex -1.46722 12.3119 2.5
      vertex -0.75 10.701 2.5
      vertex -1.21352 11.1183 2.5
    endloop
  endfacet
  facet normal 0 0 -1
    outer loop
      vertex -1.46722 12.3119 2.5
      vertex -1.21352 11.1183 2.5
      vertex -1.46722 11.6881 2.5
    endloop
  endfacet
  facet normal -0.9996 -0.0195598 0.0204359
    outer loop
      vertex 6.38249 0.319443 5.44657
      vertex 6.32738 0.698181 3.11323
      vertex 6.48743 -4.85778 5.62432
    endloop
  endfacet
  facet normal 0.385121 0.0394621 0.922022
    outer loop
      vertex 9.02345 -6.62449 4.64066
      vertex 6.38249 0.319443 5.44657
      vertex 6.48743 -4.85778 5.62432
    endloop
  endfacet
  facet normal 0.421866 0.104101 0.900662
    outer loop
      vertex 9.02345 -6.62449 4.64066
      vertex 6.48743 -4.85778 5.62432
      vertex 6.69731 -8.78403 5.97982
    endloop
  endfacet
  facet normal -0.992224 0.0263904 0.121634
    outer loop
      vertex 6.32738 0.698181 3.11323
      vertex 6.174 -5.06865 3.11323
      vertex 6.48743 -4.85778 5.62432
    endloop
  endfacet
  facet normal 0.696159 -0.71578 0.0549693
    outer loop
      vertex 6.69731 -8.78403 5.97982
      vertex 6.23948 -9.32001 4.79878
      vertex 9.02345 -6.62449 4.64066
    endloop
  endfacet
  facet normal 0.835482 -0.544103 -0.0769503
    outer loop
      vertex 6.69731 -8.78403 5.97982
      vertex 3.69037 -13.2916 5.20446
      vertex 6.23948 -9.32001 4.79878
    endloop
  endfacet
  facet normal 0.835234 0.0898994 0.542497
    outer loop
      vertex 5.11553 4.61501 5.85338
      vertex 3.91499 6.7434 7.34905
      vertex 5.1197 0.698181 6.49605
    endloop
  endfacet
  facet normal 0.655857 0.122904 0.744813
    outer loop
      vertex 6.38249 0.319443 5.44657
      vertex 5.11553 4.61501 5.85338
      vertex 5.1197 0.698181 6.49605
    endloop
  endfacet
  facet normal 0 -0.878204 0.478286
    outer loop
      vertex 6.23948 -9.32001 4.79878
      vertex 5.62728 -10.238 3.11323
      vertex 7.43415 -10.238 3.11323
    endloop
  endfacet
  facet normal 0 -0.878204 0.478286
    outer loop
      vertex 8.04635 -9.32001 4.79878
      vertex 6.23948 -9.32001 4.79878
      vertex 7.43415 -10.238 3.11323
    endloop
  endfacet
  facet normal 0 0.0585602 0.998284
    outer loop
      vertex 9.02345 -6.62449 4.64066
      vertex 6.23948 -9.32001 4.79878
      vertex 8.04635 -9.32001 4.79878
    endloop
  endfacet
  facet normal 0.672547 0.129356 0.728662
    outer loop
      vertex 5.65825 8.03399 4.7455
      vertex 5.11553 4.61501 5.85338
      vertex 6.38249 0.319443 5.44657
    endloop
  endfacet
  facet normal 0.109443 0.100145 0.988935
    outer loop
      vertex 7.22167 7.0264 4.67452
      vertex 5.65825 8.03399 4.7455
      vertex 6.38249 0.319443 5.44657
    endloop
  endfacet
  facet normal 0.415348 0.0525692 0.908142
    outer loop
      vertex 7.22167 7.0264 4.67452
      vertex 6.38249 0.319443 5.44657
      vertex 9.02345 -6.62449 4.64066
    endloop
  endfacet
  facet normal 0.926828 -0.344703 -0.148897
    outer loop
      vertex 8.04635 -9.32001 4.79878
      vertex 7.43415 -10.238 3.11323
      vertex 9.02345 -6.62449 4.64066
    endloop
  endfacet
  facet normal 0.797115 -0.496098 0.34423
    outer loop
      vertex 9.02345 -6.62449 4.64066
      vertex 7.43415 -10.238 3.11323
      vertex 9.84305 -6.36744 3.11323
    endloop
  endfacet
  facet normal 0.883583 -0.0517489 0.465407
    outer loop
      vertex 10.2569 0.698181 3.11323
      vertex 9.02345 -6.62449 4.64066
      vertex 9.84305 -6.36744 3.11323
    endloop
  endfacet
  facet normal 0.57331 0.0736471 0.816022
    outer loop
      vertex 10.2569 0.698181 3.11323
      vertex 7.22167 7.0264 4.67452
      vertex 9.02345 -6.62449 4.64066
    endloop
  endfacet
  facet normal 0.868412 0.461347 -0.181715
    outer loop
      vertex 10.2569 0.698181 3.11323
      vertex 6.87844 7.05753 3.11323
      vertex 7.22167 7.0264 4.67452
    endloop
  endfacet
  facet normal 0.535704 0.838337 -0.101057
    outer loop
      vertex 6.87844 7.05753 3.11323
      vertex 5.65825 8.03399 4.7455
      vertex 7.22167 7.0264 4.67452
    endloop
  endfacet
  facet normal 0.481844 0.862319 -0.155667
    outer loop
      vertex 6.87844 7.05753 3.11323
      vertex 5.11185 8.04465 3.11323
      vertex 5.65825 8.03399 4.7455
    endloop
  endfacet
endsolid OpenSCAD_Model
