solid OpenSCAD_Model
  facet normal -0.969347 -0.0701338 -0.235475
    outer loop
      vertex -15.3035 -4.29355 4
      vertex -16.0234 -6.70953 7.68311
      vertex -15.6568 0.590416 4
    endloop
  endfacet
  facet normal -0.982479 0.120897 0.141843
    outer loop
      vertex -15.6568 0.590416 4
      vertex -16.0234 -6.70953 7.68311
      vertex -14.52 6.68615 6.67839
    endloop
  endfacet
  facet normal 0 0.0747937 0.997199
    outer loop
      vertex -14.52 6.68615 6.67839
      vertex -16.0234 -6.70953 7.68311
      vertex -12.2223 -6.70953 7.68311
    endloop
  endfacet
  facet normal 0 -0.358036 0.933708
    outer loop
      vertex -12.2223 -6.70953 7.68311
      vertex -16.0234 -6.70953 7.68311
      vertex -13.8846 -10.6668 6.16567
    endloop
  endfacet
  facet normal 0 -0.358036 0.933708
    outer loop
      vertex -11.399 -10.6668 6.16567
      vertex -12.2223 -6.70953 7.68311
      vertex -13.8846 -10.6668 6.16567
    endloop
  endfacet
  facet normal -0.892724 -0.417148 -0.170385
    outer loop
      vertex -13.8846 -10.6668 6.16567
      vertex -16.0234 -6.70953 7.68311
      vertex -13.0424 -11.5846 4
    endloop
  endfacet
  facet normal -0.892545 -0.27679 -0.356021
    outer loop
      vertex -13.0424 -11.5846 4
      vertex -16.0234 -6.70953 7.68311
      vertex -15.3035 -4.29355 4
    endloop
  endfacet
  facet normal 0 0 -1
    outer loop
      vertex -15.6568 0.590416 4
      vertex -12.0621 9.53688 4
      vertex -15.3035 -4.29355 4
    endloop
  endfacet
  facet normal 0 0 -1
    outer loop
      vertex -15.3035 -4.29355 4
      vertex -12.0621 9.53688 4
      vertex -8.3634 14.2204 4
    endloop
  endfacet
  facet normal 0 0 -1
    outer loop
      vertex -8.3634 14.2204 4
      vertex -6.95622 18.8776 4
      vertex -9.23553 0.590416 4
    endloop
  endfacet
  facet normal 0 0 -1
    outer loop
      vertex -8.3634 14.2204 4
      vertex -9.23553 0.590416 4
      vertex -11.304 0.590416 4
    endloop
  endfacet
  facet normal 0 0 -1
    outer loop
      vertex -8.3634 14.2204 4
      vertex -11.304 0.590416 4
      vertex -15.3035 -4.29355 4
    endloop
  endfacet
  facet normal 0 0 -1
    outer loop
      vertex -15.3035 -4.29355 4
      vertex -11.5024 -4.29355 4
      vertex -10.5568 -11.5846 4
    endloop
  endfacet
  facet normal 0 0 -1
    outer loop
      vertex -15.3035 -4.29355 4
      vertex -10.5568 -11.5846 4
      vertex -13.0424 -11.5846 4
    endloop
  endfacet
  facet normal 0 0 -1
    outer loop
      vertex -11.5024 -4.29355 4
      vertex -15.3035 -4.29355 4
      vertex -11.304 0.590416 4
    endloop
  endfacet
  facet normal -0.844672 0.339397 -0.41393
    outer loop
      vertex -12.0621 9.53688 4
      vertex -15.6568 0.590416 4
      vertex -14.52 6.68615 6.67839
    endloop
  endfacet
  facet normal -0.019992 0.6937 0.719987
    outer loop
      vertex -12.0621 9.53688 4
      vertex -14.52 6.68615 6.67839
      vertex -11.2354 6.68615 6.76959
    endloop
  endfacet
  facet normal -0.0276883 0.0700414 0.99716
    outer loop
      vertex -11.2354 6.68615 6.76959
      vertex -14.52 6.68615 6.67839
      vertex -12.2223 -6.70953 7.68311
    endloop
  endfacet
  facet normal 0.986424 -0.0623064 0.151937
    outer loop
      vertex -11.2354 6.68615 6.76959
      vertex -12.2223 -6.70953 7.68311
      vertex -11.5024 -4.29355 4
    endloop
  endfacet
  facet normal -0.125728 0.840616 0.526836
    outer loop
      vertex -11.5024 -4.29355 4
      vertex -12.2223 -6.70953 7.68311
      vertex -7.14674 -6.46237 8.5
    endloop
  endfacet
  facet normal -0.12923 -0.377202 0.917071
    outer loop
      vertex -7.14674 -6.46237 8.5
      vertex -12.2223 -6.70953 7.68311
      vertex -6.13819 -11.216 6.6869
    endloop
  endfacet
  facet normal -0.130305 -0.378502 0.916383
    outer loop
      vertex -6.13819 -11.216 6.6869
      vertex -12.2223 -6.70953 7.68311
      vertex -11.399 -10.6668 6.16567
    endloop
  endfacet
  facet normal -0.132825 -0.918183 0.373226
    outer loop
      vertex -6.13819 -11.216 6.6869
      vertex -11.399 -10.6668 6.16567
      vertex -4.85633 -12.6838 3.53195
    endloop
  endfacet
  facet normal -0.151812 -0.929897 0.33503
    outer loop
      vertex -4.85633 -12.6838 3.53195
      vertex -11.399 -10.6668 6.16567
      vertex -10.5568 -11.5846 4
    endloop
  endfacet
  facet normal 0 -0.920737 0.390185
    outer loop
      vertex -11.399 -10.6668 6.16567
      vertex -13.8846 -10.6668 6.16567
      vertex -13.0424 -11.5846 4
    endloop
  endfacet
  facet normal 0 -0.920737 0.390185
    outer loop
      vertex -10.5568 -11.5846 4
      vertex -11.399 -10.6668 6.16567
      vertex -13.0424 -11.5846 4
    endloop
  endfacet
  facet normal -0.0838595 -0.0106067 -0.996421
    outer loop
      vertex -4.85633 -12.6838 3.53195
      vertex -10.5568 -11.5846 4
      vertex -6.08025 -3.00718 3.53195
    endloop
  endfacet
  facet normal -0.0834492 -0.0108226 -0.996453
    outer loop
      vertex -10.5568 -11.5846 4
      vertex -11.5024 -4.29355 4
      vertex -6.08025 -3.00718 3.53195
    endloop
  endfacet
  facet normal 0.997098 -0.0405013 0.0644649
    outer loop
      vertex -11.2354 6.68615 6.76959
      vertex -11.5024 -4.29355 4
      vertex -11.304 0.590416 4
    endloop
  endfacet
  facet normal -0.14923 0.826507 0.542785
    outer loop
      vertex -6.08025 -3.00718 3.53195
      vertex -11.5024 -4.29355 4
      vertex -7.14674 -6.46237 8.5
    endloop
  endfacet
  facet normal 0 -0.413655 0.910434
    outer loop
      vertex -11.2354 6.68615 6.76959
      vertex -11.304 0.590416 4
      vertex -9.23553 0.590416 4
    endloop
  endfacet
  facet normal -0.206748 -0.460134 0.863442
    outer loop
      vertex -8.09874 6.68615 7.52066
      vertex -11.2354 6.68615 6.76959
      vertex -9.23553 0.590416 4
    endloop
  endfacet
  facet normal -0.977014 0.0649297 0.203048
    outer loop
      vertex -8.09874 6.68615 7.52066
      vertex -9.23553 0.590416 4
      vertex -8.10447 0.590416 9.44236
    endloop
  endfacet
  facet normal -0.493424 -0.863723 0.102546
    outer loop
      vertex -8.10447 0.590416 9.44236
      vertex -9.23553 0.590416 4
      vertex -5.22087 -1.1688 8.5
    endloop
  endfacet
  facet normal -0.475973 -0.875597 0.0823348
    outer loop
      vertex -5.22087 -1.1688 8.5
      vertex -9.23553 0.590416 4
      vertex -6.08025 -1.1688 3.53195
    endloop
  endfacet
  facet normal -0.499487 -0.828539 -0.253054
    outer loop
      vertex -6.08025 -1.1688 3.53195
      vertex -9.23553 0.590416 4
      vertex -4.29086 -1.1688 0
    endloop
  endfacet
  facet normal -0.660946 -0.357467 -0.659824
    outer loop
      vertex -4.29086 -1.1688 0
      vertex -9.23553 0.590416 4
      vertex -7.25366 4.30934 0
    endloop
  endfacet
  facet normal -0.922936 0.0890198 -0.374519
    outer loop
      vertex -7.25366 4.30934 0
      vertex -9.23553 0.590416 4
      vertex -5.84851 18.8776 0
    endloop
  endfacet
  facet normal -0.956851 0.119261 -0.264978
    outer loop
      vertex -5.84851 18.8776 0
      vertex -9.23553 0.590416 4
      vertex -6.95622 18.8776 4
    endloop
  endfacet
  facet normal -0.846685 0.219343 0.484782
    outer loop
      vertex -6.95622 18.8776 4
      vertex -8.09874 6.68615 7.52066
      vertex -6.4472 8.814 9.44236
    endloop
  endfacet
  facet normal -0.787555 0.237962 0.568446
    outer loop
      vertex -6.95622 18.8776 4
      vertex -8.3634 14.2204 4
      vertex -8.09874 6.68615 7.52066
    endloop
  endfacet
  facet normal -0.922599 0.289023 -0.255493
    outer loop
      vertex -5.84851 18.8776 0
      vertex -6.95622 18.8776 4
      vertex -4.36265 23.6207 0
    endloop
  endfacet
  facet normal -0.918077 0.357377 -0.171508
    outer loop
      vertex -4.36265 23.6207 0
      vertex -6.95622 18.8776 4
      vertex -5.3142 23.0959 4
    endloop
  endfacet
  facet normal -0.768321 0.299082 0.56589
    outer loop
      vertex -5.3142 23.0959 4
      vertex -6.95622 18.8776 4
      vertex -5.3142 14.5815 8.5
    endloop
  endfacet
  facet normal -0.810979 0.246047 0.530823
    outer loop
      vertex -5.3142 14.5815 8.5
      vertex -6.95622 18.8776 4
      vertex -6.4472 8.814 9.44236
    endloop
  endfacet
  facet normal -0.21265 0.407523 0.888091
    outer loop
      vertex -8.3634 14.2204 4
      vertex -11.2354 6.68615 6.76959
      vertex -8.09874 6.68615 7.52066
    endloop
  endfacet
  facet normal -0.591454 0.467077 0.657283
    outer loop
      vertex -8.3634 14.2204 4
      vertex -12.0621 9.53688 4
      vertex -11.2354 6.68615 6.76959
    endloop
  endfacet
  facet normal -0.863675 0.481399 0.1494
    outer loop
      vertex -6.08025 -3.00718 3.53195
      vertex -7.14674 -6.46237 8.5
      vertex -5.22087 -3.00718 8.5
    endloop
  endfacet
  facet normal -0.688545 0.383784 0.615318
    outer loop
      vertex -5.22087 -3.00718 8.5
      vertex -7.14674 -6.46237 8.5
      vertex -5.61526 -6.24487 10.0781
    endloop
  endfacet
  facet normal 0 -0.990636 0.136532
    outer loop
      vertex -5.61526 -6.24487 10.0781
      vertex -7.14674 -6.46237 8.5
      vertex 0 -6.46237 8.5
    endloop
  endfacet
  facet normal 0 -0.990636 0.136532
    outer loop
      vertex 0 -6.24487 10.0781
      vertex -5.61526 -6.24487 10.0781
      vertex 7.14674 -6.46237 8.5
    endloop
  endfacet
  facet normal 0 -0.990636 0.136532
    outer loop
      vertex 7.14674 -6.46237 8.5
      vertex -5.61526 -6.24487 10.0781
      vertex 0 -6.46237 8.5
    endloop
  endfacet
  facet normal 0 -0.990636 0.136532
    outer loop
      vertex 5.61526 -6.24487 10.0781
      vertex 0 -6.24487 10.0781
      vertex 7.14674 -6.46237 8.5
    endloop
  endfacet
  facet normal 0 0.0937753 0.995593
    outer loop
      vertex 0 -6.46237 8.5
      vertex -7.14674 -6.46237 8.5
      vertex -3.43595 -9.57311 8.793
    endloop
  endfacet
  facet normal -0.12926 -0.0609704 0.989735
    outer loop
      vertex -3.43595 -9.57311 8.793
      vertex -7.14674 -6.46237 8.5
      vertex -4.21214 -12.6838 8.5
    endloop
  endfacet
  facet normal -0.770264 -0.363324 0.524107
    outer loop
      vertex -4.21214 -12.6838 8.5
      vertex -7.14674 -6.46237 8.5
      vertex -6.13819 -11.216 6.6869
    endloop
  endfacet
  facet normal -0.653181 -0.75245 0.0846957
    outer loop
      vertex -4.21214 -12.6838 8.5
      vertex -6.13819 -11.216 6.6869
      vertex -4.85633 -12.6838 3.53195
    endloop
  endfacet
  facet normal -0.876751 0.467316 0.113685
    outer loop
      vertex -4.85633 -12.6838 3.53195
      vertex -5.20697 -14.5503 8.5
      vertex -4.21214 -12.6838 8.5
    endloop
  endfacet
  facet normal -0.929992 0.360865 0.0699349
    outer loop
      vertex -4.85633 -12.6838 3.53195
      vertex -6.06339 -15.7946 3.53195
      vertex -5.20697 -14.5503 8.5
    endloop
  endfacet
  facet normal -0.881776 0.342156 -0.324653
    outer loop
      vertex -4.28018 -14.5503 0
      vertex -6.06339 -15.7946 3.53195
      vertex -4.85633 -12.6838 3.53195
    endloop
  endfacet
  facet normal -0.872942 0.357869 -0.331515
    outer loop
      vertex -4.28018 -14.5503 0
      vertex -4.85633 -12.6838 3.53195
      vertex -3.51501 -12.6838 0
    endloop
  endfacet
  facet normal -0.885322 -0.321189 -0.336217
    outer loop
      vertex -4.85633 -12.6838 3.53195
      vertex -5.77212 -6.46237 0
      vertex -3.51501 -12.6838 0
    endloop
  endfacet
  facet normal -0.991446 -0.1254 0.0361787
    outer loop
      vertex -4.85633 -12.6838 3.53195
      vertex -6.08025 -3.00718 3.53195
      vertex -5.77212 -6.46237 0
    endloop
  endfacet
  facet normal -0.8332 0.357197 -0.422124
    outer loop
      vertex -5.77212 -6.46237 0
      vertex -6.08025 -3.00718 3.53195
      vertex -4.29086 -3.00718 0
    endloop
  endfacet
  facet normal -0.892049 0 -0.451939
    outer loop
      vertex -6.08025 -3.00718 3.53195
      vertex -6.08025 -1.1688 3.53195
      vertex -4.29086 -3.00718 0
    endloop
  endfacet
  facet normal -0.892049 0 -0.451939
    outer loop
      vertex -4.29086 -3.00718 0
      vertex -6.08025 -1.1688 3.53195
      vertex -4.29086 -1.1688 0
    endloop
  endfacet
  facet normal -0.985366 0 0.170451
    outer loop
      vertex -6.08025 -3.00718 3.53195
      vertex -5.22087 -3.00718 8.5
      vertex -6.08025 -1.1688 3.53195
    endloop
  endfacet
  facet normal -0.985366 0 0.170451
    outer loop
      vertex -6.08025 -1.1688 3.53195
      vertex -5.22087 -3.00718 8.5
      vertex -5.22087 -1.1688 8.5
    endloop
  endfacet
  facet normal -0.831759 0.167621 0.529225
    outer loop
      vertex -8.09874 6.68615 7.52066
      vertex -8.10447 0.590416 9.44236
      vertex -6.4472 8.814 9.44236
    endloop
  endfacet
  facet normal -0.657985 0.132601 0.741265
    outer loop
      vertex -6.4472 8.814 9.44236
      vertex -8.10447 0.590416 9.44236
      vertex -6.32666 0.590416 11.0204
    endloop
  endfacet
  facet normal -0.370156 -0.830115 0.417006
    outer loop
      vertex -6.32666 0.590416 11.0204
      vertex -8.10447 0.590416 9.44236
      vertex -5.22087 -1.1688 8.5
    endloop
  endfacet
  facet normal -0.506782 -0.79527 0.332742
    outer loop
      vertex -4.18474 -1.1688 10.0781
      vertex -6.32666 0.590416 11.0204
      vertex -5.22087 -1.1688 8.5
    endloop
  endfacet
  facet normal -0.835922 0 0.548849
    outer loop
      vertex -5.22087 -3.00718 8.5
      vertex -4.18474 -3.00718 10.0781
      vertex -5.22087 -1.1688 8.5
    endloop
  endfacet
  facet normal -0.835922 0 0.548849
    outer loop
      vertex -5.22087 -1.1688 8.5
      vertex -4.18474 -3.00718 10.0781
      vertex -4.18474 -1.1688 10.0781
    endloop
  endfacet
  facet normal 0 0 -1
    outer loop
      vertex -7.25366 4.30934 0
      vertex -5.84851 18.8776 0
      vertex -4.29086 -1.1688 0
    endloop
  endfacet
  facet normal 0 0 -1
    outer loop
      vertex -4.29086 -1.1688 0
      vertex -5.84851 18.8776 0
      vertex -4.36265 23.6207 0
    endloop
  endfacet
  facet normal 0 0 -1
    outer loop
      vertex -1.46722 18.3119 0
      vertex -4.36265 23.6207 0
      vertex 0 23.6207 0
    endloop
  endfacet
  facet normal 0 0 -1
    outer loop
      vertex 1.0037 19.1147 0
      vertex 0 23.6207 0
      vertex 4.36265 23.6207 0
    endloop
  endfacet
  facet normal 0 0 -1
    outer loop
      vertex -4.29086 -1.1688 0
      vertex 4.36265 23.6207 0
      vertex 5.84851 18.8776 0
    endloop
  endfacet
  facet normal 0 0 -1
    outer loop
      vertex 0.463525 1.42658 0
      vertex 5.84851 18.8776 0
      vertex 7.25366 4.30934 0
    endloop
  endfacet
  facet normal 0 0 -1
    outer loop
      vertex 1.37032 -0.610105 0
      vertex 7.25366 4.30934 0
      vertex 4.29086 -1.1688 0
    endloop
  endfacet
  facet normal 0 0 -1
    outer loop
      vertex -0.156793 -1.49178 0
      vertex 4.29086 -1.1688 0
      vertex 4.29086 -3.00718 0
    endloop
  endfacet
  facet normal 0 0 -1
    outer loop
      vertex 4.29086 -3.00718 0
      vertex 5.77212 -6.46237 0
      vertex -4.29086 -1.1688 0
    endloop
  endfacet
  facet normal 0 0 -1
    outer loop
      vertex -4.29086 -1.1688 0
      vertex 5.77212 -6.46237 0
      vertex 3.51501 -12.6838 0
    endloop
  endfacet
  facet normal 0 0 -1
    outer loop
      vertex -4.29086 -1.1688 0
      vertex 3.51501 -12.6838 0
      vertex 4.28018 -14.5503 0
    endloop
  endfacet
  facet normal 0 0 -1
    outer loop
      vertex -4.29086 -1.1688 0
      vertex 4.28018 -14.5503 0
      vertex 0 -15.7946 0
    endloop
  endfacet
  facet normal 0 0 -1
    outer loop
      vertex -1.46722 -0.311868 0
      vertex -4.29086 -1.1688 0
      vertex -1.46722 0.311868 0
    endloop
  endfacet
  facet normal 0 0 -1
    outer loop
      vertex -4.29086 -3.00718 0
      vertex -3.51501 -12.6838 0
      vertex -5.77212 -6.46237 0
    endloop
  endfacet
  facet normal 0 0 -1
    outer loop
      vertex 0 -15.7946 0
      vertex -4.28018 -14.5503 0
      vertex -3.51501 -12.6838 0
    endloop
  endfacet
  facet normal 0 0 -1
    outer loop
      vertex -1.21352 18.8817 0
      vertex 0 23.6207 0
      vertex -0.75 19.299 0
    endloop
  endfacet
  facet normal 0 0 -1
    outer loop
      vertex -4.29086 -3.00718 0
      vertex 0 -15.7946 0
      vertex -3.51501 -12.6838 0
    endloop
  endfacet
  facet normal 0 0 -1
    outer loop
      vertex -4.29086 -1.1688 0
      vertex 0 -15.7946 0
      vertex -4.29086 -3.00718 0
    endloop
  endfacet
  facet normal 0 0 -1
    outer loop
      vertex -4.29086 -1.1688 0
      vertex 5.84851 18.8776 0
      vertex -1.46722 0.311868 0
    endloop
  endfacet
  facet normal 0 0 -1
    outer loop
      vertex 0.463525 1.42658 0
      vertex 7.25366 4.30934 0
      vertex 1.0037 1.11472 0
    endloop
  endfacet
  facet normal 0 0 -1
    outer loop
      vertex -4.29086 -1.1688 0
      vertex -1.46722 -0.311868 0
      vertex -1.21352 -0.881678 0
    endloop
  endfacet
  facet normal 0 0 -1
    outer loop
      vertex 1.0037 -1.11472 0
      vertex 4.29086 -1.1688 0
      vertex 0.463525 -1.42658 0
    endloop
  endfacet
  facet normal 0 0 -1
    outer loop
      vertex -4.29086 -1.1688 0
      vertex -0.75 -1.29904 0
      vertex 4.29086 -3.00718 0
    endloop
  endfacet
  facet normal 0 0 -1
    outer loop
      vertex 0.463525 -1.42658 0
      vertex 4.29086 -1.1688 0
      vertex -0.156793 -1.49178 0
    endloop
  endfacet
  facet normal 0 0 -1
    outer loop
      vertex -0.75 -1.29904 0
      vertex -0.156793 -1.49178 0
      vertex 4.29086 -3.00718 0
    endloop
  endfacet
  facet normal 0 0 -1
    outer loop
      vertex 1.5 0 0
      vertex 7.25366 4.30934 0
      vertex 1.37032 -0.610105 0
    endloop
  endfacet
  facet normal 0 0 -1
    outer loop
      vertex 1.0037 1.11472 0
      vertex 7.25366 4.30934 0
      vertex 1.37032 0.610105 0
    endloop
  endfacet
  facet normal 0 0 -1
    outer loop
      vertex 1.37032 0.610105 0
      vertex 7.25366 4.30934 0
      vertex 1.5 0 0
    endloop
  endfacet
  facet normal 0 0 -1
    outer loop
      vertex 1.37032 -0.610105 0
      vertex 4.29086 -1.1688 0
      vertex 1.0037 -1.11472 0
    endloop
  endfacet
  facet normal 0 0 -1
    outer loop
      vertex -0.75 -1.29904 0
      vertex -4.29086 -1.1688 0
      vertex -1.21352 -0.881678 0
    endloop
  endfacet
  facet normal 0 0 -1
    outer loop
      vertex -0.156793 1.49178 0
      vertex 5.84851 18.8776 0
      vertex 0.463525 1.42658 0
    endloop
  endfacet
  facet normal 0 0 -1
    outer loop
      vertex -0.75 16.701 0
      vertex -4.29086 -1.1688 0
      vertex -1.21352 17.1183 0
    endloop
  endfacet
  facet normal 0 0 -1
    outer loop
      vertex -0.75 1.29904 0
      vertex 5.84851 18.8776 0
      vertex -0.156793 1.49178 0
    endloop
  endfacet
  facet normal 0 0 -1
    outer loop
      vertex -1.21352 0.881678 0
      vertex 5.84851 18.8776 0
      vertex -0.75 1.29904 0
    endloop
  endfacet
  facet normal 0 0 -1
    outer loop
      vertex -1.46722 0.311868 0
      vertex 5.84851 18.8776 0
      vertex -1.21352 0.881678 0
    endloop
  endfacet
  facet normal 0 0 -1
    outer loop
      vertex -4.29086 -1.1688 0
      vertex -4.36265 23.6207 0
      vertex -1.46722 18.3119 0
    endloop
  endfacet
  facet normal 0 0 -1
    outer loop
      vertex -1.21352 18.8817 0
      vertex -1.46722 18.3119 0
      vertex 0 23.6207 0
    endloop
  endfacet
  facet normal 0 0 -1
    outer loop
      vertex -4.29086 -1.1688 0
      vertex -1.46722 18.3119 0
      vertex -1.46722 17.6881 0
    endloop
  endfacet
  facet normal 0 0 -1
    outer loop
      vertex -4.29086 -1.1688 0
      vertex -1.46722 17.6881 0
      vertex -1.21352 17.1183 0
    endloop
  endfacet
  facet normal 0 0 -1
    outer loop
      vertex 1.5 18 0
      vertex 4.36265 23.6207 0
      vertex 1.37032 17.3899 0
    endloop
  endfacet
  facet normal 0 0 -1
    outer loop
      vertex -4.29086 -1.1688 0
      vertex -0.75 16.701 0
      vertex -0.156793 16.5082 0
    endloop
  endfacet
  facet normal 0 0 -1
    outer loop
      vertex -4.29086 -1.1688 0
      vertex -0.156793 16.5082 0
      vertex 0.463525 16.5734 0
    endloop
  endfacet
  facet normal 0 0 -1
    outer loop
      vertex -4.29086 -1.1688 0
      vertex 0.463525 16.5734 0
      vertex 1.0037 16.8853 0
    endloop
  endfacet
  facet normal 0 0 -1
    outer loop
      vertex -4.29086 -1.1688 0
      vertex 1.0037 16.8853 0
      vertex 1.37032 17.3899 0
    endloop
  endfacet
  facet normal 0 0 -1
    outer loop
      vertex -4.29086 -1.1688 0
      vertex 1.37032 17.3899 0
      vertex 4.36265 23.6207 0
    endloop
  endfacet
  facet normal 0 0 -1
    outer loop
      vertex 1.37032 18.6101 0
      vertex 4.36265 23.6207 0
      vertex 1.5 18 0
    endloop
  endfacet
  facet normal 0 0 -1
    outer loop
      vertex 1.0037 19.1147 0
      vertex 4.36265 23.6207 0
      vertex 1.37032 18.6101 0
    endloop
  endfacet
  facet normal 0 0 -1
    outer loop
      vertex 0.463525 19.4266 0
      vertex 0 23.6207 0
      vertex 1.0037 19.1147 0
    endloop
  endfacet
  facet normal 0 0 -1
    outer loop
      vertex -0.75 19.299 0
      vertex 0 23.6207 0
      vertex -0.156793 19.4918 0
    endloop
  endfacet
  facet normal 0 0 -1
    outer loop
      vertex -0.156793 19.4918 0
      vertex 0 23.6207 0
      vertex 0.463525 19.4266 0
    endloop
  endfacet
  facet normal -0.352495 0.217947 0.910081
    outer loop
      vertex -5.3142 14.5815 8.5
      vertex -6.4472 8.814 9.44236
      vertex -3.06981 11.6218 10.0781
    endloop
  endfacet
  facet normal -0.51697 0.45812 0.723096
    outer loop
      vertex -3.06981 11.6218 10.0781
      vertex -6.4472 8.814 9.44236
      vertex -5.09565 8.814 10.4086
    endloop
  endfacet
  facet normal -0.575358 0.145998 0.804766
    outer loop
      vertex -5.09565 8.814 10.4086
      vertex -6.4472 8.814 9.44236
      vertex -6.32666 0.590416 11.0204
    endloop
  endfacet
  facet normal 4.44105e-07 0.968737 -0.24809
    outer loop
      vertex 0 23.6207 0
      vertex -4.36265 23.6207 0
      vertex 0 24.6451 4
    endloop
  endfacet
  facet normal -0.279383 0.958348 0.0592831
    outer loop
      vertex -4.36265 23.6207 0
      vertex -5.3142 23.0959 4
      vertex 0 24.6451 4
    endloop
  endfacet
  facet normal -0.0461718 0.15838 0.986298
    outer loop
      vertex 0 24.6451 4
      vertex -5.3142 23.0959 4
      vertex 0 15.3787 5.488
    endloop
  endfacet
  facet normal 0.395804 0.42911 0.811914
    outer loop
      vertex -5.3142 23.0959 4
      vertex -5.3142 14.5815 8.5
      vertex 0 15.3787 5.488
    endloop
  endfacet
  facet normal 0.182296 0.822176 0.539254
    outer loop
      vertex 0 15.3787 5.488
      vertex -5.3142 14.5815 8.5
      vertex 0 13.4032 8.5
    endloop
  endfacet
  facet normal 0.118803 0.535815 0.835935
    outer loop
      vertex 0 13.4032 8.5
      vertex -5.3142 14.5815 8.5
      vertex -3.06981 11.6218 10.0781
    endloop
  endfacet
  facet normal -0.784148 0.346463 0.514855
    outer loop
      vertex -5.22087 -3.00718 8.5
      vertex -5.61526 -6.24487 10.0781
      vertex -4.18474 -3.00718 10.0781
    endloop
  endfacet
  facet normal 0 -0.208872 0.977943
    outer loop
      vertex -3.66415 -5.16564 10.3086
      vertex -5.61526 -6.24487 10.0781
      vertex 0 -6.24487 10.0781
    endloop
  endfacet
  facet normal -0.154117 0.0680941 0.985703
    outer loop
      vertex -4.18474 -3.00718 10.0781
      vertex -5.61526 -6.24487 10.0781
      vertex -3.66415 -5.16564 10.3086
    endloop
  endfacet
  facet normal 0 -0.208872 0.977943
    outer loop
      vertex 3.66415 -5.16564 10.3086
      vertex 0 -6.24487 10.0781
      vertex 5.61526 -6.24487 10.0781
    endloop
  endfacet
  facet normal 0.100207 0.129518 0.986501
    outer loop
      vertex 0 -6.24487 10.0781
      vertex -4.18474 -3.00718 10.0781
      vertex -3.66415 -5.16564 10.3086
    endloop
  endfacet
  facet normal -0.12588 -0.162701 0.978613
    outer loop
      vertex 0 2.56457 11.5427
      vertex -4.18474 -3.00718 10.0781
      vertex 0 -6.24487 10.0781
    endloop
  endfacet
  facet normal 0.12588 -0.162701 0.978613
    outer loop
      vertex 0 2.56457 11.5427
      vertex 0 -6.24487 10.0781
      vertex 4.18474 -3.00718 10.0781
    endloop
  endfacet
  facet normal -0.100207 0.129518 0.986501
    outer loop
      vertex 4.18474 -3.00718 10.0781
      vertex 0 -6.24487 10.0781
      vertex 3.66415 -5.16564 10.3086
    endloop
  endfacet
  facet normal 0.154117 0.0680941 0.985703
    outer loop
      vertex 4.18474 -3.00718 10.0781
      vertex 3.66415 -5.16564 10.3086
      vertex 5.61526 -6.24487 10.0781
    endloop
  endfacet
  facet normal 0.784148 0.346463 0.514855
    outer loop
      vertex 5.22087 -3.00718 8.5
      vertex 4.18474 -3.00718 10.0781
      vertex 5.61526 -6.24487 10.0781
    endloop
  endfacet
  facet normal 0.688545 0.383784 0.615318
    outer loop
      vertex 7.14674 -6.46237 8.5
      vertex 5.22087 -3.00718 8.5
      vertex 5.61526 -6.24487 10.0781
    endloop
  endfacet
  facet normal 0.125728 0.840616 0.526836
    outer loop
      vertex 11.5024 -4.29355 4
      vertex 7.14674 -6.46237 8.5
      vertex 12.2223 -6.70953 7.68311
    endloop
  endfacet
  facet normal 0.12923 -0.377202 0.917071
    outer loop
      vertex 7.14674 -6.46237 8.5
      vertex 6.13819 -11.216 6.6869
      vertex 12.2223 -6.70953 7.68311
    endloop
  endfacet
  facet normal 0.770264 -0.363324 0.524107
    outer loop
      vertex 7.14674 -6.46237 8.5
      vertex 4.21214 -12.6838 8.5
      vertex 6.13819 -11.216 6.6869
    endloop
  endfacet
  facet normal 0.12926 -0.0609704 0.989735
    outer loop
      vertex 7.14674 -6.46237 8.5
      vertex 3.43595 -9.57311 8.793
      vertex 4.21214 -12.6838 8.5
    endloop
  endfacet
  facet normal 0 0.0937753 0.995593
    outer loop
      vertex 7.14674 -6.46237 8.5
      vertex 0 -6.46237 8.5
      vertex 3.43595 -9.57311 8.793
    endloop
  endfacet
  facet normal 0.863675 0.481399 0.1494
    outer loop
      vertex 6.08025 -3.00718 3.53195
      vertex 5.22087 -3.00718 8.5
      vertex 7.14674 -6.46237 8.5
    endloop
  endfacet
  facet normal 0.14923 0.826507 0.542785
    outer loop
      vertex 11.5024 -4.29355 4
      vertex 6.08025 -3.00718 3.53195
      vertex 7.14674 -6.46237 8.5
    endloop
  endfacet
  facet normal -0.0849671 0 0.996384
    outer loop
      vertex 0 -6.46237 8.5
      vertex 0 -12.6838 8.5
      vertex 3.43595 -9.57311 8.793
    endloop
  endfacet
  facet normal 0.0849671 0 0.996384
    outer loop
      vertex 0 -6.46237 8.5
      vertex -3.43595 -9.57311 8.793
      vertex 0 -12.6838 8.5
    endloop
  endfacet
  facet normal 0 -0.0937754 0.995593
    outer loop
      vertex -3.43595 -9.57311 8.793
      vertex -4.21214 -12.6838 8.5
      vertex 0 -12.6838 8.5
    endloop
  endfacet
  facet normal 0 0.181131 0.983459
    outer loop
      vertex 0 -12.6838 8.5
      vertex -4.21214 -12.6838 8.5
      vertex -2.19902 -13.7208 8.69098
    endloop
  endfacet
  facet normal -0.277299 -0.37548 0.884376
    outer loop
      vertex -2.19902 -13.7208 8.69098
      vertex -4.21214 -12.6838 8.5
      vertex 0 -15.7946 8.5
    endloop
  endfacet
  facet normal 0 0 1
    outer loop
      vertex -4.21214 -12.6838 8.5
      vertex -5.20697 -14.5503 8.5
      vertex 0 -15.7946 8.5
    endloop
  endfacet
  facet normal -0.223601 -0.935697 0.2729
    outer loop
      vertex -5.20697 -14.5503 8.5
      vertex -6.06339 -15.7946 3.53195
      vertex 0 -15.7946 8.5
    endloop
  endfacet
  facet normal 0 -1 0
    outer loop
      vertex 0 -15.7946 8.5
      vertex -6.06339 -15.7946 3.53195
      vertex 0 -15.7946 0
    endloop
  endfacet
  facet normal 0 -1 0
    outer loop
      vertex 6.06339 -15.7946 3.53195
      vertex 0 -15.7946 8.5
      vertex 0 -15.7946 0
    endloop
  endfacet
  facet normal -0.25174 -0.865943 -0.432169
    outer loop
      vertex 0 -15.7946 0
      vertex -6.06339 -15.7946 3.53195
      vertex -4.28018 -14.5503 0
    endloop
  endfacet
  facet normal 0.075414 0.0627478 0.995176
    outer loop
      vertex -5.09565 8.814 10.4086
      vertex -6.32666 0.590416 11.0204
      vertex -3.06981 11.6218 10.0781
    endloop
  endfacet
  facet normal 0.379593 -0.0330883 0.924562
    outer loop
      vertex -3.06981 11.6218 10.0781
      vertex -6.32666 0.590416 11.0204
      vertex -4.18474 -1.1688 10.0781
    endloop
  endfacet
  facet normal -0.354643 0.0309135 0.93449
    outer loop
      vertex -3.06981 11.6218 10.0781
      vertex -4.18474 -1.1688 10.0781
      vertex 0 2.56457 11.5427
    endloop
  endfacet
  facet normal -0.330344 0 0.943861
    outer loop
      vertex -4.18474 -1.1688 10.0781
      vertex -4.18474 -3.00718 10.0781
      vertex 0 2.56457 11.5427
    endloop
  endfacet
  facet normal 0.25174 -0.865943 -0.432169
    outer loop
      vertex 6.06339 -15.7946 3.53195
      vertex 0 -15.7946 0
      vertex 4.28018 -14.5503 0
    endloop
  endfacet
  facet normal 0.872942 0.357869 -0.331515
    outer loop
      vertex 4.28018 -14.5503 0
      vertex 3.51501 -12.6838 0
      vertex 4.85633 -12.6838 3.53195
    endloop
  endfacet
  facet normal 0.881776 0.342156 -0.324653
    outer loop
      vertex 6.06339 -15.7946 3.53195
      vertex 4.28018 -14.5503 0
      vertex 4.85633 -12.6838 3.53195
    endloop
  endfacet
  facet normal 0.885322 -0.321189 -0.336217
    outer loop
      vertex 4.85633 -12.6838 3.53195
      vertex 3.51501 -12.6838 0
      vertex 5.77212 -6.46237 0
    endloop
  endfacet
  facet normal 0.991446 -0.1254 0.0361787
    outer loop
      vertex 6.08025 -3.00718 3.53195
      vertex 4.85633 -12.6838 3.53195
      vertex 5.77212 -6.46237 0
    endloop
  endfacet
  facet normal 0.8332 0.357197 -0.422124
    outer loop
      vertex 5.77212 -6.46237 0
      vertex 4.29086 -3.00718 0
      vertex 6.08025 -3.00718 3.53195
    endloop
  endfacet
  facet normal 0.892049 0 -0.451939
    outer loop
      vertex 6.08025 -3.00718 3.53195
      vertex 4.29086 -3.00718 0
      vertex 4.29086 -1.1688 0
    endloop
  endfacet
  facet normal 0.892049 0 -0.451939
    outer loop
      vertex 6.08025 -1.1688 3.53195
      vertex 6.08025 -3.00718 3.53195
      vertex 4.29086 -1.1688 0
    endloop
  endfacet
  facet normal 0.499487 -0.828539 -0.253054
    outer loop
      vertex 6.08025 -1.1688 3.53195
      vertex 4.29086 -1.1688 0
      vertex 9.23553 0.590416 4
    endloop
  endfacet
  facet normal 0.660946 -0.357467 -0.659824
    outer loop
      vertex 9.23553 0.590416 4
      vertex 4.29086 -1.1688 0
      vertex 7.25366 4.30934 0
    endloop
  endfacet
  facet normal 0.922936 0.0890198 -0.374519
    outer loop
      vertex 7.25366 4.30934 0
      vertex 5.84851 18.8776 0
      vertex 9.23553 0.590416 4
    endloop
  endfacet
  facet normal 0.956851 0.119261 -0.264978
    outer loop
      vertex 9.23553 0.590416 4
      vertex 5.84851 18.8776 0
      vertex 6.95622 18.8776 4
    endloop
  endfacet
  facet normal 0.922599 0.289023 -0.255493
    outer loop
      vertex 5.84851 18.8776 0
      vertex 4.36265 23.6207 0
      vertex 6.95622 18.8776 4
    endloop
  endfacet
  facet normal 0.918077 0.357377 -0.171508
    outer loop
      vertex 6.95622 18.8776 4
      vertex 4.36265 23.6207 0
      vertex 5.3142 23.0959 4
    endloop
  endfacet
  facet normal 0.279383 0.958348 0.0592831
    outer loop
      vertex 4.36265 23.6207 0
      vertex 0 24.6451 4
      vertex 5.3142 23.0959 4
    endloop
  endfacet
  facet normal -4.44105e-07 0.968737 -0.24809
    outer loop
      vertex 4.36265 23.6207 0
      vertex 0 23.6207 0
      vertex 0 24.6451 4
    endloop
  endfacet
  facet normal 0.913545 -0.406737 0
    outer loop
      vertex -1.21352 0.881678 0
      vertex -1.21352 0.881678 5
      vertex -1.46722 0.311868 5
    endloop
  endfacet
  facet normal 0.913545 -0.406737 0
    outer loop
      vertex -1.46722 0.311868 0
      vertex -1.21352 0.881678 0
      vertex -1.46722 0.311868 5
    endloop
  endfacet
  facet normal 1 0 0
    outer loop
      vertex -1.46722 0.311868 0
      vertex -1.46722 0.311868 5
      vertex -1.46722 -0.311868 5
    endloop
  endfacet
  facet normal 1 0 0
    outer loop
      vertex -1.46722 -0.311868 0
      vertex -1.46722 0.311868 0
      vertex -1.46722 -0.311868 5
    endloop
  endfacet
  facet normal 0.669131 -0.743145 0
    outer loop
      vertex -0.75 1.29904 0
      vertex -0.75 1.29904 5
      vertex -1.21352 0.881678 5
    endloop
  endfacet
  facet normal 0.669131 -0.743145 0
    outer loop
      vertex -1.21352 0.881678 0
      vertex -0.75 1.29904 0
      vertex -1.21352 0.881678 5
    endloop
  endfacet
  facet normal 0.309018 -0.951056 0
    outer loop
      vertex -0.156793 1.49178 0
      vertex -0.156793 1.49178 5
      vertex -0.75 1.29904 5
    endloop
  endfacet
  facet normal 0.309018 -0.951056 0
    outer loop
      vertex -0.75 1.29904 0
      vertex -0.156793 1.49178 0
      vertex -0.75 1.29904 5
    endloop
  endfacet
  facet normal -0.104528 -0.994522 0
    outer loop
      vertex 0.463525 1.42658 0
      vertex 0.463525 1.42658 5
      vertex -0.156793 1.49178 5
    endloop
  endfacet
  facet normal -0.104528 -0.994522 0
    outer loop
      vertex -0.156793 1.49178 0
      vertex 0.463525 1.42658 0
      vertex -0.156793 1.49178 5
    endloop
  endfacet
  facet normal -0.5 -0.866025 0
    outer loop
      vertex 1.0037 1.11472 0
      vertex 1.0037 1.11472 5
      vertex 0.463525 1.42658 5
    endloop
  endfacet
  facet normal -0.5 -0.866025 0
    outer loop
      vertex 0.463525 1.42658 0
      vertex 1.0037 1.11472 0
      vertex 0.463525 1.42658 5
    endloop
  endfacet
  facet normal -0.809017 -0.587785 0
    outer loop
      vertex 1.37032 0.610105 5
      vertex 1.0037 1.11472 5
      vertex 1.37032 0.610105 0
    endloop
  endfacet
  facet normal -0.809017 -0.587785 0
    outer loop
      vertex 1.37032 0.610105 0
      vertex 1.0037 1.11472 5
      vertex 1.0037 1.11472 0
    endloop
  endfacet
  facet normal -0.978148 -0.207912 0
    outer loop
      vertex 1.5 0 5
      vertex 1.37032 0.610105 5
      vertex 1.5 0 0
    endloop
  endfacet
  facet normal -0.978148 -0.207912 0
    outer loop
      vertex 1.5 0 0
      vertex 1.37032 0.610105 5
      vertex 1.37032 0.610105 0
    endloop
  endfacet
  facet normal -0.978148 0.207912 0
    outer loop
      vertex 1.5 0 5
      vertex 1.5 0 0
      vertex 1.37032 -0.610105 5
    endloop
  endfacet
  facet normal -0.978148 0.207912 0
    outer loop
      vertex 1.37032 -0.610105 5
      vertex 1.5 0 0
      vertex 1.37032 -0.610105 0
    endloop
  endfacet
  facet normal -0.809017 0.587785 0
    outer loop
      vertex 1.37032 -0.610105 5
      vertex 1.37032 -0.610105 0
      vertex 1.0037 -1.11472 5
    endloop
  endfacet
  facet normal -0.809017 0.587785 0
    outer loop
      vertex 1.0037 -1.11472 5
      vertex 1.37032 -0.610105 0
      vertex 1.0037 -1.11472 0
    endloop
  endfacet
  facet normal -0.5 0.866025 0
    outer loop
      vertex 1.0037 -1.11472 5
      vertex 1.0037 -1.11472 0
      vertex 0.463525 -1.42658 5
    endloop
  endfacet
  facet normal -0.5 0.866025 0
    outer loop
      vertex 0.463525 -1.42658 5
      vertex 1.0037 -1.11472 0
      vertex 0.463525 -1.42658 0
    endloop
  endfacet
  facet normal -0.104528 0.994522 0
    outer loop
      vertex 0.463525 -1.42658 5
      vertex 0.463525 -1.42658 0
      vertex -0.156793 -1.49178 5
    endloop
  endfacet
  facet normal -0.104528 0.994522 0
    outer loop
      vertex -0.156793 -1.49178 5
      vertex 0.463525 -1.42658 0
      vertex -0.156793 -1.49178 0
    endloop
  endfacet
  facet normal 0.309018 0.951056 0
    outer loop
      vertex -0.156793 -1.49178 5
      vertex -0.156793 -1.49178 0
      vertex -0.75 -1.29904 5
    endloop
  endfacet
  facet normal 0.309018 0.951056 0
    outer loop
      vertex -0.75 -1.29904 5
      vertex -0.156793 -1.49178 0
      vertex -0.75 -1.29904 0
    endloop
  endfacet
  facet normal 0.669131 0.743145 0
    outer loop
      vertex -0.75 -1.29904 5
      vertex -0.75 -1.29904 0
      vertex -1.21352 -0.881678 5
    endloop
  endfacet
  facet normal 0.669131 0.743145 0
    outer loop
      vertex -1.21352 -0.881678 5
      vertex -0.75 -1.29904 0
      vertex -1.21352 -0.881678 0
    endloop
  endfacet
  facet normal 0.913545 0.406737 0
    outer loop
      vertex -1.46722 -0.311868 5
      vertex -1.21352 -0.881678 5
      vertex -1.21352 -0.881678 0
    endloop
  endfacet
  facet normal 0.913545 0.406737 0
    outer loop
      vertex -1.46722 -0.311868 0
      vertex -1.46722 -0.311868 5
      vertex -1.21352 -0.881678 0
    endloop
  endfacet
  facet normal 0.913545 -0.406737 0
    outer loop
      vertex -1.21352 18.8817 0
      vertex -1.21352 18.8817 3.5
      vertex -1.46722 18.3119 3.5
    endloop
  endfacet
  facet normal 0.913545 -0.406737 0
    outer loop
      vertex -1.46722 18.3119 0
      vertex -1.21352 18.8817 0
      vertex -1.46722 18.3119 3.5
    endloop
  endfacet
  facet normal 1 0 0
    outer loop
      vertex -1.46722 18.3119 0
      vertex -1.46722 18.3119 3.5
      vertex -1.46722 17.6881 3.5
    endloop
  endfacet
  facet normal 1 0 0
    outer loop
      vertex -1.46722 17.6881 0
      vertex -1.46722 18.3119 0
      vertex -1.46722 17.6881 3.5
    endloop
  endfacet
  facet normal 0.669131 -0.743145 0
    outer loop
      vertex -0.75 19.299 0
      vertex -0.75 19.299 3.5
      vertex -1.21352 18.8817 3.5
    endloop
  endfacet
  facet normal 0.669131 -0.743145 0
    outer loop
      vertex -1.21352 18.8817 0
      vertex -0.75 19.299 0
      vertex -1.21352 18.8817 3.5
    endloop
  endfacet
  facet normal 0.309018 -0.951056 0
    outer loop
      vertex -0.156793 19.4918 0
      vertex -0.156793 19.4918 3.5
      vertex -0.75 19.299 3.5
    endloop
  endfacet
  facet normal 0.309018 -0.951056 0
    outer loop
      vertex -0.75 19.299 0
      vertex -0.156793 19.4918 0
      vertex -0.75 19.299 3.5
    endloop
  endfacet
  facet normal -0.104528 -0.994522 0
    outer loop
      vertex 0.463525 19.4266 0
      vertex 0.463525 19.4266 3.5
      vertex -0.156793 19.4918 3.5
    endloop
  endfacet
  facet normal -0.104528 -0.994522 0
    outer loop
      vertex -0.156793 19.4918 0
      vertex 0.463525 19.4266 0
      vertex -0.156793 19.4918 3.5
    endloop
  endfacet
  facet normal -0.5 -0.866025 0
    outer loop
      vertex 1.0037 19.1147 0
      vertex 1.0037 19.1147 3.5
      vertex 0.463525 19.4266 3.5
    endloop
  endfacet
  facet normal -0.5 -0.866025 0
    outer loop
      vertex 0.463525 19.4266 0
      vertex 1.0037 19.1147 0
      vertex 0.463525 19.4266 3.5
    endloop
  endfacet
  facet normal -0.809017 -0.587785 0
    outer loop
      vertex 1.37032 18.6101 3.5
      vertex 1.0037 19.1147 3.5
      vertex 1.37032 18.6101 0
    endloop
  endfacet
  facet normal -0.809017 -0.587785 0
    outer loop
      vertex 1.37032 18.6101 0
      vertex 1.0037 19.1147 3.5
      vertex 1.0037 19.1147 0
    endloop
  endfacet
  facet normal -0.978148 -0.207912 0
    outer loop
      vertex 1.5 18 3.5
      vertex 1.37032 18.6101 3.5
      vertex 1.5 18 0
    endloop
  endfacet
  facet normal -0.978148 -0.207912 0
    outer loop
      vertex 1.5 18 0
      vertex 1.37032 18.6101 3.5
      vertex 1.37032 18.6101 0
    endloop
  endfacet
  facet normal -0.978148 0.207912 0
    outer loop
      vertex 1.5 18 3.5
      vertex 1.5 18 0
      vertex 1.37032 17.3899 3.5
    endloop
  endfacet
  facet normal -0.978148 0.207912 0
    outer loop
      vertex 1.37032 17.3899 3.5
      vertex 1.5 18 0
      vertex 1.37032 17.3899 0
    endloop
  endfacet
  facet normal -0.809017 0.587785 0
    outer loop
      vertex 1.37032 17.3899 3.5
      vertex 1.37032 17.3899 0
      vertex 1.0037 16.8853 3.5
    endloop
  endfacet
  facet normal -0.809017 0.587785 0
    outer loop
      vertex 1.0037 16.8853 3.5
      vertex 1.37032 17.3899 0
      vertex 1.0037 16.8853 0
    endloop
  endfacet
  facet normal -0.5 0.866025 0
    outer loop
      vertex 1.0037 16.8853 3.5
      vertex 1.0037 16.8853 0
      vertex 0.463525 16.5734 3.5
    endloop
  endfacet
  facet normal -0.5 0.866025 0
    outer loop
      vertex 0.463525 16.5734 3.5
      vertex 1.0037 16.8853 0
      vertex 0.463525 16.5734 0
    endloop
  endfacet
  facet normal -0.104528 0.994522 0
    outer loop
      vertex 0.463525 16.5734 3.5
      vertex 0.463525 16.5734 0
      vertex -0.156793 16.5082 3.5
    endloop
  endfacet
  facet normal -0.104528 0.994522 0
    outer loop
      vertex -0.156793 16.5082 3.5
      vertex 0.463525 16.5734 0
      vertex -0.156793 16.5082 0
    endloop
  endfacet
  facet normal 0.309018 0.951056 0
    outer loop
      vertex -0.156793 16.5082 3.5
      vertex -0.156793 16.5082 0
      vertex -0.75 16.701 3.5
    endloop
  endfacet
  facet normal 0.309018 0.951056 0
    outer loop
      vertex -0.75 16.701 3.5
      vertex -0.156793 16.5082 0
      vertex -0.75 16.701 0
    endloop
  endfacet
  facet normal 0.669131 0.743145 0
    outer loop
      vertex -0.75 16.701 3.5
      vertex -0.75 16.701 0
      vertex -1.21352 17.1183 3.5
    endloop
  endfacet
  facet normal 0.669131 0.743145 0
    outer loop
      vertex -1.21352 17.1183 3.5
      vertex -0.75 16.701 0
      vertex -1.21352 17.1183 0
    endloop
  endfacet
  facet normal 0.913545 0.406737 0
    outer loop
      vertex -1.46722 17.6881 3.5
      vertex -1.21352 17.1183 3.5
      vertex -1.21352 17.1183 0
    endloop
  endfacet
  facet normal 0.913545 0.406737 0
    outer loop
      vertex -1.46722 17.6881 0
      vertex -1.46722 17.6881 3.5
      vertex -1.21352 17.1183 0
    endloop
  endfacet
  facet normal 0 0.663111 0.748521
    outer loop
      vertex 0 13.4032 8.5
      vertex -3.06981 11.6218 10.0781
      vertex 3.06981 11.6218 10.0781
    endloop
  endfacet
  facet normal 0 0.159633 0.987176
    outer loop
      vertex 3.06981 11.6218 10.0781
      vertex -3.06981 11.6218 10.0781
      vertex 0 2.56457 11.5427
    endloop
  endfacet
  facet normal 0.0461718 0.15838 0.986298
    outer loop
      vertex 0 24.6451 4
      vertex 0 15.3787 5.488
      vertex 5.3142 23.0959 4
    endloop
  endfacet
  facet normal -0.395804 0.42911 0.811914
    outer loop
      vertex 5.3142 23.0959 4
      vertex 0 15.3787 5.488
      vertex 5.3142 14.5815 8.5
    endloop
  endfacet
  facet normal -0.182296 0.822176 0.539254
    outer loop
      vertex 0 15.3787 5.488
      vertex 0 13.4032 8.5
      vertex 5.3142 14.5815 8.5
    endloop
  endfacet
  facet normal -0.118803 0.535815 0.835935
    outer loop
      vertex 5.3142 14.5815 8.5
      vertex 0 13.4032 8.5
      vertex 3.06981 11.6218 10.0781
    endloop
  endfacet
  facet normal 0.354643 0.0309135 0.93449
    outer loop
      vertex 3.06981 11.6218 10.0781
      vertex 0 2.56457 11.5427
      vertex 4.18474 -1.1688 10.0781
    endloop
  endfacet
  facet normal 0.330344 0 0.943861
    outer loop
      vertex 4.18474 -1.1688 10.0781
      vertex 0 2.56457 11.5427
      vertex 4.18474 -3.00718 10.0781
    endloop
  endfacet
  facet normal 0.835922 0 0.548849
    outer loop
      vertex 4.18474 -1.1688 10.0781
      vertex 4.18474 -3.00718 10.0781
      vertex 5.22087 -3.00718 8.5
    endloop
  endfacet
  facet normal 0.835922 0 0.548849
    outer loop
      vertex 5.22087 -1.1688 8.5
      vertex 4.18474 -1.1688 10.0781
      vertex 5.22087 -3.00718 8.5
    endloop
  endfacet
  facet normal 0.985366 0 0.170451
    outer loop
      vertex 5.22087 -1.1688 8.5
      vertex 5.22087 -3.00718 8.5
      vertex 6.08025 -3.00718 3.53195
    endloop
  endfacet
  facet normal 0.985366 0 0.170451
    outer loop
      vertex 6.08025 -1.1688 3.53195
      vertex 5.22087 -1.1688 8.5
      vertex 6.08025 -3.00718 3.53195
    endloop
  endfacet
  facet normal -0.997098 -0.0405013 0.0644649
    outer loop
      vertex 11.5024 -4.29355 4
      vertex 11.2354 6.68615 6.76959
      vertex 11.304 0.590416 4
    endloop
  endfacet
  facet normal -0.986424 -0.0623064 0.151937
    outer loop
      vertex 12.2223 -6.70953 7.68311
      vertex 11.2354 6.68615 6.76959
      vertex 11.5024 -4.29355 4
    endloop
  endfacet
  facet normal 0.0834492 -0.0108226 -0.996453
    outer loop
      vertex 10.5568 -11.5846 4
      vertex 6.08025 -3.00718 3.53195
      vertex 11.5024 -4.29355 4
    endloop
  endfacet
  facet normal 0 0 -1
    outer loop
      vertex 6.95622 18.8776 4
      vertex 8.3634 14.2204 4
      vertex 9.23553 0.590416 4
    endloop
  endfacet
  facet normal 0 0 -1
    outer loop
      vertex 9.23553 0.590416 4
      vertex 8.3634 14.2204 4
      vertex 12.0621 9.53688 4
    endloop
  endfacet
  facet normal 0 0 -1
    outer loop
      vertex 9.23553 0.590416 4
      vertex 12.0621 9.53688 4
      vertex 11.304 0.590416 4
    endloop
  endfacet
  facet normal 0 0 -1
    outer loop
      vertex 11.304 0.590416 4
      vertex 15.6568 0.590416 4
      vertex 15.3035 -4.29355 4
    endloop
  endfacet
  facet normal 0 0 -1
    outer loop
      vertex 11.5024 -4.29355 4
      vertex 15.3035 -4.29355 4
      vertex 13.0424 -11.5846 4
    endloop
  endfacet
  facet normal 0 0 -1
    outer loop
      vertex 11.304 0.590416 4
      vertex 15.3035 -4.29355 4
      vertex 11.5024 -4.29355 4
    endloop
  endfacet
  facet normal 0 0 -1
    outer loop
      vertex 12.0621 9.53688 4
      vertex 15.6568 0.590416 4
      vertex 11.304 0.590416 4
    endloop
  endfacet
  facet normal 0 0 -1
    outer loop
      vertex 11.5024 -4.29355 4
      vertex 13.0424 -11.5846 4
      vertex 10.5568 -11.5846 4
    endloop
  endfacet
  facet normal 0.0276883 0.0700414 0.99716
    outer loop
      vertex 14.52 6.68615 6.67839
      vertex 11.2354 6.68615 6.76959
      vertex 12.2223 -6.70953 7.68311
    endloop
  endfacet
  facet normal 0 0.0747937 0.997199
    outer loop
      vertex 14.52 6.68615 6.67839
      vertex 12.2223 -6.70953 7.68311
      vertex 16.0234 -6.70953 7.68311
    endloop
  endfacet
  facet normal 0 -0.358036 0.933708
    outer loop
      vertex 12.2223 -6.70953 7.68311
      vertex 11.399 -10.6668 6.16567
      vertex 13.8846 -10.6668 6.16567
    endloop
  endfacet
  facet normal 0 -0.358036 0.933708
    outer loop
      vertex 16.0234 -6.70953 7.68311
      vertex 12.2223 -6.70953 7.68311
      vertex 13.8846 -10.6668 6.16567
    endloop
  endfacet
  facet normal 0.130305 -0.378502 0.916383
    outer loop
      vertex 12.2223 -6.70953 7.68311
      vertex 6.13819 -11.216 6.6869
      vertex 11.399 -10.6668 6.16567
    endloop
  endfacet
  facet normal 0.132825 -0.918183 0.373226
    outer loop
      vertex 6.13819 -11.216 6.6869
      vertex 4.85633 -12.6838 3.53195
      vertex 11.399 -10.6668 6.16567
    endloop
  endfacet
  facet normal 0.653181 -0.75245 0.0846957
    outer loop
      vertex 6.13819 -11.216 6.6869
      vertex 4.21214 -12.6838 8.5
      vertex 4.85633 -12.6838 3.53195
    endloop
  endfacet
  facet normal 0.876751 0.467316 0.113685
    outer loop
      vertex 4.85633 -12.6838 3.53195
      vertex 4.21214 -12.6838 8.5
      vertex 5.20697 -14.5503 8.5
    endloop
  endfacet
  facet normal 0 0 1
    outer loop
      vertex 4.21214 -12.6838 8.5
      vertex 0 -15.7946 8.5
      vertex 5.20697 -14.5503 8.5
    endloop
  endfacet
  facet normal 0.277299 -0.37548 0.884376
    outer loop
      vertex 2.19902 -13.7208 8.69098
      vertex 0 -15.7946 8.5
      vertex 4.21214 -12.6838 8.5
    endloop
  endfacet
  facet normal 0 0.181131 0.983459
    outer loop
      vertex 4.21214 -12.6838 8.5
      vertex 0 -12.6838 8.5
      vertex 2.19902 -13.7208 8.69098
    endloop
  endfacet
  facet normal 0 -0.0937754 0.995593
    outer loop
      vertex 3.43595 -9.57311 8.793
      vertex 0 -12.6838 8.5
      vertex 4.21214 -12.6838 8.5
    endloop
  endfacet
  facet normal 0.0838595 -0.0106067 -0.996421
    outer loop
      vertex 10.5568 -11.5846 4
      vertex 4.85633 -12.6838 3.53195
      vertex 6.08025 -3.00718 3.53195
    endloop
  endfacet
  facet normal -0.0865209 0 0.99625
    outer loop
      vertex 0 -12.6838 8.5
      vertex 0 -15.7946 8.5
      vertex 2.19902 -13.7208 8.69098
    endloop
  endfacet
  facet normal 0.0865209 0 0.99625
    outer loop
      vertex 0 -12.6838 8.5
      vertex -2.19902 -13.7208 8.69098
      vertex 0 -15.7946 8.5
    endloop
  endfacet
  facet normal 0.223601 -0.935697 0.2729
    outer loop
      vertex 5.20697 -14.5503 8.5
      vertex 0 -15.7946 8.5
      vertex 6.06339 -15.7946 3.53195
    endloop
  endfacet
  facet normal 0.929992 0.360865 0.0699349
    outer loop
      vertex 6.06339 -15.7946 3.53195
      vertex 4.85633 -12.6838 3.53195
      vertex 5.20697 -14.5503 8.5
    endloop
  endfacet
  facet normal 0.151812 -0.929897 0.33503
    outer loop
      vertex 11.399 -10.6668 6.16567
      vertex 4.85633 -12.6838 3.53195
      vertex 10.5568 -11.5846 4
    endloop
  endfacet
  facet normal 0.475973 -0.875597 0.0823348
    outer loop
      vertex 9.23553 0.590416 4
      vertex 5.22087 -1.1688 8.5
      vertex 6.08025 -1.1688 3.53195
    endloop
  endfacet
  facet normal 0.493424 -0.863723 0.102546
    outer loop
      vertex 8.10447 0.590416 9.44236
      vertex 5.22087 -1.1688 8.5
      vertex 9.23553 0.590416 4
    endloop
  endfacet
  facet normal 0.977014 0.0649297 0.203048
    outer loop
      vertex 9.23553 0.590416 4
      vertex 8.09874 6.68615 7.52066
      vertex 8.10447 0.590416 9.44236
    endloop
  endfacet
  facet normal 0.206748 -0.460134 0.863442
    outer loop
      vertex 11.2354 6.68615 6.76959
      vertex 8.09874 6.68615 7.52066
      vertex 9.23553 0.590416 4
    endloop
  endfacet
  facet normal 0 -0.413655 0.910434
    outer loop
      vertex 11.2354 6.68615 6.76959
      vertex 9.23553 0.590416 4
      vertex 11.304 0.590416 4
    endloop
  endfacet
  facet normal 0.846685 0.219343 0.484782
    outer loop
      vertex 6.95622 18.8776 4
      vertex 6.4472 8.814 9.44236
      vertex 8.09874 6.68615 7.52066
    endloop
  endfacet
  facet normal 0.810979 0.246047 0.530823
    outer loop
      vertex 6.95622 18.8776 4
      vertex 5.3142 14.5815 8.5
      vertex 6.4472 8.814 9.44236
    endloop
  endfacet
  facet normal 0.768321 0.299082 0.56589
    outer loop
      vertex 5.3142 23.0959 4
      vertex 5.3142 14.5815 8.5
      vertex 6.95622 18.8776 4
    endloop
  endfacet
  facet normal 0.787555 0.237962 0.568446
    outer loop
      vertex 8.3634 14.2204 4
      vertex 6.95622 18.8776 4
      vertex 8.09874 6.68615 7.52066
    endloop
  endfacet
  facet normal 0 0 -1
    outer loop
      vertex -1.21352 0.881678 5
      vertex -0.75 1.29904 5
      vertex -1.46722 0.311868 5
    endloop
  endfacet
  facet normal 0 0 -1
    outer loop
      vertex -1.46722 0.311868 5
      vertex -0.75 1.29904 5
      vertex -0.156793 1.49178 5
    endloop
  endfacet
  facet normal 0 0 -1
    outer loop
      vertex -1.46722 0.311868 5
      vertex -0.156793 1.49178 5
      vertex 0.463525 1.42658 5
    endloop
  endfacet
  facet normal 0 0 -1
    outer loop
      vertex -1.46722 0.311868 5
      vertex 0.463525 1.42658 5
      vertex 1.0037 1.11472 5
    endloop
  endfacet
  facet normal 0 0 -1
    outer loop
      vertex -1.46722 0.311868 5
      vertex 1.0037 1.11472 5
      vertex 1.37032 0.610105 5
    endloop
  endfacet
  facet normal 0 0 -1
    outer loop
      vertex -1.46722 0.311868 5
      vertex 1.37032 0.610105 5
      vertex 1.5 0 5
    endloop
  endfacet
  facet normal 0 0 -1
    outer loop
      vertex -1.46722 0.311868 5
      vertex 1.5 0 5
      vertex 1.37032 -0.610105 5
    endloop
  endfacet
  facet normal 0 0 -1
    outer loop
      vertex -1.46722 0.311868 5
      vertex 1.37032 -0.610105 5
      vertex 1.0037 -1.11472 5
    endloop
  endfacet
  facet normal 0 0 -1
    outer loop
      vertex -1.46722 0.311868 5
      vertex 1.0037 -1.11472 5
      vertex 0.463525 -1.42658 5
    endloop
  endfacet
  facet normal 0 0 -1
    outer loop
      vertex -1.46722 0.311868 5
      vertex 0.463525 -1.42658 5
      vertex -0.156793 -1.49178 5
    endloop
  endfacet
  facet normal 0 0 -1
    outer loop
      vertex -1.46722 0.311868 5
      vertex -0.156793 -1.49178 5
      vertex -0.75 -1.29904 5
    endloop
  endfacet
  facet normal 0 0 -1
    outer loop
      vertex -1.46722 0.311868 5
      vertex -0.75 -1.29904 5
      vertex -1.21352 -0.881678 5
    endloop
  endfacet
  facet normal 0 0 -1
    outer loop
      vertex -1.46722 0.311868 5
      vertex -1.21352 -0.881678 5
      vertex -1.46722 -0.311868 5
    endloop
  endfacet
  facet normal 0 0 -1
    outer loop
      vertex -1.21352 18.8817 3.5
      vertex -0.75 19.299 3.5
      vertex -1.46722 18.3119 3.5
    endloop
  endfacet
  facet normal 0 0 -1
    outer loop
      vertex -1.46722 18.3119 3.5
      vertex -0.75 19.299 3.5
      vertex -0.156793 19.4918 3.5
    endloop
  endfacet
  facet normal 0 0 -1
    outer loop
      vertex -1.46722 18.3119 3.5
      vertex -0.156793 19.4918 3.5
      vertex 0.463525 19.4266 3.5
    endloop
  endfacet
  facet normal 0 0 -1
    outer loop
      vertex -1.46722 18.3119 3.5
      vertex 0.463525 19.4266 3.5
      vertex 1.0037 19.1147 3.5
    endloop
  endfacet
  facet normal 0 0 -1
    outer loop
      vertex -1.46722 18.3119 3.5
      vertex 1.0037 19.1147 3.5
      vertex 1.37032 18.6101 3.5
    endloop
  endfacet
  facet normal 0 0 -1
    outer loop
      vertex -1.46722 18.3119 3.5
      vertex 1.37032 18.6101 3.5
      vertex 1.5 18 3.5
    endloop
  endfacet
  facet normal 0 0 -1
    outer loop
      vertex -1.46722 18.3119 3.5
      vertex 1.5 18 3.5
      vertex 1.37032 17.3899 3.5
    endloop
  endfacet
  facet normal 0 0 -1
    outer loop
      vertex -1.46722 18.3119 3.5
      vertex 1.37032 17.3899 3.5
      vertex 1.0037 16.8853 3.5
    endloop
  endfacet
  facet normal 0 0 -1
    outer loop
      vertex -1.46722 18.3119 3.5
      vertex 1.0037 16.8853 3.5
      vertex 0.463525 16.5734 3.5
    endloop
  endfacet
  facet normal 0 0 -1
    outer loop
      vertex -1.46722 18.3119 3.5
      vertex 0.463525 16.5734 3.5
      vertex -0.156793 16.5082 3.5
    endloop
  endfacet
  facet normal 0 0 -1
    outer loop
      vertex -1.46722 18.3119 3.5
      vertex -0.156793 16.5082 3.5
      vertex -0.75 16.701 3.5
    endloop
  endfacet
  facet normal 0 0 -1
    outer loop
      vertex -1.46722 18.3119 3.5
      vertex -0.75 16.701 3.5
      vertex -1.21352 17.1183 3.5
    endloop
  endfacet
  facet normal 0 0 -1
    outer loop
      vertex -1.46722 18.3119 3.5
      vertex -1.21352 17.1183 3.5
      vertex -1.46722 17.6881 3.5
    endloop
  endfacet
  facet normal 0.352495 0.217947 0.910081
    outer loop
      vertex 5.3142 14.5815 8.5
      vertex 3.06981 11.6218 10.0781
      vertex 6.4472 8.814 9.44236
    endloop
  endfacet
  facet normal 0.51697 0.45812 0.723096
    outer loop
      vertex 6.4472 8.814 9.44236
      vertex 3.06981 11.6218 10.0781
      vertex 5.09565 8.814 10.4086
    endloop
  endfacet
  facet normal -0.075414 0.0627478 0.995176
    outer loop
      vertex 5.09565 8.814 10.4086
      vertex 3.06981 11.6218 10.0781
      vertex 6.32666 0.590416 11.0204
    endloop
  endfacet
  facet normal -0.379593 -0.0330883 0.924562
    outer loop
      vertex 6.32666 0.590416 11.0204
      vertex 3.06981 11.6218 10.0781
      vertex 4.18474 -1.1688 10.0781
    endloop
  endfacet
  facet normal 0.506782 -0.79527 0.332742
    outer loop
      vertex 6.32666 0.590416 11.0204
      vertex 4.18474 -1.1688 10.0781
      vertex 5.22087 -1.1688 8.5
    endloop
  endfacet
  facet normal 0.370156 -0.830115 0.417006
    outer loop
      vertex 6.32666 0.590416 11.0204
      vertex 5.22087 -1.1688 8.5
      vertex 8.10447 0.590416 9.44236
    endloop
  endfacet
  facet normal 0.21265 0.407523 0.888091
    outer loop
      vertex 8.3634 14.2204 4
      vertex 8.09874 6.68615 7.52066
      vertex 11.2354 6.68615 6.76959
    endloop
  endfacet
  facet normal 0.591454 0.467077 0.657283
    outer loop
      vertex 12.0621 9.53688 4
      vertex 8.3634 14.2204 4
      vertex 11.2354 6.68615 6.76959
    endloop
  endfacet
  facet normal 0.019992 0.6937 0.719987
    outer loop
      vertex 12.0621 9.53688 4
      vertex 11.2354 6.68615 6.76959
      vertex 14.52 6.68615 6.67839
    endloop
  endfacet
  facet normal 0 -0.920737 0.390185
    outer loop
      vertex 11.399 -10.6668 6.16567
      vertex 10.5568 -11.5846 4
      vertex 13.0424 -11.5846 4
    endloop
  endfacet
  facet normal 0 -0.920737 0.390185
    outer loop
      vertex 13.8846 -10.6668 6.16567
      vertex 11.399 -10.6668 6.16567
      vertex 13.0424 -11.5846 4
    endloop
  endfacet
  facet normal 0.892724 -0.417148 -0.170385
    outer loop
      vertex 13.8846 -10.6668 6.16567
      vertex 13.0424 -11.5846 4
      vertex 16.0234 -6.70953 7.68311
    endloop
  endfacet
  facet normal 0.892545 -0.27679 -0.356021
    outer loop
      vertex 16.0234 -6.70953 7.68311
      vertex 13.0424 -11.5846 4
      vertex 15.3035 -4.29355 4
    endloop
  endfacet
  facet normal 0.969347 -0.0701338 -0.235475
    outer loop
      vertex 16.0234 -6.70953 7.68311
      vertex 15.3035 -4.29355 4
      vertex 15.6568 0.590416 4
    endloop
  endfacet
  facet normal 0.982479 0.120897 0.141843
    outer loop
      vertex 15.6568 0.590416 4
      vertex 14.52 6.68615 6.67839
      vertex 16.0234 -6.70953 7.68311
    endloop
  endfacet
  facet normal 0.844672 0.339397 -0.41393
    outer loop
      vertex 15.6568 0.590416 4
      vertex 12.0621 9.53688 4
      vertex 14.52 6.68615 6.67839
    endloop
  endfacet
  facet normal 0.831759 0.167621 0.529225
    outer loop
      vertex 8.09874 6.68615 7.52066
      vertex 6.4472 8.814 9.44236
      vertex 8.10447 0.590416 9.44236
    endloop
  endfacet
  facet normal 0.657985 0.132601 0.741265
    outer loop
      vertex 6.4472 8.814 9.44236
      vertex 6.32666 0.590416 11.0204
      vertex 8.10447 0.590416 9.44236
    endloop
  endfacet
  facet normal 0.575358 0.145998 0.804766
    outer loop
      vertex 6.4472 8.814 9.44236
      vertex 5.09565 8.814 10.4086
      vertex 6.32666 0.590416 11.0204
    endloop
  endfacet
endsolid OpenSCAD_Model
