solid OpenSCAD_Model
  facet normal 0 -1.48982e-07 -1
    outer loop
      vertex -6.37185 -0.569014 2
      vertex -5.6502 -0.569014 2
      vertex -6.32597 -7.28124 2
    endloop
  endfacet
  facet normal 0 -1.48982e-07 -1
    outer loop
      vertex -6.32597 -7.28124 2
      vertex -5.6502 -0.569014 2
      vertex -4.70122 -7.28124 2
    endloop
  endfacet
  facet normal 0 4.23723e-07 -1
    outer loop
      vertex -5.6502 -0.569014 2
      vertex -6.37185 -0.569014 2
      vertex -5.32958 1.79102 2
    endloop
  endfacet
  facet normal -0.820328 0.362286 0.442506
    outer loop
      vertex -5.32958 1.79102 2
      vertex -6.37185 -0.569014 2
      vertex -6.12179 -1.24779 3.01929
    endloop
  endfacet
  facet normal -0.972199 -0.00667559 0.234062
    outer loop
      vertex -6.12179 -1.24779 3.01929
      vertex -6.37185 -0.569014 2
      vertex -6.15654 -7.28124 2.70287
    endloop
  endfacet
  facet normal -0.972133 -0.00664507 0.234334
    outer loop
      vertex -6.15654 -7.28124 2.70287
      vertex -6.37185 -0.569014 2
      vertex -6.32597 -7.28124 2
    endloop
  endfacet
  facet normal 0 -1 0
    outer loop
      vertex -6.15654 -7.28124 2.70287
      vertex -6.32597 -7.28124 2
      vertex -4.70122 -7.28124 2
    endloop
  endfacet
  facet normal 0 -1 0
    outer loop
      vertex -3.93883 -7.28124 3.15808
      vertex -6.15654 -7.28124 2.70287
      vertex -3.80838 -7.28124 2
    endloop
  endfacet
  facet normal 0 -1 0
    outer loop
      vertex -3.80838 -7.28124 2
      vertex -6.15654 -7.28124 2.70287
      vertex -4.70122 -7.28124 2
    endloop
  endfacet
  facet normal 0 -1 0
    outer loop
      vertex -3.35037 -7.28124 4.25
      vertex -3.93883 -7.28124 3.15808
      vertex -3.80838 -7.28124 2
    endloop
  endfacet
  facet normal 0 -1 0
    outer loop
      vertex -5.43489 -7.28124 2.97172
      vertex -6.15654 -7.28124 2.70287
      vertex -3.93883 -7.28124 3.15808
    endloop
  endfacet
  facet normal 0 0 -1
    outer loop
      vertex -3.80838 -7.28124 2
      vertex -4.70122 -7.28124 2
      vertex -4.60792 3.30015 2
    endloop
  endfacet
  facet normal 9.91904e-07 -8.74561e-09 -1
    outer loop
      vertex -4.70122 -7.28124 2
      vertex -5.6502 -0.569014 2
      vertex -4.60792 3.30015 2
    endloop
  endfacet
  facet normal -1.23774e-06 5.91877e-07 -1
    outer loop
      vertex -4.60792 3.30015 2
      vertex -5.6502 -0.569014 2
      vertex -5.32958 1.79102 2
    endloop
  endfacet
  facet normal -0.735094 0.351515 0.579718
    outer loop
      vertex -4.60792 3.30015 2
      vertex -5.32958 1.79102 2
      vertex -5.15054 0.533085 2.98978
    endloop
  endfacet
  facet normal -0.688274 0.385556 0.614513
    outer loop
      vertex -5.32958 1.79102 2
      vertex -6.12179 -1.24779 3.01929
      vertex -5.15054 0.533085 2.98978
    endloop
  endfacet
  facet normal -0.348722 -0.0470825 0.936043
    outer loop
      vertex -6.12179 -1.24779 3.01929
      vertex -6.15654 -7.28124 2.70287
      vertex -5.43489 -7.28124 2.97172
    endloop
  endfacet
  facet normal 0.0370786 -0.00365838 0.999306
    outer loop
      vertex -5.15054 0.533085 2.98978
      vertex -6.12179 -1.24779 3.01929
      vertex -5.43489 -7.28124 2.97172
    endloop
  endfacet
  facet normal -0.123613 0.00220502 0.992328
    outer loop
      vertex -5.15054 0.533085 2.98978
      vertex -5.43489 -7.28124 2.97172
      vertex -3.93883 -7.28124 3.15808
    endloop
  endfacet
  facet normal 0.17837 0.0488251 0.982751
    outer loop
      vertex -4.30289 3.30015 2.69845
      vertex -5.15054 0.533085 2.98978
      vertex -3.93883 -7.28124 3.15808
    endloop
  endfacet
  facet normal 0.0415205 0.0447848 0.998133
    outer loop
      vertex -3.62615 2.59562 2.70191
      vertex -4.30289 3.30015 2.69845
      vertex -3.93883 -7.28124 3.15808
    endloop
  endfacet
  facet normal -0.778432 0.0535295 0.625443
    outer loop
      vertex -3.62615 2.59562 2.70191
      vertex -3.93883 -7.28124 3.15808
      vertex -2.67928 -1.7229 4.25
    endloop
  endfacet
  facet normal -0.875373 0.105689 0.471754
    outer loop
      vertex -2.67928 -1.7229 4.25
      vertex -3.93883 -7.28124 3.15808
      vertex -3.35037 -7.28124 4.25
    endloop
  endfacet
  facet normal -0.721656 -0.676486 0.1469
    outer loop
      vertex -3.35037 -7.28124 4.25
      vertex -3.80838 -7.28124 2
      vertex -2.53069 -8.69506 1.76597
    endloop
  endfacet
  facet normal 0 0 1
    outer loop
      vertex -2.67928 -1.7229 4.25
      vertex -3.35037 -7.28124 4.25
      vertex -2.1827 -8.69506 4.25
    endloop
  endfacet
  facet normal 0 0 1
    outer loop
      vertex 2.1827 -8.69506 4.25
      vertex -2.67928 -1.7229 4.25
      vertex -2e-06 -6.87856 4.25
    endloop
  endfacet
  facet normal 0 0 1
    outer loop
      vertex -2e-06 -6.87856 4.25
      vertex -2.67928 -1.7229 4.25
      vertex -2.1827 -8.69506 4.25
    endloop
  endfacet
  facet normal 0 0 1
    outer loop
      vertex 3.35037 -7.28124 4.25
      vertex -2.67928 -1.7229 4.25
      vertex 2.1827 -8.69506 4.25
    endloop
  endfacet
  facet normal 0 0 1
    outer loop
      vertex 2.67928 -1.7229 4.25
      vertex -2.67928 -1.7229 4.25
      vertex 3.35037 -7.28124 4.25
    endloop
  endfacet
  facet normal 0 0 1
    outer loop
      vertex 2.22049 2.9122 4.25
      vertex -2.67928 -1.7229 4.25
      vertex 2.67928 -1.7229 4.25
    endloop
  endfacet
  facet normal 0 0 1
    outer loop
      vertex -2e-06 2.9122 4.25
      vertex -2.67928 -1.7229 4.25
      vertex 2.22049 2.9122 4.25
    endloop
  endfacet
  facet normal 0 0 1
    outer loop
      vertex -2.22049 2.9122 4.25
      vertex -2.67928 -1.7229 4.25
      vertex -2e-06 2.9122 4.25
    endloop
  endfacet
  facet normal -0.766573 -0.633114 0.107392
    outer loop
      vertex -2.1827 -8.69506 4.25
      vertex -3.35037 -7.28124 4.25
      vertex -2.53069 -8.69506 1.76597
    endloop
  endfacet
  facet normal -0.710966 -0.575648 -0.403927
    outer loop
      vertex -2.53069 -8.69506 1.76597
      vertex -3.80838 -7.28124 2
      vertex -1.52737 -8.69506 -1e-06
    endloop
  endfacet
  facet normal -0.712821 -0.198459 -0.672681
    outer loop
      vertex -1.52737 -8.69506 -1e-06
      vertex -3.80838 -7.28124 2
      vertex -2.46059 -5.34315 -1e-06
    endloop
  endfacet
  facet normal -0.84289 0.0318633 -0.537141
    outer loop
      vertex -2.46059 -5.34315 -1e-06
      vertex -3.80838 -7.28124 2
      vertex -2.018 6.36489 -1e-06
    endloop
  endfacet
  facet normal -0.915671 0.0619328 -0.397128
    outer loop
      vertex -2.018 6.36489 -1e-06
      vertex -3.80838 -7.28124 2
      vertex -2.8854 6.36489 2
    endloop
  endfacet
  facet normal -5.11745e-07 -3.86682e-08 -1
    outer loop
      vertex -3.80838 -7.28124 2
      vertex -4.60792 3.30015 2
      vertex -2.8854 6.36489 2
    endloop
  endfacet
  facet normal -0.814701 0.457898 0.355799
    outer loop
      vertex -2.8854 6.36489 2
      vertex -4.60792 3.30015 2
      vertex -4.30289 3.30015 2.69845
    endloop
  endfacet
  facet normal -0.872091 0.307249 0.380862
    outer loop
      vertex -4.60792 3.30015 2
      vertex -5.15054 0.533085 2.98978
      vertex -4.30289 3.30015 2.69845
    endloop
  endfacet
  facet normal 0.153013 0.151774 0.9765
    outer loop
      vertex -2.8854 6.36489 2
      vertex -4.30289 3.30015 2.69845
      vertex -3.62615 2.59562 2.70191
    endloop
  endfacet
  facet normal -0.371558 0.24003 0.896845
    outer loop
      vertex -2.8854 6.36489 2
      vertex -3.62615 2.59562 2.70191
      vertex -2.67928 -1.7229 4.25
    endloop
  endfacet
  facet normal -0.909101 0.0899852 0.40674
    outer loop
      vertex -2.22049 2.9122 4.25
      vertex -2.8854 6.36489 2
      vertex -2.67928 -1.7229 4.25
    endloop
  endfacet
  facet normal -0.130856 -0.991232 0.0183321
    outer loop
      vertex -2.1827 -8.69506 4.25
      vertex -2.53069 -8.69506 1.76597
      vertex -2e-06 -9 3.34189
    endloop
  endfacet
  facet normal -0.119632 -0.992818 5.94166e-07
    outer loop
      vertex -2e-06 -9 3.34189
      vertex -2.53069 -8.69506 1.76597
      vertex -2e-06 -9 -1e-06
    endloop
  endfacet
  facet normal -0.194586 -0.974636 -0.11055
    outer loop
      vertex -2e-06 -9 -1e-06
      vertex -2.53069 -8.69506 1.76597
      vertex -1.52737 -8.69506 -1e-06
    endloop
  endfacet
  facet normal -0.846887 0.166106 0.505164
    outer loop
      vertex -2.22049 9.75494 2
      vertex -2.8854 6.36489 2
      vertex -2.22049 2.9122 4.25
    endloop
  endfacet
  facet normal 0 0.312363 0.949963
    outer loop
      vertex -2.22049 9.75494 2
      vertex -2.22049 2.9122 4.25
      vertex -2e-06 2.9122 4.25
    endloop
  endfacet
  facet normal 0.148613 0.265042 0.952715
    outer loop
      vertex -2e-06 11 2
      vertex -2e-06 2.9122 4.25
      vertex 2.22049 9.75494 2
    endloop
  endfacet
  facet normal 0 0.312363 0.949963
    outer loop
      vertex 2.22049 9.75494 2
      vertex -2e-06 2.9122 4.25
      vertex 2.22049 2.9122 4.25
    endloop
  endfacet
  facet normal -0.148613 0.265042 0.952715
    outer loop
      vertex -2e-06 11 2
      vertex -2.22049 9.75494 2
      vertex -2e-06 2.9122 4.25
    endloop
  endfacet
  facet normal 0.846887 0.166106 0.505164
    outer loop
      vertex 2.22049 9.75494 2
      vertex 2.22049 2.9122 4.25
      vertex 2.8854 6.36489 2
    endloop
  endfacet
  facet normal 0.909101 0.0899852 0.40674
    outer loop
      vertex 2.8854 6.36489 2
      vertex 2.22049 2.9122 4.25
      vertex 2.67928 -1.7229 4.25
    endloop
  endfacet
  facet normal 0.371558 0.24003 0.896845
    outer loop
      vertex 2.8854 6.36489 2
      vertex 2.67928 -1.7229 4.25
      vertex 3.62615 2.59562 2.70191
    endloop
  endfacet
  facet normal 0.778432 0.0535295 0.625443
    outer loop
      vertex 3.62615 2.59562 2.70191
      vertex 2.67928 -1.7229 4.25
      vertex 3.93883 -7.28124 3.15808
    endloop
  endfacet
  facet normal 0.875373 0.105689 0.471754
    outer loop
      vertex 3.93883 -7.28124 3.15808
      vertex 2.67928 -1.7229 4.25
      vertex 3.35037 -7.28124 4.25
    endloop
  endfacet
  facet normal 0.721656 -0.676486 0.1469
    outer loop
      vertex 3.35037 -7.28124 4.25
      vertex 2.53069 -8.69506 1.76597
      vertex 3.80838 -7.28124 2
    endloop
  endfacet
  facet normal 0.766573 -0.633114 0.107392
    outer loop
      vertex 3.35037 -7.28124 4.25
      vertex 2.1827 -8.69506 4.25
      vertex 2.53069 -8.69506 1.76597
    endloop
  endfacet
  facet normal 0 -1 0
    outer loop
      vertex 3.93883 -7.28124 3.15808
      vertex 3.35037 -7.28124 4.25
      vertex 3.80838 -7.28124 2
    endloop
  endfacet
  facet normal 0 -1 0
    outer loop
      vertex 4.70122 -7.28124 2
      vertex 3.93883 -7.28124 3.15808
      vertex 3.80838 -7.28124 2
    endloop
  endfacet
  facet normal 0 -1 0
    outer loop
      vertex 5.43489 -7.28124 2.97172
      vertex 6.32597 -7.28124 2
      vertex 6.15654 -7.28124 2.70287
    endloop
  endfacet
  facet normal 0 -1 0
    outer loop
      vertex 5.43489 -7.28124 2.97172
      vertex 4.70122 -7.28124 2
      vertex 6.32597 -7.28124 2
    endloop
  endfacet
  facet normal 0 -1 0
    outer loop
      vertex 5.43489 -7.28124 2.97172
      vertex 3.93883 -7.28124 3.15808
      vertex 4.70122 -7.28124 2
    endloop
  endfacet
  facet normal 0.130856 -0.991232 0.0183321
    outer loop
      vertex 2.1827 -8.69506 4.25
      vertex -2e-06 -9 3.34189
      vertex 2.53069 -8.69506 1.76597
    endloop
  endfacet
  facet normal -0.311236 -0.37398 0.873654
    outer loop
      vertex -2e-06 -6.87856 4.25
      vertex -2e-06 -9 3.34189
      vertex 2.1827 -8.69506 4.25
    endloop
  endfacet
  facet normal 0.311236 -0.37398 0.873654
    outer loop
      vertex -2e-06 -6.87856 4.25
      vertex -2.1827 -8.69506 4.25
      vertex -2e-06 -9 3.34189
    endloop
  endfacet
  facet normal 0 0 -1
    outer loop
      vertex -2.46059 -5.34315 -1e-06
      vertex -2.018 6.36489 -1e-06
      vertex -1.52737 -8.69506 -1e-06
    endloop
  endfacet
  facet normal 0 0 -1
    outer loop
      vertex -1.52737 -8.69506 -1e-06
      vertex -2.018 6.36489 -1e-06
      vertex -1.54998 10.1767 -1e-06
    endloop
  endfacet
  facet normal 0 0 -1
    outer loop
      vertex -1.46722 0.311868 -1e-06
      vertex -1.54998 10.1767 -1e-06
      vertex 1.54998 10.1767 -1e-06
    endloop
  endfacet
  facet normal 0 0 -1
    outer loop
      vertex 0.463525 1.42658 -1e-06
      vertex 1.54998 10.1767 -1e-06
      vertex 2.018 6.36489 -1e-06
    endloop
  endfacet
  facet normal 0 0 -1
    outer loop
      vertex 1.5 0 -1e-06
      vertex 2.018 6.36489 -1e-06
      vertex 2.46059 -5.34315 -1e-06
    endloop
  endfacet
  facet normal 0 0 -1
    outer loop
      vertex -1.52737 -8.69506 -1e-06
      vertex 2.46059 -5.34315 -1e-06
      vertex 1.52737 -8.69506 -1e-06
    endloop
  endfacet
  facet normal 0 0 -1
    outer loop
      vertex -1.52737 -8.69506 -1e-06
      vertex 1.52737 -8.69506 -1e-06
      vertex -2e-06 -9 -1e-06
    endloop
  endfacet
  facet normal 0 0 -1
    outer loop
      vertex -1.52737 -8.69506 -1e-06
      vertex -1.54998 10.1767 -1e-06
      vertex -1.46722 0.311868 -1e-06
    endloop
  endfacet
  facet normal 0 0 -1
    outer loop
      vertex -1.21352 0.881678 -1e-06
      vertex -1.46722 0.311868 -1e-06
      vertex 1.54998 10.1767 -1e-06
    endloop
  endfacet
  facet normal 0 0 -1
    outer loop
      vertex -1.52737 -8.69506 -1e-06
      vertex -1.46722 0.311868 -1e-06
      vertex -1.46722 -0.311868 -1e-06
    endloop
  endfacet
  facet normal 0 0 -1
    outer loop
      vertex -1.52737 -8.69506 -1e-06
      vertex -1.46722 -0.311868 -1e-06
      vertex -1.21352 -0.881678 -1e-06
    endloop
  endfacet
  facet normal 0 0 -1
    outer loop
      vertex -1.52737 -8.69506 -1e-06
      vertex -1.21352 -0.881678 -1e-06
      vertex -0.75 -1.29904 -1e-06
    endloop
  endfacet
  facet normal 0 0 -1
    outer loop
      vertex 0.463525 -1.42658 -1e-06
      vertex -1.52737 -8.69506 -1e-06
      vertex -0.156793 -1.49178 -1e-06
    endloop
  endfacet
  facet normal 0 0 -1
    outer loop
      vertex 1.37032 0.610105 -1e-06
      vertex 2.018 6.36489 -1e-06
      vertex 1.5 0 -1e-06
    endloop
  endfacet
  facet normal 0 0 -1
    outer loop
      vertex -1.52737 -8.69506 -1e-06
      vertex 0.463525 -1.42658 -1e-06
      vertex 2.46059 -5.34315 -1e-06
    endloop
  endfacet
  facet normal 0 0 -1
    outer loop
      vertex 0.463525 1.42658 -1e-06
      vertex 2.018 6.36489 -1e-06
      vertex 1.0037 1.11472 -1e-06
    endloop
  endfacet
  facet normal 0 0 -1
    outer loop
      vertex 0.463525 -1.42658 -1e-06
      vertex 1.0037 -1.11472 -1e-06
      vertex 2.46059 -5.34315 -1e-06
    endloop
  endfacet
  facet normal 0 0 -1
    outer loop
      vertex 1.0037 1.11472 -1e-06
      vertex 2.018 6.36489 -1e-06
      vertex 1.37032 0.610105 -1e-06
    endloop
  endfacet
  facet normal 0 0 -1
    outer loop
      vertex 1.0037 -1.11472 -1e-06
      vertex 1.37032 -0.610105 -1e-06
      vertex 2.46059 -5.34315 -1e-06
    endloop
  endfacet
  facet normal 0 0 -1
    outer loop
      vertex 1.37032 -0.610105 -1e-06
      vertex 1.5 0 -1e-06
      vertex 2.46059 -5.34315 -1e-06
    endloop
  endfacet
  facet normal 0 0 -1
    outer loop
      vertex -0.156793 1.49178 -1e-06
      vertex 1.54998 10.1767 -1e-06
      vertex 0.463525 1.42658 -1e-06
    endloop
  endfacet
  facet normal 0 0 -1
    outer loop
      vertex -1.21352 0.881678 -1e-06
      vertex 1.54998 10.1767 -1e-06
      vertex -0.75 1.29904 -1e-06
    endloop
  endfacet
  facet normal 0 0 -1
    outer loop
      vertex -0.156793 -1.49178 -1e-06
      vertex -1.52737 -8.69506 -1e-06
      vertex -0.75 -1.29904 -1e-06
    endloop
  endfacet
  facet normal 0 0 -1
    outer loop
      vertex -0.75 1.29904 -1e-06
      vertex 1.54998 10.1767 -1e-06
      vertex -0.156793 1.49178 -1e-06
    endloop
  endfacet
  facet normal -0.911667 0.111934 -0.395392
    outer loop
      vertex -2.018 6.36489 -1e-06
      vertex -2.8854 6.36489 2
      vertex -1.54998 10.1767 -1e-06
    endloop
  endfacet
  facet normal -0.942876 0.184933 -0.2771
    outer loop
      vertex -1.54998 10.1767 -1e-06
      vertex -2.8854 6.36489 2
      vertex -2.22049 9.75494 2
    endloop
  endfacet
  facet normal 0.119632 -0.992818 5.94166e-07
    outer loop
      vertex -2e-06 -9 3.34189
      vertex -2e-06 -9 -1e-06
      vertex 2.53069 -8.69506 1.76597
    endloop
  endfacet
  facet normal 0.194585 -0.974636 -0.11055
    outer loop
      vertex 2.53069 -8.69506 1.76597
      vertex -2e-06 -9 -1e-06
      vertex 1.52737 -8.69506 -1e-06
    endloop
  endfacet
  facet normal -0.488981 0.872066 0.019985
    outer loop
      vertex -1.54998 10.1767 -1e-06
      vertex -2.22049 9.75494 2
      vertex -2e-06 11 2
    endloop
  endfacet
  facet normal 0 0.924721 -0.380645
    outer loop
      vertex 1.54998 10.1767 -1e-06
      vertex -1.54998 10.1767 -1e-06
      vertex -2e-06 11 2
    endloop
  endfacet
  facet normal 0.48898 0.872066 0.0199853
    outer loop
      vertex 1.54998 10.1767 -1e-06
      vertex -2e-06 11 2
      vertex 2.22049 9.75494 2
    endloop
  endfacet
  facet normal 0.942876 0.184933 -0.2771
    outer loop
      vertex 2.8854 6.36489 2
      vertex 1.54998 10.1767 -1e-06
      vertex 2.22049 9.75494 2
    endloop
  endfacet
  facet normal 0.911667 0.111934 -0.395392
    outer loop
      vertex 2.018 6.36489 -1e-06
      vertex 1.54998 10.1767 -1e-06
      vertex 2.8854 6.36489 2
    endloop
  endfacet
  facet normal 0.915671 0.0619328 -0.397128
    outer loop
      vertex 3.80838 -7.28124 2
      vertex 2.018 6.36489 -1e-06
      vertex 2.8854 6.36489 2
    endloop
  endfacet
  facet normal 5.11745e-07 -3.86682e-08 -1
    outer loop
      vertex 3.80838 -7.28124 2
      vertex 2.8854 6.36489 2
      vertex 4.60792 3.30015 2
    endloop
  endfacet
  facet normal 0.814701 0.457898 0.355799
    outer loop
      vertex 4.60792 3.30015 2
      vertex 2.8854 6.36489 2
      vertex 4.30289 3.30015 2.69845
    endloop
  endfacet
  facet normal -0.153013 0.151774 0.9765
    outer loop
      vertex 4.30289 3.30015 2.69845
      vertex 2.8854 6.36489 2
      vertex 3.62615 2.59562 2.70191
    endloop
  endfacet
  facet normal -0.0415205 0.0447848 0.998133
    outer loop
      vertex 4.30289 3.30015 2.69845
      vertex 3.62615 2.59562 2.70191
      vertex 3.93883 -7.28124 3.15808
    endloop
  endfacet
  facet normal -0.17837 0.0488251 0.982751
    outer loop
      vertex 4.30289 3.30015 2.69845
      vertex 3.93883 -7.28124 3.15808
      vertex 5.15054 0.533085 2.98978
    endloop
  endfacet
  facet normal 0.123613 0.00220502 0.992328
    outer loop
      vertex 5.15054 0.533085 2.98978
      vertex 3.93883 -7.28124 3.15808
      vertex 5.43489 -7.28124 2.97172
    endloop
  endfacet
  facet normal 0 0 -1
    outer loop
      vertex 4.70122 -7.28124 2
      vertex 3.80838 -7.28124 2
      vertex 4.60792 3.30015 2
    endloop
  endfacet
  facet normal 0.84289 0.0318633 -0.537141
    outer loop
      vertex 2.46059 -5.34315 -1e-06
      vertex 2.018 6.36489 -1e-06
      vertex 3.80838 -7.28124 2
    endloop
  endfacet
  facet normal 0.712821 -0.198459 -0.672681
    outer loop
      vertex 3.80838 -7.28124 2
      vertex 1.52737 -8.69506 -1e-06
      vertex 2.46059 -5.34315 -1e-06
    endloop
  endfacet
  facet normal 0.710966 -0.575648 -0.403927
    outer loop
      vertex 2.53069 -8.69506 1.76597
      vertex 1.52737 -8.69506 -1e-06
      vertex 3.80838 -7.28124 2
    endloop
  endfacet
  facet normal 0.348722 -0.0470825 0.936043
    outer loop
      vertex 6.12179 -1.24779 3.01929
      vertex 5.43489 -7.28124 2.97172
      vertex 6.15654 -7.28124 2.70287
    endloop
  endfacet
  facet normal -0.0370786 -0.00365838 0.999306
    outer loop
      vertex 6.12179 -1.24779 3.01929
      vertex 5.15054 0.533085 2.98978
      vertex 5.43489 -7.28124 2.97172
    endloop
  endfacet
  facet normal 0.972199 -0.00667559 0.234062
    outer loop
      vertex 6.37185 -0.569014 2
      vertex 6.12179 -1.24779 3.01929
      vertex 6.15654 -7.28124 2.70287
    endloop
  endfacet
  facet normal 0.972133 -0.00664507 0.234334
    outer loop
      vertex 6.37185 -0.569014 2
      vertex 6.15654 -7.28124 2.70287
      vertex 6.32597 -7.28124 2
    endloop
  endfacet
  facet normal 0 -1.48982e-07 -1
    outer loop
      vertex 4.70122 -7.28124 2
      vertex 5.6502 -0.569014 2
      vertex 6.32597 -7.28124 2
    endloop
  endfacet
  facet normal 0 -1.48982e-07 -1
    outer loop
      vertex 6.32597 -7.28124 2
      vertex 5.6502 -0.569014 2
      vertex 6.37185 -0.569014 2
    endloop
  endfacet
  facet normal -9.91904e-07 -8.74561e-09 -1
    outer loop
      vertex 4.70122 -7.28124 2
      vertex 4.60792 3.30015 2
      vertex 5.6502 -0.569014 2
    endloop
  endfacet
  facet normal 0.913545 -0.406737 0
    outer loop
      vertex -1.21352 0.881678 -1e-06
      vertex -1.21352 0.881678 2.25
      vertex -1.46722 0.311868 2.25
    endloop
  endfacet
  facet normal 0.913545 -0.406737 0
    outer loop
      vertex -1.46722 0.311868 -1e-06
      vertex -1.21352 0.881678 -1e-06
      vertex -1.46722 0.311868 2.25
    endloop
  endfacet
  facet normal 1 0 0
    outer loop
      vertex -1.46722 0.311868 -1e-06
      vertex -1.46722 0.311868 2.25
      vertex -1.46722 -0.311868 2.25
    endloop
  endfacet
  facet normal 1 0 0
    outer loop
      vertex -1.46722 -0.311868 -1e-06
      vertex -1.46722 0.311868 -1e-06
      vertex -1.46722 -0.311868 2.25
    endloop
  endfacet
  facet normal 0.669131 -0.743145 0
    outer loop
      vertex -0.75 1.29904 -1e-06
      vertex -0.75 1.29904 2.25
      vertex -1.21352 0.881678 2.25
    endloop
  endfacet
  facet normal 0.669131 -0.743145 0
    outer loop
      vertex -1.21352 0.881678 -1e-06
      vertex -0.75 1.29904 -1e-06
      vertex -1.21352 0.881678 2.25
    endloop
  endfacet
  facet normal 0.309018 -0.951056 0
    outer loop
      vertex -0.156793 1.49178 -1e-06
      vertex -0.156793 1.49178 2.25
      vertex -0.75 1.29904 2.25
    endloop
  endfacet
  facet normal 0.309018 -0.951056 0
    outer loop
      vertex -0.75 1.29904 -1e-06
      vertex -0.156793 1.49178 -1e-06
      vertex -0.75 1.29904 2.25
    endloop
  endfacet
  facet normal -0.104528 -0.994522 0
    outer loop
      vertex 0.463525 1.42658 -1e-06
      vertex 0.463525 1.42658 2.25
      vertex -0.156793 1.49178 2.25
    endloop
  endfacet
  facet normal -0.104528 -0.994522 0
    outer loop
      vertex -0.156793 1.49178 -1e-06
      vertex 0.463525 1.42658 -1e-06
      vertex -0.156793 1.49178 2.25
    endloop
  endfacet
  facet normal -0.5 -0.866025 0
    outer loop
      vertex 1.0037 1.11472 -1e-06
      vertex 1.0037 1.11472 2.25
      vertex 0.463525 1.42658 2.25
    endloop
  endfacet
  facet normal -0.5 -0.866025 0
    outer loop
      vertex 0.463525 1.42658 -1e-06
      vertex 1.0037 1.11472 -1e-06
      vertex 0.463525 1.42658 2.25
    endloop
  endfacet
  facet normal -0.809017 -0.587785 0
    outer loop
      vertex 1.37032 0.610105 2.25
      vertex 1.0037 1.11472 2.25
      vertex 1.37032 0.610105 -1e-06
    endloop
  endfacet
  facet normal -0.809017 -0.587785 0
    outer loop
      vertex 1.37032 0.610105 -1e-06
      vertex 1.0037 1.11472 2.25
      vertex 1.0037 1.11472 -1e-06
    endloop
  endfacet
  facet normal -0.978148 -0.207912 0
    outer loop
      vertex 1.5 0 2.25
      vertex 1.37032 0.610105 2.25
      vertex 1.5 0 -1e-06
    endloop
  endfacet
  facet normal -0.978148 -0.207912 0
    outer loop
      vertex 1.5 0 -1e-06
      vertex 1.37032 0.610105 2.25
      vertex 1.37032 0.610105 -1e-06
    endloop
  endfacet
  facet normal -0.978148 0.207912 0
    outer loop
      vertex 1.5 0 2.25
      vertex 1.5 0 -1e-06
      vertex 1.37032 -0.610105 2.25
    endloop
  endfacet
  facet normal -0.978148 0.207912 0
    outer loop
      vertex 1.37032 -0.610105 2.25
      vertex 1.5 0 -1e-06
      vertex 1.37032 -0.610105 -1e-06
    endloop
  endfacet
  facet normal -0.809017 0.587785 0
    outer loop
      vertex 1.37032 -0.610105 2.25
      vertex 1.37032 -0.610105 -1e-06
      vertex 1.0037 -1.11472 2.25
    endloop
  endfacet
  facet normal -0.809017 0.587785 0
    outer loop
      vertex 1.0037 -1.11472 2.25
      vertex 1.37032 -0.610105 -1e-06
      vertex 1.0037 -1.11472 -1e-06
    endloop
  endfacet
  facet normal -0.5 0.866025 0
    outer loop
      vertex 1.0037 -1.11472 2.25
      vertex 1.0037 -1.11472 -1e-06
      vertex 0.463525 -1.42658 2.25
    endloop
  endfacet
  facet normal -0.5 0.866025 0
    outer loop
      vertex 0.463525 -1.42658 2.25
      vertex 1.0037 -1.11472 -1e-06
      vertex 0.463525 -1.42658 -1e-06
    endloop
  endfacet
  facet normal -0.104528 0.994522 0
    outer loop
      vertex 0.463525 -1.42658 2.25
      vertex 0.463525 -1.42658 -1e-06
      vertex -0.156793 -1.49178 2.25
    endloop
  endfacet
  facet normal -0.104528 0.994522 0
    outer loop
      vertex -0.156793 -1.49178 2.25
      vertex 0.463525 -1.42658 -1e-06
      vertex -0.156793 -1.49178 -1e-06
    endloop
  endfacet
  facet normal 0.309018 0.951056 0
    outer loop
      vertex -0.156793 -1.49178 2.25
      vertex -0.156793 -1.49178 -1e-06
      vertex -0.75 -1.29904 2.25
    endloop
  endfacet
  facet normal 0.309018 0.951056 0
    outer loop
      vertex -0.75 -1.29904 2.25
      vertex -0.156793 -1.49178 -1e-06
      vertex -0.75 -1.29904 -1e-06
    endloop
  endfacet
  facet normal 0.669131 0.743145 0
    outer loop
      vertex -0.75 -1.29904 2.25
      vertex -0.75 -1.29904 -1e-06
      vertex -1.21352 -0.881678 2.25
    endloop
  endfacet
  facet normal 0.669131 0.743145 0
    outer loop
      vertex -1.21352 -0.881678 2.25
      vertex -0.75 -1.29904 -1e-06
      vertex -1.21352 -0.881678 -1e-06
    endloop
  endfacet
  facet normal 0.913545 0.406737 0
    outer loop
      vertex -1.46722 -0.311868 2.25
      vertex -1.21352 -0.881678 2.25
      vertex -1.21352 -0.881678 -1e-06
    endloop
  endfacet
  facet normal 0.913545 0.406737 0
    outer loop
      vertex -1.46722 -0.311868 -1e-06
      vertex -1.46722 -0.311868 2.25
      vertex -1.21352 -0.881678 -1e-06
    endloop
  endfacet
  facet normal 0.735094 0.351515 0.579718
    outer loop
      vertex 5.32958 1.79102 2
      vertex 4.60792 3.30015 2
      vertex 5.15054 0.533085 2.98978
    endloop
  endfacet
  facet normal 0.872091 0.307249 0.380862
    outer loop
      vertex 4.60792 3.30015 2
      vertex 4.30289 3.30015 2.69845
      vertex 5.15054 0.533085 2.98978
    endloop
  endfacet
  facet normal 1.23774e-06 5.91877e-07 -1
    outer loop
      vertex 5.6502 -0.569014 2
      vertex 4.60792 3.30015 2
      vertex 5.32958 1.79102 2
    endloop
  endfacet
  facet normal 0.688274 0.385556 0.614513
    outer loop
      vertex 5.32958 1.79102 2
      vertex 5.15054 0.533085 2.98978
      vertex 6.12179 -1.24779 3.01929
    endloop
  endfacet
  facet normal 0.820328 0.362286 0.442506
    outer loop
      vertex 6.37185 -0.569014 2
      vertex 5.32958 1.79102 2
      vertex 6.12179 -1.24779 3.01929
    endloop
  endfacet
  facet normal 0 4.23723e-07 -1
    outer loop
      vertex 5.6502 -0.569014 2
      vertex 5.32958 1.79102 2
      vertex 6.37185 -0.569014 2
    endloop
  endfacet
  facet normal 0 0 -1
    outer loop
      vertex -1.21352 0.881678 2.25
      vertex -0.75 1.29904 2.25
      vertex -1.46722 0.311868 2.25
    endloop
  endfacet
  facet normal 0 0 -1
    outer loop
      vertex -1.46722 0.311868 2.25
      vertex -0.75 1.29904 2.25
      vertex -0.156793 1.49178 2.25
    endloop
  endfacet
  facet normal 0 0 -1
    outer loop
      vertex -1.46722 0.311868 2.25
      vertex -0.156793 1.49178 2.25
      vertex 0.463525 1.42658 2.25
    endloop
  endfacet
  facet normal 0 0 -1
    outer loop
      vertex -1.46722 0.311868 2.25
      vertex 0.463525 1.42658 2.25
      vertex 1.0037 1.11472 2.25
    endloop
  endfacet
  facet normal 0 0 -1
    outer loop
      vertex -1.46722 0.311868 2.25
      vertex 1.0037 1.11472 2.25
      vertex 1.37032 0.610105 2.25
    endloop
  endfacet
  facet normal 0 0 -1
    outer loop
      vertex -1.46722 0.311868 2.25
      vertex 1.37032 0.610105 2.25
      vertex 1.5 0 2.25
    endloop
  endfacet
  facet normal 0 0 -1
    outer loop
      vertex -1.46722 0.311868 2.25
      vertex 1.5 0 2.25
      vertex 1.37032 -0.610105 2.25
    endloop
  endfacet
  facet normal 0 0 -1
    outer loop
      vertex -1.46722 0.311868 2.25
      vertex 1.37032 -0.610105 2.25
      vertex 1.0037 -1.11472 2.25
    endloop
  endfacet
  facet normal 0 0 -1
    outer loop
      vertex -1.46722 0.311868 2.25
      vertex 1.0037 -1.11472 2.25
      vertex 0.463525 -1.42658 2.25
    endloop
  endfacet
  facet normal 0 0 -1
    outer loop
      vertex -1.46722 0.311868 2.25
      vertex 0.463525 -1.42658 2.25
      vertex -0.156793 -1.49178 2.25
    endloop
  endfacet
  facet normal 0 0 -1
    outer loop
      vertex -1.46722 0.311868 2.25
      vertex -0.156793 -1.49178 2.25
      vertex -0.75 -1.29904 2.25
    endloop
  endfacet
  facet normal 0 0 -1
    outer loop
      vertex -1.46722 0.311868 2.25
      vertex -0.75 -1.29904 2.25
      vertex -1.21352 -0.881678 2.25
    endloop
  endfacet
  facet normal 0 0 -1
    outer loop
      vertex -1.46722 0.311868 2.25
      vertex -1.21352 -0.881678 2.25
      vertex -1.46722 -0.311868 2.25
    endloop
  endfacet
endsolid OpenSCAD_Model
