solid OpenSCAD_Model
  facet normal 0 -1.48982e-07 -1
    outer loop
      vertex -9.89944 -0.569014 2
      vertex -8.67204 -0.569014 2
      vertex -9.8214 -7.28124 2
    endloop
  endfacet
  facet normal 0 -1.48982e-07 -1
    outer loop
      vertex -9.8214 -7.28124 2
      vertex -8.67204 -0.569014 2
      vertex -7.058 -7.28124 2
    endloop
  endfacet
  facet normal 0 4.23723e-07 -1
    outer loop
      vertex -8.67204 -0.569014 2
      vertex -9.89944 -0.569014 2
      vertex -8.12672 1.79102 2
    endloop
  endfacet
  facet normal -0.644699 0.484259 0.591487
    outer loop
      vertex -8.12672 1.79102 2
      vertex -9.89944 -0.569014 2
      vertex -9.47413 -1.24779 3.01929
    endloop
  endfacet
  facet normal -0.925366 -0.0108071 0.37892
    outer loop
      vertex -9.47413 -1.24779 3.01929
      vertex -9.89944 -0.569014 2
      vertex -9.53323 -7.28124 2.70287
    endloop
  endfacet
  facet normal -0.925204 -0.0107566 0.379317
    outer loop
      vertex -9.53323 -7.28124 2.70287
      vertex -9.89944 -0.569014 2
      vertex -9.8214 -7.28124 2
    endloop
  endfacet
  facet normal 0 -1 0
    outer loop
      vertex -9.53323 -7.28124 2.70287
      vertex -9.8214 -7.28124 2
      vertex -7.058 -7.28124 2
    endloop
  endfacet
  facet normal 0 -1 0
    outer loop
      vertex -5.76131 -7.28124 3.15808
      vertex -9.53323 -7.28124 2.70287
      vertex -5.53944 -7.28124 2
    endloop
  endfacet
  facet normal 0 -1 0
    outer loop
      vertex -5.53944 -7.28124 2
      vertex -9.53323 -7.28124 2.70287
      vertex -7.058 -7.28124 2
    endloop
  endfacet
  facet normal 0 -1 0
    outer loop
      vertex -4.76046 -7.28124 4.25
      vertex -5.76131 -7.28124 3.15808
      vertex -5.53944 -7.28124 2
    endloop
  endfacet
  facet normal 0 -1 0
    outer loop
      vertex -8.30584 -7.28124 2.97172
      vertex -9.53323 -7.28124 2.70287
      vertex -5.76131 -7.28124 3.15808
    endloop
  endfacet
  facet normal 0 0 -1
    outer loop
      vertex -5.53944 -7.28124 2
      vertex -7.058 -7.28124 2
      vertex -6.89932 3.30015 2
    endloop
  endfacet
  facet normal 5.83194e-07 -8.74566e-09 -1
    outer loop
      vertex -7.058 -7.28124 2
      vertex -8.67204 -0.569014 2
      vertex -6.89932 3.30015 2
    endloop
  endfacet
  facet normal -7.27735e-07 5.91876e-07 -1
    outer loop
      vertex -6.89932 3.30015 2
      vertex -8.67204 -0.569014 2
      vertex -8.12672 1.79102 2
    endloop
  endfacet
  facet normal -0.537556 0.437201 0.721033
    outer loop
      vertex -6.89932 3.30015 2
      vertex -8.12672 1.79102 2
      vertex -7.82221 0.533084 2.98978
    endloop
  endfacet
  facet normal -0.487155 0.464141 0.739766
    outer loop
      vertex -8.12672 1.79102 2
      vertex -9.47413 -1.24779 3.01929
      vertex -7.82221 0.533084 2.98978
    endloop
  endfacet
  facet normal -0.213711 -0.0490754 0.975663
    outer loop
      vertex -9.47413 -1.24779 3.01929
      vertex -9.53323 -7.28124 2.70287
      vertex -8.30584 -7.28124 2.97172
    endloop
  endfacet
  facet normal 0.0218103 -0.00366003 0.999755
    outer loop
      vertex -7.82221 0.533084 2.98978
      vertex -9.47413 -1.24779 3.01929
      vertex -8.30584 -7.28124 2.97172
    endloop
  endfacet
  facet normal -0.0730445 0.00221613 0.997326
    outer loop
      vertex -7.82221 0.533084 2.98978
      vertex -8.30584 -7.28124 2.97172
      vertex -5.76131 -7.28124 3.15808
    endloop
  endfacet
  facet normal 0.105982 0.0493414 0.993143
    outer loop
      vertex -6.38052 3.30015 2.69845
      vertex -7.82221 0.533084 2.98978
      vertex -5.76131 -7.28124 3.15808
    endloop
  endfacet
  facet normal 0.0244259 0.0448101 0.998697
    outer loop
      vertex -5.2295 2.59562 2.70191
      vertex -6.38052 3.30015 2.69845
      vertex -5.76131 -7.28124 3.15808
    endloop
  endfacet
  facet normal -0.589141 0.0689046 0.805087
    outer loop
      vertex -5.2295 2.59562 2.70191
      vertex -5.76131 -7.28124 3.15808
      vertex -3.61906 -1.7229 4.25
    endloop
  endfacet
  facet normal -0.728875 0.149673 0.668086
    outer loop
      vertex -3.61906 -1.7229 4.25
      vertex -5.76131 -7.28124 3.15808
      vertex -4.76046 -7.28124 4.25
    endloop
  endfacet
  facet normal -0.522577 -0.833174 0.180924
    outer loop
      vertex -4.76046 -7.28124 4.25
      vertex -5.53944 -7.28124 2
      vertex -3.36633 -8.69506 1.76597
    endloop
  endfacet
  facet normal 0 0 1
    outer loop
      vertex -3.61906 -1.7229 4.25
      vertex -4.76046 -7.28124 4.25
      vertex -2.77446 -8.69506 4.25
    endloop
  endfacet
  facet normal 0 0 1
    outer loop
      vertex 2.77446 -8.69506 4.25
      vertex -3.61906 -1.7229 4.25
      vertex -2e-06 -6.87856 4.25
    endloop
  endfacet
  facet normal 0 0 1
    outer loop
      vertex -2e-06 -6.87856 4.25
      vertex -3.61906 -1.7229 4.25
      vertex -2.77446 -8.69506 4.25
    endloop
  endfacet
  facet normal 0 0 1
    outer loop
      vertex 4.76046 -7.28124 4.25
      vertex -3.61906 -1.7229 4.25
      vertex 2.77446 -8.69506 4.25
    endloop
  endfacet
  facet normal 0 0 1
    outer loop
      vertex 3.61906 -1.7229 4.25
      vertex -3.61906 -1.7229 4.25
      vertex 4.76046 -7.28124 4.25
    endloop
  endfacet
  facet normal 0 0 1
    outer loop
      vertex 2.83874 2.9122 4.25
      vertex -3.61906 -1.7229 4.25
      vertex 3.61906 -1.7229 4.25
    endloop
  endfacet
  facet normal 0 0 1
    outer loop
      vertex -2e-06 2.9122 4.25
      vertex -3.61906 -1.7229 4.25
      vertex 2.83874 2.9122 4.25
    endloop
  endfacet
  facet normal 0 0 1
    outer loop
      vertex -2.83874 2.9122 4.25
      vertex -3.61906 -1.7229 4.25
      vertex -2e-06 2.9122 4.25
    endloop
  endfacet
  facet normal -0.574488 -0.806986 0.136885
    outer loop
      vertex -2.77446 -8.69506 4.25
      vertex -4.76046 -7.28124 4.25
      vertex -3.36633 -8.69506 1.76597
    endloop
  endfacet
  facet normal -0.510968 -0.703652 -0.493746
    outer loop
      vertex -3.36633 -8.69506 1.76597
      vertex -5.53944 -7.28124 2
      vertex -1.65988 -8.69506 -1e-06
    endloop
  endfacet
  facet normal -0.512964 -0.242904 -0.823326
    outer loop
      vertex -1.65988 -8.69506 -1e-06
      vertex -5.53944 -7.28124 2
      vertex -3.24711 -5.34315 -1e-06
    endloop
  endfacet
  facet normal -0.677458 0.0435572 -0.734271
    outer loop
      vertex -3.24711 -5.34315 -1e-06
      vertex -5.53944 -7.28124 2
      vertex -2.49434 6.36489 -1e-06
    endloop
  endfacet
  facet normal -0.80132 0.0921815 -0.591091
    outer loop
      vertex -2.49434 6.36489 -1e-06
      vertex -5.53944 -7.28124 2
      vertex -3.96963 6.36489 2
    endloop
  endfacet
  facet normal -3.00883e-07 -3.86682e-08 -1
    outer loop
      vertex -5.53944 -7.28124 2
      vertex -6.89932 3.30015 2
      vertex -3.96963 6.36489 2
    endloop
  endfacet
  facet normal -0.636861 0.608796 0.473049
    outer loop
      vertex -3.96963 6.36489 2
      vertex -6.89932 3.30015 2
      vertex -6.38052 3.30015 2.69845
    endloop
  endfacet
  facet normal -0.723425 0.43349 0.537348
    outer loop
      vertex -6.89932 3.30015 2
      vertex -7.82221 0.533084 2.98978
      vertex -6.38052 3.30015 2.69845
    endloop
  endfacet
  facet normal 0.0906617 0.15295 0.984066
    outer loop
      vertex -3.96963 6.36489 2
      vertex -6.38052 3.30015 2.69845
      vertex -5.2295 2.59562 2.70191
    endloop
  endfacet
  facet normal -0.229049 0.251666 0.94032
    outer loop
      vertex -3.96963 6.36489 2
      vertex -5.2295 2.59562 2.70191
      vertex -3.61906 -1.7229 4.25
    endloop
  endfacet
  facet normal -0.788747 0.132786 0.600205
    outer loop
      vertex -2.83874 2.9122 4.25
      vertex -3.96963 6.36489 2
      vertex -3.61906 -1.7229 4.25
    endloop
  endfacet
  facet normal -0.101403 -0.994552 0.0241615
    outer loop
      vertex -2.77446 -8.69506 4.25
      vertex -3.36633 -8.69506 1.76597
      vertex -2e-06 -9 3.34189
    endloop
  endfacet
  facet normal -0.0902161 -0.995922 5.96024e-07
    outer loop
      vertex -2e-06 -9 3.34189
      vertex -3.36633 -8.69506 1.76597
      vertex -2e-06 -9 -1e-06
    endloop
  endfacet
  facet normal -0.177996 -0.968883 -0.171995
    outer loop
      vertex -2e-06 -9 -1e-06
      vertex -3.36633 -8.69506 1.76597
      vertex -1.65988 -8.69506 -1e-06
    endloop
  endfacet
  facet normal -0.683498 0.22801 0.693428
    outer loop
      vertex -2.83874 9.75494 2
      vertex -3.96963 6.36489 2
      vertex -2.83874 2.9122 4.25
    endloop
  endfacet
  facet normal 0 0.312363 0.949963
    outer loop
      vertex -2.83874 9.75494 2
      vertex -2.83874 2.9122 4.25
      vertex -2e-06 2.9122 4.25
    endloop
  endfacet
  facet normal 0.116748 0.266186 0.956825
    outer loop
      vertex -2e-06 11 2
      vertex -2e-06 2.9122 4.25
      vertex 2.83874 9.75494 2
    endloop
  endfacet
  facet normal 0 0.312363 0.949963
    outer loop
      vertex 2.83874 9.75494 2
      vertex -2e-06 2.9122 4.25
      vertex 2.83874 2.9122 4.25
    endloop
  endfacet
  facet normal -0.116748 0.266186 0.956825
    outer loop
      vertex -2e-06 11 2
      vertex -2.83874 9.75494 2
      vertex -2e-06 2.9122 4.25
    endloop
  endfacet
  facet normal 0.683498 0.22801 0.693428
    outer loop
      vertex 2.83874 9.75494 2
      vertex 2.83874 2.9122 4.25
      vertex 3.96963 6.36489 2
    endloop
  endfacet
  facet normal 0.788747 0.132786 0.600205
    outer loop
      vertex 3.96963 6.36489 2
      vertex 2.83874 2.9122 4.25
      vertex 3.61906 -1.7229 4.25
    endloop
  endfacet
  facet normal 0.229049 0.251666 0.94032
    outer loop
      vertex 3.96963 6.36489 2
      vertex 3.61906 -1.7229 4.25
      vertex 5.2295 2.59562 2.70191
    endloop
  endfacet
  facet normal 0.589141 0.0689046 0.805087
    outer loop
      vertex 5.2295 2.59562 2.70191
      vertex 3.61906 -1.7229 4.25
      vertex 5.76131 -7.28124 3.15808
    endloop
  endfacet
  facet normal 0.728875 0.149673 0.668086
    outer loop
      vertex 5.76131 -7.28124 3.15808
      vertex 3.61906 -1.7229 4.25
      vertex 4.76046 -7.28124 4.25
    endloop
  endfacet
  facet normal 0.522577 -0.833174 0.180924
    outer loop
      vertex 4.76046 -7.28124 4.25
      vertex 3.36633 -8.69506 1.76597
      vertex 5.53944 -7.28124 2
    endloop
  endfacet
  facet normal 0.574488 -0.806986 0.136885
    outer loop
      vertex 4.76046 -7.28124 4.25
      vertex 2.77446 -8.69506 4.25
      vertex 3.36633 -8.69506 1.76597
    endloop
  endfacet
  facet normal 0 -1 0
    outer loop
      vertex 5.76131 -7.28124 3.15808
      vertex 4.76046 -7.28124 4.25
      vertex 5.53944 -7.28124 2
    endloop
  endfacet
  facet normal 0 -1 0
    outer loop
      vertex 7.058 -7.28124 2
      vertex 5.76131 -7.28124 3.15808
      vertex 5.53944 -7.28124 2
    endloop
  endfacet
  facet normal 0 -1 0
    outer loop
      vertex 8.30584 -7.28124 2.97172
      vertex 9.8214 -7.28124 2
      vertex 9.53323 -7.28124 2.70287
    endloop
  endfacet
  facet normal 0 -1 0
    outer loop
      vertex 8.30584 -7.28124 2.97172
      vertex 7.058 -7.28124 2
      vertex 9.8214 -7.28124 2
    endloop
  endfacet
  facet normal 0 -1 0
    outer loop
      vertex 8.30584 -7.28124 2.97172
      vertex 5.76131 -7.28124 3.15808
      vertex 7.058 -7.28124 2
    endloop
  endfacet
  facet normal 0.101403 -0.994552 0.0241615
    outer loop
      vertex 2.77446 -8.69506 4.25
      vertex -2e-06 -9 3.34189
      vertex 3.36633 -8.69506 1.76597
    endloop
  endfacet
  facet normal -0.249501 -0.38108 0.89024
    outer loop
      vertex -2e-06 -6.87856 4.25
      vertex -2e-06 -9 3.34189
      vertex 2.77446 -8.69506 4.25
    endloop
  endfacet
  facet normal 0.249501 -0.38108 0.89024
    outer loop
      vertex -2e-06 -6.87856 4.25
      vertex -2.77446 -8.69506 4.25
      vertex -2e-06 -9 3.34189
    endloop
  endfacet
  facet normal 0 0 -1
    outer loop
      vertex -3.24711 -5.34315 -1e-06
      vertex -2.49434 6.36489 -1e-06
      vertex -1.65988 -8.69506 -1e-06
    endloop
  endfacet
  facet normal 0 0 -1
    outer loop
      vertex -1.65988 -8.69506 -1e-06
      vertex -2.49434 6.36489 -1e-06
      vertex -1.69833 10.1767 -1e-06
    endloop
  endfacet
  facet normal 0 0 -1
    outer loop
      vertex -1.46722 0.311868 -1e-06
      vertex -1.69833 10.1767 -1e-06
      vertex 1.69833 10.1767 -1e-06
    endloop
  endfacet
  facet normal 0 0 -1
    outer loop
      vertex 0.463525 1.42658 -1e-06
      vertex 1.69833 10.1767 -1e-06
      vertex 2.49434 6.36489 -1e-06
    endloop
  endfacet
  facet normal 0 0 -1
    outer loop
      vertex 1.5 0 -1e-06
      vertex 2.49434 6.36489 -1e-06
      vertex 3.24711 -5.34315 -1e-06
    endloop
  endfacet
  facet normal 0 0 -1
    outer loop
      vertex -1.65988 -8.69506 -1e-06
      vertex 3.24711 -5.34315 -1e-06
      vertex 1.65988 -8.69506 -1e-06
    endloop
  endfacet
  facet normal 0 0 -1
    outer loop
      vertex -1.65988 -8.69506 -1e-06
      vertex 1.65988 -8.69506 -1e-06
      vertex -2e-06 -9 -1e-06
    endloop
  endfacet
  facet normal 0 0 -1
    outer loop
      vertex -1.65988 -8.69506 -1e-06
      vertex -1.69833 10.1767 -1e-06
      vertex -1.46722 0.311868 -1e-06
    endloop
  endfacet
  facet normal 0 0 -1
    outer loop
      vertex -1.21352 0.881678 -1e-06
      vertex -1.46722 0.311868 -1e-06
      vertex 1.69833 10.1767 -1e-06
    endloop
  endfacet
  facet normal 0 0 -1
    outer loop
      vertex -1.65988 -8.69506 -1e-06
      vertex -1.46722 0.311868 -1e-06
      vertex -1.46722 -0.311868 -1e-06
    endloop
  endfacet
  facet normal 0 0 -1
    outer loop
      vertex -1.65988 -8.69506 -1e-06
      vertex -1.46722 -0.311868 -1e-06
      vertex -1.21352 -0.881678 -1e-06
    endloop
  endfacet
  facet normal 0 0 -1
    outer loop
      vertex -1.65988 -8.69506 -1e-06
      vertex -1.21352 -0.881678 -1e-06
      vertex -0.75 -1.29904 -1e-06
    endloop
  endfacet
  facet normal 0 0 -1
    outer loop
      vertex 0.463525 1.42658 -1e-06
      vertex 2.49434 6.36489 -1e-06
      vertex 1.0037 1.11472 -1e-06
    endloop
  endfacet
  facet normal 0 0 -1
    outer loop
      vertex 0.463525 -1.42658 -1e-06
      vertex -1.65988 -8.69506 -1e-06
      vertex -0.156793 -1.49178 -1e-06
    endloop
  endfacet
  facet normal 0 0 -1
    outer loop
      vertex 1.37032 0.610105 -1e-06
      vertex 2.49434 6.36489 -1e-06
      vertex 1.5 0 -1e-06
    endloop
  endfacet
  facet normal 0 0 -1
    outer loop
      vertex -1.65988 -8.69506 -1e-06
      vertex 0.463525 -1.42658 -1e-06
      vertex 3.24711 -5.34315 -1e-06
    endloop
  endfacet
  facet normal 0 0 -1
    outer loop
      vertex 0.463525 -1.42658 -1e-06
      vertex 1.0037 -1.11472 -1e-06
      vertex 3.24711 -5.34315 -1e-06
    endloop
  endfacet
  facet normal 0 0 -1
    outer loop
      vertex 1.0037 1.11472 -1e-06
      vertex 2.49434 6.36489 -1e-06
      vertex 1.37032 0.610105 -1e-06
    endloop
  endfacet
  facet normal 0 0 -1
    outer loop
      vertex 1.0037 -1.11472 -1e-06
      vertex 1.37032 -0.610105 -1e-06
      vertex 3.24711 -5.34315 -1e-06
    endloop
  endfacet
  facet normal 0 0 -1
    outer loop
      vertex 1.37032 -0.610105 -1e-06
      vertex 1.5 0 -1e-06
      vertex 3.24711 -5.34315 -1e-06
    endloop
  endfacet
  facet normal 0 0 -1
    outer loop
      vertex -0.156793 1.49178 -1e-06
      vertex 1.69833 10.1767 -1e-06
      vertex 0.463525 1.42658 -1e-06
    endloop
  endfacet
  facet normal 0 0 -1
    outer loop
      vertex -0.75 1.29904 -1e-06
      vertex 1.69833 10.1767 -1e-06
      vertex -0.156793 1.49178 -1e-06
    endloop
  endfacet
  facet normal 0 0 -1
    outer loop
      vertex -1.21352 0.881678 -1e-06
      vertex 1.69833 10.1767 -1e-06
      vertex -0.75 1.29904 -1e-06
    endloop
  endfacet
  facet normal 0 0 -1
    outer loop
      vertex -0.156793 -1.49178 -1e-06
      vertex -1.65988 -8.69506 -1e-06
      vertex -0.75 -1.29904 -1e-06
    endloop
  endfacet
  facet normal -0.793618 0.165727 -0.58541
    outer loop
      vertex -2.49434 6.36489 -1e-06
      vertex -3.96963 6.36489 2
      vertex -1.69833 10.1767 -1e-06
    endloop
  endfacet
  facet normal -0.857136 0.285935 -0.428438
    outer loop
      vertex -1.69833 10.1767 -1e-06
      vertex -3.96963 6.36489 2
      vertex -2.83874 9.75494 2
    endloop
  endfacet
  facet normal 0.090216 -0.995922 5.96024e-07
    outer loop
      vertex -2e-06 -9 3.34189
      vertex -2e-06 -9 -1e-06
      vertex 3.36633 -8.69506 1.76597
    endloop
  endfacet
  facet normal 0.177995 -0.968884 -0.171995
    outer loop
      vertex 3.36633 -8.69506 1.76597
      vertex -2e-06 -9 -1e-06
      vertex 1.65988 -8.69506 -1e-06
    endloop
  endfacet
  facet normal -0.401404 0.915199 -0.0358675
    outer loop
      vertex -1.69833 10.1767 -1e-06
      vertex -2.83874 9.75494 2
      vertex -2e-06 11 2
    endloop
  endfacet
  facet normal 0 0.924721 -0.380645
    outer loop
      vertex 1.69833 10.1767 -1e-06
      vertex -1.69833 10.1767 -1e-06
      vertex -2e-06 11 2
    endloop
  endfacet
  facet normal 0.401403 0.915199 -0.0358672
    outer loop
      vertex 1.69833 10.1767 -1e-06
      vertex -2e-06 11 2
      vertex 2.83874 9.75494 2
    endloop
  endfacet
  facet normal 0.857136 0.285935 -0.428438
    outer loop
      vertex 3.96963 6.36489 2
      vertex 1.69833 10.1767 -1e-06
      vertex 2.83874 9.75494 2
    endloop
  endfacet
  facet normal 0.793618 0.165727 -0.58541
    outer loop
      vertex 2.49434 6.36489 -1e-06
      vertex 1.69833 10.1767 -1e-06
      vertex 3.96963 6.36489 2
    endloop
  endfacet
  facet normal 0.80132 0.0921815 -0.591091
    outer loop
      vertex 5.53944 -7.28124 2
      vertex 2.49434 6.36489 -1e-06
      vertex 3.96963 6.36489 2
    endloop
  endfacet
  facet normal 3.00883e-07 -3.86682e-08 -1
    outer loop
      vertex 5.53944 -7.28124 2
      vertex 3.96963 6.36489 2
      vertex 6.89932 3.30015 2
    endloop
  endfacet
  facet normal 0.636861 0.608796 0.473049
    outer loop
      vertex 6.89932 3.30015 2
      vertex 3.96963 6.36489 2
      vertex 6.38052 3.30015 2.69845
    endloop
  endfacet
  facet normal -0.0906617 0.15295 0.984066
    outer loop
      vertex 6.38052 3.30015 2.69845
      vertex 3.96963 6.36489 2
      vertex 5.2295 2.59562 2.70191
    endloop
  endfacet
  facet normal -0.0244259 0.0448101 0.998697
    outer loop
      vertex 6.38052 3.30015 2.69845
      vertex 5.2295 2.59562 2.70191
      vertex 5.76131 -7.28124 3.15808
    endloop
  endfacet
  facet normal -0.105982 0.0493414 0.993143
    outer loop
      vertex 6.38052 3.30015 2.69845
      vertex 5.76131 -7.28124 3.15808
      vertex 7.82221 0.533084 2.98978
    endloop
  endfacet
  facet normal 0.0730445 0.00221613 0.997326
    outer loop
      vertex 7.82221 0.533084 2.98978
      vertex 5.76131 -7.28124 3.15808
      vertex 8.30584 -7.28124 2.97172
    endloop
  endfacet
  facet normal 0 0 -1
    outer loop
      vertex 7.058 -7.28124 2
      vertex 5.53944 -7.28124 2
      vertex 6.89932 3.30015 2
    endloop
  endfacet
  facet normal 0.677458 0.0435572 -0.734271
    outer loop
      vertex 3.24711 -5.34315 -1e-06
      vertex 2.49434 6.36489 -1e-06
      vertex 5.53944 -7.28124 2
    endloop
  endfacet
  facet normal 0.512964 -0.242904 -0.823326
    outer loop
      vertex 5.53944 -7.28124 2
      vertex 1.65988 -8.69506 -1e-06
      vertex 3.24711 -5.34315 -1e-06
    endloop
  endfacet
  facet normal 0.510968 -0.703652 -0.493746
    outer loop
      vertex 3.36633 -8.69506 1.76597
      vertex 1.65988 -8.69506 -1e-06
      vertex 5.53944 -7.28124 2
    endloop
  endfacet
  facet normal 0.213711 -0.0490754 0.975663
    outer loop
      vertex 9.47413 -1.24779 3.01929
      vertex 8.30584 -7.28124 2.97172
      vertex 9.53323 -7.28124 2.70287
    endloop
  endfacet
  facet normal -0.0218103 -0.00366003 0.999755
    outer loop
      vertex 9.47413 -1.24779 3.01929
      vertex 7.82221 0.533084 2.98978
      vertex 8.30584 -7.28124 2.97172
    endloop
  endfacet
  facet normal 0.925366 -0.0108071 0.37892
    outer loop
      vertex 9.89944 -0.569014 2
      vertex 9.47413 -1.24779 3.01929
      vertex 9.53323 -7.28124 2.70287
    endloop
  endfacet
  facet normal 0.925204 -0.0107566 0.379317
    outer loop
      vertex 9.89944 -0.569014 2
      vertex 9.53323 -7.28124 2.70287
      vertex 9.8214 -7.28124 2
    endloop
  endfacet
  facet normal 0 -1.48982e-07 -1
    outer loop
      vertex 7.058 -7.28124 2
      vertex 8.67204 -0.569014 2
      vertex 9.8214 -7.28124 2
    endloop
  endfacet
  facet normal 0 -1.48982e-07 -1
    outer loop
      vertex 9.8214 -7.28124 2
      vertex 8.67204 -0.569014 2
      vertex 9.89944 -0.569014 2
    endloop
  endfacet
  facet normal -5.83194e-07 -8.74566e-09 -1
    outer loop
      vertex 7.058 -7.28124 2
      vertex 6.89932 3.30015 2
      vertex 8.67204 -0.569014 2
    endloop
  endfacet
  facet normal 1 0 0
    outer loop
      vertex -1.46722 0.311868 -1e-06
      vertex -1.46722 0.311868 2.5
      vertex -1.46722 -0.311868 2.5
    endloop
  endfacet
  facet normal 1 0 0
    outer loop
      vertex -1.46722 -0.311868 -1e-06
      vertex -1.46722 0.311868 -1e-06
      vertex -1.46722 -0.311868 2.5
    endloop
  endfacet
  facet normal 0.913545 -0.406737 0
    outer loop
      vertex -1.21352 0.881678 -1e-06
      vertex -1.21352 0.881678 2.5
      vertex -1.46722 0.311868 2.5
    endloop
  endfacet
  facet normal 0.913545 -0.406737 0
    outer loop
      vertex -1.46722 0.311868 -1e-06
      vertex -1.21352 0.881678 -1e-06
      vertex -1.46722 0.311868 2.5
    endloop
  endfacet
  facet normal 0.669131 -0.743145 0
    outer loop
      vertex -0.75 1.29904 -1e-06
      vertex -0.75 1.29904 2.5
      vertex -1.21352 0.881678 2.5
    endloop
  endfacet
  facet normal 0.669131 -0.743145 0
    outer loop
      vertex -1.21352 0.881678 -1e-06
      vertex -0.75 1.29904 -1e-06
      vertex -1.21352 0.881678 2.5
    endloop
  endfacet
  facet normal 0.309018 -0.951056 0
    outer loop
      vertex -0.156793 1.49178 -1e-06
      vertex -0.156793 1.49178 2.5
      vertex -0.75 1.29904 2.5
    endloop
  endfacet
  facet normal 0.309018 -0.951056 0
    outer loop
      vertex -0.75 1.29904 -1e-06
      vertex -0.156793 1.49178 -1e-06
      vertex -0.75 1.29904 2.5
    endloop
  endfacet
  facet normal -0.104528 -0.994522 0
    outer loop
      vertex 0.463525 1.42658 -1e-06
      vertex 0.463525 1.42658 2.5
      vertex -0.156793 1.49178 2.5
    endloop
  endfacet
  facet normal -0.104528 -0.994522 0
    outer loop
      vertex -0.156793 1.49178 -1e-06
      vertex 0.463525 1.42658 -1e-06
      vertex -0.156793 1.49178 2.5
    endloop
  endfacet
  facet normal -0.5 -0.866025 0
    outer loop
      vertex 1.0037 1.11472 -1e-06
      vertex 1.0037 1.11472 2.5
      vertex 0.463525 1.42658 2.5
    endloop
  endfacet
  facet normal -0.5 -0.866025 0
    outer loop
      vertex 0.463525 1.42658 -1e-06
      vertex 1.0037 1.11472 -1e-06
      vertex 0.463525 1.42658 2.5
    endloop
  endfacet
  facet normal -0.809017 -0.587785 0
    outer loop
      vertex 1.37032 0.610105 2.5
      vertex 1.0037 1.11472 2.5
      vertex 1.37032 0.610105 -1e-06
    endloop
  endfacet
  facet normal -0.809017 -0.587785 0
    outer loop
      vertex 1.37032 0.610105 -1e-06
      vertex 1.0037 1.11472 2.5
      vertex 1.0037 1.11472 -1e-06
    endloop
  endfacet
  facet normal -0.978148 -0.207912 0
    outer loop
      vertex 1.5 0 2.5
      vertex 1.37032 0.610105 2.5
      vertex 1.5 0 -1e-06
    endloop
  endfacet
  facet normal -0.978148 -0.207912 0
    outer loop
      vertex 1.5 0 -1e-06
      vertex 1.37032 0.610105 2.5
      vertex 1.37032 0.610105 -1e-06
    endloop
  endfacet
  facet normal -0.978148 0.207912 0
    outer loop
      vertex 1.5 0 2.5
      vertex 1.5 0 -1e-06
      vertex 1.37032 -0.610105 2.5
    endloop
  endfacet
  facet normal -0.978148 0.207912 0
    outer loop
      vertex 1.37032 -0.610105 2.5
      vertex 1.5 0 -1e-06
      vertex 1.37032 -0.610105 -1e-06
    endloop
  endfacet
  facet normal -0.809017 0.587785 0
    outer loop
      vertex 1.37032 -0.610105 2.5
      vertex 1.37032 -0.610105 -1e-06
      vertex 1.0037 -1.11472 2.5
    endloop
  endfacet
  facet normal -0.809017 0.587785 0
    outer loop
      vertex 1.0037 -1.11472 2.5
      vertex 1.37032 -0.610105 -1e-06
      vertex 1.0037 -1.11472 -1e-06
    endloop
  endfacet
  facet normal -0.5 0.866025 0
    outer loop
      vertex 1.0037 -1.11472 2.5
      vertex 1.0037 -1.11472 -1e-06
      vertex 0.463525 -1.42658 2.5
    endloop
  endfacet
  facet normal -0.5 0.866025 0
    outer loop
      vertex 0.463525 -1.42658 2.5
      vertex 1.0037 -1.11472 -1e-06
      vertex 0.463525 -1.42658 -1e-06
    endloop
  endfacet
  facet normal -0.104528 0.994522 0
    outer loop
      vertex 0.463525 -1.42658 2.5
      vertex 0.463525 -1.42658 -1e-06
      vertex -0.156793 -1.49178 2.5
    endloop
  endfacet
  facet normal -0.104528 0.994522 0
    outer loop
      vertex -0.156793 -1.49178 2.5
      vertex 0.463525 -1.42658 -1e-06
      vertex -0.156793 -1.49178 -1e-06
    endloop
  endfacet
  facet normal 0.309018 0.951056 0
    outer loop
      vertex -0.156793 -1.49178 2.5
      vertex -0.156793 -1.49178 -1e-06
      vertex -0.75 -1.29904 2.5
    endloop
  endfacet
  facet normal 0.309018 0.951056 0
    outer loop
      vertex -0.75 -1.29904 2.5
      vertex -0.156793 -1.49178 -1e-06
      vertex -0.75 -1.29904 -1e-06
    endloop
  endfacet
  facet normal 0.669131 0.743145 0
    outer loop
      vertex -0.75 -1.29904 2.5
      vertex -0.75 -1.29904 -1e-06
      vertex -1.21352 -0.881678 2.5
    endloop
  endfacet
  facet normal 0.669131 0.743145 0
    outer loop
      vertex -1.21352 -0.881678 2.5
      vertex -0.75 -1.29904 -1e-06
      vertex -1.21352 -0.881678 -1e-06
    endloop
  endfacet
  facet normal 0.913545 0.406737 0
    outer loop
      vertex -1.46722 -0.311868 2.5
      vertex -1.21352 -0.881678 2.5
      vertex -1.21352 -0.881678 -1e-06
    endloop
  endfacet
  facet normal 0.913545 0.406737 0
    outer loop
      vertex -1.46722 -0.311868 -1e-06
      vertex -1.46722 -0.311868 2.5
      vertex -1.21352 -0.881678 -1e-06
    endloop
  endfacet
  facet normal 0.537556 0.437201 0.721033
    outer loop
      vertex 8.12672 1.79102 2
      vertex 6.89932 3.30015 2
      vertex 7.82221 0.533084 2.98978
    endloop
  endfacet
  facet normal 0.723425 0.43349 0.537348
    outer loop
      vertex 6.89932 3.30015 2
      vertex 6.38052 3.30015 2.69845
      vertex 7.82221 0.533084 2.98978
    endloop
  endfacet
  facet normal 7.27735e-07 5.91876e-07 -1
    outer loop
      vertex 8.67204 -0.569014 2
      vertex 6.89932 3.30015 2
      vertex 8.12672 1.79102 2
    endloop
  endfacet
  facet normal 0.487155 0.464141 0.739766
    outer loop
      vertex 8.12672 1.79102 2
      vertex 7.82221 0.533084 2.98978
      vertex 9.47413 -1.24779 3.01929
    endloop
  endfacet
  facet normal 0.644699 0.484259 0.591487
    outer loop
      vertex 9.89944 -0.569014 2
      vertex 8.12672 1.79102 2
      vertex 9.47413 -1.24779 3.01929
    endloop
  endfacet
  facet normal 0 4.23723e-07 -1
    outer loop
      vertex 8.67204 -0.569014 2
      vertex 8.12672 1.79102 2
      vertex 9.89944 -0.569014 2
    endloop
  endfacet
  facet normal 0 0 -1
    outer loop
      vertex -1.21352 0.881678 2.5
      vertex -0.75 1.29904 2.5
      vertex -1.46722 0.311868 2.5
    endloop
  endfacet
  facet normal 0 0 -1
    outer loop
      vertex -1.46722 0.311868 2.5
      vertex -0.75 1.29904 2.5
      vertex -0.156793 1.49178 2.5
    endloop
  endfacet
  facet normal 0 0 -1
    outer loop
      vertex -1.46722 0.311868 2.5
      vertex -0.156793 1.49178 2.5
      vertex 0.463525 1.42658 2.5
    endloop
  endfacet
  facet normal 0 0 -1
    outer loop
      vertex -1.46722 0.311868 2.5
      vertex 0.463525 1.42658 2.5
      vertex 1.0037 1.11472 2.5
    endloop
  endfacet
  facet normal 0 0 -1
    outer loop
      vertex -1.46722 0.311868 2.5
      vertex 1.0037 1.11472 2.5
      vertex 1.37032 0.610105 2.5
    endloop
  endfacet
  facet normal 0 0 -1
    outer loop
      vertex -1.46722 0.311868 2.5
      vertex 1.37032 0.610105 2.5
      vertex 1.5 0 2.5
    endloop
  endfacet
  facet normal 0 0 -1
    outer loop
      vertex -1.46722 0.311868 2.5
      vertex 1.5 0 2.5
      vertex 1.37032 -0.610105 2.5
    endloop
  endfacet
  facet normal 0 0 -1
    outer loop
      vertex -1.46722 0.311868 2.5
      vertex 1.37032 -0.610105 2.5
      vertex 1.0037 -1.11472 2.5
    endloop
  endfacet
  facet normal 0 0 -1
    outer loop
      vertex -1.46722 0.311868 2.5
      vertex 1.0037 -1.11472 2.5
      vertex 0.463525 -1.42658 2.5
    endloop
  endfacet
  facet normal 0 0 -1
    outer loop
      vertex -1.46722 0.311868 2.5
      vertex 0.463525 -1.42658 2.5
      vertex -0.156793 -1.49178 2.5
    endloop
  endfacet
  facet normal 0 0 -1
    outer loop
      vertex -1.46722 0.311868 2.5
      vertex -0.156793 -1.49178 2.5
      vertex -0.75 -1.29904 2.5
    endloop
  endfacet
  facet normal 0 0 -1
    outer loop
      vertex -1.46722 0.311868 2.5
      vertex -0.75 -1.29904 2.5
      vertex -1.21352 -0.881678 2.5
    endloop
  endfacet
  facet normal 0 0 -1
    outer loop
      vertex -1.46722 0.311868 2.5
      vertex -1.21352 -0.881678 2.5
      vertex -1.46722 -0.311868 2.5
    endloop
  endfacet
endsolid OpenSCAD_Model
