solid OpenSCAD_Model
  facet normal -0.808423 -0.0591956 0.585618
    outer loop
      vertex -12.4097 -4.20786 4.64066
      vertex -14.106 3.84708 3.11323
      vertex -13.5369 -3.92511 3.11323
    endloop
  endfacet
  facet normal 0 0 -1
    outer loop
      vertex -14.106 3.84708 3.11323
      vertex -9.45975 10.8424 3.11323
      vertex -13.5369 -3.92511 3.11323
    endloop
  endfacet
  facet normal 0 0 -1
    outer loop
      vertex -13.5369 -3.92511 3.11323
      vertex -9.45975 10.8424 3.11323
      vertex -7.03021 11.9282 3.11323
    endloop
  endfacet
  facet normal 0 0 -1
    outer loop
      vertex -13.5369 -3.92511 3.11323
      vertex -7.03021 11.9282 3.11323
      vertex -5.89307 13.9884 3.11323
    endloop
  endfacet
  facet normal 0 0 -1
    outer loop
      vertex -8.70189 3.84708 3.11323
      vertex -5.89307 13.9884 3.11323
      vertex -7.22117 3.84708 3.11323
    endloop
  endfacet
  facet normal 0 0 -1
    outer loop
      vertex -13.5369 -3.92511 3.11323
      vertex -5.89307 13.9884 3.11323
      vertex -8.70189 3.84708 3.11323
    endloop
  endfacet
  facet normal 0 0 -1
    outer loop
      vertex -13.5369 -3.92511 3.11323
      vertex -8.49095 -2.49644 3.11323
      vertex -7.73906 -8.18271 3.11323
    endloop
  endfacet
  facet normal 0 0 -1
    outer loop
      vertex -13.5369 -3.92511 3.11323
      vertex -7.73906 -8.18271 3.11323
      vertex -10.224 -8.18271 3.11323
    endloop
  endfacet
  facet normal 0 0 -1
    outer loop
      vertex -8.49095 -2.49644 3.11323
      vertex -13.5369 -3.92511 3.11323
      vertex -8.70189 3.84708 3.11323
    endloop
  endfacet
  facet normal -0.810048 0.538034 -0.233114
    outer loop
      vertex -9.45975 10.8424 3.11323
      vertex -14.106 3.84708 3.11323
      vertex -9.93179 10.8081 4.67452
    endloop
  endfacet
  facet normal -0.453721 0.0728705 0.88816
    outer loop
      vertex -9.93179 10.8081 4.67452
      vertex -14.106 3.84708 3.11323
      vertex -12.4097 -4.20786 4.64066
    endloop
  endfacet
  facet normal -0.315173 0.0498731 0.947723
    outer loop
      vertex -9.93179 10.8081 4.67452
      vertex -12.4097 -4.20786 4.64066
      vertex -8.77769 3.43047 5.44657
    endloop
  endfacet
  facet normal -0.290406 0.0372037 0.95618
    outer loop
      vertex -8.77769 3.43047 5.44657
      vertex -12.4097 -4.20786 4.64066
      vertex -8.92201 -2.26447 5.62432
    endloop
  endfacet
  facet normal -0.320814 0.0989763 0.941956
    outer loop
      vertex -8.92201 -2.26447 5.62432
      vertex -12.4097 -4.20786 4.64066
      vertex -9.21065 -6.58335 5.97982
    endloop
  endfacet
  facet normal -0.612647 -0.787552 0.0665285
    outer loop
      vertex -9.21065 -6.58335 5.97982
      vertex -12.4097 -4.20786 4.64066
      vertex -8.58101 -7.17293 4.79878
    endloop
  endfacet
  facet normal 0 0.0532524 0.998581
    outer loop
      vertex -8.58101 -7.17293 4.79878
      vertex -12.4097 -4.20786 4.64066
      vertex -11.0659 -7.17293 4.79878
    endloop
  endfacet
  facet normal -0.889098 -0.413421 -0.196438
    outer loop
      vertex -11.0659 -7.17293 4.79878
      vertex -12.4097 -4.20786 4.64066
      vertex -10.224 -8.18271 3.11323
    endloop
  endfacet
  facet normal -0.714616 -0.556053 0.424415
    outer loop
      vertex -12.4097 -4.20786 4.64066
      vertex -13.5369 -3.92511 3.11323
      vertex -10.224 -8.18271 3.11323
    endloop
  endfacet
  facet normal 0 -0.85784 0.513916
    outer loop
      vertex -8.58101 -7.17293 4.79878
      vertex -11.0659 -7.17293 4.79878
      vertex -10.224 -8.18271 3.11323
    endloop
  endfacet
  facet normal 0 -0.85784 0.513916
    outer loop
      vertex -7.73906 -8.18271 3.11323
      vertex -8.58101 -7.17293 4.79878
      vertex -10.224 -8.18271 3.11323
    endloop
  endfacet
  facet normal -0.784024 -0.62041 -0.0199516
    outer loop
      vertex -3.79376 -13.1567 2.74894
      vertex -8.58101 -7.17293 4.79878
      vertex -7.73906 -8.18271 3.11323
    endloop
  endfacet
  facet normal -0.103891 -0.00956591 -0.994543
    outer loop
      vertex -3.79376 -13.1567 2.74894
      vertex -7.73906 -8.18271 3.11323
      vertex -5.01735 0.132038 2.74894
    endloop
  endfacet
  facet normal -0.0948965 -0.0125481 -0.995408
    outer loop
      vertex -7.73906 -8.18271 3.11323
      vertex -8.49095 -2.49644 3.11323
      vertex -5.01735 0.132038 2.74894
    endloop
  endfacet
  facet normal 0.985555 0.0327726 0.166155
    outer loop
      vertex -8.70189 3.84708 3.11323
      vertex -8.92201 -2.26447 5.62432
      vertex -8.49095 -2.49644 3.11323
    endloop
  endfacet
  facet normal -0.60568 0.776076 -0.175664
    outer loop
      vertex -8.49095 -2.49644 3.11323
      vertex -8.92201 -2.26447 5.62432
      vertex -5.01735 0.132038 2.74894
    endloop
  endfacet
  facet normal 0.999306 -0.0244474 0.0280972
    outer loop
      vertex -8.77769 3.43047 5.44657
      vertex -8.92201 -2.26447 5.62432
      vertex -8.70189 3.84708 3.11323
    endloop
  endfacet
  facet normal 0 -0.984432 -0.175767
    outer loop
      vertex -7.22117 3.84708 3.11323
      vertex -8.77769 3.43047 5.44657
      vertex -8.70189 3.84708 3.11323
    endloop
  endfacet
  facet normal 0.240566 -0.970548 -0.0128129
    outer loop
      vertex -7.041 3.84708 6.49605
      vertex -8.77769 3.43047 5.44657
      vertex -7.22117 3.84708 3.11323
    endloop
  endfacet
  facet normal -0.506901 -0.861581 0.0269983
    outer loop
      vertex -7.041 3.84708 6.49605
      vertex -7.22117 3.84708 3.11323
      vertex -4.1582 2.15476 6.61561
    endloop
  endfacet
  facet normal -0.590065 -0.796639 0.131108
    outer loop
      vertex -4.1582 2.15476 6.61561
      vertex -7.22117 3.84708 3.11323
      vertex -5.01735 2.15476 2.74894
    endloop
  endfacet
  facet normal -0.600394 -0.697763 -0.39071
    outer loop
      vertex -5.01735 2.15476 2.74894
      vertex -7.22117 3.84708 3.11323
      vertex -3.22845 2.15476 0
    endloop
  endfacet
  facet normal -0.663647 -0.339843 -0.666393
    outer loop
      vertex -3.22845 2.15476 0
      vertex -7.22117 3.84708 3.11323
      vertex -6.19043 7.93892 0
    endloop
  endfacet
  facet normal -0.973773 0.226124 -0.0251985
    outer loop
      vertex -6.19043 7.93892 0
      vertex -7.22117 3.84708 3.11323
      vertex -4.78567 13.9883 0
    endloop
  endfacet
  facet normal -0.935078 0.122458 -0.332615
    outer loop
      vertex -4.78567 13.9883 0
      vertex -7.22117 3.84708 3.11323
      vertex -5.89307 13.9884 3.11323
    endloop
  endfacet
  facet normal 0.383304 0.330174 0.862591
    outer loop
      vertex -5.89307 13.9884 3.11323
      vertex -7.78166 11.9165 4.7455
      vertex -7.03527 8.1556 5.85338
    endloop
  endfacet
  facet normal -0.812988 0.448744 -0.371052
    outer loop
      vertex -7.03021 11.9282 3.11323
      vertex -7.78166 11.9165 4.7455
      vertex -5.89307 13.9884 3.11323
    endloop
  endfacet
  facet normal -0.751528 0.60311 -0.267326
    outer loop
      vertex -4.78567 13.9883 0
      vertex -5.89307 13.9884 3.11323
      vertex -3.30022 15.8393 0
    endloop
  endfacet
  facet normal -0.61246 0.789452 -0.0407117
    outer loop
      vertex -3.30022 15.8393 0
      vertex -5.89307 13.9884 3.11323
      vertex -4.25151 15.2619 3.11323
    endloop
  endfacet
  facet normal -0.511015 0.65869 0.55226
    outer loop
      vertex -4.25151 15.2619 3.11323
      vertex -5.89307 13.9884 3.11323
      vertex -4.25151 12.3254 6.61561
    endloop
  endfacet
  facet normal -0.588994 0.587439 0.554978
    outer loop
      vertex -4.25151 12.3254 6.61561
      vertex -5.89307 13.9884 3.11323
      vertex -5.38419 10.4968 7.34905
    endloop
  endfacet
  facet normal -0.851069 0.350372 0.391051
    outer loop
      vertex -5.89307 13.9884 3.11323
      vertex -7.03527 8.1556 5.85338
      vertex -5.38419 10.4968 7.34905
    endloop
  endfacet
  facet normal -0.401489 0.898324 -0.178383
    outer loop
      vertex -7.03021 11.9282 3.11323
      vertex -9.45975 10.8424 3.11323
      vertex -7.78166 11.9165 4.7455
    endloop
  endfacet
  facet normal -0.451966 0.884295 -0.117257
    outer loop
      vertex -9.45975 10.8424 3.11323
      vertex -9.93179 10.8081 4.67452
      vertex -7.78166 11.9165 4.7455
    endloop
  endfacet
  facet normal -0.0798741 0.0913786 0.992608
    outer loop
      vertex -7.78166 11.9165 4.7455
      vertex -9.93179 10.8081 4.67452
      vertex -8.77769 3.43047 5.44657
    endloop
  endfacet
  facet normal -0.552326 0.132818 0.82298
    outer loop
      vertex -7.78166 11.9165 4.7455
      vertex -8.77769 3.43047 5.44657
      vertex -7.03527 8.1556 5.85338
    endloop
  endfacet
  facet normal -0.534971 0.125338 0.835522
    outer loop
      vertex -7.03527 8.1556 5.85338
      vertex -8.77769 3.43047 5.44657
      vertex -7.041 3.84708 6.49605
    endloop
  endfacet
  facet normal -0.464047 0.879789 0.103108
    outer loop
      vertex -5.01735 0.132038 2.74894
      vertex -8.92201 -2.26447 5.62432
      vertex -4.1582 0.132038 6.61561
    endloop
  endfacet
  facet normal -0.237272 0.0708981 0.968853
    outer loop
      vertex -4.1582 0.132038 6.61561
      vertex -8.92201 -2.26447 5.62432
      vertex -6.08353 -6.3114 6.61561
    endloop
  endfacet
  facet normal -0.206196 0.0939528 0.97399
    outer loop
      vertex -8.92201 -2.26447 5.62432
      vertex -9.21065 -6.58335 5.97982
      vertex -6.08353 -6.3114 6.61561
    endloop
  endfacet
  facet normal -0.166869 -0.286694 0.943378
    outer loop
      vertex -6.08353 -6.3114 6.61561
      vertex -9.21065 -6.58335 5.97982
      vertex -5.07527 -11.5417 5.20446
    endloop
  endfacet
  facet normal -0.771747 -0.628371 -0.0977552
    outer loop
      vertex -5.07527 -11.5417 5.20446
      vertex -9.21065 -6.58335 5.97982
      vertex -8.58101 -7.17293 4.79878
    endloop
  endfacet
  facet normal -0.780123 -0.625611 0.00434518
    outer loop
      vertex -5.07527 -11.5417 5.20446
      vertex -8.58101 -7.17293 4.79878
      vertex -3.79376 -13.1567 2.74894
    endloop
  endfacet
  facet normal -0.686266 -0.718314 0.114301
    outer loop
      vertex -3.14975 -13.1567 6.61561
      vertex -5.07527 -11.5417 5.20446
      vertex -3.79376 -13.1567 2.74894
    endloop
  endfacet
  facet normal -0.890064 0.431055 0.148245
    outer loop
      vertex -3.79376 -13.1567 2.74894
      vertex -4.14431 -15.2104 6.61561
      vertex -3.14975 -13.1567 6.61561
    endloop
  endfacet
  facet normal -0.939212 0.331136 0.0907211
    outer loop
      vertex -3.79376 -13.1567 2.74894
      vertex -5.00049 -16.5794 2.74894
      vertex -4.14431 -15.2104 6.61561
    endloop
  endfacet
  facet normal -0.861314 0.303672 -0.407334
    outer loop
      vertex -3.21777 -15.2104 0
      vertex -5.00049 -16.5794 2.74894
      vertex -3.79376 -13.1567 2.74894
    endloop
  endfacet
  facet normal -0.852275 0.317465 -0.415745
    outer loop
      vertex -3.21777 -15.2104 0
      vertex -3.79376 -13.1567 2.74894
      vertex -2.45281 -13.1567 0
    endloop
  endfacet
  facet normal -0.861744 -0.284063 -0.420364
    outer loop
      vertex -3.79376 -13.1567 2.74894
      vertex -4.7093 -6.3114 0
      vertex -2.45281 -13.1567 0
    endloop
  endfacet
  facet normal -0.990514 -0.0912029 0.102779
    outer loop
      vertex -3.79376 -13.1567 2.74894
      vertex -5.01735 0.132038 2.74894
      vertex -4.7093 -6.3114 0
    endloop
  endfacet
  facet normal -0.823023 0.189149 -0.535589
    outer loop
      vertex -4.7093 -6.3114 0
      vertex -5.01735 0.132038 2.74894
      vertex -3.22845 0.132036 0
    endloop
  endfacet
  facet normal -0.838153 0 -0.545435
    outer loop
      vertex -5.01735 0.132038 2.74894
      vertex -5.01735 2.15476 2.74894
      vertex -3.22845 0.132036 0
    endloop
  endfacet
  facet normal -0.838153 0 -0.545435
    outer loop
      vertex -3.22845 0.132036 0
      vertex -5.01735 2.15476 2.74894
      vertex -3.22845 2.15476 0
    endloop
  endfacet
  facet normal -0.976193 0 0.216903
    outer loop
      vertex -5.01735 0.132038 2.74894
      vertex -4.1582 0.132038 6.61561
      vertex -5.01735 2.15476 2.74894
    endloop
  endfacet
  facet normal -0.976193 0 0.216903
    outer loop
      vertex -5.01735 2.15476 2.74894
      vertex -4.1582 0.132038 6.61561
      vertex -4.1582 2.15476 6.61561
    endloop
  endfacet
  facet normal -0.74206 0.0998586 0.662854
    outer loop
      vertex -7.03527 8.1556 5.85338
      vertex -7.041 3.84708 6.49605
      vertex -5.38419 10.4968 7.34905
    endloop
  endfacet
  facet normal -0.22186 -0.069484 0.9726
    outer loop
      vertex -5.38419 10.4968 7.34905
      vertex -7.041 3.84708 6.49605
      vertex -2.76796 9.06902 7.84383
    endloop
  endfacet
  facet normal -0.31888 0.0163445 0.947654
    outer loop
      vertex -2.76796 9.06902 7.84383
      vertex -7.041 3.84708 6.49605
      vertex -3.12236 2.15476 7.84383
    endloop
  endfacet
  facet normal -0.475996 -0.78248 0.401439
    outer loop
      vertex -3.12236 2.15476 7.84383
      vertex -7.041 3.84708 6.49605
      vertex -4.1582 2.15476 6.61561
    endloop
  endfacet
  facet normal -0.764436 0 0.644699
    outer loop
      vertex -4.1582 2.15476 6.61561
      vertex -4.1582 0.132038 6.61561
      vertex -3.12236 2.15476 7.84383
    endloop
  endfacet
  facet normal 0 0 -1
    outer loop
      vertex -6.19043 7.93892 0
      vertex -4.78567 13.9883 0
      vertex -3.22845 2.15476 0
    endloop
  endfacet
  facet normal 0 0 -1
    outer loop
      vertex -3.22845 2.15476 0
      vertex -4.78567 13.9883 0
      vertex -3.30022 15.8393 0
    endloop
  endfacet
  facet normal 0 0 -1
    outer loop
      vertex -1.05461 11.3965 0
      vertex -3.30022 15.8393 0
      vertex 3.30022 15.8393 0
    endloop
  endfacet
  facet normal 0 0 -1
    outer loop
      vertex 1.63183 10.6322 0
      vertex 3.30022 15.8393 0
      vertex 4.78567 13.9883 0
    endloop
  endfacet
  facet normal 0 0 -1
    outer loop
      vertex 1.29327 8.82103 0
      vertex 4.78567 13.9883 0
      vertex 6.19043 7.93892 0
    endloop
  endfacet
  facet normal 0 0 -1
    outer loop
      vertex -3.22845 2.15476 0
      vertex 6.19043 7.93892 0
      vertex 3.22845 2.15476 0
    endloop
  endfacet
  facet normal 0 0 -1
    outer loop
      vertex 1.29327 1.17897 0
      vertex 3.22845 2.15476 0
      vertex 3.22845 0.132036 0
    endloop
  endfacet
  facet normal 0 0 -1
    outer loop
      vertex -1.05461 -1.39653 0
      vertex 4.7093 -6.3114 0
      vertex 2.45281 -13.1567 0
    endloop
  endfacet
  facet normal 0 0 -1
    outer loop
      vertex 1.29327 1.17897 0
      vertex 3.22845 0.132036 0
      vertex 1.63183 0.632173 0
    endloop
  endfacet
  facet normal 0 0 -1
    outer loop
      vertex -1.7202 0.321562 0
      vertex -3.22845 2.15476 0
      vertex -1.48788 0.921256 0
    endloop
  endfacet
  facet normal 0 0 -1
    outer loop
      vertex -3.22845 0.132036 0
      vertex -2.45281 -13.1567 0
      vertex -4.7093 -6.3114 0
    endloop
  endfacet
  facet normal 0 0 -1
    outer loop
      vertex -1e-06 -16.5794 0
      vertex -3.21777 -15.2104 0
      vertex -2.45281 -13.1567 0
    endloop
  endfacet
  facet normal 0 0 -1
    outer loop
      vertex -3.22845 0.132036 0
      vertex -1e-06 -16.5794 0
      vertex -2.45281 -13.1567 0
    endloop
  endfacet
  facet normal 0 0 -1
    outer loop
      vertex 3.21777 -15.2104 0
      vertex -1e-06 -16.5794 0
      vertex -3.22845 0.132036 0
    endloop
  endfacet
  facet normal 0 0 -1
    outer loop
      vertex -1.05461 -1.39653 0
      vertex 2.45281 -13.1567 0
      vertex -1.48788 -0.921256 0
    endloop
  endfacet
  facet normal 0 0 -1
    outer loop
      vertex -3.22845 2.15476 0
      vertex -1.7202 0.321562 0
      vertex -1.7202 -0.321562 0
    endloop
  endfacet
  facet normal 0 0 -1
    outer loop
      vertex -3.22845 2.15476 0
      vertex -1.7202 -0.321562 0
      vertex 2.45281 -13.1567 0
    endloop
  endfacet
  facet normal 0 0 -1
    outer loop
      vertex -1.7202 -0.321562 0
      vertex -1.48788 -0.921256 0
      vertex 2.45281 -13.1567 0
    endloop
  endfacet
  facet normal 0 0 -1
    outer loop
      vertex -0.47891 -1.68319 0
      vertex 4.7093 -6.3114 0
      vertex -1.05461 -1.39653 0
    endloop
  endfacet
  facet normal 0 0 -1
    outer loop
      vertex 0.780042 -1.56654 0
      vertex 4.7093 -6.3114 0
      vertex 0.16147 -1.74253 0
    endloop
  endfacet
  facet normal 0 0 -1
    outer loop
      vertex 0.16147 -1.74253 0
      vertex 4.7093 -6.3114 0
      vertex -0.47891 -1.68319 0
    endloop
  endfacet
  facet normal 0 0 -1
    outer loop
      vertex 3.22845 0.132036 0
      vertex 4.7093 -6.3114 0
      vertex 0.780042 -1.56654 0
    endloop
  endfacet
  facet normal 0 0 -1
    outer loop
      vertex 3.22845 0.132036 0
      vertex 0.780042 -1.56654 0
      vertex 1.29327 -1.17897 0
    endloop
  endfacet
  facet normal 0 0 -1
    outer loop
      vertex 3.22845 0.132036 0
      vertex 1.29327 -1.17897 0
      vertex 1.63183 -0.632173 0
    endloop
  endfacet
  facet normal 0 0 -1
    outer loop
      vertex 3.22845 0.132036 0
      vertex 1.63183 -0.632173 0
      vertex 1.75 0 0
    endloop
  endfacet
  facet normal 0 0 -1
    outer loop
      vertex 3.22845 0.132036 0
      vertex 1.75 0 0
      vertex 1.63183 0.632173 0
    endloop
  endfacet
  facet normal 0 0 -1
    outer loop
      vertex 0.780042 1.56654 0
      vertex 3.22845 2.15476 0
      vertex 1.29327 1.17897 0
    endloop
  endfacet
  facet normal 0 0 -1
    outer loop
      vertex -0.47891 1.68319 0
      vertex -3.22845 2.15476 0
      vertex 0.16147 1.74253 0
    endloop
  endfacet
  facet normal 0 0 -1
    outer loop
      vertex 0.16147 1.74253 0
      vertex 3.22845 2.15476 0
      vertex 0.780042 1.56654 0
    endloop
  endfacet
  facet normal 0 0 -1
    outer loop
      vertex -3.22845 2.15476 0
      vertex 3.22845 2.15476 0
      vertex 0.16147 1.74253 0
    endloop
  endfacet
  facet normal 0 0 -1
    outer loop
      vertex -1.05461 1.39653 0
      vertex -3.22845 2.15476 0
      vertex -0.47891 1.68319 0
    endloop
  endfacet
  facet normal 0 0 -1
    outer loop
      vertex -1.48788 0.921256 0
      vertex -3.22845 2.15476 0
      vertex -1.05461 1.39653 0
    endloop
  endfacet
  facet normal 0 0 -1
    outer loop
      vertex 0.16147 8.25746 0
      vertex -3.22845 2.15476 0
      vertex -0.47891 8.3168 0
    endloop
  endfacet
  facet normal 0 0 -1
    outer loop
      vertex -3.22845 2.15476 0
      vertex -3.30022 15.8393 0
      vertex -1.7202 10.3216 0
    endloop
  endfacet
  facet normal 0 0 -1
    outer loop
      vertex -3.22845 2.15476 0
      vertex -1.7202 10.3216 0
      vertex -1.7202 9.67844 0
    endloop
  endfacet
  facet normal 0 0 -1
    outer loop
      vertex -3.22845 2.15476 0
      vertex -1.7202 9.67844 0
      vertex -1.48788 9.07874 0
    endloop
  endfacet
  facet normal 0 0 -1
    outer loop
      vertex -3.22845 2.15476 0
      vertex -1.48788 9.07874 0
      vertex -1.05461 8.60347 0
    endloop
  endfacet
  facet normal 0 0 -1
    outer loop
      vertex -3.22845 2.15476 0
      vertex -1.05461 8.60347 0
      vertex -0.47891 8.3168 0
    endloop
  endfacet
  facet normal 0 0 -1
    outer loop
      vertex 0.780042 11.5665 0
      vertex 3.30022 15.8393 0
      vertex 1.29327 11.179 0
    endloop
  endfacet
  facet normal 0 0 -1
    outer loop
      vertex -3.22845 2.15476 0
      vertex 0.16147 8.25746 0
      vertex 0.780042 8.43346 0
    endloop
  endfacet
  facet normal 0 0 -1
    outer loop
      vertex 1.75 10 0
      vertex 4.78567 13.9883 0
      vertex 1.63183 9.36783 0
    endloop
  endfacet
  facet normal 0 0 -1
    outer loop
      vertex -3.22845 2.15476 0
      vertex 1.29327 8.82103 0
      vertex 6.19043 7.93892 0
    endloop
  endfacet
  facet normal 0 0 -1
    outer loop
      vertex 1.63183 10.6322 0
      vertex 4.78567 13.9883 0
      vertex 1.75 10 0
    endloop
  endfacet
  facet normal 0 0 -1
    outer loop
      vertex 1.29327 11.179 0
      vertex 3.30022 15.8393 0
      vertex 1.63183 10.6322 0
    endloop
  endfacet
  facet normal 0 0 -1
    outer loop
      vertex 1.63183 9.36783 0
      vertex 4.78567 13.9883 0
      vertex 1.29327 8.82103 0
    endloop
  endfacet
  facet normal 0 0 -1
    outer loop
      vertex 1.29327 8.82103 0
      vertex -3.22845 2.15476 0
      vertex 0.780042 8.43346 0
    endloop
  endfacet
  facet normal 0 0 -1
    outer loop
      vertex 0.16147 11.7425 0
      vertex 3.30022 15.8393 0
      vertex 0.780042 11.5665 0
    endloop
  endfacet
  facet normal 0 0 -1
    outer loop
      vertex -0.47891 11.6832 0
      vertex 3.30022 15.8393 0
      vertex 0.16147 11.7425 0
    endloop
  endfacet
  facet normal 0 0 -1
    outer loop
      vertex -1.05461 11.3965 0
      vertex 3.30022 15.8393 0
      vertex -0.47891 11.6832 0
    endloop
  endfacet
  facet normal 0 0 -1
    outer loop
      vertex -1.48788 10.9213 0
      vertex -3.30022 15.8393 0
      vertex -1.05461 11.3965 0
    endloop
  endfacet
  facet normal 0 0 -1
    outer loop
      vertex -1.7202 10.3216 0
      vertex -3.30022 15.8393 0
      vertex -1.48788 10.9213 0
    endloop
  endfacet
  facet normal 0 0 -1
    outer loop
      vertex 2.45281 -13.1567 0
      vertex 3.21777 -15.2104 0
      vertex -3.22845 0.132036 0
    endloop
  endfacet
  facet normal 0 0 -1
    outer loop
      vertex -3.22845 2.15476 0
      vertex 2.45281 -13.1567 0
      vertex -3.22845 0.132036 0
    endloop
  endfacet
  facet normal 0 0.940275 -0.340416
    outer loop
      vertex 3.30022 15.8393 0
      vertex -3.30022 15.8393 0
      vertex 0 16.9665 3.11323
    endloop
  endfacet
  facet normal -0.371504 0.926596 0.0583542
    outer loop
      vertex -3.30022 15.8393 0
      vertex -4.25151 15.2619 3.11323
      vertex 0 16.9665 3.11323
    endloop
  endfacet
  facet normal -0.117099 0.292065 0.949203
    outer loop
      vertex 0 16.9665 3.11323
      vertex -4.25151 15.2619 3.11323
      vertex -1e-06 13.2026 4.27135
    endloop
  endfacet
  facet normal 0.192487 0.751971 0.630467
    outer loop
      vertex -4.25151 15.2619 3.11323
      vertex -4.25151 12.3254 6.61561
      vertex -1e-06 13.2026 4.27135
    endloop
  endfacet
  facet normal 0.0207464 0.36109 0.9323
    outer loop
      vertex -4.25151 12.3254 6.61561
      vertex -5.38419 10.4968 7.34905
      vertex -2.76796 9.06902 7.84383
    endloop
  endfacet
  facet normal 0.218218 0.715618 0.66353
    outer loop
      vertex -1e-06 13.2026 4.27135
      vertex -4.25151 12.3254 6.61561
      vertex -1e-06 11.029 6.61561
    endloop
  endfacet
  facet normal 0.121442 0.398252 0.909201
    outer loop
      vertex -1e-06 11.029 6.61561
      vertex -4.25151 12.3254 6.61561
      vertex -2.76796 9.06902 7.84383
    endloop
  endfacet
  facet normal -0.863688 0.15014 0.481145
    outer loop
      vertex -4.1582 0.132038 6.61561
      vertex -4.55248 -6.0721 7.84383
      vertex -3.12236 2.15476 7.84383
    endloop
  endfacet
  facet normal -0.632275 0.188927 0.751355
    outer loop
      vertex -4.1582 0.132038 6.61561
      vertex -6.08353 -6.3114 6.61561
      vertex -4.55248 -6.0721 7.84383
    endloop
  endfacet
  facet normal 0 -0.981543 0.191241
    outer loop
      vertex -4.55248 -6.0721 7.84383
      vertex -6.08353 -6.3114 6.61561
      vertex -1e-06 -6.3114 6.61561
    endloop
  endfacet
  facet normal 0 -0.981543 0.191241
    outer loop
      vertex 4.55248 -6.0721 7.84383
      vertex -4.55248 -6.0721 7.84383
      vertex 6.08353 -6.3114 6.61561
    endloop
  endfacet
  facet normal 0 -0.981543 0.191241
    outer loop
      vertex 6.08353 -6.3114 6.61561
      vertex -4.55248 -6.0721 7.84383
      vertex -1e-06 -6.3114 6.61561
    endloop
  endfacet
  facet normal 0 0.0664805 0.997788
    outer loop
      vertex -1e-06 -6.3114 6.61561
      vertex -6.08353 -6.3114 6.61561
      vertex -2.37377 -9.73408 6.84365
    endloop
  endfacet
  facet normal -0.10106 -0.0433122 0.993937
    outer loop
      vertex -2.37377 -9.73408 6.84365
      vertex -6.08353 -6.3114 6.61561
      vertex -3.14975 -13.1567 6.61561
    endloop
  endfacet
  facet normal -0.716565 -0.307106 0.626275
    outer loop
      vertex -3.14975 -13.1567 6.61561
      vertex -6.08353 -6.3114 6.61561
      vertex -5.07527 -11.5417 5.20446
    endloop
  endfacet
  facet normal 0 -0.0664807 0.997788
    outer loop
      vertex -2.37377 -9.73408 6.84365
      vertex -3.14975 -13.1567 6.61561
      vertex -1e-06 -13.1567 6.61561
    endloop
  endfacet
  facet normal 0 0.129191 0.99162
    outer loop
      vertex -1e-06 -13.1567 6.61561
      vertex -3.14975 -13.1567 6.61561
      vertex -1.48407 -14.2976 6.76424
    endloop
  endfacet
  facet normal -0.229364 -0.211074 0.950179
    outer loop
      vertex -1.48407 -14.2976 6.76424
      vertex -3.14975 -13.1567 6.61561
      vertex -1e-06 -16.5794 6.61561
    endloop
  endfacet
  facet normal 0 0 1
    outer loop
      vertex -3.14975 -13.1567 6.61561
      vertex -4.14431 -15.2104 6.61561
      vertex -1e-06 -16.5794 6.61561
    endloop
  endfacet
  facet normal -0.290671 -0.879889 0.375905
    outer loop
      vertex -4.14431 -15.2104 6.61561
      vertex -5.00049 -16.5794 2.74894
      vertex -1e-06 -16.5794 6.61561
    endloop
  endfacet
  facet normal 0 -1 0
    outer loop
      vertex -1e-06 -16.5794 6.61561
      vertex -5.00049 -16.5794 2.74894
      vertex -1e-06 -16.5794 0
    endloop
  endfacet
  facet normal 0 -1 0
    outer loop
      vertex 5.00049 -16.5794 2.74894
      vertex -1e-06 -16.5794 6.61561
      vertex -1e-06 -16.5794 0
    endloop
  endfacet
  facet normal -0.318901 -0.749523 -0.580101
    outer loop
      vertex -1e-06 -16.5794 0
      vertex -5.00049 -16.5794 2.74894
      vertex -3.21777 -15.2104 0
    endloop
  endfacet
  facet normal 0 0.531009 0.847366
    outer loop
      vertex -1e-06 11.029 6.61561
      vertex -2.76796 9.06902 7.84383
      vertex 2.76796 9.06902 7.84383
    endloop
  endfacet
  facet normal 0 0 1
    outer loop
      vertex -3.12236 2.15476 7.84383
      vertex -4.55248 -6.0721 7.84383
      vertex 4.55248 -6.0721 7.84383
    endloop
  endfacet
  facet normal 0 0 1
    outer loop
      vertex 2.76796 9.06902 7.84383
      vertex -3.12236 2.15476 7.84383
      vertex 3.12236 2.15476 7.84383
    endloop
  endfacet
  facet normal 0 0 1
    outer loop
      vertex 3.12236 2.15476 7.84383
      vertex -3.12236 2.15476 7.84383
      vertex 4.55248 -6.0721 7.84383
    endloop
  endfacet
  facet normal 0 0 1
    outer loop
      vertex -2.76796 9.06902 7.84383
      vertex -3.12236 2.15476 7.84383
      vertex 2.76796 9.06902 7.84383
    endloop
  endfacet
  facet normal 0.318901 -0.749523 -0.580101
    outer loop
      vertex 5.00049 -16.5794 2.74894
      vertex -1e-06 -16.5794 0
      vertex 3.21777 -15.2104 0
    endloop
  endfacet
  facet normal 0.852275 0.317465 -0.415745
    outer loop
      vertex 3.21777 -15.2104 0
      vertex 2.45281 -13.1567 0
      vertex 3.79376 -13.1567 2.74894
    endloop
  endfacet
  facet normal 0.861314 0.303672 -0.407334
    outer loop
      vertex 5.00049 -16.5794 2.74894
      vertex 3.21777 -15.2104 0
      vertex 3.79376 -13.1567 2.74894
    endloop
  endfacet
  facet normal 0.861744 -0.284063 -0.420364
    outer loop
      vertex 3.79376 -13.1567 2.74894
      vertex 2.45281 -13.1567 0
      vertex 4.7093 -6.3114 0
    endloop
  endfacet
  facet normal 0.990514 -0.0912029 0.102779
    outer loop
      vertex 5.01735 0.132038 2.74894
      vertex 3.79376 -13.1567 2.74894
      vertex 4.7093 -6.3114 0
    endloop
  endfacet
  facet normal 0.823023 0.189149 -0.535589
    outer loop
      vertex 4.7093 -6.3114 0
      vertex 3.22845 0.132036 0
      vertex 5.01735 0.132038 2.74894
    endloop
  endfacet
  facet normal 0.838153 0 -0.545435
    outer loop
      vertex 5.01735 0.132038 2.74894
      vertex 3.22845 0.132036 0
      vertex 3.22845 2.15476 0
    endloop
  endfacet
  facet normal 0.838153 0 -0.545435
    outer loop
      vertex 5.01735 2.15476 2.74894
      vertex 5.01735 0.132038 2.74894
      vertex 3.22845 2.15476 0
    endloop
  endfacet
  facet normal 0.600394 -0.697763 -0.39071
    outer loop
      vertex 5.01735 2.15476 2.74894
      vertex 3.22845 2.15476 0
      vertex 7.22117 3.84708 3.11323
    endloop
  endfacet
  facet normal 0.663647 -0.339843 -0.666393
    outer loop
      vertex 7.22117 3.84708 3.11323
      vertex 3.22845 2.15476 0
      vertex 6.19043 7.93892 0
    endloop
  endfacet
  facet normal 0.973773 0.226124 -0.0251985
    outer loop
      vertex 6.19043 7.93892 0
      vertex 4.78567 13.9883 0
      vertex 7.22117 3.84708 3.11323
    endloop
  endfacet
  facet normal 0.935078 0.122458 -0.332615
    outer loop
      vertex 7.22117 3.84708 3.11323
      vertex 4.78567 13.9883 0
      vertex 5.89307 13.9884 3.11323
    endloop
  endfacet
  facet normal 0.751528 0.60311 -0.267326
    outer loop
      vertex 4.78567 13.9883 0
      vertex 3.30022 15.8393 0
      vertex 5.89307 13.9884 3.11323
    endloop
  endfacet
  facet normal 0.61246 0.789452 -0.0407117
    outer loop
      vertex 5.89307 13.9884 3.11323
      vertex 3.30022 15.8393 0
      vertex 4.25151 15.2619 3.11323
    endloop
  endfacet
  facet normal 0.371504 0.926596 0.0583542
    outer loop
      vertex 3.30022 15.8393 0
      vertex 0 16.9665 3.11323
      vertex 4.25151 15.2619 3.11323
    endloop
  endfacet
  facet normal 1 0 0
    outer loop
      vertex -1.7202 0.321562 0
      vertex -1.7202 0.321562 4.625
      vertex -1.7202 -0.321562 4.625
    endloop
  endfacet
  facet normal 1 0 0
    outer loop
      vertex -1.7202 -0.321562 0
      vertex -1.7202 0.321562 0
      vertex -1.7202 -0.321562 4.625
    endloop
  endfacet
  facet normal 0.932472 -0.361242 0
    outer loop
      vertex -1.48788 0.921256 0
      vertex -1.48788 0.921256 4.625
      vertex -1.7202 0.321562 4.625
    endloop
  endfacet
  facet normal 0.932472 -0.361242 0
    outer loop
      vertex -1.7202 0.321562 0
      vertex -1.48788 0.921256 0
      vertex -1.7202 0.321562 4.625
    endloop
  endfacet
  facet normal 0.739009 -0.673695 0
    outer loop
      vertex -1.05461 1.39653 0
      vertex -1.05461 1.39653 4.625
      vertex -1.48788 0.921256 4.625
    endloop
  endfacet
  facet normal 0.739009 -0.673695 0
    outer loop
      vertex -1.48788 0.921256 0
      vertex -1.05461 1.39653 0
      vertex -1.48788 0.921256 4.625
    endloop
  endfacet
  facet normal 0.445738 -0.895163 0
    outer loop
      vertex -0.47891 1.68319 0
      vertex -0.47891 1.68319 4.625
      vertex -1.05461 1.39653 4.625
    endloop
  endfacet
  facet normal 0.445738 -0.895163 0
    outer loop
      vertex -1.05461 1.39653 0
      vertex -0.47891 1.68319 0
      vertex -1.05461 1.39653 4.625
    endloop
  endfacet
  facet normal 0.0922684 -0.995734 0
    outer loop
      vertex 0.16147 1.74253 0
      vertex 0.16147 1.74253 4.625
      vertex -0.47891 1.68319 4.625
    endloop
  endfacet
  facet normal 0.0922684 -0.995734 0
    outer loop
      vertex -0.47891 1.68319 0
      vertex 0.16147 1.74253 0
      vertex -0.47891 1.68319 4.625
    endloop
  endfacet
  facet normal -0.273663 -0.961826 0
    outer loop
      vertex 0.780042 1.56654 0
      vertex 0.780042 1.56654 4.625
      vertex 0.16147 1.74253 4.625
    endloop
  endfacet
  facet normal -0.273663 -0.961826 0
    outer loop
      vertex 0.16147 1.74253 0
      vertex 0.780042 1.56654 0
      vertex 0.16147 1.74253 4.625
    endloop
  endfacet
  facet normal -0.602635 -0.798017 0
    outer loop
      vertex 1.29327 1.17897 0
      vertex 1.29327 1.17897 4.625
      vertex 0.780042 1.56654 4.625
    endloop
  endfacet
  facet normal -0.602635 -0.798017 0
    outer loop
      vertex 0.780042 1.56654 0
      vertex 1.29327 1.17897 0
      vertex 0.780042 1.56654 4.625
    endloop
  endfacet
  facet normal -0.850217 -0.526432 0
    outer loop
      vertex 1.63183 0.632173 4.625
      vertex 1.29327 1.17897 4.625
      vertex 1.63183 0.632173 0
    endloop
  endfacet
  facet normal -0.850217 -0.526432 0
    outer loop
      vertex 1.63183 0.632173 0
      vertex 1.29327 1.17897 4.625
      vertex 1.29327 1.17897 0
    endloop
  endfacet
  facet normal -0.982973 -0.18375 0
    outer loop
      vertex 1.75 0 4.625
      vertex 1.63183 0.632173 4.625
      vertex 1.75 0 0
    endloop
  endfacet
  facet normal -0.982973 -0.18375 0
    outer loop
      vertex 1.75 0 0
      vertex 1.63183 0.632173 4.625
      vertex 1.63183 0.632173 0
    endloop
  endfacet
  facet normal -0.982973 0.18375 0
    outer loop
      vertex 1.75 0 4.625
      vertex 1.75 0 0
      vertex 1.63183 -0.632173 4.625
    endloop
  endfacet
  facet normal -0.982973 0.18375 0
    outer loop
      vertex 1.63183 -0.632173 4.625
      vertex 1.75 0 0
      vertex 1.63183 -0.632173 0
    endloop
  endfacet
  facet normal -0.850217 0.526432 0
    outer loop
      vertex 1.63183 -0.632173 4.625
      vertex 1.63183 -0.632173 0
      vertex 1.29327 -1.17897 4.625
    endloop
  endfacet
  facet normal -0.850217 0.526432 0
    outer loop
      vertex 1.29327 -1.17897 4.625
      vertex 1.63183 -0.632173 0
      vertex 1.29327 -1.17897 0
    endloop
  endfacet
  facet normal -0.602635 0.798017 0
    outer loop
      vertex 1.29327 -1.17897 4.625
      vertex 1.29327 -1.17897 0
      vertex 0.780042 -1.56654 4.625
    endloop
  endfacet
  facet normal -0.602635 0.798017 0
    outer loop
      vertex 0.780042 -1.56654 4.625
      vertex 1.29327 -1.17897 0
      vertex 0.780042 -1.56654 0
    endloop
  endfacet
  facet normal -0.273663 0.961826 0
    outer loop
      vertex 0.780042 -1.56654 4.625
      vertex 0.780042 -1.56654 0
      vertex 0.16147 -1.74253 4.625
    endloop
  endfacet
  facet normal -0.273663 0.961826 0
    outer loop
      vertex 0.16147 -1.74253 4.625
      vertex 0.780042 -1.56654 0
      vertex 0.16147 -1.74253 0
    endloop
  endfacet
  facet normal 0.0922684 0.995734 0
    outer loop
      vertex 0.16147 -1.74253 4.625
      vertex 0.16147 -1.74253 0
      vertex -0.47891 -1.68319 4.625
    endloop
  endfacet
  facet normal 0.0922684 0.995734 0
    outer loop
      vertex -0.47891 -1.68319 4.625
      vertex 0.16147 -1.74253 0
      vertex -0.47891 -1.68319 0
    endloop
  endfacet
  facet normal 0.445738 0.895163 0
    outer loop
      vertex -0.47891 -1.68319 4.625
      vertex -0.47891 -1.68319 0
      vertex -1.05461 -1.39653 4.625
    endloop
  endfacet
  facet normal 0.445738 0.895163 0
    outer loop
      vertex -1.05461 -1.39653 4.625
      vertex -0.47891 -1.68319 0
      vertex -1.05461 -1.39653 0
    endloop
  endfacet
  facet normal 0.739009 0.673695 0
    outer loop
      vertex -1.48788 -0.921256 4.625
      vertex -1.05461 -1.39653 4.625
      vertex -1.05461 -1.39653 0
    endloop
  endfacet
  facet normal 0.739009 0.673695 0
    outer loop
      vertex -1.48788 -0.921256 0
      vertex -1.48788 -0.921256 4.625
      vertex -1.05461 -1.39653 0
    endloop
  endfacet
  facet normal 0.932472 0.361242 0
    outer loop
      vertex -1.7202 -0.321562 4.625
      vertex -1.48788 -0.921256 4.625
      vertex -1.48788 -0.921256 0
    endloop
  endfacet
  facet normal 0.932472 0.361242 0
    outer loop
      vertex -1.7202 -0.321562 0
      vertex -1.7202 -0.321562 4.625
      vertex -1.48788 -0.921256 0
    endloop
  endfacet
  facet normal 0.932472 -0.361242 0
    outer loop
      vertex -1.48788 10.9213 0
      vertex -1.48788 10.9213 3.625
      vertex -1.7202 10.3216 3.625
    endloop
  endfacet
  facet normal 0.932472 -0.361242 0
    outer loop
      vertex -1.7202 10.3216 0
      vertex -1.48788 10.9213 0
      vertex -1.7202 10.3216 3.625
    endloop
  endfacet
  facet normal 1 0 0
    outer loop
      vertex -1.7202 10.3216 0
      vertex -1.7202 10.3216 3.625
      vertex -1.7202 9.67844 3.625
    endloop
  endfacet
  facet normal 1 0 0
    outer loop
      vertex -1.7202 9.67844 0
      vertex -1.7202 10.3216 0
      vertex -1.7202 9.67844 3.625
    endloop
  endfacet
  facet normal 0.739009 -0.673695 0
    outer loop
      vertex -1.05461 11.3965 0
      vertex -1.05461 11.3965 3.625
      vertex -1.48788 10.9213 3.625
    endloop
  endfacet
  facet normal 0.739009 -0.673695 0
    outer loop
      vertex -1.48788 10.9213 0
      vertex -1.05461 11.3965 0
      vertex -1.48788 10.9213 3.625
    endloop
  endfacet
  facet normal 0.445738 -0.895163 0
    outer loop
      vertex -0.47891 11.6832 0
      vertex -0.47891 11.6832 3.625
      vertex -1.05461 11.3965 3.625
    endloop
  endfacet
  facet normal 0.445738 -0.895163 0
    outer loop
      vertex -1.05461 11.3965 0
      vertex -0.47891 11.6832 0
      vertex -1.05461 11.3965 3.625
    endloop
  endfacet
  facet normal 0.0922684 -0.995734 0
    outer loop
      vertex 0.16147 11.7425 0
      vertex 0.16147 11.7425 3.625
      vertex -0.47891 11.6832 3.625
    endloop
  endfacet
  facet normal 0.0922684 -0.995734 0
    outer loop
      vertex -0.47891 11.6832 0
      vertex 0.16147 11.7425 0
      vertex -0.47891 11.6832 3.625
    endloop
  endfacet
  facet normal -0.273663 -0.961826 0
    outer loop
      vertex 0.780042 11.5665 0
      vertex 0.780042 11.5665 3.625
      vertex 0.16147 11.7425 3.625
    endloop
  endfacet
  facet normal -0.273663 -0.961826 0
    outer loop
      vertex 0.16147 11.7425 0
      vertex 0.780042 11.5665 0
      vertex 0.16147 11.7425 3.625
    endloop
  endfacet
  facet normal -0.602635 -0.798017 0
    outer loop
      vertex 1.29327 11.179 0
      vertex 1.29327 11.179 3.625
      vertex 0.780042 11.5665 3.625
    endloop
  endfacet
  facet normal -0.602635 -0.798017 0
    outer loop
      vertex 0.780042 11.5665 0
      vertex 1.29327 11.179 0
      vertex 0.780042 11.5665 3.625
    endloop
  endfacet
  facet normal -0.850217 -0.526432 0
    outer loop
      vertex 1.63183 10.6322 3.625
      vertex 1.29327 11.179 3.625
      vertex 1.63183 10.6322 0
    endloop
  endfacet
  facet normal -0.850217 -0.526432 0
    outer loop
      vertex 1.63183 10.6322 0
      vertex 1.29327 11.179 3.625
      vertex 1.29327 11.179 0
    endloop
  endfacet
  facet normal -0.982973 -0.18375 0
    outer loop
      vertex 1.75 10 3.625
      vertex 1.63183 10.6322 3.625
      vertex 1.75 10 0
    endloop
  endfacet
  facet normal -0.982973 -0.18375 0
    outer loop
      vertex 1.75 10 0
      vertex 1.63183 10.6322 3.625
      vertex 1.63183 10.6322 0
    endloop
  endfacet
  facet normal -0.982973 0.18375 0
    outer loop
      vertex 1.75 10 3.625
      vertex 1.75 10 0
      vertex 1.63183 9.36783 3.625
    endloop
  endfacet
  facet normal -0.982973 0.18375 0
    outer loop
      vertex 1.63183 9.36783 3.625
      vertex 1.75 10 0
      vertex 1.63183 9.36783 0
    endloop
  endfacet
  facet normal -0.850217 0.526432 0
    outer loop
      vertex 1.63183 9.36783 3.625
      vertex 1.63183 9.36783 0
      vertex 1.29327 8.82103 3.625
    endloop
  endfacet
  facet normal -0.850217 0.526432 0
    outer loop
      vertex 1.29327 8.82103 3.625
      vertex 1.63183 9.36783 0
      vertex 1.29327 8.82103 0
    endloop
  endfacet
  facet normal -0.602635 0.798017 0
    outer loop
      vertex 1.29327 8.82103 3.625
      vertex 1.29327 8.82103 0
      vertex 0.780042 8.43346 3.625
    endloop
  endfacet
  facet normal -0.602635 0.798017 0
    outer loop
      vertex 0.780042 8.43346 3.625
      vertex 1.29327 8.82103 0
      vertex 0.780042 8.43346 0
    endloop
  endfacet
  facet normal -0.273663 0.961826 0
    outer loop
      vertex 0.780042 8.43346 3.625
      vertex 0.780042 8.43346 0
      vertex 0.16147 8.25746 3.625
    endloop
  endfacet
  facet normal -0.273663 0.961826 0
    outer loop
      vertex 0.16147 8.25746 3.625
      vertex 0.780042 8.43346 0
      vertex 0.16147 8.25746 0
    endloop
  endfacet
  facet normal 0.0922684 0.995734 0
    outer loop
      vertex 0.16147 8.25746 3.625
      vertex 0.16147 8.25746 0
      vertex -0.47891 8.3168 3.625
    endloop
  endfacet
  facet normal 0.0922684 0.995734 0
    outer loop
      vertex -0.47891 8.3168 3.625
      vertex 0.16147 8.25746 0
      vertex -0.47891 8.3168 0
    endloop
  endfacet
  facet normal 0.445738 0.895163 0
    outer loop
      vertex -0.47891 8.3168 3.625
      vertex -0.47891 8.3168 0
      vertex -1.05461 8.60347 3.625
    endloop
  endfacet
  facet normal 0.445738 0.895163 0
    outer loop
      vertex -1.05461 8.60347 3.625
      vertex -0.47891 8.3168 0
      vertex -1.05461 8.60347 0
    endloop
  endfacet
  facet normal 0.739009 0.673695 0
    outer loop
      vertex -1.48788 9.07874 3.625
      vertex -1.05461 8.60347 3.625
      vertex -1.05461 8.60347 0
    endloop
  endfacet
  facet normal 0.739009 0.673695 0
    outer loop
      vertex -1.48788 9.07874 0
      vertex -1.48788 9.07874 3.625
      vertex -1.05461 8.60347 0
    endloop
  endfacet
  facet normal 0.932472 0.361242 0
    outer loop
      vertex -1.7202 9.67844 3.625
      vertex -1.48788 9.07874 3.625
      vertex -1.48788 9.07874 0
    endloop
  endfacet
  facet normal 0.932472 0.361242 0
    outer loop
      vertex -1.7202 9.67844 0
      vertex -1.7202 9.67844 3.625
      vertex -1.48788 9.07874 0
    endloop
  endfacet
  facet normal 0.117099 0.292065 0.949203
    outer loop
      vertex 0 16.9665 3.11323
      vertex -1e-06 13.2026 4.27135
      vertex 4.25151 15.2619 3.11323
    endloop
  endfacet
  facet normal -0.192487 0.751971 0.630467
    outer loop
      vertex 4.25151 15.2619 3.11323
      vertex -1e-06 13.2026 4.27135
      vertex 4.25151 12.3254 6.61561
    endloop
  endfacet
  facet normal -0.218218 0.715618 0.66353
    outer loop
      vertex -1e-06 13.2026 4.27135
      vertex -1e-06 11.029 6.61561
      vertex 4.25151 12.3254 6.61561
    endloop
  endfacet
  facet normal -0.121442 0.398252 0.909201
    outer loop
      vertex 4.25151 12.3254 6.61561
      vertex -1e-06 11.029 6.61561
      vertex 2.76796 9.06902 7.84383
    endloop
  endfacet
  facet normal 0.863688 0.15014 0.481145
    outer loop
      vertex 4.1582 0.132038 6.61561
      vertex 3.12236 2.15476 7.84383
      vertex 4.55248 -6.0721 7.84383
    endloop
  endfacet
  facet normal 0.632275 0.188927 0.751355
    outer loop
      vertex 6.08353 -6.3114 6.61561
      vertex 4.1582 0.132038 6.61561
      vertex 4.55248 -6.0721 7.84383
    endloop
  endfacet
  facet normal 0.206196 0.0939528 0.97399
    outer loop
      vertex 8.92201 -2.26447 5.62432
      vertex 6.08353 -6.3114 6.61561
      vertex 9.21065 -6.58335 5.97982
    endloop
  endfacet
  facet normal 0.166869 -0.286694 0.943378
    outer loop
      vertex 6.08353 -6.3114 6.61561
      vertex 5.07527 -11.5417 5.20446
      vertex 9.21065 -6.58335 5.97982
    endloop
  endfacet
  facet normal 0.716565 -0.307106 0.626275
    outer loop
      vertex 6.08353 -6.3114 6.61561
      vertex 3.14975 -13.1567 6.61561
      vertex 5.07527 -11.5417 5.20446
    endloop
  endfacet
  facet normal 0.10106 -0.0433122 0.993937
    outer loop
      vertex 6.08353 -6.3114 6.61561
      vertex 2.37377 -9.73408 6.84365
      vertex 3.14975 -13.1567 6.61561
    endloop
  endfacet
  facet normal 0 0.0664805 0.997788
    outer loop
      vertex 6.08353 -6.3114 6.61561
      vertex -1e-06 -6.3114 6.61561
      vertex 2.37377 -9.73408 6.84365
    endloop
  endfacet
  facet normal 0.237272 0.0708981 0.968853
    outer loop
      vertex 8.92201 -2.26447 5.62432
      vertex 4.1582 0.132038 6.61561
      vertex 6.08353 -6.3114 6.61561
    endloop
  endfacet
  facet normal -0.0956286 0 0.995417
    outer loop
      vertex -1e-06 -6.3114 6.61561
      vertex -1e-06 -13.1567 6.61561
      vertex 2.37377 -9.73408 6.84365
    endloop
  endfacet
  facet normal 0.0956287 0 0.995417
    outer loop
      vertex -1e-06 -6.3114 6.61561
      vertex -2.37377 -9.73408 6.84365
      vertex -1e-06 -13.1567 6.61561
    endloop
  endfacet
  facet normal 0 -0.0664807 0.997788
    outer loop
      vertex 2.37377 -9.73408 6.84365
      vertex -1e-06 -13.1567 6.61561
      vertex 3.14975 -13.1567 6.61561
    endloop
  endfacet
  facet normal 0 0.129191 0.99162
    outer loop
      vertex 3.14975 -13.1567 6.61561
      vertex -1e-06 -13.1567 6.61561
      vertex 1.48407 -14.2976 6.76424
    endloop
  endfacet
  facet normal -0.0996575 0 0.995022
    outer loop
      vertex -1e-06 -13.1567 6.61561
      vertex -1e-06 -16.5794 6.61561
      vertex 1.48407 -14.2976 6.76424
    endloop
  endfacet
  facet normal 0.0996577 0 0.995022
    outer loop
      vertex -1e-06 -13.1567 6.61561
      vertex -1.48407 -14.2976 6.76424
      vertex -1e-06 -16.5794 6.61561
    endloop
  endfacet
  facet normal 0.229364 -0.211074 0.950179
    outer loop
      vertex 1.48407 -14.2976 6.76424
      vertex -1e-06 -16.5794 6.61561
      vertex 3.14975 -13.1567 6.61561
    endloop
  endfacet
  facet normal 0 0 1
    outer loop
      vertex 3.14975 -13.1567 6.61561
      vertex -1e-06 -16.5794 6.61561
      vertex 4.14431 -15.2104 6.61561
    endloop
  endfacet
  facet normal 0.290671 -0.879889 0.375905
    outer loop
      vertex 4.14431 -15.2104 6.61561
      vertex -1e-06 -16.5794 6.61561
      vertex 5.00049 -16.5794 2.74894
    endloop
  endfacet
  facet normal 0.939212 0.331136 0.0907211
    outer loop
      vertex 5.00049 -16.5794 2.74894
      vertex 3.79376 -13.1567 2.74894
      vertex 4.14431 -15.2104 6.61561
    endloop
  endfacet
  facet normal 0.31888 0.0163445 0.947654
    outer loop
      vertex 7.041 3.84708 6.49605
      vertex 2.76796 9.06902 7.84383
      vertex 3.12236 2.15476 7.84383
    endloop
  endfacet
  facet normal -0.0207464 0.36109 0.9323
    outer loop
      vertex 4.25151 12.3254 6.61561
      vertex 2.76796 9.06902 7.84383
      vertex 5.38419 10.4968 7.34905
    endloop
  endfacet
  facet normal 0.22186 -0.069484 0.9726
    outer loop
      vertex 5.38419 10.4968 7.34905
      vertex 2.76796 9.06902 7.84383
      vertex 7.041 3.84708 6.49605
    endloop
  endfacet
  facet normal 0.475996 -0.78248 0.401439
    outer loop
      vertex 7.041 3.84708 6.49605
      vertex 3.12236 2.15476 7.84383
      vertex 4.1582 2.15476 6.61561
    endloop
  endfacet
  facet normal 0.764436 0 0.644699
    outer loop
      vertex 4.1582 2.15476 6.61561
      vertex 3.12236 2.15476 7.84383
      vertex 4.1582 0.132038 6.61561
    endloop
  endfacet
  facet normal 0.103891 -0.00956591 -0.994543
    outer loop
      vertex 7.73906 -8.18271 3.11323
      vertex 3.79376 -13.1567 2.74894
      vertex 5.01735 0.132038 2.74894
    endloop
  endfacet
  facet normal 0.890064 0.431055 0.148245
    outer loop
      vertex 3.79376 -13.1567 2.74894
      vertex 3.14975 -13.1567 6.61561
      vertex 4.14431 -15.2104 6.61561
    endloop
  endfacet
  facet normal 0.686266 -0.718314 0.114301
    outer loop
      vertex 5.07527 -11.5417 5.20446
      vertex 3.14975 -13.1567 6.61561
      vertex 3.79376 -13.1567 2.74894
    endloop
  endfacet
  facet normal 0.780123 -0.625611 0.00434518
    outer loop
      vertex 5.07527 -11.5417 5.20446
      vertex 3.79376 -13.1567 2.74894
      vertex 8.58101 -7.17293 4.79878
    endloop
  endfacet
  facet normal 0.784024 -0.62041 -0.0199516
    outer loop
      vertex 8.58101 -7.17293 4.79878
      vertex 3.79376 -13.1567 2.74894
      vertex 7.73906 -8.18271 3.11323
    endloop
  endfacet
  facet normal 0.464047 0.879789 0.103108
    outer loop
      vertex 5.01735 0.132038 2.74894
      vertex 4.1582 0.132038 6.61561
      vertex 8.92201 -2.26447 5.62432
    endloop
  endfacet
  facet normal 0.976193 0 0.216903
    outer loop
      vertex 4.1582 2.15476 6.61561
      vertex 4.1582 0.132038 6.61561
      vertex 5.01735 0.132038 2.74894
    endloop
  endfacet
  facet normal 0.976193 0 0.216903
    outer loop
      vertex 5.01735 2.15476 2.74894
      vertex 4.1582 2.15476 6.61561
      vertex 5.01735 0.132038 2.74894
    endloop
  endfacet
  facet normal 0.0948965 -0.0125481 -0.995408
    outer loop
      vertex 7.73906 -8.18271 3.11323
      vertex 5.01735 0.132038 2.74894
      vertex 8.49095 -2.49644 3.11323
    endloop
  endfacet
  facet normal 0.60568 0.776076 -0.175664
    outer loop
      vertex 8.49095 -2.49644 3.11323
      vertex 5.01735 0.132038 2.74894
      vertex 8.92201 -2.26447 5.62432
    endloop
  endfacet
  facet normal 0.590065 -0.796639 0.131108
    outer loop
      vertex 7.22117 3.84708 3.11323
      vertex 4.1582 2.15476 6.61561
      vertex 5.01735 2.15476 2.74894
    endloop
  endfacet
  facet normal 0 -0.984432 -0.175767
    outer loop
      vertex 8.77769 3.43047 5.44657
      vertex 7.22117 3.84708 3.11323
      vertex 8.70189 3.84708 3.11323
    endloop
  endfacet
  facet normal 0 0 -1
    outer loop
      vertex 5.89307 13.9884 3.11323
      vertex 7.03021 11.9282 3.11323
      vertex 7.22117 3.84708 3.11323
    endloop
  endfacet
  facet normal 0 0 -1
    outer loop
      vertex 7.22117 3.84708 3.11323
      vertex 7.03021 11.9282 3.11323
      vertex 9.45975 10.8424 3.11323
    endloop
  endfacet
  facet normal 0 0 -1
    outer loop
      vertex 7.22117 3.84708 3.11323
      vertex 9.45975 10.8424 3.11323
      vertex 8.70189 3.84708 3.11323
    endloop
  endfacet
  facet normal 0 0 -1
    outer loop
      vertex 8.70189 3.84708 3.11323
      vertex 14.106 3.84708 3.11323
      vertex 13.5369 -3.92511 3.11323
    endloop
  endfacet
  facet normal 0 0 -1
    outer loop
      vertex 8.49095 -2.49644 3.11323
      vertex 10.224 -8.18271 3.11323
      vertex 7.73906 -8.18271 3.11323
    endloop
  endfacet
  facet normal 0 0 -1
    outer loop
      vertex 9.45975 10.8424 3.11323
      vertex 14.106 3.84708 3.11323
      vertex 8.70189 3.84708 3.11323
    endloop
  endfacet
  facet normal 0 0 -1
    outer loop
      vertex 8.70189 3.84708 3.11323
      vertex 13.5369 -3.92511 3.11323
      vertex 10.224 -8.18271 3.11323
    endloop
  endfacet
  facet normal 0 0 -1
    outer loop
      vertex 8.70189 3.84708 3.11323
      vertex 10.224 -8.18271 3.11323
      vertex 8.49095 -2.49644 3.11323
    endloop
  endfacet
  facet normal 0.506901 -0.861581 0.0269983
    outer loop
      vertex 7.041 3.84708 6.49605
      vertex 4.1582 2.15476 6.61561
      vertex 7.22117 3.84708 3.11323
    endloop
  endfacet
  facet normal -0.240566 -0.970548 -0.0128129
    outer loop
      vertex 8.77769 3.43047 5.44657
      vertex 7.041 3.84708 6.49605
      vertex 7.22117 3.84708 3.11323
    endloop
  endfacet
  facet normal -0.383304 0.330174 0.862591
    outer loop
      vertex 7.78166 11.9165 4.7455
      vertex 5.89307 13.9884 3.11323
      vertex 7.03527 8.1556 5.85338
    endloop
  endfacet
  facet normal 0.851069 0.350372 0.391051
    outer loop
      vertex 5.89307 13.9884 3.11323
      vertex 5.38419 10.4968 7.34905
      vertex 7.03527 8.1556 5.85338
    endloop
  endfacet
  facet normal 0.588994 0.587439 0.554978
    outer loop
      vertex 5.89307 13.9884 3.11323
      vertex 4.25151 12.3254 6.61561
      vertex 5.38419 10.4968 7.34905
    endloop
  endfacet
  facet normal 0.511015 0.65869 0.55226
    outer loop
      vertex 4.25151 15.2619 3.11323
      vertex 4.25151 12.3254 6.61561
      vertex 5.89307 13.9884 3.11323
    endloop
  endfacet
  facet normal 0.812988 0.448744 -0.371052
    outer loop
      vertex 7.03021 11.9282 3.11323
      vertex 5.89307 13.9884 3.11323
      vertex 7.78166 11.9165 4.7455
    endloop
  endfacet
  facet normal 0 0 -1
    outer loop
      vertex -1.48788 0.921256 4.625
      vertex -1.05461 1.39653 4.625
      vertex -1.7202 0.321562 4.625
    endloop
  endfacet
  facet normal 0 0 -1
    outer loop
      vertex -1.7202 0.321562 4.625
      vertex -1.05461 1.39653 4.625
      vertex -0.47891 1.68319 4.625
    endloop
  endfacet
  facet normal 0 0 -1
    outer loop
      vertex -1.7202 0.321562 4.625
      vertex -0.47891 1.68319 4.625
      vertex 0.16147 1.74253 4.625
    endloop
  endfacet
  facet normal 0 0 -1
    outer loop
      vertex -1.7202 0.321562 4.625
      vertex 0.16147 1.74253 4.625
      vertex 0.780042 1.56654 4.625
    endloop
  endfacet
  facet normal 0 0 -1
    outer loop
      vertex -1.7202 0.321562 4.625
      vertex 0.780042 1.56654 4.625
      vertex 1.29327 1.17897 4.625
    endloop
  endfacet
  facet normal 0 0 -1
    outer loop
      vertex -1.7202 0.321562 4.625
      vertex 1.29327 1.17897 4.625
      vertex 1.63183 0.632173 4.625
    endloop
  endfacet
  facet normal 0 0 -1
    outer loop
      vertex -1.7202 0.321562 4.625
      vertex 1.63183 0.632173 4.625
      vertex 1.75 0 4.625
    endloop
  endfacet
  facet normal 0 0 -1
    outer loop
      vertex -1.7202 0.321562 4.625
      vertex 1.75 0 4.625
      vertex 1.63183 -0.632173 4.625
    endloop
  endfacet
  facet normal 0 0 -1
    outer loop
      vertex -1.7202 0.321562 4.625
      vertex 1.63183 -0.632173 4.625
      vertex 1.29327 -1.17897 4.625
    endloop
  endfacet
  facet normal 0 0 -1
    outer loop
      vertex -1.7202 0.321562 4.625
      vertex 1.29327 -1.17897 4.625
      vertex 0.780042 -1.56654 4.625
    endloop
  endfacet
  facet normal 0 0 -1
    outer loop
      vertex -1.7202 0.321562 4.625
      vertex 0.780042 -1.56654 4.625
      vertex 0.16147 -1.74253 4.625
    endloop
  endfacet
  facet normal 0 0 -1
    outer loop
      vertex -1.7202 0.321562 4.625
      vertex 0.16147 -1.74253 4.625
      vertex -0.47891 -1.68319 4.625
    endloop
  endfacet
  facet normal 0 0 -1
    outer loop
      vertex -1.7202 0.321562 4.625
      vertex -0.47891 -1.68319 4.625
      vertex -1.05461 -1.39653 4.625
    endloop
  endfacet
  facet normal 0 0 -1
    outer loop
      vertex -1.7202 0.321562 4.625
      vertex -1.05461 -1.39653 4.625
      vertex -1.48788 -0.921256 4.625
    endloop
  endfacet
  facet normal 0 0 -1
    outer loop
      vertex -1.7202 0.321562 4.625
      vertex -1.48788 -0.921256 4.625
      vertex -1.7202 -0.321562 4.625
    endloop
  endfacet
  facet normal 0 0 -1
    outer loop
      vertex -1.48788 10.9213 3.625
      vertex -1.05461 11.3965 3.625
      vertex -1.7202 10.3216 3.625
    endloop
  endfacet
  facet normal 0 0 -1
    outer loop
      vertex -1.7202 10.3216 3.625
      vertex -1.05461 11.3965 3.625
      vertex -0.47891 11.6832 3.625
    endloop
  endfacet
  facet normal 0 0 -1
    outer loop
      vertex -1.7202 10.3216 3.625
      vertex -0.47891 11.6832 3.625
      vertex 0.16147 11.7425 3.625
    endloop
  endfacet
  facet normal 0 0 -1
    outer loop
      vertex -1.7202 10.3216 3.625
      vertex 0.16147 11.7425 3.625
      vertex 0.780042 11.5665 3.625
    endloop
  endfacet
  facet normal 0 0 -1
    outer loop
      vertex -1.7202 10.3216 3.625
      vertex 0.780042 11.5665 3.625
      vertex 1.29327 11.179 3.625
    endloop
  endfacet
  facet normal 0 0 -1
    outer loop
      vertex -1.7202 10.3216 3.625
      vertex 1.29327 11.179 3.625
      vertex 1.63183 10.6322 3.625
    endloop
  endfacet
  facet normal 0 0 -1
    outer loop
      vertex -1.7202 10.3216 3.625
      vertex 1.63183 10.6322 3.625
      vertex 1.75 10 3.625
    endloop
  endfacet
  facet normal 0 0 -1
    outer loop
      vertex -1.7202 10.3216 3.625
      vertex 1.75 10 3.625
      vertex 1.63183 9.36783 3.625
    endloop
  endfacet
  facet normal 0 0 -1
    outer loop
      vertex -1.7202 10.3216 3.625
      vertex 1.63183 9.36783 3.625
      vertex 1.29327 8.82103 3.625
    endloop
  endfacet
  facet normal 0 0 -1
    outer loop
      vertex -1.7202 10.3216 3.625
      vertex 1.29327 8.82103 3.625
      vertex 0.780042 8.43346 3.625
    endloop
  endfacet
  facet normal 0 0 -1
    outer loop
      vertex -1.7202 10.3216 3.625
      vertex 0.780042 8.43346 3.625
      vertex 0.16147 8.25746 3.625
    endloop
  endfacet
  facet normal 0 0 -1
    outer loop
      vertex -1.7202 10.3216 3.625
      vertex 0.16147 8.25746 3.625
      vertex -0.47891 8.3168 3.625
    endloop
  endfacet
  facet normal 0 0 -1
    outer loop
      vertex -1.7202 10.3216 3.625
      vertex -0.47891 8.3168 3.625
      vertex -1.05461 8.60347 3.625
    endloop
  endfacet
  facet normal 0 0 -1
    outer loop
      vertex -1.7202 10.3216 3.625
      vertex -1.05461 8.60347 3.625
      vertex -1.48788 9.07874 3.625
    endloop
  endfacet
  facet normal 0 0 -1
    outer loop
      vertex -1.7202 10.3216 3.625
      vertex -1.48788 9.07874 3.625
      vertex -1.7202 9.67844 3.625
    endloop
  endfacet
  facet normal -0.999306 -0.0244474 0.0280972
    outer loop
      vertex 8.77769 3.43047 5.44657
      vertex 8.70189 3.84708 3.11323
      vertex 8.92201 -2.26447 5.62432
    endloop
  endfacet
  facet normal 0.290406 0.0372037 0.95618
    outer loop
      vertex 12.4097 -4.20786 4.64066
      vertex 8.77769 3.43047 5.44657
      vertex 8.92201 -2.26447 5.62432
    endloop
  endfacet
  facet normal 0.320814 0.0989763 0.941956
    outer loop
      vertex 12.4097 -4.20786 4.64066
      vertex 8.92201 -2.26447 5.62432
      vertex 9.21065 -6.58335 5.97982
    endloop
  endfacet
  facet normal -0.985555 0.0327726 0.166155
    outer loop
      vertex 8.70189 3.84708 3.11323
      vertex 8.49095 -2.49644 3.11323
      vertex 8.92201 -2.26447 5.62432
    endloop
  endfacet
  facet normal 0.612647 -0.787552 0.0665285
    outer loop
      vertex 9.21065 -6.58335 5.97982
      vertex 8.58101 -7.17293 4.79878
      vertex 12.4097 -4.20786 4.64066
    endloop
  endfacet
  facet normal 0.771747 -0.628371 -0.0977552
    outer loop
      vertex 9.21065 -6.58335 5.97982
      vertex 5.07527 -11.5417 5.20446
      vertex 8.58101 -7.17293 4.79878
    endloop
  endfacet
  facet normal 0.74206 0.0998586 0.662854
    outer loop
      vertex 7.03527 8.1556 5.85338
      vertex 5.38419 10.4968 7.34905
      vertex 7.041 3.84708 6.49605
    endloop
  endfacet
  facet normal 0.534971 0.125338 0.835522
    outer loop
      vertex 8.77769 3.43047 5.44657
      vertex 7.03527 8.1556 5.85338
      vertex 7.041 3.84708 6.49605
    endloop
  endfacet
  facet normal 0 -0.85784 0.513916
    outer loop
      vertex 8.58101 -7.17293 4.79878
      vertex 7.73906 -8.18271 3.11323
      vertex 10.224 -8.18271 3.11323
    endloop
  endfacet
  facet normal 0 -0.85784 0.513916
    outer loop
      vertex 11.0659 -7.17293 4.79878
      vertex 8.58101 -7.17293 4.79878
      vertex 10.224 -8.18271 3.11323
    endloop
  endfacet
  facet normal 0 0.0532524 0.998581
    outer loop
      vertex 12.4097 -4.20786 4.64066
      vertex 8.58101 -7.17293 4.79878
      vertex 11.0659 -7.17293 4.79878
    endloop
  endfacet
  facet normal 0.552326 0.132818 0.82298
    outer loop
      vertex 7.78166 11.9165 4.7455
      vertex 7.03527 8.1556 5.85338
      vertex 8.77769 3.43047 5.44657
    endloop
  endfacet
  facet normal 0.0798741 0.0913786 0.992608
    outer loop
      vertex 9.93179 10.8081 4.67452
      vertex 7.78166 11.9165 4.7455
      vertex 8.77769 3.43047 5.44657
    endloop
  endfacet
  facet normal 0.315173 0.0498731 0.947723
    outer loop
      vertex 9.93179 10.8081 4.67452
      vertex 8.77769 3.43047 5.44657
      vertex 12.4097 -4.20786 4.64066
    endloop
  endfacet
  facet normal 0.889098 -0.413421 -0.196438
    outer loop
      vertex 11.0659 -7.17293 4.79878
      vertex 10.224 -8.18271 3.11323
      vertex 12.4097 -4.20786 4.64066
    endloop
  endfacet
  facet normal 0.714616 -0.556053 0.424415
    outer loop
      vertex 12.4097 -4.20786 4.64066
      vertex 10.224 -8.18271 3.11323
      vertex 13.5369 -3.92511 3.11323
    endloop
  endfacet
  facet normal 0.808423 -0.0591956 0.585618
    outer loop
      vertex 14.106 3.84708 3.11323
      vertex 12.4097 -4.20786 4.64066
      vertex 13.5369 -3.92511 3.11323
    endloop
  endfacet
  facet normal 0.453721 0.0728705 0.88816
    outer loop
      vertex 14.106 3.84708 3.11323
      vertex 9.93179 10.8081 4.67452
      vertex 12.4097 -4.20786 4.64066
    endloop
  endfacet
  facet normal 0.810048 0.538034 -0.233114
    outer loop
      vertex 14.106 3.84708 3.11323
      vertex 9.45975 10.8424 3.11323
      vertex 9.93179 10.8081 4.67452
    endloop
  endfacet
  facet normal 0.451966 0.884295 -0.117257
    outer loop
      vertex 9.45975 10.8424 3.11323
      vertex 7.78166 11.9165 4.7455
      vertex 9.93179 10.8081 4.67452
    endloop
  endfacet
  facet normal 0.401489 0.898324 -0.178383
    outer loop
      vertex 9.45975 10.8424 3.11323
      vertex 7.03021 11.9282 3.11323
      vertex 7.78166 11.9165 4.7455
    endloop
  endfacet
endsolid OpenSCAD_Model
