solid OpenSCAD_Model
  facet normal -0.983618 -0.0561807 -0.171288
    outer loop
      vertex -14.3579 -3.80399 4
      vertex -14.8739 -5.99787 7.68311
      vertex -14.6112 0.631003 4
    endloop
  endfacet
  facet normal -0.990076 0.0961786 0.102468
    outer loop
      vertex -14.6112 0.631003 4
      vertex -14.8739 -5.99787 7.68311
      vertex -13.7962 6.16637 6.67839
    endloop
  endfacet
  facet normal 0 0.0823164 0.996606
    outer loop
      vertex -13.7962 6.16637 6.67839
      vertex -14.8739 -5.99787 7.68311
      vertex -11.2877 -5.99787 7.68311
    endloop
  endfacet
  facet normal 0 -0.389013 0.921232
    outer loop
      vertex -11.2877 -5.99787 7.68311
      vertex -14.8739 -5.99787 7.68311
      vertex -13.3407 -9.59138 6.16567
    endloop
  endfacet
  facet normal 0 -0.389013 0.921232
    outer loop
      vertex -10.6975 -9.59138 6.16567
      vertex -11.2877 -5.99787 7.68311
      vertex -13.3407 -9.59138 6.16567
    endloop
  endfacet
  facet normal -0.930567 -0.343271 -0.12732
    outer loop
      vertex -13.3407 -9.59138 6.16567
      vertex -14.8739 -5.99787 7.68311
      vertex -12.737 -10.4248 4
    endloop
  endfacet
  facet normal -0.935889 -0.229119 -0.267612
    outer loop
      vertex -12.737 -10.4248 4
      vertex -14.8739 -5.99787 7.68311
      vertex -14.3579 -3.80399 4
    endloop
  endfacet
  facet normal 0 0 -1
    outer loop
      vertex -14.6112 0.631003 4
      vertex -12.0342 8.75503 4
      vertex -14.3579 -3.80399 4
    endloop
  endfacet
  facet normal 0 0 -1
    outer loop
      vertex -14.3579 -3.80399 4
      vertex -12.0342 8.75503 4
      vertex -9.09322 9.6069 4
    endloop
  endfacet
  facet normal 0 0 -1
    outer loop
      vertex -14.3579 -3.80399 4
      vertex -9.09322 9.6069 4
      vertex -6.42657 13.836 4
    endloop
  endfacet
  facet normal 0 0 -1
    outer loop
      vertex -10.6294 0.631003 4
      vertex -6.42657 13.836 4
      vertex -10.0427 -2.77014 4
    endloop
  endfacet
  facet normal 0 0 -1
    outer loop
      vertex -14.3579 -3.80399 4
      vertex -6.42657 13.836 4
      vertex -10.6294 0.631003 4
    endloop
  endfacet
  facet normal 0 0 -1
    outer loop
      vertex -14.3579 -3.80399 4
      vertex -10.7716 -3.80399 4
      vertex -10.0938 -10.4248 4
    endloop
  endfacet
  facet normal 0 0 -1
    outer loop
      vertex -14.3579 -3.80399 4
      vertex -10.0938 -10.4248 4
      vertex -12.737 -10.4248 4
    endloop
  endfacet
  facet normal 0 0 -1
    outer loop
      vertex -10.7716 -3.80399 4
      vertex -14.3579 -3.80399 4
      vertex -10.6294 0.631003 4
    endloop
  endfacet
  facet normal -0.903867 0.286708 -0.317526
    outer loop
      vertex -12.0342 8.75503 4
      vertex -14.6112 0.631003 4
      vertex -13.7962 6.16637 6.67839
    endloop
  endfacet
  facet normal -0.0195161 0.725297 0.68816
    outer loop
      vertex -12.0342 8.75503 4
      vertex -13.7962 6.16637 6.67839
      vertex -10.5803 6.16637 6.76959
    endloop
  endfacet
  facet normal -0.0282654 0.0764927 0.996669
    outer loop
      vertex -10.5803 6.16637 6.76959
      vertex -13.7962 6.16637 6.67839
      vertex -11.2877 -5.99787 7.68311
    endloop
  endfacet
  facet normal 0.992741 -0.0495017 0.109615
    outer loop
      vertex -10.5803 6.16637 6.76959
      vertex -11.2877 -5.99787 7.68311
      vertex -10.7716 -3.80399 4
    endloop
  endfacet
  facet normal 0.518705 0.700603 0.490001
    outer loop
      vertex -10.7716 -3.80399 4
      vertex -11.2877 -5.99787 7.68311
      vertex -7.76869 -9.17458 8.5
    endloop
  endfacet
  facet normal -0.55881 -0.437933 0.704235
    outer loop
      vertex -7.76869 -9.17458 8.5
      vertex -11.2877 -5.99787 7.68311
      vertex -6.67075 -13.4912 6.6869
    endloop
  endfacet
  facet normal -0.492772 -0.405943 0.769666
    outer loop
      vertex -6.67075 -13.4912 6.6869
      vertex -11.2877 -5.99787 7.68311
      vertex -10.6975 -9.59138 6.16567
    endloop
  endfacet
  facet normal -0.69542 -0.718593 -0.00400043
    outer loop
      vertex -6.67075 -13.4912 6.6869
      vertex -10.6975 -9.59138 6.16567
      vertex -5.27525 -14.8241 3.53195
    endloop
  endfacet
  facet normal -0.665674 -0.739639 0.0990552
    outer loop
      vertex -5.27525 -14.8241 3.53195
      vertex -10.6975 -9.59138 6.16567
      vertex -10.0938 -10.4248 4
    endloop
  endfacet
  facet normal 0 -0.933282 0.359144
    outer loop
      vertex -10.6975 -9.59138 6.16567
      vertex -13.3407 -9.59138 6.16567
      vertex -12.737 -10.4248 4
    endloop
  endfacet
  facet normal 0 -0.933282 0.359144
    outer loop
      vertex -10.0938 -10.4248 4
      vertex -10.6975 -9.59138 6.16567
      vertex -12.737 -10.4248 4
    endloop
  endfacet
  facet normal -0.112019 -0.0169858 -0.993561
    outer loop
      vertex -5.27525 -14.8241 3.53195
      vertex -10.0938 -10.4248 4
      vertex -6.60767 -6.03702 3.53195
    endloop
  endfacet
  facet normal -0.118095 -0.0120908 -0.992929
    outer loop
      vertex -10.0938 -10.4248 4
      vertex -10.7716 -3.80399 4
      vertex -6.60767 -6.03702 3.53195
    endloop
  endfacet
  facet normal 0.998416 -0.0320155 0.0462738
    outer loop
      vertex -10.5803 6.16637 6.76959
      vertex -10.7716 -3.80399 4
      vertex -10.6294 0.631003 4
    endloop
  endfacet
  facet normal 0.441745 0.708327 0.550577
    outer loop
      vertex -6.60767 -6.03702 3.53195
      vertex -10.7716 -3.80399 4
      vertex -7.76869 -9.17458 8.5
    endloop
  endfacet
  facet normal -0.927995 -0.160099 0.336442
    outer loop
      vertex -10.5803 6.16637 6.76959
      vertex -10.6294 0.631003 4
      vertex -10.0427 -2.77014 4
    endloop
  endfacet
  facet normal -0.732101 -0.241453 0.636968
    outer loop
      vertex -8.80509 2.76523 7.52066
      vertex -10.5803 6.16637 6.76959
      vertex -10.0427 -2.77014 4
    endloop
  endfacet
  facet normal -0.972417 0.077475 0.220008
    outer loop
      vertex -8.80509 2.76523 7.52066
      vertex -10.0427 -2.77014 4
      vertex -8.81133 -2.77014 9.44236
    endloop
  endfacet
  facet normal -0.428151 -0.898501 0.0968685
    outer loop
      vertex -8.81133 -2.77014 9.44236
      vertex -10.0427 -2.77014 4
      vertex -5.6721 -4.36763 8.5
    endloop
  endfacet
  facet normal -0.411718 -0.908007 0.0775333
    outer loop
      vertex -5.6721 -4.36763 8.5
      vertex -10.0427 -2.77014 4
      vertex -6.60767 -4.36763 3.53195
    endloop
  endfacet
  facet normal -0.436067 -0.86718 -0.240509
    outer loop
      vertex -6.60767 -4.36763 3.53195
      vertex -10.0427 -2.77014 4
      vertex -4.65965 -4.36764 0
    endloop
  endfacet
  facet normal -0.61999 -0.401995 -0.673805
    outer loop
      vertex -4.65965 -4.36764 0
      vertex -10.0427 -2.77014 4
      vertex -7.8851 0.606905 0
    endloop
  endfacet
  facet normal -0.921754 0.185648 -0.340448
    outer loop
      vertex -7.8851 0.606905 0
      vertex -10.0427 -2.77014 4
      vertex -5.22066 13.836 0
    endloop
  endfacet
  facet normal -0.937282 0.204099 -0.282569
    outer loop
      vertex -5.22066 13.836 0
      vertex -10.0427 -2.77014 4
      vertex -6.42657 13.836 4
    endloop
  endfacet
  facet normal -0.831025 0.322637 0.453103
    outer loop
      vertex -6.42657 13.836 4
      vertex -8.80509 2.76523 7.52066
      vertex -7.00715 4.69747 9.44236
    endloop
  endfacet
  facet normal -0.567384 0.357765 0.741674
    outer loop
      vertex -6.42657 13.836 4
      vertex -9.09322 9.6069 4
      vertex -8.80509 2.76523 7.52066
    endloop
  endfacet
  facet normal -0.824258 0.508772 -0.248495
    outer loop
      vertex -5.22066 13.836 0
      vertex -6.42657 13.836 4
      vertex -4.36676 15.2194 0
    endloop
  endfacet
  facet normal -0.451115 0.889287 0.0752559
    outer loop
      vertex -4.36676 15.2194 0
      vertex -6.42657 13.836 4
      vertex -4.63899 14.7428 4
    endloop
  endfacet
  facet normal -0.32752 0.645642 0.689838
    outer loop
      vertex -4.63899 14.7428 4
      vertex -6.42657 13.836 4
      vertex -4.63899 9.93473 8.5
    endloop
  endfacet
  facet normal -0.66528 0.412762 0.622117
    outer loop
      vertex -6.42657 13.836 4
      vertex -7.00715 4.69747 9.44236
      vertex -4.63899 9.93473 8.5
    endloop
  endfacet
  facet normal 0.474204 0.418553 0.774561
    outer loop
      vertex -9.09322 9.6069 4
      vertex -10.5803 6.16637 6.76959
      vertex -8.80509 2.76523 7.52066
    endloop
  endfacet
  facet normal -0.192466 0.664474 0.722102
    outer loop
      vertex -9.09322 9.6069 4
      vertex -12.0342 8.75503 4
      vertex -10.5803 6.16637 6.76959
    endloop
  endfacet
  facet normal -0.821444 0.548908 0.154692
    outer loop
      vertex -6.60767 -6.03702 3.53195
      vertex -7.76869 -9.17458 8.5
      vertex -5.6721 -6.03702 8.5
    endloop
  endfacet
  facet normal -0.646441 0.431967 0.628903
    outer loop
      vertex -5.6721 -6.03702 8.5
      vertex -7.76869 -9.17458 8.5
      vertex -6.10145 -8.97708 10.0781
    endloop
  endfacet
  facet normal 0 -0.992259 0.124185
    outer loop
      vertex -6.10145 -8.97708 10.0781
      vertex -7.76869 -9.17458 8.5
      vertex 0 -9.17458 8.5
    endloop
  endfacet
  facet normal 0 -0.992259 0.124185
    outer loop
      vertex 0 -8.97708 10.0781
      vertex -6.10145 -8.97708 10.0781
      vertex 7.76869 -9.17458 8.5
    endloop
  endfacet
  facet normal 0 -0.992259 0.124185
    outer loop
      vertex 7.76869 -9.17458 8.5
      vertex -6.10145 -8.97708 10.0781
      vertex 0 -9.17458 8.5
    endloop
  endfacet
  facet normal 0 -0.992259 0.124185
    outer loop
      vertex 6.10145 -8.97708 10.0781
      vertex 0 -8.97708 10.0781
      vertex 7.76869 -9.17458 8.5
    endloop
  endfacet
  facet normal 0 0.103172 0.994664
    outer loop
      vertex 0 -9.17458 8.5
      vertex -7.76869 -9.17458 8.5
      vertex -3.72895 -11.9994 8.793
    endloop
  endfacet
  facet normal -0.118843 -0.0672039 0.990636
    outer loop
      vertex -3.72895 -11.9994 8.793
      vertex -7.76869 -9.17458 8.5
      vertex -4.57395 -14.8241 8.5
    endloop
  endfacet
  facet normal -0.731571 -0.413693 0.541907
    outer loop
      vertex -4.57395 -14.8241 8.5
      vertex -7.76869 -9.17458 8.5
      vertex -6.67075 -13.4912 6.6869
    endloop
  endfacet
  facet normal -0.584481 -0.807202 0.0825061
    outer loop
      vertex -4.57395 -14.8241 8.5
      vertex -6.67075 -13.4912 6.6869
      vertex -5.27525 -14.8241 3.53195
    endloop
  endfacet
  facet normal -0.836755 0.534687 0.118117
    outer loop
      vertex -5.27525 -14.8241 3.53195
      vertex -5.65698 -16.519 8.5
      vertex -4.57395 -14.8241 8.5
    endloop
  endfacet
  facet normal -0.904207 0.42063 0.0740236
    outer loop
      vertex -5.27525 -14.8241 3.53195
      vertex -6.58932 -17.6489 3.53195
      vertex -5.65698 -16.519 8.5
    endloop
  endfacet
  facet normal -0.852165 0.39642 -0.341564
    outer loop
      vertex -4.64802 -16.519 0
      vertex -6.58932 -17.6489 3.53195
      vertex -5.27525 -14.8241 3.53195
    endloop
  endfacet
  facet normal -0.841412 0.413537 -0.347868
    outer loop
      vertex -4.64802 -16.519 0
      vertex -5.27525 -14.8241 3.53195
      vertex -3.81502 -14.8241 0
    endloop
  endfacet
  facet normal -0.857462 -0.372942 -0.354504
    outer loop
      vertex -5.27525 -14.8241 3.53195
      vertex -6.27222 -9.17458 0
      vertex -3.81502 -14.8241 0
    endloop
  endfacet
  facet normal -0.987936 -0.149804 0.0392467
    outer loop
      vertex -5.27525 -14.8241 3.53195
      vertex -6.60767 -6.03702 3.53195
      vertex -6.27222 -9.17458 0
    endloop
  endfacet
  facet normal -0.798507 0.410398 -0.44041
    outer loop
      vertex -6.27222 -9.17458 0
      vertex -6.60767 -6.03702 3.53195
      vertex -4.65965 -6.03702 0
    endloop
  endfacet
  facet normal -0.875645 0 -0.482955
    outer loop
      vertex -6.60767 -6.03702 3.53195
      vertex -6.60767 -4.36763 3.53195
      vertex -4.65965 -6.03702 0
    endloop
  endfacet
  facet normal -0.875645 0 -0.482955
    outer loop
      vertex -4.65965 -6.03702 0
      vertex -6.60767 -4.36763 3.53195
      vertex -4.65965 -4.36764 0
    endloop
  endfacet
  facet normal -0.982727 0 0.185064
    outer loop
      vertex -6.60767 -6.03702 3.53195
      vertex -5.6721 -6.03702 8.5
      vertex -6.60767 -4.36763 3.53195
    endloop
  endfacet
  facet normal -0.982727 0 0.185064
    outer loop
      vertex -6.60767 -4.36763 3.53195
      vertex -5.6721 -6.03702 8.5
      vertex -5.6721 -4.36763 8.5
    endloop
  endfacet
  facet normal -0.806301 0.194803 0.558507
    outer loop
      vertex -8.80509 2.76523 7.52066
      vertex -8.81133 -2.77014 9.44236
      vertex -7.00715 4.69747 9.44236
    endloop
  endfacet
  facet normal -0.624693 0.150926 0.766146
    outer loop
      vertex -7.00715 4.69747 9.44236
      vertex -8.81133 -2.77014 9.44236
      vertex -6.87592 -2.77014 11.0204
    endloop
  endfacet
  facet normal -0.320543 -0.861803 0.393126
    outer loop
      vertex -6.87592 -2.77014 11.0204
      vertex -8.81133 -2.77014 9.44236
      vertex -5.6721 -4.36763 8.5
    endloop
  endfacet
  facet normal -0.444983 -0.837152 0.318067
    outer loop
      vertex -4.54412 -4.36763 10.0781
      vertex -6.87592 -2.77014 11.0204
      vertex -5.6721 -4.36763 8.5
    endloop
  endfacet
  facet normal -0.813542 0 0.581507
    outer loop
      vertex -5.6721 -6.03702 8.5
      vertex -4.54412 -6.03702 10.0781
      vertex -5.6721 -4.36763 8.5
    endloop
  endfacet
  facet normal -0.813542 0 0.581507
    outer loop
      vertex -5.6721 -4.36763 8.5
      vertex -4.54412 -6.03702 10.0781
      vertex -4.54412 -4.36763 10.0781
    endloop
  endfacet
  facet normal 0 0 -1
    outer loop
      vertex -7.8851 0.606905 0
      vertex -5.22066 13.836 0
      vertex -4.65965 -4.36764 0
    endloop
  endfacet
  facet normal 0 0 -1
    outer loop
      vertex -4.65965 -4.36764 0
      vertex -5.22066 13.836 0
      vertex -4.36676 15.2194 0
    endloop
  endfacet
  facet normal 0 0 -1
    outer loop
      vertex -0.47891 11.6832 0
      vertex -4.36676 15.2194 0
      vertex 4.36676 15.2194 0
    endloop
  endfacet
  facet normal 0 0 -1
    outer loop
      vertex -4.65965 -4.36764 0
      vertex 4.36676 15.2194 0
      vertex 5.22066 13.836 0
    endloop
  endfacet
  facet normal 0 0 -1
    outer loop
      vertex 1.63183 0.632173 0
      vertex 5.22066 13.836 0
      vertex 7.8851 0.606905 0
    endloop
  endfacet
  facet normal 0 0 -1
    outer loop
      vertex -4.65965 -4.36764 0
      vertex 7.8851 0.606905 0
      vertex 4.65965 -4.36764 0
    endloop
  endfacet
  facet normal 0 0 -1
    outer loop
      vertex -4.65965 -4.36764 0
      vertex 4.65965 -4.36764 0
      vertex 4.65965 -6.03702 0
    endloop
  endfacet
  facet normal 0 0 -1
    outer loop
      vertex 4.65965 -6.03702 0
      vertex 6.27222 -9.17458 0
      vertex -4.65965 -4.36764 0
    endloop
  endfacet
  facet normal 0 0 -1
    outer loop
      vertex -4.65965 -4.36764 0
      vertex 6.27222 -9.17458 0
      vertex 3.81502 -14.8241 0
    endloop
  endfacet
  facet normal 0 0 -1
    outer loop
      vertex -4.65965 -4.36764 0
      vertex 3.81502 -14.8241 0
      vertex 4.64802 -16.519 0
    endloop
  endfacet
  facet normal 0 0 -1
    outer loop
      vertex -4.65965 -4.36764 0
      vertex 4.64802 -16.519 0
      vertex 0 -17.6489 0
    endloop
  endfacet
  facet normal 0 0 -1
    outer loop
      vertex 1.29327 -1.17897 0
      vertex 7.8851 0.606905 0
      vertex 0.780042 -1.56654 0
    endloop
  endfacet
  facet normal 0 0 -1
    outer loop
      vertex -4.65965 -6.03702 0
      vertex -3.81502 -14.8241 0
      vertex -6.27222 -9.17458 0
    endloop
  endfacet
  facet normal 0 0 -1
    outer loop
      vertex 0 -17.6489 0
      vertex -4.64802 -16.519 0
      vertex -3.81502 -14.8241 0
    endloop
  endfacet
  facet normal 0 0 -1
    outer loop
      vertex -4.65965 -6.03702 0
      vertex 0 -17.6489 0
      vertex -3.81502 -14.8241 0
    endloop
  endfacet
  facet normal 0 0 -1
    outer loop
      vertex -4.65965 -4.36764 0
      vertex 0 -17.6489 0
      vertex -4.65965 -6.03702 0
    endloop
  endfacet
  facet normal 0 0 -1
    outer loop
      vertex 1.75 10 0
      vertex 4.36676 15.2194 0
      vertex 1.63183 9.36783 0
    endloop
  endfacet
  facet normal 0 0 -1
    outer loop
      vertex -4.65965 -4.36764 0
      vertex -1.7202 0.321562 0
      vertex -1.7202 -0.321562 0
    endloop
  endfacet
  facet normal 0 0 -1
    outer loop
      vertex -4.65965 -4.36764 0
      vertex -1.7202 -0.321562 0
      vertex -1.48788 -0.921256 0
    endloop
  endfacet
  facet normal 0 0 -1
    outer loop
      vertex -4.65965 -4.36764 0
      vertex -1.48788 -0.921256 0
      vertex -1.05461 -1.39653 0
    endloop
  endfacet
  facet normal 0 0 -1
    outer loop
      vertex -4.65965 -4.36764 0
      vertex -1.05461 -1.39653 0
      vertex -0.47891 -1.68319 0
    endloop
  endfacet
  facet normal 0 0 -1
    outer loop
      vertex -4.65965 -4.36764 0
      vertex -0.47891 -1.68319 0
      vertex 0.16147 -1.74253 0
    endloop
  endfacet
  facet normal 0 0 -1
    outer loop
      vertex -4.65965 -4.36764 0
      vertex 0.16147 -1.74253 0
      vertex 0.780042 -1.56654 0
    endloop
  endfacet
  facet normal 0 0 -1
    outer loop
      vertex -4.65965 -4.36764 0
      vertex 0.780042 -1.56654 0
      vertex 7.8851 0.606905 0
    endloop
  endfacet
  facet normal 0 0 -1
    outer loop
      vertex 1.63183 -0.632173 0
      vertex 7.8851 0.606905 0
      vertex 1.29327 -1.17897 0
    endloop
  endfacet
  facet normal 0 0 -1
    outer loop
      vertex 1.75 0 0
      vertex 7.8851 0.606905 0
      vertex 1.63183 -0.632173 0
    endloop
  endfacet
  facet normal 0 0 -1
    outer loop
      vertex 1.63183 0.632173 0
      vertex 7.8851 0.606905 0
      vertex 1.75 0 0
    endloop
  endfacet
  facet normal 0 0 -1
    outer loop
      vertex 1.29327 1.17897 0
      vertex 5.22066 13.836 0
      vertex 1.63183 0.632173 0
    endloop
  endfacet
  facet normal 0 0 -1
    outer loop
      vertex -1.48788 0.921256 0
      vertex 5.22066 13.836 0
      vertex -1.05461 1.39653 0
    endloop
  endfacet
  facet normal 0 0 -1
    outer loop
      vertex 0.780042 1.56654 0
      vertex 5.22066 13.836 0
      vertex 1.29327 1.17897 0
    endloop
  endfacet
  facet normal 0 0 -1
    outer loop
      vertex 0.16147 1.74253 0
      vertex 5.22066 13.836 0
      vertex 0.780042 1.56654 0
    endloop
  endfacet
  facet normal 0 0 -1
    outer loop
      vertex -0.47891 1.68319 0
      vertex 5.22066 13.836 0
      vertex 0.16147 1.74253 0
    endloop
  endfacet
  facet normal 0 0 -1
    outer loop
      vertex -1.05461 1.39653 0
      vertex 5.22066 13.836 0
      vertex -0.47891 1.68319 0
    endloop
  endfacet
  facet normal 0 0 -1
    outer loop
      vertex -4.65965 -4.36764 0
      vertex 5.22066 13.836 0
      vertex -1.48788 0.921256 0
    endloop
  endfacet
  facet normal 0 0 -1
    outer loop
      vertex -4.65965 -4.36764 0
      vertex -1.48788 0.921256 0
      vertex -1.7202 0.321562 0
    endloop
  endfacet
  facet normal 0 0 -1
    outer loop
      vertex -4.65965 -4.36764 0
      vertex -4.36676 15.2194 0
      vertex -1.7202 10.3216 0
    endloop
  endfacet
  facet normal 0 0 -1
    outer loop
      vertex -4.65965 -4.36764 0
      vertex -1.7202 10.3216 0
      vertex -1.7202 9.67844 0
    endloop
  endfacet
  facet normal 0 0 -1
    outer loop
      vertex -4.65965 -4.36764 0
      vertex -1.7202 9.67844 0
      vertex -1.48788 9.07874 0
    endloop
  endfacet
  facet normal 0 0 -1
    outer loop
      vertex -4.65965 -4.36764 0
      vertex -1.48788 9.07874 0
      vertex -1.05461 8.60347 0
    endloop
  endfacet
  facet normal 0 0 -1
    outer loop
      vertex -4.65965 -4.36764 0
      vertex -1.05461 8.60347 0
      vertex -0.47891 8.3168 0
    endloop
  endfacet
  facet normal 0 0 -1
    outer loop
      vertex -4.65965 -4.36764 0
      vertex -0.47891 8.3168 0
      vertex 0.16147 8.25746 0
    endloop
  endfacet
  facet normal 0 0 -1
    outer loop
      vertex -4.65965 -4.36764 0
      vertex 0.16147 8.25746 0
      vertex 0.780042 8.43346 0
    endloop
  endfacet
  facet normal 0 0 -1
    outer loop
      vertex -4.65965 -4.36764 0
      vertex 0.780042 8.43346 0
      vertex 1.29327 8.82103 0
    endloop
  endfacet
  facet normal 0 0 -1
    outer loop
      vertex -4.65965 -4.36764 0
      vertex 1.29327 8.82103 0
      vertex 1.63183 9.36783 0
    endloop
  endfacet
  facet normal 0 0 -1
    outer loop
      vertex -4.65965 -4.36764 0
      vertex 1.63183 9.36783 0
      vertex 4.36676 15.2194 0
    endloop
  endfacet
  facet normal 0 0 -1
    outer loop
      vertex 1.63183 10.6322 0
      vertex 4.36676 15.2194 0
      vertex 1.75 10 0
    endloop
  endfacet
  facet normal 0 0 -1
    outer loop
      vertex 1.29327 11.179 0
      vertex 4.36676 15.2194 0
      vertex 1.63183 10.6322 0
    endloop
  endfacet
  facet normal 0 0 -1
    outer loop
      vertex 0.780042 11.5665 0
      vertex 4.36676 15.2194 0
      vertex 1.29327 11.179 0
    endloop
  endfacet
  facet normal 0 0 -1
    outer loop
      vertex 0.16147 11.7425 0
      vertex 4.36676 15.2194 0
      vertex 0.780042 11.5665 0
    endloop
  endfacet
  facet normal 0 0 -1
    outer loop
      vertex -0.47891 11.6832 0
      vertex 4.36676 15.2194 0
      vertex 0.16147 11.7425 0
    endloop
  endfacet
  facet normal 0 0 -1
    outer loop
      vertex -1.05461 11.3965 0
      vertex -4.36676 15.2194 0
      vertex -0.47891 11.6832 0
    endloop
  endfacet
  facet normal 0 0 -1
    outer loop
      vertex -1.48788 10.9213 0
      vertex -4.36676 15.2194 0
      vertex -1.05461 11.3965 0
    endloop
  endfacet
  facet normal 0 0 -1
    outer loop
      vertex -1.7202 10.3216 0
      vertex -4.36676 15.2194 0
      vertex -1.48788 10.9213 0
    endloop
  endfacet
  facet normal -0.27437 0.289087 0.917142
    outer loop
      vertex -4.63899 9.93473 8.5
      vertex -7.00715 4.69747 9.44236
      vertex -2.19563 7.24718 10.0781
    endloop
  endfacet
  facet normal -0.465895 0.770874 0.43439
    outer loop
      vertex -2.19563 7.24718 10.0781
      vertex -7.00715 4.69747 9.44236
      vertex -5.53578 4.69747 11.0204
    endloop
  endfacet
  facet normal -0.725183 0.130141 0.676146
    outer loop
      vertex -5.53578 4.69747 11.0204
      vertex -7.00715 4.69747 9.44236
      vertex -6.87592 -2.77014 11.0204
    endloop
  endfacet
  facet normal 0 0.974009 -0.226509
    outer loop
      vertex 4.36676 15.2194 0
      vertex -4.36676 15.2194 0
      vertex 0 16.1496 4
    endloop
  endfacet
  facet normal -0.288926 0.95274 0.0938542
    outer loop
      vertex -4.36676 15.2194 0
      vertex -4.63899 14.7428 4
      vertex 0 16.1496 4
    endloop
  endfacet
  facet normal -0.0790718 0.260741 0.962165
    outer loop
      vertex 0 16.1496 4
      vertex -4.63899 14.7428 4
      vertex 0 10.6587 5.488
    endloop
  endfacet
  facet normal 0.344865 0.641411 0.685318
    outer loop
      vertex -4.63899 14.7428 4
      vertex -4.63899 9.93473 8.5
      vertex 0 10.6587 5.488
    endloop
  endfacet
  facet normal 0.194383 0.842771 0.501948
    outer loop
      vertex 0 10.6587 5.488
      vertex -4.63899 9.93473 8.5
      vertex 0 8.86476 8.5
    endloop
  endfacet
  facet normal 0.136271 0.590821 0.795211
    outer loop
      vertex 0 8.86476 8.5
      vertex -4.63899 9.93473 8.5
      vertex -2.19563 7.24718 10.0781
    endloop
  endfacet
  facet normal -0.747123 0.395748 0.534032
    outer loop
      vertex -5.6721 -6.03702 8.5
      vertex -6.10145 -8.97708 10.0781
      vertex -4.54412 -6.03702 10.0781
    endloop
  endfacet
  facet normal 0 -0.228957 0.973437
    outer loop
      vertex -3.97738 -7.99706 10.3086
      vertex -6.10145 -8.97708 10.0781
      vertex 0 -8.97708 10.0781
    endloop
  endfacet
  facet normal -0.14176 0.0750898 0.987049
    outer loop
      vertex -4.54412 -6.03702 10.0781
      vertex -6.10145 -8.97708 10.0781
      vertex -3.97738 -7.99706 10.3086
    endloop
  endfacet
  facet normal 0 -0.228957 0.973437
    outer loop
      vertex 3.97738 -7.99706 10.3086
      vertex 0 -8.97708 10.0781
      vertex 6.10145 -8.97708 10.0781
    endloop
  endfacet
  facet normal 0.0922401 0.142565 0.985478
    outer loop
      vertex 0 -8.97708 10.0781
      vertex -4.54412 -6.03702 10.0781
      vertex -3.97738 -7.99706 10.3086
    endloop
  endfacet
  facet normal -0.115738 -0.178883 0.977039
    outer loop
      vertex 0 -0.977472 11.5427
      vertex -4.54412 -6.03702 10.0781
      vertex 0 -8.97708 10.0781
    endloop
  endfacet
  facet normal 0.115738 -0.178883 0.977039
    outer loop
      vertex 0 -0.977472 11.5427
      vertex 0 -8.97708 10.0781
      vertex 4.54412 -6.03702 10.0781
    endloop
  endfacet
  facet normal -0.0922401 0.142565 0.985478
    outer loop
      vertex 4.54412 -6.03702 10.0781
      vertex 0 -8.97708 10.0781
      vertex 3.97738 -7.99706 10.3086
    endloop
  endfacet
  facet normal 0.14176 0.0750898 0.987049
    outer loop
      vertex 4.54412 -6.03702 10.0781
      vertex 3.97738 -7.99706 10.3086
      vertex 6.10145 -8.97708 10.0781
    endloop
  endfacet
  facet normal 0.747123 0.395748 0.534032
    outer loop
      vertex 5.6721 -6.03702 8.5
      vertex 4.54412 -6.03702 10.0781
      vertex 6.10145 -8.97708 10.0781
    endloop
  endfacet
  facet normal 0.646441 0.431967 0.628903
    outer loop
      vertex 7.76869 -9.17458 8.5
      vertex 5.6721 -6.03702 8.5
      vertex 6.10145 -8.97708 10.0781
    endloop
  endfacet
  facet normal -0.518705 0.700603 0.490001
    outer loop
      vertex 10.7716 -3.80399 4
      vertex 7.76869 -9.17458 8.5
      vertex 11.2877 -5.99787 7.68311
    endloop
  endfacet
  facet normal 0.55881 -0.437933 0.704235
    outer loop
      vertex 7.76869 -9.17458 8.5
      vertex 6.67075 -13.4912 6.6869
      vertex 11.2877 -5.99787 7.68311
    endloop
  endfacet
  facet normal 0.731571 -0.413693 0.541907
    outer loop
      vertex 7.76869 -9.17458 8.5
      vertex 4.57395 -14.8241 8.5
      vertex 6.67075 -13.4912 6.6869
    endloop
  endfacet
  facet normal 0.118843 -0.0672039 0.990636
    outer loop
      vertex 7.76869 -9.17458 8.5
      vertex 3.72895 -11.9994 8.793
      vertex 4.57395 -14.8241 8.5
    endloop
  endfacet
  facet normal 0 0.103172 0.994664
    outer loop
      vertex 7.76869 -9.17458 8.5
      vertex 0 -9.17458 8.5
      vertex 3.72895 -11.9994 8.793
    endloop
  endfacet
  facet normal 0.821444 0.548908 0.154692
    outer loop
      vertex 6.60767 -6.03702 3.53195
      vertex 5.6721 -6.03702 8.5
      vertex 7.76869 -9.17458 8.5
    endloop
  endfacet
  facet normal -0.441745 0.708327 0.550577
    outer loop
      vertex 10.7716 -3.80399 4
      vertex 6.60767 -6.03702 3.53195
      vertex 7.76869 -9.17458 8.5
    endloop
  endfacet
  facet normal -0.0783335 0 0.996927
    outer loop
      vertex 0 -9.17458 8.5
      vertex 0 -14.8241 8.5
      vertex 3.72895 -11.9994 8.793
    endloop
  endfacet
  facet normal 0.0783335 0 0.996927
    outer loop
      vertex 0 -9.17458 8.5
      vertex -3.72895 -11.9994 8.793
      vertex 0 -14.8241 8.5
    endloop
  endfacet
  facet normal 0 -0.103172 0.994664
    outer loop
      vertex -3.72895 -11.9994 8.793
      vertex -4.57395 -14.8241 8.5
      vertex 0 -14.8241 8.5
    endloop
  endfacet
  facet normal 0 0.198775 0.980045
    outer loop
      vertex 0 -14.8241 8.5
      vertex -4.57395 -14.8241 8.5
      vertex -1.24765 -15.7657 8.69098
    endloop
  endfacet
  facet normal -0.103908 -0.16825 0.980253
    outer loop
      vertex -1.24765 -15.7657 8.69098
      vertex -4.57395 -14.8241 8.5
      vertex 0 -17.6489 8.5
    endloop
  endfacet
  facet normal 0 0 1
    outer loop
      vertex -4.57395 -14.8241 8.5
      vertex -5.65698 -16.519 8.5
      vertex 0 -17.6489 8.5
    endloop
  endfacet
  facet normal -0.189576 -0.949125 0.251442
    outer loop
      vertex -5.65698 -16.519 8.5
      vertex -6.58932 -17.6489 3.53195
      vertex 0 -17.6489 8.5
    endloop
  endfacet
  facet normal 0 -1 0
    outer loop
      vertex 0 -17.6489 8.5
      vertex -6.58932 -17.6489 3.53195
      vertex 0 -17.6489 0
    endloop
  endfacet
  facet normal 0 -1 0
    outer loop
      vertex 6.58932 -17.6489 3.53195
      vertex 0 -17.6489 8.5
      vertex 0 -17.6489 0
    endloop
  endfacet
  facet normal -0.216157 -0.889185 -0.403269
    outer loop
      vertex 0 -17.6489 0
      vertex -6.58932 -17.6489 3.53195
      vertex -4.64802 -16.519 0
    endloop
  endfacet
  facet normal 0.310249 -0.0556772 0.949023
    outer loop
      vertex -5.53578 4.69747 11.0204
      vertex -6.87592 -2.77014 11.0204
      vertex -2.19563 7.24718 10.0781
    endloop
  endfacet
  facet normal 0.333751 -0.0674835 0.940243
    outer loop
      vertex -2.19563 7.24718 10.0781
      vertex -6.87592 -2.77014 11.0204
      vertex -4.54412 -4.36763 10.0781
    endloop
  endfacet
  facet normal -0.353957 0.0715692 0.932519
    outer loop
      vertex -2.19563 7.24718 10.0781
      vertex -4.54412 -4.36763 10.0781
      vertex 0 -0.977472 11.5427
    endloop
  endfacet
  facet normal -0.306771 0 0.951783
    outer loop
      vertex -4.54412 -4.36763 10.0781
      vertex -4.54412 -6.03702 10.0781
      vertex 0 -0.977472 11.5427
    endloop
  endfacet
  facet normal 0.216157 -0.889185 -0.403269
    outer loop
      vertex 6.58932 -17.6489 3.53195
      vertex 0 -17.6489 0
      vertex 4.64802 -16.519 0
    endloop
  endfacet
  facet normal 0.841412 0.413537 -0.347868
    outer loop
      vertex 4.64802 -16.519 0
      vertex 3.81502 -14.8241 0
      vertex 5.27525 -14.8241 3.53195
    endloop
  endfacet
  facet normal 0.852165 0.39642 -0.341564
    outer loop
      vertex 6.58932 -17.6489 3.53195
      vertex 4.64802 -16.519 0
      vertex 5.27525 -14.8241 3.53195
    endloop
  endfacet
  facet normal 0.857462 -0.372942 -0.354504
    outer loop
      vertex 5.27525 -14.8241 3.53195
      vertex 3.81502 -14.8241 0
      vertex 6.27222 -9.17458 0
    endloop
  endfacet
  facet normal 0.987936 -0.149804 0.0392467
    outer loop
      vertex 6.60767 -6.03702 3.53195
      vertex 5.27525 -14.8241 3.53195
      vertex 6.27222 -9.17458 0
    endloop
  endfacet
  facet normal 0.798507 0.410398 -0.44041
    outer loop
      vertex 6.27222 -9.17458 0
      vertex 4.65965 -6.03702 0
      vertex 6.60767 -6.03702 3.53195
    endloop
  endfacet
  facet normal 0.875645 0 -0.482955
    outer loop
      vertex 6.60767 -6.03702 3.53195
      vertex 4.65965 -6.03702 0
      vertex 4.65965 -4.36764 0
    endloop
  endfacet
  facet normal 0.875645 0 -0.482955
    outer loop
      vertex 6.60767 -4.36763 3.53195
      vertex 6.60767 -6.03702 3.53195
      vertex 4.65965 -4.36764 0
    endloop
  endfacet
  facet normal 0.436067 -0.86718 -0.240509
    outer loop
      vertex 6.60767 -4.36763 3.53195
      vertex 4.65965 -4.36764 0
      vertex 10.0427 -2.77014 4
    endloop
  endfacet
  facet normal 0.61999 -0.401995 -0.673805
    outer loop
      vertex 10.0427 -2.77014 4
      vertex 4.65965 -4.36764 0
      vertex 7.8851 0.606905 0
    endloop
  endfacet
  facet normal 0.921754 0.185648 -0.340448
    outer loop
      vertex 7.8851 0.606905 0
      vertex 5.22066 13.836 0
      vertex 10.0427 -2.77014 4
    endloop
  endfacet
  facet normal 0.937282 0.204099 -0.282569
    outer loop
      vertex 10.0427 -2.77014 4
      vertex 5.22066 13.836 0
      vertex 6.42657 13.836 4
    endloop
  endfacet
  facet normal 0.824258 0.508772 -0.248495
    outer loop
      vertex 5.22066 13.836 0
      vertex 4.36676 15.2194 0
      vertex 6.42657 13.836 4
    endloop
  endfacet
  facet normal 0.451115 0.889287 0.0752559
    outer loop
      vertex 6.42657 13.836 4
      vertex 4.36676 15.2194 0
      vertex 4.63899 14.7428 4
    endloop
  endfacet
  facet normal 0.288926 0.95274 0.0938542
    outer loop
      vertex 4.36676 15.2194 0
      vertex 0 16.1496 4
      vertex 4.63899 14.7428 4
    endloop
  endfacet
  facet normal 0.932472 -0.361242 0
    outer loop
      vertex -1.48788 0.921256 0
      vertex -1.48788 0.921256 6.025
      vertex -1.7202 0.321562 6.025
    endloop
  endfacet
  facet normal 0.932472 -0.361242 0
    outer loop
      vertex -1.7202 0.321562 0
      vertex -1.48788 0.921256 0
      vertex -1.7202 0.321562 6.025
    endloop
  endfacet
  facet normal 1 0 0
    outer loop
      vertex -1.7202 0.321562 0
      vertex -1.7202 0.321562 6.025
      vertex -1.7202 -0.321562 6.025
    endloop
  endfacet
  facet normal 1 0 0
    outer loop
      vertex -1.7202 -0.321562 0
      vertex -1.7202 0.321562 0
      vertex -1.7202 -0.321562 6.025
    endloop
  endfacet
  facet normal 0.739009 -0.673695 0
    outer loop
      vertex -1.05461 1.39653 0
      vertex -1.05461 1.39653 6.025
      vertex -1.48788 0.921256 6.025
    endloop
  endfacet
  facet normal 0.739009 -0.673695 0
    outer loop
      vertex -1.48788 0.921256 0
      vertex -1.05461 1.39653 0
      vertex -1.48788 0.921256 6.025
    endloop
  endfacet
  facet normal 0.445738 -0.895163 0
    outer loop
      vertex -0.47891 1.68319 0
      vertex -0.47891 1.68319 6.025
      vertex -1.05461 1.39653 6.025
    endloop
  endfacet
  facet normal 0.445738 -0.895163 0
    outer loop
      vertex -1.05461 1.39653 0
      vertex -0.47891 1.68319 0
      vertex -1.05461 1.39653 6.025
    endloop
  endfacet
  facet normal 0.0922684 -0.995734 0
    outer loop
      vertex 0.16147 1.74253 0
      vertex 0.16147 1.74253 6.025
      vertex -0.47891 1.68319 6.025
    endloop
  endfacet
  facet normal 0.0922684 -0.995734 0
    outer loop
      vertex -0.47891 1.68319 0
      vertex 0.16147 1.74253 0
      vertex -0.47891 1.68319 6.025
    endloop
  endfacet
  facet normal -0.273663 -0.961826 0
    outer loop
      vertex 0.780042 1.56654 0
      vertex 0.780042 1.56654 6.025
      vertex 0.16147 1.74253 6.025
    endloop
  endfacet
  facet normal -0.273663 -0.961826 0
    outer loop
      vertex 0.16147 1.74253 0
      vertex 0.780042 1.56654 0
      vertex 0.16147 1.74253 6.025
    endloop
  endfacet
  facet normal -0.602635 -0.798017 0
    outer loop
      vertex 1.29327 1.17897 0
      vertex 1.29327 1.17897 6.025
      vertex 0.780042 1.56654 6.025
    endloop
  endfacet
  facet normal -0.602635 -0.798017 0
    outer loop
      vertex 0.780042 1.56654 0
      vertex 1.29327 1.17897 0
      vertex 0.780042 1.56654 6.025
    endloop
  endfacet
  facet normal -0.850217 -0.526432 0
    outer loop
      vertex 1.63183 0.632173 6.025
      vertex 1.29327 1.17897 6.025
      vertex 1.63183 0.632173 0
    endloop
  endfacet
  facet normal -0.850217 -0.526432 0
    outer loop
      vertex 1.63183 0.632173 0
      vertex 1.29327 1.17897 6.025
      vertex 1.29327 1.17897 0
    endloop
  endfacet
  facet normal -0.982973 -0.18375 0
    outer loop
      vertex 1.75 0 6.025
      vertex 1.63183 0.632173 6.025
      vertex 1.75 0 0
    endloop
  endfacet
  facet normal -0.982973 -0.18375 0
    outer loop
      vertex 1.75 0 0
      vertex 1.63183 0.632173 6.025
      vertex 1.63183 0.632173 0
    endloop
  endfacet
  facet normal -0.982973 0.18375 0
    outer loop
      vertex 1.75 0 6.025
      vertex 1.75 0 0
      vertex 1.63183 -0.632173 6.025
    endloop
  endfacet
  facet normal -0.982973 0.18375 0
    outer loop
      vertex 1.63183 -0.632173 6.025
      vertex 1.75 0 0
      vertex 1.63183 -0.632173 0
    endloop
  endfacet
  facet normal -0.850217 0.526432 0
    outer loop
      vertex 1.63183 -0.632173 6.025
      vertex 1.63183 -0.632173 0
      vertex 1.29327 -1.17897 6.025
    endloop
  endfacet
  facet normal -0.850217 0.526432 0
    outer loop
      vertex 1.29327 -1.17897 6.025
      vertex 1.63183 -0.632173 0
      vertex 1.29327 -1.17897 0
    endloop
  endfacet
  facet normal -0.602635 0.798017 0
    outer loop
      vertex 1.29327 -1.17897 6.025
      vertex 1.29327 -1.17897 0
      vertex 0.780042 -1.56654 6.025
    endloop
  endfacet
  facet normal -0.602635 0.798017 0
    outer loop
      vertex 0.780042 -1.56654 6.025
      vertex 1.29327 -1.17897 0
      vertex 0.780042 -1.56654 0
    endloop
  endfacet
  facet normal -0.273663 0.961826 0
    outer loop
      vertex 0.780042 -1.56654 6.025
      vertex 0.780042 -1.56654 0
      vertex 0.16147 -1.74253 6.025
    endloop
  endfacet
  facet normal -0.273663 0.961826 0
    outer loop
      vertex 0.16147 -1.74253 6.025
      vertex 0.780042 -1.56654 0
      vertex 0.16147 -1.74253 0
    endloop
  endfacet
  facet normal 0.0922684 0.995734 0
    outer loop
      vertex 0.16147 -1.74253 6.025
      vertex 0.16147 -1.74253 0
      vertex -0.47891 -1.68319 6.025
    endloop
  endfacet
  facet normal 0.0922684 0.995734 0
    outer loop
      vertex -0.47891 -1.68319 6.025
      vertex 0.16147 -1.74253 0
      vertex -0.47891 -1.68319 0
    endloop
  endfacet
  facet normal 0.445738 0.895163 0
    outer loop
      vertex -0.47891 -1.68319 6.025
      vertex -0.47891 -1.68319 0
      vertex -1.05461 -1.39653 6.025
    endloop
  endfacet
  facet normal 0.445738 0.895163 0
    outer loop
      vertex -1.05461 -1.39653 6.025
      vertex -0.47891 -1.68319 0
      vertex -1.05461 -1.39653 0
    endloop
  endfacet
  facet normal 0.739009 0.673695 0
    outer loop
      vertex -1.48788 -0.921256 6.025
      vertex -1.05461 -1.39653 6.025
      vertex -1.05461 -1.39653 0
    endloop
  endfacet
  facet normal 0.739009 0.673695 0
    outer loop
      vertex -1.48788 -0.921256 0
      vertex -1.48788 -0.921256 6.025
      vertex -1.05461 -1.39653 0
    endloop
  endfacet
  facet normal 0.932472 0.361242 0
    outer loop
      vertex -1.7202 -0.321562 6.025
      vertex -1.48788 -0.921256 6.025
      vertex -1.48788 -0.921256 0
    endloop
  endfacet
  facet normal 0.932472 0.361242 0
    outer loop
      vertex -1.7202 -0.321562 0
      vertex -1.7202 -0.321562 6.025
      vertex -1.48788 -0.921256 0
    endloop
  endfacet
  facet normal 0.932472 -0.361242 0
    outer loop
      vertex -1.48788 10.9213 0
      vertex -1.48788 10.9213 2.625
      vertex -1.7202 10.3216 2.625
    endloop
  endfacet
  facet normal 0.932472 -0.361242 0
    outer loop
      vertex -1.7202 10.3216 0
      vertex -1.48788 10.9213 0
      vertex -1.7202 10.3216 2.625
    endloop
  endfacet
  facet normal 1 0 0
    outer loop
      vertex -1.7202 10.3216 0
      vertex -1.7202 10.3216 2.625
      vertex -1.7202 9.67844 2.625
    endloop
  endfacet
  facet normal 1 0 0
    outer loop
      vertex -1.7202 9.67844 0
      vertex -1.7202 10.3216 0
      vertex -1.7202 9.67844 2.625
    endloop
  endfacet
  facet normal 0.739009 -0.673695 0
    outer loop
      vertex -1.05461 11.3965 0
      vertex -1.05461 11.3965 2.625
      vertex -1.48788 10.9213 2.625
    endloop
  endfacet
  facet normal 0.739009 -0.673695 0
    outer loop
      vertex -1.48788 10.9213 0
      vertex -1.05461 11.3965 0
      vertex -1.48788 10.9213 2.625
    endloop
  endfacet
  facet normal 0.445738 -0.895163 0
    outer loop
      vertex -0.47891 11.6832 0
      vertex -0.47891 11.6832 2.625
      vertex -1.05461 11.3965 2.625
    endloop
  endfacet
  facet normal 0.445738 -0.895163 0
    outer loop
      vertex -1.05461 11.3965 0
      vertex -0.47891 11.6832 0
      vertex -1.05461 11.3965 2.625
    endloop
  endfacet
  facet normal 0.0922684 -0.995734 0
    outer loop
      vertex 0.16147 11.7425 0
      vertex 0.16147 11.7425 2.625
      vertex -0.47891 11.6832 2.625
    endloop
  endfacet
  facet normal 0.0922684 -0.995734 0
    outer loop
      vertex -0.47891 11.6832 0
      vertex 0.16147 11.7425 0
      vertex -0.47891 11.6832 2.625
    endloop
  endfacet
  facet normal -0.273663 -0.961826 0
    outer loop
      vertex 0.780042 11.5665 0
      vertex 0.780042 11.5665 2.625
      vertex 0.16147 11.7425 2.625
    endloop
  endfacet
  facet normal -0.273663 -0.961826 0
    outer loop
      vertex 0.16147 11.7425 0
      vertex 0.780042 11.5665 0
      vertex 0.16147 11.7425 2.625
    endloop
  endfacet
  facet normal -0.602635 -0.798017 0
    outer loop
      vertex 1.29327 11.179 0
      vertex 1.29327 11.179 2.625
      vertex 0.780042 11.5665 2.625
    endloop
  endfacet
  facet normal -0.602635 -0.798017 0
    outer loop
      vertex 0.780042 11.5665 0
      vertex 1.29327 11.179 0
      vertex 0.780042 11.5665 2.625
    endloop
  endfacet
  facet normal -0.850217 -0.526432 0
    outer loop
      vertex 1.63183 10.6322 2.625
      vertex 1.29327 11.179 2.625
      vertex 1.63183 10.6322 0
    endloop
  endfacet
  facet normal -0.850217 -0.526432 0
    outer loop
      vertex 1.63183 10.6322 0
      vertex 1.29327 11.179 2.625
      vertex 1.29327 11.179 0
    endloop
  endfacet
  facet normal -0.982973 -0.18375 0
    outer loop
      vertex 1.75 10 2.625
      vertex 1.63183 10.6322 2.625
      vertex 1.75 10 0
    endloop
  endfacet
  facet normal -0.982973 -0.18375 0
    outer loop
      vertex 1.75 10 0
      vertex 1.63183 10.6322 2.625
      vertex 1.63183 10.6322 0
    endloop
  endfacet
  facet normal -0.982973 0.18375 0
    outer loop
      vertex 1.75 10 2.625
      vertex 1.75 10 0
      vertex 1.63183 9.36783 2.625
    endloop
  endfacet
  facet normal -0.982973 0.18375 0
    outer loop
      vertex 1.63183 9.36783 2.625
      vertex 1.75 10 0
      vertex 1.63183 9.36783 0
    endloop
  endfacet
  facet normal -0.850217 0.526432 0
    outer loop
      vertex 1.63183 9.36783 2.625
      vertex 1.63183 9.36783 0
      vertex 1.29327 8.82103 2.625
    endloop
  endfacet
  facet normal -0.850217 0.526432 0
    outer loop
      vertex 1.29327 8.82103 2.625
      vertex 1.63183 9.36783 0
      vertex 1.29327 8.82103 0
    endloop
  endfacet
  facet normal -0.602635 0.798017 0
    outer loop
      vertex 1.29327 8.82103 2.625
      vertex 1.29327 8.82103 0
      vertex 0.780042 8.43346 2.625
    endloop
  endfacet
  facet normal -0.602635 0.798017 0
    outer loop
      vertex 0.780042 8.43346 2.625
      vertex 1.29327 8.82103 0
      vertex 0.780042 8.43346 0
    endloop
  endfacet
  facet normal -0.273663 0.961826 0
    outer loop
      vertex 0.780042 8.43346 2.625
      vertex 0.780042 8.43346 0
      vertex 0.16147 8.25746 2.625
    endloop
  endfacet
  facet normal -0.273663 0.961826 0
    outer loop
      vertex 0.16147 8.25746 2.625
      vertex 0.780042 8.43346 0
      vertex 0.16147 8.25746 0
    endloop
  endfacet
  facet normal 0.0922684 0.995734 0
    outer loop
      vertex 0.16147 8.25746 2.625
      vertex 0.16147 8.25746 0
      vertex -0.47891 8.3168 2.625
    endloop
  endfacet
  facet normal 0.0922684 0.995734 0
    outer loop
      vertex -0.47891 8.3168 2.625
      vertex 0.16147 8.25746 0
      vertex -0.47891 8.3168 0
    endloop
  endfacet
  facet normal 0.445738 0.895163 0
    outer loop
      vertex -0.47891 8.3168 2.625
      vertex -0.47891 8.3168 0
      vertex -1.05461 8.60347 2.625
    endloop
  endfacet
  facet normal 0.445738 0.895163 0
    outer loop
      vertex -1.05461 8.60347 2.625
      vertex -0.47891 8.3168 0
      vertex -1.05461 8.60347 0
    endloop
  endfacet
  facet normal 0.739009 0.673695 0
    outer loop
      vertex -1.48788 9.07874 2.625
      vertex -1.05461 8.60347 2.625
      vertex -1.05461 8.60347 0
    endloop
  endfacet
  facet normal 0.739009 0.673695 0
    outer loop
      vertex -1.48788 9.07874 0
      vertex -1.48788 9.07874 2.625
      vertex -1.05461 8.60347 0
    endloop
  endfacet
  facet normal 0.932472 0.361242 0
    outer loop
      vertex -1.7202 9.67844 2.625
      vertex -1.48788 9.07874 2.625
      vertex -1.48788 9.07874 0
    endloop
  endfacet
  facet normal 0.932472 0.361242 0
    outer loop
      vertex -1.7202 9.67844 0
      vertex -1.7202 9.67844 2.625
      vertex -1.48788 9.07874 0
    endloop
  endfacet
  facet normal 0 0.698312 0.715794
    outer loop
      vertex 0 8.86476 8.5
      vertex -2.19563 7.24718 10.0781
      vertex 2.19563 7.24718 10.0781
    endloop
  endfacet
  facet normal 0 0.175319 0.984512
    outer loop
      vertex 2.19563 7.24718 10.0781
      vertex -2.19563 7.24718 10.0781
      vertex 0 -0.977472 11.5427
    endloop
  endfacet
  facet normal 0.0790718 0.260741 0.962165
    outer loop
      vertex 0 16.1496 4
      vertex 0 10.6587 5.488
      vertex 4.63899 14.7428 4
    endloop
  endfacet
  facet normal -0.344865 0.641411 0.685318
    outer loop
      vertex 4.63899 14.7428 4
      vertex 0 10.6587 5.488
      vertex 4.63899 9.93473 8.5
    endloop
  endfacet
  facet normal -0.194383 0.842771 0.501948
    outer loop
      vertex 0 10.6587 5.488
      vertex 0 8.86476 8.5
      vertex 4.63899 9.93473 8.5
    endloop
  endfacet
  facet normal -0.136271 0.590821 0.795211
    outer loop
      vertex 4.63899 9.93473 8.5
      vertex 0 8.86476 8.5
      vertex 2.19563 7.24718 10.0781
    endloop
  endfacet
  facet normal 0.353957 0.0715692 0.932519
    outer loop
      vertex 2.19563 7.24718 10.0781
      vertex 0 -0.977472 11.5427
      vertex 4.54412 -4.36763 10.0781
    endloop
  endfacet
  facet normal 0.306771 0 0.951783
    outer loop
      vertex 4.54412 -4.36763 10.0781
      vertex 0 -0.977472 11.5427
      vertex 4.54412 -6.03702 10.0781
    endloop
  endfacet
  facet normal 0.813542 0 0.581507
    outer loop
      vertex 4.54412 -4.36763 10.0781
      vertex 4.54412 -6.03702 10.0781
      vertex 5.6721 -6.03702 8.5
    endloop
  endfacet
  facet normal 0.813542 0 0.581507
    outer loop
      vertex 5.6721 -4.36763 8.5
      vertex 4.54412 -4.36763 10.0781
      vertex 5.6721 -6.03702 8.5
    endloop
  endfacet
  facet normal 0.982727 0 0.185064
    outer loop
      vertex 5.6721 -4.36763 8.5
      vertex 5.6721 -6.03702 8.5
      vertex 6.60767 -6.03702 3.53195
    endloop
  endfacet
  facet normal 0.982727 0 0.185064
    outer loop
      vertex 6.60767 -4.36763 3.53195
      vertex 5.6721 -4.36763 8.5
      vertex 6.60767 -6.03702 3.53195
    endloop
  endfacet
  facet normal -0.998416 -0.0320155 0.0462738
    outer loop
      vertex 10.7716 -3.80399 4
      vertex 10.5803 6.16637 6.76959
      vertex 10.6294 0.631003 4
    endloop
  endfacet
  facet normal -0.992741 -0.0495017 0.109615
    outer loop
      vertex 11.2877 -5.99787 7.68311
      vertex 10.5803 6.16637 6.76959
      vertex 10.7716 -3.80399 4
    endloop
  endfacet
  facet normal 0.118095 -0.0120908 -0.992929
    outer loop
      vertex 10.0938 -10.4248 4
      vertex 6.60767 -6.03702 3.53195
      vertex 10.7716 -3.80399 4
    endloop
  endfacet
  facet normal 0 0 -1
    outer loop
      vertex 6.42657 13.836 4
      vertex 9.09322 9.6069 4
      vertex 10.0427 -2.77014 4
    endloop
  endfacet
  facet normal 0 0 -1
    outer loop
      vertex 10.6294 0.631003 4
      vertex 9.09322 9.6069 4
      vertex 12.0342 8.75503 4
    endloop
  endfacet
  facet normal 0 0 -1
    outer loop
      vertex 10.7716 -3.80399 4
      vertex 14.3579 -3.80399 4
      vertex 12.737 -10.4248 4
    endloop
  endfacet
  facet normal 0 0 -1
    outer loop
      vertex 10.6294 0.631003 4
      vertex 14.6112 0.631003 4
      vertex 14.3579 -3.80399 4
    endloop
  endfacet
  facet normal 0 0 -1
    outer loop
      vertex 10.6294 0.631003 4
      vertex 12.0342 8.75503 4
      vertex 14.6112 0.631003 4
    endloop
  endfacet
  facet normal 0 0 -1
    outer loop
      vertex 10.0427 -2.77014 4
      vertex 9.09322 9.6069 4
      vertex 10.6294 0.631003 4
    endloop
  endfacet
  facet normal 0 0 -1
    outer loop
      vertex 10.7716 -3.80399 4
      vertex 12.737 -10.4248 4
      vertex 10.0938 -10.4248 4
    endloop
  endfacet
  facet normal 0 0 -1
    outer loop
      vertex 10.6294 0.631003 4
      vertex 14.3579 -3.80399 4
      vertex 10.7716 -3.80399 4
    endloop
  endfacet
  facet normal 0.0282654 0.0764927 0.996669
    outer loop
      vertex 13.7962 6.16637 6.67839
      vertex 10.5803 6.16637 6.76959
      vertex 11.2877 -5.99787 7.68311
    endloop
  endfacet
  facet normal 0 0.0823164 0.996606
    outer loop
      vertex 13.7962 6.16637 6.67839
      vertex 11.2877 -5.99787 7.68311
      vertex 14.8739 -5.99787 7.68311
    endloop
  endfacet
  facet normal 0 -0.389013 0.921232
    outer loop
      vertex 11.2877 -5.99787 7.68311
      vertex 10.6975 -9.59138 6.16567
      vertex 13.3407 -9.59138 6.16567
    endloop
  endfacet
  facet normal 0 -0.389013 0.921232
    outer loop
      vertex 14.8739 -5.99787 7.68311
      vertex 11.2877 -5.99787 7.68311
      vertex 13.3407 -9.59138 6.16567
    endloop
  endfacet
  facet normal 0.492772 -0.405943 0.769666
    outer loop
      vertex 11.2877 -5.99787 7.68311
      vertex 6.67075 -13.4912 6.6869
      vertex 10.6975 -9.59138 6.16567
    endloop
  endfacet
  facet normal 0.69542 -0.718593 -0.00400043
    outer loop
      vertex 6.67075 -13.4912 6.6869
      vertex 5.27525 -14.8241 3.53195
      vertex 10.6975 -9.59138 6.16567
    endloop
  endfacet
  facet normal 0.584481 -0.807202 0.0825061
    outer loop
      vertex 6.67075 -13.4912 6.6869
      vertex 4.57395 -14.8241 8.5
      vertex 5.27525 -14.8241 3.53195
    endloop
  endfacet
  facet normal 0.836755 0.534687 0.118117
    outer loop
      vertex 5.27525 -14.8241 3.53195
      vertex 4.57395 -14.8241 8.5
      vertex 5.65698 -16.519 8.5
    endloop
  endfacet
  facet normal 0 0 1
    outer loop
      vertex 4.57395 -14.8241 8.5
      vertex 0 -17.6489 8.5
      vertex 5.65698 -16.519 8.5
    endloop
  endfacet
  facet normal 0.103908 -0.16825 0.980253
    outer loop
      vertex 1.24765 -15.7657 8.69098
      vertex 0 -17.6489 8.5
      vertex 4.57395 -14.8241 8.5
    endloop
  endfacet
  facet normal 0 0.198775 0.980045
    outer loop
      vertex 4.57395 -14.8241 8.5
      vertex 0 -14.8241 8.5
      vertex 1.24765 -15.7657 8.69098
    endloop
  endfacet
  facet normal 0 -0.103172 0.994664
    outer loop
      vertex 3.72895 -11.9994 8.793
      vertex 0 -14.8241 8.5
      vertex 4.57395 -14.8241 8.5
    endloop
  endfacet
  facet normal 0.112019 -0.0169858 -0.993561
    outer loop
      vertex 10.0938 -10.4248 4
      vertex 5.27525 -14.8241 3.53195
      vertex 6.60767 -6.03702 3.53195
    endloop
  endfacet
  facet normal -0.151307 0 0.988487
    outer loop
      vertex 0 -14.8241 8.5
      vertex 0 -17.6489 8.5
      vertex 1.24765 -15.7657 8.69098
    endloop
  endfacet
  facet normal 0.151307 0 0.988487
    outer loop
      vertex 0 -14.8241 8.5
      vertex -1.24765 -15.7657 8.69098
      vertex 0 -17.6489 8.5
    endloop
  endfacet
  facet normal 0.189576 -0.949125 0.251442
    outer loop
      vertex 5.65698 -16.519 8.5
      vertex 0 -17.6489 8.5
      vertex 6.58932 -17.6489 3.53195
    endloop
  endfacet
  facet normal 0.904207 0.42063 0.0740236
    outer loop
      vertex 6.58932 -17.6489 3.53195
      vertex 5.27525 -14.8241 3.53195
      vertex 5.65698 -16.519 8.5
    endloop
  endfacet
  facet normal 0.665674 -0.739639 0.0990552
    outer loop
      vertex 10.6975 -9.59138 6.16567
      vertex 5.27525 -14.8241 3.53195
      vertex 10.0938 -10.4248 4
    endloop
  endfacet
  facet normal 0.411718 -0.908007 0.0775333
    outer loop
      vertex 10.0427 -2.77014 4
      vertex 5.6721 -4.36763 8.5
      vertex 6.60767 -4.36763 3.53195
    endloop
  endfacet
  facet normal 0.428151 -0.898501 0.0968685
    outer loop
      vertex 8.81133 -2.77014 9.44236
      vertex 5.6721 -4.36763 8.5
      vertex 10.0427 -2.77014 4
    endloop
  endfacet
  facet normal 0.972417 0.077475 0.220008
    outer loop
      vertex 10.0427 -2.77014 4
      vertex 8.80509 2.76523 7.52066
      vertex 8.81133 -2.77014 9.44236
    endloop
  endfacet
  facet normal 0.732101 -0.241453 0.636968
    outer loop
      vertex 10.5803 6.16637 6.76959
      vertex 8.80509 2.76523 7.52066
      vertex 10.0427 -2.77014 4
    endloop
  endfacet
  facet normal 0.927995 -0.160099 0.336442
    outer loop
      vertex 10.5803 6.16637 6.76959
      vertex 10.0427 -2.77014 4
      vertex 10.6294 0.631003 4
    endloop
  endfacet
  facet normal 0.831025 0.322637 0.453103
    outer loop
      vertex 8.80509 2.76523 7.52066
      vertex 6.42657 13.836 4
      vertex 7.00715 4.69747 9.44236
    endloop
  endfacet
  facet normal 0.66528 0.412762 0.622117
    outer loop
      vertex 6.42657 13.836 4
      vertex 4.63899 9.93473 8.5
      vertex 7.00715 4.69747 9.44236
    endloop
  endfacet
  facet normal 0.32752 0.645642 0.689838
    outer loop
      vertex 4.63899 14.7428 4
      vertex 4.63899 9.93473 8.5
      vertex 6.42657 13.836 4
    endloop
  endfacet
  facet normal 0.567384 0.357765 0.741674
    outer loop
      vertex 9.09322 9.6069 4
      vertex 6.42657 13.836 4
      vertex 8.80509 2.76523 7.52066
    endloop
  endfacet
  facet normal 0 0 -1
    outer loop
      vertex -1.48788 0.921256 6.025
      vertex -1.05461 1.39653 6.025
      vertex -1.7202 0.321562 6.025
    endloop
  endfacet
  facet normal 0 0 -1
    outer loop
      vertex -1.7202 0.321562 6.025
      vertex -1.05461 1.39653 6.025
      vertex -0.47891 1.68319 6.025
    endloop
  endfacet
  facet normal 0 0 -1
    outer loop
      vertex -1.7202 0.321562 6.025
      vertex -0.47891 1.68319 6.025
      vertex 0.16147 1.74253 6.025
    endloop
  endfacet
  facet normal 0 0 -1
    outer loop
      vertex -1.7202 0.321562 6.025
      vertex 0.16147 1.74253 6.025
      vertex 0.780042 1.56654 6.025
    endloop
  endfacet
  facet normal 0 0 -1
    outer loop
      vertex -1.7202 0.321562 6.025
      vertex 0.780042 1.56654 6.025
      vertex 1.29327 1.17897 6.025
    endloop
  endfacet
  facet normal 0 0 -1
    outer loop
      vertex -1.7202 0.321562 6.025
      vertex 1.29327 1.17897 6.025
      vertex 1.63183 0.632173 6.025
    endloop
  endfacet
  facet normal 0 0 -1
    outer loop
      vertex -1.7202 0.321562 6.025
      vertex 1.63183 0.632173 6.025
      vertex 1.75 0 6.025
    endloop
  endfacet
  facet normal 0 0 -1
    outer loop
      vertex -1.7202 0.321562 6.025
      vertex 1.75 0 6.025
      vertex 1.63183 -0.632173 6.025
    endloop
  endfacet
  facet normal 0 0 -1
    outer loop
      vertex -1.7202 0.321562 6.025
      vertex 1.63183 -0.632173 6.025
      vertex 1.29327 -1.17897 6.025
    endloop
  endfacet
  facet normal 0 0 -1
    outer loop
      vertex -1.7202 0.321562 6.025
      vertex 1.29327 -1.17897 6.025
      vertex 0.780042 -1.56654 6.025
    endloop
  endfacet
  facet normal 0 0 -1
    outer loop
      vertex -1.7202 0.321562 6.025
      vertex 0.780042 -1.56654 6.025
      vertex 0.16147 -1.74253 6.025
    endloop
  endfacet
  facet normal 0 0 -1
    outer loop
      vertex -1.7202 0.321562 6.025
      vertex 0.16147 -1.74253 6.025
      vertex -0.47891 -1.68319 6.025
    endloop
  endfacet
  facet normal 0 0 -1
    outer loop
      vertex -1.7202 0.321562 6.025
      vertex -0.47891 -1.68319 6.025
      vertex -1.05461 -1.39653 6.025
    endloop
  endfacet
  facet normal 0 0 -1
    outer loop
      vertex -1.7202 0.321562 6.025
      vertex -1.05461 -1.39653 6.025
      vertex -1.48788 -0.921256 6.025
    endloop
  endfacet
  facet normal 0 0 -1
    outer loop
      vertex -1.7202 0.321562 6.025
      vertex -1.48788 -0.921256 6.025
      vertex -1.7202 -0.321562 6.025
    endloop
  endfacet
  facet normal 0 0 -1
    outer loop
      vertex -1.48788 10.9213 2.625
      vertex -1.05461 11.3965 2.625
      vertex -1.7202 10.3216 2.625
    endloop
  endfacet
  facet normal 0 0 -1
    outer loop
      vertex -1.7202 10.3216 2.625
      vertex -1.05461 11.3965 2.625
      vertex -0.47891 11.6832 2.625
    endloop
  endfacet
  facet normal 0 0 -1
    outer loop
      vertex -1.7202 10.3216 2.625
      vertex -0.47891 11.6832 2.625
      vertex 0.16147 11.7425 2.625
    endloop
  endfacet
  facet normal 0 0 -1
    outer loop
      vertex -1.7202 10.3216 2.625
      vertex 0.16147 11.7425 2.625
      vertex 0.780042 11.5665 2.625
    endloop
  endfacet
  facet normal 0 0 -1
    outer loop
      vertex -1.7202 10.3216 2.625
      vertex 0.780042 11.5665 2.625
      vertex 1.29327 11.179 2.625
    endloop
  endfacet
  facet normal 0 0 -1
    outer loop
      vertex -1.7202 10.3216 2.625
      vertex 1.29327 11.179 2.625
      vertex 1.63183 10.6322 2.625
    endloop
  endfacet
  facet normal 0 0 -1
    outer loop
      vertex -1.7202 10.3216 2.625
      vertex 1.63183 10.6322 2.625
      vertex 1.75 10 2.625
    endloop
  endfacet
  facet normal 0 0 -1
    outer loop
      vertex -1.7202 10.3216 2.625
      vertex 1.75 10 2.625
      vertex 1.63183 9.36783 2.625
    endloop
  endfacet
  facet normal 0 0 -1
    outer loop
      vertex -1.7202 10.3216 2.625
      vertex 1.63183 9.36783 2.625
      vertex 1.29327 8.82103 2.625
    endloop
  endfacet
  facet normal 0 0 -1
    outer loop
      vertex -1.7202 10.3216 2.625
      vertex 1.29327 8.82103 2.625
      vertex 0.780042 8.43346 2.625
    endloop
  endfacet
  facet normal 0 0 -1
    outer loop
      vertex -1.7202 10.3216 2.625
      vertex 0.780042 8.43346 2.625
      vertex 0.16147 8.25746 2.625
    endloop
  endfacet
  facet normal 0 0 -1
    outer loop
      vertex -1.7202 10.3216 2.625
      vertex 0.16147 8.25746 2.625
      vertex -0.47891 8.3168 2.625
    endloop
  endfacet
  facet normal 0 0 -1
    outer loop
      vertex -1.7202 10.3216 2.625
      vertex -0.47891 8.3168 2.625
      vertex -1.05461 8.60347 2.625
    endloop
  endfacet
  facet normal 0 0 -1
    outer loop
      vertex -1.7202 10.3216 2.625
      vertex -1.05461 8.60347 2.625
      vertex -1.48788 9.07874 2.625
    endloop
  endfacet
  facet normal 0 0 -1
    outer loop
      vertex -1.7202 10.3216 2.625
      vertex -1.48788 9.07874 2.625
      vertex -1.7202 9.67844 2.625
    endloop
  endfacet
  facet normal 0.27437 0.289087 0.917142
    outer loop
      vertex 4.63899 9.93473 8.5
      vertex 2.19563 7.24718 10.0781
      vertex 7.00715 4.69747 9.44236
    endloop
  endfacet
  facet normal 0.465895 0.770874 0.43439
    outer loop
      vertex 7.00715 4.69747 9.44236
      vertex 2.19563 7.24718 10.0781
      vertex 5.53578 4.69747 11.0204
    endloop
  endfacet
  facet normal -0.310249 -0.0556772 0.949023
    outer loop
      vertex 5.53578 4.69747 11.0204
      vertex 2.19563 7.24718 10.0781
      vertex 6.87592 -2.77014 11.0204
    endloop
  endfacet
  facet normal -0.333751 -0.0674835 0.940243
    outer loop
      vertex 6.87592 -2.77014 11.0204
      vertex 2.19563 7.24718 10.0781
      vertex 4.54412 -4.36763 10.0781
    endloop
  endfacet
  facet normal 0.444983 -0.837152 0.318067
    outer loop
      vertex 6.87592 -2.77014 11.0204
      vertex 4.54412 -4.36763 10.0781
      vertex 5.6721 -4.36763 8.5
    endloop
  endfacet
  facet normal 0.320543 -0.861803 0.393126
    outer loop
      vertex 6.87592 -2.77014 11.0204
      vertex 5.6721 -4.36763 8.5
      vertex 8.81133 -2.77014 9.44236
    endloop
  endfacet
  facet normal -0.474204 0.418553 0.774561
    outer loop
      vertex 9.09322 9.6069 4
      vertex 8.80509 2.76523 7.52066
      vertex 10.5803 6.16637 6.76959
    endloop
  endfacet
  facet normal 0.192466 0.664474 0.722102
    outer loop
      vertex 12.0342 8.75503 4
      vertex 9.09322 9.6069 4
      vertex 10.5803 6.16637 6.76959
    endloop
  endfacet
  facet normal 0.0195161 0.725297 0.68816
    outer loop
      vertex 12.0342 8.75503 4
      vertex 10.5803 6.16637 6.76959
      vertex 13.7962 6.16637 6.67839
    endloop
  endfacet
  facet normal 0 -0.933282 0.359144
    outer loop
      vertex 10.6975 -9.59138 6.16567
      vertex 10.0938 -10.4248 4
      vertex 12.737 -10.4248 4
    endloop
  endfacet
  facet normal 0 -0.933282 0.359144
    outer loop
      vertex 13.3407 -9.59138 6.16567
      vertex 10.6975 -9.59138 6.16567
      vertex 12.737 -10.4248 4
    endloop
  endfacet
  facet normal 0.930567 -0.343271 -0.12732
    outer loop
      vertex 13.3407 -9.59138 6.16567
      vertex 12.737 -10.4248 4
      vertex 14.8739 -5.99787 7.68311
    endloop
  endfacet
  facet normal 0.935889 -0.229119 -0.267612
    outer loop
      vertex 14.8739 -5.99787 7.68311
      vertex 12.737 -10.4248 4
      vertex 14.3579 -3.80399 4
    endloop
  endfacet
  facet normal 0.983618 -0.0561807 -0.171288
    outer loop
      vertex 14.8739 -5.99787 7.68311
      vertex 14.3579 -3.80399 4
      vertex 14.6112 0.631003 4
    endloop
  endfacet
  facet normal 0.990076 0.0961786 0.102468
    outer loop
      vertex 14.6112 0.631003 4
      vertex 13.7962 6.16637 6.67839
      vertex 14.8739 -5.99787 7.68311
    endloop
  endfacet
  facet normal 0.903867 0.286708 -0.317526
    outer loop
      vertex 14.6112 0.631003 4
      vertex 12.0342 8.75503 4
      vertex 13.7962 6.16637 6.67839
    endloop
  endfacet
  facet normal 0.806301 0.194803 0.558507
    outer loop
      vertex 8.80509 2.76523 7.52066
      vertex 7.00715 4.69747 9.44236
      vertex 8.81133 -2.77014 9.44236
    endloop
  endfacet
  facet normal 0.624693 0.150926 0.766146
    outer loop
      vertex 7.00715 4.69747 9.44236
      vertex 6.87592 -2.77014 11.0204
      vertex 8.81133 -2.77014 9.44236
    endloop
  endfacet
  facet normal 0.725183 0.130141 0.676146
    outer loop
      vertex 7.00715 4.69747 9.44236
      vertex 5.53578 4.69747 11.0204
      vertex 6.87592 -2.77014 11.0204
    endloop
  endfacet
endsolid OpenSCAD_Model
