solid OpenSCAD_Model
  facet normal -0.539792 -0.829686 0.142288
    outer loop
      vertex -9.52092 -18.6638 9.44236
      vertex -11.0789 -18.6638 3.53195
      vertex -6.73267 -21.4915 3.53195
    endloop
  endfacet
  facet normal -0.50968 -0.783401 -0.355681
    outer loop
      vertex -6.73267 -21.4915 3.53195
      vertex -11.0789 -18.6638 3.53195
      vertex -4.26789 -21.4915 0
    endloop
  endfacet
  facet normal -0.524134 -0.24293 -0.816253
    outer loop
      vertex -4.26789 -21.4915 0
      vertex -11.0789 -18.6638 3.53195
      vertex -8.34898 -12.6863 0
    endloop
  endfacet
  facet normal -0.842883 0.0696708 -0.533568
    outer loop
      vertex -8.34898 -12.6863 0
      vertex -11.0789 -18.6638 3.53195
      vertex -6.41346 10.7298 0
    endloop
  endfacet
  facet normal -0.929178 0.104892 -0.354437
    outer loop
      vertex -6.41346 10.7298 0
      vertex -11.0789 -18.6638 3.53195
      vertex -7.93927 10.7298 4
    endloop
  endfacet
  facet normal -0.962244 0.0987413 0.253645
    outer loop
      vertex -9.16238 -11.85 8.15
      vertex -9.52092 -18.6638 9.44236
      vertex -7.93927 10.7298 4
    endloop
  endfacet
  facet normal -0.962244 0.0987413 0.253645
    outer loop
      vertex -11.0789 -18.6638 3.53195
      vertex -9.52092 -18.6638 9.44236
      vertex -10.9423 -18.15 3.85
    endloop
  endfacet
  facet normal -0.962244 0.0987413 0.253645
    outer loop
      vertex -11.0789 -18.6638 3.53195
      vertex -10.9423 -18.15 3.85
      vertex -10.2958 -11.85 3.85
    endloop
  endfacet
  facet normal -0.962244 0.0987413 0.253645
    outer loop
      vertex -11.0789 -18.6638 3.53195
      vertex -10.2958 -11.85 3.85
      vertex -7.93927 10.7298 4
    endloop
  endfacet
  facet normal -0.962244 0.0987413 0.253645
    outer loop
      vertex -9.80886 -18.15 8.15
      vertex -9.52092 -18.6638 9.44236
      vertex -9.16238 -11.85 8.15
    endloop
  endfacet
  facet normal -0.962244 0.0987413 0.253645
    outer loop
      vertex -10.9423 -18.15 3.85
      vertex -9.52092 -18.6638 9.44236
      vertex -9.80886 -18.15 8.15
    endloop
  endfacet
  facet normal -0.962244 0.0987413 0.253645
    outer loop
      vertex -9.16238 -11.85 8.15
      vertex -7.93927 10.7298 4
      vertex -10.2958 -11.85 3.85
    endloop
  endfacet
  facet normal -0.539331 0.0931441 0.836927
    outer loop
      vertex -7.23813 -5.4458 9.44236
      vertex -9.52092 -18.6638 9.44236
      vertex -7.07208 -18.6638 11.0204
    endloop
  endfacet
  facet normal -0.413683 -0.645578 0.641947
    outer loop
      vertex -7.07208 -18.6638 11.0204
      vertex -9.52092 -18.6638 9.44236
      vertex -4.12171 -21.4915 10.0781
    endloop
  endfacet
  facet normal -0.459861 -0.784574 0.415899
    outer loop
      vertex -4.12171 -21.4915 10.0781
      vertex -9.52092 -18.6638 9.44236
      vertex -5.54892 -21.4915 8.5
    endloop
  endfacet
  facet normal -0.553903 -0.822054 0.13198
    outer loop
      vertex -5.54892 -21.4915 8.5
      vertex -9.52092 -18.6638 9.44236
      vertex -6.73267 -21.4915 3.53195
    endloop
  endfacet
  facet normal -0.832709 0.143811 0.53471
    outer loop
      vertex -7.93927 10.7298 4
      vertex -9.52092 -18.6638 9.44236
      vertex -7.23813 -5.4458 9.44236
    endloop
  endfacet
  facet normal -0.972767 0 0.231784
    outer loop
      vertex -6.73267 -24.4464 3.53195
      vertex -5.54892 -24.4464 8.5
      vertex -6.73267 -21.4915 3.53195
    endloop
  endfacet
  facet normal -0.972767 0 0.231784
    outer loop
      vertex -6.73267 -21.4915 3.53195
      vertex -5.54892 -24.4464 8.5
      vertex -5.54892 -21.4915 8.5
    endloop
  endfacet
  facet normal -0.820057 0 -0.572282
    outer loop
      vertex -6.73267 -24.4464 3.53195
      vertex -6.73267 -21.4915 3.53195
      vertex -4.26789 -24.4464 0
    endloop
  endfacet
  facet normal -0.820057 0 -0.572282
    outer loop
      vertex -4.26789 -24.4464 0
      vertex -6.73267 -21.4915 3.53195
      vertex -4.26789 -21.4915 0
    endloop
  endfacet
  facet normal 0 0 -1
    outer loop
      vertex -8.34898 -12.6863 0
      vertex -6.41346 10.7298 0
      vertex -4.26789 -21.4915 0
    endloop
  endfacet
  facet normal 0 0 -1
    outer loop
      vertex -4.26789 -21.4915 0
      vertex -6.41346 10.7298 0
      vertex -4.36676 18.3535 0
    endloop
  endfacet
  facet normal 0 0 -1
    outer loop
      vertex -4.26789 -21.4915 0
      vertex -4.36676 18.3535 0
      vertex 4.36676 18.3535 0
    endloop
  endfacet
  facet normal 0 0 -1
    outer loop
      vertex -1.65 -13.35 0
      vertex 4.36676 18.3535 0
      vertex 6.41346 10.7298 0
    endloop
  endfacet
  facet normal 0 0 -1
    outer loop
      vertex 1.65 -13.35 0
      vertex 6.41346 10.7298 0
      vertex 8.34898 -12.6863 0
    endloop
  endfacet
  facet normal 0 0 -1
    outer loop
      vertex -4.26789 -21.4915 0
      vertex 8.34898 -12.6863 0
      vertex 4.26788 -21.4915 0
    endloop
  endfacet
  facet normal 0 0 -1
    outer loop
      vertex -4.26789 -21.4915 0
      vertex 4.26788 -21.4915 0
      vertex 4.26788 -24.4464 0
    endloop
  endfacet
  facet normal 0 0 -1
    outer loop
      vertex 4.26788 -24.4464 0
      vertex 6.30823 -30 0
      vertex -4.26789 -21.4915 0
    endloop
  endfacet
  facet normal 0 0 -1
    outer loop
      vertex -4.26789 -21.4915 0
      vertex 6.30823 -30 0
      vertex 3.19919 -40 0
    endloop
  endfacet
  facet normal 0 0 -1
    outer loop
      vertex -1.65 -13.35 0
      vertex 6.41346 10.7298 0
      vertex 1.65 -13.35 0
    endloop
  endfacet
  facet normal 0 0 -1
    outer loop
      vertex -4.26789 -24.4464 0
      vertex -3.19919 -40 0
      vertex -6.30824 -30 0
    endloop
  endfacet
  facet normal 0 0 -1
    outer loop
      vertex 0 -45 0
      vertex -4.25317 -43 0
      vertex -3.19919 -40 0
    endloop
  endfacet
  facet normal 0 0 -1
    outer loop
      vertex -1.65 -16.65 0
      vertex -4.26789 -21.4915 0
      vertex -1.65 -13.35 0
    endloop
  endfacet
  facet normal 0 0 -1
    outer loop
      vertex -4.26789 -24.4464 0
      vertex 0 -45 0
      vertex -3.19919 -40 0
    endloop
  endfacet
  facet normal 0 0 -1
    outer loop
      vertex 4.25316 -43 0
      vertex 0 -45 0
      vertex -4.26789 -24.4464 0
    endloop
  endfacet
  facet normal 0 0 -1
    outer loop
      vertex -4.26789 -21.4915 0
      vertex 4.36676 18.3535 0
      vertex -1.65 -13.35 0
    endloop
  endfacet
  facet normal 0 0 -1
    outer loop
      vertex 1.65 -13.35 0
      vertex 8.34898 -12.6863 0
      vertex 1.65 -16.65 0
    endloop
  endfacet
  facet normal 0 0 -1
    outer loop
      vertex -4.26789 -21.4915 0
      vertex -1.65 -16.65 0
      vertex 1.65 -16.65 0
    endloop
  endfacet
  facet normal 0 0 -1
    outer loop
      vertex -4.26789 -21.4915 0
      vertex 1.65 -16.65 0
      vertex 8.34898 -12.6863 0
    endloop
  endfacet
  facet normal 0 0 -1
    outer loop
      vertex -4.26789 -21.4915 0
      vertex 3.19919 -40 0
      vertex 4.25316 -43 0
    endloop
  endfacet
  facet normal 0 0 -1
    outer loop
      vertex -4.26789 -21.4915 0
      vertex 4.25316 -43 0
      vertex -4.26789 -24.4464 0
    endloop
  endfacet
  facet normal -0.906257 0.243298 -0.345694
    outer loop
      vertex -6.41346 10.7298 0
      vertex -7.93927 10.7298 4
      vertex -4.36676 18.3535 0
    endloop
  endfacet
  facet normal -0.921551 0.307423 -0.237137
    outer loop
      vertex -4.36676 18.3535 0
      vertex -7.93927 10.7298 4
      vertex -5.67748 17.5099 4
    endloop
  endfacet
  facet normal -0.683498 0.22801 0.693428
    outer loop
      vertex -5.67748 17.5099 4
      vertex -7.93927 10.7298 4
      vertex -5.67748 3.82441 8.5
    endloop
  endfacet
  facet normal -0.72923 0.189602 0.657476
    outer loop
      vertex -5.67748 3.82441 8.5
      vertex -7.93927 10.7298 4
      vertex -7.23813 -5.4458 9.44236
    endloop
  endfacet
  facet normal 0 0 1
    outer loop
      vertex -6.85 -18.15 3.85
      vertex -6.85 -11.85 3.85
      vertex -10.2958 -11.85 3.85
    endloop
  endfacet
  facet normal 0 0 1
    outer loop
      vertex -10.9423 -18.15 3.85
      vertex -6.85 -18.15 3.85
      vertex -10.2958 -11.85 3.85
    endloop
  endfacet
  facet normal 0 1 0
    outer loop
      vertex -6.85 -18.15 8.15
      vertex -6.85 -18.15 3.85
      vertex -9.80886 -18.15 8.15
    endloop
  endfacet
  facet normal 0 1 0
    outer loop
      vertex -9.80886 -18.15 8.15
      vertex -6.85 -18.15 3.85
      vertex -10.9423 -18.15 3.85
    endloop
  endfacet
  facet normal 0 0 -1
    outer loop
      vertex -6.85 -11.85 8.15
      vertex -6.85 -18.15 8.15
      vertex -9.16238 -11.85 8.15
    endloop
  endfacet
  facet normal 0 0 -1
    outer loop
      vertex -9.16238 -11.85 8.15
      vertex -6.85 -18.15 8.15
      vertex -9.80886 -18.15 8.15
    endloop
  endfacet
  facet normal 0 -1 0
    outer loop
      vertex -6.85 -11.85 3.85
      vertex -6.85 -11.85 8.15
      vertex -9.16238 -11.85 8.15
    endloop
  endfacet
  facet normal 0 -1 0
    outer loop
      vertex -10.2958 -11.85 3.85
      vertex -6.85 -11.85 3.85
      vertex -9.16238 -11.85 8.15
    endloop
  endfacet
  facet normal -0.644398 0.0826651 0.760209
    outer loop
      vertex -5.37644 -5.4458 11.0204
      vertex -7.23813 -5.4458 9.44236
      vertex -7.07208 -18.6638 11.0204
    endloop
  endfacet
  facet normal -0.635662 0.183245 0.749903
    outer loop
      vertex -5.67748 3.82441 8.5
      vertex -7.23813 -5.4458 9.44236
      vertex -5.37644 -5.4458 11.0204
    endloop
  endfacet
  facet normal 0.39151 -0.050224 0.918802
    outer loop
      vertex -5.37644 -5.4458 11.0204
      vertex -7.07208 -18.6638 11.0204
      vertex -2.58595 -0.932683 10.0781
    endloop
  endfacet
  facet normal 0.285579 -0.021333 0.958118
    outer loop
      vertex -2.58595 -0.932683 10.0781
      vertex -7.07208 -18.6638 11.0204
      vertex -4.12171 -21.4915 10.0781
    endloop
  endfacet
  facet normal 0 0 1
    outer loop
      vertex 4.1217 -24.4464 10.0781
      vertex 4.1217 -21.4915 10.0781
      vertex -4.12171 -24.4464 10.0781
    endloop
  endfacet
  facet normal 0 0 1
    outer loop
      vertex -4.12171 -24.4464 10.0781
      vertex -6.09217 -30 10.0781
      vertex 0 -30 10.0781
    endloop
  endfacet
  facet normal 0 0 1
    outer loop
      vertex 6.09217 -31.1705 10.0781
      vertex -4.12171 -24.4464 10.0781
      vertex 0 -30 10.0781
    endloop
  endfacet
  facet normal 0 0 1
    outer loop
      vertex 6.09217 -31.1705 10.0781
      vertex 4.1217 -24.4464 10.0781
      vertex -4.12171 -24.4464 10.0781
    endloop
  endfacet
  facet normal 0 0 1
    outer loop
      vertex -3.15 -9.85 10.0781
      vertex 3.15 -9.85 10.0781
      vertex 2.58595 -0.932683 10.0781
    endloop
  endfacet
  facet normal 0 0 1
    outer loop
      vertex -3.15 -9.85 10.0781
      vertex -2.58595 -0.932683 10.0781
      vertex -4.12171 -21.4915 10.0781
    endloop
  endfacet
  facet normal 0 0 1
    outer loop
      vertex -3.15 -16.15 10.0781
      vertex -3.15 -9.85 10.0781
      vertex -4.12171 -21.4915 10.0781
    endloop
  endfacet
  facet normal 0 0 1
    outer loop
      vertex 4.1217 -21.4915 10.0781
      vertex 2.58595 -0.932683 10.0781
      vertex 3.15 -9.85 10.0781
    endloop
  endfacet
  facet normal 0 0 1
    outer loop
      vertex 4.1217 -21.4915 10.0781
      vertex 3.15 -16.15 10.0781
      vertex -4.12171 -24.4464 10.0781
    endloop
  endfacet
  facet normal 0 0 1
    outer loop
      vertex 4.1217 -21.4915 10.0781
      vertex 3.15 -9.85 10.0781
      vertex 3.15 -16.15 10.0781
    endloop
  endfacet
  facet normal 0 0 1
    outer loop
      vertex -3.15 -9.85 10.0781
      vertex 2.58595 -0.932683 10.0781
      vertex -2.58595 -0.932683 10.0781
    endloop
  endfacet
  facet normal 0 0 1
    outer loop
      vertex 3.15 -16.15 10.0781
      vertex -4.12171 -21.4915 10.0781
      vertex -4.12171 -24.4464 10.0781
    endloop
  endfacet
  facet normal 0 0 1
    outer loop
      vertex 3.15 -16.15 10.0781
      vertex -3.15 -16.15 10.0781
      vertex -4.12171 -21.4915 10.0781
    endloop
  endfacet
  facet normal -0.741669 0 0.670767
    outer loop
      vertex -5.54892 -24.4464 8.5
      vertex -4.12171 -24.4464 10.0781
      vertex -5.54892 -21.4915 8.5
    endloop
  endfacet
  facet normal -0.741669 0 0.670767
    outer loop
      vertex -5.54892 -21.4915 8.5
      vertex -4.12171 -24.4464 10.0781
      vertex -4.12171 -21.4915 10.0781
    endloop
  endfacet
  facet normal -0.71725 0.254485 0.648683
    outer loop
      vertex -5.54892 -24.4464 8.5
      vertex -6.09217 -30 10.0781
      vertex -4.12171 -24.4464 10.0781
    endloop
  endfacet
  facet normal -0.575901 0.275088 0.769847
    outer loop
      vertex -5.54892 -24.4464 8.5
      vertex -8.20169 -30 8.5
      vertex -6.09217 -30 10.0781
    endloop
  endfacet
  facet normal -0.882184 0.421388 0.210201
    outer loop
      vertex -6.73267 -24.4464 3.53195
      vertex -8.20169 -30 8.5
      vertex -5.54892 -24.4464 8.5
    endloop
  endfacet
  facet normal -0.785195 0.288473 -0.547953
    outer loop
      vertex -6.30824 -30 0
      vertex -6.73267 -24.4464 3.53195
      vertex -4.26789 -24.4464 0
    endloop
  endfacet
  facet normal -0.827626 0.479663 0.291477
    outer loop
      vertex -6.73267 -24.4464 3.53195
      vertex -9.95137 -30 3.53195
      vertex -8.20169 -30 8.5
    endloop
  endfacet
  facet normal -0.645518 0.37412 -0.665839
    outer loop
      vertex -6.30824 -30 0
      vertex -9.95137 -30 3.53195
      vertex -6.73267 -24.4464 3.53195
    endloop
  endfacet
  facet normal -0.658737 -0.323083 -0.679473
    outer loop
      vertex -5.04679 -40 3.53195
      vertex -9.95137 -30 3.53195
      vertex -6.30824 -30 0
    endloop
  endfacet
  facet normal -0.854262 -0.265594 -0.446873
    outer loop
      vertex -5.04679 -40 3.53195
      vertex -6.30824 -30 0
      vertex -3.19919 -40 0
    endloop
  endfacet
  facet normal -0.846039 0.297234 -0.442571
    outer loop
      vertex -4.25317 -43 0
      vertex -5.04679 -40 3.53195
      vertex -3.19919 -40 0
    endloop
  endfacet
  facet normal -0.330933 -0.703757 -0.628657
    outer loop
      vertex -4.15 -45 2.18462
      vertex -6.70945 -45 3.53195
      vertex -4.25317 -43 0
    endloop
  endfacet
  facet normal -0.330933 -0.703757 -0.628657
    outer loop
      vertex -4.15 -44.7011 1.85
      vertex -4.15 -45 2.18462
      vertex -4.25317 -43 0
    endloop
  endfacet
  facet normal -0.330933 -0.703757 -0.628657
    outer loop
      vertex 0 -45 0
      vertex -3.51435 -45 1.85
      vertex -4.25317 -43 0
    endloop
  endfacet
  facet normal -0.330933 -0.703757 -0.628657
    outer loop
      vertex -3.51435 -45 1.85
      vertex -4.15 -44.7011 1.85
      vertex -4.25317 -43 0
    endloop
  endfacet
  facet normal -0.855051 0.284333 -0.433638
    outer loop
      vertex -4.25317 -43 0
      vertex -6.70945 -45 3.53195
      vertex -5.04679 -40 3.53195
    endloop
  endfacet
  facet normal 0 -1 0
    outer loop
      vertex -4.15 -45 5.15
      vertex -6.70945 -45 3.53195
      vertex -4.15 -45 2.18462
    endloop
  endfacet
  facet normal 0 -1 0
    outer loop
      vertex 0 -45 8.5
      vertex -6.70945 -45 3.53195
      vertex -4.15 -45 5.15
    endloop
  endfacet
  facet normal 0 -1 0
    outer loop
      vertex 0.85 -45 5.15
      vertex 4.15 -45 5.15
      vertex 0 -45 8.5
    endloop
  endfacet
  facet normal 0 -1 0
    outer loop
      vertex -0.85 -45 1.85
      vertex 0 -45 8.5
      vertex -0.85 -45 5.15
    endloop
  endfacet
  facet normal 0 -1 0
    outer loop
      vertex 0 -45 0
      vertex 0 -45 8.5
      vertex -0.85 -45 1.85
    endloop
  endfacet
  facet normal 0 -1 0
    outer loop
      vertex 0 -45 0
      vertex -0.85 -45 1.85
      vertex -3.51435 -45 1.85
    endloop
  endfacet
  facet normal 0 -1 0
    outer loop
      vertex 0.85 -45 1.85
      vertex 0 -45 8.5
      vertex 0 -45 0
    endloop
  endfacet
  facet normal 0 -1 0
    outer loop
      vertex 3.51435 -45 1.85
      vertex 0.85 -45 1.85
      vertex 0 -45 0
    endloop
  endfacet
  facet normal 0 -1 0
    outer loop
      vertex 0.85 -45 5.15
      vertex 0 -45 8.5
      vertex 0.85 -45 1.85
    endloop
  endfacet
  facet normal 0 -1 0
    outer loop
      vertex 6.70945 -45 3.53195
      vertex 0 -45 8.5
      vertex 4.15 -45 5.15
    endloop
  endfacet
  facet normal 0 -1 0
    outer loop
      vertex 6.70945 -45 3.53195
      vertex 4.15 -45 5.15
      vertex 4.15 -45 2.18462
    endloop
  endfacet
  facet normal 0 -1 0
    outer loop
      vertex -4.15 -45 5.15
      vertex -0.85 -45 5.15
      vertex 0 -45 8.5
    endloop
  endfacet
  facet normal 0.330933 -0.703757 -0.628657
    outer loop
      vertex 3.51435 -45 1.85
      vertex 0 -45 0
      vertex 4.25316 -43 0
    endloop
  endfacet
  facet normal 0.330933 -0.703757 -0.628657
    outer loop
      vertex 4.15 -44.7011 1.85
      vertex 3.51435 -45 1.85
      vertex 4.25316 -43 0
    endloop
  endfacet
  facet normal 0.330933 -0.703757 -0.628657
    outer loop
      vertex 6.70945 -45 3.53195
      vertex 4.15 -45 2.18462
      vertex 4.25316 -43 0
    endloop
  endfacet
  facet normal 0.330933 -0.703757 -0.628657
    outer loop
      vertex 4.15 -45 2.18462
      vertex 4.15 -44.7011 1.85
      vertex 4.25316 -43 0
    endloop
  endfacet
  facet normal 0.855051 0.284333 -0.433638
    outer loop
      vertex 6.70945 -45 3.53195
      vertex 4.25316 -43 0
      vertex 5.04679 -40 3.53195
    endloop
  endfacet
  facet normal 0.846039 0.297234 -0.442572
    outer loop
      vertex 4.25316 -43 0
      vertex 3.19919 -40 0
      vertex 5.04679 -40 3.53195
    endloop
  endfacet
  facet normal 0.854262 -0.265594 -0.446873
    outer loop
      vertex 5.04679 -40 3.53195
      vertex 3.19919 -40 0
      vertex 6.30823 -30 0
    endloop
  endfacet
  facet normal 0.658736 -0.323083 -0.679473
    outer loop
      vertex 9.95137 -30 3.53195
      vertex 5.04679 -40 3.53195
      vertex 6.30823 -30 0
    endloop
  endfacet
  facet normal 0.645518 0.374119 -0.665839
    outer loop
      vertex 9.95137 -30 3.53195
      vertex 6.30823 -30 0
      vertex 6.73267 -24.4464 3.53195
    endloop
  endfacet
  facet normal 0.785195 0.288473 -0.547953
    outer loop
      vertex 6.30823 -30 0
      vertex 4.26788 -24.4464 0
      vertex 6.73267 -24.4464 3.53195
    endloop
  endfacet
  facet normal 0.820057 0 -0.572282
    outer loop
      vertex 6.73267 -24.4464 3.53195
      vertex 4.26788 -24.4464 0
      vertex 4.26788 -21.4915 0
    endloop
  endfacet
  facet normal 0.820057 0 -0.572282
    outer loop
      vertex 6.73267 -21.4915 3.53195
      vertex 6.73267 -24.4464 3.53195
      vertex 4.26788 -21.4915 0
    endloop
  endfacet
  facet normal 0.50968 -0.783401 -0.355682
    outer loop
      vertex 6.73267 -21.4915 3.53195
      vertex 4.26788 -21.4915 0
      vertex 11.0789 -18.6638 3.53195
    endloop
  endfacet
  facet normal 0.524134 -0.24293 -0.816253
    outer loop
      vertex 11.0789 -18.6638 3.53195
      vertex 4.26788 -21.4915 0
      vertex 8.34898 -12.6863 0
    endloop
  endfacet
  facet normal 0.842883 0.0696708 -0.533568
    outer loop
      vertex 8.34898 -12.6863 0
      vertex 6.41346 10.7298 0
      vertex 11.0789 -18.6638 3.53195
    endloop
  endfacet
  facet normal 0.906257 0.243298 -0.345694
    outer loop
      vertex 6.41346 10.7298 0
      vertex 4.36676 18.3535 0
      vertex 7.93927 10.7298 4
    endloop
  endfacet
  facet normal 0.929178 0.104892 -0.354438
    outer loop
      vertex 11.0789 -18.6638 3.53195
      vertex 6.41346 10.7298 0
      vertex 7.93927 10.7298 4
    endloop
  endfacet
  facet normal 0.921551 0.307423 -0.237137
    outer loop
      vertex 7.93927 10.7298 4
      vertex 4.36676 18.3535 0
      vertex 5.67748 17.5099 4
    endloop
  endfacet
  facet normal 0.400903 0.91406 0.0614064
    outer loop
      vertex 4.36676 18.3535 0
      vertex 0 20 4
      vertex 5.67748 17.5099 4
    endloop
  endfacet
  facet normal 0 0.924722 -0.380644
    outer loop
      vertex 4.36676 18.3535 0
      vertex -4.36676 18.3535 0
      vertex 0 20 4
    endloop
  endfacet
  facet normal -0.400903 0.91406 0.0614064
    outer loop
      vertex -4.36676 18.3535 0
      vertex -5.67748 17.5099 4
      vertex 0 20 4
    endloop
  endfacet
  facet normal 1 0 0
    outer loop
      vertex -1.65 -13.35 0
      vertex -1.65 -13.35 6.05
      vertex -1.65 -16.65 6.05
    endloop
  endfacet
  facet normal 1 0 0
    outer loop
      vertex -1.65 -16.65 0
      vertex -1.65 -13.35 0
      vertex -1.65 -16.65 6.05
    endloop
  endfacet
  facet normal 0 -1 0
    outer loop
      vertex 1.65 -13.35 0
      vertex 1.65 -13.35 6.05
      vertex -1.65 -13.35 6.05
    endloop
  endfacet
  facet normal 0 -1 0
    outer loop
      vertex -1.65 -13.35 0
      vertex 1.65 -13.35 0
      vertex -1.65 -13.35 6.05
    endloop
  endfacet
  facet normal -1 0 0
    outer loop
      vertex 1.65 -13.35 6.05
      vertex 1.65 -13.35 0
      vertex 1.65 -16.65 6.05
    endloop
  endfacet
  facet normal -1 0 0
    outer loop
      vertex 1.65 -16.65 6.05
      vertex 1.65 -13.35 0
      vertex 1.65 -16.65 0
    endloop
  endfacet
  facet normal 0 1 0
    outer loop
      vertex 1.65 -16.65 6.05
      vertex 1.65 -16.65 0
      vertex -1.65 -16.65 6.05
    endloop
  endfacet
  facet normal 0 1 0
    outer loop
      vertex -1.65 -16.65 6.05
      vertex 1.65 -16.65 0
      vertex -1.65 -16.65 0
    endloop
  endfacet
  facet normal -0.0435594 0.0993158 0.994102
    outer loop
      vertex 0 20 4
      vertex -5.67748 17.5099 4
      vertex 0 5.10585 5.488
    endloop
  endfacet
  facet normal 0.397713 0.286596 0.8716
    outer loop
      vertex -5.67748 17.5099 4
      vertex -5.67748 3.82441 8.5
      vertex 0 5.10585 5.488
    endloop
  endfacet
  facet normal 0.22375 0.670753 0.707126
    outer loop
      vertex 0 5.10585 5.488
      vertex -5.67748 3.82441 8.5
      vertex 0 1.93051 8.5
    endloop
  endfacet
  facet normal 0.129013 0.386751 0.913115
    outer loop
      vertex 0 1.93051 8.5
      vertex -5.67748 3.82441 8.5
      vertex -2.58595 -0.932683 10.0781
    endloop
  endfacet
  facet normal -0.0932029 0.258399 0.961532
    outer loop
      vertex -2.58595 -0.932683 10.0781
      vertex -5.67748 3.82441 8.5
      vertex -5.37644 -5.4458 11.0204
    endloop
  endfacet
  facet normal -1 0 0
    outer loop
      vertex -6.85 -11.85 8.15
      vertex -6.85 -11.85 3.85
      vertex -6.85 -18.15 8.15
    endloop
  endfacet
  facet normal -1 0 0
    outer loop
      vertex -6.85 -18.15 8.15
      vertex -6.85 -11.85 3.85
      vertex -6.85 -18.15 3.85
    endloop
  endfacet
  facet normal 0 0.482698 0.875787
    outer loop
      vertex 0 1.93051 8.5
      vertex -2.58595 -0.932683 10.0781
      vertex 2.58595 -0.932683 10.0781
    endloop
  endfacet
  facet normal -0.39151 -0.050224 0.918802
    outer loop
      vertex 5.37644 -5.4458 11.0204
      vertex 2.58595 -0.932683 10.0781
      vertex 7.07208 -18.6638 11.0204
    endloop
  endfacet
  facet normal -0.285579 -0.021333 0.958118
    outer loop
      vertex 7.07208 -18.6638 11.0204
      vertex 2.58595 -0.932683 10.0781
      vertex 4.1217 -21.4915 10.0781
    endloop
  endfacet
  facet normal -0.129013 0.386751 0.913115
    outer loop
      vertex 5.67748 3.82441 8.5
      vertex 0 1.93051 8.5
      vertex 2.58595 -0.932683 10.0781
    endloop
  endfacet
  facet normal 0.267949 0.141977 0.952914
    outer loop
      vertex 5.67748 3.82441 8.5
      vertex 2.58595 -0.932683 10.0781
      vertex 7.23813 -5.4458 9.44236
    endloop
  endfacet
  facet normal 0.564392 0.487994 0.665825
    outer loop
      vertex 7.23813 -5.4458 9.44236
      vertex 2.58595 -0.932683 10.0781
      vertex 5.37644 -5.4458 11.0204
    endloop
  endfacet
  facet normal 0.52512 -0.706188 0.474919
    outer loop
      vertex 7.07208 -18.6638 11.0204
      vertex 4.1217 -21.4915 10.0781
      vertex 5.54892 -21.4915 8.5
    endloop
  endfacet
  facet normal 0.741669 0 0.670767
    outer loop
      vertex 4.1217 -21.4915 10.0781
      vertex 4.1217 -24.4464 10.0781
      vertex 5.54892 -24.4464 8.5
    endloop
  endfacet
  facet normal 0.741669 0 0.670767
    outer loop
      vertex 5.54892 -21.4915 8.5
      vertex 4.1217 -21.4915 10.0781
      vertex 5.54892 -24.4464 8.5
    endloop
  endfacet
  facet normal 0.711823 0.280824 0.643774
    outer loop
      vertex 5.54892 -24.4464 8.5
      vertex 4.1217 -24.4464 10.0781
      vertex 8.20169 -31.1705 8.5
    endloop
  endfacet
  facet normal 0.589991 0.172892 0.788682
    outer loop
      vertex 8.20169 -31.1705 8.5
      vertex 4.1217 -24.4464 10.0781
      vertex 6.09217 -31.1705 10.0781
    endloop
  endfacet
  facet normal -0.138833 -0.972771 -0.185588
    outer loop
      vertex 6.09217 -31.1705 10.0781
      vertex 0 -30 8.5
      vertex 8.20169 -31.1705 8.5
    endloop
  endfacet
  facet normal -0.188687 -0.982037 0
    outer loop
      vertex 0 -30 10.0781
      vertex 0 -30 8.5
      vertex 6.09217 -31.1705 10.0781
    endloop
  endfacet
  facet normal 0 -1 0
    outer loop
      vertex -6.09217 -30 10.0781
      vertex -8.20169 -30 8.5
      vertex 0 -30 8.5
    endloop
  endfacet
  facet normal 0 -1 0
    outer loop
      vertex 0 -30 10.0781
      vertex -6.09217 -30 10.0781
      vertex 0 -30 8.5
    endloop
  endfacet
  facet normal 2.22045e-16 1 0
    outer loop
      vertex 3.15 -16.15 10.0781
      vertex 3.15 -16.15 6.85
      vertex -3.15 -16.15 10.0781
    endloop
  endfacet
  facet normal 2.22045e-16 1 0
    outer loop
      vertex -3.15 -16.15 10.0781
      vertex 3.15 -16.15 6.85
      vertex -3.15 -16.15 6.85
    endloop
  endfacet
  facet normal 1 -2.22045e-16 0
    outer loop
      vertex -3.15 -9.85 6.85
      vertex -3.15 -9.85 10.0781
      vertex -3.15 -16.15 10.0781
    endloop
  endfacet
  facet normal 1 -2.22045e-16 0
    outer loop
      vertex -3.15 -16.15 6.85
      vertex -3.15 -9.85 6.85
      vertex -3.15 -16.15 10.0781
    endloop
  endfacet
  facet normal -1 2.22045e-16 0
    outer loop
      vertex 3.15 -9.85 10.0781
      vertex 3.15 -9.85 6.85
      vertex 3.15 -16.15 10.0781
    endloop
  endfacet
  facet normal -1 2.22045e-16 0
    outer loop
      vertex 3.15 -16.15 10.0781
      vertex 3.15 -9.85 6.85
      vertex 3.15 -16.15 6.85
    endloop
  endfacet
  facet normal -2.22045e-16 -1 0
    outer loop
      vertex 3.15 -9.85 6.85
      vertex 3.15 -9.85 10.0781
      vertex -3.15 -9.85 10.0781
    endloop
  endfacet
  facet normal -2.22045e-16 -1 0
    outer loop
      vertex -3.15 -9.85 6.85
      vertex 3.15 -9.85 6.85
      vertex -3.15 -9.85 10.0781
    endloop
  endfacet
  facet normal 0 0 1
    outer loop
      vertex -5.15 -35.65 8.5
      vertex -8.20169 -30 8.5
      vertex -4.15945 -40 8.5
    endloop
  endfacet
  facet normal 0 0 1
    outer loop
      vertex 5.15 -35.65 8.5
      vertex 1.85 -35.65 8.5
      vertex 4.15945 -40 8.5
    endloop
  endfacet
  facet normal 0 0 1
    outer loop
      vertex -5.52978 -43 8.5
      vertex 0 -45 8.5
      vertex -4.15945 -40 8.5
    endloop
  endfacet
  facet normal 0 0 1
    outer loop
      vertex 0 -45 8.5
      vertex 5.52978 -43 8.5
      vertex 4.15945 -40 8.5
    endloop
  endfacet
  facet normal 0 0 1
    outer loop
      vertex 1.85 -32.35 8.5
      vertex 8.20169 -31.1705 8.5
      vertex 0 -30 8.5
    endloop
  endfacet
  facet normal 0 0 1
    outer loop
      vertex -5.15 -32.35 8.5
      vertex -8.20169 -30 8.5
      vertex -5.15 -35.65 8.5
    endloop
  endfacet
  facet normal 0 0 1
    outer loop
      vertex 0 -30 8.5
      vertex -8.20169 -30 8.5
      vertex -5.15 -32.35 8.5
    endloop
  endfacet
  facet normal 0 0 1
    outer loop
      vertex -5.15 -32.35 8.5
      vertex -1.85 -32.35 8.5
      vertex 0 -30 8.5
    endloop
  endfacet
  facet normal 0 0 1
    outer loop
      vertex 1.85 -35.65 8.5
      vertex 1.85 -32.35 8.5
      vertex 0 -30 8.5
    endloop
  endfacet
  facet normal 0 0 1
    outer loop
      vertex 0 -45 8.5
      vertex -1.85 -35.65 8.5
      vertex -4.15945 -40 8.5
    endloop
  endfacet
  facet normal 0 0 1
    outer loop
      vertex 0 -45 8.5
      vertex 0 -30 8.5
      vertex -1.85 -35.65 8.5
    endloop
  endfacet
  facet normal 0 0 1
    outer loop
      vertex 0 -45 8.5
      vertex 1.85 -35.65 8.5
      vertex 0 -30 8.5
    endloop
  endfacet
  facet normal 0 0 1
    outer loop
      vertex 0 -45 8.5
      vertex 4.15945 -40 8.5
      vertex 1.85 -35.65 8.5
    endloop
  endfacet
  facet normal 0 0 1
    outer loop
      vertex 5.15 -32.35 8.5
      vertex 8.20169 -31.1705 8.5
      vertex 1.85 -32.35 8.5
    endloop
  endfacet
  facet normal 0 0 1
    outer loop
      vertex -1.85 -32.35 8.5
      vertex -1.85 -35.65 8.5
      vertex 0 -30 8.5
    endloop
  endfacet
  facet normal 0 0 1
    outer loop
      vertex -1.85 -35.65 8.5
      vertex -5.15 -35.65 8.5
      vertex -4.15945 -40 8.5
    endloop
  endfacet
  facet normal 0 0 1
    outer loop
      vertex 5.15 -35.65 8.5
      vertex 8.20169 -31.1705 8.5
      vertex 5.15 -32.35 8.5
    endloop
  endfacet
  facet normal 0 0 1
    outer loop
      vertex 4.15945 -40 8.5
      vertex 8.20169 -31.1705 8.5
      vertex 5.15 -35.65 8.5
    endloop
  endfacet
  facet normal -0.914664 -0.36973 0.163367
    outer loop
      vertex -4.15945 -40 8.5
      vertex -8.20169 -30 8.5
      vertex -5.04679 -40 3.53195
    endloop
  endfacet
  facet normal -0.856052 -0.419858 0.301488
    outer loop
      vertex -8.20169 -30 8.5
      vertex -9.95137 -30 3.53195
      vertex -5.04679 -40 3.53195
    endloop
  endfacet
  facet normal -0.897829 0.410107 0.16036
    outer loop
      vertex -5.04679 -40 3.53195
      vertex -5.52978 -43 8.5
      vertex -4.15945 -40 8.5
    endloop
  endfacet
  facet normal -0.94436 0.314031 0.0978196
    outer loop
      vertex -5.04679 -40 3.53195
      vertex -6.70945 -45 3.53195
      vertex -5.52978 -43 8.5
    endloop
  endfacet
  facet normal 1 -2.22045e-16 -4.93038e-32
    outer loop
      vertex -4.15 -44.7011 1.85
      vertex -4.15 -40.85 1.85
      vertex -4.15 -40.85 5.15
    endloop
  endfacet
  facet normal 1 -2.22045e-16 -4.93038e-32
    outer loop
      vertex -4.15 -45 2.18462
      vertex -4.15 -44.7011 1.85
      vertex -4.15 -45 5.15
    endloop
  endfacet
  facet normal 1 -2.22045e-16 -4.93038e-32
    outer loop
      vertex -4.15 -45 5.15
      vertex -4.15 -44.7011 1.85
      vertex -4.15 -40.85 5.15
    endloop
  endfacet
  facet normal -4.93038e-32 -2.22045e-16 1
    outer loop
      vertex -3.51435 -45 1.85
      vertex -0.85 -45 1.85
      vertex -0.85 -40.85 1.85
    endloop
  endfacet
  facet normal -4.93038e-32 -2.22045e-16 1
    outer loop
      vertex -4.15 -44.7011 1.85
      vertex -3.51435 -45 1.85
      vertex -4.15 -40.85 1.85
    endloop
  endfacet
  facet normal -4.93038e-32 -2.22045e-16 1
    outer loop
      vertex -4.15 -40.85 1.85
      vertex -3.51435 -45 1.85
      vertex -0.85 -40.85 1.85
    endloop
  endfacet
  facet normal -0.30907 -0.854546 0.417405
    outer loop
      vertex -5.52978 -43 8.5
      vertex -6.70945 -45 3.53195
      vertex 0 -45 8.5
    endloop
  endfacet
  facet normal 0.30907 -0.854546 0.417406
    outer loop
      vertex 5.52978 -43 8.5
      vertex 0 -45 8.5
      vertex 6.70945 -45 3.53195
    endloop
  endfacet
  facet normal 0.94436 0.314031 0.0978198
    outer loop
      vertex 6.70945 -45 3.53195
      vertex 5.04679 -40 3.53195
      vertex 5.52978 -43 8.5
    endloop
  endfacet
  facet normal -1 2.22045e-16 4.93038e-32
    outer loop
      vertex 4.15 -40.85 5.15
      vertex 4.15 -40.85 1.85
      vertex 4.15 -45 5.15
    endloop
  endfacet
  facet normal -1 2.22045e-16 4.93038e-32
    outer loop
      vertex 4.15 -45 5.15
      vertex 4.15 -40.85 1.85
      vertex 4.15 -44.7011 1.85
    endloop
  endfacet
  facet normal -1 2.22045e-16 4.93038e-32
    outer loop
      vertex 4.15 -45 5.15
      vertex 4.15 -44.7011 1.85
      vertex 4.15 -45 2.18462
    endloop
  endfacet
  facet normal 4.93038e-32 2.22045e-16 -1
    outer loop
      vertex 4.15 -40.85 5.15
      vertex 4.15 -45 5.15
      vertex 0.85 -40.85 5.15
    endloop
  endfacet
  facet normal 4.93038e-32 2.22045e-16 -1
    outer loop
      vertex 0.85 -40.85 5.15
      vertex 4.15 -45 5.15
      vertex 0.85 -45 5.15
    endloop
  endfacet
  facet normal 1 -2.22045e-16 -4.93038e-32
    outer loop
      vertex 0.85 -40.85 1.85
      vertex 0.85 -40.85 5.15
      vertex 0.85 -45 5.15
    endloop
  endfacet
  facet normal 1 -2.22045e-16 -4.93038e-32
    outer loop
      vertex 0.85 -45 1.85
      vertex 0.85 -40.85 1.85
      vertex 0.85 -45 5.15
    endloop
  endfacet
  facet normal -4.93038e-32 -2.22045e-16 1
    outer loop
      vertex 3.51435 -45 1.85
      vertex 4.15 -44.7011 1.85
      vertex 4.15 -40.85 1.85
    endloop
  endfacet
  facet normal -4.93038e-32 -2.22045e-16 1
    outer loop
      vertex 0.85 -45 1.85
      vertex 3.51435 -45 1.85
      vertex 0.85 -40.85 1.85
    endloop
  endfacet
  facet normal -4.93038e-32 -2.22045e-16 1
    outer loop
      vertex 0.85 -40.85 1.85
      vertex 3.51435 -45 1.85
      vertex 4.15 -40.85 1.85
    endloop
  endfacet
  facet normal -1 2.22045e-16 4.93038e-32
    outer loop
      vertex -0.85 -40.85 5.15
      vertex -0.85 -40.85 1.85
      vertex -0.85 -45 5.15
    endloop
  endfacet
  facet normal -1 2.22045e-16 4.93038e-32
    outer loop
      vertex -0.85 -45 5.15
      vertex -0.85 -40.85 1.85
      vertex -0.85 -45 1.85
    endloop
  endfacet
  facet normal 4.93038e-32 2.22045e-16 -1
    outer loop
      vertex -0.85 -40.85 5.15
      vertex -0.85 -45 5.15
      vertex -4.15 -40.85 5.15
    endloop
  endfacet
  facet normal 4.93038e-32 2.22045e-16 -1
    outer loop
      vertex -4.15 -40.85 5.15
      vertex -0.85 -45 5.15
      vertex -4.15 -45 5.15
    endloop
  endfacet
  facet normal 0.897829 0.410107 0.16036
    outer loop
      vertex 5.04679 -40 3.53195
      vertex 4.15945 -40 8.5
      vertex 5.52978 -43 8.5
    endloop
  endfacet
  facet normal 0.897486 -0.410881 0.160299
    outer loop
      vertex 8.20169 -31.1705 8.5
      vertex 4.15945 -40 8.5
      vertex 5.04679 -40 3.53195
    endloop
  endfacet
  facet normal 0.878227 -0.430734 0.207811
    outer loop
      vertex 8.20169 -31.1705 8.5
      vertex 5.04679 -40 3.53195
      vertex 9.95137 -30 3.53195
    endloop
  endfacet
  facet normal 0.79688 0.461843 0.389465
    outer loop
      vertex 9.95137 -30 3.53195
      vertex 6.73267 -24.4464 3.53195
      vertex 8.20169 -31.1705 8.5
    endloop
  endfacet
  facet normal 0.908185 0.358291 0.216396
    outer loop
      vertex 6.73267 -24.4464 3.53195
      vertex 5.54892 -24.4464 8.5
      vertex 8.20169 -31.1705 8.5
    endloop
  endfacet
  facet normal 0.972767 0 0.231785
    outer loop
      vertex 5.54892 -21.4915 8.5
      vertex 5.54892 -24.4464 8.5
      vertex 6.73267 -24.4464 3.53195
    endloop
  endfacet
  facet normal 0.972767 0 0.231785
    outer loop
      vertex 6.73267 -21.4915 3.53195
      vertex 5.54892 -21.4915 8.5
      vertex 6.73267 -24.4464 3.53195
    endloop
  endfacet
  facet normal 0.553903 -0.822054 0.13198
    outer loop
      vertex 9.52092 -18.6638 9.44236
      vertex 5.54892 -21.4915 8.5
      vertex 6.73267 -21.4915 3.53195
    endloop
  endfacet
  facet normal 0.539792 -0.829686 0.142288
    outer loop
      vertex 9.52092 -18.6638 9.44236
      vertex 6.73267 -21.4915 3.53195
      vertex 11.0789 -18.6638 3.53195
    endloop
  endfacet
  facet normal 0.962244 0.0987413 0.253645
    outer loop
      vertex 9.16238 -11.85 8.15
      vertex 7.93927 10.7298 4
      vertex 9.52092 -18.6638 9.44236
    endloop
  endfacet
  facet normal 0.962244 0.0987413 0.253645
    outer loop
      vertex 11.0789 -18.6638 3.53195
      vertex 9.80886 -18.15 8.15
      vertex 9.52092 -18.6638 9.44236
    endloop
  endfacet
  facet normal 0.962244 0.0987413 0.253645
    outer loop
      vertex 9.80886 -18.15 8.15
      vertex 9.16238 -11.85 8.15
      vertex 9.52092 -18.6638 9.44236
    endloop
  endfacet
  facet normal 0.962244 0.0987413 0.253645
    outer loop
      vertex 11.0789 -18.6638 3.53195
      vertex 7.93927 10.7298 4
      vertex 10.2958 -11.85 3.85
    endloop
  endfacet
  facet normal 0.962244 0.0987413 0.253645
    outer loop
      vertex 11.0789 -18.6638 3.53195
      vertex 10.9423 -18.15 3.85
      vertex 9.80886 -18.15 8.15
    endloop
  endfacet
  facet normal 0.962244 0.0987413 0.253645
    outer loop
      vertex 11.0789 -18.6638 3.53195
      vertex 10.2958 -11.85 3.85
      vertex 10.9423 -18.15 3.85
    endloop
  endfacet
  facet normal 0.962244 0.0987413 0.253645
    outer loop
      vertex 9.16238 -11.85 8.15
      vertex 10.2958 -11.85 3.85
      vertex 7.93927 10.7298 4
    endloop
  endfacet
  facet normal 0.832709 0.143811 0.53471
    outer loop
      vertex 7.93927 10.7298 4
      vertex 7.23813 -5.4458 9.44236
      vertex 9.52092 -18.6638 9.44236
    endloop
  endfacet
  facet normal 0.72923 0.189602 0.657476
    outer loop
      vertex 7.93927 10.7298 4
      vertex 5.67748 3.82441 8.5
      vertex 7.23813 -5.4458 9.44236
    endloop
  endfacet
  facet normal 0.683498 0.22801 0.693428
    outer loop
      vertex 5.67748 17.5099 4
      vertex 5.67748 3.82441 8.5
      vertex 7.93927 10.7298 4
    endloop
  endfacet
  facet normal 0.0435594 0.0993158 0.994102
    outer loop
      vertex 0 20 4
      vertex 0 5.10585 5.488
      vertex 5.67748 17.5099 4
    endloop
  endfacet
  facet normal -0.397713 0.286596 0.8716
    outer loop
      vertex 5.67748 17.5099 4
      vertex 0 5.10585 5.488
      vertex 5.67748 3.82441 8.5
    endloop
  endfacet
  facet normal 0 0 -1
    outer loop
      vertex 1.65 -13.35 6.05
      vertex 1.65 -16.65 6.05
      vertex -1.65 -13.35 6.05
    endloop
  endfacet
  facet normal 0 0 -1
    outer loop
      vertex -1.65 -13.35 6.05
      vertex 1.65 -16.65 6.05
      vertex -1.65 -16.65 6.05
    endloop
  endfacet
  facet normal -0.22375 0.670753 0.707126
    outer loop
      vertex 0 5.10585 5.488
      vertex 0 1.93051 8.5
      vertex 5.67748 3.82441 8.5
    endloop
  endfacet
  facet normal 0.642616 0.110982 0.758108
    outer loop
      vertex 7.23813 -5.4458 9.44236
      vertex 5.37644 -5.4458 11.0204
      vertex 9.52092 -18.6638 9.44236
    endloop
  endfacet
  facet normal 0.540383 0.0693217 0.838559
    outer loop
      vertex 9.52092 -18.6638 9.44236
      vertex 5.37644 -5.4458 11.0204
      vertex 7.07208 -18.6638 11.0204
    endloop
  endfacet
  facet normal 0.375251 -0.721181 0.58231
    outer loop
      vertex 7.07208 -18.6638 11.0204
      vertex 5.54892 -21.4915 8.5
      vertex 9.52092 -18.6638 9.44236
    endloop
  endfacet
  facet normal 0 0 1
    outer loop
      vertex 3.15 -16.15 6.85
      vertex 3.15 -9.85 6.85
      vertex -3.15 -9.85 6.85
    endloop
  endfacet
  facet normal 0 0 1
    outer loop
      vertex -3.15 -16.15 6.85
      vertex 3.15 -16.15 6.85
      vertex -3.15 -9.85 6.85
    endloop
  endfacet
  facet normal 1 0 0
    outer loop
      vertex -5.15 -32.35 5.85
      vertex -5.15 -32.35 8.5
      vertex -5.15 -35.65 8.5
    endloop
  endfacet
  facet normal 1 0 0
    outer loop
      vertex -5.15 -35.65 5.85
      vertex -5.15 -32.35 5.85
      vertex -5.15 -35.65 8.5
    endloop
  endfacet
  facet normal 0 1 0
    outer loop
      vertex -1.85 -35.65 8.5
      vertex -1.85 -35.65 5.85
      vertex -5.15 -35.65 8.5
    endloop
  endfacet
  facet normal 0 1 0
    outer loop
      vertex -5.15 -35.65 8.5
      vertex -1.85 -35.65 5.85
      vertex -5.15 -35.65 5.85
    endloop
  endfacet
  facet normal -1 0 0
    outer loop
      vertex -1.85 -32.35 8.5
      vertex -1.85 -32.35 5.85
      vertex -1.85 -35.65 8.5
    endloop
  endfacet
  facet normal -1 0 0
    outer loop
      vertex -1.85 -35.65 8.5
      vertex -1.85 -32.35 5.85
      vertex -1.85 -35.65 5.85
    endloop
  endfacet
  facet normal 0 -1 0
    outer loop
      vertex -1.85 -32.35 5.85
      vertex -1.85 -32.35 8.5
      vertex -5.15 -32.35 8.5
    endloop
  endfacet
  facet normal 0 -1 0
    outer loop
      vertex -5.15 -32.35 5.85
      vertex -1.85 -32.35 5.85
      vertex -5.15 -32.35 8.5
    endloop
  endfacet
  facet normal 1 0 0
    outer loop
      vertex 1.85 -32.35 5.85
      vertex 1.85 -32.35 8.5
      vertex 1.85 -35.65 8.5
    endloop
  endfacet
  facet normal 1 0 0
    outer loop
      vertex 1.85 -35.65 5.85
      vertex 1.85 -32.35 5.85
      vertex 1.85 -35.65 8.5
    endloop
  endfacet
  facet normal 0 1 0
    outer loop
      vertex 5.15 -35.65 8.5
      vertex 5.15 -35.65 5.85
      vertex 1.85 -35.65 8.5
    endloop
  endfacet
  facet normal 0 1 0
    outer loop
      vertex 1.85 -35.65 8.5
      vertex 5.15 -35.65 5.85
      vertex 1.85 -35.65 5.85
    endloop
  endfacet
  facet normal -1 0 0
    outer loop
      vertex 5.15 -32.35 8.5
      vertex 5.15 -32.35 5.85
      vertex 5.15 -35.65 8.5
    endloop
  endfacet
  facet normal -1 0 0
    outer loop
      vertex 5.15 -35.65 8.5
      vertex 5.15 -32.35 5.85
      vertex 5.15 -35.65 5.85
    endloop
  endfacet
  facet normal 0 -1 0
    outer loop
      vertex 5.15 -32.35 5.85
      vertex 5.15 -32.35 8.5
      vertex 1.85 -32.35 8.5
    endloop
  endfacet
  facet normal 0 -1 0
    outer loop
      vertex 1.85 -32.35 5.85
      vertex 5.15 -32.35 5.85
      vertex 1.85 -32.35 8.5
    endloop
  endfacet
  facet normal -2.22045e-16 -1 -2.22045e-16
    outer loop
      vertex -4.15 -40.85 1.85
      vertex -0.85 -40.85 1.85
      vertex -0.85 -40.85 5.15
    endloop
  endfacet
  facet normal -2.22045e-16 -1 -2.22045e-16
    outer loop
      vertex -4.15 -40.85 5.15
      vertex -4.15 -40.85 1.85
      vertex -0.85 -40.85 5.15
    endloop
  endfacet
  facet normal -2.22045e-16 -1 -2.22045e-16
    outer loop
      vertex 0.85 -40.85 1.85
      vertex 4.15 -40.85 1.85
      vertex 4.15 -40.85 5.15
    endloop
  endfacet
  facet normal -2.22045e-16 -1 -2.22045e-16
    outer loop
      vertex 0.85 -40.85 5.15
      vertex 0.85 -40.85 1.85
      vertex 4.15 -40.85 5.15
    endloop
  endfacet
  facet normal 0 0 -1
    outer loop
      vertex 9.16238 -11.85 8.15
      vertex 9.80886 -18.15 8.15
      vertex 6.85 -11.85 8.15
    endloop
  endfacet
  facet normal 0 0 -1
    outer loop
      vertex 6.85 -11.85 8.15
      vertex 9.80886 -18.15 8.15
      vertex 6.85 -18.15 8.15
    endloop
  endfacet
  facet normal 0 1 0
    outer loop
      vertex 9.80886 -18.15 8.15
      vertex 10.9423 -18.15 3.85
      vertex 6.85 -18.15 8.15
    endloop
  endfacet
  facet normal 0 1 0
    outer loop
      vertex 6.85 -18.15 8.15
      vertex 10.9423 -18.15 3.85
      vertex 6.85 -18.15 3.85
    endloop
  endfacet
  facet normal 0 0 1
    outer loop
      vertex 10.9423 -18.15 3.85
      vertex 10.2958 -11.85 3.85
      vertex 6.85 -11.85 3.85
    endloop
  endfacet
  facet normal 0 0 1
    outer loop
      vertex 6.85 -18.15 3.85
      vertex 10.9423 -18.15 3.85
      vertex 6.85 -11.85 3.85
    endloop
  endfacet
  facet normal 0 -1 0
    outer loop
      vertex 10.2958 -11.85 3.85
      vertex 9.16238 -11.85 8.15
      vertex 6.85 -11.85 8.15
    endloop
  endfacet
  facet normal 0 -1 0
    outer loop
      vertex 6.85 -11.85 3.85
      vertex 10.2958 -11.85 3.85
      vertex 6.85 -11.85 8.15
    endloop
  endfacet
  facet normal 0 0 1
    outer loop
      vertex -1.85 -35.65 5.85
      vertex -1.85 -32.35 5.85
      vertex -5.15 -32.35 5.85
    endloop
  endfacet
  facet normal 0 0 1
    outer loop
      vertex -5.15 -35.65 5.85
      vertex -1.85 -35.65 5.85
      vertex -5.15 -32.35 5.85
    endloop
  endfacet
  facet normal 0 0 1
    outer loop
      vertex 5.15 -35.65 5.85
      vertex 5.15 -32.35 5.85
      vertex 1.85 -32.35 5.85
    endloop
  endfacet
  facet normal 0 0 1
    outer loop
      vertex 1.85 -35.65 5.85
      vertex 5.15 -35.65 5.85
      vertex 1.85 -32.35 5.85
    endloop
  endfacet
  facet normal 1 0 0
    outer loop
      vertex 6.85 -11.85 3.85
      vertex 6.85 -11.85 8.15
      vertex 6.85 -18.15 8.15
    endloop
  endfacet
  facet normal 1 0 0
    outer loop
      vertex 6.85 -18.15 3.85
      vertex 6.85 -11.85 3.85
      vertex 6.85 -18.15 8.15
    endloop
  endfacet
endsolid OpenSCAD_Model
