solid OpenSCAD_Model
  facet normal -0.944112 -0.0940904 -0.31591
    outer loop
      vertex -22.528 -12.55 4
      vertex -23.5196 -14.966 7.68311
      vertex -23.0147 -7.66604 4
    endloop
  endfacet
  facet normal -0.967516 0.163993 0.192405
    outer loop
      vertex -23.0147 -7.66604 4
      vertex -23.5196 -14.966 7.68311
      vertex -21.4488 -1.57031 6.67839
    endloop
  endfacet
  facet normal 0 0.0747937 0.997199
    outer loop
      vertex -21.4488 -1.57031 6.67839
      vertex -23.5196 -14.966 7.68311
      vertex -16.6287 -14.966 7.68311
    endloop
  endfacet
  facet normal 0 -0.358036 0.933708
    outer loop
      vertex -16.6287 -14.966 7.68311
      vertex -23.5196 -14.966 7.68311
      vertex -20.5736 -18.9233 6.16567
    endloop
  endfacet
  facet normal 0 -0.358036 0.933708
    outer loop
      vertex -15.4947 -18.9233 6.16567
      vertex -16.6287 -14.966 7.68311
      vertex -20.5736 -18.9233 6.16567
    endloop
  endfacet
  facet normal -0.821053 -0.528468 -0.215853
    outer loop
      vertex -20.5736 -18.9233 6.16567
      vertex -23.5196 -14.966 7.68311
      vertex -19.4135 -19.841 4
    endloop
  endfacet
  facet normal -0.820789 -0.350611 -0.450974
    outer loop
      vertex -19.4135 -19.841 4
      vertex -23.5196 -14.966 7.68311
      vertex -22.528 -12.55 4
    endloop
  endfacet
  facet normal 0 0 -1
    outer loop
      vertex -23.0147 -7.66604 4
      vertex -18.0631 1.28041 4
      vertex -22.528 -12.55 4
    endloop
  endfacet
  facet normal 0 0 -1
    outer loop
      vertex -22.528 -12.55 4
      vertex -18.0631 1.28041 4
      vertex -11.3133 5.96397 4
    endloop
  endfacet
  facet normal 0 0 -1
    outer loop
      vertex -22.528 -12.55 4
      vertex -11.3133 5.96397 4
      vertex -7.93927 10.6212 4
    endloop
  endfacet
  facet normal 0 0 -1
    outer loop
      vertex -15.3638 -7.66604 4
      vertex -7.93927 10.6212 4
      vertex -12.5146 -7.66604 4
    endloop
  endfacet
  facet normal 0 0 -1
    outer loop
      vertex -22.528 -12.55 4
      vertex -7.93927 10.6212 4
      vertex -15.3638 -7.66604 4
    endloop
  endfacet
  facet normal 0 0 -1
    outer loop
      vertex -22.528 -12.55 4
      vertex -15.6371 -12.55 4
      vertex -14.3346 -19.841 4
    endloop
  endfacet
  facet normal 0 0 -1
    outer loop
      vertex -22.528 -12.55 4
      vertex -14.3346 -19.841 4
      vertex -19.4135 -19.841 4
    endloop
  endfacet
  facet normal 0 0 -1
    outer loop
      vertex -15.6371 -12.55 4
      vertex -22.528 -12.55 4
      vertex -15.3638 -7.66604 4
    endloop
  endfacet
  facet normal -0.753356 0.416961 -0.508526
    outer loop
      vertex -18.0631 1.28041 4
      vertex -23.0147 -7.66604 4
      vertex -21.4488 -1.57031 6.67839
    endloop
  endfacet
  facet normal -0.0106621 0.691393 0.7224
    outer loop
      vertex -18.0631 1.28041 4
      vertex -21.4488 -1.57031 6.67839
      vertex -15.2694 -1.57031 6.76959
    endloop
  endfacet
  facet normal -0.0147219 0.0695168 0.997472
    outer loop
      vertex -15.2694 -1.57031 6.76959
      vertex -21.4488 -1.57031 6.67839
      vertex -16.6287 -14.966 7.68311
    endloop
  endfacet
  facet normal 0.974701 -0.0848039 0.206798
    outer loop
      vertex -15.2694 -1.57031 6.76959
      vertex -16.6287 -14.966 7.68311
      vertex -15.6371 -12.55 4
    endloop
  endfacet
  facet normal -0.0916192 0.843776 0.528817
    outer loop
      vertex -15.6371 -12.55 4
      vertex -16.6287 -14.966 7.68311
      vertex -9.63743 -14.7188 8.5
    endloop
  endfacet
  facet normal -0.094191 -0.3787 0.920714
    outer loop
      vertex -9.63743 -14.7188 8.5
      vertex -16.6287 -14.966 7.68311
      vertex -8.24822 -19.4724 6.6869
    endloop
  endfacet
  facet normal -0.0949811 -0.380031 0.920084
    outer loop
      vertex -8.24822 -19.4724 6.6869
      vertex -16.6287 -14.966 7.68311
      vertex -15.4947 -18.9233 6.16567
    endloop
  endfacet
  facet normal -0.0968331 -0.922038 0.374793
    outer loop
      vertex -8.24822 -19.4724 6.6869
      vertex -15.4947 -18.9233 6.16567
      vertex -6.48252 -20.9403 3.53195
    endloop
  endfacet
  facet normal -0.110818 -0.935006 0.336872
    outer loop
      vertex -6.48252 -20.9403 3.53195
      vertex -15.4947 -18.9233 6.16567
      vertex -14.3346 -19.841 4
    endloop
  endfacet
  facet normal 0 -0.920736 0.390185
    outer loop
      vertex -15.4947 -18.9233 6.16567
      vertex -20.5736 -18.9233 6.16567
      vertex -19.4135 -19.841 4
    endloop
  endfacet
  facet normal 0 -0.920736 0.390185
    outer loop
      vertex -14.3346 -19.841 4
      vertex -15.4947 -18.9233 6.16567
      vertex -19.4135 -19.841 4
    endloop
  endfacet
  facet normal -0.0609819 -0.0106244 -0.998082
    outer loop
      vertex -6.48252 -20.9403 3.53195
      vertex -14.3346 -19.841 4
      vertex -8.16841 -11.2636 3.53195
    endloop
  endfacet
  facet normal -0.0606826 -0.0108405 -0.998098
    outer loop
      vertex -14.3346 -19.841 4
      vertex -15.6371 -12.55 4
      vertex -8.16841 -11.2636 3.53195
    endloop
  endfacet
  facet normal 0.994515 -0.0556439 0.0885667
    outer loop
      vertex -15.2694 -1.57031 6.76959
      vertex -15.6371 -12.55 4
      vertex -15.3638 -7.66604 4
    endloop
  endfacet
  facet normal -0.108914 0.830895 0.545666
    outer loop
      vertex -8.16841 -11.2636 3.53195
      vertex -15.6371 -12.55 4
      vertex -9.63743 -14.7188 8.5
    endloop
  endfacet
  facet normal 0 -0.413655 0.910434
    outer loop
      vertex -15.2694 -1.57031 6.76959
      vertex -15.3638 -7.66604 4
      vertex -12.5146 -7.66604 4
    endloop
  endfacet
  facet normal -0.151636 -0.464857 0.872304
    outer loop
      vertex -10.9488 -1.57031 7.52066
      vertex -15.2694 -1.57031 6.76959
      vertex -12.5146 -7.66604 4
    endloop
  endfacet
  facet normal -0.957682 0.0876673 0.274153
    outer loop
      vertex -10.9488 -1.57031 7.52066
      vertex -12.5146 -7.66604 4
      vertex -10.9567 -7.66604 9.44236
    endloop
  endfacet
  facet normal -0.380812 -0.918204 0.109014
    outer loop
      vertex -10.9567 -7.66604 9.44236
      vertex -12.5146 -7.66604 4
      vertex -6.98466 -9.42526 8.5
    endloop
  endfacet
  facet normal -0.365694 -0.926647 0.0871351
    outer loop
      vertex -6.98466 -9.42526 8.5
      vertex -12.5146 -7.66604 4
      vertex -8.16841 -9.42526 3.53195
    endloop
  endfacet
  facet normal -0.386113 -0.882221 -0.26945
    outer loop
      vertex -8.16841 -9.42526 3.53195
      vertex -12.5146 -7.66604 4
      vertex -5.70362 -9.42526 0
    endloop
  endfacet
  facet normal -0.538701 -0.401321 -0.740772
    outer loop
      vertex -5.70362 -9.42526 0
      vertex -12.5146 -7.66604 4
      vertex -9.78472 -3.94712 0
    endloop
  endfacet
  facet normal -0.886677 0.205187 -0.414369
    outer loop
      vertex -9.78472 -3.94712 0
      vertex -12.5146 -7.66604 4
      vertex -6.41346 10.6212 0
    endloop
  endfacet
  facet normal -0.909804 0.227628 -0.347047
    outer loop
      vertex -6.41346 10.6212 0
      vertex -12.5146 -7.66604 4
      vertex -7.93927 10.6212 4
    endloop
  endfacet
  facet normal -0.772689 0.344677 0.533057
    outer loop
      vertex -7.93927 10.6212 4
      vertex -10.9488 -1.57031 7.52066
      vertex -8.67386 0.557543 9.44236
    endloop
  endfacet
  facet normal -0.484477 0.350995 0.801302
    outer loop
      vertex -7.93927 10.6212 4
      vertex -11.3133 5.96397 4
      vertex -10.9488 -1.57031 7.52066
    endloop
  endfacet
  facet normal -0.866553 0.373929 -0.330549
    outer loop
      vertex -6.41346 10.6212 0
      vertex -7.93927 10.6212 4
      vertex -4.36676 15.3642 0
    endloop
  endfacet
  facet normal -0.859479 0.460848 -0.221165
    outer loop
      vertex -4.36676 15.3642 0
      vertex -7.93927 10.6212 4
      vertex -5.67748 14.8394 4
    endloop
  endfacet
  facet normal -0.656989 0.352274 0.666534
    outer loop
      vertex -5.67748 14.8394 4
      vertex -7.93927 10.6212 4
      vertex -5.67748 6.325 8.5
    endloop
  endfacet
  facet normal -0.586402 0.418021 0.693824
    outer loop
      vertex -7.93927 10.6212 4
      vertex -8.67386 0.557543 9.44236
      vertex -5.67748 6.325 8.5
    endloop
  endfacet
  facet normal -0.156058 0.411952 0.897743
    outer loop
      vertex -11.3133 5.96397 4
      vertex -15.2694 -1.57031 6.76959
      vertex -10.9488 -1.57031 7.52066
    endloop
  endfacet
  facet normal -0.328135 0.472896 0.817739
    outer loop
      vertex -11.3133 5.96397 4
      vertex -18.0631 1.28041 4
      vertex -15.2694 -1.57031 6.76959
    endloop
  endfacet
  facet normal -0.779388 0.598387 0.185707
    outer loop
      vertex -8.16841 -11.2636 3.53195
      vertex -9.63743 -14.7188 8.5
      vertex -6.98466 -11.2636 8.5
    endloop
  endfacet
  facet normal -0.567531 0.435731 0.698604
    outer loop
      vertex -6.98466 -11.2636 8.5
      vertex -9.63743 -14.7188 8.5
      vertex -7.52791 -14.5013 10.0781
    endloop
  endfacet
  facet normal 0 -0.990636 0.136532
    outer loop
      vertex -7.52791 -14.5013 10.0781
      vertex -9.63743 -14.7188 8.5
      vertex 0 -14.7188 8.5
    endloop
  endfacet
  facet normal 0 -0.990636 0.136532
    outer loop
      vertex 0 -14.5013 10.0781
      vertex -7.52791 -14.5013 10.0781
      vertex 9.63743 -14.7188 8.5
    endloop
  endfacet
  facet normal 0 -0.990636 0.136532
    outer loop
      vertex 9.63743 -14.7188 8.5
      vertex -7.52791 -14.5013 10.0781
      vertex 0 -14.7188 8.5
    endloop
  endfacet
  facet normal 0 -0.990636 0.136532
    outer loop
      vertex 7.52791 -14.5013 10.0781
      vertex 0 -14.5013 10.0781
      vertex 9.63743 -14.7188 8.5
    endloop
  endfacet
  facet normal 0 0.0937752 0.995593
    outer loop
      vertex 0 -14.7188 8.5
      vertex -9.63743 -14.7188 8.5
      vertex -4.52602 -17.8296 8.793
    endloop
  endfacet
  facet normal -0.0942136 -0.0612128 0.993668
    outer loop
      vertex -4.52602 -17.8296 8.793
      vertex -9.63743 -14.7188 8.5
      vertex -5.59518 -20.9403 8.5
    endloop
  endfacet
  facet normal -0.659298 -0.428361 0.617926
    outer loop
      vertex -5.59518 -20.9403 8.5
      vertex -9.63743 -14.7188 8.5
      vertex -8.24822 -19.4724 6.6869
    endloop
  endfacet
  facet normal -0.53076 -0.842204 0.0947984
    outer loop
      vertex -5.59518 -20.9403 8.5
      vertex -8.24822 -19.4724 6.6869
      vertex -6.48252 -20.9403 3.53195
    endloop
  endfacet
  facet normal -0.797849 0.585773 0.142503
    outer loop
      vertex -6.48252 -20.9403 3.53195
      vertex -6.96552 -22.8068 8.5
      vertex -5.59518 -20.9403 8.5
    endloop
  endfacet
  facet normal -0.878272 0.469428 0.0909739
    outer loop
      vertex -6.48252 -20.9403 3.53195
      vertex -8.14519 -24.0511 3.53195
      vertex -6.96552 -22.8068 8.5
    endloop
  endfacet
  facet normal -0.805071 0.430302 -0.40829
    outer loop
      vertex -5.6889 -22.8068 0
      vertex -8.14519 -24.0511 3.53195
      vertex -6.48252 -20.9403 3.53195
    endloop
  endfacet
  facet normal -0.792423 0.447477 -0.414524
    outer loop
      vertex -5.6889 -22.8068 0
      vertex -6.48252 -20.9403 3.53195
      vertex -4.63493 -20.9403 0
    endloop
  endfacet
  facet normal -0.810209 -0.404884 -0.423828
    outer loop
      vertex -6.48252 -20.9403 3.53195
      vertex -7.74397 -14.7188 0
      vertex -4.63493 -20.9403 0
    endloop
  endfacet
  facet normal -0.983955 -0.171426 0.0494579
    outer loop
      vertex -6.48252 -20.9403 3.53195
      vertex -8.16841 -11.2636 3.53195
      vertex -7.74397 -14.7188 0
    endloop
  endfacet
  facet normal -0.73807 0.435844 -0.515066
    outer loop
      vertex -7.74397 -14.7188 0
      vertex -8.16841 -11.2636 3.53195
      vertex -5.70362 -11.2636 0
    endloop
  endfacet
  facet normal -0.820057 0 -0.572281
    outer loop
      vertex -8.16841 -11.2636 3.53195
      vertex -8.16841 -9.42526 3.53195
      vertex -5.70362 -11.2636 0
    endloop
  endfacet
  facet normal -0.820057 0 -0.572281
    outer loop
      vertex -5.70362 -11.2636 0
      vertex -8.16841 -9.42526 3.53195
      vertex -5.70362 -9.42526 0
    endloop
  endfacet
  facet normal -0.972767 0 0.231784
    outer loop
      vertex -8.16841 -11.2636 3.53195
      vertex -6.98466 -11.2636 8.5
      vertex -8.16841 -9.42526 3.53195
    endloop
  endfacet
  facet normal -0.972767 0 0.231784
    outer loop
      vertex -8.16841 -9.42526 3.53195
      vertex -6.98466 -11.2636 8.5
      vertex -6.98466 -9.42526 8.5
    endloop
  endfacet
  facet normal -0.736173 0.204355 0.645204
    outer loop
      vertex -10.9488 -1.57031 7.52066
      vertex -10.9567 -7.66604 9.44236
      vertex -8.67386 0.557543 9.44236
    endloop
  endfacet
  facet normal -0.535664 0.148696 0.831236
    outer loop
      vertex -8.67386 0.557543 9.44236
      vertex -10.9567 -7.66604 9.44236
      vertex -8.50782 -7.66604 11.0204
    endloop
  endfacet
  facet normal -0.277881 -0.858393 0.431211
    outer loop
      vertex -8.50782 -7.66604 11.0204
      vertex -10.9567 -7.66604 9.44236
      vertex -6.98466 -9.42526 8.5
    endloop
  endfacet
  facet normal -0.392525 -0.848468 0.355001
    outer loop
      vertex -5.55744 -9.42526 10.0781
      vertex -8.50782 -7.66604 11.0204
      vertex -6.98466 -9.42526 8.5
    endloop
  endfacet
  facet normal -0.741669 0 0.670767
    outer loop
      vertex -6.98466 -11.2636 8.5
      vertex -5.55744 -11.2636 10.0781
      vertex -6.98466 -9.42526 8.5
    endloop
  endfacet
  facet normal -0.741669 0 0.670767
    outer loop
      vertex -6.98466 -9.42526 8.5
      vertex -5.55744 -11.2636 10.0781
      vertex -5.55744 -9.42526 10.0781
    endloop
  endfacet
  facet normal 0 0 -1
    outer loop
      vertex -9.78472 -3.94712 0
      vertex -6.41346 10.6212 0
      vertex -5.70362 -9.42526 0
    endloop
  endfacet
  facet normal 0 0 -1
    outer loop
      vertex -5.70362 -9.42526 0
      vertex -6.41346 10.6212 0
      vertex -4.36676 15.3642 0
    endloop
  endfacet
  facet normal 0 0 -1
    outer loop
      vertex -1.48788 5.92126 0
      vertex -4.36676 15.3642 0
      vertex 4.36676 15.3642 0
    endloop
  endfacet
  facet normal 0 0 -1
    outer loop
      vertex 1.63183 5.63217 0
      vertex 4.36676 15.3642 0
      vertex 6.41346 10.6212 0
    endloop
  endfacet
  facet normal 0 0 -1
    outer loop
      vertex 1.63183 -4.36783 0
      vertex 6.41346 10.6212 0
      vertex 9.78472 -3.94712 0
    endloop
  endfacet
  facet normal 0 0 -1
    outer loop
      vertex -5.70362 -9.42526 0
      vertex 9.78472 -3.94712 0
      vertex 5.70362 -9.42526 0
    endloop
  endfacet
  facet normal 0 0 -1
    outer loop
      vertex -5.70362 -9.42526 0
      vertex 5.70362 -9.42526 0
      vertex 5.70362 -11.2636 0
    endloop
  endfacet
  facet normal 0 0 -1
    outer loop
      vertex 5.70362 -11.2636 0
      vertex 7.74397 -14.7188 0
      vertex -5.70362 -9.42526 0
    endloop
  endfacet
  facet normal 0 0 -1
    outer loop
      vertex -5.70362 -9.42526 0
      vertex 7.74397 -14.7188 0
      vertex 4.63493 -20.9403 0
    endloop
  endfacet
  facet normal 0 0 -1
    outer loop
      vertex -5.70362 -9.42526 0
      vertex 4.63493 -20.9403 0
      vertex 5.6889 -22.8068 0
    endloop
  endfacet
  facet normal 0 0 -1
    outer loop
      vertex -5.70362 -9.42526 0
      vertex 5.6889 -22.8068 0
      vertex 0 -24.0511 0
    endloop
  endfacet
  facet normal 0 0 -1
    outer loop
      vertex 1.29327 -6.17897 0
      vertex 9.78472 -3.94712 0
      vertex 0.780042 -6.56654 0
    endloop
  endfacet
  facet normal 0 0 -1
    outer loop
      vertex -5.70362 -11.2636 0
      vertex -4.63493 -20.9403 0
      vertex -7.74397 -14.7188 0
    endloop
  endfacet
  facet normal 0 0 -1
    outer loop
      vertex 0 -24.0511 0
      vertex -5.6889 -22.8068 0
      vertex -4.63493 -20.9403 0
    endloop
  endfacet
  facet normal 0 0 -1
    outer loop
      vertex -5.70362 -11.2636 0
      vertex 0 -24.0511 0
      vertex -4.63493 -20.9403 0
    endloop
  endfacet
  facet normal 0 0 -1
    outer loop
      vertex -5.70362 -9.42526 0
      vertex 0 -24.0511 0
      vertex -5.70362 -11.2636 0
    endloop
  endfacet
  facet normal 0 0 -1
    outer loop
      vertex -0.47891 3.31681 0
      vertex -5.70362 -9.42526 0
      vertex -1.05461 3.60347 0
    endloop
  endfacet
  facet normal 0 0 -1
    outer loop
      vertex -5.70362 -9.42526 0
      vertex -1.7202 -4.67844 0
      vertex -1.7202 -5.32156 0
    endloop
  endfacet
  facet normal 0 0 -1
    outer loop
      vertex -5.70362 -9.42526 0
      vertex -1.7202 -5.32156 0
      vertex -1.48788 -5.92126 0
    endloop
  endfacet
  facet normal 0 0 -1
    outer loop
      vertex -5.70362 -9.42526 0
      vertex -1.48788 -5.92126 0
      vertex -1.05461 -6.39653 0
    endloop
  endfacet
  facet normal 0 0 -1
    outer loop
      vertex -5.70362 -9.42526 0
      vertex -1.05461 -6.39653 0
      vertex -0.47891 -6.68319 0
    endloop
  endfacet
  facet normal 0 0 -1
    outer loop
      vertex -5.70362 -9.42526 0
      vertex -0.47891 -6.68319 0
      vertex 0.16147 -6.74253 0
    endloop
  endfacet
  facet normal 0 0 -1
    outer loop
      vertex -5.70362 -9.42526 0
      vertex 0.16147 -6.74253 0
      vertex 0.780042 -6.56654 0
    endloop
  endfacet
  facet normal 0 0 -1
    outer loop
      vertex -5.70362 -9.42526 0
      vertex 0.780042 -6.56654 0
      vertex 9.78472 -3.94712 0
    endloop
  endfacet
  facet normal 0 0 -1
    outer loop
      vertex 1.63183 -5.63217 0
      vertex 9.78472 -3.94712 0
      vertex 1.29327 -6.17897 0
    endloop
  endfacet
  facet normal 0 0 -1
    outer loop
      vertex 1.75 -5 0
      vertex 9.78472 -3.94712 0
      vertex 1.63183 -5.63217 0
    endloop
  endfacet
  facet normal 0 0 -1
    outer loop
      vertex 1.63183 -4.36783 0
      vertex 9.78472 -3.94712 0
      vertex 1.75 -5 0
    endloop
  endfacet
  facet normal 0 0 -1
    outer loop
      vertex 1.29327 -3.82103 0
      vertex 6.41346 10.6212 0
      vertex 1.63183 -4.36783 0
    endloop
  endfacet
  facet normal 0 0 -1
    outer loop
      vertex -1.48788 -4.07874 0
      vertex 6.41346 10.6212 0
      vertex -1.05461 -3.60347 0
    endloop
  endfacet
  facet normal 0 0 -1
    outer loop
      vertex 0.780042 -3.43346 0
      vertex 6.41346 10.6212 0
      vertex 1.29327 -3.82103 0
    endloop
  endfacet
  facet normal 0 0 -1
    outer loop
      vertex 0.16147 -3.25746 0
      vertex 6.41346 10.6212 0
      vertex 0.780042 -3.43346 0
    endloop
  endfacet
  facet normal 0 0 -1
    outer loop
      vertex -0.47891 -3.31681 0
      vertex 6.41346 10.6212 0
      vertex 0.16147 -3.25746 0
    endloop
  endfacet
  facet normal 0 0 -1
    outer loop
      vertex -1.05461 -3.60347 0
      vertex 6.41346 10.6212 0
      vertex -0.47891 -3.31681 0
    endloop
  endfacet
  facet normal 0 0 -1
    outer loop
      vertex 0.16147 6.74253 0
      vertex 4.36676 15.3642 0
      vertex 0.780042 6.56654 0
    endloop
  endfacet
  facet normal 0 0 -1
    outer loop
      vertex -5.70362 -9.42526 0
      vertex 6.41346 10.6212 0
      vertex -1.48788 -4.07874 0
    endloop
  endfacet
  facet normal 0 0 -1
    outer loop
      vertex -5.70362 -9.42526 0
      vertex -1.48788 -4.07874 0
      vertex -1.7202 -4.67844 0
    endloop
  endfacet
  facet normal 0 0 -1
    outer loop
      vertex -5.70362 -9.42526 0
      vertex -4.36676 15.3642 0
      vertex -1.7202 5.32156 0
    endloop
  endfacet
  facet normal 0 0 -1
    outer loop
      vertex -5.70362 -9.42526 0
      vertex -1.7202 5.32156 0
      vertex -1.7202 4.67844 0
    endloop
  endfacet
  facet normal 0 0 -1
    outer loop
      vertex -5.70362 -9.42526 0
      vertex -1.7202 4.67844 0
      vertex -1.48788 4.07874 0
    endloop
  endfacet
  facet normal 0 0 -1
    outer loop
      vertex -5.70362 -9.42526 0
      vertex -1.48788 4.07874 0
      vertex -1.05461 3.60347 0
    endloop
  endfacet
  facet normal 0 0 -1
    outer loop
      vertex 1.75 5 0
      vertex 6.41346 10.6212 0
      vertex 1.63183 4.36783 0
    endloop
  endfacet
  facet normal 0 0 -1
    outer loop
      vertex -5.70362 -9.42526 0
      vertex -0.47891 3.31681 0
      vertex 0.16147 3.25746 0
    endloop
  endfacet
  facet normal 0 0 -1
    outer loop
      vertex -5.70362 -9.42526 0
      vertex 0.16147 3.25746 0
      vertex 0.780042 3.43346 0
    endloop
  endfacet
  facet normal 0 0 -1
    outer loop
      vertex -5.70362 -9.42526 0
      vertex 0.780042 3.43346 0
      vertex 1.29327 3.82103 0
    endloop
  endfacet
  facet normal 0 0 -1
    outer loop
      vertex -5.70362 -9.42526 0
      vertex 1.29327 3.82103 0
      vertex 6.41346 10.6212 0
    endloop
  endfacet
  facet normal 0 0 -1
    outer loop
      vertex 1.29327 3.82103 0
      vertex 1.63183 4.36783 0
      vertex 6.41346 10.6212 0
    endloop
  endfacet
  facet normal 0 0 -1
    outer loop
      vertex 1.63183 5.63217 0
      vertex 6.41346 10.6212 0
      vertex 1.75 5 0
    endloop
  endfacet
  facet normal 0 0 -1
    outer loop
      vertex 1.29327 6.17897 0
      vertex 4.36676 15.3642 0
      vertex 1.63183 5.63217 0
    endloop
  endfacet
  facet normal 0 0 -1
    outer loop
      vertex 0.780042 6.56654 0
      vertex 4.36676 15.3642 0
      vertex 1.29327 6.17897 0
    endloop
  endfacet
  facet normal 0 0 -1
    outer loop
      vertex -0.47891 6.68319 0
      vertex 4.36676 15.3642 0
      vertex 0.16147 6.74253 0
    endloop
  endfacet
  facet normal 0 0 -1
    outer loop
      vertex -1.05461 6.39653 0
      vertex 4.36676 15.3642 0
      vertex -0.47891 6.68319 0
    endloop
  endfacet
  facet normal 0 0 -1
    outer loop
      vertex -1.48788 5.92126 0
      vertex 4.36676 15.3642 0
      vertex -1.05461 6.39653 0
    endloop
  endfacet
  facet normal 0 0 -1
    outer loop
      vertex -1.7202 5.32156 0
      vertex -4.36676 15.3642 0
      vertex -1.48788 5.92126 0
    endloop
  endfacet
  facet normal -0.221654 0.268333 0.937479
    outer loop
      vertex -5.67748 6.325 8.5
      vertex -8.67386 0.557543 9.44236
      vertex -2.58595 3.36537 10.0781
    endloop
  endfacet
  facet normal -0.408048 0.775737 0.481383
    outer loop
      vertex -2.58595 3.36537 10.0781
      vertex -8.67386 0.557543 9.44236
      vertex -6.81217 0.557543 11.0204
    endloop
  endfacet
  facet normal -0.640939 0.132157 0.756129
    outer loop
      vertex -6.81217 0.557543 11.0204
      vertex -8.67386 0.557543 9.44236
      vertex -8.50782 -7.66604 11.0204
    endloop
  endfacet
  facet normal 0 0.968737 -0.24809
    outer loop
      vertex 4.36676 15.3642 0
      vertex -4.36676 15.3642 0
      vertex 0 16.3886 4
    endloop
  endfacet
  facet normal -0.263034 0.963945 0.0402889
    outer loop
      vertex -4.36676 15.3642 0
      vertex -5.67748 14.8394 4
      vertex 0 16.3886 4
    endloop
  endfacet
  facet normal -0.0432232 0.158401 0.986428
    outer loop
      vertex 0 16.3886 4
      vertex -5.67748 14.8394 4
      vertex 0 7.12224 5.488
    endloop
  endfacet
  facet normal 0.374126 0.433335 0.819909
    outer loop
      vertex -5.67748 14.8394 4
      vertex -5.67748 6.325 8.5
      vertex 0 7.12224 5.488
    endloop
  endfacet
  facet normal 0.170984 0.823873 0.540368
    outer loop
      vertex 0 7.12224 5.488
      vertex -5.67748 6.325 8.5
      vertex 0 5.14671 8.5
    endloop
  endfacet
  facet normal 0.116004 0.558956 0.821043
    outer loop
      vertex 0 5.14671 8.5
      vertex -5.67748 6.325 8.5
      vertex -2.58595 3.36537 10.0781
    endloop
  endfacet
  facet normal -0.675994 0.411411 0.61137
    outer loop
      vertex -6.98466 -11.2636 8.5
      vertex -7.52791 -14.5013 10.0781
      vertex -5.55744 -11.2636 10.0781
    endloop
  endfacet
  facet normal 0 -0.208872 0.977943
    outer loop
      vertex -4.84036 -13.4221 10.3086
      vertex -7.52791 -14.5013 10.0781
      vertex 0 -14.5013 10.0781
    endloop
  endfacet
  facet normal -0.11252 0.0684798 0.991287
    outer loop
      vertex -5.55744 -11.2636 10.0781
      vertex -7.52791 -14.5013 10.0781
      vertex -4.84036 -13.4221 10.3086
    endloop
  endfacet
  facet normal 0 -0.208872 0.977943
    outer loop
      vertex 4.84036 -13.4221 10.3086
      vertex 0 -14.5013 10.0781
      vertex 7.52791 -14.5013 10.0781
    endloop
  endfacet
  facet normal 0.0762562 0.130892 0.988459
    outer loop
      vertex 0 -14.5013 10.0781
      vertex -5.55744 -11.2636 10.0781
      vertex -4.84036 -13.4221 10.3086
    endloop
  endfacet
  facet normal -0.0951141 -0.163262 0.981987
    outer loop
      vertex 0 -5.69189 11.5427
      vertex -5.55744 -11.2636 10.0781
      vertex 0 -14.5013 10.0781
    endloop
  endfacet
  facet normal 0.0951141 -0.163262 0.981987
    outer loop
      vertex 0 -5.69189 11.5427
      vertex 0 -14.5013 10.0781
      vertex 5.55744 -11.2636 10.0781
    endloop
  endfacet
  facet normal -0.0762562 0.130892 0.988459
    outer loop
      vertex 5.55744 -11.2636 10.0781
      vertex 0 -14.5013 10.0781
      vertex 4.84036 -13.4221 10.3086
    endloop
  endfacet
  facet normal 0.11252 0.0684798 0.991287
    outer loop
      vertex 5.55744 -11.2636 10.0781
      vertex 4.84036 -13.4221 10.3086
      vertex 7.52791 -14.5013 10.0781
    endloop
  endfacet
  facet normal 0.675994 0.411411 0.61137
    outer loop
      vertex 6.98466 -11.2636 8.5
      vertex 5.55744 -11.2636 10.0781
      vertex 7.52791 -14.5013 10.0781
    endloop
  endfacet
  facet normal 0.567531 0.435731 0.698604
    outer loop
      vertex 9.63743 -14.7188 8.5
      vertex 6.98466 -11.2636 8.5
      vertex 7.52791 -14.5013 10.0781
    endloop
  endfacet
  facet normal 0.0916192 0.843776 0.528817
    outer loop
      vertex 15.6371 -12.55 4
      vertex 9.63743 -14.7188 8.5
      vertex 16.6287 -14.966 7.68311
    endloop
  endfacet
  facet normal 0.094191 -0.3787 0.920714
    outer loop
      vertex 9.63743 -14.7188 8.5
      vertex 8.24822 -19.4724 6.6869
      vertex 16.6287 -14.966 7.68311
    endloop
  endfacet
  facet normal 0.659298 -0.428361 0.617926
    outer loop
      vertex 9.63743 -14.7188 8.5
      vertex 5.59518 -20.9403 8.5
      vertex 8.24822 -19.4724 6.6869
    endloop
  endfacet
  facet normal 0.0942136 -0.0612128 0.993668
    outer loop
      vertex 9.63743 -14.7188 8.5
      vertex 4.52602 -17.8296 8.793
      vertex 5.59518 -20.9403 8.5
    endloop
  endfacet
  facet normal 0 0.0937752 0.995593
    outer loop
      vertex 9.63743 -14.7188 8.5
      vertex 0 -14.7188 8.5
      vertex 4.52602 -17.8296 8.793
    endloop
  endfacet
  facet normal 0.779388 0.598387 0.185707
    outer loop
      vertex 8.16841 -11.2636 3.53195
      vertex 6.98466 -11.2636 8.5
      vertex 9.63743 -14.7188 8.5
    endloop
  endfacet
  facet normal 0.108914 0.830895 0.545666
    outer loop
      vertex 15.6371 -12.55 4
      vertex 8.16841 -11.2636 3.53195
      vertex 9.63743 -14.7188 8.5
    endloop
  endfacet
  facet normal -0.064602 0 0.997911
    outer loop
      vertex 0 -14.7188 8.5
      vertex 0 -20.9403 8.5
      vertex 4.52602 -17.8296 8.793
    endloop
  endfacet
  facet normal 0.064602 0 0.997911
    outer loop
      vertex 0 -14.7188 8.5
      vertex -4.52602 -17.8296 8.793
      vertex 0 -20.9403 8.5
    endloop
  endfacet
  facet normal 0 -0.0937754 0.995593
    outer loop
      vertex -4.52602 -17.8296 8.793
      vertex -5.59518 -20.9403 8.5
      vertex 0 -20.9403 8.5
    endloop
  endfacet
  facet normal 0 0.181131 0.983459
    outer loop
      vertex 0 -20.9403 8.5
      vertex -5.59518 -20.9403 8.5
      vertex -1.38648 -21.9772 8.69098
    endloop
  endfacet
  facet normal -0.0803653 -0.14455 0.986229
    outer loop
      vertex -1.38648 -21.9772 8.69098
      vertex -5.59518 -20.9403 8.5
      vertex 0 -24.0511 8.5
    endloop
  endfacet
  facet normal 0 0 1
    outer loop
      vertex -5.59518 -20.9403 8.5
      vertex -6.96552 -22.8068 8.5
      vertex 0 -24.0511 8.5
    endloop
  endfacet
  facet normal -0.16897 -0.945888 0.277029
    outer loop
      vertex -6.96552 -22.8068 8.5
      vertex -8.14519 -24.0511 3.53195
      vertex 0 -24.0511 8.5
    endloop
  endfacet
  facet normal 0 -1 0
    outer loop
      vertex 0 -24.0511 8.5
      vertex -8.14519 -24.0511 3.53195
      vertex 0 -24.0511 0
    endloop
  endfacet
  facet normal 0 -1 0
    outer loop
      vertex 8.14519 -24.0511 3.53195
      vertex 0 -24.0511 8.5
      vertex 0 -24.0511 0
    endloop
  endfacet
  facet normal -0.191666 -0.876294 -0.44201
    outer loop
      vertex 0 -24.0511 0
      vertex -8.14519 -24.0511 3.53195
      vertex -5.6889 -22.8068 0
    endloop
  endfacet
  facet normal 0.249826 -0.0515123 0.96692
    outer loop
      vertex -6.81217 0.557543 11.0204
      vertex -8.50782 -7.66604 11.0204
      vertex -2.58595 3.36537 10.0781
    endloop
  endfacet
  facet normal 0.269582 -0.0626287 0.960939
    outer loop
      vertex -2.58595 3.36537 10.0781
      vertex -8.50782 -7.66604 11.0204
      vertex -5.55744 -9.42526 10.0781
    endloop
  endfacet
  facet normal -0.297371 0.0690846 0.952259
    outer loop
      vertex -2.58595 3.36537 10.0781
      vertex -5.55744 -9.42526 10.0781
      vertex 0 -5.69189 11.5427
    endloop
  endfacet
  facet normal -0.254842 0 0.966983
    outer loop
      vertex -5.55744 -9.42526 10.0781
      vertex -5.55744 -11.2636 10.0781
      vertex 0 -5.69189 11.5427
    endloop
  endfacet
  facet normal 0.191666 -0.876294 -0.44201
    outer loop
      vertex 8.14519 -24.0511 3.53195
      vertex 0 -24.0511 0
      vertex 5.6889 -22.8068 0
    endloop
  endfacet
  facet normal 0.792423 0.447477 -0.414524
    outer loop
      vertex 5.6889 -22.8068 0
      vertex 4.63493 -20.9403 0
      vertex 6.48252 -20.9403 3.53195
    endloop
  endfacet
  facet normal 0.805071 0.430302 -0.40829
    outer loop
      vertex 8.14519 -24.0511 3.53195
      vertex 5.6889 -22.8068 0
      vertex 6.48252 -20.9403 3.53195
    endloop
  endfacet
  facet normal 0.810209 -0.404884 -0.423828
    outer loop
      vertex 6.48252 -20.9403 3.53195
      vertex 4.63493 -20.9403 0
      vertex 7.74397 -14.7188 0
    endloop
  endfacet
  facet normal 0.983955 -0.171426 0.0494579
    outer loop
      vertex 8.16841 -11.2636 3.53195
      vertex 6.48252 -20.9403 3.53195
      vertex 7.74397 -14.7188 0
    endloop
  endfacet
  facet normal 0.73807 0.435844 -0.515066
    outer loop
      vertex 7.74397 -14.7188 0
      vertex 5.70362 -11.2636 0
      vertex 8.16841 -11.2636 3.53195
    endloop
  endfacet
  facet normal 0.820057 0 -0.572281
    outer loop
      vertex 8.16841 -11.2636 3.53195
      vertex 5.70362 -11.2636 0
      vertex 5.70362 -9.42526 0
    endloop
  endfacet
  facet normal 0.820057 0 -0.572281
    outer loop
      vertex 8.16841 -9.42526 3.53195
      vertex 8.16841 -11.2636 3.53195
      vertex 5.70362 -9.42526 0
    endloop
  endfacet
  facet normal 0.386113 -0.882221 -0.26945
    outer loop
      vertex 8.16841 -9.42526 3.53195
      vertex 5.70362 -9.42526 0
      vertex 12.5146 -7.66604 4
    endloop
  endfacet
  facet normal 0.538701 -0.401321 -0.740772
    outer loop
      vertex 12.5146 -7.66604 4
      vertex 5.70362 -9.42526 0
      vertex 9.78472 -3.94712 0
    endloop
  endfacet
  facet normal 0.886677 0.205187 -0.414369
    outer loop
      vertex 9.78472 -3.94712 0
      vertex 6.41346 10.6212 0
      vertex 12.5146 -7.66604 4
    endloop
  endfacet
  facet normal 0.909804 0.227628 -0.347047
    outer loop
      vertex 12.5146 -7.66604 4
      vertex 6.41346 10.6212 0
      vertex 7.93927 10.6212 4
    endloop
  endfacet
  facet normal 0.866553 0.373929 -0.330549
    outer loop
      vertex 6.41346 10.6212 0
      vertex 4.36676 15.3642 0
      vertex 7.93927 10.6212 4
    endloop
  endfacet
  facet normal 0.859479 0.460848 -0.221165
    outer loop
      vertex 7.93927 10.6212 4
      vertex 4.36676 15.3642 0
      vertex 5.67748 14.8394 4
    endloop
  endfacet
  facet normal 0.263034 0.963945 0.0402889
    outer loop
      vertex 4.36676 15.3642 0
      vertex 0 16.3886 4
      vertex 5.67748 14.8394 4
    endloop
  endfacet
  facet normal 0.932472 -0.361242 0
    outer loop
      vertex -1.48788 -4.07874 0
      vertex -1.48788 -4.07874 6.025
      vertex -1.7202 -4.67844 6.025
    endloop
  endfacet
  facet normal 0.932472 -0.361242 0
    outer loop
      vertex -1.7202 -4.67844 0
      vertex -1.48788 -4.07874 0
      vertex -1.7202 -4.67844 6.025
    endloop
  endfacet
  facet normal 1 0 0
    outer loop
      vertex -1.7202 -4.67844 0
      vertex -1.7202 -4.67844 6.025
      vertex -1.7202 -5.32156 6.025
    endloop
  endfacet
  facet normal 1 0 0
    outer loop
      vertex -1.7202 -5.32156 0
      vertex -1.7202 -4.67844 0
      vertex -1.7202 -5.32156 6.025
    endloop
  endfacet
  facet normal 0.739009 -0.673695 0
    outer loop
      vertex -1.05461 -3.60347 0
      vertex -1.05461 -3.60347 6.025
      vertex -1.48788 -4.07874 6.025
    endloop
  endfacet
  facet normal 0.739009 -0.673695 0
    outer loop
      vertex -1.48788 -4.07874 0
      vertex -1.05461 -3.60347 0
      vertex -1.48788 -4.07874 6.025
    endloop
  endfacet
  facet normal 0.445738 -0.895163 0
    outer loop
      vertex -0.47891 -3.31681 0
      vertex -0.47891 -3.31681 6.025
      vertex -1.05461 -3.60347 6.025
    endloop
  endfacet
  facet normal 0.445738 -0.895163 0
    outer loop
      vertex -1.05461 -3.60347 0
      vertex -0.47891 -3.31681 0
      vertex -1.05461 -3.60347 6.025
    endloop
  endfacet
  facet normal 0.0922684 -0.995734 0
    outer loop
      vertex 0.16147 -3.25746 0
      vertex 0.16147 -3.25746 6.025
      vertex -0.47891 -3.31681 6.025
    endloop
  endfacet
  facet normal 0.0922684 -0.995734 0
    outer loop
      vertex -0.47891 -3.31681 0
      vertex 0.16147 -3.25746 0
      vertex -0.47891 -3.31681 6.025
    endloop
  endfacet
  facet normal -0.273663 -0.961826 0
    outer loop
      vertex 0.780042 -3.43346 0
      vertex 0.780042 -3.43346 6.025
      vertex 0.16147 -3.25746 6.025
    endloop
  endfacet
  facet normal -0.273663 -0.961826 0
    outer loop
      vertex 0.16147 -3.25746 0
      vertex 0.780042 -3.43346 0
      vertex 0.16147 -3.25746 6.025
    endloop
  endfacet
  facet normal -0.602635 -0.798017 0
    outer loop
      vertex 1.29327 -3.82103 0
      vertex 1.29327 -3.82103 6.025
      vertex 0.780042 -3.43346 6.025
    endloop
  endfacet
  facet normal -0.602635 -0.798017 0
    outer loop
      vertex 0.780042 -3.43346 0
      vertex 1.29327 -3.82103 0
      vertex 0.780042 -3.43346 6.025
    endloop
  endfacet
  facet normal -0.850217 -0.526432 0
    outer loop
      vertex 1.63183 -4.36783 6.025
      vertex 1.29327 -3.82103 6.025
      vertex 1.63183 -4.36783 0
    endloop
  endfacet
  facet normal -0.850217 -0.526432 0
    outer loop
      vertex 1.63183 -4.36783 0
      vertex 1.29327 -3.82103 6.025
      vertex 1.29327 -3.82103 0
    endloop
  endfacet
  facet normal -0.982973 -0.18375 0
    outer loop
      vertex 1.75 -5 6.025
      vertex 1.63183 -4.36783 6.025
      vertex 1.75 -5 0
    endloop
  endfacet
  facet normal -0.982973 -0.18375 0
    outer loop
      vertex 1.75 -5 0
      vertex 1.63183 -4.36783 6.025
      vertex 1.63183 -4.36783 0
    endloop
  endfacet
  facet normal -0.982973 0.18375 0
    outer loop
      vertex 1.75 -5 6.025
      vertex 1.75 -5 0
      vertex 1.63183 -5.63217 6.025
    endloop
  endfacet
  facet normal -0.982973 0.18375 0
    outer loop
      vertex 1.63183 -5.63217 6.025
      vertex 1.75 -5 0
      vertex 1.63183 -5.63217 0
    endloop
  endfacet
  facet normal -0.850217 0.526432 0
    outer loop
      vertex 1.63183 -5.63217 6.025
      vertex 1.63183 -5.63217 0
      vertex 1.29327 -6.17897 6.025
    endloop
  endfacet
  facet normal -0.850217 0.526432 0
    outer loop
      vertex 1.29327 -6.17897 6.025
      vertex 1.63183 -5.63217 0
      vertex 1.29327 -6.17897 0
    endloop
  endfacet
  facet normal -0.602635 0.798017 0
    outer loop
      vertex 1.29327 -6.17897 6.025
      vertex 1.29327 -6.17897 0
      vertex 0.780042 -6.56654 6.025
    endloop
  endfacet
  facet normal -0.602635 0.798017 0
    outer loop
      vertex 0.780042 -6.56654 6.025
      vertex 1.29327 -6.17897 0
      vertex 0.780042 -6.56654 0
    endloop
  endfacet
  facet normal -0.273663 0.961826 0
    outer loop
      vertex 0.780042 -6.56654 6.025
      vertex 0.780042 -6.56654 0
      vertex 0.16147 -6.74253 6.025
    endloop
  endfacet
  facet normal -0.273663 0.961826 0
    outer loop
      vertex 0.16147 -6.74253 6.025
      vertex 0.780042 -6.56654 0
      vertex 0.16147 -6.74253 0
    endloop
  endfacet
  facet normal 0.0922684 0.995734 0
    outer loop
      vertex 0.16147 -6.74253 6.025
      vertex 0.16147 -6.74253 0
      vertex -0.47891 -6.68319 6.025
    endloop
  endfacet
  facet normal 0.0922684 0.995734 0
    outer loop
      vertex -0.47891 -6.68319 6.025
      vertex 0.16147 -6.74253 0
      vertex -0.47891 -6.68319 0
    endloop
  endfacet
  facet normal 0.445738 0.895163 0
    outer loop
      vertex -0.47891 -6.68319 6.025
      vertex -0.47891 -6.68319 0
      vertex -1.05461 -6.39653 6.025
    endloop
  endfacet
  facet normal 0.445738 0.895163 0
    outer loop
      vertex -1.05461 -6.39653 6.025
      vertex -0.47891 -6.68319 0
      vertex -1.05461 -6.39653 0
    endloop
  endfacet
  facet normal 0.739009 0.673695 0
    outer loop
      vertex -1.48788 -5.92126 6.025
      vertex -1.05461 -6.39653 6.025
      vertex -1.05461 -6.39653 0
    endloop
  endfacet
  facet normal 0.739009 0.673695 0
    outer loop
      vertex -1.48788 -5.92126 0
      vertex -1.48788 -5.92126 6.025
      vertex -1.05461 -6.39653 0
    endloop
  endfacet
  facet normal 0.932472 0.361242 0
    outer loop
      vertex -1.7202 -5.32156 6.025
      vertex -1.48788 -5.92126 6.025
      vertex -1.48788 -5.92126 0
    endloop
  endfacet
  facet normal 0.932472 0.361242 0
    outer loop
      vertex -1.7202 -5.32156 0
      vertex -1.7202 -5.32156 6.025
      vertex -1.48788 -5.92126 0
    endloop
  endfacet
  facet normal 0.932472 -0.361242 0
    outer loop
      vertex -1.48788 5.92126 0
      vertex -1.48788 5.92126 2.625
      vertex -1.7202 5.32156 2.625
    endloop
  endfacet
  facet normal 0.932472 -0.361242 0
    outer loop
      vertex -1.7202 5.32156 0
      vertex -1.48788 5.92126 0
      vertex -1.7202 5.32156 2.625
    endloop
  endfacet
  facet normal 1 0 0
    outer loop
      vertex -1.7202 5.32156 0
      vertex -1.7202 5.32156 2.625
      vertex -1.7202 4.67844 2.625
    endloop
  endfacet
  facet normal 1 0 0
    outer loop
      vertex -1.7202 4.67844 0
      vertex -1.7202 5.32156 0
      vertex -1.7202 4.67844 2.625
    endloop
  endfacet
  facet normal 0.739009 -0.673695 0
    outer loop
      vertex -1.05461 6.39653 0
      vertex -1.05461 6.39653 2.625
      vertex -1.48788 5.92126 2.625
    endloop
  endfacet
  facet normal 0.739009 -0.673695 0
    outer loop
      vertex -1.48788 5.92126 0
      vertex -1.05461 6.39653 0
      vertex -1.48788 5.92126 2.625
    endloop
  endfacet
  facet normal 0.445738 -0.895163 0
    outer loop
      vertex -0.47891 6.68319 0
      vertex -0.47891 6.68319 2.625
      vertex -1.05461 6.39653 2.625
    endloop
  endfacet
  facet normal 0.445738 -0.895163 0
    outer loop
      vertex -1.05461 6.39653 0
      vertex -0.47891 6.68319 0
      vertex -1.05461 6.39653 2.625
    endloop
  endfacet
  facet normal 0.0922684 -0.995734 0
    outer loop
      vertex 0.16147 6.74253 0
      vertex 0.16147 6.74253 2.625
      vertex -0.47891 6.68319 2.625
    endloop
  endfacet
  facet normal 0.0922684 -0.995734 0
    outer loop
      vertex -0.47891 6.68319 0
      vertex 0.16147 6.74253 0
      vertex -0.47891 6.68319 2.625
    endloop
  endfacet
  facet normal -0.273663 -0.961826 0
    outer loop
      vertex 0.780042 6.56654 0
      vertex 0.780042 6.56654 2.625
      vertex 0.16147 6.74253 2.625
    endloop
  endfacet
  facet normal -0.273663 -0.961826 0
    outer loop
      vertex 0.16147 6.74253 0
      vertex 0.780042 6.56654 0
      vertex 0.16147 6.74253 2.625
    endloop
  endfacet
  facet normal -0.602635 -0.798017 0
    outer loop
      vertex 1.29327 6.17897 0
      vertex 1.29327 6.17897 2.625
      vertex 0.780042 6.56654 2.625
    endloop
  endfacet
  facet normal -0.602635 -0.798017 0
    outer loop
      vertex 0.780042 6.56654 0
      vertex 1.29327 6.17897 0
      vertex 0.780042 6.56654 2.625
    endloop
  endfacet
  facet normal -0.850217 -0.526432 0
    outer loop
      vertex 1.63183 5.63217 2.625
      vertex 1.29327 6.17897 2.625
      vertex 1.63183 5.63217 0
    endloop
  endfacet
  facet normal -0.850217 -0.526432 0
    outer loop
      vertex 1.63183 5.63217 0
      vertex 1.29327 6.17897 2.625
      vertex 1.29327 6.17897 0
    endloop
  endfacet
  facet normal -0.982973 -0.18375 0
    outer loop
      vertex 1.75 5 2.625
      vertex 1.63183 5.63217 2.625
      vertex 1.75 5 0
    endloop
  endfacet
  facet normal -0.982973 -0.18375 0
    outer loop
      vertex 1.75 5 0
      vertex 1.63183 5.63217 2.625
      vertex 1.63183 5.63217 0
    endloop
  endfacet
  facet normal -0.982973 0.18375 0
    outer loop
      vertex 1.75 5 2.625
      vertex 1.75 5 0
      vertex 1.63183 4.36783 2.625
    endloop
  endfacet
  facet normal -0.982973 0.18375 0
    outer loop
      vertex 1.63183 4.36783 2.625
      vertex 1.75 5 0
      vertex 1.63183 4.36783 0
    endloop
  endfacet
  facet normal -0.850217 0.526432 0
    outer loop
      vertex 1.63183 4.36783 2.625
      vertex 1.63183 4.36783 0
      vertex 1.29327 3.82103 2.625
    endloop
  endfacet
  facet normal -0.850217 0.526432 0
    outer loop
      vertex 1.29327 3.82103 2.625
      vertex 1.63183 4.36783 0
      vertex 1.29327 3.82103 0
    endloop
  endfacet
  facet normal -0.602635 0.798017 0
    outer loop
      vertex 1.29327 3.82103 2.625
      vertex 1.29327 3.82103 0
      vertex 0.780042 3.43346 2.625
    endloop
  endfacet
  facet normal -0.602635 0.798017 0
    outer loop
      vertex 0.780042 3.43346 2.625
      vertex 1.29327 3.82103 0
      vertex 0.780042 3.43346 0
    endloop
  endfacet
  facet normal -0.273663 0.961826 0
    outer loop
      vertex 0.780042 3.43346 2.625
      vertex 0.780042 3.43346 0
      vertex 0.16147 3.25746 2.625
    endloop
  endfacet
  facet normal -0.273663 0.961826 0
    outer loop
      vertex 0.16147 3.25746 2.625
      vertex 0.780042 3.43346 0
      vertex 0.16147 3.25746 0
    endloop
  endfacet
  facet normal 0.0922684 0.995734 0
    outer loop
      vertex 0.16147 3.25746 2.625
      vertex 0.16147 3.25746 0
      vertex -0.47891 3.31681 2.625
    endloop
  endfacet
  facet normal 0.0922684 0.995734 0
    outer loop
      vertex -0.47891 3.31681 2.625
      vertex 0.16147 3.25746 0
      vertex -0.47891 3.31681 0
    endloop
  endfacet
  facet normal 0.445738 0.895163 0
    outer loop
      vertex -0.47891 3.31681 2.625
      vertex -0.47891 3.31681 0
      vertex -1.05461 3.60347 2.625
    endloop
  endfacet
  facet normal 0.445738 0.895163 0
    outer loop
      vertex -1.05461 3.60347 2.625
      vertex -0.47891 3.31681 0
      vertex -1.05461 3.60347 0
    endloop
  endfacet
  facet normal 0.739009 0.673695 0
    outer loop
      vertex -1.48788 4.07874 2.625
      vertex -1.05461 3.60347 2.625
      vertex -1.05461 3.60347 0
    endloop
  endfacet
  facet normal 0.739009 0.673695 0
    outer loop
      vertex -1.48788 4.07874 0
      vertex -1.48788 4.07874 2.625
      vertex -1.05461 3.60347 0
    endloop
  endfacet
  facet normal 0.932472 0.361242 0
    outer loop
      vertex -1.7202 4.67844 2.625
      vertex -1.48788 4.07874 2.625
      vertex -1.48788 4.07874 0
    endloop
  endfacet
  facet normal 0.932472 0.361242 0
    outer loop
      vertex -1.7202 4.67844 0
      vertex -1.7202 4.67844 2.625
      vertex -1.48788 4.07874 0
    endloop
  endfacet
  facet normal 0 0.663111 0.748521
    outer loop
      vertex 0 5.14671 8.5
      vertex -2.58595 3.36537 10.0781
      vertex 2.58595 3.36537 10.0781
    endloop
  endfacet
  facet normal 0 0.159633 0.987176
    outer loop
      vertex 2.58595 3.36537 10.0781
      vertex -2.58595 3.36537 10.0781
      vertex 0 -5.69189 11.5427
    endloop
  endfacet
  facet normal 0.0432232 0.158401 0.986428
    outer loop
      vertex 0 16.3886 4
      vertex 0 7.12224 5.488
      vertex 5.67748 14.8394 4
    endloop
  endfacet
  facet normal -0.374126 0.433335 0.819909
    outer loop
      vertex 5.67748 14.8394 4
      vertex 0 7.12224 5.488
      vertex 5.67748 6.325 8.5
    endloop
  endfacet
  facet normal -0.170984 0.823873 0.540368
    outer loop
      vertex 0 7.12224 5.488
      vertex 0 5.14671 8.5
      vertex 5.67748 6.325 8.5
    endloop
  endfacet
  facet normal -0.116004 0.558956 0.821043
    outer loop
      vertex 5.67748 6.325 8.5
      vertex 0 5.14671 8.5
      vertex 2.58595 3.36537 10.0781
    endloop
  endfacet
  facet normal 0.297371 0.0690846 0.952259
    outer loop
      vertex 2.58595 3.36537 10.0781
      vertex 0 -5.69189 11.5427
      vertex 5.55744 -9.42526 10.0781
    endloop
  endfacet
  facet normal 0.254842 0 0.966983
    outer loop
      vertex 5.55744 -9.42526 10.0781
      vertex 0 -5.69189 11.5427
      vertex 5.55744 -11.2636 10.0781
    endloop
  endfacet
  facet normal 0.741669 0 0.670767
    outer loop
      vertex 5.55744 -9.42526 10.0781
      vertex 5.55744 -11.2636 10.0781
      vertex 6.98466 -11.2636 8.5
    endloop
  endfacet
  facet normal 0.741669 0 0.670767
    outer loop
      vertex 6.98466 -9.42526 8.5
      vertex 5.55744 -9.42526 10.0781
      vertex 6.98466 -11.2636 8.5
    endloop
  endfacet
  facet normal 0.972767 0 0.231784
    outer loop
      vertex 6.98466 -9.42526 8.5
      vertex 6.98466 -11.2636 8.5
      vertex 8.16841 -11.2636 3.53195
    endloop
  endfacet
  facet normal 0.972767 0 0.231784
    outer loop
      vertex 8.16841 -9.42526 3.53195
      vertex 6.98466 -9.42526 8.5
      vertex 8.16841 -11.2636 3.53195
    endloop
  endfacet
  facet normal -0.994515 -0.0556439 0.0885667
    outer loop
      vertex 15.6371 -12.55 4
      vertex 15.2694 -1.57031 6.76959
      vertex 15.3638 -7.66604 4
    endloop
  endfacet
  facet normal -0.974701 -0.0848039 0.206798
    outer loop
      vertex 16.6287 -14.966 7.68311
      vertex 15.2694 -1.57031 6.76959
      vertex 15.6371 -12.55 4
    endloop
  endfacet
  facet normal 0.0606826 -0.0108405 -0.998098
    outer loop
      vertex 14.3346 -19.841 4
      vertex 8.16841 -11.2636 3.53195
      vertex 15.6371 -12.55 4
    endloop
  endfacet
  facet normal 0 0 -1
    outer loop
      vertex 7.93927 10.6212 4
      vertex 11.3133 5.96397 4
      vertex 12.5146 -7.66604 4
    endloop
  endfacet
  facet normal 0 0 -1
    outer loop
      vertex 12.5146 -7.66604 4
      vertex 11.3133 5.96397 4
      vertex 18.0631 1.28041 4
    endloop
  endfacet
  facet normal 0 0 -1
    outer loop
      vertex 12.5146 -7.66604 4
      vertex 18.0631 1.28041 4
      vertex 15.3638 -7.66604 4
    endloop
  endfacet
  facet normal 0 0 -1
    outer loop
      vertex 15.3638 -7.66604 4
      vertex 23.0147 -7.66604 4
      vertex 22.528 -12.55 4
    endloop
  endfacet
  facet normal 0 0 -1
    outer loop
      vertex 15.6371 -12.55 4
      vertex 22.528 -12.55 4
      vertex 19.4135 -19.841 4
    endloop
  endfacet
  facet normal 0 0 -1
    outer loop
      vertex 15.3638 -7.66604 4
      vertex 22.528 -12.55 4
      vertex 15.6371 -12.55 4
    endloop
  endfacet
  facet normal 0 0 -1
    outer loop
      vertex 18.0631 1.28041 4
      vertex 23.0147 -7.66604 4
      vertex 15.3638 -7.66604 4
    endloop
  endfacet
  facet normal 0 0 -1
    outer loop
      vertex 15.6371 -12.55 4
      vertex 19.4135 -19.841 4
      vertex 14.3346 -19.841 4
    endloop
  endfacet
  facet normal 0.0147219 0.0695168 0.997472
    outer loop
      vertex 21.4488 -1.57031 6.67839
      vertex 15.2694 -1.57031 6.76959
      vertex 16.6287 -14.966 7.68311
    endloop
  endfacet
  facet normal 0 0.0747937 0.997199
    outer loop
      vertex 21.4488 -1.57031 6.67839
      vertex 16.6287 -14.966 7.68311
      vertex 23.5196 -14.966 7.68311
    endloop
  endfacet
  facet normal 0 -0.358036 0.933708
    outer loop
      vertex 16.6287 -14.966 7.68311
      vertex 15.4947 -18.9233 6.16567
      vertex 20.5736 -18.9233 6.16567
    endloop
  endfacet
  facet normal 0 -0.358036 0.933708
    outer loop
      vertex 23.5196 -14.966 7.68311
      vertex 16.6287 -14.966 7.68311
      vertex 20.5736 -18.9233 6.16567
    endloop
  endfacet
  facet normal 0.0949811 -0.380031 0.920084
    outer loop
      vertex 16.6287 -14.966 7.68311
      vertex 8.24822 -19.4724 6.6869
      vertex 15.4947 -18.9233 6.16567
    endloop
  endfacet
  facet normal 0.0968331 -0.922038 0.374793
    outer loop
      vertex 8.24822 -19.4724 6.6869
      vertex 6.48252 -20.9403 3.53195
      vertex 15.4947 -18.9233 6.16567
    endloop
  endfacet
  facet normal 0.53076 -0.842204 0.0947984
    outer loop
      vertex 8.24822 -19.4724 6.6869
      vertex 5.59518 -20.9403 8.5
      vertex 6.48252 -20.9403 3.53195
    endloop
  endfacet
  facet normal 0.797849 0.585773 0.142503
    outer loop
      vertex 6.48252 -20.9403 3.53195
      vertex 5.59518 -20.9403 8.5
      vertex 6.96552 -22.8068 8.5
    endloop
  endfacet
  facet normal 0 0 1
    outer loop
      vertex 5.59518 -20.9403 8.5
      vertex 0 -24.0511 8.5
      vertex 6.96552 -22.8068 8.5
    endloop
  endfacet
  facet normal 0.0803653 -0.14455 0.986229
    outer loop
      vertex 1.38648 -21.9772 8.69098
      vertex 0 -24.0511 8.5
      vertex 5.59518 -20.9403 8.5
    endloop
  endfacet
  facet normal 0 0.181131 0.983459
    outer loop
      vertex 5.59518 -20.9403 8.5
      vertex 0 -20.9403 8.5
      vertex 1.38648 -21.9772 8.69098
    endloop
  endfacet
  facet normal 0 -0.0937754 0.995593
    outer loop
      vertex 4.52602 -17.8296 8.793
      vertex 0 -20.9403 8.5
      vertex 5.59518 -20.9403 8.5
    endloop
  endfacet
  facet normal 0.0609819 -0.0106244 -0.998082
    outer loop
      vertex 14.3346 -19.841 4
      vertex 6.48252 -20.9403 3.53195
      vertex 8.16841 -11.2636 3.53195
    endloop
  endfacet
  facet normal -0.136454 0 0.990646
    outer loop
      vertex 0 -20.9403 8.5
      vertex 0 -24.0511 8.5
      vertex 1.38648 -21.9772 8.69098
    endloop
  endfacet
  facet normal 0.136454 0 0.990646
    outer loop
      vertex 0 -20.9403 8.5
      vertex -1.38648 -21.9772 8.69098
      vertex 0 -24.0511 8.5
    endloop
  endfacet
  facet normal 0.16897 -0.945888 0.277029
    outer loop
      vertex 6.96552 -22.8068 8.5
      vertex 0 -24.0511 8.5
      vertex 8.14519 -24.0511 3.53195
    endloop
  endfacet
  facet normal 0.878272 0.469428 0.0909739
    outer loop
      vertex 8.14519 -24.0511 3.53195
      vertex 6.48252 -20.9403 3.53195
      vertex 6.96552 -22.8068 8.5
    endloop
  endfacet
  facet normal 0.110818 -0.935006 0.336872
    outer loop
      vertex 15.4947 -18.9233 6.16567
      vertex 6.48252 -20.9403 3.53195
      vertex 14.3346 -19.841 4
    endloop
  endfacet
  facet normal 0.365694 -0.926647 0.0871351
    outer loop
      vertex 12.5146 -7.66604 4
      vertex 6.98466 -9.42526 8.5
      vertex 8.16841 -9.42526 3.53195
    endloop
  endfacet
  facet normal 0.380812 -0.918204 0.109014
    outer loop
      vertex 10.9567 -7.66604 9.44236
      vertex 6.98466 -9.42526 8.5
      vertex 12.5146 -7.66604 4
    endloop
  endfacet
  facet normal 0.957682 0.0876673 0.274153
    outer loop
      vertex 12.5146 -7.66604 4
      vertex 10.9488 -1.57031 7.52066
      vertex 10.9567 -7.66604 9.44236
    endloop
  endfacet
  facet normal 0.151636 -0.464857 0.872304
    outer loop
      vertex 15.2694 -1.57031 6.76959
      vertex 10.9488 -1.57031 7.52066
      vertex 12.5146 -7.66604 4
    endloop
  endfacet
  facet normal 0 -0.413655 0.910434
    outer loop
      vertex 15.2694 -1.57031 6.76959
      vertex 12.5146 -7.66604 4
      vertex 15.3638 -7.66604 4
    endloop
  endfacet
  facet normal 0.772689 0.344677 0.533057
    outer loop
      vertex 10.9488 -1.57031 7.52066
      vertex 7.93927 10.6212 4
      vertex 8.67386 0.557543 9.44236
    endloop
  endfacet
  facet normal 0.586402 0.418021 0.693824
    outer loop
      vertex 7.93927 10.6212 4
      vertex 5.67748 6.325 8.5
      vertex 8.67386 0.557543 9.44236
    endloop
  endfacet
  facet normal 0.656989 0.352274 0.666534
    outer loop
      vertex 5.67748 14.8394 4
      vertex 5.67748 6.325 8.5
      vertex 7.93927 10.6212 4
    endloop
  endfacet
  facet normal 0.484477 0.350995 0.801302
    outer loop
      vertex 11.3133 5.96397 4
      vertex 7.93927 10.6212 4
      vertex 10.9488 -1.57031 7.52066
    endloop
  endfacet
  facet normal 0 0 -1
    outer loop
      vertex -1.48788 -4.07874 6.025
      vertex -1.05461 -3.60347 6.025
      vertex -1.7202 -4.67844 6.025
    endloop
  endfacet
  facet normal 0 0 -1
    outer loop
      vertex -1.7202 -4.67844 6.025
      vertex -1.05461 -3.60347 6.025
      vertex -0.47891 -3.31681 6.025
    endloop
  endfacet
  facet normal 0 0 -1
    outer loop
      vertex -1.7202 -4.67844 6.025
      vertex -0.47891 -3.31681 6.025
      vertex 0.16147 -3.25746 6.025
    endloop
  endfacet
  facet normal 0 0 -1
    outer loop
      vertex -1.7202 -4.67844 6.025
      vertex 0.16147 -3.25746 6.025
      vertex 0.780042 -3.43346 6.025
    endloop
  endfacet
  facet normal 0 0 -1
    outer loop
      vertex -1.7202 -4.67844 6.025
      vertex 0.780042 -3.43346 6.025
      vertex 1.29327 -3.82103 6.025
    endloop
  endfacet
  facet normal 0 0 -1
    outer loop
      vertex -1.7202 -4.67844 6.025
      vertex 1.29327 -3.82103 6.025
      vertex 1.63183 -4.36783 6.025
    endloop
  endfacet
  facet normal 0 0 -1
    outer loop
      vertex -1.7202 -4.67844 6.025
      vertex 1.63183 -4.36783 6.025
      vertex 1.75 -5 6.025
    endloop
  endfacet
  facet normal 0 0 -1
    outer loop
      vertex -1.7202 -4.67844 6.025
      vertex 1.75 -5 6.025
      vertex 1.63183 -5.63217 6.025
    endloop
  endfacet
  facet normal 0 0 -1
    outer loop
      vertex -1.7202 -4.67844 6.025
      vertex 1.63183 -5.63217 6.025
      vertex 1.29327 -6.17897 6.025
    endloop
  endfacet
  facet normal 0 0 -1
    outer loop
      vertex -1.7202 -4.67844 6.025
      vertex 1.29327 -6.17897 6.025
      vertex 0.780042 -6.56654 6.025
    endloop
  endfacet
  facet normal 0 0 -1
    outer loop
      vertex -1.7202 -4.67844 6.025
      vertex 0.780042 -6.56654 6.025
      vertex 0.16147 -6.74253 6.025
    endloop
  endfacet
  facet normal 0 0 -1
    outer loop
      vertex -1.7202 -4.67844 6.025
      vertex 0.16147 -6.74253 6.025
      vertex -0.47891 -6.68319 6.025
    endloop
  endfacet
  facet normal 0 0 -1
    outer loop
      vertex -1.7202 -4.67844 6.025
      vertex -0.47891 -6.68319 6.025
      vertex -1.05461 -6.39653 6.025
    endloop
  endfacet
  facet normal 0 0 -1
    outer loop
      vertex -1.7202 -4.67844 6.025
      vertex -1.05461 -6.39653 6.025
      vertex -1.48788 -5.92126 6.025
    endloop
  endfacet
  facet normal 0 0 -1
    outer loop
      vertex -1.7202 -4.67844 6.025
      vertex -1.48788 -5.92126 6.025
      vertex -1.7202 -5.32156 6.025
    endloop
  endfacet
  facet normal 0 0 -1
    outer loop
      vertex -1.48788 5.92126 2.625
      vertex -1.05461 6.39653 2.625
      vertex -1.7202 5.32156 2.625
    endloop
  endfacet
  facet normal 0 0 -1
    outer loop
      vertex -1.7202 5.32156 2.625
      vertex -1.05461 6.39653 2.625
      vertex -0.47891 6.68319 2.625
    endloop
  endfacet
  facet normal 0 0 -1
    outer loop
      vertex -1.7202 5.32156 2.625
      vertex -0.47891 6.68319 2.625
      vertex 0.16147 6.74253 2.625
    endloop
  endfacet
  facet normal 0 0 -1
    outer loop
      vertex -1.7202 5.32156 2.625
      vertex 0.16147 6.74253 2.625
      vertex 0.780042 6.56654 2.625
    endloop
  endfacet
  facet normal 0 0 -1
    outer loop
      vertex -1.7202 5.32156 2.625
      vertex 0.780042 6.56654 2.625
      vertex 1.29327 6.17897 2.625
    endloop
  endfacet
  facet normal 0 0 -1
    outer loop
      vertex -1.7202 5.32156 2.625
      vertex 1.29327 6.17897 2.625
      vertex 1.63183 5.63217 2.625
    endloop
  endfacet
  facet normal 0 0 -1
    outer loop
      vertex -1.7202 5.32156 2.625
      vertex 1.63183 5.63217 2.625
      vertex 1.75 5 2.625
    endloop
  endfacet
  facet normal 0 0 -1
    outer loop
      vertex -1.7202 5.32156 2.625
      vertex 1.75 5 2.625
      vertex 1.63183 4.36783 2.625
    endloop
  endfacet
  facet normal 0 0 -1
    outer loop
      vertex -1.7202 5.32156 2.625
      vertex 1.63183 4.36783 2.625
      vertex 1.29327 3.82103 2.625
    endloop
  endfacet
  facet normal 0 0 -1
    outer loop
      vertex -1.7202 5.32156 2.625
      vertex 1.29327 3.82103 2.625
      vertex 0.780042 3.43346 2.625
    endloop
  endfacet
  facet normal 0 0 -1
    outer loop
      vertex -1.7202 5.32156 2.625
      vertex 0.780042 3.43346 2.625
      vertex 0.16147 3.25746 2.625
    endloop
  endfacet
  facet normal 0 0 -1
    outer loop
      vertex -1.7202 5.32156 2.625
      vertex 0.16147 3.25746 2.625
      vertex -0.47891 3.31681 2.625
    endloop
  endfacet
  facet normal 0 0 -1
    outer loop
      vertex -1.7202 5.32156 2.625
      vertex -0.47891 3.31681 2.625
      vertex -1.05461 3.60347 2.625
    endloop
  endfacet
  facet normal 0 0 -1
    outer loop
      vertex -1.7202 5.32156 2.625
      vertex -1.05461 3.60347 2.625
      vertex -1.48788 4.07874 2.625
    endloop
  endfacet
  facet normal 0 0 -1
    outer loop
      vertex -1.7202 5.32156 2.625
      vertex -1.48788 4.07874 2.625
      vertex -1.7202 4.67844 2.625
    endloop
  endfacet
  facet normal 0.221654 0.268333 0.937479
    outer loop
      vertex 5.67748 6.325 8.5
      vertex 2.58595 3.36537 10.0781
      vertex 8.67386 0.557543 9.44236
    endloop
  endfacet
  facet normal 0.408048 0.775737 0.481383
    outer loop
      vertex 8.67386 0.557543 9.44236
      vertex 2.58595 3.36537 10.0781
      vertex 6.81217 0.557543 11.0204
    endloop
  endfacet
  facet normal -0.249826 -0.0515123 0.96692
    outer loop
      vertex 6.81217 0.557543 11.0204
      vertex 2.58595 3.36537 10.0781
      vertex 8.50782 -7.66604 11.0204
    endloop
  endfacet
  facet normal -0.269582 -0.0626287 0.960939
    outer loop
      vertex 8.50782 -7.66604 11.0204
      vertex 2.58595 3.36537 10.0781
      vertex 5.55744 -9.42526 10.0781
    endloop
  endfacet
  facet normal 0.392525 -0.848468 0.355001
    outer loop
      vertex 8.50782 -7.66604 11.0204
      vertex 5.55744 -9.42526 10.0781
      vertex 6.98466 -9.42526 8.5
    endloop
  endfacet
  facet normal 0.277881 -0.858393 0.431211
    outer loop
      vertex 8.50782 -7.66604 11.0204
      vertex 6.98466 -9.42526 8.5
      vertex 10.9567 -7.66604 9.44236
    endloop
  endfacet
  facet normal 0.156058 0.411952 0.897743
    outer loop
      vertex 11.3133 5.96397 4
      vertex 10.9488 -1.57031 7.52066
      vertex 15.2694 -1.57031 6.76959
    endloop
  endfacet
  facet normal 0.328135 0.472896 0.817739
    outer loop
      vertex 18.0631 1.28041 4
      vertex 11.3133 5.96397 4
      vertex 15.2694 -1.57031 6.76959
    endloop
  endfacet
  facet normal 0.0106621 0.691393 0.7224
    outer loop
      vertex 18.0631 1.28041 4
      vertex 15.2694 -1.57031 6.76959
      vertex 21.4488 -1.57031 6.67839
    endloop
  endfacet
  facet normal 0 -0.920736 0.390185
    outer loop
      vertex 15.4947 -18.9233 6.16567
      vertex 14.3346 -19.841 4
      vertex 19.4135 -19.841 4
    endloop
  endfacet
  facet normal 0 -0.920736 0.390185
    outer loop
      vertex 20.5736 -18.9233 6.16567
      vertex 15.4947 -18.9233 6.16567
      vertex 19.4135 -19.841 4
    endloop
  endfacet
  facet normal 0.821053 -0.528468 -0.215853
    outer loop
      vertex 20.5736 -18.9233 6.16567
      vertex 19.4135 -19.841 4
      vertex 23.5196 -14.966 7.68311
    endloop
  endfacet
  facet normal 0.820789 -0.350611 -0.450974
    outer loop
      vertex 23.5196 -14.966 7.68311
      vertex 19.4135 -19.841 4
      vertex 22.528 -12.55 4
    endloop
  endfacet
  facet normal 0.944112 -0.0940904 -0.31591
    outer loop
      vertex 23.5196 -14.966 7.68311
      vertex 22.528 -12.55 4
      vertex 23.0147 -7.66604 4
    endloop
  endfacet
  facet normal 0.967516 0.163993 0.192405
    outer loop
      vertex 23.0147 -7.66604 4
      vertex 21.4488 -1.57031 6.67839
      vertex 23.5196 -14.966 7.68311
    endloop
  endfacet
  facet normal 0.753356 0.416961 -0.508526
    outer loop
      vertex 23.0147 -7.66604 4
      vertex 18.0631 1.28041 4
      vertex 21.4488 -1.57031 6.67839
    endloop
  endfacet
  facet normal 0.736173 0.204355 0.645204
    outer loop
      vertex 10.9488 -1.57031 7.52066
      vertex 8.67386 0.557543 9.44236
      vertex 10.9567 -7.66604 9.44236
    endloop
  endfacet
  facet normal 0.535664 0.148696 0.831236
    outer loop
      vertex 8.67386 0.557543 9.44236
      vertex 8.50782 -7.66604 11.0204
      vertex 10.9567 -7.66604 9.44236
    endloop
  endfacet
  facet normal 0.640939 0.132157 0.756129
    outer loop
      vertex 8.67386 0.557543 9.44236
      vertex 6.81217 0.557543 11.0204
      vertex 8.50782 -7.66604 11.0204
    endloop
  endfacet
endsolid OpenSCAD_Model
