solid OpenSCAD_Model
  facet normal -1 0 0
    outer loop
      vertex -11.4603 -7.08584 2.81076
      vertex -11.4603 -7.08584 4.85744
      vertex -11.4603 -3.53049 2.81076
    endloop
  endfacet
  facet normal -1 0 0
    outer loop
      vertex -11.4603 -3.53049 2.81076
      vertex -11.4603 -7.08584 4.85744
      vertex -11.4603 -3.53049 4.85744
    endloop
  endfacet
  facet normal -0.969481 -0.245168 0
    outer loop
      vertex -11.4603 -7.08584 2.81076
      vertex -10.419 -11.2035 2.81076
      vertex -11.4603 -7.08584 4.85744
    endloop
  endfacet
  facet normal -0.969481 -0.245168 0
    outer loop
      vertex -11.4603 -7.08584 4.85744
      vertex -10.419 -11.2035 2.81076
      vertex -10.419 -11.2035 4.85744
    endloop
  endfacet
  facet normal 0 0 -1
    outer loop
      vertex -11.4603 -7.08584 2.81076
      vertex -11.4603 -3.53049 2.81076
      vertex -10.419 -11.2035 2.81076
    endloop
  endfacet
  facet normal 0 0 -1
    outer loop
      vertex -10.419 -11.2035 2.81076
      vertex -11.4603 -3.53049 2.81076
      vertex -9.16716 8.35274 2.81076
    endloop
  endfacet
  facet normal 0 0 -1
    outer loop
      vertex -9.16909 -3.53049 2.81076
      vertex -9.16716 8.35274 2.81076
      vertex -5.37032 15.2356 2.81076
    endloop
  endfacet
  facet normal 0 0 -1
    outer loop
      vertex -10.419 -11.2035 2.81076
      vertex -9.16716 8.35274 2.81076
      vertex -9.16909 -3.53049 2.81076
    endloop
  endfacet
  facet normal 0 0 -1
    outer loop
      vertex -10.419 -11.2035 2.81076
      vertex -9.16909 -7.08584 2.81076
      vertex -8.317 -11.2035 2.81076
    endloop
  endfacet
  facet normal 0 0 -1
    outer loop
      vertex -8.317 -11.2035 2.81076
      vertex -5.68156 -9.33213 2.81076
      vertex -5.68156 -14.1453 2.81076
    endloop
  endfacet
  facet normal 0 0 -1
    outer loop
      vertex -8.317 -11.2035 2.81076
      vertex -5.68156 -14.1453 2.81076
      vertex -10.419 -11.2035 2.81076
    endloop
  endfacet
  facet normal 0 0 -1
    outer loop
      vertex -10.419 -11.2035 2.81076
      vertex -5.68156 -14.1453 2.81076
      vertex -8.317 -13.7388 2.81076
    endloop
  endfacet
  facet normal 0 0 -1
    outer loop
      vertex -10.419 -11.2035 2.81076
      vertex -8.317 -13.7388 2.81076
      vertex -8.62421 -15.3917 2.81076
    endloop
  endfacet
  facet normal 0 0 -1
    outer loop
      vertex -9.80898 -13.7388 2.81076
      vertex -8.62421 -15.3917 2.81076
      vertex -9.41957 -15.3917 2.81076
    endloop
  endfacet
  facet normal 0 0 -1
    outer loop
      vertex -10.419 -11.2035 2.81076
      vertex -8.62421 -15.3917 2.81076
      vertex -9.80898 -13.7388 2.81076
    endloop
  endfacet
  facet normal 0 0 -1
    outer loop
      vertex -9.16909 -7.08584 2.81076
      vertex -10.419 -11.2035 2.81076
      vertex -9.16909 -3.53049 2.81076
    endloop
  endfacet
  facet normal -0.981885 0.189478 0
    outer loop
      vertex -9.16716 8.35274 2.81076
      vertex -11.4603 -3.53049 2.81076
      vertex -11.4603 -3.53049 4.85744
    endloop
  endfacet
  facet normal -4.24451e-06 -0.0528987 0.9986
    outer loop
      vertex -7.58336 2.7701 5.19122
      vertex -11.4603 -3.53049 4.85744
      vertex -8.63626 0.669902 5.07996
    endloop
  endfacet
  facet normal -1.31663e-06 -0.0529007 0.9986
    outer loop
      vertex -8.63626 0.669902 5.07996
      vertex -11.4603 -3.53049 4.85744
      vertex -10.5747 -2.48039 4.91307
    endloop
  endfacet
  facet normal 0 -0.0529018 0.9986
    outer loop
      vertex -10.5747 -2.48039 4.91307
      vertex -11.4603 -3.53049 4.85744
      vertex -7.96493 -3.53049 4.85744
    endloop
  endfacet
  facet normal 0 -0.0529018 0.9986
    outer loop
      vertex -9.05086 -2.48039 4.91307
      vertex -10.5747 -2.48039 4.91307
      vertex -7.96493 -3.53049 4.85744
    endloop
  endfacet
  facet normal 0 -0.0529018 0.9986
    outer loop
      vertex -7.87602 -2.48039 4.91307
      vertex -9.05086 -2.48039 4.91307
      vertex -7.96493 -3.53049 4.85744
    endloop
  endfacet
  facet normal 0 0.135367 0.990795
    outer loop
      vertex -7.96493 -3.53049 4.85744
      vertex -11.4603 -3.53049 4.85744
      vertex -9.37604 -8.88966 5.58964
    endloop
  endfacet
  facet normal -0.331439 0 0.943477
    outer loop
      vertex -11.4603 -3.53049 4.85744
      vertex -11.4603 -7.08584 4.85744
      vertex -9.37604 -8.88966 5.58964
    endloop
  endfacet
  facet normal -0.876057 0.240992 0.417668
    outer loop
      vertex -9.16716 8.35274 2.81076
      vertex -11.4603 -3.53049 4.85744
      vertex -9.94457 1.97954 4.85744
    endloop
  endfacet
  facet normal -0.153708 0.042283 0.987211
    outer loop
      vertex -9.94457 1.97954 4.85744
      vertex -11.4603 -3.53049 4.85744
      vertex -7.58336 2.7701 5.19122
    endloop
  endfacet
  facet normal -0.407965 -0.103168 0.90715
    outer loop
      vertex -9.37604 -8.88966 5.58964
      vertex -11.4603 -7.08584 4.85744
      vertex -10.419 -11.2035 4.85744
    endloop
  endfacet
  facet normal -0.972251 -0.23394 0
    outer loop
      vertex -10.419 -11.2035 2.81076
      vertex -9.80898 -13.7388 2.81076
      vertex -10.419 -11.2035 4.85744
    endloop
  endfacet
  facet normal -0.972251 -0.23394 0
    outer loop
      vertex -10.419 -11.2035 4.85744
      vertex -9.80898 -13.7388 2.81076
      vertex -9.80898 -13.7388 4.85744
    endloop
  endfacet
  facet normal -0.414109 -0.0996416 0.904757
    outer loop
      vertex -9.37604 -8.88966 5.58964
      vertex -10.419 -11.2035 4.85744
      vertex -9.80898 -13.7388 4.85744
    endloop
  endfacet
  facet normal -0.973353 -0.229311 0
    outer loop
      vertex -9.80898 -13.7388 2.81076
      vertex -9.41957 -15.3917 2.81076
      vertex -9.80898 -13.7388 4.85744
    endloop
  endfacet
  facet normal -0.973353 -0.229311 0
    outer loop
      vertex -9.80898 -13.7388 4.85744
      vertex -9.41957 -15.3917 2.81076
      vertex -9.41957 -15.3917 4.37964
    endloop
  endfacet
  facet normal 0 -1 0
    outer loop
      vertex -9.41957 -15.3917 4.37964
      vertex -9.41957 -15.3917 2.81076
      vertex -8.62421 -15.3917 2.81076
    endloop
  endfacet
  facet normal 0 -1 0
    outer loop
      vertex -8.43653 -15.3917 4.37964
      vertex -9.41957 -15.3917 4.37964
      vertex -8.62421 -15.3917 2.81076
    endloop
  endfacet
  facet normal 0.976432 -0.181482 -0.11681
    outer loop
      vertex -8.43653 -15.3917 4.37964
      vertex -8.62421 -15.3917 2.81076
      vertex -8.317 -13.7388 2.81076
    endloop
  endfacet
  facet normal 0.95999 -0.226163 -0.165136
    outer loop
      vertex -7.96493 -13.7388 4.85744
      vertex -8.43653 -15.3917 4.37964
      vertex -8.317 -13.7388 2.81076
    endloop
  endfacet
  facet normal -0.152398 -0.987972 0.0262152
    outer loop
      vertex -7.96493 -13.7388 4.85744
      vertex -8.317 -13.7388 2.81076
      vertex -5.68156 -14.1453 2.81076
    endloop
  endfacet
  facet normal -0.175281 -0.984519 0
    outer loop
      vertex -5.68156 -14.1453 6.03521
      vertex -7.96493 -13.7388 4.85744
      vertex -5.68156 -14.1453 2.81076
    endloop
  endfacet
  facet normal -0.892345 -0.451355 0
    outer loop
      vertex -5.68156 -14.1453 6.03521
      vertex -5.68156 -14.1453 2.81076
      vertex -3.16763 -19.1155 2.15661
    endloop
  endfacet
  facet normal -0.727048 -0.285568 -0.624381
    outer loop
      vertex -3.16763 -19.1155 2.15661
      vertex -5.68156 -14.1453 2.81076
      vertex -3.80786 -12.7701 0
    endloop
  endfacet
  facet normal -0.832069 0 -0.554672
    outer loop
      vertex -3.80786 -12.7701 0
      vertex -5.68156 -14.1453 2.81076
      vertex -5.68156 -9.33213 2.81076
    endloop
  endfacet
  facet normal -0.633879 0.773432 0
    outer loop
      vertex -5.68156 -9.33213 2.81076
      vertex -7.96493 -11.2035 4.85744
      vertex -5.68156 -9.33213 6.03521
    endloop
  endfacet
  facet normal -0.576116 0.811338 0.0991024
    outer loop
      vertex -5.68156 -9.33213 2.81076
      vertex -8.317 -11.2035 2.81076
      vertex -7.96493 -11.2035 4.85744
    endloop
  endfacet
  facet normal -0.695019 0.188476 -0.693848
    outer loop
      vertex -3.80786 -12.7701 0
      vertex -5.68156 -9.33213 2.81076
      vertex -2.77231 -8.95145 0
    endloop
  endfacet
  facet normal -0.694828 0 -0.719176
    outer loop
      vertex -2.77231 -8.95145 0
      vertex -5.68156 -9.33213 2.81076
      vertex -2.77231 -5.47478 0
    endloop
  endfacet
  facet normal -0.847728 0.347088 -0.401108
    outer loop
      vertex -2.77231 -5.47478 0
      vertex -5.68156 -9.33213 2.81076
      vertex -4.02327 -5.47478 2.64388
    endloop
  endfacet
  facet normal -0.910733 0.385068 -0.149289
    outer loop
      vertex -4.02327 -5.47478 2.64388
      vertex -5.68156 -9.33213 2.81076
      vertex -4.63288 -5.47478 6.36278
    endloop
  endfacet
  facet normal -0.964975 0.262343 0
    outer loop
      vertex -4.63288 -5.47478 6.36278
      vertex -5.68156 -9.33213 2.81076
      vertex -5.68156 -9.33213 6.03521
    endloop
  endfacet
  facet normal 0.985525 0 -0.169528
    outer loop
      vertex -7.96493 -11.2035 4.85744
      vertex -8.317 -11.2035 2.81076
      vertex -7.96493 -7.08584 4.85744
    endloop
  endfacet
  facet normal 0.848503 0.175585 -0.499212
    outer loop
      vertex -8.317 -11.2035 2.81076
      vertex -9.16909 -7.08584 2.81076
      vertex -7.96493 -7.08584 4.85744
    endloop
  endfacet
  facet normal 0.861893 0 -0.50709
    outer loop
      vertex -7.96493 -7.08584 4.85744
      vertex -9.16909 -7.08584 2.81076
      vertex -9.16909 -3.53049 2.81076
    endloop
  endfacet
  facet normal 0.861893 0 -0.50709
    outer loop
      vertex -7.96493 -3.53049 4.85744
      vertex -7.96493 -7.08584 4.85744
      vertex -9.16909 -3.53049 2.81076
    endloop
  endfacet
  facet normal -0.340588 -0.918611 0.200383
    outer loop
      vertex -7.96493 -3.53049 4.85744
      vertex -9.16909 -3.53049 2.81076
      vertex -4.02327 -5.47478 2.64388
    endloop
  endfacet
  facet normal -0.353217 -0.920493 -0.167126
    outer loop
      vertex -4.02327 -5.47478 2.64388
      vertex -9.16909 -3.53049 2.81076
      vertex -2.77231 -5.47478 0
    endloop
  endfacet
  facet normal -0.462641 -0.336209 -0.820321
    outer loop
      vertex -2.77231 -5.47478 0
      vertex -9.16909 -3.53049 2.81076
      vertex -6.12213 -0.865241 0
    endloop
  endfacet
  facet normal -0.720957 0.101236 -0.685545
    outer loop
      vertex -6.12213 -0.865241 0
      vertex -9.16909 -3.53049 2.81076
      vertex -3.86126 15.2356 0
    endloop
  endfacet
  facet normal -0.867364 0.175578 -0.465674
    outer loop
      vertex -3.86126 15.2356 0
      vertex -9.16909 -3.53049 2.81076
      vertex -5.37032 15.2356 2.81076
    endloop
  endfacet
  facet normal -0.615213 0.339373 0.711575
    outer loop
      vertex -5.37032 15.2356 2.81076
      vertex -9.16716 8.35274 2.81076
      vertex -4.22238 12.017 5.33833
    endloop
  endfacet
  facet normal -0.850591 0.260668 -0.45667
    outer loop
      vertex -3.86126 15.2356 0
      vertex -5.37032 15.2356 2.81076
      vertex -2.82249 18.6253 0
    endloop
  endfacet
  facet normal -0.865445 0.375281 -0.331917
    outer loop
      vertex -2.82249 18.6253 0
      vertex -5.37032 15.2356 2.81076
      vertex -4.22238 18.0452 2.99425
    endloop
  endfacet
  facet normal -0.719492 0.251697 0.647287
    outer loop
      vertex -4.22238 18.0452 2.99425
      vertex -5.37032 15.2356 2.81076
      vertex -4.22238 12.017 5.33833
    endloop
  endfacet
  facet normal -0.63777 0.411561 0.65105
    outer loop
      vertex -4.22238 12.017 5.33833
      vertex -9.16716 8.35274 2.81076
      vertex -8.36284 7.10122 4.38983
    endloop
  endfacet
  facet normal -0.743778 0.284909 0.604666
    outer loop
      vertex -9.16716 8.35274 2.81076
      vertex -9.94457 1.97954 4.85744
      vertex -8.36284 7.10122 4.38983
    endloop
  endfacet
  facet normal -0.186299 0.146239 0.971549
    outer loop
      vertex -8.36284 7.10122 4.38983
      vertex -9.94457 1.97954 4.85744
      vertex -7.58336 2.7701 5.19122
    endloop
  endfacet
  facet normal -0.344685 0.110453 0.932198
    outer loop
      vertex -4.22238 12.017 5.33833
      vertex -8.36284 7.10122 4.38983
      vertex -7.58336 2.7701 5.19122
    endloop
  endfacet
  facet normal 0.110325 -0.0558867 0.992323
    outer loop
      vertex -4.22238 12.017 5.33833
      vertex -7.58336 2.7701 5.19122
      vertex -5.14406 4.11332 4.99567
    endloop
  endfacet
  facet normal 0.111448 -0.0579614 0.992079
    outer loop
      vertex -7.58336 2.7701 5.19122
      vertex -7.68524 0.669902 5.07996
      vertex -5.14406 4.11332 4.99567
    endloop
  endfacet
  facet normal 0 -0.0529008 0.9986
    outer loop
      vertex -7.58336 2.7701 5.19122
      vertex -8.63626 0.669902 5.07996
      vertex -7.68524 0.669902 5.07996
    endloop
  endfacet
  facet normal -0.85162 0.524154 -0.00237893
    outer loop
      vertex -8.63626 0.669902 5.07996
      vertex -10.5747 -2.48039 4.91307
      vertex -10.2085 -1.8809 5.8862
    endloop
  endfacet
  facet normal 0 0.782507 0.622642
    outer loop
      vertex -7.68524 0.669902 5.07996
      vertex -8.63626 0.669902 5.07996
      vertex -7.8968 -0.104419 6.05309
    endloop
  endfacet
  facet normal 0.0724064 0.806532 0.586739
    outer loop
      vertex -8.63626 0.669902 5.07996
      vertex -8.84782 -0.104419 6.17045
      vertex -7.8968 -0.104419 6.05309
    endloop
  endfacet
  facet normal -0.787899 0.563867 0.247526
    outer loop
      vertex -8.63626 0.669902 5.07996
      vertex -10.2085 -1.8809 5.8862
      vertex -8.84782 -0.104419 6.17045
    endloop
  endfacet
  facet normal 0 -0.851408 0.524504
    outer loop
      vertex -10.2085 -1.8809 5.8862
      vertex -10.5747 -2.48039 4.91307
      vertex -9.05086 -2.48039 4.91307
    endloop
  endfacet
  facet normal -0.0555761 -0.878264 0.474936
    outer loop
      vertex -9.20555 -1.8809 6.00356
      vertex -10.2085 -1.8809 5.8862
      vertex -9.05086 -2.48039 4.91307
    endloop
  endfacet
  facet normal 0.0485949 -0.872349 0.486462
    outer loop
      vertex -8.03071 -1.8809 5.8862
      vertex -9.20555 -1.8809 6.00356
      vertex -9.05086 -2.48039 4.91307
    endloop
  endfacet
  facet normal 0 -0.851408 0.524504
    outer loop
      vertex -8.03071 -1.8809 5.8862
      vertex -9.05086 -2.48039 4.91307
      vertex -7.87602 -2.48039 4.91307
    endloop
  endfacet
  facet normal 0.977647 -0.0697145 0.198359
    outer loop
      vertex -7.68524 0.669902 5.07996
      vertex -8.03071 -1.8809 5.8862
      vertex -7.87602 -2.48039 4.91307
    endloop
  endfacet
  facet normal 0.113396 -0.0594071 0.991772
    outer loop
      vertex -7.68524 0.669902 5.07996
      vertex -7.87602 -2.48039 4.91307
      vertex -5.14406 4.11332 4.99567
    endloop
  endfacet
  facet normal 0.121546 -0.0627689 0.990599
    outer loop
      vertex -7.87602 -2.48039 4.91307
      vertex -7.96493 -3.53049 4.85744
      vertex -5.14406 4.11332 4.99567
    endloop
  endfacet
  facet normal -0.563495 0.193428 0.803155
    outer loop
      vertex -5.14406 4.11332 4.99567
      vertex -7.96493 -3.53049 4.85744
      vertex -4.40588 -2.90047 7.20275
    endloop
  endfacet
  facet normal -0.546149 -0.0309801 0.837115
    outer loop
      vertex -4.40588 -2.90047 7.20275
      vertex -7.96493 -3.53049 4.85744
      vertex -4.60555 -4.51893 7.01258
    endloop
  endfacet
  facet normal -0.572253 -0.449802 0.685715
    outer loop
      vertex -4.60555 -4.51893 7.01258
      vertex -7.96493 -3.53049 4.85744
      vertex -4.63288 -5.47478 6.36278
    endloop
  endfacet
  facet normal -0.475922 -0.87602 -0.078014
    outer loop
      vertex -4.63288 -5.47478 6.36278
      vertex -7.96493 -3.53049 4.85744
      vertex -4.02327 -5.47478 2.64388
    endloop
  endfacet
  facet normal 0.460569 0 0.887624
    outer loop
      vertex -7.96493 -11.2035 4.85744
      vertex -9.37604 -8.88966 5.58964
      vertex -7.96493 -13.7388 4.85744
    endloop
  endfacet
  facet normal 0.460569 0 0.887624
    outer loop
      vertex -7.96493 -7.08584 4.85744
      vertex -9.37604 -8.88966 5.58964
      vertex -7.96493 -11.2035 4.85744
    endloop
  endfacet
  facet normal 0.460569 0 0.887624
    outer loop
      vertex -7.96493 -3.53049 4.85744
      vertex -9.37604 -8.88966 5.58964
      vertex -7.96493 -7.08584 4.85744
    endloop
  endfacet
  facet normal 0 -0.149302 0.988792
    outer loop
      vertex -9.37604 -8.88966 5.58964
      vertex -9.80898 -13.7388 4.85744
      vertex -7.96493 -13.7388 4.85744
    endloop
  endfacet
  facet normal 0 -0.277702 0.960667
    outer loop
      vertex -7.96493 -13.7388 4.85744
      vertex -9.80898 -13.7388 4.85744
      vertex -9.41957 -15.3917 4.37964
    endloop
  endfacet
  facet normal 0 -0.277702 0.960667
    outer loop
      vertex -8.43653 -15.3917 4.37964
      vertex -7.96493 -13.7388 4.85744
      vertex -9.41957 -15.3917 4.37964
    endloop
  endfacet
  facet normal -0.458414 0 0.888739
    outer loop
      vertex -7.96493 -11.2035 4.85744
      vertex -7.96493 -13.7388 4.85744
      vertex -5.68156 -14.1453 6.03521
    endloop
  endfacet
  facet normal -0.458414 0 0.888739
    outer loop
      vertex -5.68156 -9.33213 6.03521
      vertex -7.96493 -11.2035 4.85744
      vertex -5.68156 -14.1453 6.03521
    endloop
  endfacet
  facet normal -0.738146 0 0.674641
    outer loop
      vertex -5.68156 -9.33213 6.03521
      vertex -5.68156 -14.1453 6.03521
      vertex -4.39737 -14.0757 7.44028
    endloop
  endfacet
  facet normal -0.640901 -0.467382 0.608933
    outer loop
      vertex -4.39737 -14.0757 7.44028
      vertex -5.68156 -14.1453 6.03521
      vertex -2.75804 -18.6269 5.67242
    endloop
  endfacet
  facet normal -0.676505 -0.486098 0.553218
    outer loop
      vertex -2.75804 -18.6269 5.67242
      vertex -5.68156 -14.1453 6.03521
      vertex -3.05921 -19.6461 4.40857
    endloop
  endfacet
  facet normal -0.907494 -0.416519 -0.0544582
    outer loop
      vertex -3.05921 -19.6461 4.40857
      vertex -5.68156 -14.1453 6.03521
      vertex -3.16763 -19.1155 2.15661
    endloop
  endfacet
  facet normal -0.849853 0.502371 0.159292
    outer loop
      vertex -3.16763 -19.1155 2.15661
      vertex -4.22795 -22.7377 7.92322
      vertex -3.05921 -19.6461 4.40857
    endloop
  endfacet
  facet normal -0.898091 0.427486 0.103384
    outer loop
      vertex -3.16763 -19.1155 2.15661
      vertex -5.00058 -23.0841 2.64388
      vertex -4.22795 -22.7377 7.92322
    endloop
  endfacet
  facet normal -0.868491 0.359175 -0.341639
    outer loop
      vertex -3.39183 -21.7089 0
      vertex -5.00058 -23.0841 2.64388
      vertex -3.16763 -19.1155 2.15661
    endloop
  endfacet
  facet normal -0.779426 0.439031 -0.44693
    outer loop
      vertex -2.22991 -19.6461 0
      vertex -3.39183 -21.7089 0
      vertex -3.16763 -19.1155 2.15661
    endloop
  endfacet
  facet normal -0.914469 -0.209859 -0.345985
    outer loop
      vertex -3.16763 -19.1155 2.15661
      vertex -3.80786 -12.7701 0
      vertex -2.22991 -19.6461 0
    endloop
  endfacet
  facet normal 0 0 -1
    outer loop
      vertex -6.12213 -0.865241 0
      vertex -3.86126 15.2356 0
      vertex -2.77231 -5.47478 0
    endloop
  endfacet
  facet normal 0 0 -1
    outer loop
      vertex -2.77231 -5.47478 0
      vertex -3.86126 15.2356 0
      vertex -2.82249 18.6253 0
    endloop
  endfacet
  facet normal 0 0 -1
    outer loop
      vertex -1.17897 11.2933 0
      vertex -2.82249 18.6253 0
      vertex 2.82249 18.6253 0
    endloop
  endfacet
  facet normal 0 0 -1
    outer loop
      vertex 1.56654 10.78 0
      vertex 2.82249 18.6253 0
      vertex 3.86126 15.2356 0
    endloop
  endfacet
  facet normal 0 0 -1
    outer loop
      vertex 1.75 0 0
      vertex 3.86126 15.2356 0
      vertex 6.12213 -0.865241 0
    endloop
  endfacet
  facet normal 0 0 -1
    outer loop
      vertex -2.77231 -5.47478 0
      vertex 6.12213 -0.865241 0
      vertex 2.77231 -5.47478 0
    endloop
  endfacet
  facet normal 0 0 -1
    outer loop
      vertex -2.77231 -5.47478 0
      vertex 2.77231 -5.47478 0
      vertex 2.77231 -8.95145 0
    endloop
  endfacet
  facet normal 0 0 -1
    outer loop
      vertex 2.77231 -8.95145 0
      vertex 3.80786 -12.7701 0
      vertex -2.77231 -5.47478 0
    endloop
  endfacet
  facet normal 0 0 -1
    outer loop
      vertex -2.77231 -5.47478 0
      vertex 3.80786 -12.7701 0
      vertex 2.22991 -19.6461 0
    endloop
  endfacet
  facet normal 0 0 -1
    outer loop
      vertex -2.77231 -8.95145 0
      vertex 0 -23.0841 0
      vertex -2.22991 -19.6461 0
    endloop
  endfacet
  facet normal 0 0 -1
    outer loop
      vertex 2.22991 -19.6461 0
      vertex 3.39183 -21.7089 0
      vertex 0 -23.0841 0
    endloop
  endfacet
  facet normal 0 0 -1
    outer loop
      vertex 0 -23.0841 0
      vertex -3.39183 -21.7089 0
      vertex -2.22991 -19.6461 0
    endloop
  endfacet
  facet normal 0 0 -1
    outer loop
      vertex 0.921256 8.51212 0
      vertex -1.05461 1.39653 0
      vertex 0.321562 8.2798 0
    endloop
  endfacet
  facet normal 0 0 -1
    outer loop
      vertex 2.22991 -19.6461 0
      vertex 0 -23.0841 0
      vertex -2.77231 -8.95145 0
    endloop
  endfacet
  facet normal 0 0 -1
    outer loop
      vertex -2.77231 -8.95145 0
      vertex -2.22991 -19.6461 0
      vertex -3.80786 -12.7701 0
    endloop
  endfacet
  facet normal 0 0 -1
    outer loop
      vertex -2.77231 -5.47478 0
      vertex -2.82249 18.6253 0
      vertex -1.74253 10.1615 0
    endloop
  endfacet
  facet normal 0 0 -1
    outer loop
      vertex -2.77231 -5.47478 0
      vertex -1.74253 10.1615 0
      vertex -1.68319 9.52109 0
    endloop
  endfacet
  facet normal 0 0 -1
    outer loop
      vertex -1.48788 0.921256 0
      vertex 0.321562 8.2798 0
      vertex -1.05461 1.39653 0
    endloop
  endfacet
  facet normal 0 0 -1
    outer loop
      vertex -2.77231 -5.47478 0
      vertex -1.68319 9.52109 0
      vertex -1.39653 8.94539 0
    endloop
  endfacet
  facet normal 0 0 -1
    outer loop
      vertex -2.77231 -5.47478 0
      vertex -1.39653 8.94539 0
      vertex -0.921256 8.51212 0
    endloop
  endfacet
  facet normal 0 0 -1
    outer loop
      vertex -2.77231 -5.47478 0
      vertex -0.921256 8.51212 0
      vertex -0.321562 8.2798 0
    endloop
  endfacet
  facet normal 0 0 -1
    outer loop
      vertex -1.7202 0.321562 0
      vertex -0.321562 8.2798 0
      vertex 0.321562 8.2798 0
    endloop
  endfacet
  facet normal 0 0 -1
    outer loop
      vertex 0.632173 11.6318 0
      vertex 2.82249 18.6253 0
      vertex 1.17897 11.2933 0
    endloop
  endfacet
  facet normal 0 0 -1
    outer loop
      vertex -1.05461 1.39653 0
      vertex 3.86126 15.2356 0
      vertex -0.47891 1.68319 0
    endloop
  endfacet
  facet normal 0 0 -1
    outer loop
      vertex 1.56654 10.78 0
      vertex 3.86126 15.2356 0
      vertex 1.74253 10.1615 0
    endloop
  endfacet
  facet normal 0 0 -1
    outer loop
      vertex 1.17897 11.2933 0
      vertex 2.82249 18.6253 0
      vertex 1.56654 10.78 0
    endloop
  endfacet
  facet normal 0 0 -1
    outer loop
      vertex 1.74253 10.1615 0
      vertex 3.86126 15.2356 0
      vertex 1.68319 9.52109 0
    endloop
  endfacet
  facet normal 0 0 -1
    outer loop
      vertex 3.88578e-16 11.75 0
      vertex 2.82249 18.6253 0
      vertex 0.632173 11.6318 0
    endloop
  endfacet
  facet normal 0 0 -1
    outer loop
      vertex -0.632173 11.6318 0
      vertex 2.82249 18.6253 0
      vertex 3.88578e-16 11.75 0
    endloop
  endfacet
  facet normal 0 0 -1
    outer loop
      vertex -1.17897 11.2933 0
      vertex 2.82249 18.6253 0
      vertex -0.632173 11.6318 0
    endloop
  endfacet
  facet normal 0 0 -1
    outer loop
      vertex -1.56654 10.78 0
      vertex -2.82249 18.6253 0
      vertex -1.17897 11.2933 0
    endloop
  endfacet
  facet normal 0 0 -1
    outer loop
      vertex -1.48788 -0.921256 0
      vertex -2.77231 -5.47478 0
      vertex -1.7202 -0.321562 0
    endloop
  endfacet
  facet normal 0 0 -1
    outer loop
      vertex -1.74253 10.1615 0
      vertex -2.82249 18.6253 0
      vertex -1.56654 10.78 0
    endloop
  endfacet
  facet normal 0 0 -1
    outer loop
      vertex -2.77231 -5.47478 0
      vertex -0.321562 8.2798 0
      vertex -1.7202 0.321562 0
    endloop
  endfacet
  facet normal 0 0 -1
    outer loop
      vertex -1.48788 0.921256 0
      vertex -1.7202 0.321562 0
      vertex 0.321562 8.2798 0
    endloop
  endfacet
  facet normal 0 0 -1
    outer loop
      vertex -2.77231 -5.47478 0
      vertex -1.7202 0.321562 0
      vertex -1.7202 -0.321562 0
    endloop
  endfacet
  facet normal 0 0 -1
    outer loop
      vertex -1.05461 -1.39653 0
      vertex -2.77231 -5.47478 0
      vertex -1.48788 -0.921256 0
    endloop
  endfacet
  facet normal 0 0 -1
    outer loop
      vertex -1.05461 1.39653 0
      vertex 0.921256 8.51212 0
      vertex 1.39653 8.94539 0
    endloop
  endfacet
  facet normal 0 0 -1
    outer loop
      vertex -2.77231 -5.47478 0
      vertex -1.05461 -1.39653 0
      vertex -0.47891 -1.68319 0
    endloop
  endfacet
  facet normal 0 0 -1
    outer loop
      vertex -1.05461 1.39653 0
      vertex 1.68319 9.52109 0
      vertex 3.86126 15.2356 0
    endloop
  endfacet
  facet normal 0 0 -1
    outer loop
      vertex -2.77231 -5.47478 0
      vertex -0.47891 -1.68319 0
      vertex 0.16147 -1.74253 0
    endloop
  endfacet
  facet normal 0 0 -1
    outer loop
      vertex -2.77231 -5.47478 0
      vertex 0.16147 -1.74253 0
      vertex 6.12213 -0.865241 0
    endloop
  endfacet
  facet normal 0 0 -1
    outer loop
      vertex 0.16147 -1.74253 0
      vertex 0.780042 -1.56654 0
      vertex 6.12213 -0.865241 0
    endloop
  endfacet
  facet normal 0 0 -1
    outer loop
      vertex -0.47891 1.68319 0
      vertex 3.86126 15.2356 0
      vertex 0.16147 1.74253 0
    endloop
  endfacet
  facet normal 0 0 -1
    outer loop
      vertex 1.63183 0.632173 0
      vertex 3.86126 15.2356 0
      vertex 1.75 0 0
    endloop
  endfacet
  facet normal 0 0 -1
    outer loop
      vertex 1.29327 1.17897 0
      vertex 3.86126 15.2356 0
      vertex 1.63183 0.632173 0
    endloop
  endfacet
  facet normal 0 0 -1
    outer loop
      vertex 1.29327 -1.17897 0
      vertex 1.63183 -0.632173 0
      vertex 6.12213 -0.865241 0
    endloop
  endfacet
  facet normal 0 0 -1
    outer loop
      vertex 1.63183 -0.632173 0
      vertex 1.75 0 0
      vertex 6.12213 -0.865241 0
    endloop
  endfacet
  facet normal 0 0 -1
    outer loop
      vertex 0.780042 1.56654 0
      vertex 3.86126 15.2356 0
      vertex 1.29327 1.17897 0
    endloop
  endfacet
  facet normal 0 0 -1
    outer loop
      vertex 0.16147 1.74253 0
      vertex 3.86126 15.2356 0
      vertex 0.780042 1.56654 0
    endloop
  endfacet
  facet normal 0 0 -1
    outer loop
      vertex -1.05461 1.39653 0
      vertex 1.39653 8.94539 0
      vertex 1.68319 9.52109 0
    endloop
  endfacet
  facet normal 0 0 -1
    outer loop
      vertex 1.29327 -1.17897 0
      vertex 6.12213 -0.865241 0
      vertex 0.780042 -1.56654 0
    endloop
  endfacet
  facet normal 0 0 -1
    outer loop
      vertex -2.77231 -5.47478 0
      vertex 2.22991 -19.6461 0
      vertex -2.77231 -8.95145 0
    endloop
  endfacet
  facet normal -0.81324 0.173933 0.555327
    outer loop
      vertex -4.63288 -5.47478 6.36278
      vertex -5.68156 -9.33213 6.03521
      vertex -4.35318 -11.5481 8.67459
    endloop
  endfacet
  facet normal -0.92801 -0.150253 0.340913
    outer loop
      vertex -4.35318 -11.5481 8.67459
      vertex -5.68156 -9.33213 6.03521
      vertex -4.39737 -14.0757 7.44028
    endloop
  endfacet
  facet normal -0.915021 -0.208577 0.345299
    outer loop
      vertex -4.60555 -4.51893 7.01258
      vertex -4.63288 -5.47478 6.36278
      vertex -2.98543 -9.24685 8.4499
    endloop
  endfacet
  facet normal -0.383902 0.312995 0.868708
    outer loop
      vertex -2.98543 -9.24685 8.4499
      vertex -4.63288 -5.47478 6.36278
      vertex -4.35318 -11.5481 8.67459
    endloop
  endfacet
  facet normal 0.0934767 0.360828 0.927936
    outer loop
      vertex -4.22238 18.0452 2.99425
      vertex -4.22238 12.017 5.33833
      vertex -3.43036 16.9708 3.33227
    endloop
  endfacet
  facet normal 0.497128 0.256221 0.828984
    outer loop
      vertex -3.43036 16.9708 3.33227
      vertex -4.22238 12.017 5.33833
      vertex -3.43036 13.6804 4.34926
    endloop
  endfacet
  facet normal 0.16348 0.445544 0.880207
    outer loop
      vertex -3.43036 13.6804 4.34926
      vertex -4.22238 12.017 5.33833
      vertex 0 12.8981 4.10811
    endloop
  endfacet
  facet normal 0.162118 0.449565 0.878413
    outer loop
      vertex 0 12.8981 4.10811
      vertex -4.22238 12.017 5.33833
      vertex 0 6.63905 7.31144
    endloop
  endfacet
  facet normal -0.0403684 0.316072 0.947876
    outer loop
      vertex 0 6.63905 7.31144
      vertex -4.22238 12.017 5.33833
      vertex -3.63409 1.31862 8.93078
    endloop
  endfacet
  facet normal -0.907497 0.0880203 0.410732
    outer loop
      vertex -4.22238 12.017 5.33833
      vertex -5.14406 4.11332 4.99567
      vertex -3.63409 1.31862 8.93078
    endloop
  endfacet
  facet normal 0 0.93537 -0.353671
    outer loop
      vertex 2.82249 18.6253 0
      vertex -2.82249 18.6253 0
      vertex 0 19.7574 2.99425
    endloop
  endfacet
  facet normal -0.375783 0.9267 0.00383496
    outer loop
      vertex -2.82249 18.6253 0
      vertex -4.22238 18.0452 2.99425
      vertex 0 19.7574 2.99425
    endloop
  endfacet
  facet normal -0.0777852 0.246562 0.966
    outer loop
      vertex -0.467983 17.9053 3.33227
      vertex -4.22238 18.0452 2.99425
      vertex -3.43036 16.9708 3.33227
    endloop
  endfacet
  facet normal -0.0805408 0.198617 0.976762
    outer loop
      vertex 0 19.7574 2.99425
      vertex -4.22238 18.0452 2.99425
      vertex -0.467983 17.9053 3.33227
    endloop
  endfacet
  facet normal -0.928991 0.0185426 0.369637
    outer loop
      vertex -3.63409 1.31862 8.93078
      vertex -5.14406 4.11332 4.99567
      vertex -4.40588 -2.90047 7.20275
    endloop
  endfacet
  facet normal 0.985616 -0.0878595 0.144367
    outer loop
      vertex -7.8968 -0.104419 6.05309
      vertex -8.03071 -1.8809 5.8862
      vertex -7.68524 0.669902 5.07996
    endloop
  endfacet
  facet normal -0.115942 -0.0697325 0.990805
    outer loop
      vertex -8.84782 -0.104419 6.17045
      vertex -10.2085 -1.8809 5.8862
      vertex -9.20555 -1.8809 6.00356
    endloop
  endfacet
  facet normal 0.121838 -0.101935 0.987302
    outer loop
      vertex -7.8968 -0.104419 6.05309
      vertex -8.84782 -0.104419 6.17045
      vertex -8.03071 -1.8809 5.8862
    endloop
  endfacet
  facet normal 0.0987657 -0.112771 0.9887
    outer loop
      vertex -8.84782 -0.104419 6.17045
      vertex -9.20555 -1.8809 6.00356
      vertex -8.03071 -1.8809 5.8862
    endloop
  endfacet
  facet normal -0.827939 -0.07612 0.555628
    outer loop
      vertex -3.63409 1.31862 8.93078
      vertex -4.40588 -2.90047 7.20275
      vertex -2.98543 -9.24685 8.4499
    endloop
  endfacet
  facet normal -0.670774 -0.00438784 0.741649
    outer loop
      vertex -4.40588 -2.90047 7.20275
      vertex -4.60555 -4.51893 7.01258
      vertex -2.98543 -9.24685 8.4499
    endloop
  endfacet
  facet normal -0.687932 -0.464431 0.557723
    outer loop
      vertex -3.0287 -14.5816 8.70721
      vertex -4.39737 -14.0757 7.44028
      vertex -2.75804 -18.6269 5.67242
    endloop
  endfacet
  facet normal -0.705338 -0.301062 0.641763
    outer loop
      vertex -4.35318 -11.5481 8.67459
      vertex -4.39737 -14.0757 7.44028
      vertex -3.0287 -14.5816 8.70721
    endloop
  endfacet
  facet normal 0.165153 -0.584767 0.794212
    outer loop
      vertex 0 -14.0757 8.4499
      vertex -3.0287 -14.5816 8.70721
      vertex -2.75804 -18.6269 5.67242
    endloop
  endfacet
  facet normal -0.102602 -0.472137 0.875534
    outer loop
      vertex 0 -14.0757 8.4499
      vertex -2.75804 -18.6269 5.67242
      vertex 0 -18.6269 5.99562
    endloop
  endfacet
  facet normal -0.11525 -0.139682 0.983467
    outer loop
      vertex 0 -18.6269 5.99562
      vertex -2.75804 -18.6269 5.67242
      vertex 0 -20.9025 5.67242
    endloop
  endfacet
  facet normal 0 0 1
    outer loop
      vertex 0 -20.9025 5.67242
      vertex -2.75804 -18.6269 5.67242
      vertex -2.7202 -19.9923 5.67242
    endloop
  endfacet
  facet normal -0.967322 -0.0268063 0.25213
    outer loop
      vertex -2.75804 -18.6269 5.67242
      vertex -3.05921 -19.6461 4.40857
      vertex -2.7202 -19.9923 5.67242
    endloop
  endfacet
  facet normal -0.662969 0.657541 0.357929
    outer loop
      vertex -3.05921 -19.6461 4.40857
      vertex -4.22795 -22.7377 7.92322
      vertex -2.7202 -19.9923 5.67242
    endloop
  endfacet
  facet normal 0.151364 0.607576 0.779705
    outer loop
      vertex 0 -20.9025 5.67242
      vertex -4.22795 -22.7377 7.92322
      vertex 0 -23.0841 7.3724
    endloop
  endfacet
  facet normal -0.0716229 -0.994552 0.0757439
    outer loop
      vertex -4.22795 -22.7377 7.92322
      vertex -5.00058 -23.0841 2.64388
      vertex 0 -23.0841 7.3724
    endloop
  endfacet
  facet normal 0.187154 0.559294 0.807567
    outer loop
      vertex -2.7202 -19.9923 5.67242
      vertex -4.22795 -22.7377 7.92322
      vertex 0 -20.9025 5.67242
    endloop
  endfacet
  facet normal -0.306273 -0.755402 -0.579279
    outer loop
      vertex 0 -23.0841 0
      vertex -5.00058 -23.0841 2.64388
      vertex -3.39183 -21.7089 0
    endloop
  endfacet
  facet normal 0 -1 0
    outer loop
      vertex 0 -23.0841 7.3724
      vertex -5.00058 -23.0841 2.64388
      vertex 0 -23.0841 0
    endloop
  endfacet
  facet normal 0 -1 0
    outer loop
      vertex 5.00058 -23.0841 2.64388
      vertex 0 -23.0841 7.3724
      vertex 0 -23.0841 0
    endloop
  endfacet
  facet normal 0.306273 -0.755402 -0.579279
    outer loop
      vertex 5.00058 -23.0841 2.64388
      vertex 0 -23.0841 0
      vertex 3.39183 -21.7089 0
    endloop
  endfacet
  facet normal 0.868491 0.359175 -0.341639
    outer loop
      vertex 3.39183 -21.7089 0
      vertex 3.16763 -19.1155 2.15661
      vertex 5.00058 -23.0841 2.64388
    endloop
  endfacet
  facet normal 0.779426 0.439031 -0.44693
    outer loop
      vertex 3.39183 -21.7089 0
      vertex 2.22991 -19.6461 0
      vertex 3.16763 -19.1155 2.15661
    endloop
  endfacet
  facet normal 0.914469 -0.209859 -0.345985
    outer loop
      vertex 3.16763 -19.1155 2.15661
      vertex 2.22991 -19.6461 0
      vertex 3.80786 -12.7701 0
    endloop
  endfacet
  facet normal 0.727048 -0.285568 -0.624381
    outer loop
      vertex 5.68156 -14.1453 2.81076
      vertex 3.16763 -19.1155 2.15661
      vertex 3.80786 -12.7701 0
    endloop
  endfacet
  facet normal 0.832069 0 -0.554672
    outer loop
      vertex 5.68156 -14.1453 2.81076
      vertex 3.80786 -12.7701 0
      vertex 5.68156 -9.33213 2.81076
    endloop
  endfacet
  facet normal 0.695019 0.188476 -0.693848
    outer loop
      vertex 3.80786 -12.7701 0
      vertex 2.77231 -8.95145 0
      vertex 5.68156 -9.33213 2.81076
    endloop
  endfacet
  facet normal 0.694828 0 -0.719176
    outer loop
      vertex 5.68156 -9.33213 2.81076
      vertex 2.77231 -8.95145 0
      vertex 2.77231 -5.47478 0
    endloop
  endfacet
  facet normal 0.847728 0.347088 -0.401108
    outer loop
      vertex 5.68156 -9.33213 2.81076
      vertex 2.77231 -5.47478 0
      vertex 4.02327 -5.47478 2.64388
    endloop
  endfacet
  facet normal 0.353217 -0.920493 -0.167126
    outer loop
      vertex 4.02327 -5.47478 2.64388
      vertex 2.77231 -5.47478 0
      vertex 9.16909 -3.53049 2.81076
    endloop
  endfacet
  facet normal 0.462641 -0.336209 -0.820321
    outer loop
      vertex 9.16909 -3.53049 2.81076
      vertex 2.77231 -5.47478 0
      vertex 6.12213 -0.865241 0
    endloop
  endfacet
  facet normal 0.720957 0.101236 -0.685545
    outer loop
      vertex 6.12213 -0.865241 0
      vertex 3.86126 15.2356 0
      vertex 9.16909 -3.53049 2.81076
    endloop
  endfacet
  facet normal 0.850591 0.260668 -0.45667
    outer loop
      vertex 3.86126 15.2356 0
      vertex 2.82249 18.6253 0
      vertex 5.37032 15.2356 2.81076
    endloop
  endfacet
  facet normal 0.867364 0.175578 -0.465674
    outer loop
      vertex 9.16909 -3.53049 2.81076
      vertex 3.86126 15.2356 0
      vertex 5.37032 15.2356 2.81076
    endloop
  endfacet
  facet normal 0.865445 0.375281 -0.331917
    outer loop
      vertex 5.37032 15.2356 2.81076
      vertex 2.82249 18.6253 0
      vertex 4.22238 18.0452 2.99425
    endloop
  endfacet
  facet normal 0.375783 0.9267 0.00383496
    outer loop
      vertex 2.82249 18.6253 0
      vertex 0 19.7574 2.99425
      vertex 4.22238 18.0452 2.99425
    endloop
  endfacet
  facet normal 0.961826 -0.273663 0
    outer loop
      vertex -1.56654 10.78 0
      vertex -1.56654 10.78 3.125
      vertex -1.74253 10.1615 3.125
    endloop
  endfacet
  facet normal 0.961826 -0.273663 0
    outer loop
      vertex -1.74253 10.1615 0
      vertex -1.56654 10.78 0
      vertex -1.74253 10.1615 3.125
    endloop
  endfacet
  facet normal 0.995734 0.0922684 0
    outer loop
      vertex -1.74253 10.1615 3.125
      vertex -1.68319 9.52109 3.125
      vertex -1.68319 9.52109 0
    endloop
  endfacet
  facet normal 0.995734 0.0922684 0
    outer loop
      vertex -1.74253 10.1615 0
      vertex -1.74253 10.1615 3.125
      vertex -1.68319 9.52109 0
    endloop
  endfacet
  facet normal 0.798017 -0.602635 0
    outer loop
      vertex -1.17897 11.2933 0
      vertex -1.17897 11.2933 3.125
      vertex -1.56654 10.78 3.125
    endloop
  endfacet
  facet normal 0.798017 -0.602635 0
    outer loop
      vertex -1.56654 10.78 0
      vertex -1.17897 11.2933 0
      vertex -1.56654 10.78 3.125
    endloop
  endfacet
  facet normal 0.526432 -0.850217 0
    outer loop
      vertex -0.632173 11.6318 0
      vertex -0.632173 11.6318 3.125
      vertex -1.17897 11.2933 3.125
    endloop
  endfacet
  facet normal 0.526432 -0.850217 0
    outer loop
      vertex -1.17897 11.2933 0
      vertex -0.632173 11.6318 0
      vertex -1.17897 11.2933 3.125
    endloop
  endfacet
  facet normal 0.18375 -0.982973 0
    outer loop
      vertex 3.88578e-16 11.75 0
      vertex 3.88578e-16 11.75 3.125
      vertex -0.632173 11.6318 3.125
    endloop
  endfacet
  facet normal 0.18375 -0.982973 0
    outer loop
      vertex -0.632173 11.6318 0
      vertex 3.88578e-16 11.75 0
      vertex -0.632173 11.6318 3.125
    endloop
  endfacet
  facet normal -0.18375 -0.982973 0
    outer loop
      vertex 0.632173 11.6318 0
      vertex 0.632173 11.6318 3.125
      vertex 3.88578e-16 11.75 3.125
    endloop
  endfacet
  facet normal -0.18375 -0.982973 0
    outer loop
      vertex 3.88578e-16 11.75 0
      vertex 0.632173 11.6318 0
      vertex 3.88578e-16 11.75 3.125
    endloop
  endfacet
  facet normal -0.526432 -0.850217 0
    outer loop
      vertex 1.17897 11.2933 0
      vertex 1.17897 11.2933 3.125
      vertex 0.632173 11.6318 3.125
    endloop
  endfacet
  facet normal -0.526432 -0.850217 0
    outer loop
      vertex 0.632173 11.6318 0
      vertex 1.17897 11.2933 0
      vertex 0.632173 11.6318 3.125
    endloop
  endfacet
  facet normal -0.798017 -0.602635 0
    outer loop
      vertex 1.56654 10.78 3.125
      vertex 1.17897 11.2933 3.125
      vertex 1.56654 10.78 0
    endloop
  endfacet
  facet normal -0.798017 -0.602635 0
    outer loop
      vertex 1.56654 10.78 0
      vertex 1.17897 11.2933 3.125
      vertex 1.17897 11.2933 0
    endloop
  endfacet
  facet normal -0.961826 -0.273663 0
    outer loop
      vertex 1.74253 10.1615 3.125
      vertex 1.56654 10.78 3.125
      vertex 1.74253 10.1615 0
    endloop
  endfacet
  facet normal -0.961826 -0.273663 0
    outer loop
      vertex 1.74253 10.1615 0
      vertex 1.56654 10.78 3.125
      vertex 1.56654 10.78 0
    endloop
  endfacet
  facet normal -0.995734 0.0922684 0
    outer loop
      vertex 1.74253 10.1615 3.125
      vertex 1.74253 10.1615 0
      vertex 1.68319 9.52109 3.125
    endloop
  endfacet
  facet normal -0.995734 0.0922684 0
    outer loop
      vertex 1.68319 9.52109 3.125
      vertex 1.74253 10.1615 0
      vertex 1.68319 9.52109 0
    endloop
  endfacet
  facet normal -0.895163 0.445738 0
    outer loop
      vertex 1.68319 9.52109 3.125
      vertex 1.68319 9.52109 0
      vertex 1.39653 8.94539 3.125
    endloop
  endfacet
  facet normal -0.895163 0.445738 0
    outer loop
      vertex 1.39653 8.94539 3.125
      vertex 1.68319 9.52109 0
      vertex 1.39653 8.94539 0
    endloop
  endfacet
  facet normal -0.673695 0.739009 0
    outer loop
      vertex 1.39653 8.94539 3.125
      vertex 1.39653 8.94539 0
      vertex 0.921256 8.51212 3.125
    endloop
  endfacet
  facet normal -0.673695 0.739009 0
    outer loop
      vertex 0.921256 8.51212 3.125
      vertex 1.39653 8.94539 0
      vertex 0.921256 8.51212 0
    endloop
  endfacet
  facet normal -0.361242 0.932472 0
    outer loop
      vertex 0.921256 8.51212 3.125
      vertex 0.921256 8.51212 0
      vertex 0.321562 8.2798 3.125
    endloop
  endfacet
  facet normal -0.361242 0.932472 0
    outer loop
      vertex 0.321562 8.2798 3.125
      vertex 0.921256 8.51212 0
      vertex 0.321562 8.2798 0
    endloop
  endfacet
  facet normal 2.22045e-16 1 0
    outer loop
      vertex 0.321562 8.2798 3.125
      vertex 0.321562 8.2798 0
      vertex -0.321562 8.2798 3.125
    endloop
  endfacet
  facet normal 2.22045e-16 1 0
    outer loop
      vertex -0.321562 8.2798 3.125
      vertex 0.321562 8.2798 0
      vertex -0.321562 8.2798 0
    endloop
  endfacet
  facet normal 0.361242 0.932472 0
    outer loop
      vertex -0.321562 8.2798 3.125
      vertex -0.321562 8.2798 0
      vertex -0.921256 8.51212 3.125
    endloop
  endfacet
  facet normal 0.361242 0.932472 0
    outer loop
      vertex -0.921256 8.51212 3.125
      vertex -0.321562 8.2798 0
      vertex -0.921256 8.51212 0
    endloop
  endfacet
  facet normal 0.673695 0.739009 0
    outer loop
      vertex -0.921256 8.51212 3.125
      vertex -0.921256 8.51212 0
      vertex -1.39653 8.94539 3.125
    endloop
  endfacet
  facet normal 0.673695 0.739009 0
    outer loop
      vertex -1.39653 8.94539 3.125
      vertex -0.921256 8.51212 0
      vertex -1.39653 8.94539 0
    endloop
  endfacet
  facet normal 0.895163 0.445738 0
    outer loop
      vertex -1.68319 9.52109 3.125
      vertex -1.39653 8.94539 3.125
      vertex -1.39653 8.94539 0
    endloop
  endfacet
  facet normal 0.895163 0.445738 0
    outer loop
      vertex -1.68319 9.52109 0
      vertex -1.68319 9.52109 3.125
      vertex -1.39653 8.94539 0
    endloop
  endfacet
  facet normal 0.932472 -0.361242 0
    outer loop
      vertex -1.48788 0.921256 0
      vertex -1.48788 0.921256 6.525
      vertex -1.7202 0.321562 6.525
    endloop
  endfacet
  facet normal 0.932472 -0.361242 0
    outer loop
      vertex -1.7202 0.321562 0
      vertex -1.48788 0.921256 0
      vertex -1.7202 0.321562 6.525
    endloop
  endfacet
  facet normal 1 0 0
    outer loop
      vertex -1.7202 0.321562 0
      vertex -1.7202 0.321562 6.525
      vertex -1.7202 -0.321562 6.525
    endloop
  endfacet
  facet normal 1 0 0
    outer loop
      vertex -1.7202 -0.321562 0
      vertex -1.7202 0.321562 0
      vertex -1.7202 -0.321562 6.525
    endloop
  endfacet
  facet normal 0.739009 -0.673695 0
    outer loop
      vertex -1.05461 1.39653 0
      vertex -1.05461 1.39653 6.525
      vertex -1.48788 0.921256 6.525
    endloop
  endfacet
  facet normal 0.739009 -0.673695 0
    outer loop
      vertex -1.48788 0.921256 0
      vertex -1.05461 1.39653 0
      vertex -1.48788 0.921256 6.525
    endloop
  endfacet
  facet normal 0.445738 -0.895163 0
    outer loop
      vertex -0.47891 1.68319 0
      vertex -0.47891 1.68319 6.525
      vertex -1.05461 1.39653 6.525
    endloop
  endfacet
  facet normal 0.445738 -0.895163 0
    outer loop
      vertex -1.05461 1.39653 0
      vertex -0.47891 1.68319 0
      vertex -1.05461 1.39653 6.525
    endloop
  endfacet
  facet normal 0.0922684 -0.995734 0
    outer loop
      vertex 0.16147 1.74253 0
      vertex 0.16147 1.74253 6.525
      vertex -0.47891 1.68319 6.525
    endloop
  endfacet
  facet normal 0.0922684 -0.995734 0
    outer loop
      vertex -0.47891 1.68319 0
      vertex 0.16147 1.74253 0
      vertex -0.47891 1.68319 6.525
    endloop
  endfacet
  facet normal -0.273663 -0.961826 0
    outer loop
      vertex 0.780042 1.56654 0
      vertex 0.780042 1.56654 6.525
      vertex 0.16147 1.74253 6.525
    endloop
  endfacet
  facet normal -0.273663 -0.961826 0
    outer loop
      vertex 0.16147 1.74253 0
      vertex 0.780042 1.56654 0
      vertex 0.16147 1.74253 6.525
    endloop
  endfacet
  facet normal -0.602635 -0.798017 0
    outer loop
      vertex 1.29327 1.17897 0
      vertex 1.29327 1.17897 6.525
      vertex 0.780042 1.56654 6.525
    endloop
  endfacet
  facet normal -0.602635 -0.798017 0
    outer loop
      vertex 0.780042 1.56654 0
      vertex 1.29327 1.17897 0
      vertex 0.780042 1.56654 6.525
    endloop
  endfacet
  facet normal -0.850217 -0.526432 0
    outer loop
      vertex 1.63183 0.632173 6.525
      vertex 1.29327 1.17897 6.525
      vertex 1.63183 0.632173 0
    endloop
  endfacet
  facet normal -0.850217 -0.526432 0
    outer loop
      vertex 1.63183 0.632173 0
      vertex 1.29327 1.17897 6.525
      vertex 1.29327 1.17897 0
    endloop
  endfacet
  facet normal -0.982973 -0.18375 0
    outer loop
      vertex 1.75 0 6.525
      vertex 1.63183 0.632173 6.525
      vertex 1.75 0 0
    endloop
  endfacet
  facet normal -0.982973 -0.18375 0
    outer loop
      vertex 1.75 0 0
      vertex 1.63183 0.632173 6.525
      vertex 1.63183 0.632173 0
    endloop
  endfacet
  facet normal -0.982973 0.18375 0
    outer loop
      vertex 1.75 0 6.525
      vertex 1.75 0 0
      vertex 1.63183 -0.632173 6.525
    endloop
  endfacet
  facet normal -0.982973 0.18375 0
    outer loop
      vertex 1.63183 -0.632173 6.525
      vertex 1.75 0 0
      vertex 1.63183 -0.632173 0
    endloop
  endfacet
  facet normal -0.850217 0.526432 0
    outer loop
      vertex 1.63183 -0.632173 6.525
      vertex 1.63183 -0.632173 0
      vertex 1.29327 -1.17897 6.525
    endloop
  endfacet
  facet normal -0.850217 0.526432 0
    outer loop
      vertex 1.29327 -1.17897 6.525
      vertex 1.63183 -0.632173 0
      vertex 1.29327 -1.17897 0
    endloop
  endfacet
  facet normal -0.602635 0.798017 0
    outer loop
      vertex 1.29327 -1.17897 6.525
      vertex 1.29327 -1.17897 0
      vertex 0.780042 -1.56654 6.525
    endloop
  endfacet
  facet normal -0.602635 0.798017 0
    outer loop
      vertex 0.780042 -1.56654 6.525
      vertex 1.29327 -1.17897 0
      vertex 0.780042 -1.56654 0
    endloop
  endfacet
  facet normal -0.273663 0.961826 0
    outer loop
      vertex 0.780042 -1.56654 6.525
      vertex 0.780042 -1.56654 0
      vertex 0.16147 -1.74253 6.525
    endloop
  endfacet
  facet normal -0.273663 0.961826 0
    outer loop
      vertex 0.16147 -1.74253 6.525
      vertex 0.780042 -1.56654 0
      vertex 0.16147 -1.74253 0
    endloop
  endfacet
  facet normal 0.0922684 0.995734 0
    outer loop
      vertex 0.16147 -1.74253 6.525
      vertex 0.16147 -1.74253 0
      vertex -0.47891 -1.68319 6.525
    endloop
  endfacet
  facet normal 0.0922684 0.995734 0
    outer loop
      vertex -0.47891 -1.68319 6.525
      vertex 0.16147 -1.74253 0
      vertex -0.47891 -1.68319 0
    endloop
  endfacet
  facet normal 0.445738 0.895163 0
    outer loop
      vertex -0.47891 -1.68319 6.525
      vertex -0.47891 -1.68319 0
      vertex -1.05461 -1.39653 6.525
    endloop
  endfacet
  facet normal 0.445738 0.895163 0
    outer loop
      vertex -1.05461 -1.39653 6.525
      vertex -0.47891 -1.68319 0
      vertex -1.05461 -1.39653 0
    endloop
  endfacet
  facet normal 0.739009 0.673695 0
    outer loop
      vertex -1.48788 -0.921256 6.525
      vertex -1.05461 -1.39653 6.525
      vertex -1.05461 -1.39653 0
    endloop
  endfacet
  facet normal 0.739009 0.673695 0
    outer loop
      vertex -1.48788 -0.921256 0
      vertex -1.48788 -0.921256 6.525
      vertex -1.05461 -1.39653 0
    endloop
  endfacet
  facet normal 0.932472 0.361242 0
    outer loop
      vertex -1.7202 -0.321562 6.525
      vertex -1.48788 -0.921256 6.525
      vertex -1.48788 -0.921256 0
    endloop
  endfacet
  facet normal 0.932472 0.361242 0
    outer loop
      vertex -1.7202 -0.321562 0
      vertex -1.7202 -0.321562 6.525
      vertex -1.48788 -0.921256 0
    endloop
  endfacet
  facet normal -0.310355 0.27336 0.910469
    outer loop
      vertex -2.98543 -9.24685 8.4499
      vertex -4.35318 -11.5481 8.67459
      vertex 0 -9.89461 9.66204
    endloop
  endfacet
  facet normal -0.111403 -0.276713 0.954473
    outer loop
      vertex 0 -9.89461 9.66204
      vertex -4.35318 -11.5481 8.67459
      vertex 0 -14.0757 8.4499
    endloop
  endfacet
  facet normal 0.0772005 0.0444177 0.996026
    outer loop
      vertex 0 -14.0757 8.4499
      vertex -4.35318 -11.5481 8.67459
      vertex -3.0287 -14.5816 8.70721
    endloop
  endfacet
  facet normal -0.322505 -0.0649177 0.944339
    outer loop
      vertex -1.66455 -3.38977 9.30364
      vertex -2.98543 -9.24685 8.4499
      vertex 0 -4.34154 9.80668
    endloop
  endfacet
  facet normal -0.670234 0.21112 0.711488
    outer loop
      vertex 0 -4.34154 9.80668
      vertex -2.98543 -9.24685 8.4499
      vertex -1.01042 -6.50336 9.49633
    endloop
  endfacet
  facet normal -0.365061 -0.0906061 0.926564
    outer loop
      vertex -1.01042 -6.50336 9.49633
      vertex -2.98543 -9.24685 8.4499
      vertex -1.8561 -8.36679 8.98091
    endloop
  endfacet
  facet normal -0.386547 -0.0592921 0.920362
    outer loop
      vertex -1.8561 -8.36679 8.98091
      vertex -2.98543 -9.24685 8.4499
      vertex 0 -9.89461 9.66204
    endloop
  endfacet
  facet normal -0.329189 -0.0630921 0.942154
    outer loop
      vertex -1.66455 -3.38977 9.30364
      vertex -3.63409 1.31862 8.93078
      vertex -2.98543 -9.24685 8.4499
    endloop
  endfacet
  facet normal -0.291058 0.670004 0.68292
    outer loop
      vertex -0.873498 16.9 4.49137
      vertex -3.43036 16.9708 3.33227
      vertex -3.02485 15.9655 4.49137
    endloop
  endfacet
  facet normal -0.894323 0.132122 0.42747
    outer loop
      vertex -3.43036 16.9708 3.33227
      vertex -3.43036 13.6804 4.34926
      vertex -3.02485 15.9655 4.49137
    endloop
  endfacet
  facet normal -0.243945 0.773255 0.585293
    outer loop
      vertex -0.467983 17.9053 3.33227
      vertex -3.43036 16.9708 3.33227
      vertex -0.873498 16.9 4.49137
    endloop
  endfacet
  facet normal -0.330731 0 0.943725
    outer loop
      vertex -3.02485 15.9655 4.49137
      vertex -3.43036 13.6804 4.34926
      vertex -3.02485 14.238 4.49137
    endloop
  endfacet
  facet normal 0.185454 -0.367163 0.911481
    outer loop
      vertex -3.02485 14.238 4.49137
      vertex -3.43036 13.6804 4.34926
      vertex -0.467983 14.1613 3.94025
    endloop
  endfacet
  facet normal 0.107637 0.170042 0.979541
    outer loop
      vertex -0.467983 14.1613 3.94025
      vertex -3.43036 13.6804 4.34926
      vertex 0 12.8981 4.10811
    endloop
  endfacet
  facet normal -0.0783613 0.159794 0.984035
    outer loop
      vertex 0.467983 17.9053 3.33227
      vertex 0 12.8981 4.10811
      vertex 0.467983 14.1613 3.94025
    endloop
  endfacet
  facet normal -0.107637 0.170042 0.979541
    outer loop
      vertex 0.467983 14.1613 3.94025
      vertex 0 12.8981 4.10811
      vertex 3.43036 13.6804 4.34926
    endloop
  endfacet
  facet normal -0.16348 0.445544 0.880207
    outer loop
      vertex 3.43036 13.6804 4.34926
      vertex 0 12.8981 4.10811
      vertex 4.22238 12.017 5.33833
    endloop
  endfacet
  facet normal -0.162118 0.449565 0.878413
    outer loop
      vertex 0 12.8981 4.10811
      vertex 0 6.63905 7.31144
      vertex 4.22238 12.017 5.33833
    endloop
  endfacet
  facet normal 0.0783613 0.159794 0.984035
    outer loop
      vertex -0.467983 17.9053 3.33227
      vertex -0.467983 14.1613 3.94025
      vertex 0 12.8981 4.10811
    endloop
  endfacet
  facet normal 0.0783621 0.159794 0.984035
    outer loop
      vertex 0 19.7574 2.99425
      vertex -0.467983 17.9053 3.33227
      vertex 0 12.8981 4.10811
    endloop
  endfacet
  facet normal -0.0783621 0.159794 0.984035
    outer loop
      vertex 0 19.7574 2.99425
      vertex 0 12.8981 4.10811
      vertex 0.467983 17.9053 3.33227
    endloop
  endfacet
  facet normal 0.0403684 0.316072 0.947876
    outer loop
      vertex 4.22238 12.017 5.33833
      vertex 0 6.63905 7.31144
      vertex 3.63409 1.31862 8.93078
    endloop
  endfacet
  facet normal -0.059254 0.253403 0.965544
    outer loop
      vertex 0 6.63905 7.31144
      vertex 0 0.456665 8.93398
      vertex 3.63409 1.31862 8.93078
    endloop
  endfacet
  facet normal 0.059254 0.253403 0.965544
    outer loop
      vertex 0 6.63905 7.31144
      vertex -3.63409 1.31862 8.93078
      vertex 0 0.456665 8.93398
    endloop
  endfacet
  facet normal 0.0128173 0.0577427 0.998249
    outer loop
      vertex 0 0.456665 8.93398
      vertex -3.63409 1.31862 8.93078
      vertex -2.07176 -0.193983 8.99822
    endloop
  endfacet
  facet normal 0.0559299 0.102048 0.993206
    outer loop
      vertex -2.07176 -0.193983 8.99822
      vertex -3.63409 1.31862 8.93078
      vertex -1.66455 -3.38977 9.30364
    endloop
  endfacet
  facet normal 0.0805408 0.198617 0.976762
    outer loop
      vertex 4.22238 18.0452 2.99425
      vertex 0 19.7574 2.99425
      vertex 0.467983 17.9053 3.33227
    endloop
  endfacet
  facet normal 0.924427 0.0611268 0.376429
    outer loop
      vertex -0.467983 17.9053 3.33227
      vertex -0.873498 16.9 4.49137
      vertex -0.467983 14.1613 3.94025
    endloop
  endfacet
  facet normal -0.165153 -0.584767 0.794212
    outer loop
      vertex 3.0287 -14.5816 8.70721
      vertex 0 -14.0757 8.4499
      vertex 2.75804 -18.6269 5.67242
    endloop
  endfacet
  facet normal 0.102602 -0.472137 0.875534
    outer loop
      vertex 0 -14.0757 8.4499
      vertex 0 -18.6269 5.99562
      vertex 2.75804 -18.6269 5.67242
    endloop
  endfacet
  facet normal 0.111403 -0.276713 0.954473
    outer loop
      vertex 0 -9.89461 9.66204
      vertex 0 -14.0757 8.4499
      vertex 4.35318 -11.5481 8.67459
    endloop
  endfacet
  facet normal -0.0772005 0.0444177 0.996026
    outer loop
      vertex 4.35318 -11.5481 8.67459
      vertex 0 -14.0757 8.4499
      vertex 3.0287 -14.5816 8.70721
    endloop
  endfacet
  facet normal 0.11525 -0.139682 0.983467
    outer loop
      vertex 0 -18.6269 5.99562
      vertex 0 -20.9025 5.67242
      vertex 2.75804 -18.6269 5.67242
    endloop
  endfacet
  facet normal -0.151364 0.607576 0.779705
    outer loop
      vertex 0 -20.9025 5.67242
      vertex 0 -23.0841 7.3724
      vertex 4.22795 -22.7377 7.92322
    endloop
  endfacet
  facet normal 0 0 1
    outer loop
      vertex 2.75804 -18.6269 5.67242
      vertex 0 -20.9025 5.67242
      vertex 2.7202 -19.9923 5.67242
    endloop
  endfacet
  facet normal -0.187154 0.559294 0.807567
    outer loop
      vertex 2.7202 -19.9923 5.67242
      vertex 0 -20.9025 5.67242
      vertex 4.22795 -22.7377 7.92322
    endloop
  endfacet
  facet normal 0.0716229 -0.994552 0.0757439
    outer loop
      vertex 4.22795 -22.7377 7.92322
      vertex 0 -23.0841 7.3724
      vertex 5.00058 -23.0841 2.64388
    endloop
  endfacet
  facet normal 0.898091 0.427486 0.103384
    outer loop
      vertex 5.00058 -23.0841 2.64388
      vertex 3.16763 -19.1155 2.15661
      vertex 4.22795 -22.7377 7.92322
    endloop
  endfacet
  facet normal 0.849853 0.502371 0.159292
    outer loop
      vertex 3.16763 -19.1155 2.15661
      vertex 3.05921 -19.6461 4.40857
      vertex 4.22795 -22.7377 7.92322
    endloop
  endfacet
  facet normal 0.907494 -0.416519 -0.0544582
    outer loop
      vertex 5.68156 -14.1453 6.03521
      vertex 3.05921 -19.6461 4.40857
      vertex 3.16763 -19.1155 2.15661
    endloop
  endfacet
  facet normal 0.892345 -0.451355 0
    outer loop
      vertex 5.68156 -14.1453 6.03521
      vertex 3.16763 -19.1155 2.15661
      vertex 5.68156 -14.1453 2.81076
    endloop
  endfacet
  facet normal 0 0 -1
    outer loop
      vertex 5.37032 15.2356 2.81076
      vertex 9.16716 8.35274 2.81076
      vertex 9.16909 -3.53049 2.81076
    endloop
  endfacet
  facet normal 0 0 -1
    outer loop
      vertex 9.16909 -3.53049 2.81076
      vertex 9.16716 8.35274 2.81076
      vertex 11.4603 -3.53049 2.81076
    endloop
  endfacet
  facet normal 0 0 -1
    outer loop
      vertex 9.16909 -3.53049 2.81076
      vertex 11.4603 -3.53049 2.81076
      vertex 11.4603 -7.08584 2.81076
    endloop
  endfacet
  facet normal 0 0 -1
    outer loop
      vertex 9.16909 -3.53049 2.81076
      vertex 11.4603 -7.08584 2.81076
      vertex 10.419 -11.2035 2.81076
    endloop
  endfacet
  facet normal 0 0 -1
    outer loop
      vertex 8.317 -11.2035 2.81076
      vertex 8.62421 -15.3917 2.81076
      vertex 8.317 -13.7388 2.81076
    endloop
  endfacet
  facet normal 0 0 -1
    outer loop
      vertex 9.16909 -7.08584 2.81076
      vertex 9.80898 -13.7388 2.81076
      vertex 9.41957 -15.3917 2.81076
    endloop
  endfacet
  facet normal 0 0 -1
    outer loop
      vertex 9.16909 -7.08584 2.81076
      vertex 9.41957 -15.3917 2.81076
      vertex 8.317 -11.2035 2.81076
    endloop
  endfacet
  facet normal 0 0 -1
    outer loop
      vertex 8.317 -13.7388 2.81076
      vertex 5.68156 -14.1453 2.81076
      vertex 5.68156 -9.33213 2.81076
    endloop
  endfacet
  facet normal 0 0 -1
    outer loop
      vertex 9.41957 -15.3917 2.81076
      vertex 8.62421 -15.3917 2.81076
      vertex 8.317 -11.2035 2.81076
    endloop
  endfacet
  facet normal 0 0 -1
    outer loop
      vertex 10.419 -11.2035 2.81076
      vertex 9.80898 -13.7388 2.81076
      vertex 9.16909 -7.08584 2.81076
    endloop
  endfacet
  facet normal 0 0 -1
    outer loop
      vertex 8.317 -11.2035 2.81076
      vertex 8.317 -13.7388 2.81076
      vertex 5.68156 -9.33213 2.81076
    endloop
  endfacet
  facet normal 0 0 -1
    outer loop
      vertex 9.16909 -3.53049 2.81076
      vertex 10.419 -11.2035 2.81076
      vertex 9.16909 -7.08584 2.81076
    endloop
  endfacet
  facet normal 0.175281 -0.984519 0
    outer loop
      vertex 5.68156 -14.1453 6.03521
      vertex 5.68156 -14.1453 2.81076
      vertex 7.96493 -13.7388 4.85744
    endloop
  endfacet
  facet normal 0.152398 -0.987972 0.0262152
    outer loop
      vertex 7.96493 -13.7388 4.85744
      vertex 5.68156 -14.1453 2.81076
      vertex 8.317 -13.7388 2.81076
    endloop
  endfacet
  facet normal 0.633879 0.773432 0
    outer loop
      vertex 7.96493 -11.2035 4.85744
      vertex 5.68156 -9.33213 2.81076
      vertex 5.68156 -9.33213 6.03521
    endloop
  endfacet
  facet normal 0.964975 0.262343 0
    outer loop
      vertex 5.68156 -9.33213 2.81076
      vertex 4.63288 -5.47478 6.36278
      vertex 5.68156 -9.33213 6.03521
    endloop
  endfacet
  facet normal 0.910733 0.385068 -0.149289
    outer loop
      vertex 5.68156 -9.33213 2.81076
      vertex 4.02327 -5.47478 2.64388
      vertex 4.63288 -5.47478 6.36278
    endloop
  endfacet
  facet normal 0.576116 0.811338 0.0991024
    outer loop
      vertex 8.317 -11.2035 2.81076
      vertex 5.68156 -9.33213 2.81076
      vertex 7.96493 -11.2035 4.85744
    endloop
  endfacet
  facet normal 0.475922 -0.87602 -0.078014
    outer loop
      vertex 4.63288 -5.47478 6.36278
      vertex 4.02327 -5.47478 2.64388
      vertex 7.96493 -3.53049 4.85744
    endloop
  endfacet
  facet normal 0.340588 -0.918611 0.200383
    outer loop
      vertex 7.96493 -3.53049 4.85744
      vertex 4.02327 -5.47478 2.64388
      vertex 9.16909 -3.53049 2.81076
    endloop
  endfacet
  facet normal -0.861893 0 -0.50709
    outer loop
      vertex 7.96493 -7.08584 4.85744
      vertex 7.96493 -3.53049 4.85744
      vertex 9.16909 -7.08584 2.81076
    endloop
  endfacet
  facet normal -0.861893 0 -0.50709
    outer loop
      vertex 9.16909 -7.08584 2.81076
      vertex 7.96493 -3.53049 4.85744
      vertex 9.16909 -3.53049 2.81076
    endloop
  endfacet
  facet normal 0.615213 0.339373 0.711575
    outer loop
      vertex 5.37032 15.2356 2.81076
      vertex 4.22238 12.017 5.33833
      vertex 9.16716 8.35274 2.81076
    endloop
  endfacet
  facet normal 0.719492 0.251697 0.647287
    outer loop
      vertex 4.22238 18.0452 2.99425
      vertex 4.22238 12.017 5.33833
      vertex 5.37032 15.2356 2.81076
    endloop
  endfacet
  facet normal 0.0777852 0.246562 0.966
    outer loop
      vertex 4.22238 18.0452 2.99425
      vertex 0.467983 17.9053 3.33227
      vertex 3.43036 16.9708 3.33227
    endloop
  endfacet
  facet normal -0.0934767 0.360828 0.927936
    outer loop
      vertex 4.22238 18.0452 2.99425
      vertex 3.43036 16.9708 3.33227
      vertex 4.22238 12.017 5.33833
    endloop
  endfacet
  facet normal 0 0 -1
    outer loop
      vertex -1.17897 11.2933 3.125
      vertex -0.632173 11.6318 3.125
      vertex -1.56654 10.78 3.125
    endloop
  endfacet
  facet normal 0 0 -1
    outer loop
      vertex -1.56654 10.78 3.125
      vertex -0.632173 11.6318 3.125
      vertex 3.88578e-16 11.75 3.125
    endloop
  endfacet
  facet normal 0 0 -1
    outer loop
      vertex -1.56654 10.78 3.125
      vertex 3.88578e-16 11.75 3.125
      vertex 0.632173 11.6318 3.125
    endloop
  endfacet
  facet normal 0 0 -1
    outer loop
      vertex -1.56654 10.78 3.125
      vertex 0.632173 11.6318 3.125
      vertex 1.17897 11.2933 3.125
    endloop
  endfacet
  facet normal 0 0 -1
    outer loop
      vertex -1.56654 10.78 3.125
      vertex 1.17897 11.2933 3.125
      vertex 1.56654 10.78 3.125
    endloop
  endfacet
  facet normal 0 0 -1
    outer loop
      vertex -1.56654 10.78 3.125
      vertex 1.56654 10.78 3.125
      vertex 1.74253 10.1615 3.125
    endloop
  endfacet
  facet normal 0 0 -1
    outer loop
      vertex -1.56654 10.78 3.125
      vertex 1.74253 10.1615 3.125
      vertex 1.68319 9.52109 3.125
    endloop
  endfacet
  facet normal 0 0 -1
    outer loop
      vertex -1.56654 10.78 3.125
      vertex 1.68319 9.52109 3.125
      vertex 1.39653 8.94539 3.125
    endloop
  endfacet
  facet normal 0 0 -1
    outer loop
      vertex -1.56654 10.78 3.125
      vertex 1.39653 8.94539 3.125
      vertex 0.921256 8.51212 3.125
    endloop
  endfacet
  facet normal 0 0 -1
    outer loop
      vertex -1.56654 10.78 3.125
      vertex 0.921256 8.51212 3.125
      vertex 0.321562 8.2798 3.125
    endloop
  endfacet
  facet normal 0 0 -1
    outer loop
      vertex -1.56654 10.78 3.125
      vertex 0.321562 8.2798 3.125
      vertex -0.321562 8.2798 3.125
    endloop
  endfacet
  facet normal 0 0 -1
    outer loop
      vertex -1.56654 10.78 3.125
      vertex -0.321562 8.2798 3.125
      vertex -0.921256 8.51212 3.125
    endloop
  endfacet
  facet normal 0 0 -1
    outer loop
      vertex -1.56654 10.78 3.125
      vertex -0.921256 8.51212 3.125
      vertex -1.39653 8.94539 3.125
    endloop
  endfacet
  facet normal 0 0 -1
    outer loop
      vertex -1.56654 10.78 3.125
      vertex -1.39653 8.94539 3.125
      vertex -1.68319 9.52109 3.125
    endloop
  endfacet
  facet normal 0 0 -1
    outer loop
      vertex -1.56654 10.78 3.125
      vertex -1.68319 9.52109 3.125
      vertex -1.74253 10.1615 3.125
    endloop
  endfacet
  facet normal 0 0 -1
    outer loop
      vertex -1.48788 0.921256 6.525
      vertex -1.05461 1.39653 6.525
      vertex -1.7202 0.321562 6.525
    endloop
  endfacet
  facet normal 0 0 -1
    outer loop
      vertex -1.7202 0.321562 6.525
      vertex -1.05461 1.39653 6.525
      vertex -0.47891 1.68319 6.525
    endloop
  endfacet
  facet normal 0 0 -1
    outer loop
      vertex -1.7202 0.321562 6.525
      vertex -0.47891 1.68319 6.525
      vertex 0.16147 1.74253 6.525
    endloop
  endfacet
  facet normal 0 0 -1
    outer loop
      vertex -1.7202 0.321562 6.525
      vertex 0.16147 1.74253 6.525
      vertex 0.780042 1.56654 6.525
    endloop
  endfacet
  facet normal 0 0 -1
    outer loop
      vertex -1.7202 0.321562 6.525
      vertex 0.780042 1.56654 6.525
      vertex 1.29327 1.17897 6.525
    endloop
  endfacet
  facet normal 0 0 -1
    outer loop
      vertex -1.7202 0.321562 6.525
      vertex 1.29327 1.17897 6.525
      vertex 1.63183 0.632173 6.525
    endloop
  endfacet
  facet normal 0 0 -1
    outer loop
      vertex -1.7202 0.321562 6.525
      vertex 1.63183 0.632173 6.525
      vertex 1.75 0 6.525
    endloop
  endfacet
  facet normal 0 0 -1
    outer loop
      vertex -1.7202 0.321562 6.525
      vertex 1.75 0 6.525
      vertex 1.63183 -0.632173 6.525
    endloop
  endfacet
  facet normal 0 0 -1
    outer loop
      vertex -1.7202 0.321562 6.525
      vertex 1.63183 -0.632173 6.525
      vertex 1.29327 -1.17897 6.525
    endloop
  endfacet
  facet normal 0 0 -1
    outer loop
      vertex -1.7202 0.321562 6.525
      vertex 1.29327 -1.17897 6.525
      vertex 0.780042 -1.56654 6.525
    endloop
  endfacet
  facet normal 0 0 -1
    outer loop
      vertex -1.7202 0.321562 6.525
      vertex 0.780042 -1.56654 6.525
      vertex 0.16147 -1.74253 6.525
    endloop
  endfacet
  facet normal 0 0 -1
    outer loop
      vertex -1.7202 0.321562 6.525
      vertex 0.16147 -1.74253 6.525
      vertex -0.47891 -1.68319 6.525
    endloop
  endfacet
  facet normal 0 0 -1
    outer loop
      vertex -1.7202 0.321562 6.525
      vertex -0.47891 -1.68319 6.525
      vertex -1.05461 -1.39653 6.525
    endloop
  endfacet
  facet normal 0 0 -1
    outer loop
      vertex -1.7202 0.321562 6.525
      vertex -1.05461 -1.39653 6.525
      vertex -1.48788 -0.921256 6.525
    endloop
  endfacet
  facet normal 0 0 -1
    outer loop
      vertex -1.7202 0.321562 6.525
      vertex -1.48788 -0.921256 6.525
      vertex -1.7202 -0.321562 6.525
    endloop
  endfacet
  facet normal 0.386547 -0.0592921 0.920362
    outer loop
      vertex 1.8561 -8.36679 8.98091
      vertex 0 -9.89461 9.66204
      vertex 2.98543 -9.24685 8.4499
    endloop
  endfacet
  facet normal 0.310355 0.27336 0.910469
    outer loop
      vertex 2.98543 -9.24685 8.4499
      vertex 0 -9.89461 9.66204
      vertex 4.35318 -11.5481 8.67459
    endloop
  endfacet
  facet normal -0.461678 -0.173013 0.870011
    outer loop
      vertex 0 -8.90607 9.85862
      vertex -1.8561 -8.36679 8.98091
      vertex 0 -9.89461 9.66204
    endloop
  endfacet
  facet normal 0.461678 -0.173013 0.870011
    outer loop
      vertex 0 -8.90607 9.85862
      vertex 0 -9.89461 9.66204
      vertex 1.8561 -8.36679 8.98091
    endloop
  endfacet
  facet normal -0.988999 -0.132335 -0.0660882
    outer loop
      vertex -1.66455 -3.38977 9.30364
      vertex -2.07176 -0.697176 10.0058
      vertex -2.07176 -0.193983 8.99822
    endloop
  endfacet
  facet normal -0.976616 -0.17882 0.11935
    outer loop
      vertex -1.66455 -2.71727 10.3112
      vertex -2.07176 -0.697176 10.0058
      vertex -1.66455 -3.38977 9.30364
    endloop
  endfacet
  facet normal -0.0448168 -0.83092 0.554584
    outer loop
      vertex -1.66455 -2.71727 10.3112
      vertex -1.66455 -3.38977 9.30364
      vertex 0 -3.38977 9.43816
    endloop
  endfacet
  facet normal -0.0751468 0.360053 0.9299
    outer loop
      vertex 0 -3.38977 9.43816
      vertex -1.66455 -3.38977 9.30364
      vertex 0 -4.34154 9.80668
    endloop
  endfacet
  facet normal 0.0751468 0.360053 0.9299
    outer loop
      vertex 0 -3.38977 9.43816
      vertex 0 -4.34154 9.80668
      vertex 1.66455 -3.38977 9.30364
    endloop
  endfacet
  facet normal 0.322505 -0.0649177 0.944339
    outer loop
      vertex 1.66455 -3.38977 9.30364
      vertex 0 -4.34154 9.80668
      vertex 2.98543 -9.24685 8.4499
    endloop
  endfacet
  facet normal 0.670234 0.21112 0.711488
    outer loop
      vertex 2.98543 -9.24685 8.4499
      vertex 0 -4.34154 9.80668
      vertex 1.01042 -6.50336 9.49633
    endloop
  endfacet
  facet normal 0 -0.142105 0.989852
    outer loop
      vertex 0 -4.34154 9.80668
      vertex -1.01042 -6.50336 9.49633
      vertex 1.01042 -6.50336 9.49633
    endloop
  endfacet
  facet normal 0 0.750045 0.661387
    outer loop
      vertex 1.01042 -6.50336 9.49633
      vertex -1.01042 -6.50336 9.49633
      vertex 0 -7.32146 10.4241
    endloop
  endfacet
  facet normal -0.239128 0.584203 0.77558
    outer loop
      vertex -1.01042 -6.50336 9.49633
      vertex -1.2534 -7.25576 9.98815
      vertex 0 -7.32146 10.4241
    endloop
  endfacet
  facet normal -0.876679 0.427431 0.220763
    outer loop
      vertex -1.01042 -6.50336 9.49633
      vertex -1.8561 -8.22571 9.47274
      vertex -1.2534 -7.25576 9.98815
    endloop
  endfacet
  facet normal -0.889817 0.438628 -0.125822
    outer loop
      vertex -1.01042 -6.50336 9.49633
      vertex -1.8561 -8.36679 8.98091
      vertex -1.8561 -8.22571 9.47274
    endloop
  endfacet
  facet normal -0.379093 -0.889487 0.255152
    outer loop
      vertex -1.8561 -8.22571 9.47274
      vertex -1.8561 -8.36679 8.98091
      vertex 0 -8.90607 9.85862
    endloop
  endfacet
  facet normal 0.805457 0 0.592654
    outer loop
      vertex -0.873498 16.9 4.49137
      vertex -0.873498 14.7189 4.49137
      vertex -0.467983 14.1613 3.94025
    endloop
  endfacet
  facet normal 0.263531 0 0.964651
    outer loop
      vertex -0.873498 16.9 4.49137
      vertex -1.74386 15.4556 4.72914
      vertex -0.873498 14.7189 4.49137
    endloop
  endfacet
  facet normal -0.0941238 0.21667 0.971697
    outer loop
      vertex -0.873498 16.9 4.49137
      vertex -3.02485 15.9655 4.49137
      vertex -1.74386 15.4556 4.72914
    endloop
  endfacet
  facet normal -0.1825 0 0.983206
    outer loop
      vertex -3.02485 15.9655 4.49137
      vertex -3.02485 14.238 4.49137
      vertex -1.74386 15.4556 4.72914
    endloop
  endfacet
  facet normal 0.0552199 -0.247012 0.967438
    outer loop
      vertex -1.74386 15.4556 4.72914
      vertex -3.02485 14.238 4.49137
      vertex -0.873498 14.7189 4.49137
    endloop
  endfacet
  facet normal 0.143301 -0.641023 0.754025
    outer loop
      vertex -0.873498 14.7189 4.49137
      vertex -3.02485 14.238 4.49137
      vertex -0.467983 14.1613 3.94025
    endloop
  endfacet
  facet normal 0.243945 0.773255 0.585293
    outer loop
      vertex 3.43036 16.9708 3.33227
      vertex 0.467983 17.9053 3.33227
      vertex 0.873498 16.9 4.49137
    endloop
  endfacet
  facet normal -0.924427 0.0611268 0.376429
    outer loop
      vertex 0.467983 17.9053 3.33227
      vertex 0.467983 14.1613 3.94025
      vertex 0.873498 16.9 4.49137
    endloop
  endfacet
  facet normal -0.805457 0 0.592654
    outer loop
      vertex 0.873498 16.9 4.49137
      vertex 0.467983 14.1613 3.94025
      vertex 0.873498 14.7189 4.49137
    endloop
  endfacet
  facet normal -0.143301 -0.641023 0.754025
    outer loop
      vertex 0.873498 14.7189 4.49137
      vertex 0.467983 14.1613 3.94025
      vertex 3.02485 14.238 4.49137
    endloop
  endfacet
  facet normal -0.185454 -0.367163 0.911481
    outer loop
      vertex 3.02485 14.238 4.49137
      vertex 0.467983 14.1613 3.94025
      vertex 3.43036 13.6804 4.34926
    endloop
  endfacet
  facet normal 0.894323 0.132122 0.42747
    outer loop
      vertex 3.43036 16.9708 3.33227
      vertex 3.02485 15.9655 4.49137
      vertex 3.43036 13.6804 4.34926
    endloop
  endfacet
  facet normal -0.497128 0.256221 0.828984
    outer loop
      vertex 3.43036 16.9708 3.33227
      vertex 3.43036 13.6804 4.34926
      vertex 4.22238 12.017 5.33833
    endloop
  endfacet
  facet normal 0.330731 0 0.943725
    outer loop
      vertex 3.02485 15.9655 4.49137
      vertex 3.02485 14.238 4.49137
      vertex 3.43036 13.6804 4.34926
    endloop
  endfacet
  facet normal 0.63777 0.411561 0.65105
    outer loop
      vertex 9.16716 8.35274 2.81076
      vertex 4.22238 12.017 5.33833
      vertex 8.36284 7.10122 4.38983
    endloop
  endfacet
  facet normal 0.344685 0.110453 0.932198
    outer loop
      vertex 8.36284 7.10122 4.38983
      vertex 4.22238 12.017 5.33833
      vertex 7.58336 2.7701 5.19122
    endloop
  endfacet
  facet normal -0.110325 -0.0558867 0.992323
    outer loop
      vertex 7.58336 2.7701 5.19122
      vertex 4.22238 12.017 5.33833
      vertex 5.14406 4.11332 4.99567
    endloop
  endfacet
  facet normal 0.907497 0.0880203 0.410732
    outer loop
      vertex 4.22238 12.017 5.33833
      vertex 3.63409 1.31862 8.93078
      vertex 5.14406 4.11332 4.99567
    endloop
  endfacet
  facet normal -0.0128173 0.0577427 0.998249
    outer loop
      vertex 3.63409 1.31862 8.93078
      vertex 0 0.456665 8.93398
      vertex 2.07176 -0.193983 8.99822
    endloop
  endfacet
  facet normal 0.928991 0.0185426 0.369637
    outer loop
      vertex 5.14406 4.11332 4.99567
      vertex 3.63409 1.31862 8.93078
      vertex 4.40588 -2.90047 7.20275
    endloop
  endfacet
  facet normal 0.827939 -0.07612 0.555628
    outer loop
      vertex 3.63409 1.31862 8.93078
      vertex 2.98543 -9.24685 8.4499
      vertex 4.40588 -2.90047 7.20275
    endloop
  endfacet
  facet normal 0.329189 -0.0630921 0.942154
    outer loop
      vertex 3.63409 1.31862 8.93078
      vertex 1.66455 -3.38977 9.30364
      vertex 2.98543 -9.24685 8.4499
    endloop
  endfacet
  facet normal -0.0559299 0.102048 0.993206
    outer loop
      vertex 2.07176 -0.193983 8.99822
      vertex 1.66455 -3.38977 9.30364
      vertex 3.63409 1.31862 8.93078
    endloop
  endfacet
  facet normal -0.00587136 0.0797166 0.9968
    outer loop
      vertex 0 0.456665 8.93398
      vertex 0 -0.346574 8.99822
      vertex 2.07176 -0.193983 8.99822
    endloop
  endfacet
  facet normal 0.00587136 0.0797166 0.9968
    outer loop
      vertex 0 0.456665 8.93398
      vertex -2.07176 -0.193983 8.99822
      vertex 0 -0.346574 8.99822
    endloop
  endfacet
  facet normal 0.0657503 0.892705 0.445819
    outer loop
      vertex -2.07176 -0.193983 8.99822
      vertex -2.07176 -0.697176 10.0058
      vertex 0 -0.346574 8.99822
    endloop
  endfacet
  facet normal 0.687932 -0.464431 0.557723
    outer loop
      vertex 3.0287 -14.5816 8.70721
      vertex 2.75804 -18.6269 5.67242
      vertex 4.39737 -14.0757 7.44028
    endloop
  endfacet
  facet normal 0.705338 -0.301062 0.641763
    outer loop
      vertex 4.35318 -11.5481 8.67459
      vertex 3.0287 -14.5816 8.70721
      vertex 4.39737 -14.0757 7.44028
    endloop
  endfacet
  facet normal 0.640901 -0.467382 0.608933
    outer loop
      vertex 4.39737 -14.0757 7.44028
      vertex 2.75804 -18.6269 5.67242
      vertex 5.68156 -14.1453 6.03521
    endloop
  endfacet
  facet normal 0.676505 -0.486098 0.553218
    outer loop
      vertex 5.68156 -14.1453 6.03521
      vertex 2.75804 -18.6269 5.67242
      vertex 3.05921 -19.6461 4.40857
    endloop
  endfacet
  facet normal 0.967322 -0.0268063 0.25213
    outer loop
      vertex 2.75804 -18.6269 5.67242
      vertex 2.7202 -19.9923 5.67242
      vertex 3.05921 -19.6461 4.40857
    endloop
  endfacet
  facet normal 0.383902 0.312995 0.868708
    outer loop
      vertex 4.63288 -5.47478 6.36278
      vertex 2.98543 -9.24685 8.4499
      vertex 4.35318 -11.5481 8.67459
    endloop
  endfacet
  facet normal 0.81324 0.173933 0.555327
    outer loop
      vertex 4.63288 -5.47478 6.36278
      vertex 4.35318 -11.5481 8.67459
      vertex 5.68156 -9.33213 6.03521
    endloop
  endfacet
  facet normal 0.92801 -0.150253 0.340913
    outer loop
      vertex 5.68156 -9.33213 6.03521
      vertex 4.35318 -11.5481 8.67459
      vertex 4.39737 -14.0757 7.44028
    endloop
  endfacet
  facet normal 0.662969 0.657541 0.357929
    outer loop
      vertex 3.05921 -19.6461 4.40857
      vertex 2.7202 -19.9923 5.67242
      vertex 4.22795 -22.7377 7.92322
    endloop
  endfacet
  facet normal 0.458414 0 0.888739
    outer loop
      vertex 5.68156 -9.33213 6.03521
      vertex 5.68156 -14.1453 6.03521
      vertex 7.96493 -13.7388 4.85744
    endloop
  endfacet
  facet normal 0.458414 0 0.888739
    outer loop
      vertex 7.96493 -11.2035 4.85744
      vertex 5.68156 -9.33213 6.03521
      vertex 7.96493 -13.7388 4.85744
    endloop
  endfacet
  facet normal 0.738146 0 0.674641
    outer loop
      vertex 5.68156 -9.33213 6.03521
      vertex 4.39737 -14.0757 7.44028
      vertex 5.68156 -14.1453 6.03521
    endloop
  endfacet
  facet normal -0.848503 0.175585 -0.499212
    outer loop
      vertex 8.317 -11.2035 2.81076
      vertex 7.96493 -7.08584 4.85744
      vertex 9.16909 -7.08584 2.81076
    endloop
  endfacet
  facet normal -0.985525 0 -0.169528
    outer loop
      vertex 8.317 -11.2035 2.81076
      vertex 7.96493 -11.2035 4.85744
      vertex 7.96493 -7.08584 4.85744
    endloop
  endfacet
  facet normal -0.95999 -0.226163 -0.165136
    outer loop
      vertex 8.43653 -15.3917 4.37964
      vertex 7.96493 -13.7388 4.85744
      vertex 8.317 -13.7388 2.81076
    endloop
  endfacet
  facet normal -0.976432 -0.181482 -0.11681
    outer loop
      vertex 8.43653 -15.3917 4.37964
      vertex 8.317 -13.7388 2.81076
      vertex 8.62421 -15.3917 2.81076
    endloop
  endfacet
  facet normal 0 -1 0
    outer loop
      vertex 9.41957 -15.3917 4.37964
      vertex 8.43653 -15.3917 4.37964
      vertex 8.62421 -15.3917 2.81076
    endloop
  endfacet
  facet normal 0 -1 0
    outer loop
      vertex 9.41957 -15.3917 2.81076
      vertex 9.41957 -15.3917 4.37964
      vertex 8.62421 -15.3917 2.81076
    endloop
  endfacet
  facet normal 0.973353 -0.229311 0
    outer loop
      vertex 9.41957 -15.3917 4.37964
      vertex 9.41957 -15.3917 2.81076
      vertex 9.80898 -13.7388 2.81076
    endloop
  endfacet
  facet normal 0.973353 -0.229311 0
    outer loop
      vertex 9.80898 -13.7388 4.85744
      vertex 9.41957 -15.3917 4.37964
      vertex 9.80898 -13.7388 2.81076
    endloop
  endfacet
  facet normal 0.972251 -0.23394 0
    outer loop
      vertex 9.80898 -13.7388 4.85744
      vertex 9.80898 -13.7388 2.81076
      vertex 10.419 -11.2035 2.81076
    endloop
  endfacet
  facet normal 0.972251 -0.23394 0
    outer loop
      vertex 10.419 -11.2035 4.85744
      vertex 9.80898 -13.7388 4.85744
      vertex 10.419 -11.2035 2.81076
    endloop
  endfacet
  facet normal 0.969481 -0.245168 0
    outer loop
      vertex 10.419 -11.2035 4.85744
      vertex 10.419 -11.2035 2.81076
      vertex 11.4603 -7.08584 2.81076
    endloop
  endfacet
  facet normal 0.969481 -0.245168 0
    outer loop
      vertex 11.4603 -7.08584 4.85744
      vertex 10.419 -11.2035 4.85744
      vertex 11.4603 -7.08584 2.81076
    endloop
  endfacet
  facet normal 1 0 0
    outer loop
      vertex 11.4603 -7.08584 4.85744
      vertex 11.4603 -7.08584 2.81076
      vertex 11.4603 -3.53049 2.81076
    endloop
  endfacet
  facet normal 1 0 0
    outer loop
      vertex 11.4603 -3.53049 4.85744
      vertex 11.4603 -7.08584 4.85744
      vertex 11.4603 -3.53049 2.81076
    endloop
  endfacet
  facet normal 0.981885 0.189478 0
    outer loop
      vertex 11.4603 -3.53049 2.81076
      vertex 9.16716 8.35274 2.81076
      vertex 11.4603 -3.53049 4.85744
    endloop
  endfacet
  facet normal 0.876057 0.240992 0.417668
    outer loop
      vertex 11.4603 -3.53049 4.85744
      vertex 9.16716 8.35274 2.81076
      vertex 9.94457 1.97954 4.85744
    endloop
  endfacet
  facet normal 0.743778 0.284909 0.604666
    outer loop
      vertex 9.16716 8.35274 2.81076
      vertex 8.36284 7.10122 4.38983
      vertex 9.94457 1.97954 4.85744
    endloop
  endfacet
  facet normal -0.460569 0 0.887624
    outer loop
      vertex 7.96493 -11.2035 4.85744
      vertex 7.96493 -13.7388 4.85744
      vertex 9.37604 -8.88966 5.58964
    endloop
  endfacet
  facet normal -0.460569 0 0.887624
    outer loop
      vertex 7.96493 -7.08584 4.85744
      vertex 7.96493 -11.2035 4.85744
      vertex 9.37604 -8.88966 5.58964
    endloop
  endfacet
  facet normal -0.460569 0 0.887624
    outer loop
      vertex 7.96493 -3.53049 4.85744
      vertex 7.96493 -7.08584 4.85744
      vertex 9.37604 -8.88966 5.58964
    endloop
  endfacet
  facet normal 0 -0.149302 0.988792
    outer loop
      vertex 9.37604 -8.88966 5.58964
      vertex 7.96493 -13.7388 4.85744
      vertex 9.80898 -13.7388 4.85744
    endloop
  endfacet
  facet normal 0 -0.277702 0.960667
    outer loop
      vertex 9.80898 -13.7388 4.85744
      vertex 7.96493 -13.7388 4.85744
      vertex 8.43653 -15.3917 4.37964
    endloop
  endfacet
  facet normal 0 -0.277702 0.960667
    outer loop
      vertex 9.41957 -15.3917 4.37964
      vertex 9.80898 -13.7388 4.85744
      vertex 8.43653 -15.3917 4.37964
    endloop
  endfacet
  facet normal 0.915021 -0.208577 0.345299
    outer loop
      vertex 4.60555 -4.51893 7.01258
      vertex 2.98543 -9.24685 8.4499
      vertex 4.63288 -5.47478 6.36278
    endloop
  endfacet
  facet normal 0.572253 -0.449802 0.685715
    outer loop
      vertex 7.96493 -3.53049 4.85744
      vertex 4.60555 -4.51893 7.01258
      vertex 4.63288 -5.47478 6.36278
    endloop
  endfacet
  facet normal 0 -0.0529018 0.9986
    outer loop
      vertex 9.05086 -2.48039 4.91307
      vertex 7.87602 -2.48039 4.91307
      vertex 7.96493 -3.53049 4.85744
    endloop
  endfacet
  facet normal 0 -0.0529018 0.9986
    outer loop
      vertex 10.5747 -2.48039 4.91307
      vertex 9.05086 -2.48039 4.91307
      vertex 11.4603 -3.53049 4.85744
    endloop
  endfacet
  facet normal 0 -0.0529018 0.9986
    outer loop
      vertex 11.4603 -3.53049 4.85744
      vertex 9.05086 -2.48039 4.91307
      vertex 7.96493 -3.53049 4.85744
    endloop
  endfacet
  facet normal 0 0.135367 0.990795
    outer loop
      vertex 11.4603 -3.53049 4.85744
      vertex 7.96493 -3.53049 4.85744
      vertex 9.37604 -8.88966 5.58964
    endloop
  endfacet
  facet normal 0.546149 -0.0309801 0.837115
    outer loop
      vertex 7.96493 -3.53049 4.85744
      vertex 4.40588 -2.90047 7.20275
      vertex 4.60555 -4.51893 7.01258
    endloop
  endfacet
  facet normal 0.563495 0.193428 0.803155
    outer loop
      vertex 5.14406 4.11332 4.99567
      vertex 4.40588 -2.90047 7.20275
      vertex 7.96493 -3.53049 4.85744
    endloop
  endfacet
  facet normal -0.121546 -0.0627689 0.990599
    outer loop
      vertex 7.87602 -2.48039 4.91307
      vertex 5.14406 4.11332 4.99567
      vertex 7.96493 -3.53049 4.85744
    endloop
  endfacet
  facet normal 0.291058 0.670004 0.68292
    outer loop
      vertex 3.43036 16.9708 3.33227
      vertex 0.873498 16.9 4.49137
      vertex 3.02485 15.9655 4.49137
    endloop
  endfacet
  facet normal 0.379093 -0.889487 0.255152
    outer loop
      vertex 1.8561 -8.22571 9.47274
      vertex 0 -8.90607 9.85862
      vertex 1.8561 -8.36679 8.98091
    endloop
  endfacet
  facet normal 0.889817 0.438628 -0.125822
    outer loop
      vertex 1.8561 -8.36679 8.98091
      vertex 1.01042 -6.50336 9.49633
      vertex 1.8561 -8.22571 9.47274
    endloop
  endfacet
  facet normal 0.365061 -0.0906061 0.926564
    outer loop
      vertex 2.98543 -9.24685 8.4499
      vertex 1.01042 -6.50336 9.49633
      vertex 1.8561 -8.36679 8.98091
    endloop
  endfacet
  facet normal 0.670774 -0.00438784 0.741649
    outer loop
      vertex 4.40588 -2.90047 7.20275
      vertex 2.98543 -9.24685 8.4499
      vertex 4.60555 -4.51893 7.01258
    endloop
  endfacet
  facet normal -0.257913 -0.163536 0.952227
    outer loop
      vertex 0 -8.47178 9.93321
      vertex -1.8561 -8.22571 9.47274
      vertex 0 -8.90607 9.85862
    endloop
  endfacet
  facet normal 0.257913 -0.163536 0.952227
    outer loop
      vertex 0 -8.47178 9.93321
      vertex 0 -8.90607 9.85862
      vertex 1.8561 -8.22571 9.47274
    endloop
  endfacet
  facet normal 0.000910122 0.943875 0.330303
    outer loop
      vertex 0 -0.346574 8.99822
      vertex -2.07176 -0.697176 10.0058
      vertex 0 -0.849767 10.4361
    endloop
  endfacet
  facet normal -0.194536 0.108185 0.974911
    outer loop
      vertex 0 -0.849767 10.4361
      vertex -2.07176 -0.697176 10.0058
      vertex -1.66455 -2.71727 10.3112
    endloop
  endfacet
  facet normal -0.142297 -0.896611 0.419333
    outer loop
      vertex 0 -2.71727 10.8761
      vertex -1.66455 -2.71727 10.3112
      vertex 0 -3.38977 9.43816
    endloop
  endfacet
  facet normal -0.313634 0.217729 0.924245
    outer loop
      vertex 0 -0.849767 10.4361
      vertex -1.66455 -2.71727 10.3112
      vertex 0 -2.71727 10.8761
    endloop
  endfacet
  facet normal 0.142297 -0.896611 0.419333
    outer loop
      vertex 0 -2.71727 10.8761
      vertex 0 -3.38977 9.43816
      vertex 1.66455 -2.71727 10.3112
    endloop
  endfacet
  facet normal 0.0448168 -0.83092 0.554584
    outer loop
      vertex 1.66455 -2.71727 10.3112
      vertex 0 -3.38977 9.43816
      vertex 1.66455 -3.38977 9.30364
    endloop
  endfacet
  facet normal 0.988999 -0.132335 -0.0660882
    outer loop
      vertex 2.07176 -0.697176 10.0058
      vertex 1.66455 -3.38977 9.30364
      vertex 2.07176 -0.193983 8.99822
    endloop
  endfacet
  facet normal 0.976616 -0.17882 0.11935
    outer loop
      vertex 1.66455 -2.71727 10.3112
      vertex 1.66455 -3.38977 9.30364
      vertex 2.07176 -0.697176 10.0058
    endloop
  endfacet
  facet normal 0.876679 0.427431 0.220763
    outer loop
      vertex 1.8561 -8.22571 9.47274
      vertex 1.01042 -6.50336 9.49633
      vertex 1.2534 -7.25576 9.98815
    endloop
  endfacet
  facet normal 0.239128 0.584203 0.77558
    outer loop
      vertex 1.01042 -6.50336 9.49633
      vertex 0 -7.32146 10.4241
      vertex 1.2534 -7.25576 9.98815
    endloop
  endfacet
  facet normal 0.322295 -0.371547 0.870677
    outer loop
      vertex 0 -7.32146 10.4241
      vertex 0 -8.47178 9.93321
      vertex 1.2534 -7.25576 9.98815
    endloop
  endfacet
  facet normal -0.322295 -0.371547 0.870677
    outer loop
      vertex 0 -7.32146 10.4241
      vertex -1.2534 -7.25576 9.98815
      vertex 0 -8.47178 9.93321
    endloop
  endfacet
  facet normal -0.267749 -0.317092 0.909815
    outer loop
      vertex -1.2534 -7.25576 9.98815
      vertex -1.8561 -8.22571 9.47274
      vertex 0 -8.47178 9.93321
    endloop
  endfacet
  facet normal 0.0941238 0.21667 0.971697
    outer loop
      vertex 3.02485 15.9655 4.49137
      vertex 0.873498 16.9 4.49137
      vertex 1.74386 15.4556 4.72914
    endloop
  endfacet
  facet normal -0.263531 0 0.964651
    outer loop
      vertex 0.873498 16.9 4.49137
      vertex 0.873498 14.7189 4.49137
      vertex 1.74386 15.4556 4.72914
    endloop
  endfacet
  facet normal -0.0552199 -0.247012 0.967438
    outer loop
      vertex 1.74386 15.4556 4.72914
      vertex 0.873498 14.7189 4.49137
      vertex 3.02485 14.238 4.49137
    endloop
  endfacet
  facet normal 0.1825 0 0.983206
    outer loop
      vertex 3.02485 15.9655 4.49137
      vertex 1.74386 15.4556 4.72914
      vertex 3.02485 14.238 4.49137
    endloop
  endfacet
  facet normal 0.186299 0.146239 0.971549
    outer loop
      vertex 8.36284 7.10122 4.38983
      vertex 7.58336 2.7701 5.19122
      vertex 9.94457 1.97954 4.85744
    endloop
  endfacet
  facet normal 4.24451e-06 -0.0528987 0.9986
    outer loop
      vertex 11.4603 -3.53049 4.85744
      vertex 7.58336 2.7701 5.19122
      vertex 8.63626 0.669902 5.07996
    endloop
  endfacet
  facet normal 0 -0.0529008 0.9986
    outer loop
      vertex 8.63626 0.669902 5.07996
      vertex 7.58336 2.7701 5.19122
      vertex 7.68524 0.669902 5.07996
    endloop
  endfacet
  facet normal -0.111448 -0.0579614 0.992079
    outer loop
      vertex 7.58336 2.7701 5.19122
      vertex 5.14406 4.11332 4.99567
      vertex 7.68524 0.669902 5.07996
    endloop
  endfacet
  facet normal 0.153708 0.042283 0.987211
    outer loop
      vertex 9.94457 1.97954 4.85744
      vertex 7.58336 2.7701 5.19122
      vertex 11.4603 -3.53049 4.85744
    endloop
  endfacet
  facet normal -0.113396 -0.0594071 0.991772
    outer loop
      vertex 7.68524 0.669902 5.07996
      vertex 5.14406 4.11332 4.99567
      vertex 7.87602 -2.48039 4.91307
    endloop
  endfacet
  facet normal -0.0657503 0.892705 0.445819
    outer loop
      vertex 2.07176 -0.193983 8.99822
      vertex 0 -0.346574 8.99822
      vertex 2.07176 -0.697176 10.0058
    endloop
  endfacet
  facet normal -0.000910122 0.943875 0.330303
    outer loop
      vertex 0 -0.346574 8.99822
      vertex 0 -0.849767 10.4361
      vertex 2.07176 -0.697176 10.0058
    endloop
  endfacet
  facet normal 0.414109 -0.0996416 0.904757
    outer loop
      vertex 10.419 -11.2035 4.85744
      vertex 9.37604 -8.88966 5.58964
      vertex 9.80898 -13.7388 4.85744
    endloop
  endfacet
  facet normal 0.407965 -0.103168 0.90715
    outer loop
      vertex 11.4603 -7.08584 4.85744
      vertex 9.37604 -8.88966 5.58964
      vertex 10.419 -11.2035 4.85744
    endloop
  endfacet
  facet normal 0.331439 0 0.943477
    outer loop
      vertex 11.4603 -3.53049 4.85744
      vertex 9.37604 -8.88966 5.58964
      vertex 11.4603 -7.08584 4.85744
    endloop
  endfacet
  facet normal 1.31663e-06 -0.0529007 0.9986
    outer loop
      vertex 11.4603 -3.53049 4.85744
      vertex 8.63626 0.669902 5.07996
      vertex 10.5747 -2.48039 4.91307
    endloop
  endfacet
  facet normal 0 -0.851408 0.524504
    outer loop
      vertex 8.03071 -1.8809 5.8862
      vertex 7.87602 -2.48039 4.91307
      vertex 9.05086 -2.48039 4.91307
    endloop
  endfacet
  facet normal -0.0485949 -0.872349 0.486462
    outer loop
      vertex 9.20555 -1.8809 6.00356
      vertex 8.03071 -1.8809 5.8862
      vertex 9.05086 -2.48039 4.91307
    endloop
  endfacet
  facet normal 0.0555761 -0.878264 0.474936
    outer loop
      vertex 9.20555 -1.8809 6.00356
      vertex 9.05086 -2.48039 4.91307
      vertex 10.2085 -1.8809 5.8862
    endloop
  endfacet
  facet normal 0 -0.851408 0.524504
    outer loop
      vertex 10.2085 -1.8809 5.8862
      vertex 9.05086 -2.48039 4.91307
      vertex 10.5747 -2.48039 4.91307
    endloop
  endfacet
  facet normal 0.85162 0.524154 -0.00237893
    outer loop
      vertex 10.5747 -2.48039 4.91307
      vertex 8.63626 0.669902 5.07996
      vertex 10.2085 -1.8809 5.8862
    endloop
  endfacet
  facet normal -0.977647 -0.0697145 0.198359
    outer loop
      vertex 8.03071 -1.8809 5.8862
      vertex 7.68524 0.669902 5.07996
      vertex 7.87602 -2.48039 4.91307
    endloop
  endfacet
  facet normal 0.267749 -0.317092 0.909815
    outer loop
      vertex 1.2534 -7.25576 9.98815
      vertex 0 -8.47178 9.93321
      vertex 1.8561 -8.22571 9.47274
    endloop
  endfacet
  facet normal 0.313634 0.217729 0.924245
    outer loop
      vertex 0 -0.849767 10.4361
      vertex 0 -2.71727 10.8761
      vertex 1.66455 -2.71727 10.3112
    endloop
  endfacet
  facet normal 0.194536 0.108185 0.974911
    outer loop
      vertex 2.07176 -0.697176 10.0058
      vertex 0 -0.849767 10.4361
      vertex 1.66455 -2.71727 10.3112
    endloop
  endfacet
  facet normal 0.787899 0.563867 0.247526
    outer loop
      vertex 10.2085 -1.8809 5.8862
      vertex 8.63626 0.669902 5.07996
      vertex 8.84782 -0.104419 6.17045
    endloop
  endfacet
  facet normal -0.0724064 0.806532 0.586739
    outer loop
      vertex 8.63626 0.669902 5.07996
      vertex 7.8968 -0.104419 6.05309
      vertex 8.84782 -0.104419 6.17045
    endloop
  endfacet
  facet normal 0 0.782507 0.622642
    outer loop
      vertex 8.63626 0.669902 5.07996
      vertex 7.68524 0.669902 5.07996
      vertex 7.8968 -0.104419 6.05309
    endloop
  endfacet
  facet normal -0.985616 -0.0878595 0.144367
    outer loop
      vertex 7.8968 -0.104419 6.05309
      vertex 7.68524 0.669902 5.07996
      vertex 8.03071 -1.8809 5.8862
    endloop
  endfacet
  facet normal -0.121838 -0.101935 0.987302
    outer loop
      vertex 8.84782 -0.104419 6.17045
      vertex 7.8968 -0.104419 6.05309
      vertex 8.03071 -1.8809 5.8862
    endloop
  endfacet
  facet normal -0.0987657 -0.112771 0.9887
    outer loop
      vertex 8.84782 -0.104419 6.17045
      vertex 8.03071 -1.8809 5.8862
      vertex 9.20555 -1.8809 6.00356
    endloop
  endfacet
  facet normal 0.115942 -0.0697325 0.990805
    outer loop
      vertex 10.2085 -1.8809 5.8862
      vertex 8.84782 -0.104419 6.17045
      vertex 9.20555 -1.8809 6.00356
    endloop
  endfacet
endsolid OpenSCAD_Model
