solid OpenSCAD_Model
  facet normal -0.974361 -0.224989 0
    outer loop
      vertex -15.0824 -7.80904 2.61997
      vertex -13.712 -13.7439 2.61997
      vertex -15.0824 -7.80904 4.99567
    endloop
  endfacet
  facet normal -0.974361 -0.224989 0
    outer loop
      vertex -15.0824 -7.80904 4.99567
      vertex -13.712 -13.7439 2.61997
      vertex -13.712 -13.7439 4.99567
    endloop
  endfacet
  facet normal 0 0 -1
    outer loop
      vertex -15.0824 -7.80904 2.61997
      vertex -15.0824 -2.68468 2.61997
      vertex -13.712 -13.7439 2.61997
    endloop
  endfacet
  facet normal 0 0 -1
    outer loop
      vertex -13.712 -13.7439 2.61997
      vertex -15.0824 -2.68468 2.61997
      vertex -12.0645 14.4428 2.61997
    endloop
  endfacet
  facet normal 0 0 -1
    outer loop
      vertex -12.0671 -2.68468 2.61997
      vertex -12.0645 14.4428 2.61997
      vertex -6.10081 24.3632 2.61997
    endloop
  endfacet
  facet normal 0 0 -1
    outer loop
      vertex -13.712 -13.7439 2.61997
      vertex -12.0645 14.4428 2.61997
      vertex -12.0671 -2.68468 2.61997
    endloop
  endfacet
  facet normal 0 0 -1
    outer loop
      vertex -13.712 -13.7439 2.61997
      vertex -12.0671 -7.80904 2.61997
      vertex -10.9457 -13.7439 2.61997
    endloop
  endfacet
  facet normal 0 0 -1
    outer loop
      vertex -10.9457 -13.7439 2.61997
      vertex -7.47727 -11.0466 2.61997
      vertex -7.47727 -17.984 2.61997
    endloop
  endfacet
  facet normal 0 0 -1
    outer loop
      vertex -10.9457 -13.7439 2.61997
      vertex -7.47727 -17.984 2.61997
      vertex -13.712 -13.7439 2.61997
    endloop
  endfacet
  facet normal 0 0 -1
    outer loop
      vertex -13.712 -13.7439 2.61997
      vertex -7.47727 -17.984 2.61997
      vertex -10.9457 -17.398 2.61997
    endloop
  endfacet
  facet normal 0 0 -1
    outer loop
      vertex -13.712 -13.7439 2.61997
      vertex -10.9457 -17.398 2.61997
      vertex -11.35 -19.7804 2.61997
    endloop
  endfacet
  facet normal 0 0 -1
    outer loop
      vertex -12.9092 -17.398 2.61997
      vertex -11.35 -19.7804 2.61997
      vertex -12.3967 -19.7804 2.61997
    endloop
  endfacet
  facet normal 0 0 -1
    outer loop
      vertex -13.712 -13.7439 2.61997
      vertex -11.35 -19.7804 2.61997
      vertex -12.9092 -17.398 2.61997
    endloop
  endfacet
  facet normal 0 0 -1
    outer loop
      vertex -12.0671 -7.80904 2.61997
      vertex -13.712 -13.7439 2.61997
      vertex -12.0671 -2.68468 2.61997
    endloop
  endfacet
  facet normal -1 0 0
    outer loop
      vertex -15.0824 -7.80904 2.61997
      vertex -15.0824 -7.80904 4.99567
      vertex -15.0824 -2.68468 2.61997
    endloop
  endfacet
  facet normal -1 0 0
    outer loop
      vertex -15.0824 -2.68468 2.61997
      vertex -15.0824 -7.80904 4.99567
      vertex -15.0824 -2.68468 4.99567
    endloop
  endfacet
  facet normal -0.295961 0 0.9552
    outer loop
      vertex -15.0824 -2.68468 4.99567
      vertex -15.0824 -7.80904 4.99567
      vertex -12.3394 -10.4089 5.84557
    endloop
  endfacet
  facet normal -0.367378 -0.0848309 0.926195
    outer loop
      vertex -12.3394 -10.4089 5.84557
      vertex -15.0824 -7.80904 4.99567
      vertex -13.712 -13.7439 4.99567
    endloop
  endfacet
  facet normal -0.37308 -0.0819682 0.924171
    outer loop
      vertex -12.3394 -10.4089 5.84557
      vertex -13.712 -13.7439 4.99567
      vertex -12.9092 -17.398 4.99567
    endloop
  endfacet
  facet normal -0.976705 -0.214589 0
    outer loop
      vertex -13.712 -13.7439 2.61997
      vertex -12.9092 -17.398 2.61997
      vertex -13.712 -13.7439 4.99567
    endloop
  endfacet
  facet normal -0.976705 -0.214589 0
    outer loop
      vertex -13.712 -13.7439 4.99567
      vertex -12.9092 -17.398 2.61997
      vertex -12.9092 -17.398 4.99567
    endloop
  endfacet
  facet normal -0.977636 -0.210305 0
    outer loop
      vertex -12.9092 -17.398 2.61997
      vertex -12.3967 -19.7804 2.61997
      vertex -12.9092 -17.398 4.99567
    endloop
  endfacet
  facet normal -0.977636 -0.210305 0
    outer loop
      vertex -12.9092 -17.398 4.99567
      vertex -12.3967 -19.7804 2.61997
      vertex -12.3967 -19.7804 4.44105
    endloop
  endfacet
  facet normal 0 -1 0
    outer loop
      vertex -12.3967 -19.7804 4.44105
      vertex -12.3967 -19.7804 2.61997
      vertex -11.35 -19.7804 2.61997
    endloop
  endfacet
  facet normal 0 -1 0
    outer loop
      vertex -11.103 -19.7804 4.44105
      vertex -12.3967 -19.7804 4.44105
      vertex -11.35 -19.7804 2.61997
    endloop
  endfacet
  facet normal 0.977204 -0.165843 -0.132543
    outer loop
      vertex -11.103 -19.7804 4.44105
      vertex -11.35 -19.7804 2.61997
      vertex -10.9457 -17.398 2.61997
    endloop
  endfacet
  facet normal 0.960335 -0.206583 -0.187296
    outer loop
      vertex -10.4823 -17.398 4.99567
      vertex -11.103 -19.7804 4.44105
      vertex -10.9457 -17.398 2.61997
    endloop
  endfacet
  facet normal -0.209056 -0.977053 0.0407727
    outer loop
      vertex -10.4823 -17.398 4.99567
      vertex -10.9457 -17.398 2.61997
      vertex -7.47727 -17.984 6.36278
    endloop
  endfacet
  facet normal -0.166574 -0.986029 0
    outer loop
      vertex -7.47727 -17.984 6.36278
      vertex -10.9457 -17.398 2.61997
      vertex -7.47727 -17.984 2.61997
    endloop
  endfacet
  facet normal -0.907851 -0.419292 0
    outer loop
      vertex -7.47727 -17.984 6.36278
      vertex -7.47727 -17.984 2.61997
      vertex -4.16878 -25.1475 2.64388
    endloop
  endfacet
  facet normal -0.588091 -0.274151 -0.760914
    outer loop
      vertex -4.16878 -25.1475 2.64388
      vertex -7.47727 -17.984 2.61997
      vertex -5.01136 -16.0019 0
    endloop
  endfacet
  facet normal -0.728193 0 -0.685372
    outer loop
      vertex -5.01136 -16.0019 0
      vertex -7.47727 -17.984 2.61997
      vertex -7.47727 -11.0466 2.61997
    endloop
  endfacet
  facet normal -0.572781 0.141829 -0.807345
    outer loop
      vertex -5.01136 -16.0019 0
      vertex -7.47727 -11.0466 2.61997
      vertex -3.64852 -10.498 0
    endloop
  endfacet
  facet normal -0.564727 0 -0.825278
    outer loop
      vertex -3.64852 -10.498 0
      vertex -7.47727 -11.0466 2.61997
      vertex -3.64852 -5.487 0
    endloop
  endfacet
  facet normal -0.804789 0.31807 -0.501144
    outer loop
      vertex -3.64852 -5.487 0
      vertex -7.47727 -11.0466 2.61997
      vertex -5.29487 -5.487 2.64388
    endloop
  endfacet
  facet normal -0.913413 0.357719 0.194203
    outer loop
      vertex -5.29487 -5.487 2.64388
      vertex -7.47727 -11.0466 2.61997
      vertex -4.50418 -5.487 6.36278
    endloop
  endfacet
  facet normal -0.881829 0.471569 0
    outer loop
      vertex -4.50418 -5.487 6.36278
      vertex -7.47727 -11.0466 2.61997
      vertex -7.47727 -11.0466 6.36278
    endloop
  endfacet
  facet normal -0.667964 0.744194 0
    outer loop
      vertex -7.47727 -11.0466 2.61997
      vertex -10.4823 -13.7439 4.99567
      vertex -7.47727 -11.0466 6.36278
    endloop
  endfacet
  facet normal -0.60953 0.783799 0.118878
    outer loop
      vertex -7.47727 -11.0466 2.61997
      vertex -10.9457 -13.7439 2.61997
      vertex -10.4823 -13.7439 4.99567
    endloop
  endfacet
  facet normal 0.965051 0.182349 -0.188216
    outer loop
      vertex -10.9457 -13.7439 2.61997
      vertex -12.0671 -7.80904 2.61997
      vertex -10.4823 -13.7439 4.99567
    endloop
  endfacet
  facet normal 0.831899 0 -0.554928
    outer loop
      vertex -10.4823 -13.7439 4.99567
      vertex -12.0671 -7.80904 2.61997
      vertex -12.0671 -2.68468 2.61997
    endloop
  endfacet
  facet normal 0.831899 0 -0.554928
    outer loop
      vertex -10.4823 -2.68468 4.99567
      vertex -10.4823 -13.7439 4.99567
      vertex -12.0671 -2.68468 2.61997
    endloop
  endfacet
  facet normal -0.371195 -0.894932 0.24761
    outer loop
      vertex -10.4823 -2.68468 4.99567
      vertex -12.0671 -2.68468 2.61997
      vertex -5.29487 -5.487 2.64388
    endloop
  endfacet
  facet normal -0.371298 -0.899267 -0.231206
    outer loop
      vertex -5.29487 -5.487 2.64388
      vertex -12.0671 -2.68468 2.61997
      vertex -3.64852 -5.487 0
    endloop
  endfacet
  facet normal -0.360195 -0.239012 -0.901739
    outer loop
      vertex -3.64852 -5.487 0
      vertex -12.0671 -2.68468 2.61997
      vertex -8.05708 1.15678 0
    endloop
  endfacet
  facet normal -0.59561 0.0763669 -0.799636
    outer loop
      vertex -8.05708 1.15678 0
      vertex -12.0671 -2.68468 2.61997
      vertex -5.08165 24.3632 0
    endloop
  endfacet
  facet normal -0.91288 0.201364 -0.355108
    outer loop
      vertex -5.08165 24.3632 0
      vertex -12.0671 -2.68468 2.61997
      vertex -6.10081 24.3632 2.61997
    endloop
  endfacet
  facet normal -0.901809 0.252347 -0.350802
    outer loop
      vertex -5.08165 24.3632 0
      vertex -6.10081 24.3632 2.61997
      vertex -3.71456 29.2487 0
    endloop
  endfacet
  facet normal -0.918323 0.358176 -0.1685
    outer loop
      vertex -3.71456 29.2487 0
      vertex -6.10081 24.3632 2.61997
      vertex -4.59005 28.4127 2.99425
    endloop
  endfacet
  facet normal -0.644584 0.171617 0.745023
    outer loop
      vertex -4.59005 28.4127 2.99425
      vertex -6.10081 24.3632 2.61997
      vertex -4.59005 19.7241 4.99567
    endloop
  endfacet
  facet normal -0.464399 0.279176 0.840473
    outer loop
      vertex -6.10081 24.3632 2.61997
      vertex -12.0645 14.4428 2.61997
      vertex -4.59005 19.7241 4.99567
    endloop
  endfacet
  facet normal -0.534013 0.427701 0.729316
    outer loop
      vertex -4.59005 19.7241 4.99567
      vertex -12.0645 14.4428 2.61997
      vertex -11.006 12.6389 4.45288
    endloop
  endfacet
  facet normal -0.712121 0.249077 0.656387
    outer loop
      vertex -12.0645 14.4428 2.61997
      vertex -13.0876 5.25701 4.99567
      vertex -11.006 12.6389 4.45288
    endloop
  endfacet
  facet normal -0.858985 0.215761 0.46432
    outer loop
      vertex -12.0645 14.4428 2.61997
      vertex -15.0824 -2.68468 4.99567
      vertex -13.0876 5.25701 4.99567
    endloop
  endfacet
  facet normal -0.984829 0.17353 0
    outer loop
      vertex -12.0645 14.4428 2.61997
      vertex -15.0824 -2.68468 2.61997
      vertex -15.0824 -2.68468 4.99567
    endloop
  endfacet
  facet normal -0.13597 0.034153 0.990124
    outer loop
      vertex -13.0876 5.25701 4.99567
      vertex -15.0824 -2.68468 4.99567
      vertex -9.98015 6.39644 5.38311
    endloop
  endfacet
  facet normal 0 -0.042625 0.999091
    outer loop
      vertex -9.98015 6.39644 5.38311
      vertex -15.0824 -2.68468 4.99567
      vertex -10.4823 -2.68468 4.99567
    endloop
  endfacet
  facet normal 0 0.109371 0.994001
    outer loop
      vertex -10.4823 -2.68468 4.99567
      vertex -15.0824 -2.68468 4.99567
      vertex -12.3394 -10.4089 5.84557
    endloop
  endfacet
  facet normal 0.41614 0 0.909301
    outer loop
      vertex -10.4823 -13.7439 4.99567
      vertex -12.3394 -10.4089 5.84557
      vertex -10.4823 -17.398 4.99567
    endloop
  endfacet
  facet normal 0.41614 0 0.909301
    outer loop
      vertex -10.4823 -2.68468 4.99567
      vertex -12.3394 -10.4089 5.84557
      vertex -10.4823 -13.7439 4.99567
    endloop
  endfacet
  facet normal 0 -0.120714 0.992687
    outer loop
      vertex -12.3394 -10.4089 5.84557
      vertex -12.9092 -17.398 4.99567
      vertex -10.4823 -17.398 4.99567
    endloop
  endfacet
  facet normal 0 -0.22674 0.973955
    outer loop
      vertex -10.4823 -17.398 4.99567
      vertex -12.9092 -17.398 4.99567
      vertex -12.3967 -19.7804 4.44105
    endloop
  endfacet
  facet normal 0 -0.22674 0.973955
    outer loop
      vertex -11.103 -19.7804 4.44105
      vertex -10.4823 -17.398 4.99567
      vertex -12.3967 -19.7804 4.44105
    endloop
  endfacet
  facet normal -0.414098 0 0.910232
    outer loop
      vertex -10.4823 -13.7439 4.99567
      vertex -10.4823 -17.398 4.99567
      vertex -7.47727 -17.984 6.36278
    endloop
  endfacet
  facet normal -0.414098 0 0.910232
    outer loop
      vertex -7.47727 -11.0466 6.36278
      vertex -10.4823 -13.7439 4.99567
      vertex -7.47727 -17.984 6.36278
    endloop
  endfacet
  facet normal -0.893811 0 0.448444
    outer loop
      vertex -7.47727 -11.0466 6.36278
      vertex -7.47727 -17.984 6.36278
      vertex -5.7872 -13.2602 9.7313
    endloop
  endfacet
  facet normal -0.773798 -0.160174 0.612846
    outer loop
      vertex -5.7872 -13.2602 9.7313
      vertex -7.47727 -17.984 6.36278
      vertex -3.62974 -19.82 10.7409
    endloop
  endfacet
  facet normal -0.772838 -0.336412 0.538096
    outer loop
      vertex -3.62974 -19.82 10.7409
      vertex -7.47727 -17.984 6.36278
      vertex -4.0261 -25.9123 6.36278
    endloop
  endfacet
  facet normal -0.915891 -0.398683 -0.0468528
    outer loop
      vertex -4.0261 -25.9123 6.36278
      vertex -7.47727 -17.984 6.36278
      vertex -4.16878 -25.1475 2.64388
    endloop
  endfacet
  facet normal -0.660335 0.730176 0.175502
    outer loop
      vertex -4.16878 -25.1475 2.64388
      vertex -5.56423 -28.8854 12.9452
      vertex -4.0261 -25.9123 6.36278
    endloop
  endfacet
  facet normal -0.921294 0.388531 0.0161816
    outer loop
      vertex -4.16878 -25.1475 2.64388
      vertex -6.58106 -30.8675 2.64388
      vertex -5.56423 -28.8854 12.9452
    endloop
  endfacet
  facet normal -0.84134 0.354812 -0.407744
    outer loop
      vertex -4.46384 -28.8854 0
      vertex -6.58106 -30.8675 2.64388
      vertex -4.16878 -25.1475 2.64388
    endloop
  endfacet
  facet normal -0.780051 0.401199 -0.480167
    outer loop
      vertex -2.93469 -25.9123 0
      vertex -4.46384 -28.8854 0
      vertex -4.16878 -25.1475 2.64388
    endloop
  endfacet
  facet normal -0.909515 -0.190584 -0.369406
    outer loop
      vertex -4.16878 -25.1475 2.64388
      vertex -5.01136 -16.0019 0
      vertex -2.93469 -25.9123 0
    endloop
  endfacet
  facet normal 0 0 -1
    outer loop
      vertex -8.05708 1.15678 0
      vertex -5.08165 24.3632 0
      vertex -3.64852 -5.487 0
    endloop
  endfacet
  facet normal 0 0 -1
    outer loop
      vertex -3.64852 -5.487 0
      vertex -5.08165 24.3632 0
      vertex -3.71456 29.2487 0
    endloop
  endfacet
  facet normal 0 0 -1
    outer loop
      vertex -2.2981 12.2981 0
      vertex -3.71456 29.2487 0
      vertex 3.71456 29.2487 0
    endloop
  endfacet
  facet normal 0 0 -1
    outer loop
      vertex 1.24372 13.0026 0
      vertex 3.71456 29.2487 0
      vertex 5.08165 24.3632 0
    endloop
  endfacet
  facet normal 0 0 -1
    outer loop
      vertex 3.25 0 0
      vertex 5.08165 24.3632 0
      vertex 8.05708 1.15678 0
    endloop
  endfacet
  facet normal 0 0 -1
    outer loop
      vertex 1.8056 -2.70228 0
      vertex 8.05708 1.15678 0
      vertex 3.64852 -5.487 0
    endloop
  endfacet
  facet normal 0 0 -1
    outer loop
      vertex -3.64852 -5.487 0
      vertex 3.64852 -5.487 0
      vertex 3.64852 -10.498 0
    endloop
  endfacet
  facet normal 0 0 -1
    outer loop
      vertex 3.64852 -10.498 0
      vertex 5.01136 -16.0019 0
      vertex -3.64852 -5.487 0
    endloop
  endfacet
  facet normal 0 0 -1
    outer loop
      vertex -3.64852 -5.487 0
      vertex 5.01136 -16.0019 0
      vertex 2.93469 -25.9123 0
    endloop
  endfacet
  facet normal 0 0 -1
    outer loop
      vertex -3.64852 -10.498 0
      vertex 0 -30.8675 0
      vertex -2.93469 -25.9123 0
    endloop
  endfacet
  facet normal 0 0 -1
    outer loop
      vertex 2.93469 -25.9123 0
      vertex 4.46384 -28.8854 0
      vertex 0 -30.8675 0
    endloop
  endfacet
  facet normal 0 0 -1
    outer loop
      vertex -2.70228 -1.8056 0
      vertex -3.64852 -5.487 0
      vertex -3.00261 -1.24372 0
    endloop
  endfacet
  facet normal 0 0 -1
    outer loop
      vertex 0 -30.8675 0
      vertex -4.46384 -28.8854 0
      vertex -2.93469 -25.9123 0
    endloop
  endfacet
  facet normal 0 0 -1
    outer loop
      vertex 2.93469 -25.9123 0
      vertex 0 -30.8675 0
      vertex -3.64852 -10.498 0
    endloop
  endfacet
  facet normal 0 0 -1
    outer loop
      vertex -3.64852 -10.498 0
      vertex -2.93469 -25.9123 0
      vertex -5.01136 -16.0019 0
    endloop
  endfacet
  facet normal 0 0 -1
    outer loop
      vertex -3.64852 -5.487 0
      vertex -3.71456 29.2487 0
      vertex -3.25 0 0
    endloop
  endfacet
  facet normal 0 0 -1
    outer loop
      vertex -3.18755 9.36596 0
      vertex -3.00261 1.24372 0
      vertex -3.25 10 0
    endloop
  endfacet
  facet normal 0 0 -1
    outer loop
      vertex -3.64852 -5.487 0
      vertex -3.25 0 0
      vertex -3.18755 -0.634044 0
    endloop
  endfacet
  facet normal 0 0 -1
    outer loop
      vertex -3.64852 -5.487 0
      vertex -3.18755 -0.634044 0
      vertex -3.00261 -1.24372 0
    endloop
  endfacet
  facet normal 0 0 -1
    outer loop
      vertex -7.21645e-16 6.75 0
      vertex -1.24372 3.00261 0
      vertex -1.8056 2.70228 0
    endloop
  endfacet
  facet normal 0 0 -1
    outer loop
      vertex -7.21645e-16 6.75 0
      vertex -1.8056 2.70228 0
      vertex -0.634044 6.81245 0
    endloop
  endfacet
  facet normal 0 0 -1
    outer loop
      vertex -3.64852 -5.487 0
      vertex -2.2981 -2.2981 0
      vertex -1.8056 -2.70228 0
    endloop
  endfacet
  facet normal 0 0 -1
    outer loop
      vertex -3.64852 -5.487 0
      vertex -1.8056 -2.70228 0
      vertex -1.24372 -3.00261 0
    endloop
  endfacet
  facet normal 0 0 -1
    outer loop
      vertex -1.24372 3.00261 0
      vertex -7.21645e-16 6.75 0
      vertex -0.634044 3.18755 0
    endloop
  endfacet
  facet normal 0 0 -1
    outer loop
      vertex -3.64852 -5.487 0
      vertex -1.24372 -3.00261 0
      vertex -0.634044 -3.18755 0
    endloop
  endfacet
  facet normal 0 0 -1
    outer loop
      vertex -3.64852 -5.487 0
      vertex -0.634044 -3.18755 0
      vertex 0 -3.25 0
    endloop
  endfacet
  facet normal 0 0 -1
    outer loop
      vertex 2.2981 -2.2981 0
      vertex 8.05708 1.15678 0
      vertex 1.8056 -2.70228 0
    endloop
  endfacet
  facet normal 0 0 -1
    outer loop
      vertex -3.64852 -5.487 0
      vertex 0.634044 -3.18755 0
      vertex 3.64852 -5.487 0
    endloop
  endfacet
  facet normal 0 0 -1
    outer loop
      vertex 2.70228 -1.8056 0
      vertex 8.05708 1.15678 0
      vertex 2.2981 -2.2981 0
    endloop
  endfacet
  facet normal 0 0 -1
    outer loop
      vertex 0.634044 -3.18755 0
      vertex 1.24372 -3.00261 0
      vertex 3.64852 -5.487 0
    endloop
  endfacet
  facet normal 0 0 -1
    outer loop
      vertex 1.24372 -3.00261 0
      vertex 1.8056 -2.70228 0
      vertex 3.64852 -5.487 0
    endloop
  endfacet
  facet normal 0 0 -1
    outer loop
      vertex 3.18755 -0.634044 0
      vertex 8.05708 1.15678 0
      vertex 3.00261 -1.24372 0
    endloop
  endfacet
  facet normal 0 0 -1
    outer loop
      vertex 3.25 0 0
      vertex 8.05708 1.15678 0
      vertex 3.18755 -0.634044 0
    endloop
  endfacet
  facet normal 0 0 -1
    outer loop
      vertex 3.18755 0.634044 0
      vertex 5.08165 24.3632 0
      vertex 3.25 0 0
    endloop
  endfacet
  facet normal 0 0 -1
    outer loop
      vertex 3.00261 1.24372 0
      vertex 5.08165 24.3632 0
      vertex 3.18755 0.634044 0
    endloop
  endfacet
  facet normal 0 0 -1
    outer loop
      vertex 2.70228 1.8056 0
      vertex 5.08165 24.3632 0
      vertex 3.00261 1.24372 0
    endloop
  endfacet
  facet normal 0 0 -1
    outer loop
      vertex 2.2981 2.2981 0
      vertex 5.08165 24.3632 0
      vertex 2.70228 1.8056 0
    endloop
  endfacet
  facet normal 0 0 -1
    outer loop
      vertex 3.18755 9.36596 0
      vertex 5.08165 24.3632 0
      vertex 2.2981 2.2981 0
    endloop
  endfacet
  facet normal 0 0 -1
    outer loop
      vertex 2.70228 11.8056 0
      vertex 5.08165 24.3632 0
      vertex 3.00261 11.2437 0
    endloop
  endfacet
  facet normal 0 0 -1
    outer loop
      vertex 2.2981 12.2981 0
      vertex 5.08165 24.3632 0
      vertex 2.70228 11.8056 0
    endloop
  endfacet
  facet normal 0 0 -1
    outer loop
      vertex -0.634044 13.1876 0
      vertex 3.71456 29.2487 0
      vertex 7.21645e-16 13.25 0
    endloop
  endfacet
  facet normal 0 0 -1
    outer loop
      vertex 0.634044 6.81245 0
      vertex -0.634044 3.18755 0
      vertex -7.21645e-16 6.75 0
    endloop
  endfacet
  facet normal 0 0 -1
    outer loop
      vertex -2.2981 -2.2981 0
      vertex -3.64852 -5.487 0
      vertex -2.70228 -1.8056 0
    endloop
  endfacet
  facet normal 0 0 -1
    outer loop
      vertex -0.634044 6.81245 0
      vertex -1.8056 2.70228 0
      vertex -1.24372 6.99739 0
    endloop
  endfacet
  facet normal 0 0 -1
    outer loop
      vertex -1.24372 6.99739 0
      vertex -2.2981 2.2981 0
      vertex -2.70228 1.8056 0
    endloop
  endfacet
  facet normal 0 0 -1
    outer loop
      vertex -3.25 10 0
      vertex -3.71456 29.2487 0
      vertex -3.18755 10.634 0
    endloop
  endfacet
  facet normal 0 0 -1
    outer loop
      vertex -3.25 0 0
      vertex -3.71456 29.2487 0
      vertex -3.18755 0.634044 0
    endloop
  endfacet
  facet normal 0 0 -1
    outer loop
      vertex -3.18755 0.634044 0
      vertex -3.71456 29.2487 0
      vertex -3.25 10 0
    endloop
  endfacet
  facet normal 0 0 -1
    outer loop
      vertex -3.18755 0.634044 0
      vertex -3.25 10 0
      vertex -3.00261 1.24372 0
    endloop
  endfacet
  facet normal 0 0 -1
    outer loop
      vertex -1.24372 6.99739 0
      vertex -2.70228 1.8056 0
      vertex -3.00261 1.24372 0
    endloop
  endfacet
  facet normal 0 0 -1
    outer loop
      vertex -3.00261 1.24372 0
      vertex -3.18755 9.36596 0
      vertex -3.00261 8.75628 0
    endloop
  endfacet
  facet normal 0 0 -1
    outer loop
      vertex -3.00261 1.24372 0
      vertex -3.00261 8.75628 0
      vertex -2.70228 8.1944 0
    endloop
  endfacet
  facet normal 0 0 -1
    outer loop
      vertex -3.00261 1.24372 0
      vertex -2.70228 8.1944 0
      vertex -2.2981 7.7019 0
    endloop
  endfacet
  facet normal 0 0 -1
    outer loop
      vertex -3.00261 1.24372 0
      vertex -2.2981 7.7019 0
      vertex -1.8056 7.29772 0
    endloop
  endfacet
  facet normal 0 0 -1
    outer loop
      vertex -2.2981 2.2981 0
      vertex -1.24372 6.99739 0
      vertex -1.8056 2.70228 0
    endloop
  endfacet
  facet normal 0 0 -1
    outer loop
      vertex 3.00261 -1.24372 0
      vertex 8.05708 1.15678 0
      vertex 2.70228 -1.8056 0
    endloop
  endfacet
  facet normal 0 0 -1
    outer loop
      vertex 0.634044 -3.18755 0
      vertex -3.64852 -5.487 0
      vertex 0 -3.25 0
    endloop
  endfacet
  facet normal 0 0 -1
    outer loop
      vertex 1.24372 6.99739 0
      vertex 0 3.25 0
      vertex 0.634044 6.81245 0
    endloop
  endfacet
  facet normal 0 0 -1
    outer loop
      vertex -0.634044 3.18755 0
      vertex 0.634044 6.81245 0
      vertex 0 3.25 0
    endloop
  endfacet
  facet normal 0 0 -1
    outer loop
      vertex 1.8056 12.7023 0
      vertex 5.08165 24.3632 0
      vertex 2.2981 12.2981 0
    endloop
  endfacet
  facet normal 0 0 -1
    outer loop
      vertex 0 3.25 0
      vertex 1.24372 6.99739 0
      vertex 0.634044 3.18755 0
    endloop
  endfacet
  facet normal 0 0 -1
    outer loop
      vertex 2.2981 7.7019 0
      vertex 1.24372 3.00261 0
      vertex 1.8056 7.29772 0
    endloop
  endfacet
  facet normal 0 0 -1
    outer loop
      vertex 0.634044 3.18755 0
      vertex 1.8056 7.29772 0
      vertex 1.24372 3.00261 0
    endloop
  endfacet
  facet normal 0 0 -1
    outer loop
      vertex 2.70228 8.1944 0
      vertex 1.8056 2.70228 0
      vertex 2.2981 7.7019 0
    endloop
  endfacet
  facet normal 0 0 -1
    outer loop
      vertex 1.24372 3.00261 0
      vertex 2.2981 7.7019 0
      vertex 1.8056 2.70228 0
    endloop
  endfacet
  facet normal 0 0 -1
    outer loop
      vertex 3.18755 10.634 0
      vertex 5.08165 24.3632 0
      vertex 3.25 10 0
    endloop
  endfacet
  facet normal 0 0 -1
    outer loop
      vertex 1.8056 2.70228 0
      vertex 2.70228 8.1944 0
      vertex 2.2981 2.2981 0
    endloop
  endfacet
  facet normal 0 0 -1
    outer loop
      vertex 3.00261 11.2437 0
      vertex 5.08165 24.3632 0
      vertex 3.18755 10.634 0
    endloop
  endfacet
  facet normal 0 0 -1
    outer loop
      vertex 2.70228 8.1944 0
      vertex 3.00261 8.75628 0
      vertex 2.2981 2.2981 0
    endloop
  endfacet
  facet normal 0 0 -1
    outer loop
      vertex 3.25 10 0
      vertex 5.08165 24.3632 0
      vertex 3.18755 9.36596 0
    endloop
  endfacet
  facet normal 0 0 -1
    outer loop
      vertex 3.00261 8.75628 0
      vertex 3.18755 9.36596 0
      vertex 2.2981 2.2981 0
    endloop
  endfacet
  facet normal 0 0 -1
    outer loop
      vertex 1.8056 7.29772 0
      vertex 0.634044 3.18755 0
      vertex 1.24372 6.99739 0
    endloop
  endfacet
  facet normal 0 0 -1
    outer loop
      vertex 1.24372 13.0026 0
      vertex 5.08165 24.3632 0
      vertex 1.8056 12.7023 0
    endloop
  endfacet
  facet normal 0 0 -1
    outer loop
      vertex 0.634044 13.1876 0
      vertex 3.71456 29.2487 0
      vertex 1.24372 13.0026 0
    endloop
  endfacet
  facet normal 0 0 -1
    outer loop
      vertex 7.21645e-16 13.25 0
      vertex 3.71456 29.2487 0
      vertex 0.634044 13.1876 0
    endloop
  endfacet
  facet normal 0 0 -1
    outer loop
      vertex -1.24372 13.0026 0
      vertex 3.71456 29.2487 0
      vertex -0.634044 13.1876 0
    endloop
  endfacet
  facet normal 0 0 -1
    outer loop
      vertex -1.8056 12.7023 0
      vertex 3.71456 29.2487 0
      vertex -1.24372 13.0026 0
    endloop
  endfacet
  facet normal 0 0 -1
    outer loop
      vertex -2.2981 12.2981 0
      vertex 3.71456 29.2487 0
      vertex -1.8056 12.7023 0
    endloop
  endfacet
  facet normal 0 0 -1
    outer loop
      vertex -2.70228 11.8056 0
      vertex -3.71456 29.2487 0
      vertex -2.2981 12.2981 0
    endloop
  endfacet
  facet normal 0 0 -1
    outer loop
      vertex -3.00261 11.2437 0
      vertex -3.71456 29.2487 0
      vertex -2.70228 11.8056 0
    endloop
  endfacet
  facet normal 0 0 -1
    outer loop
      vertex -3.18755 10.634 0
      vertex -3.71456 29.2487 0
      vertex -3.00261 11.2437 0
    endloop
  endfacet
  facet normal 0 0 -1
    outer loop
      vertex -1.24372 6.99739 0
      vertex -3.00261 1.24372 0
      vertex -1.8056 7.29772 0
    endloop
  endfacet
  facet normal 0 0 -1
    outer loop
      vertex -3.64852 -5.487 0
      vertex 2.93469 -25.9123 0
      vertex -3.64852 -10.498 0
    endloop
  endfacet
  facet normal -0.440042 -0.89309 0.0935585
    outer loop
      vertex -4.50418 -5.487 6.36278
      vertex -10.4823 -2.68468 4.99567
      vertex -5.29487 -5.487 2.64388
    endloop
  endfacet
  facet normal -0.456982 -0.854669 0.246392
    outer loop
      vertex -6.47535 -4.10933 7.48562
      vertex -10.4823 -2.68468 4.99567
      vertex -4.50418 -5.487 6.36278
    endloop
  endfacet
  facet normal -0.590814 -0.805311 -0.049111
    outer loop
      vertex -3.75942 -6.30039 10.7409
      vertex -6.47535 -4.10933 7.48562
      vertex -4.50418 -5.487 6.36278
    endloop
  endfacet
  facet normal -0.865918 0.444253 0.229836
    outer loop
      vertex -4.50418 -5.487 6.36278
      vertex -5.72904 -9.61716 9.7313
      vertex -3.75942 -6.30039 10.7409
    endloop
  endfacet
  facet normal -0.853963 0.456667 0.249405
    outer loop
      vertex -4.50418 -5.487 6.36278
      vertex -7.47727 -11.0466 6.36278
      vertex -5.72904 -9.61716 9.7313
    endloop
  endfacet
  facet normal -0.889947 0.0142084 0.455843
    outer loop
      vertex -5.72904 -9.61716 9.7313
      vertex -7.47727 -11.0466 6.36278
      vertex -5.7872 -13.2602 9.7313
    endloop
  endfacet
  facet normal 0.110037 -0.0484391 0.992746
    outer loop
      vertex -9.98015 6.39644 5.38311
      vertex -10.4823 -2.68468 4.99567
      vertex -5.63248 8.33244 4.99567
    endloop
  endfacet
  facet normal -0.765813 0.337118 0.547616
    outer loop
      vertex -5.63248 8.33244 4.99567
      vertex -10.4823 -2.68468 4.99567
      vertex -4.66099 2.84673 9.7313
    endloop
  endfacet
  facet normal -0.554625 -0.121111 0.82324
    outer loop
      vertex -4.66099 2.84673 9.7313
      vertex -10.4823 -2.68468 4.99567
      vertex -6.47535 -4.10933 7.48562
    endloop
  endfacet
  facet normal 0 0.878074 -0.478524
    outer loop
      vertex 3.71456 29.2487 0
      vertex -3.71456 29.2487 0
      vertex 0 30.8805 2.99425
    endloop
  endfacet
  facet normal -0.470831 0.875729 0.106851
    outer loop
      vertex -3.71456 29.2487 0
      vertex -4.59005 28.4127 2.99425
      vertex 0 30.8805 2.99425
    endloop
  endfacet
  facet normal -0.0600845 0.111755 0.991918
    outer loop
      vertex 0 30.8805 2.99425
      vertex -4.59005 28.4127 2.99425
      vertex 0 20.9941 4.10811
    endloop
  endfacet
  facet normal 0.12533 0.222703 0.966797
    outer loop
      vertex -4.59005 28.4127 2.99425
      vertex -4.59005 19.7241 4.99567
      vertex 0 20.9941 4.10811
    endloop
  endfacet
  facet normal 0.0924971 -0.00846427 0.995677
    outer loop
      vertex -4.59005 19.7241 4.99567
      vertex -9.98015 6.39644 5.38311
      vertex -5.63248 8.33244 4.99567
    endloop
  endfacet
  facet normal -0.20507 0.111204 0.972409
    outer loop
      vertex -4.59005 19.7241 4.99567
      vertex -11.006 12.6389 4.45288
      vertex -9.98015 6.39644 5.38311
    endloop
  endfacet
  facet normal 0.104608 0.287328 0.952103
    outer loop
      vertex 0 20.9941 4.10811
      vertex -4.59005 19.7241 4.99567
      vertex 0 11.9728 6.83056
    endloop
  endfacet
  facet normal 0.441194 0.445651 0.778938
    outer loop
      vertex 0 11.9728 6.83056
      vertex -4.59005 19.7241 4.99567
      vertex -3.82803 8.92776 10.7409
    endloop
  endfacet
  facet normal -0.952964 0.0872042 0.290268
    outer loop
      vertex -4.59005 19.7241 4.99567
      vertex -5.63248 8.33244 4.99567
      vertex -3.82803 8.92776 10.7409
    endloop
  endfacet
  facet normal -0.16558 0.11868 0.979029
    outer loop
      vertex -11.006 12.6389 4.45288
      vertex -13.0876 5.25701 4.99567
      vertex -9.98015 6.39644 5.38311
    endloop
  endfacet
  facet normal -0.593063 -0.0716237 0.801964
    outer loop
      vertex -3.98594 -13.9894 10.9982
      vertex -5.7872 -13.2602 9.7313
      vertex -3.62974 -19.82 10.7409
    endloop
  endfacet
  facet normal -0.572801 0.00914505 0.819643
    outer loop
      vertex -5.72904 -9.61716 9.7313
      vertex -5.7872 -13.2602 9.7313
      vertex -3.98594 -13.9894 10.9982
    endloop
  endfacet
  facet normal 0.0715846 -0.0396103 0.996648
    outer loop
      vertex 0 -13.2602 10.7409
      vertex -3.98594 -13.9894 10.9982
      vertex -3.62974 -19.82 10.7409
    endloop
  endfacet
  facet normal -0.145015 0.0802416 0.98617
    outer loop
      vertex 0 -13.2602 10.7409
      vertex -3.62974 -19.82 10.7409
      vertex 0 -19.82 11.2747
    endloop
  endfacet
  facet normal -0.143634 -0.158955 0.976782
    outer loop
      vertex 0 -19.82 11.2747
      vertex -3.62974 -19.82 10.7409
      vertex 0 -23.0998 10.7409
    endloop
  endfacet
  facet normal 0 0 1
    outer loop
      vertex 0 -23.0998 10.7409
      vertex -3.62974 -19.82 10.7409
      vertex -3.57994 -21.7879 10.7409
    endloop
  endfacet
  facet normal -0.991874 -0.0250977 0.124721
    outer loop
      vertex -3.62974 -19.82 10.7409
      vertex -4.0261 -25.9123 6.36278
      vertex -3.57994 -21.7879 10.7409
    endloop
  endfacet
  facet normal -0.965124 0.232381 -0.120562
    outer loop
      vertex -4.0261 -25.9123 6.36278
      vertex -5.56423 -28.8854 12.9452
      vertex -3.57994 -21.7879 10.7409
    endloop
  endfacet
  facet normal 0.613625 -0.314148 0.724414
    outer loop
      vertex 0 -23.0998 10.7409
      vertex -5.56423 -28.8854 12.9452
      vertex 0 -30.8675 7.3724
    endloop
  endfacet
  facet normal -0.144187 -0.968989 0.200677
    outer loop
      vertex -5.56423 -28.8854 12.9452
      vertex -6.58106 -30.8675 2.64388
      vertex 0 -30.8675 7.3724
    endloop
  endfacet
  facet normal 0.0988826 0.269823 0.957819
    outer loop
      vertex -3.57994 -21.7879 10.7409
      vertex -5.56423 -28.8854 12.9452
      vertex 0 -23.0998 10.7409
    endloop
  endfacet
  facet normal -0.285506 -0.642985 -0.710673
    outer loop
      vertex 0 -30.8675 0
      vertex -6.58106 -30.8675 2.64388
      vertex -4.46384 -28.8854 0
    endloop
  endfacet
  facet normal 0 -1 0
    outer loop
      vertex 0 -30.8675 7.3724
      vertex -6.58106 -30.8675 2.64388
      vertex 0 -30.8675 0
    endloop
  endfacet
  facet normal 0 -1 0
    outer loop
      vertex 6.58106 -30.8675 2.64388
      vertex 0 -30.8675 7.3724
      vertex 0 -30.8675 0
    endloop
  endfacet
  facet normal 0.285506 -0.642985 -0.710673
    outer loop
      vertex 6.58106 -30.8675 2.64388
      vertex 0 -30.8675 0
      vertex 4.46384 -28.8854 0
    endloop
  endfacet
  facet normal 0.84134 0.354812 -0.407744
    outer loop
      vertex 4.46384 -28.8854 0
      vertex 4.16878 -25.1475 2.64388
      vertex 6.58106 -30.8675 2.64388
    endloop
  endfacet
  facet normal 0.780051 0.401199 -0.480167
    outer loop
      vertex 4.46384 -28.8854 0
      vertex 2.93469 -25.9123 0
      vertex 4.16878 -25.1475 2.64388
    endloop
  endfacet
  facet normal 0.909515 -0.190584 -0.369406
    outer loop
      vertex 4.16878 -25.1475 2.64388
      vertex 2.93469 -25.9123 0
      vertex 5.01136 -16.0019 0
    endloop
  endfacet
  facet normal 0.588091 -0.274151 -0.760914
    outer loop
      vertex 7.47727 -17.984 2.61997
      vertex 4.16878 -25.1475 2.64388
      vertex 5.01136 -16.0019 0
    endloop
  endfacet
  facet normal 0.728193 0 -0.685372
    outer loop
      vertex 7.47727 -17.984 2.61997
      vertex 5.01136 -16.0019 0
      vertex 7.47727 -11.0466 2.61997
    endloop
  endfacet
  facet normal 0.572781 0.141829 -0.807345
    outer loop
      vertex 5.01136 -16.0019 0
      vertex 3.64852 -10.498 0
      vertex 7.47727 -11.0466 2.61997
    endloop
  endfacet
  facet normal 0.564727 0 -0.825278
    outer loop
      vertex 7.47727 -11.0466 2.61997
      vertex 3.64852 -10.498 0
      vertex 3.64852 -5.487 0
    endloop
  endfacet
  facet normal 0.804789 0.31807 -0.501144
    outer loop
      vertex 7.47727 -11.0466 2.61997
      vertex 3.64852 -5.487 0
      vertex 5.29487 -5.487 2.64388
    endloop
  endfacet
  facet normal 0.371298 -0.899267 -0.231206
    outer loop
      vertex 5.29487 -5.487 2.64388
      vertex 3.64852 -5.487 0
      vertex 12.0671 -2.68468 2.61997
    endloop
  endfacet
  facet normal 0.360195 -0.239012 -0.901739
    outer loop
      vertex 12.0671 -2.68468 2.61997
      vertex 3.64852 -5.487 0
      vertex 8.05708 1.15678 0
    endloop
  endfacet
  facet normal 0.59561 0.0763669 -0.799636
    outer loop
      vertex 8.05708 1.15678 0
      vertex 5.08165 24.3632 0
      vertex 12.0671 -2.68468 2.61997
    endloop
  endfacet
  facet normal 0.901809 0.252347 -0.350802
    outer loop
      vertex 5.08165 24.3632 0
      vertex 3.71456 29.2487 0
      vertex 6.10081 24.3632 2.61997
    endloop
  endfacet
  facet normal 0.91288 0.201364 -0.355108
    outer loop
      vertex 12.0671 -2.68468 2.61997
      vertex 5.08165 24.3632 0
      vertex 6.10081 24.3632 2.61997
    endloop
  endfacet
  facet normal 0.918323 0.358176 -0.1685
    outer loop
      vertex 6.10081 24.3632 2.61997
      vertex 3.71456 29.2487 0
      vertex 4.59005 28.4127 2.99425
    endloop
  endfacet
  facet normal 0.470831 0.875729 0.106851
    outer loop
      vertex 3.71456 29.2487 0
      vertex 0 30.8805 2.99425
      vertex 4.59005 28.4127 2.99425
    endloop
  endfacet
  facet normal 0.995185 -0.0980173 0
    outer loop
      vertex -3.18755 0.634044 0
      vertex -3.18755 0.634044 6.525
      vertex -3.25 0 6.525
    endloop
  endfacet
  facet normal 0.995185 -0.0980173 0
    outer loop
      vertex -3.25 0 0
      vertex -3.18755 0.634044 0
      vertex -3.25 0 6.525
    endloop
  endfacet
  facet normal 0.995185 0.0980173 0
    outer loop
      vertex -3.25 0 6.525
      vertex -3.18755 -0.634044 6.525
      vertex -3.18755 -0.634044 0
    endloop
  endfacet
  facet normal 0.995185 0.0980173 0
    outer loop
      vertex -3.25 0 0
      vertex -3.25 0 6.525
      vertex -3.18755 -0.634044 0
    endloop
  endfacet
  facet normal 0.95694 -0.290285 0
    outer loop
      vertex -3.00261 1.24372 0
      vertex -3.00261 1.24372 6.525
      vertex -3.18755 0.634044 6.525
    endloop
  endfacet
  facet normal 0.95694 -0.290285 0
    outer loop
      vertex -3.18755 0.634044 0
      vertex -3.00261 1.24372 0
      vertex -3.18755 0.634044 6.525
    endloop
  endfacet
  facet normal 0.881921 -0.471397 0
    outer loop
      vertex -2.70228 1.8056 0
      vertex -2.70228 1.8056 6.525
      vertex -3.00261 1.24372 6.525
    endloop
  endfacet
  facet normal 0.881921 -0.471397 0
    outer loop
      vertex -3.00261 1.24372 0
      vertex -2.70228 1.8056 0
      vertex -3.00261 1.24372 6.525
    endloop
  endfacet
  facet normal 0.773011 -0.634393 0
    outer loop
      vertex -2.2981 2.2981 0
      vertex -2.2981 2.2981 6.525
      vertex -2.70228 1.8056 6.525
    endloop
  endfacet
  facet normal 0.773011 -0.634393 0
    outer loop
      vertex -2.70228 1.8056 0
      vertex -2.2981 2.2981 0
      vertex -2.70228 1.8056 6.525
    endloop
  endfacet
  facet normal 0.634393 -0.773011 0
    outer loop
      vertex -1.8056 2.70228 0
      vertex -1.8056 2.70228 6.525
      vertex -2.2981 2.2981 6.525
    endloop
  endfacet
  facet normal 0.634393 -0.773011 0
    outer loop
      vertex -2.2981 2.2981 0
      vertex -1.8056 2.70228 0
      vertex -2.2981 2.2981 6.525
    endloop
  endfacet
  facet normal 0.471397 -0.881921 0
    outer loop
      vertex -1.24372 3.00261 0
      vertex -1.24372 3.00261 6.525
      vertex -1.8056 2.70228 6.525
    endloop
  endfacet
  facet normal 0.471397 -0.881921 0
    outer loop
      vertex -1.8056 2.70228 0
      vertex -1.24372 3.00261 0
      vertex -1.8056 2.70228 6.525
    endloop
  endfacet
  facet normal 0.290285 -0.95694 0
    outer loop
      vertex -0.634044 3.18755 0
      vertex -0.634044 3.18755 6.525
      vertex -1.24372 3.00261 6.525
    endloop
  endfacet
  facet normal 0.290285 -0.95694 0
    outer loop
      vertex -1.24372 3.00261 0
      vertex -0.634044 3.18755 0
      vertex -1.24372 3.00261 6.525
    endloop
  endfacet
  facet normal 0.0980173 -0.995185 0
    outer loop
      vertex 0 3.25 0
      vertex 0 3.25 6.525
      vertex -0.634044 3.18755 6.525
    endloop
  endfacet
  facet normal 0.0980173 -0.995185 0
    outer loop
      vertex -0.634044 3.18755 0
      vertex 0 3.25 0
      vertex -0.634044 3.18755 6.525
    endloop
  endfacet
  facet normal -0.0980173 -0.995185 0
    outer loop
      vertex 0.634044 3.18755 0
      vertex 0.634044 3.18755 6.525
      vertex 0 3.25 6.525
    endloop
  endfacet
  facet normal -0.0980173 -0.995185 0
    outer loop
      vertex 0 3.25 0
      vertex 0.634044 3.18755 0
      vertex 0 3.25 6.525
    endloop
  endfacet
  facet normal -0.290285 -0.95694 0
    outer loop
      vertex 1.24372 3.00261 0
      vertex 1.24372 3.00261 6.525
      vertex 0.634044 3.18755 6.525
    endloop
  endfacet
  facet normal -0.290285 -0.95694 0
    outer loop
      vertex 0.634044 3.18755 0
      vertex 1.24372 3.00261 0
      vertex 0.634044 3.18755 6.525
    endloop
  endfacet
  facet normal -0.471397 -0.881921 0
    outer loop
      vertex 1.8056 2.70228 0
      vertex 1.8056 2.70228 6.525
      vertex 1.24372 3.00261 6.525
    endloop
  endfacet
  facet normal -0.471397 -0.881921 0
    outer loop
      vertex 1.24372 3.00261 0
      vertex 1.8056 2.70228 0
      vertex 1.24372 3.00261 6.525
    endloop
  endfacet
  facet normal -0.634393 -0.773011 0
    outer loop
      vertex 2.2981 2.2981 0
      vertex 2.2981 2.2981 6.525
      vertex 1.8056 2.70228 6.525
    endloop
  endfacet
  facet normal -0.634393 -0.773011 0
    outer loop
      vertex 1.8056 2.70228 0
      vertex 2.2981 2.2981 0
      vertex 1.8056 2.70228 6.525
    endloop
  endfacet
  facet normal -0.773011 -0.634393 0
    outer loop
      vertex 2.70228 1.8056 6.525
      vertex 2.2981 2.2981 6.525
      vertex 2.70228 1.8056 0
    endloop
  endfacet
  facet normal -0.773011 -0.634393 0
    outer loop
      vertex 2.70228 1.8056 0
      vertex 2.2981 2.2981 6.525
      vertex 2.2981 2.2981 0
    endloop
  endfacet
  facet normal -0.881921 -0.471397 0
    outer loop
      vertex 3.00261 1.24372 6.525
      vertex 2.70228 1.8056 6.525
      vertex 3.00261 1.24372 0
    endloop
  endfacet
  facet normal -0.881921 -0.471397 0
    outer loop
      vertex 3.00261 1.24372 0
      vertex 2.70228 1.8056 6.525
      vertex 2.70228 1.8056 0
    endloop
  endfacet
  facet normal -0.95694 -0.290285 0
    outer loop
      vertex 3.18755 0.634044 6.525
      vertex 3.00261 1.24372 6.525
      vertex 3.18755 0.634044 0
    endloop
  endfacet
  facet normal -0.95694 -0.290285 0
    outer loop
      vertex 3.18755 0.634044 0
      vertex 3.00261 1.24372 6.525
      vertex 3.00261 1.24372 0
    endloop
  endfacet
  facet normal -0.995185 -0.0980173 0
    outer loop
      vertex 3.25 0 6.525
      vertex 3.18755 0.634044 6.525
      vertex 3.25 0 0
    endloop
  endfacet
  facet normal -0.995185 -0.0980173 0
    outer loop
      vertex 3.25 0 0
      vertex 3.18755 0.634044 6.525
      vertex 3.18755 0.634044 0
    endloop
  endfacet
  facet normal -0.995185 0.0980173 0
    outer loop
      vertex 3.25 0 6.525
      vertex 3.25 0 0
      vertex 3.18755 -0.634044 6.525
    endloop
  endfacet
  facet normal -0.995185 0.0980173 0
    outer loop
      vertex 3.18755 -0.634044 6.525
      vertex 3.25 0 0
      vertex 3.18755 -0.634044 0
    endloop
  endfacet
  facet normal -0.95694 0.290285 0
    outer loop
      vertex 3.18755 -0.634044 6.525
      vertex 3.18755 -0.634044 0
      vertex 3.00261 -1.24372 6.525
    endloop
  endfacet
  facet normal -0.95694 0.290285 0
    outer loop
      vertex 3.00261 -1.24372 6.525
      vertex 3.18755 -0.634044 0
      vertex 3.00261 -1.24372 0
    endloop
  endfacet
  facet normal -0.881921 0.471397 0
    outer loop
      vertex 3.00261 -1.24372 6.525
      vertex 3.00261 -1.24372 0
      vertex 2.70228 -1.8056 6.525
    endloop
  endfacet
  facet normal -0.881921 0.471397 0
    outer loop
      vertex 2.70228 -1.8056 6.525
      vertex 3.00261 -1.24372 0
      vertex 2.70228 -1.8056 0
    endloop
  endfacet
  facet normal -0.773011 0.634393 0
    outer loop
      vertex 2.70228 -1.8056 6.525
      vertex 2.70228 -1.8056 0
      vertex 2.2981 -2.2981 6.525
    endloop
  endfacet
  facet normal -0.773011 0.634393 0
    outer loop
      vertex 2.2981 -2.2981 6.525
      vertex 2.70228 -1.8056 0
      vertex 2.2981 -2.2981 0
    endloop
  endfacet
  facet normal -0.634393 0.773011 0
    outer loop
      vertex 2.2981 -2.2981 6.525
      vertex 2.2981 -2.2981 0
      vertex 1.8056 -2.70228 6.525
    endloop
  endfacet
  facet normal -0.634393 0.773011 0
    outer loop
      vertex 1.8056 -2.70228 6.525
      vertex 2.2981 -2.2981 0
      vertex 1.8056 -2.70228 0
    endloop
  endfacet
  facet normal -0.471397 0.881921 0
    outer loop
      vertex 1.8056 -2.70228 6.525
      vertex 1.8056 -2.70228 0
      vertex 1.24372 -3.00261 6.525
    endloop
  endfacet
  facet normal -0.471397 0.881921 0
    outer loop
      vertex 1.24372 -3.00261 6.525
      vertex 1.8056 -2.70228 0
      vertex 1.24372 -3.00261 0
    endloop
  endfacet
  facet normal -0.290285 0.95694 0
    outer loop
      vertex 1.24372 -3.00261 6.525
      vertex 1.24372 -3.00261 0
      vertex 0.634044 -3.18755 6.525
    endloop
  endfacet
  facet normal -0.290285 0.95694 0
    outer loop
      vertex 0.634044 -3.18755 6.525
      vertex 1.24372 -3.00261 0
      vertex 0.634044 -3.18755 0
    endloop
  endfacet
  facet normal -0.0980173 0.995185 0
    outer loop
      vertex 0.634044 -3.18755 6.525
      vertex 0.634044 -3.18755 0
      vertex 0 -3.25 6.525
    endloop
  endfacet
  facet normal -0.0980173 0.995185 0
    outer loop
      vertex 0 -3.25 6.525
      vertex 0.634044 -3.18755 0
      vertex 0 -3.25 0
    endloop
  endfacet
  facet normal 0.0980173 0.995185 0
    outer loop
      vertex 0 -3.25 6.525
      vertex 0 -3.25 0
      vertex -0.634044 -3.18755 6.525
    endloop
  endfacet
  facet normal 0.0980173 0.995185 0
    outer loop
      vertex -0.634044 -3.18755 6.525
      vertex 0 -3.25 0
      vertex -0.634044 -3.18755 0
    endloop
  endfacet
  facet normal 0.290285 0.95694 0
    outer loop
      vertex -0.634044 -3.18755 6.525
      vertex -0.634044 -3.18755 0
      vertex -1.24372 -3.00261 6.525
    endloop
  endfacet
  facet normal 0.290285 0.95694 0
    outer loop
      vertex -1.24372 -3.00261 6.525
      vertex -0.634044 -3.18755 0
      vertex -1.24372 -3.00261 0
    endloop
  endfacet
  facet normal 0.471397 0.881921 0
    outer loop
      vertex -1.24372 -3.00261 6.525
      vertex -1.24372 -3.00261 0
      vertex -1.8056 -2.70228 6.525
    endloop
  endfacet
  facet normal 0.471397 0.881921 0
    outer loop
      vertex -1.8056 -2.70228 6.525
      vertex -1.24372 -3.00261 0
      vertex -1.8056 -2.70228 0
    endloop
  endfacet
  facet normal 0.634393 0.773011 0
    outer loop
      vertex -1.8056 -2.70228 6.525
      vertex -1.8056 -2.70228 0
      vertex -2.2981 -2.2981 6.525
    endloop
  endfacet
  facet normal 0.634393 0.773011 0
    outer loop
      vertex -2.2981 -2.2981 6.525
      vertex -1.8056 -2.70228 0
      vertex -2.2981 -2.2981 0
    endloop
  endfacet
  facet normal 0.773011 0.634393 0
    outer loop
      vertex -2.70228 -1.8056 6.525
      vertex -2.2981 -2.2981 6.525
      vertex -2.2981 -2.2981 0
    endloop
  endfacet
  facet normal 0.773011 0.634393 0
    outer loop
      vertex -2.70228 -1.8056 0
      vertex -2.70228 -1.8056 6.525
      vertex -2.2981 -2.2981 0
    endloop
  endfacet
  facet normal 0.881921 0.471397 0
    outer loop
      vertex -3.00261 -1.24372 6.525
      vertex -2.70228 -1.8056 6.525
      vertex -2.70228 -1.8056 0
    endloop
  endfacet
  facet normal 0.881921 0.471397 0
    outer loop
      vertex -3.00261 -1.24372 0
      vertex -3.00261 -1.24372 6.525
      vertex -2.70228 -1.8056 0
    endloop
  endfacet
  facet normal 0.95694 0.290285 0
    outer loop
      vertex -3.18755 -0.634044 6.525
      vertex -3.00261 -1.24372 6.525
      vertex -3.00261 -1.24372 0
    endloop
  endfacet
  facet normal 0.95694 0.290285 0
    outer loop
      vertex -3.18755 -0.634044 0
      vertex -3.18755 -0.634044 6.525
      vertex -3.00261 -1.24372 0
    endloop
  endfacet
  facet normal 0.995185 -0.0980173 0
    outer loop
      vertex -3.18755 10.634 0
      vertex -3.18755 10.634 3.125
      vertex -3.25 10 3.125
    endloop
  endfacet
  facet normal 0.995185 -0.0980173 0
    outer loop
      vertex -3.25 10 0
      vertex -3.18755 10.634 0
      vertex -3.25 10 3.125
    endloop
  endfacet
  facet normal 0.995185 0.0980173 0
    outer loop
      vertex -3.25 10 3.125
      vertex -3.18755 9.36596 3.125
      vertex -3.18755 9.36596 0
    endloop
  endfacet
  facet normal 0.995185 0.0980173 0
    outer loop
      vertex -3.25 10 0
      vertex -3.25 10 3.125
      vertex -3.18755 9.36596 0
    endloop
  endfacet
  facet normal 0.95694 -0.290285 0
    outer loop
      vertex -3.00261 11.2437 0
      vertex -3.00261 11.2437 3.125
      vertex -3.18755 10.634 3.125
    endloop
  endfacet
  facet normal 0.95694 -0.290285 0
    outer loop
      vertex -3.18755 10.634 0
      vertex -3.00261 11.2437 0
      vertex -3.18755 10.634 3.125
    endloop
  endfacet
  facet normal 0.881921 -0.471397 0
    outer loop
      vertex -2.70228 11.8056 0
      vertex -2.70228 11.8056 3.125
      vertex -3.00261 11.2437 3.125
    endloop
  endfacet
  facet normal 0.881921 -0.471397 0
    outer loop
      vertex -3.00261 11.2437 0
      vertex -2.70228 11.8056 0
      vertex -3.00261 11.2437 3.125
    endloop
  endfacet
  facet normal 0.773011 -0.634393 0
    outer loop
      vertex -2.2981 12.2981 0
      vertex -2.2981 12.2981 3.125
      vertex -2.70228 11.8056 3.125
    endloop
  endfacet
  facet normal 0.773011 -0.634393 0
    outer loop
      vertex -2.70228 11.8056 0
      vertex -2.2981 12.2981 0
      vertex -2.70228 11.8056 3.125
    endloop
  endfacet
  facet normal 0.634393 -0.773011 0
    outer loop
      vertex -1.8056 12.7023 0
      vertex -1.8056 12.7023 3.125
      vertex -2.2981 12.2981 3.125
    endloop
  endfacet
  facet normal 0.634393 -0.773011 0
    outer loop
      vertex -2.2981 12.2981 0
      vertex -1.8056 12.7023 0
      vertex -2.2981 12.2981 3.125
    endloop
  endfacet
  facet normal 0.471397 -0.881921 0
    outer loop
      vertex -1.24372 13.0026 0
      vertex -1.24372 13.0026 3.125
      vertex -1.8056 12.7023 3.125
    endloop
  endfacet
  facet normal 0.471397 -0.881921 0
    outer loop
      vertex -1.8056 12.7023 0
      vertex -1.24372 13.0026 0
      vertex -1.8056 12.7023 3.125
    endloop
  endfacet
  facet normal 0.290285 -0.95694 0
    outer loop
      vertex -0.634044 13.1876 0
      vertex -0.634044 13.1876 3.125
      vertex -1.24372 13.0026 3.125
    endloop
  endfacet
  facet normal 0.290285 -0.95694 0
    outer loop
      vertex -1.24372 13.0026 0
      vertex -0.634044 13.1876 0
      vertex -1.24372 13.0026 3.125
    endloop
  endfacet
  facet normal 0.0980173 -0.995185 0
    outer loop
      vertex 7.21645e-16 13.25 0
      vertex 7.21645e-16 13.25 3.125
      vertex -0.634044 13.1876 3.125
    endloop
  endfacet
  facet normal 0.0980173 -0.995185 0
    outer loop
      vertex -0.634044 13.1876 0
      vertex 7.21645e-16 13.25 0
      vertex -0.634044 13.1876 3.125
    endloop
  endfacet
  facet normal -0.0980173 -0.995185 0
    outer loop
      vertex 0.634044 13.1876 0
      vertex 0.634044 13.1876 3.125
      vertex 7.21645e-16 13.25 3.125
    endloop
  endfacet
  facet normal -0.0980173 -0.995185 0
    outer loop
      vertex 7.21645e-16 13.25 0
      vertex 0.634044 13.1876 0
      vertex 7.21645e-16 13.25 3.125
    endloop
  endfacet
  facet normal -0.290285 -0.95694 0
    outer loop
      vertex 1.24372 13.0026 0
      vertex 1.24372 13.0026 3.125
      vertex 0.634044 13.1876 3.125
    endloop
  endfacet
  facet normal -0.290285 -0.95694 0
    outer loop
      vertex 0.634044 13.1876 0
      vertex 1.24372 13.0026 0
      vertex 0.634044 13.1876 3.125
    endloop
  endfacet
  facet normal -0.471397 -0.881921 0
    outer loop
      vertex 1.8056 12.7023 0
      vertex 1.8056 12.7023 3.125
      vertex 1.24372 13.0026 3.125
    endloop
  endfacet
  facet normal -0.471397 -0.881921 0
    outer loop
      vertex 1.24372 13.0026 0
      vertex 1.8056 12.7023 0
      vertex 1.24372 13.0026 3.125
    endloop
  endfacet
  facet normal -0.634393 -0.773011 0
    outer loop
      vertex 2.2981 12.2981 0
      vertex 2.2981 12.2981 3.125
      vertex 1.8056 12.7023 3.125
    endloop
  endfacet
  facet normal -0.634393 -0.773011 0
    outer loop
      vertex 1.8056 12.7023 0
      vertex 2.2981 12.2981 0
      vertex 1.8056 12.7023 3.125
    endloop
  endfacet
  facet normal -0.773011 -0.634393 0
    outer loop
      vertex 2.70228 11.8056 3.125
      vertex 2.2981 12.2981 3.125
      vertex 2.70228 11.8056 0
    endloop
  endfacet
  facet normal -0.773011 -0.634393 0
    outer loop
      vertex 2.70228 11.8056 0
      vertex 2.2981 12.2981 3.125
      vertex 2.2981 12.2981 0
    endloop
  endfacet
  facet normal -0.881921 -0.471397 0
    outer loop
      vertex 3.00261 11.2437 3.125
      vertex 2.70228 11.8056 3.125
      vertex 3.00261 11.2437 0
    endloop
  endfacet
  facet normal -0.881921 -0.471397 0
    outer loop
      vertex 3.00261 11.2437 0
      vertex 2.70228 11.8056 3.125
      vertex 2.70228 11.8056 0
    endloop
  endfacet
  facet normal -0.95694 -0.290285 0
    outer loop
      vertex 3.18755 10.634 3.125
      vertex 3.00261 11.2437 3.125
      vertex 3.18755 10.634 0
    endloop
  endfacet
  facet normal -0.95694 -0.290285 0
    outer loop
      vertex 3.18755 10.634 0
      vertex 3.00261 11.2437 3.125
      vertex 3.00261 11.2437 0
    endloop
  endfacet
  facet normal -0.995185 -0.0980173 0
    outer loop
      vertex 3.25 10 3.125
      vertex 3.18755 10.634 3.125
      vertex 3.25 10 0
    endloop
  endfacet
  facet normal -0.995185 -0.0980173 0
    outer loop
      vertex 3.25 10 0
      vertex 3.18755 10.634 3.125
      vertex 3.18755 10.634 0
    endloop
  endfacet
  facet normal -0.995185 0.0980173 0
    outer loop
      vertex 3.25 10 3.125
      vertex 3.25 10 0
      vertex 3.18755 9.36596 3.125
    endloop
  endfacet
  facet normal -0.995185 0.0980173 0
    outer loop
      vertex 3.18755 9.36596 3.125
      vertex 3.25 10 0
      vertex 3.18755 9.36596 0
    endloop
  endfacet
  facet normal -0.95694 0.290285 0
    outer loop
      vertex 3.18755 9.36596 3.125
      vertex 3.18755 9.36596 0
      vertex 3.00261 8.75628 3.125
    endloop
  endfacet
  facet normal -0.95694 0.290285 0
    outer loop
      vertex 3.00261 8.75628 3.125
      vertex 3.18755 9.36596 0
      vertex 3.00261 8.75628 0
    endloop
  endfacet
  facet normal -0.881921 0.471397 0
    outer loop
      vertex 3.00261 8.75628 3.125
      vertex 3.00261 8.75628 0
      vertex 2.70228 8.1944 3.125
    endloop
  endfacet
  facet normal -0.881921 0.471397 0
    outer loop
      vertex 2.70228 8.1944 3.125
      vertex 3.00261 8.75628 0
      vertex 2.70228 8.1944 0
    endloop
  endfacet
  facet normal -0.773011 0.634393 0
    outer loop
      vertex 2.70228 8.1944 3.125
      vertex 2.70228 8.1944 0
      vertex 2.2981 7.7019 3.125
    endloop
  endfacet
  facet normal -0.773011 0.634393 0
    outer loop
      vertex 2.2981 7.7019 3.125
      vertex 2.70228 8.1944 0
      vertex 2.2981 7.7019 0
    endloop
  endfacet
  facet normal -0.634393 0.773011 0
    outer loop
      vertex 2.2981 7.7019 3.125
      vertex 2.2981 7.7019 0
      vertex 1.8056 7.29772 3.125
    endloop
  endfacet
  facet normal -0.634393 0.773011 0
    outer loop
      vertex 1.8056 7.29772 3.125
      vertex 2.2981 7.7019 0
      vertex 1.8056 7.29772 0
    endloop
  endfacet
  facet normal -0.471397 0.881921 0
    outer loop
      vertex 1.8056 7.29772 3.125
      vertex 1.8056 7.29772 0
      vertex 1.24372 6.99739 3.125
    endloop
  endfacet
  facet normal -0.471397 0.881921 0
    outer loop
      vertex 1.24372 6.99739 3.125
      vertex 1.8056 7.29772 0
      vertex 1.24372 6.99739 0
    endloop
  endfacet
  facet normal -0.290285 0.95694 0
    outer loop
      vertex 1.24372 6.99739 3.125
      vertex 1.24372 6.99739 0
      vertex 0.634044 6.81245 3.125
    endloop
  endfacet
  facet normal -0.290285 0.95694 0
    outer loop
      vertex 0.634044 6.81245 3.125
      vertex 1.24372 6.99739 0
      vertex 0.634044 6.81245 0
    endloop
  endfacet
  facet normal -0.0980173 0.995185 0
    outer loop
      vertex 0.634044 6.81245 3.125
      vertex 0.634044 6.81245 0
      vertex -7.21645e-16 6.75 3.125
    endloop
  endfacet
  facet normal -0.0980173 0.995185 0
    outer loop
      vertex -7.21645e-16 6.75 3.125
      vertex 0.634044 6.81245 0
      vertex -7.21645e-16 6.75 0
    endloop
  endfacet
  facet normal 0.0980173 0.995185 0
    outer loop
      vertex -7.21645e-16 6.75 3.125
      vertex -7.21645e-16 6.75 0
      vertex -0.634044 6.81245 3.125
    endloop
  endfacet
  facet normal 0.0980173 0.995185 0
    outer loop
      vertex -0.634044 6.81245 3.125
      vertex -7.21645e-16 6.75 0
      vertex -0.634044 6.81245 0
    endloop
  endfacet
  facet normal 0.290285 0.95694 0
    outer loop
      vertex -0.634044 6.81245 3.125
      vertex -0.634044 6.81245 0
      vertex -1.24372 6.99739 3.125
    endloop
  endfacet
  facet normal 0.290285 0.95694 0
    outer loop
      vertex -1.24372 6.99739 3.125
      vertex -0.634044 6.81245 0
      vertex -1.24372 6.99739 0
    endloop
  endfacet
  facet normal 0.471397 0.881921 0
    outer loop
      vertex -1.24372 6.99739 3.125
      vertex -1.24372 6.99739 0
      vertex -1.8056 7.29772 3.125
    endloop
  endfacet
  facet normal 0.471397 0.881921 0
    outer loop
      vertex -1.8056 7.29772 3.125
      vertex -1.24372 6.99739 0
      vertex -1.8056 7.29772 0
    endloop
  endfacet
  facet normal 0.634393 0.773011 0
    outer loop
      vertex -1.8056 7.29772 3.125
      vertex -1.8056 7.29772 0
      vertex -2.2981 7.7019 3.125
    endloop
  endfacet
  facet normal 0.634393 0.773011 0
    outer loop
      vertex -2.2981 7.7019 3.125
      vertex -1.8056 7.29772 0
      vertex -2.2981 7.7019 0
    endloop
  endfacet
  facet normal 0.773011 0.634393 0
    outer loop
      vertex -2.70228 8.1944 3.125
      vertex -2.2981 7.7019 3.125
      vertex -2.2981 7.7019 0
    endloop
  endfacet
  facet normal 0.773011 0.634393 0
    outer loop
      vertex -2.70228 8.1944 0
      vertex -2.70228 8.1944 3.125
      vertex -2.2981 7.7019 0
    endloop
  endfacet
  facet normal 0.881921 0.471397 0
    outer loop
      vertex -3.00261 8.75628 3.125
      vertex -2.70228 8.1944 3.125
      vertex -2.70228 8.1944 0
    endloop
  endfacet
  facet normal 0.881921 0.471397 0
    outer loop
      vertex -3.00261 8.75628 0
      vertex -3.00261 8.75628 3.125
      vertex -2.70228 8.1944 0
    endloop
  endfacet
  facet normal 0.95694 0.290285 0
    outer loop
      vertex -3.18755 9.36596 3.125
      vertex -3.00261 8.75628 3.125
      vertex -3.00261 8.75628 0
    endloop
  endfacet
  facet normal 0.95694 0.290285 0
    outer loop
      vertex -3.18755 9.36596 0
      vertex -3.18755 9.36596 3.125
      vertex -3.00261 8.75628 0
    endloop
  endfacet
  facet normal -0.769621 -0.00538473 0.638478
    outer loop
      vertex -4.66099 2.84673 9.7313
      vertex -6.47535 -4.10933 7.48562
      vertex -3.75942 -6.30039 10.7409
    endloop
  endfacet
  facet normal -0.76112 -0.00342946 0.648602
    outer loop
      vertex -3.82803 8.92776 10.7409
      vertex -4.66099 2.84673 9.7313
      vertex -3.75942 -6.30039 10.7409
    endloop
  endfacet
  facet normal 0 0 1
    outer loop
      vertex 0 7.68541 10.7409
      vertex -3.82803 8.92776 10.7409
      vertex -3.75942 -6.30039 10.7409
    endloop
  endfacet
  facet normal -0.288452 0.0775367 0.95435
    outer loop
      vertex 0 7.68541 10.7409
      vertex -3.75942 -6.30039 10.7409
      vertex 0 -7.23401 11.9531
    endloop
  endfacet
  facet normal -0.326305 -0.0925809 0.94072
    outer loop
      vertex -3.75942 -6.30039 10.7409
      vertex -5.72904 -9.61716 9.7313
      vertex 0 -7.23401 11.9531
    endloop
  endfacet
  facet normal -0.285732 -0.188974 0.939493
    outer loop
      vertex 0 -7.23401 11.9531
      vertex -5.72904 -9.61716 9.7313
      vertex 0 -13.2602 10.7409
    endloop
  endfacet
  facet normal 0.0103232 0.282099 0.95933
    outer loop
      vertex 0 -13.2602 10.7409
      vertex -5.72904 -9.61716 9.7313
      vertex -3.98594 -13.9894 10.9982
    endloop
  endfacet
  facet normal -0.953221 0.0822792 0.290859
    outer loop
      vertex -3.82803 8.92776 10.7409
      vertex -5.63248 8.33244 4.99567
      vertex -4.66099 2.84673 9.7313
    endloop
  endfacet
  facet normal 0.0600845 0.111755 0.991918
    outer loop
      vertex 0 30.8805 2.99425
      vertex 0 20.9941 4.10811
      vertex 4.59005 28.4127 2.99425
    endloop
  endfacet
  facet normal -0.104608 0.287328 0.952103
    outer loop
      vertex 0 20.9941 4.10811
      vertex 0 11.9728 6.83056
      vertex 4.59005 19.7241 4.99567
    endloop
  endfacet
  facet normal -0.12533 0.222703 0.966797
    outer loop
      vertex 4.59005 28.4127 2.99425
      vertex 0 20.9941 4.10811
      vertex 4.59005 19.7241 4.99567
    endloop
  endfacet
  facet normal -0.441194 0.445651 0.778938
    outer loop
      vertex 4.59005 19.7241 4.99567
      vertex 0 11.9728 6.83056
      vertex 3.82803 8.92776 10.7409
    endloop
  endfacet
  facet normal -0.213649 0.658314 0.721787
    outer loop
      vertex 0 11.9728 6.83056
      vertex 0 7.68541 10.7409
      vertex 3.82803 8.92776 10.7409
    endloop
  endfacet
  facet normal 0.213649 0.658314 0.721787
    outer loop
      vertex 0 11.9728 6.83056
      vertex -3.82803 8.92776 10.7409
      vertex 0 7.68541 10.7409
    endloop
  endfacet
  facet normal -0.0715846 -0.0396103 0.996648
    outer loop
      vertex 3.98594 -13.9894 10.9982
      vertex 0 -13.2602 10.7409
      vertex 3.62974 -19.82 10.7409
    endloop
  endfacet
  facet normal 0.145015 0.0802416 0.98617
    outer loop
      vertex 0 -13.2602 10.7409
      vertex 0 -19.82 11.2747
      vertex 3.62974 -19.82 10.7409
    endloop
  endfacet
  facet normal 0.285732 -0.188974 0.939493
    outer loop
      vertex 0 -7.23401 11.9531
      vertex 0 -13.2602 10.7409
      vertex 5.72904 -9.61716 9.7313
    endloop
  endfacet
  facet normal -0.0103232 0.282099 0.95933
    outer loop
      vertex 5.72904 -9.61716 9.7313
      vertex 0 -13.2602 10.7409
      vertex 3.98594 -13.9894 10.9982
    endloop
  endfacet
  facet normal 0.143634 -0.158955 0.976782
    outer loop
      vertex 0 -19.82 11.2747
      vertex 0 -23.0998 10.7409
      vertex 3.62974 -19.82 10.7409
    endloop
  endfacet
  facet normal -0.613625 -0.314148 0.724414
    outer loop
      vertex 0 -23.0998 10.7409
      vertex 0 -30.8675 7.3724
      vertex 5.56423 -28.8854 12.9452
    endloop
  endfacet
  facet normal 0 0 1
    outer loop
      vertex 3.62974 -19.82 10.7409
      vertex 0 -23.0998 10.7409
      vertex 3.57994 -21.7879 10.7409
    endloop
  endfacet
  facet normal -0.0988826 0.269823 0.957819
    outer loop
      vertex 3.57994 -21.7879 10.7409
      vertex 0 -23.0998 10.7409
      vertex 5.56423 -28.8854 12.9452
    endloop
  endfacet
  facet normal 0.144187 -0.968989 0.200677
    outer loop
      vertex 5.56423 -28.8854 12.9452
      vertex 0 -30.8675 7.3724
      vertex 6.58106 -30.8675 2.64388
    endloop
  endfacet
  facet normal 0.921294 0.388531 0.0161816
    outer loop
      vertex 6.58106 -30.8675 2.64388
      vertex 4.16878 -25.1475 2.64388
      vertex 5.56423 -28.8854 12.9452
    endloop
  endfacet
  facet normal 0.660335 0.730176 0.175502
    outer loop
      vertex 4.16878 -25.1475 2.64388
      vertex 4.0261 -25.9123 6.36278
      vertex 5.56423 -28.8854 12.9452
    endloop
  endfacet
  facet normal 0.915891 -0.398683 -0.0468528
    outer loop
      vertex 7.47727 -17.984 6.36278
      vertex 4.0261 -25.9123 6.36278
      vertex 4.16878 -25.1475 2.64388
    endloop
  endfacet
  facet normal 0.907851 -0.419292 0
    outer loop
      vertex 7.47727 -17.984 6.36278
      vertex 4.16878 -25.1475 2.64388
      vertex 7.47727 -17.984 2.61997
    endloop
  endfacet
  facet normal 0.166574 -0.986029 0
    outer loop
      vertex 7.47727 -17.984 6.36278
      vertex 7.47727 -17.984 2.61997
      vertex 10.9457 -17.398 2.61997
    endloop
  endfacet
  facet normal 0 0 -1
    outer loop
      vertex 6.10081 24.3632 2.61997
      vertex 12.0645 14.4428 2.61997
      vertex 12.0671 -2.68468 2.61997
    endloop
  endfacet
  facet normal 0 0 -1
    outer loop
      vertex 12.0671 -2.68468 2.61997
      vertex 12.0645 14.4428 2.61997
      vertex 15.0824 -2.68468 2.61997
    endloop
  endfacet
  facet normal 0 0 -1
    outer loop
      vertex 12.0671 -2.68468 2.61997
      vertex 15.0824 -2.68468 2.61997
      vertex 15.0824 -7.80904 2.61997
    endloop
  endfacet
  facet normal 0 0 -1
    outer loop
      vertex 12.0671 -2.68468 2.61997
      vertex 15.0824 -7.80904 2.61997
      vertex 13.712 -13.7439 2.61997
    endloop
  endfacet
  facet normal 0 0 -1
    outer loop
      vertex 10.9457 -13.7439 2.61997
      vertex 11.35 -19.7804 2.61997
      vertex 10.9457 -17.398 2.61997
    endloop
  endfacet
  facet normal 0 0 -1
    outer loop
      vertex 12.0671 -7.80904 2.61997
      vertex 12.9092 -17.398 2.61997
      vertex 12.3967 -19.7804 2.61997
    endloop
  endfacet
  facet normal 0 0 -1
    outer loop
      vertex 12.0671 -7.80904 2.61997
      vertex 12.3967 -19.7804 2.61997
      vertex 10.9457 -13.7439 2.61997
    endloop
  endfacet
  facet normal 0 0 -1
    outer loop
      vertex 10.9457 -17.398 2.61997
      vertex 7.47727 -17.984 2.61997
      vertex 7.47727 -11.0466 2.61997
    endloop
  endfacet
  facet normal 0 0 -1
    outer loop
      vertex 12.3967 -19.7804 2.61997
      vertex 11.35 -19.7804 2.61997
      vertex 10.9457 -13.7439 2.61997
    endloop
  endfacet
  facet normal 0 0 -1
    outer loop
      vertex 13.712 -13.7439 2.61997
      vertex 12.9092 -17.398 2.61997
      vertex 12.0671 -7.80904 2.61997
    endloop
  endfacet
  facet normal 0 0 -1
    outer loop
      vertex 10.9457 -13.7439 2.61997
      vertex 10.9457 -17.398 2.61997
      vertex 7.47727 -11.0466 2.61997
    endloop
  endfacet
  facet normal 0 0 -1
    outer loop
      vertex 12.0671 -2.68468 2.61997
      vertex 13.712 -13.7439 2.61997
      vertex 12.0671 -7.80904 2.61997
    endloop
  endfacet
  facet normal 0.60953 0.783799 0.118878
    outer loop
      vertex 10.9457 -13.7439 2.61997
      vertex 7.47727 -11.0466 2.61997
      vertex 10.4823 -13.7439 4.99567
    endloop
  endfacet
  facet normal 0.667964 0.744194 0
    outer loop
      vertex 10.4823 -13.7439 4.99567
      vertex 7.47727 -11.0466 2.61997
      vertex 7.47727 -11.0466 6.36278
    endloop
  endfacet
  facet normal 0.881829 0.471569 0
    outer loop
      vertex 7.47727 -11.0466 2.61997
      vertex 4.50418 -5.487 6.36278
      vertex 7.47727 -11.0466 6.36278
    endloop
  endfacet
  facet normal 0.913413 0.357719 0.194203
    outer loop
      vertex 5.29487 -5.487 2.64388
      vertex 4.50418 -5.487 6.36278
      vertex 7.47727 -11.0466 2.61997
    endloop
  endfacet
  facet normal 0.440042 -0.89309 0.0935585
    outer loop
      vertex 10.4823 -2.68468 4.99567
      vertex 4.50418 -5.487 6.36278
      vertex 5.29487 -5.487 2.64388
    endloop
  endfacet
  facet normal 0.371195 -0.894932 0.24761
    outer loop
      vertex 10.4823 -2.68468 4.99567
      vertex 5.29487 -5.487 2.64388
      vertex 12.0671 -2.68468 2.61997
    endloop
  endfacet
  facet normal -0.831899 0 -0.554928
    outer loop
      vertex 10.4823 -13.7439 4.99567
      vertex 10.4823 -2.68468 4.99567
      vertex 12.0671 -7.80904 2.61997
    endloop
  endfacet
  facet normal -0.831899 0 -0.554928
    outer loop
      vertex 12.0671 -7.80904 2.61997
      vertex 10.4823 -2.68468 4.99567
      vertex 12.0671 -2.68468 2.61997
    endloop
  endfacet
  facet normal 0.464399 0.279176 0.840473
    outer loop
      vertex 6.10081 24.3632 2.61997
      vertex 4.59005 19.7241 4.99567
      vertex 12.0645 14.4428 2.61997
    endloop
  endfacet
  facet normal 0.644584 0.171617 0.745023
    outer loop
      vertex 4.59005 28.4127 2.99425
      vertex 4.59005 19.7241 4.99567
      vertex 6.10081 24.3632 2.61997
    endloop
  endfacet
  facet normal 0 0 -1
    outer loop
      vertex -3.00261 1.24372 6.525
      vertex -2.70228 1.8056 6.525
      vertex -3.18755 0.634044 6.525
    endloop
  endfacet
  facet normal 0 0 -1
    outer loop
      vertex -3.18755 0.634044 6.525
      vertex -2.70228 1.8056 6.525
      vertex -2.2981 2.2981 6.525
    endloop
  endfacet
  facet normal 0 0 -1
    outer loop
      vertex -3.18755 0.634044 6.525
      vertex -2.2981 2.2981 6.525
      vertex -1.8056 2.70228 6.525
    endloop
  endfacet
  facet normal 0 0 -1
    outer loop
      vertex -3.18755 0.634044 6.525
      vertex -1.8056 2.70228 6.525
      vertex -1.24372 3.00261 6.525
    endloop
  endfacet
  facet normal 0 0 -1
    outer loop
      vertex -3.18755 0.634044 6.525
      vertex -1.24372 3.00261 6.525
      vertex -0.634044 3.18755 6.525
    endloop
  endfacet
  facet normal 0 0 -1
    outer loop
      vertex -3.18755 0.634044 6.525
      vertex -0.634044 3.18755 6.525
      vertex 0 3.25 6.525
    endloop
  endfacet
  facet normal 0 0 -1
    outer loop
      vertex -3.18755 0.634044 6.525
      vertex 0 3.25 6.525
      vertex 0.634044 3.18755 6.525
    endloop
  endfacet
  facet normal 0 0 -1
    outer loop
      vertex -3.18755 0.634044 6.525
      vertex 0.634044 3.18755 6.525
      vertex 1.24372 3.00261 6.525
    endloop
  endfacet
  facet normal 0 0 -1
    outer loop
      vertex -3.18755 0.634044 6.525
      vertex 1.24372 3.00261 6.525
      vertex 1.8056 2.70228 6.525
    endloop
  endfacet
  facet normal 0 0 -1
    outer loop
      vertex -3.18755 0.634044 6.525
      vertex 1.8056 2.70228 6.525
      vertex 2.2981 2.2981 6.525
    endloop
  endfacet
  facet normal 0 0 -1
    outer loop
      vertex -3.18755 0.634044 6.525
      vertex 2.2981 2.2981 6.525
      vertex 2.70228 1.8056 6.525
    endloop
  endfacet
  facet normal 0 0 -1
    outer loop
      vertex -3.18755 0.634044 6.525
      vertex 2.70228 1.8056 6.525
      vertex 3.00261 1.24372 6.525
    endloop
  endfacet
  facet normal 0 0 -1
    outer loop
      vertex -3.18755 0.634044 6.525
      vertex 3.00261 1.24372 6.525
      vertex 3.18755 0.634044 6.525
    endloop
  endfacet
  facet normal 0 0 -1
    outer loop
      vertex -3.18755 0.634044 6.525
      vertex 3.18755 0.634044 6.525
      vertex 3.25 0 6.525
    endloop
  endfacet
  facet normal 0 0 -1
    outer loop
      vertex -3.18755 0.634044 6.525
      vertex 3.25 0 6.525
      vertex 3.18755 -0.634044 6.525
    endloop
  endfacet
  facet normal 0 0 -1
    outer loop
      vertex -3.18755 0.634044 6.525
      vertex 3.18755 -0.634044 6.525
      vertex 3.00261 -1.24372 6.525
    endloop
  endfacet
  facet normal 0 0 -1
    outer loop
      vertex -3.18755 0.634044 6.525
      vertex 3.00261 -1.24372 6.525
      vertex 2.70228 -1.8056 6.525
    endloop
  endfacet
  facet normal 0 0 -1
    outer loop
      vertex -3.18755 0.634044 6.525
      vertex 2.70228 -1.8056 6.525
      vertex 2.2981 -2.2981 6.525
    endloop
  endfacet
  facet normal 0 0 -1
    outer loop
      vertex -3.18755 0.634044 6.525
      vertex 2.2981 -2.2981 6.525
      vertex 1.8056 -2.70228 6.525
    endloop
  endfacet
  facet normal 0 0 -1
    outer loop
      vertex -3.18755 0.634044 6.525
      vertex 1.8056 -2.70228 6.525
      vertex 1.24372 -3.00261 6.525
    endloop
  endfacet
  facet normal 0 0 -1
    outer loop
      vertex -3.18755 0.634044 6.525
      vertex 1.24372 -3.00261 6.525
      vertex 0.634044 -3.18755 6.525
    endloop
  endfacet
  facet normal 0 0 -1
    outer loop
      vertex -3.18755 0.634044 6.525
      vertex 0.634044 -3.18755 6.525
      vertex 0 -3.25 6.525
    endloop
  endfacet
  facet normal 0 0 -1
    outer loop
      vertex -3.18755 0.634044 6.525
      vertex 0 -3.25 6.525
      vertex -0.634044 -3.18755 6.525
    endloop
  endfacet
  facet normal 0 0 -1
    outer loop
      vertex -3.18755 0.634044 6.525
      vertex -0.634044 -3.18755 6.525
      vertex -1.24372 -3.00261 6.525
    endloop
  endfacet
  facet normal 0 0 -1
    outer loop
      vertex -3.18755 0.634044 6.525
      vertex -1.24372 -3.00261 6.525
      vertex -1.8056 -2.70228 6.525
    endloop
  endfacet
  facet normal 0 0 -1
    outer loop
      vertex -3.18755 0.634044 6.525
      vertex -1.8056 -2.70228 6.525
      vertex -2.2981 -2.2981 6.525
    endloop
  endfacet
  facet normal 0 0 -1
    outer loop
      vertex -3.18755 0.634044 6.525
      vertex -2.2981 -2.2981 6.525
      vertex -2.70228 -1.8056 6.525
    endloop
  endfacet
  facet normal 0 0 -1
    outer loop
      vertex -3.18755 0.634044 6.525
      vertex -2.70228 -1.8056 6.525
      vertex -3.00261 -1.24372 6.525
    endloop
  endfacet
  facet normal 0 0 -1
    outer loop
      vertex -3.18755 0.634044 6.525
      vertex -3.00261 -1.24372 6.525
      vertex -3.18755 -0.634044 6.525
    endloop
  endfacet
  facet normal 0 0 -1
    outer loop
      vertex -3.18755 0.634044 6.525
      vertex -3.18755 -0.634044 6.525
      vertex -3.25 0 6.525
    endloop
  endfacet
  facet normal 0 0 -1
    outer loop
      vertex -3.00261 11.2437 3.125
      vertex -2.70228 11.8056 3.125
      vertex -3.18755 10.634 3.125
    endloop
  endfacet
  facet normal 0 0 -1
    outer loop
      vertex -3.18755 10.634 3.125
      vertex -2.70228 11.8056 3.125
      vertex -2.2981 12.2981 3.125
    endloop
  endfacet
  facet normal 0 0 -1
    outer loop
      vertex -3.18755 10.634 3.125
      vertex -2.2981 12.2981 3.125
      vertex -1.8056 12.7023 3.125
    endloop
  endfacet
  facet normal 0 0 -1
    outer loop
      vertex -3.18755 10.634 3.125
      vertex -1.8056 12.7023 3.125
      vertex -1.24372 13.0026 3.125
    endloop
  endfacet
  facet normal 0 0 -1
    outer loop
      vertex -3.18755 10.634 3.125
      vertex -1.24372 13.0026 3.125
      vertex -0.634044 13.1876 3.125
    endloop
  endfacet
  facet normal 0 0 -1
    outer loop
      vertex -3.18755 10.634 3.125
      vertex -0.634044 13.1876 3.125
      vertex 7.21645e-16 13.25 3.125
    endloop
  endfacet
  facet normal 0 0 -1
    outer loop
      vertex -3.18755 10.634 3.125
      vertex 7.21645e-16 13.25 3.125
      vertex 0.634044 13.1876 3.125
    endloop
  endfacet
  facet normal 0 0 -1
    outer loop
      vertex -3.18755 10.634 3.125
      vertex 0.634044 13.1876 3.125
      vertex 1.24372 13.0026 3.125
    endloop
  endfacet
  facet normal 0 0 -1
    outer loop
      vertex -3.18755 10.634 3.125
      vertex 1.24372 13.0026 3.125
      vertex 1.8056 12.7023 3.125
    endloop
  endfacet
  facet normal 0 0 -1
    outer loop
      vertex -3.18755 10.634 3.125
      vertex 1.8056 12.7023 3.125
      vertex 2.2981 12.2981 3.125
    endloop
  endfacet
  facet normal 0 0 -1
    outer loop
      vertex -3.18755 10.634 3.125
      vertex 2.2981 12.2981 3.125
      vertex 2.70228 11.8056 3.125
    endloop
  endfacet
  facet normal 0 0 -1
    outer loop
      vertex -3.18755 10.634 3.125
      vertex 2.70228 11.8056 3.125
      vertex 3.00261 11.2437 3.125
    endloop
  endfacet
  facet normal 0 0 -1
    outer loop
      vertex -3.18755 10.634 3.125
      vertex 3.00261 11.2437 3.125
      vertex 3.18755 10.634 3.125
    endloop
  endfacet
  facet normal 0 0 -1
    outer loop
      vertex -3.18755 10.634 3.125
      vertex 3.18755 10.634 3.125
      vertex 3.25 10 3.125
    endloop
  endfacet
  facet normal 0 0 -1
    outer loop
      vertex -3.18755 10.634 3.125
      vertex 3.25 10 3.125
      vertex 3.18755 9.36596 3.125
    endloop
  endfacet
  facet normal 0 0 -1
    outer loop
      vertex -3.18755 10.634 3.125
      vertex 3.18755 9.36596 3.125
      vertex 3.00261 8.75628 3.125
    endloop
  endfacet
  facet normal 0 0 -1
    outer loop
      vertex -3.18755 10.634 3.125
      vertex 3.00261 8.75628 3.125
      vertex 2.70228 8.1944 3.125
    endloop
  endfacet
  facet normal 0 0 -1
    outer loop
      vertex -3.18755 10.634 3.125
      vertex 2.70228 8.1944 3.125
      vertex 2.2981 7.7019 3.125
    endloop
  endfacet
  facet normal 0 0 -1
    outer loop
      vertex -3.18755 10.634 3.125
      vertex 2.2981 7.7019 3.125
      vertex 1.8056 7.29772 3.125
    endloop
  endfacet
  facet normal 0 0 -1
    outer loop
      vertex -3.18755 10.634 3.125
      vertex 1.8056 7.29772 3.125
      vertex 1.24372 6.99739 3.125
    endloop
  endfacet
  facet normal 0 0 -1
    outer loop
      vertex -3.18755 10.634 3.125
      vertex 1.24372 6.99739 3.125
      vertex 0.634044 6.81245 3.125
    endloop
  endfacet
  facet normal 0 0 -1
    outer loop
      vertex -3.18755 10.634 3.125
      vertex 0.634044 6.81245 3.125
      vertex -7.21645e-16 6.75 3.125
    endloop
  endfacet
  facet normal 0 0 -1
    outer loop
      vertex -3.18755 10.634 3.125
      vertex -7.21645e-16 6.75 3.125
      vertex -0.634044 6.81245 3.125
    endloop
  endfacet
  facet normal 0 0 -1
    outer loop
      vertex -3.18755 10.634 3.125
      vertex -0.634044 6.81245 3.125
      vertex -1.24372 6.99739 3.125
    endloop
  endfacet
  facet normal 0 0 -1
    outer loop
      vertex -3.18755 10.634 3.125
      vertex -1.24372 6.99739 3.125
      vertex -1.8056 7.29772 3.125
    endloop
  endfacet
  facet normal 0 0 -1
    outer loop
      vertex -3.18755 10.634 3.125
      vertex -1.8056 7.29772 3.125
      vertex -2.2981 7.7019 3.125
    endloop
  endfacet
  facet normal 0 0 -1
    outer loop
      vertex -3.18755 10.634 3.125
      vertex -2.2981 7.7019 3.125
      vertex -2.70228 8.1944 3.125
    endloop
  endfacet
  facet normal 0 0 -1
    outer loop
      vertex -3.18755 10.634 3.125
      vertex -2.70228 8.1944 3.125
      vertex -3.00261 8.75628 3.125
    endloop
  endfacet
  facet normal 0 0 -1
    outer loop
      vertex -3.18755 10.634 3.125
      vertex -3.00261 8.75628 3.125
      vertex -3.18755 9.36596 3.125
    endloop
  endfacet
  facet normal 0 0 -1
    outer loop
      vertex -3.18755 10.634 3.125
      vertex -3.18755 9.36596 3.125
      vertex -3.25 10 3.125
    endloop
  endfacet
  facet normal 0 0 1
    outer loop
      vertex 3.82803 8.92776 10.7409
      vertex 0 7.68541 10.7409
      vertex 3.75942 -6.30039 10.7409
    endloop
  endfacet
  facet normal 0.288452 0.0775367 0.95435
    outer loop
      vertex 0 7.68541 10.7409
      vertex 0 -7.23401 11.9531
      vertex 3.75942 -6.30039 10.7409
    endloop
  endfacet
  facet normal 0.326305 -0.0925809 0.94072
    outer loop
      vertex 3.75942 -6.30039 10.7409
      vertex 0 -7.23401 11.9531
      vertex 5.72904 -9.61716 9.7313
    endloop
  endfacet
  facet normal -0.0924971 -0.00846427 0.995677
    outer loop
      vertex 9.98015 6.39644 5.38311
      vertex 4.59005 19.7241 4.99567
      vertex 5.63248 8.33244 4.99567
    endloop
  endfacet
  facet normal 0.952964 0.0872042 0.290268
    outer loop
      vertex 4.59005 19.7241 4.99567
      vertex 3.82803 8.92776 10.7409
      vertex 5.63248 8.33244 4.99567
    endloop
  endfacet
  facet normal 0.534013 0.427701 0.729316
    outer loop
      vertex 12.0645 14.4428 2.61997
      vertex 4.59005 19.7241 4.99567
      vertex 11.006 12.6389 4.45288
    endloop
  endfacet
  facet normal 0.20507 0.111204 0.972409
    outer loop
      vertex 11.006 12.6389 4.45288
      vertex 4.59005 19.7241 4.99567
      vertex 9.98015 6.39644 5.38311
    endloop
  endfacet
  facet normal 0.953221 0.0822792 0.290859
    outer loop
      vertex 5.63248 8.33244 4.99567
      vertex 3.82803 8.92776 10.7409
      vertex 4.66099 2.84673 9.7313
    endloop
  endfacet
  facet normal 0.76112 -0.00342946 0.648602
    outer loop
      vertex 3.82803 8.92776 10.7409
      vertex 3.75942 -6.30039 10.7409
      vertex 4.66099 2.84673 9.7313
    endloop
  endfacet
  facet normal 0.593063 -0.0716237 0.801964
    outer loop
      vertex 3.98594 -13.9894 10.9982
      vertex 3.62974 -19.82 10.7409
      vertex 5.7872 -13.2602 9.7313
    endloop
  endfacet
  facet normal 0.572801 0.00914505 0.819643
    outer loop
      vertex 5.72904 -9.61716 9.7313
      vertex 3.98594 -13.9894 10.9982
      vertex 5.7872 -13.2602 9.7313
    endloop
  endfacet
  facet normal 0.773798 -0.160174 0.612846
    outer loop
      vertex 5.7872 -13.2602 9.7313
      vertex 3.62974 -19.82 10.7409
      vertex 7.47727 -17.984 6.36278
    endloop
  endfacet
  facet normal 0.772838 -0.336412 0.538096
    outer loop
      vertex 7.47727 -17.984 6.36278
      vertex 3.62974 -19.82 10.7409
      vertex 4.0261 -25.9123 6.36278
    endloop
  endfacet
  facet normal 0.991874 -0.0250977 0.124721
    outer loop
      vertex 3.62974 -19.82 10.7409
      vertex 3.57994 -21.7879 10.7409
      vertex 4.0261 -25.9123 6.36278
    endloop
  endfacet
  facet normal 0.865918 0.444253 0.229836
    outer loop
      vertex 4.50418 -5.487 6.36278
      vertex 3.75942 -6.30039 10.7409
      vertex 5.72904 -9.61716 9.7313
    endloop
  endfacet
  facet normal 0.853963 0.456667 0.249405
    outer loop
      vertex 7.47727 -11.0466 6.36278
      vertex 4.50418 -5.487 6.36278
      vertex 5.72904 -9.61716 9.7313
    endloop
  endfacet
  facet normal 0.889947 0.0142084 0.455843
    outer loop
      vertex 7.47727 -11.0466 6.36278
      vertex 5.72904 -9.61716 9.7313
      vertex 5.7872 -13.2602 9.7313
    endloop
  endfacet
  facet normal 0.965124 0.232381 -0.120562
    outer loop
      vertex 4.0261 -25.9123 6.36278
      vertex 3.57994 -21.7879 10.7409
      vertex 5.56423 -28.8854 12.9452
    endloop
  endfacet
  facet normal 0.414098 0 0.910232
    outer loop
      vertex 7.47727 -11.0466 6.36278
      vertex 7.47727 -17.984 6.36278
      vertex 10.4823 -17.398 4.99567
    endloop
  endfacet
  facet normal 0.414098 0 0.910232
    outer loop
      vertex 10.4823 -13.7439 4.99567
      vertex 7.47727 -11.0466 6.36278
      vertex 10.4823 -17.398 4.99567
    endloop
  endfacet
  facet normal 0.209056 -0.977053 0.0407727
    outer loop
      vertex 10.4823 -17.398 4.99567
      vertex 7.47727 -17.984 6.36278
      vertex 10.9457 -17.398 2.61997
    endloop
  endfacet
  facet normal 0.893811 0 0.448444
    outer loop
      vertex 7.47727 -11.0466 6.36278
      vertex 5.7872 -13.2602 9.7313
      vertex 7.47727 -17.984 6.36278
    endloop
  endfacet
  facet normal -0.977204 -0.165843 -0.132543
    outer loop
      vertex 11.103 -19.7804 4.44105
      vertex 10.9457 -17.398 2.61997
      vertex 11.35 -19.7804 2.61997
    endloop
  endfacet
  facet normal -0.960335 -0.206583 -0.187296
    outer loop
      vertex 11.103 -19.7804 4.44105
      vertex 10.4823 -17.398 4.99567
      vertex 10.9457 -17.398 2.61997
    endloop
  endfacet
  facet normal -0.965051 0.182349 -0.188216
    outer loop
      vertex 10.9457 -13.7439 2.61997
      vertex 10.4823 -13.7439 4.99567
      vertex 12.0671 -7.80904 2.61997
    endloop
  endfacet
  facet normal 0 -1 0
    outer loop
      vertex 12.3967 -19.7804 4.44105
      vertex 11.103 -19.7804 4.44105
      vertex 11.35 -19.7804 2.61997
    endloop
  endfacet
  facet normal 0 -1 0
    outer loop
      vertex 12.3967 -19.7804 2.61997
      vertex 12.3967 -19.7804 4.44105
      vertex 11.35 -19.7804 2.61997
    endloop
  endfacet
  facet normal 0.977636 -0.210305 0
    outer loop
      vertex 12.3967 -19.7804 4.44105
      vertex 12.3967 -19.7804 2.61997
      vertex 12.9092 -17.398 2.61997
    endloop
  endfacet
  facet normal 0.977636 -0.210305 0
    outer loop
      vertex 12.9092 -17.398 4.99567
      vertex 12.3967 -19.7804 4.44105
      vertex 12.9092 -17.398 2.61997
    endloop
  endfacet
  facet normal 0.976705 -0.214589 0
    outer loop
      vertex 12.9092 -17.398 4.99567
      vertex 12.9092 -17.398 2.61997
      vertex 13.712 -13.7439 2.61997
    endloop
  endfacet
  facet normal 0.976705 -0.214589 0
    outer loop
      vertex 13.712 -13.7439 4.99567
      vertex 12.9092 -17.398 4.99567
      vertex 13.712 -13.7439 2.61997
    endloop
  endfacet
  facet normal 0.974361 -0.224989 0
    outer loop
      vertex 13.712 -13.7439 4.99567
      vertex 13.712 -13.7439 2.61997
      vertex 15.0824 -7.80904 2.61997
    endloop
  endfacet
  facet normal 0.974361 -0.224989 0
    outer loop
      vertex 15.0824 -7.80904 4.99567
      vertex 13.712 -13.7439 4.99567
      vertex 15.0824 -7.80904 2.61997
    endloop
  endfacet
  facet normal 1 0 0
    outer loop
      vertex 15.0824 -7.80904 4.99567
      vertex 15.0824 -7.80904 2.61997
      vertex 15.0824 -2.68468 2.61997
    endloop
  endfacet
  facet normal 1 0 0
    outer loop
      vertex 15.0824 -2.68468 4.99567
      vertex 15.0824 -7.80904 4.99567
      vertex 15.0824 -2.68468 2.61997
    endloop
  endfacet
  facet normal 0.984829 0.17353 0
    outer loop
      vertex 15.0824 -2.68468 2.61997
      vertex 12.0645 14.4428 2.61997
      vertex 15.0824 -2.68468 4.99567
    endloop
  endfacet
  facet normal 0.858985 0.215761 0.46432
    outer loop
      vertex 15.0824 -2.68468 4.99567
      vertex 12.0645 14.4428 2.61997
      vertex 13.0876 5.25701 4.99567
    endloop
  endfacet
  facet normal 0.712121 0.249077 0.656387
    outer loop
      vertex 12.0645 14.4428 2.61997
      vertex 11.006 12.6389 4.45288
      vertex 13.0876 5.25701 4.99567
    endloop
  endfacet
  facet normal -0.41614 0 0.909301
    outer loop
      vertex 10.4823 -13.7439 4.99567
      vertex 10.4823 -17.398 4.99567
      vertex 12.3394 -10.4089 5.84557
    endloop
  endfacet
  facet normal -0.41614 0 0.909301
    outer loop
      vertex 10.4823 -2.68468 4.99567
      vertex 10.4823 -13.7439 4.99567
      vertex 12.3394 -10.4089 5.84557
    endloop
  endfacet
  facet normal 0.590814 -0.805311 -0.049111
    outer loop
      vertex 6.47535 -4.10933 7.48562
      vertex 3.75942 -6.30039 10.7409
      vertex 4.50418 -5.487 6.36278
    endloop
  endfacet
  facet normal 0.456982 -0.854669 0.246392
    outer loop
      vertex 6.47535 -4.10933 7.48562
      vertex 4.50418 -5.487 6.36278
      vertex 10.4823 -2.68468 4.99567
    endloop
  endfacet
  facet normal 0.554625 -0.121111 0.82324
    outer loop
      vertex 10.4823 -2.68468 4.99567
      vertex 4.66099 2.84673 9.7313
      vertex 6.47535 -4.10933 7.48562
    endloop
  endfacet
  facet normal 0.765813 0.337118 0.547616
    outer loop
      vertex 5.63248 8.33244 4.99567
      vertex 4.66099 2.84673 9.7313
      vertex 10.4823 -2.68468 4.99567
    endloop
  endfacet
  facet normal -0.110037 -0.0484391 0.992746
    outer loop
      vertex 9.98015 6.39644 5.38311
      vertex 5.63248 8.33244 4.99567
      vertex 10.4823 -2.68468 4.99567
    endloop
  endfacet
  facet normal 0 -0.042625 0.999091
    outer loop
      vertex 15.0824 -2.68468 4.99567
      vertex 9.98015 6.39644 5.38311
      vertex 10.4823 -2.68468 4.99567
    endloop
  endfacet
  facet normal 0 0.109371 0.994001
    outer loop
      vertex 15.0824 -2.68468 4.99567
      vertex 10.4823 -2.68468 4.99567
      vertex 12.3394 -10.4089 5.84557
    endloop
  endfacet
  facet normal 0.769621 -0.00538473 0.638478
    outer loop
      vertex 4.66099 2.84673 9.7313
      vertex 3.75942 -6.30039 10.7409
      vertex 6.47535 -4.10933 7.48562
    endloop
  endfacet
  facet normal 0.16558 0.11868 0.979029
    outer loop
      vertex 11.006 12.6389 4.45288
      vertex 9.98015 6.39644 5.38311
      vertex 13.0876 5.25701 4.99567
    endloop
  endfacet
  facet normal 0.13597 0.034153 0.990124
    outer loop
      vertex 13.0876 5.25701 4.99567
      vertex 9.98015 6.39644 5.38311
      vertex 15.0824 -2.68468 4.99567
    endloop
  endfacet
  facet normal 0 -0.120714 0.992687
    outer loop
      vertex 12.3394 -10.4089 5.84557
      vertex 10.4823 -17.398 4.99567
      vertex 12.9092 -17.398 4.99567
    endloop
  endfacet
  facet normal 0 -0.22674 0.973955
    outer loop
      vertex 12.9092 -17.398 4.99567
      vertex 10.4823 -17.398 4.99567
      vertex 11.103 -19.7804 4.44105
    endloop
  endfacet
  facet normal 0 -0.22674 0.973955
    outer loop
      vertex 12.3967 -19.7804 4.44105
      vertex 12.9092 -17.398 4.99567
      vertex 11.103 -19.7804 4.44105
    endloop
  endfacet
  facet normal 0.37308 -0.0819682 0.924171
    outer loop
      vertex 13.712 -13.7439 4.99567
      vertex 12.3394 -10.4089 5.84557
      vertex 12.9092 -17.398 4.99567
    endloop
  endfacet
  facet normal 0.367378 -0.0848309 0.926195
    outer loop
      vertex 15.0824 -7.80904 4.99567
      vertex 12.3394 -10.4089 5.84557
      vertex 13.712 -13.7439 4.99567
    endloop
  endfacet
  facet normal 0.295961 0 0.9552
    outer loop
      vertex 15.0824 -2.68468 4.99567
      vertex 12.3394 -10.4089 5.84557
      vertex 15.0824 -7.80904 4.99567
    endloop
  endfacet
endsolid OpenSCAD_Model
