solid OpenSCAD_Model
  facet normal -0.964533 -0.263963 0
    outer loop
      vertex -15.0824 -6.58889 2.61997
      vertex -13.712 -11.5964 2.61997
      vertex -15.0824 -6.58889 4.99567
    endloop
  endfacet
  facet normal -0.964533 -0.263963 0
    outer loop
      vertex -15.0824 -6.58889 4.99567
      vertex -13.712 -11.5964 2.61997
      vertex -13.712 -11.5964 4.99567
    endloop
  endfacet
  facet normal 0 0 -1
    outer loop
      vertex -15.0824 -6.58889 2.61997
      vertex -15.0824 -2.2652 2.61997
      vertex -13.712 -11.5964 2.61997
    endloop
  endfacet
  facet normal 0 0 -1
    outer loop
      vertex -13.712 -11.5964 2.61997
      vertex -15.0824 -2.2652 2.61997
      vertex -12.0645 12.1861 2.61997
    endloop
  endfacet
  facet normal 0 0 -1
    outer loop
      vertex -12.0671 -2.2652 2.61997
      vertex -12.0645 12.1861 2.61997
      vertex -6.10081 20.5565 2.61997
    endloop
  endfacet
  facet normal 0 0 -1
    outer loop
      vertex -13.712 -11.5964 2.61997
      vertex -12.0645 12.1861 2.61997
      vertex -12.0671 -2.2652 2.61997
    endloop
  endfacet
  facet normal 0 0 -1
    outer loop
      vertex -13.712 -11.5964 2.61997
      vertex -12.0671 -6.58889 2.61997
      vertex -10.9457 -11.5964 2.61997
    endloop
  endfacet
  facet normal 0 0 -1
    outer loop
      vertex -10.9457 -11.5964 2.61997
      vertex -7.47727 -9.32062 2.61997
      vertex -7.47727 -15.174 2.61997
    endloop
  endfacet
  facet normal 0 0 -1
    outer loop
      vertex -10.9457 -11.5964 2.61997
      vertex -7.47727 -15.174 2.61997
      vertex -13.712 -11.5964 2.61997
    endloop
  endfacet
  facet normal 0 0 -1
    outer loop
      vertex -13.712 -11.5964 2.61997
      vertex -7.47727 -15.174 2.61997
      vertex -10.9457 -14.6796 2.61997
    endloop
  endfacet
  facet normal 0 0 -1
    outer loop
      vertex -13.712 -11.5964 2.61997
      vertex -10.9457 -14.6796 2.61997
      vertex -11.35 -16.6897 2.61997
    endloop
  endfacet
  facet normal 0 0 -1
    outer loop
      vertex -12.9092 -14.6796 2.61997
      vertex -11.35 -16.6897 2.61997
      vertex -12.3967 -16.6897 2.61997
    endloop
  endfacet
  facet normal 0 0 -1
    outer loop
      vertex -13.712 -11.5964 2.61997
      vertex -11.35 -16.6897 2.61997
      vertex -12.9092 -14.6796 2.61997
    endloop
  endfacet
  facet normal 0 0 -1
    outer loop
      vertex -12.0671 -6.58889 2.61997
      vertex -13.712 -11.5964 2.61997
      vertex -12.0671 -2.2652 2.61997
    endloop
  endfacet
  facet normal -1 0 0
    outer loop
      vertex -15.0824 -6.58889 2.61997
      vertex -15.0824 -6.58889 4.99567
      vertex -15.0824 -2.2652 2.61997
    endloop
  endfacet
  facet normal -1 0 0
    outer loop
      vertex -15.0824 -2.2652 2.61997
      vertex -15.0824 -6.58889 4.99567
      vertex -15.0824 -2.2652 4.99567
    endloop
  endfacet
  facet normal -0.295961 0 0.9552
    outer loop
      vertex -15.0824 -2.2652 4.99567
      vertex -15.0824 -6.58889 4.99567
      vertex -12.3394 -8.78253 5.84557
    endloop
  endfacet
  facet normal -0.366844 -0.100394 0.924849
    outer loop
      vertex -12.3394 -8.78253 5.84557
      vertex -15.0824 -6.58889 4.99567
      vertex -13.712 -11.5964 4.99567
    endloop
  endfacet
  facet normal -0.372574 -0.0970156 0.922918
    outer loop
      vertex -12.3394 -8.78253 5.84557
      vertex -13.712 -11.5964 4.99567
      vertex -12.9092 -14.6796 4.99567
    endloop
  endfacet
  facet normal -0.96773 -0.25199 0
    outer loop
      vertex -13.712 -11.5964 2.61997
      vertex -12.9092 -14.6796 2.61997
      vertex -13.712 -11.5964 4.99567
    endloop
  endfacet
  facet normal -0.96773 -0.25199 0
    outer loop
      vertex -13.712 -11.5964 4.99567
      vertex -12.9092 -14.6796 2.61997
      vertex -12.9092 -14.6796 4.99567
    endloop
  endfacet
  facet normal -0.969003 -0.247049 0
    outer loop
      vertex -12.9092 -14.6796 2.61997
      vertex -12.3967 -16.6897 2.61997
      vertex -12.9092 -14.6796 4.99567
    endloop
  endfacet
  facet normal -0.969003 -0.247049 0
    outer loop
      vertex -12.9092 -14.6796 4.99567
      vertex -12.3967 -16.6897 2.61997
      vertex -12.3967 -16.6897 4.44105
    endloop
  endfacet
  facet normal 0 -1 0
    outer loop
      vertex -12.3967 -16.6897 4.44105
      vertex -12.3967 -16.6897 2.61997
      vertex -11.35 -16.6897 2.61997
    endloop
  endfacet
  facet normal 0 -1 0
    outer loop
      vertex -11.103 -16.6897 4.44105
      vertex -12.3967 -16.6897 4.44105
      vertex -11.35 -16.6897 2.61997
    endloop
  endfacet
  facet normal 0.971811 -0.195469 -0.131812
    outer loop
      vertex -11.103 -16.6897 4.44105
      vertex -11.35 -16.6897 2.61997
      vertex -10.9457 -14.6796 2.61997
    endloop
  endfacet
  facet normal 0.952149 -0.242751 -0.1857
    outer loop
      vertex -10.4823 -14.6796 4.99567
      vertex -11.103 -16.6897 4.44105
      vertex -10.9457 -14.6796 2.61997
    endloop
  endfacet
  facet normal -0.177556 -0.983501 0.0346291
    outer loop
      vertex -10.4823 -14.6796 4.99567
      vertex -10.9457 -14.6796 2.61997
      vertex -7.47727 -15.174 6.36278
    endloop
  endfacet
  facet normal -0.141112 -0.989994 0
    outer loop
      vertex -7.47727 -15.174 6.36278
      vertex -10.9457 -14.6796 2.61997
      vertex -7.47727 -15.174 2.61997
    endloop
  endfacet
  facet normal -0.877185 -0.480152 0
    outer loop
      vertex -7.47727 -15.174 6.36278
      vertex -7.47727 -15.174 2.61997
      vertex -4.16878 -21.2182 2.64388
    endloop
  endfacet
  facet normal -0.579347 -0.320088 -0.7496
    outer loop
      vertex -4.16878 -21.2182 2.64388
      vertex -7.47727 -15.174 2.61997
      vertex -5.01136 -13.5016 0
    endloop
  endfacet
  facet normal -0.728193 0 -0.685372
    outer loop
      vertex -5.01136 -13.5016 0
      vertex -7.47727 -15.174 2.61997
      vertex -7.47727 -9.32062 2.61997
    endloop
  endfacet
  facet normal -0.570464 0.167413 -0.804079
    outer loop
      vertex -5.01136 -13.5016 0
      vertex -7.47727 -9.32062 2.61997
      vertex -3.64852 -8.85767 0
    endloop
  endfacet
  facet normal -0.564727 0 -0.825278
    outer loop
      vertex -3.64852 -8.85767 0
      vertex -7.47727 -9.32062 2.61997
      vertex -3.64852 -4.62966 0
    endloop
  endfacet
  facet normal -0.788805 0.369484 -0.491191
    outer loop
      vertex -3.64852 -4.62966 0
      vertex -7.47727 -9.32062 2.61997
      vertex -5.29487 -4.62966 2.64388
    endloop
  endfacet
  facet normal -0.890644 0.413394 0.189362
    outer loop
      vertex -5.29487 -4.62966 2.64388
      vertex -7.47727 -9.32062 2.61997
      vertex -4.50418 -4.62966 6.36278
    endloop
  endfacet
  facet normal -0.844644 0.535328 0
    outer loop
      vertex -4.50418 -4.62966 6.36278
      vertex -7.47727 -9.32062 2.61997
      vertex -7.47727 -9.32062 6.36278
    endloop
  endfacet
  facet normal -0.603729 0.797189 0
    outer loop
      vertex -7.47727 -9.32062 2.61997
      vertex -10.4823 -11.5964 4.99567
      vertex -7.47727 -9.32062 6.36278
    endloop
  endfacet
  facet normal -0.545486 0.83134 0.106387
    outer loop
      vertex -7.47727 -9.32062 2.61997
      vertex -10.9457 -11.5964 2.61997
      vertex -10.4823 -11.5964 4.99567
    endloop
  endfacet
  facet normal 0.958623 0.214677 -0.186962
    outer loop
      vertex -10.9457 -11.5964 2.61997
      vertex -12.0671 -6.58889 2.61997
      vertex -10.4823 -11.5964 4.99567
    endloop
  endfacet
  facet normal 0.831899 0 -0.554928
    outer loop
      vertex -10.4823 -11.5964 4.99567
      vertex -12.0671 -6.58889 2.61997
      vertex -12.0671 -2.2652 2.61997
    endloop
  endfacet
  facet normal 0.831899 0 -0.554928
    outer loop
      vertex -10.4823 -2.2652 4.99567
      vertex -10.4823 -11.5964 4.99567
      vertex -12.0671 -2.2652 2.61997
    endloop
  endfacet
  facet normal -0.322584 -0.921757 0.215184
    outer loop
      vertex -10.4823 -2.2652 4.99567
      vertex -12.0671 -2.2652 2.61997
      vertex -5.29487 -4.62966 2.64388
    endloop
  endfacet
  facet normal -0.322291 -0.925123 -0.20069
    outer loop
      vertex -5.29487 -4.62966 2.64388
      vertex -12.0671 -2.2652 2.61997
      vertex -3.64852 -4.62966 0
    endloop
  endfacet
  facet normal -0.356102 -0.280054 -0.891493
    outer loop
      vertex -3.64852 -4.62966 0
      vertex -12.0671 -2.2652 2.61997
      vertex -8.05708 0.976037 0
    endloop
  endfacet
  facet normal -0.594908 0.0904021 -0.798694
    outer loop
      vertex -8.05708 0.976037 0
      vertex -12.0671 -2.2652 2.61997
      vertex -5.08165 20.5565 0
    endloop
  endfacet
  facet normal -0.905482 0.23672 -0.35223
    outer loop
      vertex -5.08165 20.5565 0
      vertex -12.0671 -2.2652 2.61997
      vertex -6.10081 20.5565 2.61997
    endloop
  endfacet
  facet normal -0.913897 0.195984 -0.355504
    outer loop
      vertex -5.08165 20.5565 0
      vertex -6.10081 20.5565 2.61997
      vertex -3.71456 26.9313 0
    endloop
  endfacet
  facet normal -0.940594 0.264681 -0.212665
    outer loop
      vertex -3.71456 26.9313 0
      vertex -6.10081 20.5565 2.61997
      vertex -4.59005 26.2259 2.99425
    endloop
  endfacet
  facet normal -0.665058 0.128656 0.735626
    outer loop
      vertex -4.59005 26.2259 2.99425
      vertex -6.10081 20.5565 2.61997
      vertex -4.59005 14.7822 4.99567
    endloop
  endfacet
  facet normal -0.374942 0.267139 0.887725
    outer loop
      vertex -6.10081 20.5565 2.61997
      vertex -12.0645 12.1861 2.61997
      vertex -4.59005 14.7822 4.99567
    endloop
  endfacet
  facet normal -0.421498 0.562986 0.710905
    outer loop
      vertex -4.59005 14.7822 4.99567
      vertex -12.0645 12.1861 2.61997
      vertex -11.006 10.6641 4.45288
    endloop
  endfacet
  facet normal -0.703347 0.291565 0.6483
    outer loop
      vertex -12.0645 12.1861 2.61997
      vertex -13.0876 4.43561 4.99567
      vertex -11.006 10.6641 4.45288
    endloop
  endfacet
  facet normal -0.851006 0.253341 0.460007
    outer loop
      vertex -12.0645 12.1861 2.61997
      vertex -15.0824 -2.2652 4.99567
      vertex -13.0876 4.43561 4.99567
    endloop
  endfacet
  facet normal -0.978883 0.204424 0
    outer loop
      vertex -12.0645 12.1861 2.61997
      vertex -15.0824 -2.2652 2.61997
      vertex -15.0824 -2.2652 4.99567
    endloop
  endfacet
  facet normal -0.135938 0.0404681 0.989891
    outer loop
      vertex -13.0876 4.43561 4.99567
      vertex -15.0824 -2.2652 4.99567
      vertex -9.98015 5.39701 5.38311
    endloop
  endfacet
  facet normal 0 -0.0504999 0.998724
    outer loop
      vertex -9.98015 5.39701 5.38311
      vertex -15.0824 -2.2652 4.99567
      vertex -10.4823 -2.2652 4.99567
    endloop
  endfacet
  facet normal 0 0.129312 0.991604
    outer loop
      vertex -10.4823 -2.2652 4.99567
      vertex -15.0824 -2.2652 4.99567
      vertex -12.3394 -8.78253 5.84557
    endloop
  endfacet
  facet normal 0.41614 0 0.909301
    outer loop
      vertex -10.4823 -11.5964 4.99567
      vertex -12.3394 -8.78253 5.84557
      vertex -10.4823 -14.6796 4.99567
    endloop
  endfacet
  facet normal 0.41614 0 0.909301
    outer loop
      vertex -10.4823 -2.2652 4.99567
      vertex -12.3394 -8.78253 5.84557
      vertex -10.4823 -11.5964 4.99567
    endloop
  endfacet
  facet normal 0 -0.142649 0.989773
    outer loop
      vertex -12.3394 -8.78253 5.84557
      vertex -12.9092 -14.6796 4.99567
      vertex -10.4823 -14.6796 4.99567
    endloop
  endfacet
  facet normal 0 -0.265976 0.96398
    outer loop
      vertex -10.4823 -14.6796 4.99567
      vertex -12.9092 -14.6796 4.99567
      vertex -12.3967 -16.6897 4.44105
    endloop
  endfacet
  facet normal 0 -0.265976 0.96398
    outer loop
      vertex -11.103 -16.6897 4.44105
      vertex -10.4823 -14.6796 4.99567
      vertex -12.3967 -16.6897 4.44105
    endloop
  endfacet
  facet normal -0.414098 0 0.910232
    outer loop
      vertex -10.4823 -11.5964 4.99567
      vertex -10.4823 -14.6796 4.99567
      vertex -7.47727 -15.174 6.36278
    endloop
  endfacet
  facet normal -0.414098 0 0.910232
    outer loop
      vertex -7.47727 -9.32062 6.36278
      vertex -10.4823 -11.5964 4.99567
      vertex -7.47727 -15.174 6.36278
    endloop
  endfacet
  facet normal -0.893811 0 0.448444
    outer loop
      vertex -7.47727 -9.32062 6.36278
      vertex -7.47727 -15.174 6.36278
      vertex -5.7872 -11.1883 9.7313
    endloop
  endfacet
  facet normal -0.69351 -0.270331 0.667806
    outer loop
      vertex -5.7872 -11.1883 9.7313
      vertex -7.47727 -15.174 6.36278
      vertex -3.62974 -16.7231 9.7313
    endloop
  endfacet
  facet normal -0.69253 -0.357279 0.626701
    outer loop
      vertex -3.62974 -16.7231 9.7313
      vertex -7.47727 -15.174 6.36278
      vertex -4.0261 -21.8635 6.36278
    endloop
  endfacet
  facet normal -0.887785 -0.458012 -0.045415
    outer loop
      vertex -4.0261 -21.8635 6.36278
      vertex -7.47727 -15.174 6.36278
      vertex -4.16878 -21.2182 2.64388
    endloop
  endfacet
  facet normal -0.652736 0.741816 0.153767
    outer loop
      vertex -4.16878 -21.2182 2.64388
      vertex -5.56423 -24.3721 11.9356
      vertex -4.0261 -21.8635 6.36278
    endloop
  endfacet
  facet normal -0.894356 0.447016 0.0174153
    outer loop
      vertex -4.16878 -21.2182 2.64388
      vertex -6.58106 -26.0445 2.64388
      vertex -5.56423 -24.3721 11.9356
    endloop
  endfacet
  facet normal -0.820695 0.410199 -0.397739
    outer loop
      vertex -4.46384 -24.3721 0
      vertex -6.58106 -26.0445 2.64388
      vertex -4.16878 -21.2182 2.64388
    endloop
  endfacet
  facet normal -0.755824 0.460727 -0.465254
    outer loop
      vertex -2.93469 -21.8635 0
      vertex -4.46384 -24.3721 0
      vertex -4.16878 -21.2182 2.64388
    endloop
  endfacet
  facet normal -0.902903 -0.224235 -0.366721
    outer loop
      vertex -4.16878 -21.2182 2.64388
      vertex -5.01136 -13.5016 0
      vertex -2.93469 -21.8635 0
    endloop
  endfacet
  facet normal 0 0 -1
    outer loop
      vertex -8.05708 0.976037 0
      vertex -5.08165 20.5565 0
      vertex -3.64852 -4.62966 0
    endloop
  endfacet
  facet normal 0 0 -1
    outer loop
      vertex -3.64852 -4.62966 0
      vertex -5.08165 20.5565 0
      vertex -3.71456 26.9313 0
    endloop
  endfacet
  facet normal 0 0 -1
    outer loop
      vertex -2.2981 12.2981 0
      vertex -3.71456 26.9313 0
      vertex 3.71456 26.9313 0
    endloop
  endfacet
  facet normal 0 0 -1
    outer loop
      vertex 1.8056 12.7023 0
      vertex 3.71456 26.9313 0
      vertex 5.08165 20.5565 0
    endloop
  endfacet
  facet normal 0 0 -1
    outer loop
      vertex 3.25 0 0
      vertex 5.08165 20.5565 0
      vertex 8.05708 0.976037 0
    endloop
  endfacet
  facet normal 0 0 -1
    outer loop
      vertex 1.8056 -2.70228 0
      vertex 8.05708 0.976037 0
      vertex 3.64852 -4.62966 0
    endloop
  endfacet
  facet normal 0 0 -1
    outer loop
      vertex -3.64852 -4.62966 0
      vertex 3.64852 -4.62966 0
      vertex 3.64852 -8.85767 0
    endloop
  endfacet
  facet normal 0 0 -1
    outer loop
      vertex 3.64852 -8.85767 0
      vertex 5.01136 -13.5016 0
      vertex -3.64852 -4.62966 0
    endloop
  endfacet
  facet normal 0 0 -1
    outer loop
      vertex -3.64852 -4.62966 0
      vertex 5.01136 -13.5016 0
      vertex 2.93469 -21.8635 0
    endloop
  endfacet
  facet normal 0 0 -1
    outer loop
      vertex -3.64852 -8.85767 0
      vertex 0 -26.0445 0
      vertex -2.93469 -21.8635 0
    endloop
  endfacet
  facet normal 0 0 -1
    outer loop
      vertex 2.93469 -21.8635 0
      vertex 4.46384 -24.3721 0
      vertex 0 -26.0445 0
    endloop
  endfacet
  facet normal 0 0 -1
    outer loop
      vertex -2.70228 -1.8056 0
      vertex -3.64852 -4.62966 0
      vertex -3.00261 -1.24372 0
    endloop
  endfacet
  facet normal 0 0 -1
    outer loop
      vertex 0 -26.0445 0
      vertex -4.46384 -24.3721 0
      vertex -2.93469 -21.8635 0
    endloop
  endfacet
  facet normal 0 0 -1
    outer loop
      vertex -2.70228 1.8056 0
      vertex -1.24372 6.99739 0
      vertex -2.2981 2.2981 0
    endloop
  endfacet
  facet normal 0 0 -1
    outer loop
      vertex 2.93469 -21.8635 0
      vertex 0 -26.0445 0
      vertex -3.64852 -8.85767 0
    endloop
  endfacet
  facet normal 0 0 -1
    outer loop
      vertex -3.64852 -8.85767 0
      vertex -2.93469 -21.8635 0
      vertex -5.01136 -13.5016 0
    endloop
  endfacet
  facet normal 0 0 -1
    outer loop
      vertex -3.64852 -4.62966 0
      vertex -3.71456 26.9313 0
      vertex -3.25 0 0
    endloop
  endfacet
  facet normal 0 0 -1
    outer loop
      vertex -3.18755 9.36596 0
      vertex -3.00261 1.24372 0
      vertex -3.25 10 0
    endloop
  endfacet
  facet normal 0 0 -1
    outer loop
      vertex -3.64852 -4.62966 0
      vertex -3.25 0 0
      vertex -3.18755 -0.634044 0
    endloop
  endfacet
  facet normal 0 0 -1
    outer loop
      vertex -3.64852 -4.62966 0
      vertex -3.18755 -0.634044 0
      vertex -3.00261 -1.24372 0
    endloop
  endfacet
  facet normal 0 0 -1
    outer loop
      vertex -1.8056 2.70228 0
      vertex -0.634044 6.81245 0
      vertex -1.24372 3.00261 0
    endloop
  endfacet
  facet normal 0 0 -1
    outer loop
      vertex -0.634044 3.18755 0
      vertex 0.634044 6.81245 0
      vertex 0 3.25 0
    endloop
  endfacet
  facet normal 0 0 -1
    outer loop
      vertex -3.64852 -4.62966 0
      vertex -2.2981 -2.2981 0
      vertex -1.8056 -2.70228 0
    endloop
  endfacet
  facet normal 0 0 -1
    outer loop
      vertex -3.64852 -4.62966 0
      vertex -1.8056 -2.70228 0
      vertex -1.24372 -3.00261 0
    endloop
  endfacet
  facet normal 0 0 -1
    outer loop
      vertex 2.2981 -2.2981 0
      vertex 8.05708 0.976037 0
      vertex 1.8056 -2.70228 0
    endloop
  endfacet
  facet normal 0 0 -1
    outer loop
      vertex -3.64852 -4.62966 0
      vertex -0.634044 -3.18755 0
      vertex 3.64852 -4.62966 0
    endloop
  endfacet
  facet normal 0 0 -1
    outer loop
      vertex 3.00261 -1.24372 0
      vertex 8.05708 0.976037 0
      vertex 2.70228 -1.8056 0
    endloop
  endfacet
  facet normal 0 0 -1
    outer loop
      vertex -0.634044 -3.18755 0
      vertex 0 -3.25 0
      vertex 3.64852 -4.62966 0
    endloop
  endfacet
  facet normal 0 0 -1
    outer loop
      vertex 0 -3.25 0
      vertex 0.634044 -3.18755 0
      vertex 3.64852 -4.62966 0
    endloop
  endfacet
  facet normal 0 0 -1
    outer loop
      vertex 2.70228 -1.8056 0
      vertex 8.05708 0.976037 0
      vertex 2.2981 -2.2981 0
    endloop
  endfacet
  facet normal 0 0 -1
    outer loop
      vertex 0.634044 -3.18755 0
      vertex 1.24372 -3.00261 0
      vertex 3.64852 -4.62966 0
    endloop
  endfacet
  facet normal 0 0 -1
    outer loop
      vertex 1.24372 -3.00261 0
      vertex 1.8056 -2.70228 0
      vertex 3.64852 -4.62966 0
    endloop
  endfacet
  facet normal 0 0 -1
    outer loop
      vertex 3.25 0 0
      vertex 8.05708 0.976037 0
      vertex 3.18755 -0.634044 0
    endloop
  endfacet
  facet normal 0 0 -1
    outer loop
      vertex 3.18755 0.634044 0
      vertex 5.08165 20.5565 0
      vertex 3.25 0 0
    endloop
  endfacet
  facet normal 0 0 -1
    outer loop
      vertex 2.2981 12.2981 0
      vertex 5.08165 20.5565 0
      vertex 2.70228 11.8056 0
    endloop
  endfacet
  facet normal 0 0 -1
    outer loop
      vertex 3.00261 1.24372 0
      vertex 5.08165 20.5565 0
      vertex 3.18755 0.634044 0
    endloop
  endfacet
  facet normal 0 0 -1
    outer loop
      vertex 2.70228 1.8056 0
      vertex 5.08165 20.5565 0
      vertex 3.00261 1.24372 0
    endloop
  endfacet
  facet normal 0 0 -1
    outer loop
      vertex 2.2981 2.2981 0
      vertex 5.08165 20.5565 0
      vertex 2.70228 1.8056 0
    endloop
  endfacet
  facet normal 0 0 -1
    outer loop
      vertex 3.18755 9.36596 0
      vertex 5.08165 20.5565 0
      vertex 2.2981 2.2981 0
    endloop
  endfacet
  facet normal 0 0 -1
    outer loop
      vertex 3.00261 11.2437 0
      vertex 5.08165 20.5565 0
      vertex 3.18755 10.634 0
    endloop
  endfacet
  facet normal 0 0 -1
    outer loop
      vertex 2.70228 11.8056 0
      vertex 5.08165 20.5565 0
      vertex 3.00261 11.2437 0
    endloop
  endfacet
  facet normal 0 0 -1
    outer loop
      vertex -0.634044 -3.18755 0
      vertex -3.64852 -4.62966 0
      vertex -1.24372 -3.00261 0
    endloop
  endfacet
  facet normal 0 0 -1
    outer loop
      vertex 0.634044 6.81245 0
      vertex -1.24372 3.00261 0
      vertex -7.21645e-16 6.75 0
    endloop
  endfacet
  facet normal 0 0 -1
    outer loop
      vertex 7.21645e-16 13.25 0
      vertex 3.71456 26.9313 0
      vertex 0.634044 13.1876 0
    endloop
  endfacet
  facet normal 0 0 -1
    outer loop
      vertex -7.21645e-16 6.75 0
      vertex -1.24372 3.00261 0
      vertex -0.634044 6.81245 0
    endloop
  endfacet
  facet normal 0 0 -1
    outer loop
      vertex -2.2981 -2.2981 0
      vertex -3.64852 -4.62966 0
      vertex -2.70228 -1.8056 0
    endloop
  endfacet
  facet normal 0 0 -1
    outer loop
      vertex -0.634044 6.81245 0
      vertex -1.8056 2.70228 0
      vertex -2.2981 2.2981 0
    endloop
  endfacet
  facet normal 0 0 -1
    outer loop
      vertex -0.634044 6.81245 0
      vertex -2.2981 2.2981 0
      vertex -1.24372 6.99739 0
    endloop
  endfacet
  facet normal 0 0 -1
    outer loop
      vertex -1.24372 6.99739 0
      vertex -2.70228 1.8056 0
      vertex -3.00261 1.24372 0
    endloop
  endfacet
  facet normal 0 0 -1
    outer loop
      vertex -3.25 10 0
      vertex -3.71456 26.9313 0
      vertex -3.18755 10.634 0
    endloop
  endfacet
  facet normal 0 0 -1
    outer loop
      vertex -3.25 0 0
      vertex -3.71456 26.9313 0
      vertex -3.18755 0.634044 0
    endloop
  endfacet
  facet normal 0 0 -1
    outer loop
      vertex -3.18755 0.634044 0
      vertex -3.71456 26.9313 0
      vertex -3.25 10 0
    endloop
  endfacet
  facet normal 0 0 -1
    outer loop
      vertex -3.18755 0.634044 0
      vertex -3.25 10 0
      vertex -3.00261 1.24372 0
    endloop
  endfacet
  facet normal 0 0 -1
    outer loop
      vertex -1.24372 6.99739 0
      vertex -3.00261 1.24372 0
      vertex -1.8056 7.29772 0
    endloop
  endfacet
  facet normal 0 0 -1
    outer loop
      vertex -3.00261 1.24372 0
      vertex -3.18755 9.36596 0
      vertex -3.00261 8.75628 0
    endloop
  endfacet
  facet normal 0 0 -1
    outer loop
      vertex -3.00261 1.24372 0
      vertex -3.00261 8.75628 0
      vertex -2.70228 8.1944 0
    endloop
  endfacet
  facet normal 0 0 -1
    outer loop
      vertex -3.00261 1.24372 0
      vertex -2.70228 8.1944 0
      vertex -2.2981 7.7019 0
    endloop
  endfacet
  facet normal 0 0 -1
    outer loop
      vertex -3.00261 1.24372 0
      vertex -2.2981 7.7019 0
      vertex -1.8056 7.29772 0
    endloop
  endfacet
  facet normal 0 0 -1
    outer loop
      vertex 1.8056 12.7023 0
      vertex 5.08165 20.5565 0
      vertex 2.2981 12.2981 0
    endloop
  endfacet
  facet normal 0 0 -1
    outer loop
      vertex 0.634044 6.81245 0
      vertex -0.634044 3.18755 0
      vertex -1.24372 3.00261 0
    endloop
  endfacet
  facet normal 0 0 -1
    outer loop
      vertex 1.24372 6.99739 0
      vertex 0 3.25 0
      vertex 0.634044 6.81245 0
    endloop
  endfacet
  facet normal 0 0 -1
    outer loop
      vertex 1.8056 7.29772 0
      vertex 0.634044 3.18755 0
      vertex 1.24372 6.99739 0
    endloop
  endfacet
  facet normal 0 0 -1
    outer loop
      vertex 0 3.25 0
      vertex 1.24372 6.99739 0
      vertex 0.634044 3.18755 0
    endloop
  endfacet
  facet normal 0 0 -1
    outer loop
      vertex 2.2981 7.7019 0
      vertex 1.24372 3.00261 0
      vertex 1.8056 7.29772 0
    endloop
  endfacet
  facet normal 0 0 -1
    outer loop
      vertex 0.634044 3.18755 0
      vertex 1.8056 7.29772 0
      vertex 1.24372 3.00261 0
    endloop
  endfacet
  facet normal 0 0 -1
    outer loop
      vertex 3.00261 8.75628 0
      vertex 1.8056 2.70228 0
      vertex 2.70228 8.1944 0
    endloop
  endfacet
  facet normal 0 0 -1
    outer loop
      vertex 1.24372 3.00261 0
      vertex 2.2981 7.7019 0
      vertex 1.8056 2.70228 0
    endloop
  endfacet
  facet normal 0 0 -1
    outer loop
      vertex 2.2981 7.7019 0
      vertex 2.70228 8.1944 0
      vertex 1.8056 2.70228 0
    endloop
  endfacet
  facet normal 0 0 -1
    outer loop
      vertex 3.18755 10.634 0
      vertex 5.08165 20.5565 0
      vertex 3.25 10 0
    endloop
  endfacet
  facet normal 0 0 -1
    outer loop
      vertex 1.8056 2.70228 0
      vertex 3.00261 8.75628 0
      vertex 2.2981 2.2981 0
    endloop
  endfacet
  facet normal 0 0 -1
    outer loop
      vertex 3.25 10 0
      vertex 5.08165 20.5565 0
      vertex 3.18755 9.36596 0
    endloop
  endfacet
  facet normal 0 0 -1
    outer loop
      vertex 3.00261 8.75628 0
      vertex 3.18755 9.36596 0
      vertex 2.2981 2.2981 0
    endloop
  endfacet
  facet normal 0 0 -1
    outer loop
      vertex 3.18755 -0.634044 0
      vertex 8.05708 0.976037 0
      vertex 3.00261 -1.24372 0
    endloop
  endfacet
  facet normal 0 0 -1
    outer loop
      vertex 1.24372 13.0026 0
      vertex 3.71456 26.9313 0
      vertex 1.8056 12.7023 0
    endloop
  endfacet
  facet normal 0 0 -1
    outer loop
      vertex 0.634044 13.1876 0
      vertex 3.71456 26.9313 0
      vertex 1.24372 13.0026 0
    endloop
  endfacet
  facet normal 0 0 -1
    outer loop
      vertex -1.24372 13.0026 0
      vertex 3.71456 26.9313 0
      vertex -0.634044 13.1876 0
    endloop
  endfacet
  facet normal 0 0 -1
    outer loop
      vertex -1.8056 12.7023 0
      vertex 3.71456 26.9313 0
      vertex -1.24372 13.0026 0
    endloop
  endfacet
  facet normal 0 0 -1
    outer loop
      vertex -2.2981 12.2981 0
      vertex 3.71456 26.9313 0
      vertex -1.8056 12.7023 0
    endloop
  endfacet
  facet normal 0 0 -1
    outer loop
      vertex -2.70228 11.8056 0
      vertex -3.71456 26.9313 0
      vertex -2.2981 12.2981 0
    endloop
  endfacet
  facet normal 0 0 -1
    outer loop
      vertex -3.00261 11.2437 0
      vertex -3.71456 26.9313 0
      vertex -2.70228 11.8056 0
    endloop
  endfacet
  facet normal 0 0 -1
    outer loop
      vertex -3.18755 10.634 0
      vertex -3.71456 26.9313 0
      vertex -3.00261 11.2437 0
    endloop
  endfacet
  facet normal 0 0 -1
    outer loop
      vertex -0.634044 13.1876 0
      vertex 3.71456 26.9313 0
      vertex 7.21645e-16 13.25 0
    endloop
  endfacet
  facet normal 0 0 -1
    outer loop
      vertex -3.64852 -4.62966 0
      vertex 2.93469 -21.8635 0
      vertex -3.64852 -8.85767 0
    endloop
  endfacet
  facet normal -0.382607 -0.920323 0.0813472
    outer loop
      vertex -4.50418 -4.62966 6.36278
      vertex -10.4823 -2.2652 4.99567
      vertex -5.29487 -4.62966 2.64388
    endloop
  endfacet
  facet normal -0.401482 -0.889918 0.216468
    outer loop
      vertex -6.47535 -3.46725 7.48562
      vertex -10.4823 -2.2652 4.99567
      vertex -4.50418 -4.62966 6.36278
    endloop
  endfacet
  facet normal -0.530299 -0.846017 -0.0551199
    outer loop
      vertex -3.75942 -5.31596 9.7313
      vertex -6.47535 -3.46725 7.48562
      vertex -4.50418 -4.62966 6.36278
    endloop
  endfacet
  facet normal -0.783695 0.551569 0.285647
    outer loop
      vertex -4.50418 -4.62966 6.36278
      vertex -5.72904 -8.11449 9.7313
      vertex -3.75942 -5.31596 9.7313
    endloop
  endfacet
  facet normal -0.820061 0.519747 0.239503
    outer loop
      vertex -4.50418 -4.62966 6.36278
      vertex -7.47727 -9.32062 6.36278
      vertex -5.72904 -8.11449 9.7313
    endloop
  endfacet
  facet normal -0.889911 0.0168389 0.455824
    outer loop
      vertex -5.72904 -8.11449 9.7313
      vertex -7.47727 -9.32062 6.36278
      vertex -5.7872 -11.1883 9.7313
    endloop
  endfacet
  facet normal 0.109984 -0.057382 0.992276
    outer loop
      vertex -9.98015 5.39701 5.38311
      vertex -10.4823 -2.2652 4.99567
      vertex -5.63248 7.03051 4.99567
    endloop
  endfacet
  facet normal -0.748788 0.390664 0.535442
    outer loop
      vertex -5.63248 7.03051 4.99567
      vertex -10.4823 -2.2652 4.99567
      vertex -4.66099 2.40193 9.7313
    endloop
  endfacet
  facet normal -0.552986 -0.143114 0.820807
    outer loop
      vertex -4.66099 2.40193 9.7313
      vertex -10.4823 -2.2652 4.99567
      vertex -6.47535 -3.46725 7.48562
    endloop
  endfacet
  facet normal 0 0.908553 -0.41777
    outer loop
      vertex 3.71456 26.9313 0
      vertex -3.71456 26.9313 0
      vertex 0 28.3082 2.99425
    endloop
  endfacet
  facet normal -0.411314 0.906701 0.0933442
    outer loop
      vertex -3.71456 26.9313 0
      vertex -4.59005 26.2259 2.99425
      vertex 0 28.3082 2.99425
    endloop
  endfacet
  facet normal -0.0403769 0.0890068 0.995212
    outer loop
      vertex 0 28.3082 2.99425
      vertex -4.59005 26.2259 2.99425
      vertex 0 15.8537 4.10811
    endloop
  endfacet
  facet normal 0.14859 0.170365 0.974113
    outer loop
      vertex -4.59005 26.2259 2.99425
      vertex -4.59005 14.7822 4.99567
      vertex 0 15.8537 4.10811
    endloop
  endfacet
  facet normal 0.0934373 -0.0125652 0.995546
    outer loop
      vertex -4.59005 14.7822 4.99567
      vertex -9.98015 5.39701 5.38311
      vertex -5.63248 7.03051 4.99567
    endloop
  endfacet
  facet normal -0.171621 0.138828 0.975332
    outer loop
      vertex -4.59005 14.7822 4.99567
      vertex -11.006 10.6641 4.45288
      vertex -9.98015 5.39701 5.38311
    endloop
  endfacet
  facet normal 0.102903 0.334986 0.936587
    outer loop
      vertex 0 15.8537 4.10811
      vertex -4.59005 14.7822 4.99567
      vertex 0 8.24206 6.83056
    endloop
  endfacet
  facet normal 0.45229 0.520598 0.724163
    outer loop
      vertex 0 8.24206 6.83056
      vertex -4.59005 14.7822 4.99567
      vertex -3.82803 7.53281 9.7313
    endloop
  endfacet
  facet normal -0.93145 0.125259 0.341631
    outer loop
      vertex -4.59005 14.7822 4.99567
      vertex -5.63248 7.03051 4.99567
      vertex -3.82803 7.53281 9.7313
    endloop
  endfacet
  facet normal -0.165111 0.140259 0.976251
    outer loop
      vertex -11.006 10.6641 4.45288
      vertex -13.0876 4.43561 4.99567
      vertex -9.98015 5.39701 5.38311
    endloop
  endfacet
  facet normal -0.162273 -0.0632541 0.984716
    outer loop
      vertex -3.98594 -11.8036 9.98862
      vertex -5.7872 -11.1883 9.7313
      vertex -3.62974 -16.7231 9.7313
    endloop
  endfacet
  facet normal -0.140525 0.00265902 0.990074
    outer loop
      vertex -5.72904 -8.11449 9.7313
      vertex -5.7872 -11.1883 9.7313
      vertex -3.98594 -11.8036 9.98862
    endloop
  endfacet
  facet normal 0.0715619 -0.0469305 0.996331
    outer loop
      vertex 0 -11.1883 9.7313
      vertex -3.98594 -11.8036 9.98862
      vertex -3.62974 -16.7231 9.7313
    endloop
  endfacet
  facet normal -0.144826 0.0949773 0.984888
    outer loop
      vertex 0 -11.1883 9.7313
      vertex -3.62974 -16.7231 9.7313
      vertex 0 -16.7231 10.2651
    endloop
  endfacet
  facet normal -0.142905 -0.187435 0.971826
    outer loop
      vertex 0 -16.7231 10.2651
      vertex -3.62974 -16.7231 9.7313
      vertex 0 -19.4905 9.7313
    endloop
  endfacet
  facet normal 0 0 1
    outer loop
      vertex 0 -19.4905 9.7313
      vertex -3.62974 -16.7231 9.7313
      vertex -3.57994 -18.3836 9.7313
    endloop
  endfacet
  facet normal -0.986475 -0.0295834 0.16122
    outer loop
      vertex -3.62974 -16.7231 9.7313
      vertex -4.0261 -21.8635 6.36278
      vertex -3.57994 -18.3836 9.7313
    endloop
  endfacet
  facet normal -0.953917 0.262691 -0.145038
    outer loop
      vertex -4.0261 -21.8635 6.36278
      vertex -5.56423 -24.3721 11.9356
      vertex -3.57994 -18.3836 9.7313
    endloop
  endfacet
  facet normal 0.601727 -0.365104 0.710369
    outer loop
      vertex 0 -19.4905 9.7313
      vertex -5.56423 -24.3721 11.9356
      vertex 0 -26.0445 6.36278
    endloop
  endfacet
  facet normal -0.105874 -0.97657 0.187357
    outer loop
      vertex -5.56423 -24.3721 11.9356
      vertex -6.58106 -26.0445 2.64388
      vertex 0 -26.0445 6.36278
    endloop
  endfacet
  facet normal 0.0974574 0.315181 0.944014
    outer loop
      vertex -3.57994 -18.3836 9.7313
      vertex -5.56423 -24.3721 11.9356
      vertex 0 -19.4905 9.7313
    endloop
  endfacet
  facet normal -0.264256 -0.705335 -0.657777
    outer loop
      vertex 0 -26.0445 0
      vertex -6.58106 -26.0445 2.64388
      vertex -4.46384 -24.3721 0
    endloop
  endfacet
  facet normal 0 -1 0
    outer loop
      vertex 0 -26.0445 6.36278
      vertex -6.58106 -26.0445 2.64388
      vertex 0 -26.0445 0
    endloop
  endfacet
  facet normal 0 -1 0
    outer loop
      vertex 6.58106 -26.0445 2.64388
      vertex 0 -26.0445 6.36278
      vertex 0 -26.0445 0
    endloop
  endfacet
  facet normal 0.264256 -0.705335 -0.657777
    outer loop
      vertex 6.58106 -26.0445 2.64388
      vertex 0 -26.0445 0
      vertex 4.46384 -24.3721 0
    endloop
  endfacet
  facet normal 0.820695 0.410199 -0.397739
    outer loop
      vertex 4.46384 -24.3721 0
      vertex 4.16878 -21.2182 2.64388
      vertex 6.58106 -26.0445 2.64388
    endloop
  endfacet
  facet normal 0.755824 0.460727 -0.465254
    outer loop
      vertex 4.46384 -24.3721 0
      vertex 2.93469 -21.8635 0
      vertex 4.16878 -21.2182 2.64388
    endloop
  endfacet
  facet normal 0.902903 -0.224235 -0.366721
    outer loop
      vertex 4.16878 -21.2182 2.64388
      vertex 2.93469 -21.8635 0
      vertex 5.01136 -13.5016 0
    endloop
  endfacet
  facet normal 0.579347 -0.320088 -0.7496
    outer loop
      vertex 7.47727 -15.174 2.61997
      vertex 4.16878 -21.2182 2.64388
      vertex 5.01136 -13.5016 0
    endloop
  endfacet
  facet normal 0.728193 0 -0.685372
    outer loop
      vertex 7.47727 -15.174 2.61997
      vertex 5.01136 -13.5016 0
      vertex 7.47727 -9.32062 2.61997
    endloop
  endfacet
  facet normal 0.570464 0.167413 -0.804079
    outer loop
      vertex 5.01136 -13.5016 0
      vertex 3.64852 -8.85767 0
      vertex 7.47727 -9.32062 2.61997
    endloop
  endfacet
  facet normal 0.564727 0 -0.825278
    outer loop
      vertex 7.47727 -9.32062 2.61997
      vertex 3.64852 -8.85767 0
      vertex 3.64852 -4.62966 0
    endloop
  endfacet
  facet normal 0.788805 0.369484 -0.491191
    outer loop
      vertex 7.47727 -9.32062 2.61997
      vertex 3.64852 -4.62966 0
      vertex 5.29487 -4.62966 2.64388
    endloop
  endfacet
  facet normal 0.322291 -0.925123 -0.20069
    outer loop
      vertex 5.29487 -4.62966 2.64388
      vertex 3.64852 -4.62966 0
      vertex 12.0671 -2.2652 2.61997
    endloop
  endfacet
  facet normal 0.356102 -0.280054 -0.891493
    outer loop
      vertex 12.0671 -2.2652 2.61997
      vertex 3.64852 -4.62966 0
      vertex 8.05708 0.976037 0
    endloop
  endfacet
  facet normal 0.594908 0.0904021 -0.798694
    outer loop
      vertex 8.05708 0.976037 0
      vertex 5.08165 20.5565 0
      vertex 12.0671 -2.2652 2.61997
    endloop
  endfacet
  facet normal 0.913897 0.195984 -0.355504
    outer loop
      vertex 5.08165 20.5565 0
      vertex 3.71456 26.9313 0
      vertex 6.10081 20.5565 2.61997
    endloop
  endfacet
  facet normal 0.905482 0.23672 -0.35223
    outer loop
      vertex 12.0671 -2.2652 2.61997
      vertex 5.08165 20.5565 0
      vertex 6.10081 20.5565 2.61997
    endloop
  endfacet
  facet normal 0.940594 0.264681 -0.212665
    outer loop
      vertex 6.10081 20.5565 2.61997
      vertex 3.71456 26.9313 0
      vertex 4.59005 26.2259 2.99425
    endloop
  endfacet
  facet normal 0.411314 0.906701 0.0933442
    outer loop
      vertex 3.71456 26.9313 0
      vertex 0 28.3082 2.99425
      vertex 4.59005 26.2259 2.99425
    endloop
  endfacet
  facet normal 0.995185 -0.0980173 0
    outer loop
      vertex -3.18755 0.634044 0
      vertex -3.18755 0.634044 6.525
      vertex -3.25 0 6.525
    endloop
  endfacet
  facet normal 0.995185 -0.0980173 0
    outer loop
      vertex -3.25 0 0
      vertex -3.18755 0.634044 0
      vertex -3.25 0 6.525
    endloop
  endfacet
  facet normal 0.995185 0.0980173 0
    outer loop
      vertex -3.25 0 6.525
      vertex -3.18755 -0.634044 6.525
      vertex -3.18755 -0.634044 0
    endloop
  endfacet
  facet normal 0.995185 0.0980173 0
    outer loop
      vertex -3.25 0 0
      vertex -3.25 0 6.525
      vertex -3.18755 -0.634044 0
    endloop
  endfacet
  facet normal 0.95694 -0.290285 0
    outer loop
      vertex -3.00261 1.24372 0
      vertex -3.00261 1.24372 6.525
      vertex -3.18755 0.634044 6.525
    endloop
  endfacet
  facet normal 0.95694 -0.290285 0
    outer loop
      vertex -3.18755 0.634044 0
      vertex -3.00261 1.24372 0
      vertex -3.18755 0.634044 6.525
    endloop
  endfacet
  facet normal 0.881921 -0.471397 0
    outer loop
      vertex -2.70228 1.8056 0
      vertex -2.70228 1.8056 6.525
      vertex -3.00261 1.24372 6.525
    endloop
  endfacet
  facet normal 0.881921 -0.471397 0
    outer loop
      vertex -3.00261 1.24372 0
      vertex -2.70228 1.8056 0
      vertex -3.00261 1.24372 6.525
    endloop
  endfacet
  facet normal 0.773011 -0.634393 0
    outer loop
      vertex -2.2981 2.2981 0
      vertex -2.2981 2.2981 6.525
      vertex -2.70228 1.8056 6.525
    endloop
  endfacet
  facet normal 0.773011 -0.634393 0
    outer loop
      vertex -2.70228 1.8056 0
      vertex -2.2981 2.2981 0
      vertex -2.70228 1.8056 6.525
    endloop
  endfacet
  facet normal 0.634393 -0.773011 0
    outer loop
      vertex -1.8056 2.70228 0
      vertex -1.8056 2.70228 6.525
      vertex -2.2981 2.2981 6.525
    endloop
  endfacet
  facet normal 0.634393 -0.773011 0
    outer loop
      vertex -2.2981 2.2981 0
      vertex -1.8056 2.70228 0
      vertex -2.2981 2.2981 6.525
    endloop
  endfacet
  facet normal 0.471397 -0.881921 0
    outer loop
      vertex -1.24372 3.00261 0
      vertex -1.24372 3.00261 6.525
      vertex -1.8056 2.70228 6.525
    endloop
  endfacet
  facet normal 0.471397 -0.881921 0
    outer loop
      vertex -1.8056 2.70228 0
      vertex -1.24372 3.00261 0
      vertex -1.8056 2.70228 6.525
    endloop
  endfacet
  facet normal 0.290285 -0.95694 0
    outer loop
      vertex -0.634044 3.18755 0
      vertex -0.634044 3.18755 6.525
      vertex -1.24372 3.00261 6.525
    endloop
  endfacet
  facet normal 0.290285 -0.95694 0
    outer loop
      vertex -1.24372 3.00261 0
      vertex -0.634044 3.18755 0
      vertex -1.24372 3.00261 6.525
    endloop
  endfacet
  facet normal 0.0980173 -0.995185 0
    outer loop
      vertex 0 3.25 0
      vertex 0 3.25 6.525
      vertex -0.634044 3.18755 6.525
    endloop
  endfacet
  facet normal 0.0980173 -0.995185 0
    outer loop
      vertex -0.634044 3.18755 0
      vertex 0 3.25 0
      vertex -0.634044 3.18755 6.525
    endloop
  endfacet
  facet normal -0.0980173 -0.995185 0
    outer loop
      vertex 0.634044 3.18755 0
      vertex 0.634044 3.18755 6.525
      vertex 0 3.25 6.525
    endloop
  endfacet
  facet normal -0.0980173 -0.995185 0
    outer loop
      vertex 0 3.25 0
      vertex 0.634044 3.18755 0
      vertex 0 3.25 6.525
    endloop
  endfacet
  facet normal -0.290285 -0.95694 0
    outer loop
      vertex 1.24372 3.00261 0
      vertex 1.24372 3.00261 6.525
      vertex 0.634044 3.18755 6.525
    endloop
  endfacet
  facet normal -0.290285 -0.95694 0
    outer loop
      vertex 0.634044 3.18755 0
      vertex 1.24372 3.00261 0
      vertex 0.634044 3.18755 6.525
    endloop
  endfacet
  facet normal -0.471397 -0.881921 0
    outer loop
      vertex 1.8056 2.70228 0
      vertex 1.8056 2.70228 6.525
      vertex 1.24372 3.00261 6.525
    endloop
  endfacet
  facet normal -0.471397 -0.881921 0
    outer loop
      vertex 1.24372 3.00261 0
      vertex 1.8056 2.70228 0
      vertex 1.24372 3.00261 6.525
    endloop
  endfacet
  facet normal -0.634393 -0.773011 0
    outer loop
      vertex 2.2981 2.2981 0
      vertex 2.2981 2.2981 6.525
      vertex 1.8056 2.70228 6.525
    endloop
  endfacet
  facet normal -0.634393 -0.773011 0
    outer loop
      vertex 1.8056 2.70228 0
      vertex 2.2981 2.2981 0
      vertex 1.8056 2.70228 6.525
    endloop
  endfacet
  facet normal -0.773011 -0.634393 0
    outer loop
      vertex 2.70228 1.8056 6.525
      vertex 2.2981 2.2981 6.525
      vertex 2.70228 1.8056 0
    endloop
  endfacet
  facet normal -0.773011 -0.634393 0
    outer loop
      vertex 2.70228 1.8056 0
      vertex 2.2981 2.2981 6.525
      vertex 2.2981 2.2981 0
    endloop
  endfacet
  facet normal -0.881921 -0.471397 0
    outer loop
      vertex 3.00261 1.24372 6.525
      vertex 2.70228 1.8056 6.525
      vertex 3.00261 1.24372 0
    endloop
  endfacet
  facet normal -0.881921 -0.471397 0
    outer loop
      vertex 3.00261 1.24372 0
      vertex 2.70228 1.8056 6.525
      vertex 2.70228 1.8056 0
    endloop
  endfacet
  facet normal -0.95694 -0.290285 0
    outer loop
      vertex 3.18755 0.634044 6.525
      vertex 3.00261 1.24372 6.525
      vertex 3.18755 0.634044 0
    endloop
  endfacet
  facet normal -0.95694 -0.290285 0
    outer loop
      vertex 3.18755 0.634044 0
      vertex 3.00261 1.24372 6.525
      vertex 3.00261 1.24372 0
    endloop
  endfacet
  facet normal -0.995185 -0.0980173 0
    outer loop
      vertex 3.25 0 6.525
      vertex 3.18755 0.634044 6.525
      vertex 3.25 0 0
    endloop
  endfacet
  facet normal -0.995185 -0.0980173 0
    outer loop
      vertex 3.25 0 0
      vertex 3.18755 0.634044 6.525
      vertex 3.18755 0.634044 0
    endloop
  endfacet
  facet normal -0.995185 0.0980173 0
    outer loop
      vertex 3.25 0 6.525
      vertex 3.25 0 0
      vertex 3.18755 -0.634044 6.525
    endloop
  endfacet
  facet normal -0.995185 0.0980173 0
    outer loop
      vertex 3.18755 -0.634044 6.525
      vertex 3.25 0 0
      vertex 3.18755 -0.634044 0
    endloop
  endfacet
  facet normal -0.95694 0.290285 0
    outer loop
      vertex 3.18755 -0.634044 6.525
      vertex 3.18755 -0.634044 0
      vertex 3.00261 -1.24372 6.525
    endloop
  endfacet
  facet normal -0.95694 0.290285 0
    outer loop
      vertex 3.00261 -1.24372 6.525
      vertex 3.18755 -0.634044 0
      vertex 3.00261 -1.24372 0
    endloop
  endfacet
  facet normal -0.881921 0.471397 0
    outer loop
      vertex 3.00261 -1.24372 6.525
      vertex 3.00261 -1.24372 0
      vertex 2.70228 -1.8056 6.525
    endloop
  endfacet
  facet normal -0.881921 0.471397 0
    outer loop
      vertex 2.70228 -1.8056 6.525
      vertex 3.00261 -1.24372 0
      vertex 2.70228 -1.8056 0
    endloop
  endfacet
  facet normal -0.773011 0.634393 0
    outer loop
      vertex 2.70228 -1.8056 6.525
      vertex 2.70228 -1.8056 0
      vertex 2.2981 -2.2981 6.525
    endloop
  endfacet
  facet normal -0.773011 0.634393 0
    outer loop
      vertex 2.2981 -2.2981 6.525
      vertex 2.70228 -1.8056 0
      vertex 2.2981 -2.2981 0
    endloop
  endfacet
  facet normal -0.634393 0.773011 0
    outer loop
      vertex 2.2981 -2.2981 6.525
      vertex 2.2981 -2.2981 0
      vertex 1.8056 -2.70228 6.525
    endloop
  endfacet
  facet normal -0.634393 0.773011 0
    outer loop
      vertex 1.8056 -2.70228 6.525
      vertex 2.2981 -2.2981 0
      vertex 1.8056 -2.70228 0
    endloop
  endfacet
  facet normal -0.471397 0.881921 0
    outer loop
      vertex 1.8056 -2.70228 6.525
      vertex 1.8056 -2.70228 0
      vertex 1.24372 -3.00261 6.525
    endloop
  endfacet
  facet normal -0.471397 0.881921 0
    outer loop
      vertex 1.24372 -3.00261 6.525
      vertex 1.8056 -2.70228 0
      vertex 1.24372 -3.00261 0
    endloop
  endfacet
  facet normal -0.290285 0.95694 0
    outer loop
      vertex 1.24372 -3.00261 6.525
      vertex 1.24372 -3.00261 0
      vertex 0.634044 -3.18755 6.525
    endloop
  endfacet
  facet normal -0.290285 0.95694 0
    outer loop
      vertex 0.634044 -3.18755 6.525
      vertex 1.24372 -3.00261 0
      vertex 0.634044 -3.18755 0
    endloop
  endfacet
  facet normal -0.0980173 0.995185 0
    outer loop
      vertex 0.634044 -3.18755 6.525
      vertex 0.634044 -3.18755 0
      vertex 0 -3.25 6.525
    endloop
  endfacet
  facet normal -0.0980173 0.995185 0
    outer loop
      vertex 0 -3.25 6.525
      vertex 0.634044 -3.18755 0
      vertex 0 -3.25 0
    endloop
  endfacet
  facet normal 0.0980173 0.995185 0
    outer loop
      vertex 0 -3.25 6.525
      vertex 0 -3.25 0
      vertex -0.634044 -3.18755 6.525
    endloop
  endfacet
  facet normal 0.0980173 0.995185 0
    outer loop
      vertex -0.634044 -3.18755 6.525
      vertex 0 -3.25 0
      vertex -0.634044 -3.18755 0
    endloop
  endfacet
  facet normal 0.290285 0.95694 0
    outer loop
      vertex -0.634044 -3.18755 6.525
      vertex -0.634044 -3.18755 0
      vertex -1.24372 -3.00261 6.525
    endloop
  endfacet
  facet normal 0.290285 0.95694 0
    outer loop
      vertex -1.24372 -3.00261 6.525
      vertex -0.634044 -3.18755 0
      vertex -1.24372 -3.00261 0
    endloop
  endfacet
  facet normal 0.471397 0.881921 0
    outer loop
      vertex -1.24372 -3.00261 6.525
      vertex -1.24372 -3.00261 0
      vertex -1.8056 -2.70228 6.525
    endloop
  endfacet
  facet normal 0.471397 0.881921 0
    outer loop
      vertex -1.8056 -2.70228 6.525
      vertex -1.24372 -3.00261 0
      vertex -1.8056 -2.70228 0
    endloop
  endfacet
  facet normal 0.634393 0.773011 0
    outer loop
      vertex -1.8056 -2.70228 6.525
      vertex -1.8056 -2.70228 0
      vertex -2.2981 -2.2981 6.525
    endloop
  endfacet
  facet normal 0.634393 0.773011 0
    outer loop
      vertex -2.2981 -2.2981 6.525
      vertex -1.8056 -2.70228 0
      vertex -2.2981 -2.2981 0
    endloop
  endfacet
  facet normal 0.773011 0.634393 0
    outer loop
      vertex -2.70228 -1.8056 6.525
      vertex -2.2981 -2.2981 6.525
      vertex -2.2981 -2.2981 0
    endloop
  endfacet
  facet normal 0.773011 0.634393 0
    outer loop
      vertex -2.70228 -1.8056 0
      vertex -2.70228 -1.8056 6.525
      vertex -2.2981 -2.2981 0
    endloop
  endfacet
  facet normal 0.881921 0.471397 0
    outer loop
      vertex -3.00261 -1.24372 6.525
      vertex -2.70228 -1.8056 6.525
      vertex -2.70228 -1.8056 0
    endloop
  endfacet
  facet normal 0.881921 0.471397 0
    outer loop
      vertex -3.00261 -1.24372 0
      vertex -3.00261 -1.24372 6.525
      vertex -2.70228 -1.8056 0
    endloop
  endfacet
  facet normal 0.95694 0.290285 0
    outer loop
      vertex -3.18755 -0.634044 6.525
      vertex -3.00261 -1.24372 6.525
      vertex -3.00261 -1.24372 0
    endloop
  endfacet
  facet normal 0.95694 0.290285 0
    outer loop
      vertex -3.18755 -0.634044 0
      vertex -3.18755 -0.634044 6.525
      vertex -3.00261 -1.24372 0
    endloop
  endfacet
  facet normal 0.995185 -0.0980173 0
    outer loop
      vertex -3.18755 10.634 0
      vertex -3.18755 10.634 3.125
      vertex -3.25 10 3.125
    endloop
  endfacet
  facet normal 0.995185 -0.0980173 0
    outer loop
      vertex -3.25 10 0
      vertex -3.18755 10.634 0
      vertex -3.25 10 3.125
    endloop
  endfacet
  facet normal 0.995185 0.0980173 0
    outer loop
      vertex -3.25 10 3.125
      vertex -3.18755 9.36596 3.125
      vertex -3.18755 9.36596 0
    endloop
  endfacet
  facet normal 0.995185 0.0980173 0
    outer loop
      vertex -3.25 10 0
      vertex -3.25 10 3.125
      vertex -3.18755 9.36596 0
    endloop
  endfacet
  facet normal 0.95694 -0.290285 0
    outer loop
      vertex -3.00261 11.2437 0
      vertex -3.00261 11.2437 3.125
      vertex -3.18755 10.634 3.125
    endloop
  endfacet
  facet normal 0.95694 -0.290285 0
    outer loop
      vertex -3.18755 10.634 0
      vertex -3.00261 11.2437 0
      vertex -3.18755 10.634 3.125
    endloop
  endfacet
  facet normal 0.881921 -0.471397 0
    outer loop
      vertex -2.70228 11.8056 0
      vertex -2.70228 11.8056 3.125
      vertex -3.00261 11.2437 3.125
    endloop
  endfacet
  facet normal 0.881921 -0.471397 0
    outer loop
      vertex -3.00261 11.2437 0
      vertex -2.70228 11.8056 0
      vertex -3.00261 11.2437 3.125
    endloop
  endfacet
  facet normal 0.773011 -0.634393 0
    outer loop
      vertex -2.2981 12.2981 0
      vertex -2.2981 12.2981 3.125
      vertex -2.70228 11.8056 3.125
    endloop
  endfacet
  facet normal 0.773011 -0.634393 0
    outer loop
      vertex -2.70228 11.8056 0
      vertex -2.2981 12.2981 0
      vertex -2.70228 11.8056 3.125
    endloop
  endfacet
  facet normal 0.634393 -0.773011 0
    outer loop
      vertex -1.8056 12.7023 0
      vertex -1.8056 12.7023 3.125
      vertex -2.2981 12.2981 3.125
    endloop
  endfacet
  facet normal 0.634393 -0.773011 0
    outer loop
      vertex -2.2981 12.2981 0
      vertex -1.8056 12.7023 0
      vertex -2.2981 12.2981 3.125
    endloop
  endfacet
  facet normal 0.471397 -0.881921 0
    outer loop
      vertex -1.24372 13.0026 0
      vertex -1.24372 13.0026 3.125
      vertex -1.8056 12.7023 3.125
    endloop
  endfacet
  facet normal 0.471397 -0.881921 0
    outer loop
      vertex -1.8056 12.7023 0
      vertex -1.24372 13.0026 0
      vertex -1.8056 12.7023 3.125
    endloop
  endfacet
  facet normal 0.290285 -0.95694 0
    outer loop
      vertex -0.634044 13.1876 0
      vertex -0.634044 13.1876 3.125
      vertex -1.24372 13.0026 3.125
    endloop
  endfacet
  facet normal 0.290285 -0.95694 0
    outer loop
      vertex -1.24372 13.0026 0
      vertex -0.634044 13.1876 0
      vertex -1.24372 13.0026 3.125
    endloop
  endfacet
  facet normal 0.0980173 -0.995185 0
    outer loop
      vertex 7.21645e-16 13.25 0
      vertex 7.21645e-16 13.25 3.125
      vertex -0.634044 13.1876 3.125
    endloop
  endfacet
  facet normal 0.0980173 -0.995185 0
    outer loop
      vertex -0.634044 13.1876 0
      vertex 7.21645e-16 13.25 0
      vertex -0.634044 13.1876 3.125
    endloop
  endfacet
  facet normal -0.0980173 -0.995185 0
    outer loop
      vertex 0.634044 13.1876 0
      vertex 0.634044 13.1876 3.125
      vertex 7.21645e-16 13.25 3.125
    endloop
  endfacet
  facet normal -0.0980173 -0.995185 0
    outer loop
      vertex 7.21645e-16 13.25 0
      vertex 0.634044 13.1876 0
      vertex 7.21645e-16 13.25 3.125
    endloop
  endfacet
  facet normal -0.290285 -0.95694 0
    outer loop
      vertex 1.24372 13.0026 0
      vertex 1.24372 13.0026 3.125
      vertex 0.634044 13.1876 3.125
    endloop
  endfacet
  facet normal -0.290285 -0.95694 0
    outer loop
      vertex 0.634044 13.1876 0
      vertex 1.24372 13.0026 0
      vertex 0.634044 13.1876 3.125
    endloop
  endfacet
  facet normal -0.471397 -0.881921 0
    outer loop
      vertex 1.8056 12.7023 0
      vertex 1.8056 12.7023 3.125
      vertex 1.24372 13.0026 3.125
    endloop
  endfacet
  facet normal -0.471397 -0.881921 0
    outer loop
      vertex 1.24372 13.0026 0
      vertex 1.8056 12.7023 0
      vertex 1.24372 13.0026 3.125
    endloop
  endfacet
  facet normal -0.634393 -0.773011 0
    outer loop
      vertex 2.2981 12.2981 0
      vertex 2.2981 12.2981 3.125
      vertex 1.8056 12.7023 3.125
    endloop
  endfacet
  facet normal -0.634393 -0.773011 0
    outer loop
      vertex 1.8056 12.7023 0
      vertex 2.2981 12.2981 0
      vertex 1.8056 12.7023 3.125
    endloop
  endfacet
  facet normal -0.773011 -0.634393 0
    outer loop
      vertex 2.70228 11.8056 3.125
      vertex 2.2981 12.2981 3.125
      vertex 2.70228 11.8056 0
    endloop
  endfacet
  facet normal -0.773011 -0.634393 0
    outer loop
      vertex 2.70228 11.8056 0
      vertex 2.2981 12.2981 3.125
      vertex 2.2981 12.2981 0
    endloop
  endfacet
  facet normal -0.881921 -0.471397 0
    outer loop
      vertex 3.00261 11.2437 3.125
      vertex 2.70228 11.8056 3.125
      vertex 3.00261 11.2437 0
    endloop
  endfacet
  facet normal -0.881921 -0.471397 0
    outer loop
      vertex 3.00261 11.2437 0
      vertex 2.70228 11.8056 3.125
      vertex 2.70228 11.8056 0
    endloop
  endfacet
  facet normal -0.95694 -0.290285 0
    outer loop
      vertex 3.18755 10.634 3.125
      vertex 3.00261 11.2437 3.125
      vertex 3.18755 10.634 0
    endloop
  endfacet
  facet normal -0.95694 -0.290285 0
    outer loop
      vertex 3.18755 10.634 0
      vertex 3.00261 11.2437 3.125
      vertex 3.00261 11.2437 0
    endloop
  endfacet
  facet normal -0.995185 -0.0980173 0
    outer loop
      vertex 3.25 10 3.125
      vertex 3.18755 10.634 3.125
      vertex 3.25 10 0
    endloop
  endfacet
  facet normal -0.995185 -0.0980173 0
    outer loop
      vertex 3.25 10 0
      vertex 3.18755 10.634 3.125
      vertex 3.18755 10.634 0
    endloop
  endfacet
  facet normal -0.995185 0.0980173 0
    outer loop
      vertex 3.25 10 3.125
      vertex 3.25 10 0
      vertex 3.18755 9.36596 3.125
    endloop
  endfacet
  facet normal -0.995185 0.0980173 0
    outer loop
      vertex 3.18755 9.36596 3.125
      vertex 3.25 10 0
      vertex 3.18755 9.36596 0
    endloop
  endfacet
  facet normal -0.95694 0.290285 0
    outer loop
      vertex 3.18755 9.36596 3.125
      vertex 3.18755 9.36596 0
      vertex 3.00261 8.75628 3.125
    endloop
  endfacet
  facet normal -0.95694 0.290285 0
    outer loop
      vertex 3.00261 8.75628 3.125
      vertex 3.18755 9.36596 0
      vertex 3.00261 8.75628 0
    endloop
  endfacet
  facet normal -0.881921 0.471397 0
    outer loop
      vertex 3.00261 8.75628 3.125
      vertex 3.00261 8.75628 0
      vertex 2.70228 8.1944 3.125
    endloop
  endfacet
  facet normal -0.881921 0.471397 0
    outer loop
      vertex 2.70228 8.1944 3.125
      vertex 3.00261 8.75628 0
      vertex 2.70228 8.1944 0
    endloop
  endfacet
  facet normal -0.773011 0.634393 0
    outer loop
      vertex 2.70228 8.1944 3.125
      vertex 2.70228 8.1944 0
      vertex 2.2981 7.7019 3.125
    endloop
  endfacet
  facet normal -0.773011 0.634393 0
    outer loop
      vertex 2.2981 7.7019 3.125
      vertex 2.70228 8.1944 0
      vertex 2.2981 7.7019 0
    endloop
  endfacet
  facet normal -0.634393 0.773011 0
    outer loop
      vertex 2.2981 7.7019 3.125
      vertex 2.2981 7.7019 0
      vertex 1.8056 7.29772 3.125
    endloop
  endfacet
  facet normal -0.634393 0.773011 0
    outer loop
      vertex 1.8056 7.29772 3.125
      vertex 2.2981 7.7019 0
      vertex 1.8056 7.29772 0
    endloop
  endfacet
  facet normal -0.471397 0.881921 0
    outer loop
      vertex 1.8056 7.29772 3.125
      vertex 1.8056 7.29772 0
      vertex 1.24372 6.99739 3.125
    endloop
  endfacet
  facet normal -0.471397 0.881921 0
    outer loop
      vertex 1.24372 6.99739 3.125
      vertex 1.8056 7.29772 0
      vertex 1.24372 6.99739 0
    endloop
  endfacet
  facet normal -0.290285 0.95694 0
    outer loop
      vertex 1.24372 6.99739 3.125
      vertex 1.24372 6.99739 0
      vertex 0.634044 6.81245 3.125
    endloop
  endfacet
  facet normal -0.290285 0.95694 0
    outer loop
      vertex 0.634044 6.81245 3.125
      vertex 1.24372 6.99739 0
      vertex 0.634044 6.81245 0
    endloop
  endfacet
  facet normal -0.0980173 0.995185 0
    outer loop
      vertex 0.634044 6.81245 3.125
      vertex 0.634044 6.81245 0
      vertex -7.21645e-16 6.75 3.125
    endloop
  endfacet
  facet normal -0.0980173 0.995185 0
    outer loop
      vertex -7.21645e-16 6.75 3.125
      vertex 0.634044 6.81245 0
      vertex -7.21645e-16 6.75 0
    endloop
  endfacet
  facet normal 0.0980173 0.995185 0
    outer loop
      vertex -7.21645e-16 6.75 3.125
      vertex -7.21645e-16 6.75 0
      vertex -0.634044 6.81245 3.125
    endloop
  endfacet
  facet normal 0.0980173 0.995185 0
    outer loop
      vertex -0.634044 6.81245 3.125
      vertex -7.21645e-16 6.75 0
      vertex -0.634044 6.81245 0
    endloop
  endfacet
  facet normal 0.290285 0.95694 0
    outer loop
      vertex -0.634044 6.81245 3.125
      vertex -0.634044 6.81245 0
      vertex -1.24372 6.99739 3.125
    endloop
  endfacet
  facet normal 0.290285 0.95694 0
    outer loop
      vertex -1.24372 6.99739 3.125
      vertex -0.634044 6.81245 0
      vertex -1.24372 6.99739 0
    endloop
  endfacet
  facet normal 0.471397 0.881921 0
    outer loop
      vertex -1.24372 6.99739 3.125
      vertex -1.24372 6.99739 0
      vertex -1.8056 7.29772 3.125
    endloop
  endfacet
  facet normal 0.471397 0.881921 0
    outer loop
      vertex -1.8056 7.29772 3.125
      vertex -1.24372 6.99739 0
      vertex -1.8056 7.29772 0
    endloop
  endfacet
  facet normal 0.634393 0.773011 0
    outer loop
      vertex -1.8056 7.29772 3.125
      vertex -1.8056 7.29772 0
      vertex -2.2981 7.7019 3.125
    endloop
  endfacet
  facet normal 0.634393 0.773011 0
    outer loop
      vertex -2.2981 7.7019 3.125
      vertex -1.8056 7.29772 0
      vertex -2.2981 7.7019 0
    endloop
  endfacet
  facet normal 0.773011 0.634393 0
    outer loop
      vertex -2.70228 8.1944 3.125
      vertex -2.2981 7.7019 3.125
      vertex -2.2981 7.7019 0
    endloop
  endfacet
  facet normal 0.773011 0.634393 0
    outer loop
      vertex -2.70228 8.1944 0
      vertex -2.70228 8.1944 3.125
      vertex -2.2981 7.7019 0
    endloop
  endfacet
  facet normal 0.881921 0.471397 0
    outer loop
      vertex -3.00261 8.75628 3.125
      vertex -2.70228 8.1944 3.125
      vertex -2.70228 8.1944 0
    endloop
  endfacet
  facet normal 0.881921 0.471397 0
    outer loop
      vertex -3.00261 8.75628 0
      vertex -3.00261 8.75628 3.125
      vertex -2.70228 8.1944 0
    endloop
  endfacet
  facet normal 0.95694 0.290285 0
    outer loop
      vertex -3.18755 9.36596 3.125
      vertex -3.00261 8.75628 3.125
      vertex -3.00261 8.75628 0
    endloop
  endfacet
  facet normal 0.95694 0.290285 0
    outer loop
      vertex -3.18755 9.36596 0
      vertex -3.18755 9.36596 3.125
      vertex -3.00261 8.75628 0
    endloop
  endfacet
  facet normal -0.666232 -0.0778271 0.741672
    outer loop
      vertex -4.66099 2.40193 9.7313
      vertex -6.47535 -3.46725 7.48562
      vertex -3.75942 -5.31596 9.7313
    endloop
  endfacet
  facet normal 0 0 1
    outer loop
      vertex -3.82803 7.53281 9.7313
      vertex -4.66099 2.40193 9.7313
      vertex -3.75942 -5.31596 9.7313
    endloop
  endfacet
  facet normal 0 0 1
    outer loop
      vertex 0 6.48457 9.7313
      vertex -3.82803 7.53281 9.7313
      vertex -3.75942 -5.31596 9.7313
    endloop
  endfacet
  facet normal -0.288102 0.0917836 0.953191
    outer loop
      vertex 0 6.48457 9.7313
      vertex -3.75942 -5.31596 9.7313
      vertex 0 -6.1037 10.9434
    endloop
  endfacet
  facet normal -0.265739 0.187029 0.945729
    outer loop
      vertex -3.75942 -5.31596 9.7313
      vertex -5.72904 -8.11449 9.7313
      vertex 0 -6.1037 10.9434
    endloop
  endfacet
  facet normal -0.123467 -0.230121 0.965298
    outer loop
      vertex 0 -6.1037 10.9434
      vertex -5.72904 -8.11449 9.7313
      vertex 0 -11.1883 9.7313
    endloop
  endfacet
  facet normal 0.049853 0.0929168 0.994425
    outer loop
      vertex 0 -11.1883 9.7313
      vertex -5.72904 -8.11449 9.7313
      vertex -3.98594 -11.8036 9.98862
    endloop
  endfacet
  facet normal -0.92899 0.150815 0.337983
    outer loop
      vertex -3.82803 7.53281 9.7313
      vertex -5.63248 7.03051 4.99567
      vertex -4.66099 2.40193 9.7313
    endloop
  endfacet
  facet normal 0.0403769 0.0890068 0.995212
    outer loop
      vertex 0 28.3082 2.99425
      vertex 0 15.8537 4.10811
      vertex 4.59005 26.2259 2.99425
    endloop
  endfacet
  facet normal -0.102903 0.334986 0.936587
    outer loop
      vertex 0 15.8537 4.10811
      vertex 0 8.24206 6.83056
      vertex 4.59005 14.7822 4.99567
    endloop
  endfacet
  facet normal -0.14859 0.170365 0.974113
    outer loop
      vertex 4.59005 26.2259 2.99425
      vertex 0 15.8537 4.10811
      vertex 4.59005 14.7822 4.99567
    endloop
  endfacet
  facet normal -0.45229 0.520598 0.724163
    outer loop
      vertex 4.59005 14.7822 4.99567
      vertex 0 8.24206 6.83056
      vertex 3.82803 7.53281 9.7313
    endloop
  endfacet
  facet normal -0.228029 0.832736 0.504532
    outer loop
      vertex 0 8.24206 6.83056
      vertex 0 6.48457 9.7313
      vertex 3.82803 7.53281 9.7313
    endloop
  endfacet
  facet normal 0.228029 0.832736 0.504532
    outer loop
      vertex 0 8.24206 6.83056
      vertex -3.82803 7.53281 9.7313
      vertex 0 6.48457 9.7313
    endloop
  endfacet
  facet normal -0.0715619 -0.0469305 0.996331
    outer loop
      vertex 3.98594 -11.8036 9.98862
      vertex 0 -11.1883 9.7313
      vertex 3.62974 -16.7231 9.7313
    endloop
  endfacet
  facet normal 0.144826 0.0949773 0.984888
    outer loop
      vertex 0 -11.1883 9.7313
      vertex 0 -16.7231 10.2651
      vertex 3.62974 -16.7231 9.7313
    endloop
  endfacet
  facet normal 0.123467 -0.230121 0.965298
    outer loop
      vertex 0 -6.1037 10.9434
      vertex 0 -11.1883 9.7313
      vertex 5.72904 -8.11449 9.7313
    endloop
  endfacet
  facet normal -0.049853 0.0929168 0.994425
    outer loop
      vertex 5.72904 -8.11449 9.7313
      vertex 0 -11.1883 9.7313
      vertex 3.98594 -11.8036 9.98862
    endloop
  endfacet
  facet normal 0.142905 -0.187435 0.971826
    outer loop
      vertex 0 -16.7231 10.2651
      vertex 0 -19.4905 9.7313
      vertex 3.62974 -16.7231 9.7313
    endloop
  endfacet
  facet normal -0.601727 -0.365104 0.710369
    outer loop
      vertex 0 -19.4905 9.7313
      vertex 0 -26.0445 6.36278
      vertex 5.56423 -24.3721 11.9356
    endloop
  endfacet
  facet normal 0 0 1
    outer loop
      vertex 3.62974 -16.7231 9.7313
      vertex 0 -19.4905 9.7313
      vertex 3.57994 -18.3836 9.7313
    endloop
  endfacet
  facet normal -0.0974574 0.315181 0.944014
    outer loop
      vertex 3.57994 -18.3836 9.7313
      vertex 0 -19.4905 9.7313
      vertex 5.56423 -24.3721 11.9356
    endloop
  endfacet
  facet normal 0.105874 -0.97657 0.187357
    outer loop
      vertex 5.56423 -24.3721 11.9356
      vertex 0 -26.0445 6.36278
      vertex 6.58106 -26.0445 2.64388
    endloop
  endfacet
  facet normal 0.894356 0.447016 0.0174153
    outer loop
      vertex 6.58106 -26.0445 2.64388
      vertex 4.16878 -21.2182 2.64388
      vertex 5.56423 -24.3721 11.9356
    endloop
  endfacet
  facet normal 0.652736 0.741816 0.153767
    outer loop
      vertex 4.16878 -21.2182 2.64388
      vertex 4.0261 -21.8635 6.36278
      vertex 5.56423 -24.3721 11.9356
    endloop
  endfacet
  facet normal 0.887785 -0.458012 -0.045415
    outer loop
      vertex 7.47727 -15.174 6.36278
      vertex 4.0261 -21.8635 6.36278
      vertex 4.16878 -21.2182 2.64388
    endloop
  endfacet
  facet normal 0.877185 -0.480152 0
    outer loop
      vertex 7.47727 -15.174 6.36278
      vertex 4.16878 -21.2182 2.64388
      vertex 7.47727 -15.174 2.61997
    endloop
  endfacet
  facet normal 0.141112 -0.989994 0
    outer loop
      vertex 7.47727 -15.174 6.36278
      vertex 7.47727 -15.174 2.61997
      vertex 10.9457 -14.6796 2.61997
    endloop
  endfacet
  facet normal 0 0 -1
    outer loop
      vertex 6.10081 20.5565 2.61997
      vertex 12.0645 12.1861 2.61997
      vertex 12.0671 -2.2652 2.61997
    endloop
  endfacet
  facet normal 0 0 -1
    outer loop
      vertex 12.0671 -2.2652 2.61997
      vertex 12.0645 12.1861 2.61997
      vertex 15.0824 -2.2652 2.61997
    endloop
  endfacet
  facet normal 0 0 -1
    outer loop
      vertex 12.0671 -2.2652 2.61997
      vertex 15.0824 -2.2652 2.61997
      vertex 15.0824 -6.58889 2.61997
    endloop
  endfacet
  facet normal 0 0 -1
    outer loop
      vertex 12.0671 -2.2652 2.61997
      vertex 15.0824 -6.58889 2.61997
      vertex 13.712 -11.5964 2.61997
    endloop
  endfacet
  facet normal 0 0 -1
    outer loop
      vertex 10.9457 -11.5964 2.61997
      vertex 11.35 -16.6897 2.61997
      vertex 10.9457 -14.6796 2.61997
    endloop
  endfacet
  facet normal 0 0 -1
    outer loop
      vertex 12.0671 -6.58889 2.61997
      vertex 12.9092 -14.6796 2.61997
      vertex 12.3967 -16.6897 2.61997
    endloop
  endfacet
  facet normal 0 0 -1
    outer loop
      vertex 12.0671 -6.58889 2.61997
      vertex 12.3967 -16.6897 2.61997
      vertex 10.9457 -11.5964 2.61997
    endloop
  endfacet
  facet normal 0 0 -1
    outer loop
      vertex 10.9457 -14.6796 2.61997
      vertex 7.47727 -15.174 2.61997
      vertex 7.47727 -9.32062 2.61997
    endloop
  endfacet
  facet normal 0 0 -1
    outer loop
      vertex 12.3967 -16.6897 2.61997
      vertex 11.35 -16.6897 2.61997
      vertex 10.9457 -11.5964 2.61997
    endloop
  endfacet
  facet normal 0 0 -1
    outer loop
      vertex 13.712 -11.5964 2.61997
      vertex 12.9092 -14.6796 2.61997
      vertex 12.0671 -6.58889 2.61997
    endloop
  endfacet
  facet normal 0 0 -1
    outer loop
      vertex 10.9457 -11.5964 2.61997
      vertex 10.9457 -14.6796 2.61997
      vertex 7.47727 -9.32062 2.61997
    endloop
  endfacet
  facet normal 0 0 -1
    outer loop
      vertex 12.0671 -2.2652 2.61997
      vertex 13.712 -11.5964 2.61997
      vertex 12.0671 -6.58889 2.61997
    endloop
  endfacet
  facet normal 0.545486 0.83134 0.106387
    outer loop
      vertex 10.9457 -11.5964 2.61997
      vertex 7.47727 -9.32062 2.61997
      vertex 10.4823 -11.5964 4.99567
    endloop
  endfacet
  facet normal 0.603729 0.797189 0
    outer loop
      vertex 10.4823 -11.5964 4.99567
      vertex 7.47727 -9.32062 2.61997
      vertex 7.47727 -9.32062 6.36278
    endloop
  endfacet
  facet normal 0.844644 0.535328 0
    outer loop
      vertex 7.47727 -9.32062 2.61997
      vertex 4.50418 -4.62966 6.36278
      vertex 7.47727 -9.32062 6.36278
    endloop
  endfacet
  facet normal 0.890644 0.413394 0.189362
    outer loop
      vertex 5.29487 -4.62966 2.64388
      vertex 4.50418 -4.62966 6.36278
      vertex 7.47727 -9.32062 2.61997
    endloop
  endfacet
  facet normal 0.382607 -0.920323 0.0813472
    outer loop
      vertex 10.4823 -2.2652 4.99567
      vertex 4.50418 -4.62966 6.36278
      vertex 5.29487 -4.62966 2.64388
    endloop
  endfacet
  facet normal 0.322584 -0.921757 0.215184
    outer loop
      vertex 10.4823 -2.2652 4.99567
      vertex 5.29487 -4.62966 2.64388
      vertex 12.0671 -2.2652 2.61997
    endloop
  endfacet
  facet normal -0.831899 0 -0.554928
    outer loop
      vertex 10.4823 -11.5964 4.99567
      vertex 10.4823 -2.2652 4.99567
      vertex 12.0671 -6.58889 2.61997
    endloop
  endfacet
  facet normal -0.831899 0 -0.554928
    outer loop
      vertex 12.0671 -6.58889 2.61997
      vertex 10.4823 -2.2652 4.99567
      vertex 12.0671 -2.2652 2.61997
    endloop
  endfacet
  facet normal 0.374942 0.267139 0.887725
    outer loop
      vertex 6.10081 20.5565 2.61997
      vertex 4.59005 14.7822 4.99567
      vertex 12.0645 12.1861 2.61997
    endloop
  endfacet
  facet normal 0.665058 0.128656 0.735626
    outer loop
      vertex 4.59005 26.2259 2.99425
      vertex 4.59005 14.7822 4.99567
      vertex 6.10081 20.5565 2.61997
    endloop
  endfacet
  facet normal 0 0 -1
    outer loop
      vertex -3.00261 1.24372 6.525
      vertex -2.70228 1.8056 6.525
      vertex -3.18755 0.634044 6.525
    endloop
  endfacet
  facet normal 0 0 -1
    outer loop
      vertex -3.18755 0.634044 6.525
      vertex -2.70228 1.8056 6.525
      vertex -2.2981 2.2981 6.525
    endloop
  endfacet
  facet normal 0 0 -1
    outer loop
      vertex -3.18755 0.634044 6.525
      vertex -2.2981 2.2981 6.525
      vertex -1.8056 2.70228 6.525
    endloop
  endfacet
  facet normal 0 0 -1
    outer loop
      vertex -3.18755 0.634044 6.525
      vertex -1.8056 2.70228 6.525
      vertex -1.24372 3.00261 6.525
    endloop
  endfacet
  facet normal 0 0 -1
    outer loop
      vertex -3.18755 0.634044 6.525
      vertex -1.24372 3.00261 6.525
      vertex -0.634044 3.18755 6.525
    endloop
  endfacet
  facet normal 0 0 -1
    outer loop
      vertex -3.18755 0.634044 6.525
      vertex -0.634044 3.18755 6.525
      vertex 0 3.25 6.525
    endloop
  endfacet
  facet normal 0 0 -1
    outer loop
      vertex -3.18755 0.634044 6.525
      vertex 0 3.25 6.525
      vertex 0.634044 3.18755 6.525
    endloop
  endfacet
  facet normal 0 0 -1
    outer loop
      vertex -3.18755 0.634044 6.525
      vertex 0.634044 3.18755 6.525
      vertex 1.24372 3.00261 6.525
    endloop
  endfacet
  facet normal 0 0 -1
    outer loop
      vertex -3.18755 0.634044 6.525
      vertex 1.24372 3.00261 6.525
      vertex 1.8056 2.70228 6.525
    endloop
  endfacet
  facet normal 0 0 -1
    outer loop
      vertex -3.18755 0.634044 6.525
      vertex 1.8056 2.70228 6.525
      vertex 2.2981 2.2981 6.525
    endloop
  endfacet
  facet normal 0 0 -1
    outer loop
      vertex -3.18755 0.634044 6.525
      vertex 2.2981 2.2981 6.525
      vertex 2.70228 1.8056 6.525
    endloop
  endfacet
  facet normal 0 0 -1
    outer loop
      vertex -3.18755 0.634044 6.525
      vertex 2.70228 1.8056 6.525
      vertex 3.00261 1.24372 6.525
    endloop
  endfacet
  facet normal 0 0 -1
    outer loop
      vertex -3.18755 0.634044 6.525
      vertex 3.00261 1.24372 6.525
      vertex 3.18755 0.634044 6.525
    endloop
  endfacet
  facet normal 0 0 -1
    outer loop
      vertex -3.18755 0.634044 6.525
      vertex 3.18755 0.634044 6.525
      vertex 3.25 0 6.525
    endloop
  endfacet
  facet normal 0 0 -1
    outer loop
      vertex -3.18755 0.634044 6.525
      vertex 3.25 0 6.525
      vertex 3.18755 -0.634044 6.525
    endloop
  endfacet
  facet normal 0 0 -1
    outer loop
      vertex -3.18755 0.634044 6.525
      vertex 3.18755 -0.634044 6.525
      vertex 3.00261 -1.24372 6.525
    endloop
  endfacet
  facet normal 0 0 -1
    outer loop
      vertex -3.18755 0.634044 6.525
      vertex 3.00261 -1.24372 6.525
      vertex 2.70228 -1.8056 6.525
    endloop
  endfacet
  facet normal 0 0 -1
    outer loop
      vertex -3.18755 0.634044 6.525
      vertex 2.70228 -1.8056 6.525
      vertex 2.2981 -2.2981 6.525
    endloop
  endfacet
  facet normal 0 0 -1
    outer loop
      vertex -3.18755 0.634044 6.525
      vertex 2.2981 -2.2981 6.525
      vertex 1.8056 -2.70228 6.525
    endloop
  endfacet
  facet normal 0 0 -1
    outer loop
      vertex -3.18755 0.634044 6.525
      vertex 1.8056 -2.70228 6.525
      vertex 1.24372 -3.00261 6.525
    endloop
  endfacet
  facet normal 0 0 -1
    outer loop
      vertex -3.18755 0.634044 6.525
      vertex 1.24372 -3.00261 6.525
      vertex 0.634044 -3.18755 6.525
    endloop
  endfacet
  facet normal 0 0 -1
    outer loop
      vertex -3.18755 0.634044 6.525
      vertex 0.634044 -3.18755 6.525
      vertex 0 -3.25 6.525
    endloop
  endfacet
  facet normal 0 0 -1
    outer loop
      vertex -3.18755 0.634044 6.525
      vertex 0 -3.25 6.525
      vertex -0.634044 -3.18755 6.525
    endloop
  endfacet
  facet normal 0 0 -1
    outer loop
      vertex -3.18755 0.634044 6.525
      vertex -0.634044 -3.18755 6.525
      vertex -1.24372 -3.00261 6.525
    endloop
  endfacet
  facet normal 0 0 -1
    outer loop
      vertex -3.18755 0.634044 6.525
      vertex -1.24372 -3.00261 6.525
      vertex -1.8056 -2.70228 6.525
    endloop
  endfacet
  facet normal 0 0 -1
    outer loop
      vertex -3.18755 0.634044 6.525
      vertex -1.8056 -2.70228 6.525
      vertex -2.2981 -2.2981 6.525
    endloop
  endfacet
  facet normal 0 0 -1
    outer loop
      vertex -3.18755 0.634044 6.525
      vertex -2.2981 -2.2981 6.525
      vertex -2.70228 -1.8056 6.525
    endloop
  endfacet
  facet normal 0 0 -1
    outer loop
      vertex -3.18755 0.634044 6.525
      vertex -2.70228 -1.8056 6.525
      vertex -3.00261 -1.24372 6.525
    endloop
  endfacet
  facet normal 0 0 -1
    outer loop
      vertex -3.18755 0.634044 6.525
      vertex -3.00261 -1.24372 6.525
      vertex -3.18755 -0.634044 6.525
    endloop
  endfacet
  facet normal 0 0 -1
    outer loop
      vertex -3.18755 0.634044 6.525
      vertex -3.18755 -0.634044 6.525
      vertex -3.25 0 6.525
    endloop
  endfacet
  facet normal 0 0 -1
    outer loop
      vertex -3.00261 11.2437 3.125
      vertex -2.70228 11.8056 3.125
      vertex -3.18755 10.634 3.125
    endloop
  endfacet
  facet normal 0 0 -1
    outer loop
      vertex -3.18755 10.634 3.125
      vertex -2.70228 11.8056 3.125
      vertex -2.2981 12.2981 3.125
    endloop
  endfacet
  facet normal 0 0 -1
    outer loop
      vertex -3.18755 10.634 3.125
      vertex -2.2981 12.2981 3.125
      vertex -1.8056 12.7023 3.125
    endloop
  endfacet
  facet normal 0 0 -1
    outer loop
      vertex -3.18755 10.634 3.125
      vertex -1.8056 12.7023 3.125
      vertex -1.24372 13.0026 3.125
    endloop
  endfacet
  facet normal 0 0 -1
    outer loop
      vertex -3.18755 10.634 3.125
      vertex -1.24372 13.0026 3.125
      vertex -0.634044 13.1876 3.125
    endloop
  endfacet
  facet normal 0 0 -1
    outer loop
      vertex -3.18755 10.634 3.125
      vertex -0.634044 13.1876 3.125
      vertex 7.21645e-16 13.25 3.125
    endloop
  endfacet
  facet normal 0 0 -1
    outer loop
      vertex -3.18755 10.634 3.125
      vertex 7.21645e-16 13.25 3.125
      vertex 0.634044 13.1876 3.125
    endloop
  endfacet
  facet normal 0 0 -1
    outer loop
      vertex -3.18755 10.634 3.125
      vertex 0.634044 13.1876 3.125
      vertex 1.24372 13.0026 3.125
    endloop
  endfacet
  facet normal 0 0 -1
    outer loop
      vertex -3.18755 10.634 3.125
      vertex 1.24372 13.0026 3.125
      vertex 1.8056 12.7023 3.125
    endloop
  endfacet
  facet normal 0 0 -1
    outer loop
      vertex -3.18755 10.634 3.125
      vertex 1.8056 12.7023 3.125
      vertex 2.2981 12.2981 3.125
    endloop
  endfacet
  facet normal 0 0 -1
    outer loop
      vertex -3.18755 10.634 3.125
      vertex 2.2981 12.2981 3.125
      vertex 2.70228 11.8056 3.125
    endloop
  endfacet
  facet normal 0 0 -1
    outer loop
      vertex -3.18755 10.634 3.125
      vertex 2.70228 11.8056 3.125
      vertex 3.00261 11.2437 3.125
    endloop
  endfacet
  facet normal 0 0 -1
    outer loop
      vertex -3.18755 10.634 3.125
      vertex 3.00261 11.2437 3.125
      vertex 3.18755 10.634 3.125
    endloop
  endfacet
  facet normal 0 0 -1
    outer loop
      vertex -3.18755 10.634 3.125
      vertex 3.18755 10.634 3.125
      vertex 3.25 10 3.125
    endloop
  endfacet
  facet normal 0 0 -1
    outer loop
      vertex -3.18755 10.634 3.125
      vertex 3.25 10 3.125
      vertex 3.18755 9.36596 3.125
    endloop
  endfacet
  facet normal 0 0 -1
    outer loop
      vertex -3.18755 10.634 3.125
      vertex 3.18755 9.36596 3.125
      vertex 3.00261 8.75628 3.125
    endloop
  endfacet
  facet normal 0 0 -1
    outer loop
      vertex -3.18755 10.634 3.125
      vertex 3.00261 8.75628 3.125
      vertex 2.70228 8.1944 3.125
    endloop
  endfacet
  facet normal 0 0 -1
    outer loop
      vertex -3.18755 10.634 3.125
      vertex 2.70228 8.1944 3.125
      vertex 2.2981 7.7019 3.125
    endloop
  endfacet
  facet normal 0 0 -1
    outer loop
      vertex -3.18755 10.634 3.125
      vertex 2.2981 7.7019 3.125
      vertex 1.8056 7.29772 3.125
    endloop
  endfacet
  facet normal 0 0 -1
    outer loop
      vertex -3.18755 10.634 3.125
      vertex 1.8056 7.29772 3.125
      vertex 1.24372 6.99739 3.125
    endloop
  endfacet
  facet normal 0 0 -1
    outer loop
      vertex -3.18755 10.634 3.125
      vertex 1.24372 6.99739 3.125
      vertex 0.634044 6.81245 3.125
    endloop
  endfacet
  facet normal 0 0 -1
    outer loop
      vertex -3.18755 10.634 3.125
      vertex 0.634044 6.81245 3.125
      vertex -7.21645e-16 6.75 3.125
    endloop
  endfacet
  facet normal 0 0 -1
    outer loop
      vertex -3.18755 10.634 3.125
      vertex -7.21645e-16 6.75 3.125
      vertex -0.634044 6.81245 3.125
    endloop
  endfacet
  facet normal 0 0 -1
    outer loop
      vertex -3.18755 10.634 3.125
      vertex -0.634044 6.81245 3.125
      vertex -1.24372 6.99739 3.125
    endloop
  endfacet
  facet normal 0 0 -1
    outer loop
      vertex -3.18755 10.634 3.125
      vertex -1.24372 6.99739 3.125
      vertex -1.8056 7.29772 3.125
    endloop
  endfacet
  facet normal 0 0 -1
    outer loop
      vertex -3.18755 10.634 3.125
      vertex -1.8056 7.29772 3.125
      vertex -2.2981 7.7019 3.125
    endloop
  endfacet
  facet normal 0 0 -1
    outer loop
      vertex -3.18755 10.634 3.125
      vertex -2.2981 7.7019 3.125
      vertex -2.70228 8.1944 3.125
    endloop
  endfacet
  facet normal 0 0 -1
    outer loop
      vertex -3.18755 10.634 3.125
      vertex -2.70228 8.1944 3.125
      vertex -3.00261 8.75628 3.125
    endloop
  endfacet
  facet normal 0 0 -1
    outer loop
      vertex -3.18755 10.634 3.125
      vertex -3.00261 8.75628 3.125
      vertex -3.18755 9.36596 3.125
    endloop
  endfacet
  facet normal 0 0 -1
    outer loop
      vertex -3.18755 10.634 3.125
      vertex -3.18755 9.36596 3.125
      vertex -3.25 10 3.125
    endloop
  endfacet
  facet normal 0 0 1
    outer loop
      vertex 3.82803 7.53281 9.7313
      vertex 0 6.48457 9.7313
      vertex 3.75942 -5.31596 9.7313
    endloop
  endfacet
  facet normal 0 0 1
    outer loop
      vertex 4.66099 2.40193 9.7313
      vertex 3.82803 7.53281 9.7313
      vertex 3.75942 -5.31596 9.7313
    endloop
  endfacet
  facet normal 0.288102 0.0917836 0.953191
    outer loop
      vertex 0 6.48457 9.7313
      vertex 0 -6.1037 10.9434
      vertex 3.75942 -5.31596 9.7313
    endloop
  endfacet
  facet normal 0.265739 0.187029 0.945729
    outer loop
      vertex 3.75942 -5.31596 9.7313
      vertex 0 -6.1037 10.9434
      vertex 5.72904 -8.11449 9.7313
    endloop
  endfacet
  facet normal -0.0934373 -0.0125652 0.995546
    outer loop
      vertex 9.98015 5.39701 5.38311
      vertex 4.59005 14.7822 4.99567
      vertex 5.63248 7.03051 4.99567
    endloop
  endfacet
  facet normal 0.93145 0.125259 0.341631
    outer loop
      vertex 4.59005 14.7822 4.99567
      vertex 3.82803 7.53281 9.7313
      vertex 5.63248 7.03051 4.99567
    endloop
  endfacet
  facet normal 0.421498 0.562986 0.710905
    outer loop
      vertex 12.0645 12.1861 2.61997
      vertex 4.59005 14.7822 4.99567
      vertex 11.006 10.6641 4.45288
    endloop
  endfacet
  facet normal 0.171621 0.138828 0.975332
    outer loop
      vertex 11.006 10.6641 4.45288
      vertex 4.59005 14.7822 4.99567
      vertex 9.98015 5.39701 5.38311
    endloop
  endfacet
  facet normal 0.92899 0.150815 0.337983
    outer loop
      vertex 5.63248 7.03051 4.99567
      vertex 3.82803 7.53281 9.7313
      vertex 4.66099 2.40193 9.7313
    endloop
  endfacet
  facet normal 0.162273 -0.0632541 0.984716
    outer loop
      vertex 3.98594 -11.8036 9.98862
      vertex 3.62974 -16.7231 9.7313
      vertex 5.7872 -11.1883 9.7313
    endloop
  endfacet
  facet normal 0.140525 0.00265902 0.990074
    outer loop
      vertex 5.72904 -8.11449 9.7313
      vertex 3.98594 -11.8036 9.98862
      vertex 5.7872 -11.1883 9.7313
    endloop
  endfacet
  facet normal 0.69351 -0.270331 0.667806
    outer loop
      vertex 5.7872 -11.1883 9.7313
      vertex 3.62974 -16.7231 9.7313
      vertex 7.47727 -15.174 6.36278
    endloop
  endfacet
  facet normal 0.69253 -0.357279 0.626701
    outer loop
      vertex 7.47727 -15.174 6.36278
      vertex 3.62974 -16.7231 9.7313
      vertex 4.0261 -21.8635 6.36278
    endloop
  endfacet
  facet normal 0.986475 -0.0295834 0.16122
    outer loop
      vertex 3.62974 -16.7231 9.7313
      vertex 3.57994 -18.3836 9.7313
      vertex 4.0261 -21.8635 6.36278
    endloop
  endfacet
  facet normal 0.783695 0.551569 0.285647
    outer loop
      vertex 4.50418 -4.62966 6.36278
      vertex 3.75942 -5.31596 9.7313
      vertex 5.72904 -8.11449 9.7313
    endloop
  endfacet
  facet normal 0.820061 0.519747 0.239503
    outer loop
      vertex 7.47727 -9.32062 6.36278
      vertex 4.50418 -4.62966 6.36278
      vertex 5.72904 -8.11449 9.7313
    endloop
  endfacet
  facet normal 0.889911 0.0168389 0.455824
    outer loop
      vertex 7.47727 -9.32062 6.36278
      vertex 5.72904 -8.11449 9.7313
      vertex 5.7872 -11.1883 9.7313
    endloop
  endfacet
  facet normal 0.953917 0.262691 -0.145038
    outer loop
      vertex 4.0261 -21.8635 6.36278
      vertex 3.57994 -18.3836 9.7313
      vertex 5.56423 -24.3721 11.9356
    endloop
  endfacet
  facet normal 0.414098 0 0.910232
    outer loop
      vertex 7.47727 -9.32062 6.36278
      vertex 7.47727 -15.174 6.36278
      vertex 10.4823 -14.6796 4.99567
    endloop
  endfacet
  facet normal 0.414098 0 0.910232
    outer loop
      vertex 10.4823 -11.5964 4.99567
      vertex 7.47727 -9.32062 6.36278
      vertex 10.4823 -14.6796 4.99567
    endloop
  endfacet
  facet normal 0.177556 -0.983501 0.0346291
    outer loop
      vertex 10.4823 -14.6796 4.99567
      vertex 7.47727 -15.174 6.36278
      vertex 10.9457 -14.6796 2.61997
    endloop
  endfacet
  facet normal 0.893811 0 0.448444
    outer loop
      vertex 7.47727 -9.32062 6.36278
      vertex 5.7872 -11.1883 9.7313
      vertex 7.47727 -15.174 6.36278
    endloop
  endfacet
  facet normal -0.971811 -0.195469 -0.131812
    outer loop
      vertex 11.103 -16.6897 4.44105
      vertex 10.9457 -14.6796 2.61997
      vertex 11.35 -16.6897 2.61997
    endloop
  endfacet
  facet normal -0.952149 -0.242751 -0.1857
    outer loop
      vertex 11.103 -16.6897 4.44105
      vertex 10.4823 -14.6796 4.99567
      vertex 10.9457 -14.6796 2.61997
    endloop
  endfacet
  facet normal -0.958623 0.214677 -0.186962
    outer loop
      vertex 10.9457 -11.5964 2.61997
      vertex 10.4823 -11.5964 4.99567
      vertex 12.0671 -6.58889 2.61997
    endloop
  endfacet
  facet normal 0 -1 0
    outer loop
      vertex 12.3967 -16.6897 4.44105
      vertex 11.103 -16.6897 4.44105
      vertex 11.35 -16.6897 2.61997
    endloop
  endfacet
  facet normal 0 -1 0
    outer loop
      vertex 12.3967 -16.6897 2.61997
      vertex 12.3967 -16.6897 4.44105
      vertex 11.35 -16.6897 2.61997
    endloop
  endfacet
  facet normal 0.969003 -0.247049 0
    outer loop
      vertex 12.3967 -16.6897 4.44105
      vertex 12.3967 -16.6897 2.61997
      vertex 12.9092 -14.6796 2.61997
    endloop
  endfacet
  facet normal 0.969003 -0.247049 0
    outer loop
      vertex 12.9092 -14.6796 4.99567
      vertex 12.3967 -16.6897 4.44105
      vertex 12.9092 -14.6796 2.61997
    endloop
  endfacet
  facet normal 0.96773 -0.25199 0
    outer loop
      vertex 12.9092 -14.6796 4.99567
      vertex 12.9092 -14.6796 2.61997
      vertex 13.712 -11.5964 2.61997
    endloop
  endfacet
  facet normal 0.96773 -0.25199 0
    outer loop
      vertex 13.712 -11.5964 4.99567
      vertex 12.9092 -14.6796 4.99567
      vertex 13.712 -11.5964 2.61997
    endloop
  endfacet
  facet normal 0.964533 -0.263963 0
    outer loop
      vertex 13.712 -11.5964 4.99567
      vertex 13.712 -11.5964 2.61997
      vertex 15.0824 -6.58889 2.61997
    endloop
  endfacet
  facet normal 0.964533 -0.263963 0
    outer loop
      vertex 15.0824 -6.58889 4.99567
      vertex 13.712 -11.5964 4.99567
      vertex 15.0824 -6.58889 2.61997
    endloop
  endfacet
  facet normal 1 0 0
    outer loop
      vertex 15.0824 -6.58889 4.99567
      vertex 15.0824 -6.58889 2.61997
      vertex 15.0824 -2.2652 2.61997
    endloop
  endfacet
  facet normal 1 0 0
    outer loop
      vertex 15.0824 -2.2652 4.99567
      vertex 15.0824 -6.58889 4.99567
      vertex 15.0824 -2.2652 2.61997
    endloop
  endfacet
  facet normal 0.978883 0.204424 0
    outer loop
      vertex 15.0824 -2.2652 2.61997
      vertex 12.0645 12.1861 2.61997
      vertex 15.0824 -2.2652 4.99567
    endloop
  endfacet
  facet normal 0.851006 0.253341 0.460007
    outer loop
      vertex 15.0824 -2.2652 4.99567
      vertex 12.0645 12.1861 2.61997
      vertex 13.0876 4.43561 4.99567
    endloop
  endfacet
  facet normal 0.703347 0.291565 0.6483
    outer loop
      vertex 12.0645 12.1861 2.61997
      vertex 11.006 10.6641 4.45288
      vertex 13.0876 4.43561 4.99567
    endloop
  endfacet
  facet normal -0.41614 0 0.909301
    outer loop
      vertex 10.4823 -11.5964 4.99567
      vertex 10.4823 -14.6796 4.99567
      vertex 12.3394 -8.78253 5.84557
    endloop
  endfacet
  facet normal -0.41614 0 0.909301
    outer loop
      vertex 10.4823 -2.2652 4.99567
      vertex 10.4823 -11.5964 4.99567
      vertex 12.3394 -8.78253 5.84557
    endloop
  endfacet
  facet normal 0.530299 -0.846017 -0.0551199
    outer loop
      vertex 6.47535 -3.46725 7.48562
      vertex 3.75942 -5.31596 9.7313
      vertex 4.50418 -4.62966 6.36278
    endloop
  endfacet
  facet normal 0.401482 -0.889918 0.216468
    outer loop
      vertex 6.47535 -3.46725 7.48562
      vertex 4.50418 -4.62966 6.36278
      vertex 10.4823 -2.2652 4.99567
    endloop
  endfacet
  facet normal 0.552986 -0.143114 0.820807
    outer loop
      vertex 10.4823 -2.2652 4.99567
      vertex 4.66099 2.40193 9.7313
      vertex 6.47535 -3.46725 7.48562
    endloop
  endfacet
  facet normal 0.748788 0.390664 0.535442
    outer loop
      vertex 5.63248 7.03051 4.99567
      vertex 4.66099 2.40193 9.7313
      vertex 10.4823 -2.2652 4.99567
    endloop
  endfacet
  facet normal -0.109984 -0.057382 0.992276
    outer loop
      vertex 9.98015 5.39701 5.38311
      vertex 5.63248 7.03051 4.99567
      vertex 10.4823 -2.2652 4.99567
    endloop
  endfacet
  facet normal 0 -0.0504999 0.998724
    outer loop
      vertex 15.0824 -2.2652 4.99567
      vertex 9.98015 5.39701 5.38311
      vertex 10.4823 -2.2652 4.99567
    endloop
  endfacet
  facet normal 0 0.129312 0.991604
    outer loop
      vertex 15.0824 -2.2652 4.99567
      vertex 10.4823 -2.2652 4.99567
      vertex 12.3394 -8.78253 5.84557
    endloop
  endfacet
  facet normal 0.666232 -0.0778271 0.741672
    outer loop
      vertex 4.66099 2.40193 9.7313
      vertex 3.75942 -5.31596 9.7313
      vertex 6.47535 -3.46725 7.48562
    endloop
  endfacet
  facet normal 0.165111 0.140259 0.976251
    outer loop
      vertex 11.006 10.6641 4.45288
      vertex 9.98015 5.39701 5.38311
      vertex 13.0876 4.43561 4.99567
    endloop
  endfacet
  facet normal 0.135938 0.0404681 0.989891
    outer loop
      vertex 13.0876 4.43561 4.99567
      vertex 9.98015 5.39701 5.38311
      vertex 15.0824 -2.2652 4.99567
    endloop
  endfacet
  facet normal 0 -0.142649 0.989773
    outer loop
      vertex 12.3394 -8.78253 5.84557
      vertex 10.4823 -14.6796 4.99567
      vertex 12.9092 -14.6796 4.99567
    endloop
  endfacet
  facet normal 0 -0.265976 0.96398
    outer loop
      vertex 12.9092 -14.6796 4.99567
      vertex 10.4823 -14.6796 4.99567
      vertex 11.103 -16.6897 4.44105
    endloop
  endfacet
  facet normal 0 -0.265976 0.96398
    outer loop
      vertex 12.3967 -16.6897 4.44105
      vertex 12.9092 -14.6796 4.99567
      vertex 11.103 -16.6897 4.44105
    endloop
  endfacet
  facet normal 0.372574 -0.0970156 0.922918
    outer loop
      vertex 13.712 -11.5964 4.99567
      vertex 12.3394 -8.78253 5.84557
      vertex 12.9092 -14.6796 4.99567
    endloop
  endfacet
  facet normal 0.366844 -0.100394 0.924849
    outer loop
      vertex 15.0824 -6.58889 4.99567
      vertex 12.3394 -8.78253 5.84557
      vertex 13.712 -11.5964 4.99567
    endloop
  endfacet
  facet normal 0.295961 0 0.9552
    outer loop
      vertex 15.0824 -2.2652 4.99567
      vertex 12.3394 -8.78253 5.84557
      vertex 15.0824 -6.58889 4.99567
    endloop
  endfacet
endsolid OpenSCAD_Model
