solid OpenSCAD_Model
  facet normal 0 0 -1
    outer loop
      vertex -20 -5 0
      vertex -20 5 0
      vertex -17.5 -7 0
    endloop
  endfacet
  facet normal 0 0 -1
    outer loop
      vertex -16.2135 0.881678 0
      vertex -20 5 0
      vertex -10 10 0
    endloop
  endfacet
  facet normal 0 0 -1
    outer loop
      vertex -13.6297 -0.610105 0
      vertex -10 10 0
      vertex 10 10 0
    endloop
  endfacet
  facet normal 0 0 -1
    outer loop
      vertex 1.0037 1.11472 0
      vertex 10 10 0
      vertex 20 5 0
    endloop
  endfacet
  facet normal 0 0 -1
    outer loop
      vertex 16.3703 -0.610105 0
      vertex 20 5 0
      vertex 20 -5 0
    endloop
  endfacet
  facet normal 0 0 -1
    outer loop
      vertex -17.5 -7 0
      vertex 20 -5 0
      vertex 17.5 -7 0
    endloop
  endfacet
  facet normal 0 0 -1
    outer loop
      vertex -17.5 -7 0
      vertex 17.5 -7 0
      vertex 15 -8.5 0
    endloop
  endfacet
  facet normal 0 0 -1
    outer loop
      vertex -17.5 -7 0
      vertex 15 -8.5 0
      vertex 12.5 -9.5 0
    endloop
  endfacet
  facet normal 0 0 -1
    outer loop
      vertex -17.5 -7 0
      vertex 12.5 -9.5 0
      vertex 10 -10 0
    endloop
  endfacet
  facet normal 0 0 -1
    outer loop
      vertex -17.5 -7 0
      vertex 10 -10 0
      vertex 5 -10 0
    endloop
  endfacet
  facet normal 0 0 -1
    outer loop
      vertex -5 -10 0
      vertex 5 -10 0
      vertex 5 -15 0
    endloop
  endfacet
  facet normal 0 0 -1
    outer loop
      vertex -17.5 -7 0
      vertex 5 -10 0
      vertex -5 -10 0
    endloop
  endfacet
  facet normal 0 0 -1
    outer loop
      vertex -14.5365 -1.42658 0
      vertex -17.5 -7 0
      vertex -15.1568 -1.49178 0
    endloop
  endfacet
  facet normal 0 0 -1
    outer loop
      vertex -17.5 -7 0
      vertex -20 5 0
      vertex -16.4672 0.311868 0
    endloop
  endfacet
  facet normal 0 0 -1
    outer loop
      vertex -17.5 -7 0
      vertex -16.4672 0.311868 0
      vertex -16.4672 -0.311868 0
    endloop
  endfacet
  facet normal 0 0 -1
    outer loop
      vertex -17.5 -7 0
      vertex -16.4672 -0.311868 0
      vertex -16.2135 -0.881678 0
    endloop
  endfacet
  facet normal 0 0 -1
    outer loop
      vertex -17.5 -7 0
      vertex -16.2135 -0.881678 0
      vertex -15.75 -1.29904 0
    endloop
  endfacet
  facet normal 0 0 -1
    outer loop
      vertex -17.5 -7 0
      vertex -15.75 -1.29904 0
      vertex -15.1568 -1.49178 0
    endloop
  endfacet
  facet normal 0 0 -1
    outer loop
      vertex -13.6297 0.610105 0
      vertex -10 10 0
      vertex -13.5 0 0
    endloop
  endfacet
  facet normal 0 0 -1
    outer loop
      vertex -17.5 -7 0
      vertex -14.5365 -1.42658 0
      vertex 10 10 0
    endloop
  endfacet
  facet normal 0 0 -1
    outer loop
      vertex -13.9963 1.11472 0
      vertex -10 10 0
      vertex -13.6297 0.610105 0
    endloop
  endfacet
  facet normal 0 0 -1
    outer loop
      vertex -14.5365 -1.42658 0
      vertex -13.9963 -1.11472 0
      vertex 10 10 0
    endloop
  endfacet
  facet normal 0 0 -1
    outer loop
      vertex -13.5 0 0
      vertex -10 10 0
      vertex -13.6297 -0.610105 0
    endloop
  endfacet
  facet normal 0 0 -1
    outer loop
      vertex -13.9963 -1.11472 0
      vertex -13.6297 -0.610105 0
      vertex 10 10 0
    endloop
  endfacet
  facet normal 0 0 -1
    outer loop
      vertex -14.5365 1.42658 0
      vertex -10 10 0
      vertex -13.9963 1.11472 0
    endloop
  endfacet
  facet normal 0 0 -1
    outer loop
      vertex -15.1568 1.49178 0
      vertex -10 10 0
      vertex -14.5365 1.42658 0
    endloop
  endfacet
  facet normal 0 0 -1
    outer loop
      vertex -15.75 1.29904 0
      vertex -10 10 0
      vertex -15.1568 1.49178 0
    endloop
  endfacet
  facet normal 0 0 -1
    outer loop
      vertex -16.2135 0.881678 0
      vertex -10 10 0
      vertex -15.75 1.29904 0
    endloop
  endfacet
  facet normal 0 0 -1
    outer loop
      vertex -16.4672 0.311868 0
      vertex -20 5 0
      vertex -16.2135 0.881678 0
    endloop
  endfacet
  facet normal 0 0 -1
    outer loop
      vertex -0.156793 -1.49178 0
      vertex -17.5 -7 0
      vertex -0.75 -1.29904 0
    endloop
  endfacet
  facet normal 0 0 -1
    outer loop
      vertex -1.21352 0.881678 0
      vertex -17.5 -7 0
      vertex -0.75 1.29904 0
    endloop
  endfacet
  facet normal 0 0 -1
    outer loop
      vertex -17.5 -7 0
      vertex -1.46722 0.311868 0
      vertex -1.46722 -0.311868 0
    endloop
  endfacet
  facet normal 0 0 -1
    outer loop
      vertex -17.5 -7 0
      vertex -1.46722 -0.311868 0
      vertex -1.21352 -0.881678 0
    endloop
  endfacet
  facet normal 0 0 -1
    outer loop
      vertex -17.5 -7 0
      vertex -1.21352 -0.881678 0
      vertex -0.75 -1.29904 0
    endloop
  endfacet
  facet normal 0 0 -1
    outer loop
      vertex 1.37032 -0.610105 0
      vertex 20 5 0
      vertex 1.0037 -1.11472 0
    endloop
  endfacet
  facet normal 0 0 -1
    outer loop
      vertex -17.5 -7 0
      vertex -0.156793 -1.49178 0
      vertex 20 -5 0
    endloop
  endfacet
  facet normal 0 0 -1
    outer loop
      vertex -0.156793 -1.49178 0
      vertex 0.463525 -1.42658 0
      vertex 20 -5 0
    endloop
  endfacet
  facet normal 0 0 -1
    outer loop
      vertex 1.0037 -1.11472 0
      vertex 20 5 0
      vertex 0.463525 -1.42658 0
    endloop
  endfacet
  facet normal 0 0 -1
    outer loop
      vertex 1.5 0 0
      vertex 20 5 0
      vertex 1.37032 -0.610105 0
    endloop
  endfacet
  facet normal 0 0 -1
    outer loop
      vertex 1.37032 0.610105 0
      vertex 20 5 0
      vertex 1.5 0 0
    endloop
  endfacet
  facet normal 0 0 -1
    outer loop
      vertex 1.0037 1.11472 0
      vertex 20 5 0
      vertex 1.37032 0.610105 0
    endloop
  endfacet
  facet normal 0 0 -1
    outer loop
      vertex 0.463525 1.42658 0
      vertex 10 10 0
      vertex 1.0037 1.11472 0
    endloop
  endfacet
  facet normal 0 0 -1
    outer loop
      vertex -0.156793 1.49178 0
      vertex 10 10 0
      vertex 0.463525 1.42658 0
    endloop
  endfacet
  facet normal 0 0 -1
    outer loop
      vertex -0.75 1.29904 0
      vertex 10 10 0
      vertex -0.156793 1.49178 0
    endloop
  endfacet
  facet normal 0 0 -1
    outer loop
      vertex -17.5 -7 0
      vertex 10 10 0
      vertex -0.75 1.29904 0
    endloop
  endfacet
  facet normal 0 0 -1
    outer loop
      vertex 14.8432 -1.49178 0
      vertex 20 -5 0
      vertex 14.25 -1.29904 0
    endloop
  endfacet
  facet normal 0 0 -1
    outer loop
      vertex -17.5 -7 0
      vertex -1.21352 0.881678 0
      vertex -1.46722 0.311868 0
    endloop
  endfacet
  facet normal 0 0 -1
    outer loop
      vertex 0.463525 -1.42658 0
      vertex 13.5328 0.311868 0
      vertex 13.5328 -0.311868 0
    endloop
  endfacet
  facet normal 0 0 -1
    outer loop
      vertex 0.463525 -1.42658 0
      vertex 13.5328 -0.311868 0
      vertex 13.7865 -0.881678 0
    endloop
  endfacet
  facet normal 0 0 -1
    outer loop
      vertex 0.463525 -1.42658 0
      vertex 13.7865 -0.881678 0
      vertex 14.25 -1.29904 0
    endloop
  endfacet
  facet normal 0 0 -1
    outer loop
      vertex 0.463525 -1.42658 0
      vertex 14.25 -1.29904 0
      vertex 20 -5 0
    endloop
  endfacet
  facet normal 0 0 -1
    outer loop
      vertex 15.4635 -1.42658 0
      vertex 20 -5 0
      vertex 14.8432 -1.49178 0
    endloop
  endfacet
  facet normal 0 0 -1
    outer loop
      vertex 16.0037 -1.11472 0
      vertex 20 -5 0
      vertex 15.4635 -1.42658 0
    endloop
  endfacet
  facet normal 0 0 -1
    outer loop
      vertex 14.8432 1.49178 0
      vertex 20 5 0
      vertex 15.4635 1.42658 0
    endloop
  endfacet
  facet normal 0 0 -1
    outer loop
      vertex 16.5 0 0
      vertex 20 5 0
      vertex 16.3703 -0.610105 0
    endloop
  endfacet
  facet normal 0 0 -1
    outer loop
      vertex 16.0037 -1.11472 0
      vertex 16.3703 -0.610105 0
      vertex 20 -5 0
    endloop
  endfacet
  facet normal 0 0 -1
    outer loop
      vertex 16.3703 0.610105 0
      vertex 20 5 0
      vertex 16.5 0 0
    endloop
  endfacet
  facet normal 0 0 -1
    outer loop
      vertex 16.0037 1.11472 0
      vertex 20 5 0
      vertex 16.3703 0.610105 0
    endloop
  endfacet
  facet normal 0 0 -1
    outer loop
      vertex 15.4635 1.42658 0
      vertex 20 5 0
      vertex 16.0037 1.11472 0
    endloop
  endfacet
  facet normal 0 0 -1
    outer loop
      vertex 0.463525 -1.42658 0
      vertex 20 5 0
      vertex 14.8432 1.49178 0
    endloop
  endfacet
  facet normal 0 0 -1
    outer loop
      vertex 0.463525 -1.42658 0
      vertex 14.8432 1.49178 0
      vertex 14.25 1.29904 0
    endloop
  endfacet
  facet normal 0 0 -1
    outer loop
      vertex 0.463525 -1.42658 0
      vertex 14.25 1.29904 0
      vertex 13.7865 0.881678 0
    endloop
  endfacet
  facet normal 0 0 -1
    outer loop
      vertex 0.463525 -1.42658 0
      vertex 13.7865 0.881678 0
      vertex 13.5328 0.311868 0
    endloop
  endfacet
  facet normal 0 0 -1
    outer loop
      vertex -5 -10 0
      vertex 5 -15 0
      vertex 3.15039 -16 0
    endloop
  endfacet
  facet normal 0 0 -1
    outer loop
      vertex -5 -10 0
      vertex 3.15039 -16 0
      vertex 0 -17 0
    endloop
  endfacet
  facet normal 0 0 -1
    outer loop
      vertex -5 -10 0
      vertex 0 -17 0
      vertex -3.15039 -16 0
    endloop
  endfacet
  facet normal 0 0 -1
    outer loop
      vertex -5 -10 0
      vertex -3.15039 -16 0
      vertex -5 -15 0
    endloop
  endfacet
  facet normal 0 0 -1
    outer loop
      vertex -15 -8.5 0
      vertex -17.5 -7 0
      vertex -12.5 -9.5 0
    endloop
  endfacet
  facet normal 0 0 -1
    outer loop
      vertex -12.5 -9.5 0
      vertex -17.5 -7 0
      vertex -10 -10 0
    endloop
  endfacet
  facet normal 0 0 -1
    outer loop
      vertex -10 -10 0
      vertex -17.5 -7 0
      vertex -5 -10 0
    endloop
  endfacet
  facet normal -0.986013 0 0.166667
    outer loop
      vertex -20 -5 0
      vertex -19.6619 -4.40902 2
      vertex -20 5 0
    endloop
  endfacet
  facet normal -0.986013 0 0.166667
    outer loop
      vertex -20 5 0
      vertex -19.6619 -4.40902 2
      vertex -19.6619 5 2
    endloop
  endfacet
  facet normal -0.644548 -0.696736 0.314827
    outer loop
      vertex -19.6619 -4.40902 2
      vertex -20 -5 0
      vertex -17.5 -6.40902 2
    endloop
  endfacet
  facet normal -0.608701 -0.760877 0.224832
    outer loop
      vertex -17.5 -6.40902 2
      vertex -20 -5 0
      vertex -17.5 -7 0
    endloop
  endfacet
  facet normal -0.498735 -0.831225 0.245619
    outer loop
      vertex -17.5 -6.40902 2
      vertex -17.5 -7 0
      vertex -15 -8.5 0
    endloop
  endfacet
  facet normal -0.498735 -0.831225 0.245619
    outer loop
      vertex -15 -7.90902 2
      vertex -17.5 -6.40902 2
      vertex -15 -8.5 0
    endloop
  endfacet
  facet normal -0.358156 -0.89539 0.264579
    outer loop
      vertex -15 -7.90902 2
      vertex -15 -8.5 0
      vertex -12.5 -8.90902 2
    endloop
  endfacet
  facet normal -0.358156 -0.89539 0.264579
    outer loop
      vertex -12.5 -8.90902 2
      vertex -15 -8.5 0
      vertex -12.5 -9.5 0
    endloop
  endfacet
  facet normal -0.188368 -0.941841 0.278305
    outer loop
      vertex -12.5 -8.90902 2
      vertex -12.5 -9.5 0
      vertex -10 -10 0
    endloop
  endfacet
  facet normal -0.188368 -0.941841 0.278305
    outer loop
      vertex -10 -9.40902 2
      vertex -12.5 -8.90902 2
      vertex -10 -10 0
    endloop
  endfacet
  facet normal 0 -0.959008 0.283377
    outer loop
      vertex -10 -9.40902 2
      vertex -10 -10 0
      vertex -5 -10 0
    endloop
  endfacet
  facet normal 0 -0.959008 0.283377
    outer loop
      vertex -5 -9.40902 2
      vertex -10 -9.40902 2
      vertex -5 -10 0
    endloop
  endfacet
  facet normal -1 0 0
    outer loop
      vertex -5 -10 0
      vertex -5 -15 0
      vertex -5 -9.40902 2
    endloop
  endfacet
  facet normal -0.965627 -0.0875491 0.244742
    outer loop
      vertex -5 -9.40902 2
      vertex -5 -15 0
      vertex -4.49309 -15 2
    endloop
  endfacet
  facet normal -0.472177 -0.873342 0.119675
    outer loop
      vertex -4.49309 -15 2
      vertex -5 -15 0
      vertex -3.15039 -16 0
    endloop
  endfacet
  facet normal -0.472177 -0.873342 0.119675
    outer loop
      vertex -2.64349 -16 2
      vertex -4.49309 -15 2
      vertex -3.15039 -16 0
    endloop
  endfacet
  facet normal -0.301659 -0.950345 0.0764566
    outer loop
      vertex -2.64349 -16 2
      vertex -3.15039 -16 0
      vertex 0 -17 0
    endloop
  endfacet
  facet normal -0.353819 -0.935314 0
    outer loop
      vertex 0 -17 2
      vertex -2.64349 -16 2
      vertex 0 -17 0
    endloop
  endfacet
  facet normal 0.353819 -0.935314 0
    outer loop
      vertex 0 -17 2
      vertex 0 -17 0
      vertex 2.64349 -16 2
    endloop
  endfacet
  facet normal 0.301659 -0.950345 0.0764566
    outer loop
      vertex 2.64349 -16 2
      vertex 0 -17 0
      vertex 3.15039 -16 0
    endloop
  endfacet
  facet normal 0.472177 -0.873342 0.119675
    outer loop
      vertex 4.49309 -15 2
      vertex 2.64349 -16 2
      vertex 3.15039 -16 0
    endloop
  endfacet
  facet normal 0.472177 -0.873342 0.119675
    outer loop
      vertex 4.49309 -15 2
      vertex 3.15039 -16 0
      vertex 5 -15 0
    endloop
  endfacet
  facet normal 0.965627 -0.0875491 0.244742
    outer loop
      vertex 5 -9.40902 2
      vertex 4.49309 -15 2
      vertex 5 -15 0
    endloop
  endfacet
  facet normal 1 0 0
    outer loop
      vertex 5 -9.40902 2
      vertex 5 -15 0
      vertex 5 -10 0
    endloop
  endfacet
  facet normal 0 -0.959008 0.283377
    outer loop
      vertex 5 -9.40902 2
      vertex 5 -10 0
      vertex 10 -10 0
    endloop
  endfacet
  facet normal 0 -0.959008 0.283377
    outer loop
      vertex 10 -9.40902 2
      vertex 5 -9.40902 2
      vertex 10 -10 0
    endloop
  endfacet
  facet normal 0.188368 -0.941841 0.278305
    outer loop
      vertex 10 -9.40902 2
      vertex 10 -10 0
      vertex 12.5 -9.5 0
    endloop
  endfacet
  facet normal 0.188368 -0.941841 0.278305
    outer loop
      vertex 12.5 -8.90902 2
      vertex 10 -9.40902 2
      vertex 12.5 -9.5 0
    endloop
  endfacet
  facet normal 0.358156 -0.89539 0.264579
    outer loop
      vertex 12.5 -8.90902 2
      vertex 12.5 -9.5 0
      vertex 15 -8.5 0
    endloop
  endfacet
  facet normal 0.358156 -0.89539 0.264579
    outer loop
      vertex 15 -7.90902 2
      vertex 12.5 -8.90902 2
      vertex 15 -8.5 0
    endloop
  endfacet
  facet normal 0.498735 -0.831225 0.245619
    outer loop
      vertex 15 -7.90902 2
      vertex 15 -8.5 0
      vertex 17.5 -7 0
    endloop
  endfacet
  facet normal 0.498735 -0.831225 0.245619
    outer loop
      vertex 17.5 -6.40902 2
      vertex 15 -7.90902 2
      vertex 17.5 -7 0
    endloop
  endfacet
  facet normal 0.608701 -0.760877 0.224832
    outer loop
      vertex 17.5 -6.40902 2
      vertex 17.5 -7 0
      vertex 20 -5 0
    endloop
  endfacet
  facet normal 0.644548 -0.696736 0.314827
    outer loop
      vertex 19.6619 -4.40902 2
      vertex 17.5 -6.40902 2
      vertex 20 -5 0
    endloop
  endfacet
  facet normal 0.986013 0 0.166667
    outer loop
      vertex 19.6619 5 2
      vertex 19.6619 -4.40902 2
      vertex 20 -5 0
    endloop
  endfacet
  facet normal 0.986013 0 0.166667
    outer loop
      vertex 20 5 0
      vertex 19.6619 5 2
      vertex 20 -5 0
    endloop
  endfacet
  facet normal 0.445941 0.891883 0.0753778
    outer loop
      vertex 20 5 0
      vertex 10 10 0
      vertex 19.6619 5 2
    endloop
  endfacet
  facet normal 0.4596 0.888126 0
    outer loop
      vertex 19.6619 5 2
      vertex 10 10 0
      vertex 10 10 2
    endloop
  endfacet
  facet normal 0 1 0
    outer loop
      vertex -10 10 0
      vertex -10 10 2
      vertex 10 10 0
    endloop
  endfacet
  facet normal 0 1 0
    outer loop
      vertex 10 10 0
      vertex -10 10 2
      vertex 10 10 2
    endloop
  endfacet
  facet normal -0.4596 0.888126 0
    outer loop
      vertex -10 10 0
      vertex -19.6619 5 2
      vertex -10 10 2
    endloop
  endfacet
  facet normal -0.445941 0.891883 0.0753778
    outer loop
      vertex -10 10 0
      vertex -20 5 0
      vertex -19.6619 5 2
    endloop
  endfacet
  facet normal 0.913545 -0.406737 0
    outer loop
      vertex -16.2135 0.881678 0
      vertex -16.2135 0.881678 2.5
      vertex -16.4672 0.311868 2.5
    endloop
  endfacet
  facet normal 0.913545 -0.406737 0
    outer loop
      vertex -16.4672 0.311868 0
      vertex -16.2135 0.881678 0
      vertex -16.4672 0.311868 2.5
    endloop
  endfacet
  facet normal 1 0 0
    outer loop
      vertex -16.4672 0.311868 0
      vertex -16.4672 0.311868 2.5
      vertex -16.4672 -0.311868 2.5
    endloop
  endfacet
  facet normal 1 0 0
    outer loop
      vertex -16.4672 -0.311868 0
      vertex -16.4672 0.311868 0
      vertex -16.4672 -0.311868 2.5
    endloop
  endfacet
  facet normal 0.669131 -0.743145 0
    outer loop
      vertex -15.75 1.29904 0
      vertex -15.75 1.29904 2.5
      vertex -16.2135 0.881678 2.5
    endloop
  endfacet
  facet normal 0.669131 -0.743145 0
    outer loop
      vertex -16.2135 0.881678 0
      vertex -15.75 1.29904 0
      vertex -16.2135 0.881678 2.5
    endloop
  endfacet
  facet normal 0.309018 -0.951056 0
    outer loop
      vertex -15.1568 1.49178 0
      vertex -15.1568 1.49178 2.5
      vertex -15.75 1.29904 2.5
    endloop
  endfacet
  facet normal 0.309018 -0.951056 0
    outer loop
      vertex -15.75 1.29904 0
      vertex -15.1568 1.49178 0
      vertex -15.75 1.29904 2.5
    endloop
  endfacet
  facet normal -0.104528 -0.994522 0
    outer loop
      vertex -14.5365 1.42658 0
      vertex -14.5365 1.42658 2.5
      vertex -15.1568 1.49178 2.5
    endloop
  endfacet
  facet normal -0.104528 -0.994522 0
    outer loop
      vertex -15.1568 1.49178 0
      vertex -14.5365 1.42658 0
      vertex -15.1568 1.49178 2.5
    endloop
  endfacet
  facet normal -0.5 -0.866025 0
    outer loop
      vertex -13.9963 1.11472 0
      vertex -13.9963 1.11472 2.5
      vertex -14.5365 1.42658 2.5
    endloop
  endfacet
  facet normal -0.5 -0.866025 0
    outer loop
      vertex -14.5365 1.42658 0
      vertex -13.9963 1.11472 0
      vertex -14.5365 1.42658 2.5
    endloop
  endfacet
  facet normal -0.809017 -0.587785 0
    outer loop
      vertex -13.6297 0.610105 2.5
      vertex -13.9963 1.11472 2.5
      vertex -13.6297 0.610105 0
    endloop
  endfacet
  facet normal -0.809017 -0.587785 0
    outer loop
      vertex -13.6297 0.610105 0
      vertex -13.9963 1.11472 2.5
      vertex -13.9963 1.11472 0
    endloop
  endfacet
  facet normal -0.978148 -0.207912 0
    outer loop
      vertex -13.5 0 2.5
      vertex -13.6297 0.610105 2.5
      vertex -13.5 0 0
    endloop
  endfacet
  facet normal -0.978148 -0.207912 0
    outer loop
      vertex -13.5 0 0
      vertex -13.6297 0.610105 2.5
      vertex -13.6297 0.610105 0
    endloop
  endfacet
  facet normal -0.978148 0.207912 0
    outer loop
      vertex -13.5 0 2.5
      vertex -13.5 0 0
      vertex -13.6297 -0.610105 2.5
    endloop
  endfacet
  facet normal -0.978148 0.207912 0
    outer loop
      vertex -13.6297 -0.610105 2.5
      vertex -13.5 0 0
      vertex -13.6297 -0.610105 0
    endloop
  endfacet
  facet normal -0.809017 0.587785 0
    outer loop
      vertex -13.6297 -0.610105 2.5
      vertex -13.6297 -0.610105 0
      vertex -13.9963 -1.11472 2.5
    endloop
  endfacet
  facet normal -0.809017 0.587785 0
    outer loop
      vertex -13.9963 -1.11472 2.5
      vertex -13.6297 -0.610105 0
      vertex -13.9963 -1.11472 0
    endloop
  endfacet
  facet normal -0.5 0.866025 0
    outer loop
      vertex -13.9963 -1.11472 2.5
      vertex -13.9963 -1.11472 0
      vertex -14.5365 -1.42658 2.5
    endloop
  endfacet
  facet normal -0.5 0.866025 0
    outer loop
      vertex -14.5365 -1.42658 2.5
      vertex -13.9963 -1.11472 0
      vertex -14.5365 -1.42658 0
    endloop
  endfacet
  facet normal -0.104528 0.994522 0
    outer loop
      vertex -14.5365 -1.42658 2.5
      vertex -14.5365 -1.42658 0
      vertex -15.1568 -1.49178 2.5
    endloop
  endfacet
  facet normal -0.104528 0.994522 0
    outer loop
      vertex -15.1568 -1.49178 2.5
      vertex -14.5365 -1.42658 0
      vertex -15.1568 -1.49178 0
    endloop
  endfacet
  facet normal 0.309018 0.951056 0
    outer loop
      vertex -15.1568 -1.49178 2.5
      vertex -15.1568 -1.49178 0
      vertex -15.75 -1.29904 2.5
    endloop
  endfacet
  facet normal 0.309018 0.951056 0
    outer loop
      vertex -15.75 -1.29904 2.5
      vertex -15.1568 -1.49178 0
      vertex -15.75 -1.29904 0
    endloop
  endfacet
  facet normal 0.669131 0.743145 0
    outer loop
      vertex -15.75 -1.29904 2.5
      vertex -15.75 -1.29904 0
      vertex -16.2135 -0.881678 2.5
    endloop
  endfacet
  facet normal 0.669131 0.743145 0
    outer loop
      vertex -16.2135 -0.881678 2.5
      vertex -15.75 -1.29904 0
      vertex -16.2135 -0.881678 0
    endloop
  endfacet
  facet normal 0.913545 0.406737 0
    outer loop
      vertex -16.4672 -0.311868 2.5
      vertex -16.2135 -0.881678 2.5
      vertex -16.2135 -0.881678 0
    endloop
  endfacet
  facet normal 0.913545 0.406737 0
    outer loop
      vertex -16.4672 -0.311868 0
      vertex -16.4672 -0.311868 2.5
      vertex -16.2135 -0.881678 0
    endloop
  endfacet
  facet normal 1 0 0
    outer loop
      vertex -1.46722 0.311868 0
      vertex -1.46722 0.311868 4
      vertex -1.46722 -0.311868 4
    endloop
  endfacet
  facet normal 1 0 0
    outer loop
      vertex -1.46722 -0.311868 0
      vertex -1.46722 0.311868 0
      vertex -1.46722 -0.311868 4
    endloop
  endfacet
  facet normal 0.913545 -0.406737 0
    outer loop
      vertex -1.21352 0.881678 0
      vertex -1.21352 0.881678 4
      vertex -1.46722 0.311868 4
    endloop
  endfacet
  facet normal 0.913545 -0.406737 0
    outer loop
      vertex -1.46722 0.311868 0
      vertex -1.21352 0.881678 0
      vertex -1.46722 0.311868 4
    endloop
  endfacet
  facet normal 0.669131 -0.743145 0
    outer loop
      vertex -0.75 1.29904 0
      vertex -0.75 1.29904 4
      vertex -1.21352 0.881678 4
    endloop
  endfacet
  facet normal 0.669131 -0.743145 0
    outer loop
      vertex -1.21352 0.881678 0
      vertex -0.75 1.29904 0
      vertex -1.21352 0.881678 4
    endloop
  endfacet
  facet normal 0.309018 -0.951056 0
    outer loop
      vertex -0.156793 1.49178 0
      vertex -0.156793 1.49178 4
      vertex -0.75 1.29904 4
    endloop
  endfacet
  facet normal 0.309018 -0.951056 0
    outer loop
      vertex -0.75 1.29904 0
      vertex -0.156793 1.49178 0
      vertex -0.75 1.29904 4
    endloop
  endfacet
  facet normal -0.104528 -0.994522 0
    outer loop
      vertex 0.463525 1.42658 0
      vertex 0.463525 1.42658 4
      vertex -0.156793 1.49178 4
    endloop
  endfacet
  facet normal -0.104528 -0.994522 0
    outer loop
      vertex -0.156793 1.49178 0
      vertex 0.463525 1.42658 0
      vertex -0.156793 1.49178 4
    endloop
  endfacet
  facet normal -0.5 -0.866025 0
    outer loop
      vertex 1.0037 1.11472 0
      vertex 1.0037 1.11472 4
      vertex 0.463525 1.42658 4
    endloop
  endfacet
  facet normal -0.5 -0.866025 0
    outer loop
      vertex 0.463525 1.42658 0
      vertex 1.0037 1.11472 0
      vertex 0.463525 1.42658 4
    endloop
  endfacet
  facet normal -0.809017 -0.587785 0
    outer loop
      vertex 1.37032 0.610105 4
      vertex 1.0037 1.11472 4
      vertex 1.37032 0.610105 0
    endloop
  endfacet
  facet normal -0.809017 -0.587785 0
    outer loop
      vertex 1.37032 0.610105 0
      vertex 1.0037 1.11472 4
      vertex 1.0037 1.11472 0
    endloop
  endfacet
  facet normal -0.978148 -0.207912 0
    outer loop
      vertex 1.5 0 4
      vertex 1.37032 0.610105 4
      vertex 1.5 0 0
    endloop
  endfacet
  facet normal -0.978148 -0.207912 0
    outer loop
      vertex 1.5 0 0
      vertex 1.37032 0.610105 4
      vertex 1.37032 0.610105 0
    endloop
  endfacet
  facet normal -0.978148 0.207912 0
    outer loop
      vertex 1.5 0 4
      vertex 1.5 0 0
      vertex 1.37032 -0.610105 4
    endloop
  endfacet
  facet normal -0.978148 0.207912 0
    outer loop
      vertex 1.37032 -0.610105 4
      vertex 1.5 0 0
      vertex 1.37032 -0.610105 0
    endloop
  endfacet
  facet normal -0.809017 0.587785 0
    outer loop
      vertex 1.37032 -0.610105 4
      vertex 1.37032 -0.610105 0
      vertex 1.0037 -1.11472 4
    endloop
  endfacet
  facet normal -0.809017 0.587785 0
    outer loop
      vertex 1.0037 -1.11472 4
      vertex 1.37032 -0.610105 0
      vertex 1.0037 -1.11472 0
    endloop
  endfacet
  facet normal -0.5 0.866025 0
    outer loop
      vertex 1.0037 -1.11472 4
      vertex 1.0037 -1.11472 0
      vertex 0.463525 -1.42658 4
    endloop
  endfacet
  facet normal -0.5 0.866025 0
    outer loop
      vertex 0.463525 -1.42658 4
      vertex 1.0037 -1.11472 0
      vertex 0.463525 -1.42658 0
    endloop
  endfacet
  facet normal -0.104528 0.994522 0
    outer loop
      vertex 0.463525 -1.42658 4
      vertex 0.463525 -1.42658 0
      vertex -0.156793 -1.49178 4
    endloop
  endfacet
  facet normal -0.104528 0.994522 0
    outer loop
      vertex -0.156793 -1.49178 4
      vertex 0.463525 -1.42658 0
      vertex -0.156793 -1.49178 0
    endloop
  endfacet
  facet normal 0.309018 0.951056 0
    outer loop
      vertex -0.156793 -1.49178 4
      vertex -0.156793 -1.49178 0
      vertex -0.75 -1.29904 4
    endloop
  endfacet
  facet normal 0.309018 0.951056 0
    outer loop
      vertex -0.75 -1.29904 4
      vertex -0.156793 -1.49178 0
      vertex -0.75 -1.29904 0
    endloop
  endfacet
  facet normal 0.669131 0.743145 0
    outer loop
      vertex -0.75 -1.29904 4
      vertex -0.75 -1.29904 0
      vertex -1.21352 -0.881678 4
    endloop
  endfacet
  facet normal 0.669131 0.743145 0
    outer loop
      vertex -1.21352 -0.881678 4
      vertex -0.75 -1.29904 0
      vertex -1.21352 -0.881678 0
    endloop
  endfacet
  facet normal 0.913545 0.406737 0
    outer loop
      vertex -1.46722 -0.311868 4
      vertex -1.21352 -0.881678 4
      vertex -1.21352 -0.881678 0
    endloop
  endfacet
  facet normal 0.913545 0.406737 0
    outer loop
      vertex -1.46722 -0.311868 0
      vertex -1.46722 -0.311868 4
      vertex -1.21352 -0.881678 0
    endloop
  endfacet
  facet normal 0.913545 -0.406737 0
    outer loop
      vertex 13.7865 0.881678 0
      vertex 13.7865 0.881678 2.5
      vertex 13.5328 0.311868 2.5
    endloop
  endfacet
  facet normal 0.913545 -0.406737 0
    outer loop
      vertex 13.5328 0.311868 0
      vertex 13.7865 0.881678 0
      vertex 13.5328 0.311868 2.5
    endloop
  endfacet
  facet normal 1 0 0
    outer loop
      vertex 13.5328 0.311868 0
      vertex 13.5328 0.311868 2.5
      vertex 13.5328 -0.311868 2.5
    endloop
  endfacet
  facet normal 1 0 0
    outer loop
      vertex 13.5328 -0.311868 0
      vertex 13.5328 0.311868 0
      vertex 13.5328 -0.311868 2.5
    endloop
  endfacet
  facet normal 0.669131 -0.743145 0
    outer loop
      vertex 14.25 1.29904 0
      vertex 14.25 1.29904 2.5
      vertex 13.7865 0.881678 2.5
    endloop
  endfacet
  facet normal 0.669131 -0.743145 0
    outer loop
      vertex 13.7865 0.881678 0
      vertex 14.25 1.29904 0
      vertex 13.7865 0.881678 2.5
    endloop
  endfacet
  facet normal 0.309018 -0.951056 0
    outer loop
      vertex 14.8432 1.49178 0
      vertex 14.8432 1.49178 2.5
      vertex 14.25 1.29904 2.5
    endloop
  endfacet
  facet normal 0.309018 -0.951056 0
    outer loop
      vertex 14.25 1.29904 0
      vertex 14.8432 1.49178 0
      vertex 14.25 1.29904 2.5
    endloop
  endfacet
  facet normal -0.104528 -0.994522 0
    outer loop
      vertex 15.4635 1.42658 0
      vertex 15.4635 1.42658 2.5
      vertex 14.8432 1.49178 2.5
    endloop
  endfacet
  facet normal -0.104528 -0.994522 0
    outer loop
      vertex 14.8432 1.49178 0
      vertex 15.4635 1.42658 0
      vertex 14.8432 1.49178 2.5
    endloop
  endfacet
  facet normal -0.5 -0.866025 0
    outer loop
      vertex 16.0037 1.11472 0
      vertex 16.0037 1.11472 2.5
      vertex 15.4635 1.42658 2.5
    endloop
  endfacet
  facet normal -0.5 -0.866025 0
    outer loop
      vertex 15.4635 1.42658 0
      vertex 16.0037 1.11472 0
      vertex 15.4635 1.42658 2.5
    endloop
  endfacet
  facet normal -0.809017 -0.587785 0
    outer loop
      vertex 16.3703 0.610105 2.5
      vertex 16.0037 1.11472 2.5
      vertex 16.3703 0.610105 0
    endloop
  endfacet
  facet normal -0.809017 -0.587785 0
    outer loop
      vertex 16.3703 0.610105 0
      vertex 16.0037 1.11472 2.5
      vertex 16.0037 1.11472 0
    endloop
  endfacet
  facet normal -0.978148 -0.207912 0
    outer loop
      vertex 16.5 0 2.5
      vertex 16.3703 0.610105 2.5
      vertex 16.5 0 0
    endloop
  endfacet
  facet normal -0.978148 -0.207912 0
    outer loop
      vertex 16.5 0 0
      vertex 16.3703 0.610105 2.5
      vertex 16.3703 0.610105 0
    endloop
  endfacet
  facet normal -0.978148 0.207912 0
    outer loop
      vertex 16.5 0 2.5
      vertex 16.5 0 0
      vertex 16.3703 -0.610105 2.5
    endloop
  endfacet
  facet normal -0.978148 0.207912 0
    outer loop
      vertex 16.3703 -0.610105 2.5
      vertex 16.5 0 0
      vertex 16.3703 -0.610105 0
    endloop
  endfacet
  facet normal -0.809017 0.587785 0
    outer loop
      vertex 16.3703 -0.610105 2.5
      vertex 16.3703 -0.610105 0
      vertex 16.0037 -1.11472 2.5
    endloop
  endfacet
  facet normal -0.809017 0.587785 0
    outer loop
      vertex 16.0037 -1.11472 2.5
      vertex 16.3703 -0.610105 0
      vertex 16.0037 -1.11472 0
    endloop
  endfacet
  facet normal -0.5 0.866025 0
    outer loop
      vertex 16.0037 -1.11472 2.5
      vertex 16.0037 -1.11472 0
      vertex 15.4635 -1.42658 2.5
    endloop
  endfacet
  facet normal -0.5 0.866025 0
    outer loop
      vertex 15.4635 -1.42658 2.5
      vertex 16.0037 -1.11472 0
      vertex 15.4635 -1.42658 0
    endloop
  endfacet
  facet normal -0.104528 0.994522 0
    outer loop
      vertex 15.4635 -1.42658 2.5
      vertex 15.4635 -1.42658 0
      vertex 14.8432 -1.49178 2.5
    endloop
  endfacet
  facet normal -0.104528 0.994522 0
    outer loop
      vertex 14.8432 -1.49178 2.5
      vertex 15.4635 -1.42658 0
      vertex 14.8432 -1.49178 0
    endloop
  endfacet
  facet normal 0.309018 0.951056 0
    outer loop
      vertex 14.8432 -1.49178 2.5
      vertex 14.8432 -1.49178 0
      vertex 14.25 -1.29904 2.5
    endloop
  endfacet
  facet normal 0.309018 0.951056 0
    outer loop
      vertex 14.25 -1.29904 2.5
      vertex 14.8432 -1.49178 0
      vertex 14.25 -1.29904 0
    endloop
  endfacet
  facet normal 0.669131 0.743145 0
    outer loop
      vertex 14.25 -1.29904 2.5
      vertex 14.25 -1.29904 0
      vertex 13.7865 -0.881678 2.5
    endloop
  endfacet
  facet normal 0.669131 0.743145 0
    outer loop
      vertex 13.7865 -0.881678 2.5
      vertex 14.25 -1.29904 0
      vertex 13.7865 -0.881678 0
    endloop
  endfacet
  facet normal 0.913545 0.406737 0
    outer loop
      vertex 13.5328 -0.311868 2.5
      vertex 13.7865 -0.881678 2.5
      vertex 13.7865 -0.881678 0
    endloop
  endfacet
  facet normal 0.913545 0.406737 0
    outer loop
      vertex 13.5328 -0.311868 0
      vertex 13.5328 -0.311868 2.5
      vertex 13.7865 -0.881678 0
    endloop
  endfacet
  facet normal 0 0 1
    outer loop
      vertex -19.6619 5 2
      vertex -19.6619 -4.40902 2
      vertex -17.5 -6.40902 2
    endloop
  endfacet
  facet normal 0 0 1
    outer loop
      vertex -18 -3 2
      vertex -19.6619 5 2
      vertex -17.5 -6.40902 2
    endloop
  endfacet
  facet normal 0 0 1
    outer loop
      vertex -3 -14 2
      vertex -3 -11 2
      vertex -5 -9.40902 2
    endloop
  endfacet
  facet normal 0 0 1
    outer loop
      vertex -12 3 2
      vertex -8 8 2
      vertex -19.6619 5 2
    endloop
  endfacet
  facet normal 0 0 1
    outer loop
      vertex -2.64349 -16 2
      vertex -5 -9.40902 2
      vertex -4.49309 -15 2
    endloop
  endfacet
  facet normal 0 0 1
    outer loop
      vertex -3 -14 2
      vertex -5 -9.40902 2
      vertex -2.64349 -16 2
    endloop
  endfacet
  facet normal 0 0 1
    outer loop
      vertex 18 3 2
      vertex 18 -3 2
      vertex 19.6619 -4.40902 2
    endloop
  endfacet
  facet normal 0 0 1
    outer loop
      vertex 8 -8 2
      vertex -8 -8 2
      vertex -5 -9.40902 2
    endloop
  endfacet
  facet normal 0 0 1
    outer loop
      vertex 8 -8 2
      vertex -3 -11 2
      vertex 5 -9.40902 2
    endloop
  endfacet
  facet normal 0 0 1
    outer loop
      vertex 8 -8 2
      vertex 5 -9.40902 2
      vertex 10 -9.40902 2
    endloop
  endfacet
  facet normal 0 0 1
    outer loop
      vertex 12 -3 2
      vertex 15 -7.90902 2
      vertex 17.5 -6.40902 2
    endloop
  endfacet
  facet normal 0 0 1
    outer loop
      vertex 18 -3 2
      vertex 12 -3 2
      vertex 19.6619 -4.40902 2
    endloop
  endfacet
  facet normal 0 0 1
    outer loop
      vertex -15 -7.90902 2
      vertex -18 -3 2
      vertex -17.5 -6.40902 2
    endloop
  endfacet
  facet normal 0 0 1
    outer loop
      vertex -8 -8 2
      vertex -8 8 2
      vertex -12 3 2
    endloop
  endfacet
  facet normal 0 0 1
    outer loop
      vertex 8 8 2
      vertex 8 -8 2
      vertex 12.5 -8.90902 2
    endloop
  endfacet
  facet normal 0 0 1
    outer loop
      vertex 12 -3 2
      vertex 12.5 -8.90902 2
      vertex 15 -7.90902 2
    endloop
  endfacet
  facet normal 0 0 1
    outer loop
      vertex -8 -8 2
      vertex -12 -3 2
      vertex -10 -9.40902 2
    endloop
  endfacet
  facet normal 0 0 1
    outer loop
      vertex -8 -8 2
      vertex -12 3 2
      vertex -12 -3 2
    endloop
  endfacet
  facet normal 0 0 1
    outer loop
      vertex -5 -9.40902 2
      vertex -8 -8 2
      vertex -10 -9.40902 2
    endloop
  endfacet
  facet normal 0 0 1
    outer loop
      vertex -8 8 2
      vertex 8 8 2
      vertex 10 10 2
    endloop
  endfacet
  facet normal 0 0 1
    outer loop
      vertex -10 10 2
      vertex -8 8 2
      vertex 10 10 2
    endloop
  endfacet
  facet normal 0 0 1
    outer loop
      vertex -10 10 2
      vertex -19.6619 5 2
      vertex -8 8 2
    endloop
  endfacet
  facet normal 0 0 1
    outer loop
      vertex 10 10 2
      vertex 8 8 2
      vertex 19.6619 5 2
    endloop
  endfacet
  facet normal 0 0 1
    outer loop
      vertex 8 8 2
      vertex 12 3 2
      vertex 19.6619 5 2
    endloop
  endfacet
  facet normal 0 0 1
    outer loop
      vertex 12.5 -8.90902 2
      vertex 8 -8 2
      vertex 10 -9.40902 2
    endloop
  endfacet
  facet normal 0 0 1
    outer loop
      vertex 3 -11 2
      vertex 3 -14 2
      vertex 4.49309 -15 2
    endloop
  endfacet
  facet normal 0 0 1
    outer loop
      vertex 0 -17 2
      vertex -3 -14 2
      vertex -2.64349 -16 2
    endloop
  endfacet
  facet normal 0 0 1
    outer loop
      vertex 5 -9.40902 2
      vertex 3 -11 2
      vertex 4.49309 -15 2
    endloop
  endfacet
  facet normal 0 0 1
    outer loop
      vertex 5 -9.40902 2
      vertex -3 -11 2
      vertex 3 -11 2
    endloop
  endfacet
  facet normal 0 0 1
    outer loop
      vertex 4.49309 -15 2
      vertex 3 -14 2
      vertex 2.64349 -16 2
    endloop
  endfacet
  facet normal 0 0 1
    outer loop
      vertex 8 -8 2
      vertex -5 -9.40902 2
      vertex -3 -11 2
    endloop
  endfacet
  facet normal 0 0 1
    outer loop
      vertex 19.6619 -4.40902 2
      vertex 12 -3 2
      vertex 17.5 -6.40902 2
    endloop
  endfacet
  facet normal 0 0 1
    outer loop
      vertex 8 8 2
      vertex 12.5 -8.90902 2
      vertex 12 -3 2
    endloop
  endfacet
  facet normal 0 0 1
    outer loop
      vertex 19.6619 5 2
      vertex 18 3 2
      vertex 19.6619 -4.40902 2
    endloop
  endfacet
  facet normal 0 0 1
    outer loop
      vertex 19.6619 5 2
      vertex 12 3 2
      vertex 18 3 2
    endloop
  endfacet
  facet normal 0 0 1
    outer loop
      vertex 8 8 2
      vertex 12 -3 2
      vertex 12 3 2
    endloop
  endfacet
  facet normal 0 0 1
    outer loop
      vertex -18 -3 2
      vertex -18 3 2
      vertex -19.6619 5 2
    endloop
  endfacet
  facet normal 0 0 1
    outer loop
      vertex -12 -3 2
      vertex -12.5 -8.90902 2
      vertex -10 -9.40902 2
    endloop
  endfacet
  facet normal 0 0 1
    outer loop
      vertex -12 -3 2
      vertex -15 -7.90902 2
      vertex -12.5 -8.90902 2
    endloop
  endfacet
  facet normal 0 0 1
    outer loop
      vertex -12 -3 2
      vertex -18 -3 2
      vertex -15 -7.90902 2
    endloop
  endfacet
  facet normal 0 0 1
    outer loop
      vertex 3 -14 2
      vertex 0 -17 2
      vertex 2.64349 -16 2
    endloop
  endfacet
  facet normal 0 0 1
    outer loop
      vertex 3 -14 2
      vertex -3 -14 2
      vertex 0 -17 2
    endloop
  endfacet
  facet normal 0 0 1
    outer loop
      vertex -18 3 2
      vertex -12 3 2
      vertex -19.6619 5 2
    endloop
  endfacet
  facet normal 0 0 -1
    outer loop
      vertex -16.2135 0.881678 2.5
      vertex -15.75 1.29904 2.5
      vertex -16.4672 0.311868 2.5
    endloop
  endfacet
  facet normal 0 0 -1
    outer loop
      vertex -16.4672 0.311868 2.5
      vertex -15.75 1.29904 2.5
      vertex -15.1568 1.49178 2.5
    endloop
  endfacet
  facet normal 0 0 -1
    outer loop
      vertex -16.4672 0.311868 2.5
      vertex -15.1568 1.49178 2.5
      vertex -14.5365 1.42658 2.5
    endloop
  endfacet
  facet normal 0 0 -1
    outer loop
      vertex -16.4672 0.311868 2.5
      vertex -14.5365 1.42658 2.5
      vertex -13.9963 1.11472 2.5
    endloop
  endfacet
  facet normal 0 0 -1
    outer loop
      vertex -16.4672 0.311868 2.5
      vertex -13.9963 1.11472 2.5
      vertex -13.6297 0.610105 2.5
    endloop
  endfacet
  facet normal 0 0 -1
    outer loop
      vertex -16.4672 0.311868 2.5
      vertex -13.6297 0.610105 2.5
      vertex -13.5 0 2.5
    endloop
  endfacet
  facet normal 0 0 -1
    outer loop
      vertex -16.4672 0.311868 2.5
      vertex -13.5 0 2.5
      vertex -13.6297 -0.610105 2.5
    endloop
  endfacet
  facet normal 0 0 -1
    outer loop
      vertex -16.4672 0.311868 2.5
      vertex -13.6297 -0.610105 2.5
      vertex -13.9963 -1.11472 2.5
    endloop
  endfacet
  facet normal 0 0 -1
    outer loop
      vertex -16.4672 0.311868 2.5
      vertex -13.9963 -1.11472 2.5
      vertex -14.5365 -1.42658 2.5
    endloop
  endfacet
  facet normal 0 0 -1
    outer loop
      vertex -16.4672 0.311868 2.5
      vertex -14.5365 -1.42658 2.5
      vertex -15.1568 -1.49178 2.5
    endloop
  endfacet
  facet normal 0 0 -1
    outer loop
      vertex -16.4672 0.311868 2.5
      vertex -15.1568 -1.49178 2.5
      vertex -15.75 -1.29904 2.5
    endloop
  endfacet
  facet normal 0 0 -1
    outer loop
      vertex -16.4672 0.311868 2.5
      vertex -15.75 -1.29904 2.5
      vertex -16.2135 -0.881678 2.5
    endloop
  endfacet
  facet normal 0 0 -1
    outer loop
      vertex -16.4672 0.311868 2.5
      vertex -16.2135 -0.881678 2.5
      vertex -16.4672 -0.311868 2.5
    endloop
  endfacet
  facet normal 0 0 -1
    outer loop
      vertex -1.21352 0.881678 4
      vertex -0.75 1.29904 4
      vertex -1.46722 0.311868 4
    endloop
  endfacet
  facet normal 0 0 -1
    outer loop
      vertex -1.46722 0.311868 4
      vertex -0.75 1.29904 4
      vertex -0.156793 1.49178 4
    endloop
  endfacet
  facet normal 0 0 -1
    outer loop
      vertex -1.46722 0.311868 4
      vertex -0.156793 1.49178 4
      vertex 0.463525 1.42658 4
    endloop
  endfacet
  facet normal 0 0 -1
    outer loop
      vertex -1.46722 0.311868 4
      vertex 0.463525 1.42658 4
      vertex 1.0037 1.11472 4
    endloop
  endfacet
  facet normal 0 0 -1
    outer loop
      vertex -1.46722 0.311868 4
      vertex 1.0037 1.11472 4
      vertex 1.37032 0.610105 4
    endloop
  endfacet
  facet normal 0 0 -1
    outer loop
      vertex -1.46722 0.311868 4
      vertex 1.37032 0.610105 4
      vertex 1.5 0 4
    endloop
  endfacet
  facet normal 0 0 -1
    outer loop
      vertex -1.46722 0.311868 4
      vertex 1.5 0 4
      vertex 1.37032 -0.610105 4
    endloop
  endfacet
  facet normal 0 0 -1
    outer loop
      vertex -1.46722 0.311868 4
      vertex 1.37032 -0.610105 4
      vertex 1.0037 -1.11472 4
    endloop
  endfacet
  facet normal 0 0 -1
    outer loop
      vertex -1.46722 0.311868 4
      vertex 1.0037 -1.11472 4
      vertex 0.463525 -1.42658 4
    endloop
  endfacet
  facet normal 0 0 -1
    outer loop
      vertex -1.46722 0.311868 4
      vertex 0.463525 -1.42658 4
      vertex -0.156793 -1.49178 4
    endloop
  endfacet
  facet normal 0 0 -1
    outer loop
      vertex -1.46722 0.311868 4
      vertex -0.156793 -1.49178 4
      vertex -0.75 -1.29904 4
    endloop
  endfacet
  facet normal 0 0 -1
    outer loop
      vertex -1.46722 0.311868 4
      vertex -0.75 -1.29904 4
      vertex -1.21352 -0.881678 4
    endloop
  endfacet
  facet normal 0 0 -1
    outer loop
      vertex -1.46722 0.311868 4
      vertex -1.21352 -0.881678 4
      vertex -1.46722 -0.311868 4
    endloop
  endfacet
  facet normal 0 0 -1
    outer loop
      vertex 13.7865 0.881678 2.5
      vertex 14.25 1.29904 2.5
      vertex 13.5328 0.311868 2.5
    endloop
  endfacet
  facet normal 0 0 -1
    outer loop
      vertex 13.5328 0.311868 2.5
      vertex 14.25 1.29904 2.5
      vertex 14.8432 1.49178 2.5
    endloop
  endfacet
  facet normal 0 0 -1
    outer loop
      vertex 13.5328 0.311868 2.5
      vertex 14.8432 1.49178 2.5
      vertex 15.4635 1.42658 2.5
    endloop
  endfacet
  facet normal 0 0 -1
    outer loop
      vertex 13.5328 0.311868 2.5
      vertex 15.4635 1.42658 2.5
      vertex 16.0037 1.11472 2.5
    endloop
  endfacet
  facet normal 0 0 -1
    outer loop
      vertex 13.5328 0.311868 2.5
      vertex 16.0037 1.11472 2.5
      vertex 16.3703 0.610105 2.5
    endloop
  endfacet
  facet normal 0 0 -1
    outer loop
      vertex 13.5328 0.311868 2.5
      vertex 16.3703 0.610105 2.5
      vertex 16.5 0 2.5
    endloop
  endfacet
  facet normal 0 0 -1
    outer loop
      vertex 13.5328 0.311868 2.5
      vertex 16.5 0 2.5
      vertex 16.3703 -0.610105 2.5
    endloop
  endfacet
  facet normal 0 0 -1
    outer loop
      vertex 13.5328 0.311868 2.5
      vertex 16.3703 -0.610105 2.5
      vertex 16.0037 -1.11472 2.5
    endloop
  endfacet
  facet normal 0 0 -1
    outer loop
      vertex 13.5328 0.311868 2.5
      vertex 16.0037 -1.11472 2.5
      vertex 15.4635 -1.42658 2.5
    endloop
  endfacet
  facet normal 0 0 -1
    outer loop
      vertex 13.5328 0.311868 2.5
      vertex 15.4635 -1.42658 2.5
      vertex 14.8432 -1.49178 2.5
    endloop
  endfacet
  facet normal 0 0 -1
    outer loop
      vertex 13.5328 0.311868 2.5
      vertex 14.8432 -1.49178 2.5
      vertex 14.25 -1.29904 2.5
    endloop
  endfacet
  facet normal 0 0 -1
    outer loop
      vertex 13.5328 0.311868 2.5
      vertex 14.25 -1.29904 2.5
      vertex 13.7865 -0.881678 2.5
    endloop
  endfacet
  facet normal 0 0 -1
    outer loop
      vertex 13.5328 0.311868 2.5
      vertex 13.7865 -0.881678 2.5
      vertex 13.5328 -0.311868 2.5
    endloop
  endfacet
  facet normal 0 -1 -8.33333e-07
    outer loop
      vertex -12 -3 3.2
      vertex -18 -3 3.2
      vertex -18 -3 2
    endloop
  endfacet
  facet normal 0 -1 -8.33333e-07
    outer loop
      vertex -12 -3 2
      vertex -12 -3 3.2
      vertex -18 -3 2
    endloop
  endfacet
  facet normal -1 0 0
    outer loop
      vertex -18 -3 3.2
      vertex -18 3 3.2
      vertex -18 -3 2
    endloop
  endfacet
  facet normal -1 0 0
    outer loop
      vertex -18 -3 2
      vertex -18 3 3.2
      vertex -18 3 2
    endloop
  endfacet
  facet normal 1 0 0
    outer loop
      vertex -12 3 3.2
      vertex -12 -3 3.2
      vertex -12 -3 2
    endloop
  endfacet
  facet normal 1 0 0
    outer loop
      vertex -12 3 2
      vertex -12 3 3.2
      vertex -12 -3 2
    endloop
  endfacet
  facet normal 0 1 2.5e-06
    outer loop
      vertex -18 3 3.2
      vertex -12 3 3.2
      vertex -18 3 2
    endloop
  endfacet
  facet normal 0 1 2.5e-06
    outer loop
      vertex -18 3 2
      vertex -12 3 3.2
      vertex -12 3 2
    endloop
  endfacet
  facet normal -1 0 0
    outer loop
      vertex -8 -8 2
      vertex -8 -8 4
      vertex -8 8 2
    endloop
  endfacet
  facet normal -1 0 0
    outer loop
      vertex -8 8 2
      vertex -8 -8 4
      vertex -8 8 4
    endloop
  endfacet
  facet normal 0 -1 0
    outer loop
      vertex -8 -8 4
      vertex -8 -8 2
      vertex 8 -8 2
    endloop
  endfacet
  facet normal 0 -1 0
    outer loop
      vertex 8 -8 4
      vertex -8 -8 4
      vertex 8 -8 2
    endloop
  endfacet
  facet normal 1 0 0
    outer loop
      vertex 8 -8 4
      vertex 8 -8 2
      vertex 8 8 2
    endloop
  endfacet
  facet normal 1 0 0
    outer loop
      vertex 8 8 4
      vertex 8 -8 4
      vertex 8 8 2
    endloop
  endfacet
  facet normal 0 1 0
    outer loop
      vertex -8 8 2
      vertex -8 8 4
      vertex 8 8 2
    endloop
  endfacet
  facet normal 0 1 0
    outer loop
      vertex 8 8 2
      vertex -8 8 4
      vertex 8 8 4
    endloop
  endfacet
  facet normal 0 -0.943884 0.330276
    outer loop
      vertex -2.55841 -13.6501 3
      vertex -3 -14 2
      vertex 3 -14 2
    endloop
  endfacet
  facet normal 0 -0.943884 0.330276
    outer loop
      vertex 2.55841 -13.6501 3
      vertex -2.55841 -13.6501 3
      vertex 3 -14 2
    endloop
  endfacet
  facet normal -0.914776 0 0.403962
    outer loop
      vertex -3 -11 2
      vertex -3 -14 2
      vertex -2.55841 -13.6501 3
    endloop
  endfacet
  facet normal 0.914776 0 0.403962
    outer loop
      vertex 3 -11 2
      vertex 2.55841 -13.6501 3
      vertex 3 -14 2
    endloop
  endfacet
  facet normal 0 1 0
    outer loop
      vertex -3 -11 2
      vertex -3 -11 3
      vertex 3 -11 2
    endloop
  endfacet
  facet normal 0 1 0
    outer loop
      vertex 3 -11 2
      vertex -3 -11 3
      vertex 3 -11 3
    endloop
  endfacet
  facet normal 0.986399 -0.164368 0
    outer loop
      vertex 3 -11 3
      vertex 2.55841 -13.6501 3
      vertex 3 -11 2
    endloop
  endfacet
  facet normal -0.986399 -0.164368 0
    outer loop
      vertex -3 -11 3
      vertex -3 -11 2
      vertex -2.55841 -13.6501 3
    endloop
  endfacet
  facet normal -1 0 0
    outer loop
      vertex 12 -3 3.2
      vertex 12 3 3.2
      vertex 12 -3 2
    endloop
  endfacet
  facet normal -1 0 0
    outer loop
      vertex 12 -3 2
      vertex 12 3 3.2
      vertex 12 3 2
    endloop
  endfacet
  facet normal 0 -1 -8.33333e-07
    outer loop
      vertex 18 -3 3.2
      vertex 12 -3 3.2
      vertex 12 -3 2
    endloop
  endfacet
  facet normal 0 -1 -8.33333e-07
    outer loop
      vertex 18 -3 2
      vertex 18 -3 3.2
      vertex 12 -3 2
    endloop
  endfacet
  facet normal 1 0 0
    outer loop
      vertex 18 3 3.2
      vertex 18 -3 3.2
      vertex 18 -3 2
    endloop
  endfacet
  facet normal 1 0 0
    outer loop
      vertex 18 3 2
      vertex 18 3 3.2
      vertex 18 -3 2
    endloop
  endfacet
  facet normal 0 1 2.5e-06
    outer loop
      vertex 12 3 3.2
      vertex 18 3 3.2
      vertex 12 3 2
    endloop
  endfacet
  facet normal 0 1 2.5e-06
    outer loop
      vertex 12 3 2
      vertex 18 3 3.2
      vertex 18 3 2
    endloop
  endfacet
  facet normal 0 -0.0017545 0.999998
    outer loop
      vertex -16 -1 3.20351
      vertex -18 -3 3.2
      vertex -12 -3 3.2
    endloop
  endfacet
  facet normal 0 -0.0017545 0.999998
    outer loop
      vertex -14 -1 3.20351
      vertex -16 -1 3.20351
      vertex -12 -3 3.2
    endloop
  endfacet
  facet normal 0.0017545 0 0.999998
    outer loop
      vertex -14 0.999999 3.20351
      vertex -14 -1 3.20351
      vertex -12 -3 3.2
    endloop
  endfacet
  facet normal 0.0017545 0 0.999998
    outer loop
      vertex -12 3 3.2
      vertex -14 0.999999 3.20351
      vertex -12 -3 3.2
    endloop
  endfacet
  facet normal -0.0017545 0 0.999998
    outer loop
      vertex -18 3 3.2
      vertex -18 -3 3.2
      vertex -16 -1 3.20351
    endloop
  endfacet
  facet normal -0.0017545 0 0.999998
    outer loop
      vertex -16 0.999999 3.20351
      vertex -18 3 3.2
      vertex -16 -1 3.20351
    endloop
  endfacet
  facet normal 0 0.0017545 0.999998
    outer loop
      vertex -12 3 3.2
      vertex -18 3 3.2
      vertex -16 0.999999 3.20351
    endloop
  endfacet
  facet normal 0 0.0017545 0.999998
    outer loop
      vertex -14 0.999999 3.20351
      vertex -12 3 3.2
      vertex -16 0.999999 3.20351
    endloop
  endfacet
  facet normal 0 0 1
    outer loop
      vertex -6 -6 4
      vertex -8 -8 4
      vertex 8 -8 4
    endloop
  endfacet
  facet normal 0 0 1
    outer loop
      vertex -6 6 4
      vertex -8 8 4
      vertex -6 -6 4
    endloop
  endfacet
  facet normal 0 0 1
    outer loop
      vertex 6 -6 4
      vertex -6 -6 4
      vertex 8 -8 4
    endloop
  endfacet
  facet normal 0 0 1
    outer loop
      vertex -8 8 4
      vertex -8 -8 4
      vertex -6 -6 4
    endloop
  endfacet
  facet normal 0 0 1
    outer loop
      vertex 8 8 4
      vertex -8 8 4
      vertex -6 6 4
    endloop
  endfacet
  facet normal 0 0 1
    outer loop
      vertex 8 8 4
      vertex 6 6 4
      vertex 8 -8 4
    endloop
  endfacet
  facet normal 0 0 1
    outer loop
      vertex 8 8 4
      vertex -6 6 4
      vertex 6 6 4
    endloop
  endfacet
  facet normal 0 0 1
    outer loop
      vertex 6 6 4
      vertex 6 -6 4
      vertex 8 -8 4
    endloop
  endfacet
  facet normal 0 0 1
    outer loop
      vertex -2 -13 3
      vertex -3 -11 3
      vertex -2.55841 -13.6501 3
    endloop
  endfacet
  facet normal 0 0 1
    outer loop
      vertex -2 -12 3
      vertex 2 -12 3
      vertex 3 -11 3
    endloop
  endfacet
  facet normal 0 0 1
    outer loop
      vertex -2 -12 3
      vertex -3 -11 3
      vertex -2 -13 3
    endloop
  endfacet
  facet normal 0 0 1
    outer loop
      vertex 3 -11 3
      vertex -3 -11 3
      vertex -2 -12 3
    endloop
  endfacet
  facet normal 0 0 1
    outer loop
      vertex 2.55841 -13.6501 3
      vertex 3 -11 3
      vertex 2 -12 3
    endloop
  endfacet
  facet normal 0 0 1
    outer loop
      vertex 2.55841 -13.6501 3
      vertex 2 -13 3
      vertex -2.55841 -13.6501 3
    endloop
  endfacet
  facet normal 0 0 1
    outer loop
      vertex 2.55841 -13.6501 3
      vertex 2 -12 3
      vertex 2 -13 3
    endloop
  endfacet
  facet normal 0 0 1
    outer loop
      vertex 2 -13 3
      vertex -2 -13 3
      vertex -2.55841 -13.6501 3
    endloop
  endfacet
  facet normal -0.0017545 0 0.999998
    outer loop
      vertex 12 3 3.2
      vertex 12 -3 3.2
      vertex 14 -1 3.20351
    endloop
  endfacet
  facet normal -0.0017545 0 0.999998
    outer loop
      vertex 14 0.999999 3.20351
      vertex 12 3 3.2
      vertex 14 -1 3.20351
    endloop
  endfacet
  facet normal 0 0.0017545 0.999998
    outer loop
      vertex 18 3 3.2
      vertex 12 3 3.2
      vertex 14 0.999999 3.20351
    endloop
  endfacet
  facet normal 0 0.0017545 0.999998
    outer loop
      vertex 16 0.999999 3.20351
      vertex 18 3 3.2
      vertex 14 0.999999 3.20351
    endloop
  endfacet
  facet normal 0 -0.0017545 0.999998
    outer loop
      vertex 14 -1 3.20351
      vertex 12 -3 3.2
      vertex 18 -3 3.2
    endloop
  endfacet
  facet normal 0 -0.0017545 0.999998
    outer loop
      vertex 16 -1 3.20351
      vertex 14 -1 3.20351
      vertex 18 -3 3.2
    endloop
  endfacet
  facet normal 0.0017545 0 0.999998
    outer loop
      vertex 16 0.999999 3.20351
      vertex 16 -1 3.20351
      vertex 18 -3 3.2
    endloop
  endfacet
  facet normal 0.0017545 0 0.999998
    outer loop
      vertex 18 3 3.2
      vertex 16 0.999999 3.20351
      vertex 18 -3 3.2
    endloop
  endfacet
  facet normal -1 0 0
    outer loop
      vertex -16 -1 3.20351
      vertex -16 -1 4.4
      vertex -16 0.999999 3.20351
    endloop
  endfacet
  facet normal -1 0 0
    outer loop
      vertex -16 0.999999 3.20351
      vertex -16 -1 4.4
      vertex -16 0.999999 4.4
    endloop
  endfacet
  facet normal 0 -1 0
    outer loop
      vertex -16 -1 4.4
      vertex -16 -1 3.20351
      vertex -14 -1 3.20351
    endloop
  endfacet
  facet normal 0 -1 0
    outer loop
      vertex -14 -1 4.4
      vertex -16 -1 4.4
      vertex -14 -1 3.20351
    endloop
  endfacet
  facet normal 1 0 0
    outer loop
      vertex -14 -1 4.4
      vertex -14 -1 3.20351
      vertex -14 0.999999 3.20351
    endloop
  endfacet
  facet normal 1 0 0
    outer loop
      vertex -14 0.999999 4.4
      vertex -14 -1 4.4
      vertex -14 0.999999 3.20351
    endloop
  endfacet
  facet normal 0 1 0
    outer loop
      vertex -16 0.999999 3.20351
      vertex -16 0.999999 4.4
      vertex -14 0.999999 3.20351
    endloop
  endfacet
  facet normal 0 1 0
    outer loop
      vertex -14 0.999999 3.20351
      vertex -16 0.999999 4.4
      vertex -14 0.999999 4.4
    endloop
  endfacet
  facet normal -1 0 0
    outer loop
      vertex -6 -6 4
      vertex -6 -6 6
      vertex -6 6 4
    endloop
  endfacet
  facet normal -1 0 0
    outer loop
      vertex -6 6 4
      vertex -6 -6 6
      vertex -6 6 6
    endloop
  endfacet
  facet normal 0 -1 0
    outer loop
      vertex -6 -6 6
      vertex -6 -6 4
      vertex 6 -6 4
    endloop
  endfacet
  facet normal 0 -1 0
    outer loop
      vertex 6 -6 6
      vertex -6 -6 6
      vertex 6 -6 4
    endloop
  endfacet
  facet normal 1 0 0
    outer loop
      vertex 6 -6 6
      vertex 6 -6 4
      vertex 6 6 4
    endloop
  endfacet
  facet normal 1 0 0
    outer loop
      vertex 6 6 6
      vertex 6 -6 6
      vertex 6 6 4
    endloop
  endfacet
  facet normal 0 1 0
    outer loop
      vertex -6 6 4
      vertex -6 6 6
      vertex 6 6 4
    endloop
  endfacet
  facet normal 0 1 0
    outer loop
      vertex 6 6 4
      vertex -6 6 6
      vertex 6 6 6
    endloop
  endfacet
  facet normal -0.774149 0 0.633003
    outer loop
      vertex -2 -12 3
      vertex -2 -13 3
      vertex -1.55841 -12.7215 3.54006
    endloop
  endfacet
  facet normal 0 -0.888808 0.458279
    outer loop
      vertex -1.55841 -12.7215 3.54006
      vertex -2 -13 3
      vertex 2 -13 3
    endloop
  endfacet
  facet normal 0 -0.888808 0.458279
    outer loop
      vertex 1.55841 -12.7215 3.54006
      vertex -1.55841 -12.7215 3.54006
      vertex 2 -13 3
    endloop
  endfacet
  facet normal 0.774149 0 0.633003
    outer loop
      vertex 2 -12 3
      vertex 1.55841 -12.7215 3.54006
      vertex 2 -13 3
    endloop
  endfacet
  facet normal 0.852937 -0.522013 0
    outer loop
      vertex 2 -12 3.54006
      vertex 1.55841 -12.7215 3.54006
      vertex 2 -12 3
    endloop
  endfacet
  facet normal 0 1 0
    outer loop
      vertex -2 -12 3
      vertex -2 -12 3.54006
      vertex 2 -12 3
    endloop
  endfacet
  facet normal 0 1 0
    outer loop
      vertex 2 -12 3
      vertex -2 -12 3.54006
      vertex 2 -12 3.54006
    endloop
  endfacet
  facet normal -0.852937 -0.522013 0
    outer loop
      vertex -2 -12 3.54006
      vertex -2 -12 3
      vertex -1.55841 -12.7215 3.54006
    endloop
  endfacet
  facet normal 0 1 0
    outer loop
      vertex 14 0.999999 3.20351
      vertex 14 0.999999 4.4
      vertex 16 0.999999 3.20351
    endloop
  endfacet
  facet normal 0 1 0
    outer loop
      vertex 16 0.999999 3.20351
      vertex 14 0.999999 4.4
      vertex 16 0.999999 4.4
    endloop
  endfacet
  facet normal -1 0 0
    outer loop
      vertex 14 -1 3.20351
      vertex 14 -1 4.4
      vertex 14 0.999999 3.20351
    endloop
  endfacet
  facet normal -1 0 0
    outer loop
      vertex 14 0.999999 3.20351
      vertex 14 -1 4.4
      vertex 14 0.999999 4.4
    endloop
  endfacet
  facet normal 0 -1 0
    outer loop
      vertex 14 -1 4.4
      vertex 14 -1 3.20351
      vertex 16 -1 3.20351
    endloop
  endfacet
  facet normal 0 -1 0
    outer loop
      vertex 16 -1 4.4
      vertex 14 -1 4.4
      vertex 16 -1 3.20351
    endloop
  endfacet
  facet normal 1 0 0
    outer loop
      vertex 16 -1 4.4
      vertex 16 -1 3.20351
      vertex 16 0.999999 3.20351
    endloop
  endfacet
  facet normal 1 0 0
    outer loop
      vertex 16 0.999999 4.4
      vertex 16 -1 4.4
      vertex 16 0.999999 3.20351
    endloop
  endfacet
  facet normal 0 0 1
    outer loop
      vertex -16 0.999999 4.4
      vertex -16 -1 4.4
      vertex -14 -1 4.4
    endloop
  endfacet
  facet normal 0 0 1
    outer loop
      vertex -14 0.999999 4.4
      vertex -16 0.999999 4.4
      vertex -14 -1 4.4
    endloop
  endfacet
  facet normal 0 0 1
    outer loop
      vertex -4 -4 6
      vertex -6 -6 6
      vertex 6 -6 6
    endloop
  endfacet
  facet normal 0 0 1
    outer loop
      vertex -4 4 6
      vertex -6 6 6
      vertex -4 -4 6
    endloop
  endfacet
  facet normal 0 0 1
    outer loop
      vertex 4 -4 6
      vertex -4 -4 6
      vertex 6 -6 6
    endloop
  endfacet
  facet normal 0 0 1
    outer loop
      vertex -6 6 6
      vertex -6 -6 6
      vertex -4 -4 6
    endloop
  endfacet
  facet normal 0 0 1
    outer loop
      vertex 6 6 6
      vertex -6 6 6
      vertex -4 4 6
    endloop
  endfacet
  facet normal 0 0 1
    outer loop
      vertex 6 6 6
      vertex 4 4 6
      vertex 6 -6 6
    endloop
  endfacet
  facet normal 0 0 1
    outer loop
      vertex 6 6 6
      vertex -4 4 6
      vertex 4 4 6
    endloop
  endfacet
  facet normal 0 0 1
    outer loop
      vertex 4 4 6
      vertex 4 -4 6
      vertex 6 -6 6
    endloop
  endfacet
  facet normal 0 0 1
    outer loop
      vertex 2 -12 3.54006
      vertex -2 -12 3.54006
      vertex -1.55841 -12.7215 3.54006
    endloop
  endfacet
  facet normal 0 0 1
    outer loop
      vertex 1.55841 -12.7215 3.54006
      vertex 2 -12 3.54006
      vertex -1.55841 -12.7215 3.54006
    endloop
  endfacet
  facet normal 0 0 1
    outer loop
      vertex 14 0.999999 4.4
      vertex 14 -1 4.4
      vertex 16 -1 4.4
    endloop
  endfacet
  facet normal 0 0 1
    outer loop
      vertex 16 0.999999 4.4
      vertex 14 0.999999 4.4
      vertex 16 -1 4.4
    endloop
  endfacet
  facet normal -1 0 0
    outer loop
      vertex -4 -4 6
      vertex -4 -4 8
      vertex -4 4 6
    endloop
  endfacet
  facet normal -1 0 0
    outer loop
      vertex -4 4 6
      vertex -4 -4 8
      vertex -4 4 8
    endloop
  endfacet
  facet normal 0 -1 0
    outer loop
      vertex -4 -4 8
      vertex -4 -4 6
      vertex 4 -4 6
    endloop
  endfacet
  facet normal 0 -1 0
    outer loop
      vertex 4 -4 8
      vertex -4 -4 8
      vertex 4 -4 6
    endloop
  endfacet
  facet normal 1 0 0
    outer loop
      vertex 4 -4 8
      vertex 4 -4 6
      vertex 4 4 6
    endloop
  endfacet
  facet normal 1 0 0
    outer loop
      vertex 4 4 8
      vertex 4 -4 8
      vertex 4 4 6
    endloop
  endfacet
  facet normal 0 1 0
    outer loop
      vertex -4 4 6
      vertex -4 4 8
      vertex 4 4 6
    endloop
  endfacet
  facet normal 0 1 0
    outer loop
      vertex 4 4 6
      vertex -4 4 8
      vertex 4 4 8
    endloop
  endfacet
  facet normal 0 0 1
    outer loop
      vertex -2 -2 8
      vertex -4 -4 8
      vertex 4 -4 8
    endloop
  endfacet
  facet normal 0 0 1
    outer loop
      vertex -2 2 8
      vertex -4 4 8
      vertex -2 -2 8
    endloop
  endfacet
  facet normal 0 0 1
    outer loop
      vertex 2 -2 8
      vertex -2 -2 8
      vertex 4 -4 8
    endloop
  endfacet
  facet normal 0 0 1
    outer loop
      vertex -4 4 8
      vertex -4 -4 8
      vertex -2 -2 8
    endloop
  endfacet
  facet normal 0 0 1
    outer loop
      vertex 4 4 8
      vertex -4 4 8
      vertex -2 2 8
    endloop
  endfacet
  facet normal 0 0 1
    outer loop
      vertex 4 4 8
      vertex 2 2 8
      vertex 4 -4 8
    endloop
  endfacet
  facet normal 0 0 1
    outer loop
      vertex 4 4 8
      vertex -2 2 8
      vertex 2 2 8
    endloop
  endfacet
  facet normal 0 0 1
    outer loop
      vertex 2 2 8
      vertex 2 -2 8
      vertex 4 -4 8
    endloop
  endfacet
  facet normal 0 -1 0
    outer loop
      vertex -2 -2 10
      vertex -2 -2 8
      vertex 2 -2 8
    endloop
  endfacet
  facet normal 0 -1 0
    outer loop
      vertex 2 -2 10
      vertex -2 -2 10
      vertex 2 -2 8
    endloop
  endfacet
  facet normal -1 0 0
    outer loop
      vertex -2 -2 8
      vertex -2 -2 10
      vertex -2 2 8
    endloop
  endfacet
  facet normal -1 0 0
    outer loop
      vertex -2 2 8
      vertex -2 -2 10
      vertex -2 2 10
    endloop
  endfacet
  facet normal 1 0 0
    outer loop
      vertex 2 -2 10
      vertex 2 -2 8
      vertex 2 2 8
    endloop
  endfacet
  facet normal 1 0 0
    outer loop
      vertex 2 2 10
      vertex 2 -2 10
      vertex 2 2 8
    endloop
  endfacet
  facet normal 0 1 0
    outer loop
      vertex -2 2 8
      vertex -2 2 10
      vertex 2 2 8
    endloop
  endfacet
  facet normal 0 1 0
    outer loop
      vertex 2 2 8
      vertex -2 2 10
      vertex 2 2 10
    endloop
  endfacet
  facet normal 0 0 1
    outer loop
      vertex -2 2 10
      vertex -2 -2 10
      vertex 2 -2 10
    endloop
  endfacet
  facet normal 0 0 1
    outer loop
      vertex 2 2 10
      vertex -2 2 10
      vertex 2 -2 10
    endloop
  endfacet
endsolid OpenSCAD_Model
