solid OpenSCAD_Model
  facet normal -1 0 0
    outer loop
      vertex -9.31071 -7.20592 1.5
      vertex -9.31071 -6.58285 3.10771
      vertex -9.31071 6.99632 1.5
    endloop
  endfacet
  facet normal -1 0 0
    outer loop
      vertex -9.31071 6.99632 1.5
      vertex -9.31071 -6.58285 3.10771
      vertex -9.31071 6.99632 3.10771
    endloop
  endfacet
  facet normal -0.231508 -0.907095 0.351542
    outer loop
      vertex -9.31071 -6.58285 3.10771
      vertex -9.31071 -7.20592 1.5
      vertex -4.65535 -7.77099 3.10771
    endloop
  endfacet
  facet normal -0.229515 -0.910235 0.344667
    outer loop
      vertex -4.65535 -7.77099 3.10771
      vertex -9.31071 -7.20592 1.5
      vertex -4.65535 -8.37976 1.5
    endloop
  endfacet
  facet normal -0.178211 -0.70677 -0.684629
    outer loop
      vertex -4.65535 -8.37976 1.5
      vertex -9.31071 -7.20592 1.5
      vertex -8.05358 -6.06989 0
    endloop
  endfacet
  facet normal -0.766427 0 -0.642332
    outer loop
      vertex -9.31071 -7.20592 1.5
      vertex -9.31071 6.99632 1.5
      vertex -8.05358 -6.06989 0
    endloop
  endfacet
  facet normal -0.766427 0 -0.642332
    outer loop
      vertex -8.05358 -6.06989 0
      vertex -9.31071 6.99632 1.5
      vertex -8.05358 5.88865 0
    endloop
  endfacet
  facet normal 0 0.804439 -0.594035
    outer loop
      vertex -9.31071 6.99632 1.5
      vertex 9.31071 6.99632 1.5
      vertex -8.05358 5.88865 0
    endloop
  endfacet
  facet normal 0 0.804439 -0.594035
    outer loop
      vertex -8.05358 5.88865 0
      vertex 9.31071 6.99632 1.5
      vertex 8.05358 5.88865 0
    endloop
  endfacet
  facet normal 0 1 0
    outer loop
      vertex -9.31071 6.99632 1.5
      vertex -9.31071 6.99632 3.10771
      vertex 9.31071 6.99632 1.5
    endloop
  endfacet
  facet normal 0 1 0
    outer loop
      vertex 9.31071 6.99632 1.5
      vertex -9.31071 6.99632 3.10771
      vertex 9.31071 6.99632 3.10771
    endloop
  endfacet
  facet normal 0 0 1
    outer loop
      vertex -7.44856 -5.59706 3.10771
      vertex -9.31071 -6.58285 3.10771
      vertex -4.65535 -7.77099 3.10771
    endloop
  endfacet
  facet normal 0 0 1
    outer loop
      vertex -7.44856 5.59706 3.10771
      vertex 7.44856 5.59706 3.10771
      vertex -9.31071 6.99632 3.10771
    endloop
  endfacet
  facet normal 0 0 1
    outer loop
      vertex -9.31071 6.99632 3.10771
      vertex -9.31071 -6.58285 3.10771
      vertex -7.44856 -5.59706 3.10771
    endloop
  endfacet
  facet normal 0 0 1
    outer loop
      vertex 7.44856 5.59706 3.10771
      vertex 7.44856 -5.59706 3.10771
      vertex 9.31071 -6.58285 3.10771
    endloop
  endfacet
  facet normal 0 0 1
    outer loop
      vertex 9.31071 6.99632 3.10771
      vertex 7.44856 5.59706 3.10771
      vertex 9.31071 -6.58285 3.10771
    endloop
  endfacet
  facet normal 0 0 1
    outer loop
      vertex 9.31071 6.99632 3.10771
      vertex -9.31071 6.99632 3.10771
      vertex 7.44856 5.59706 3.10771
    endloop
  endfacet
  facet normal 0 0 1
    outer loop
      vertex 9.31071 -6.58285 3.10771
      vertex 7.44856 -5.59706 3.10771
      vertex 4.65535 -7.77099 3.10771
    endloop
  endfacet
  facet normal 0 0 1
    outer loop
      vertex -7.44856 -5.59706 3.10771
      vertex -7.44856 5.59706 3.10771
      vertex -9.31071 6.99632 3.10771
    endloop
  endfacet
  facet normal 0 0 1
    outer loop
      vertex 7.44856 -5.59706 3.10771
      vertex 0 -6.6 3.10771
      vertex 4.65535 -7.77099 3.10771
    endloop
  endfacet
  facet normal 0 0 1
    outer loop
      vertex 0 -6.6 3.10771
      vertex -7.44856 -5.59706 3.10771
      vertex -4.65535 -7.77099 3.10771
    endloop
  endfacet
  facet normal 0 0 1
    outer loop
      vertex 7.44856 -5.59706 3.10771
      vertex -7.44856 -5.59706 3.10771
      vertex 0 -6.6 3.10771
    endloop
  endfacet
  facet normal 0 0 1
    outer loop
      vertex -3.0444 -7 3.10771
      vertex -4.65535 -7.77099 3.10771
      vertex -3.39417 -12.315 3.10771
    endloop
  endfacet
  facet normal 0 0 1
    outer loop
      vertex -3.0444 -12.3834 3.10771
      vertex -3.0444 -7 3.10771
      vertex -3.39417 -12.315 3.10771
    endloop
  endfacet
  facet normal 0 0 1
    outer loop
      vertex 3.0444 -12.3834 3.10771
      vertex 0 -13.7143 3.10771
      vertex 2.46127 -13.0147 3.10771
    endloop
  endfacet
  facet normal 0 0 1
    outer loop
      vertex 3.0444 -12.3834 3.10771
      vertex -2.46127 -13.0147 3.10771
      vertex 0 -13.7143 3.10771
    endloop
  endfacet
  facet normal 0 0 1
    outer loop
      vertex 3.39417 -12.315 3.10771
      vertex 3.0444 -12.3834 3.10771
      vertex 2.46127 -13.0147 3.10771
    endloop
  endfacet
  facet normal 0 0 1
    outer loop
      vertex -2.46127 -13.0147 3.10771
      vertex -3.0444 -12.3834 3.10771
      vertex -3.39417 -12.315 3.10771
    endloop
  endfacet
  facet normal 0 0 1
    outer loop
      vertex 3.0444 -7 3.10771
      vertex 3.39417 -12.315 3.10771
      vertex 4.65535 -7.77099 3.10771
    endloop
  endfacet
  facet normal 0 0 1
    outer loop
      vertex 3.0444 -7 3.10771
      vertex 3.0444 -12.3834 3.10771
      vertex 3.39417 -12.315 3.10771
    endloop
  endfacet
  facet normal 0 0 1
    outer loop
      vertex 3.0444 -12.3834 3.10771
      vertex -3.0444 -12.3834 3.10771
      vertex -2.46127 -13.0147 3.10771
    endloop
  endfacet
  facet normal -0.958672 -0.266077 0.100752
    outer loop
      vertex -4.65535 -7.77099 3.10771
      vertex -4.65535 -8.37976 1.5
      vertex -3.39417 -12.315 3.10771
    endloop
  endfacet
  facet normal 0 0 -1
    outer loop
      vertex 0 -6.6 3.10771
      vertex -4.65535 -7.77099 3.10771
      vertex -3.0444 -7 3.10771
    endloop
  endfacet
  facet normal 0 -0.544627 -0.838678
    outer loop
      vertex -4.65535 -8.37976 1.5
      vertex -8.05358 -6.06989 0
      vertex -3.39822 -6.06989 0
    endloop
  endfacet
  facet normal -0.942222 -0.188963 0.276604
    outer loop
      vertex -3.39417 -12.315 3.10771
      vertex -4.65535 -8.37976 1.5
      vertex -3.86614 -12.315 1.5
    endloop
  endfacet
  facet normal -0.643896 -0.129133 -0.754137
    outer loop
      vertex -3.86614 -12.315 1.5
      vertex -4.65535 -8.37976 1.5
      vertex -2.609 -9.82346 0
    endloop
  endfacet
  facet normal -0.646287 -0.135886 -0.750898
    outer loop
      vertex -2.609 -9.82346 0
      vertex -4.65535 -8.37976 1.5
      vertex -3.39822 -6.06989 0
    endloop
  endfacet
  facet normal 0 0 -1
    outer loop
      vertex -8.05358 -6.06989 0
      vertex -8.05358 5.88865 0
      vertex -3.39822 -6.06989 0
    endloop
  endfacet
  facet normal 0 0 -1
    outer loop
      vertex -0.156793 1.49178 0
      vertex -8.05358 5.88865 0
      vertex 8.05358 5.88865 0
    endloop
  endfacet
  facet normal 0 0 -1
    outer loop
      vertex 3.39822 -6.06989 0
      vertex 8.05358 5.88865 0
      vertex 8.05358 -6.06989 0
    endloop
  endfacet
  facet normal 0 0 -1
    outer loop
      vertex -3.39822 -6.06989 0
      vertex 8.05358 5.88865 0
      vertex 3.39822 -6.06989 0
    endloop
  endfacet
  facet normal 0 0 -1
    outer loop
      vertex -2.609 -9.82346 0
      vertex 0 -12.7879 0
      vertex -2.93324 -12.0882 0
    endloop
  endfacet
  facet normal 0 0 -1
    outer loop
      vertex 3.39822 -6.06989 0
      vertex 2.609 -9.82346 0
      vertex -3.39822 -6.06989 0
    endloop
  endfacet
  facet normal 0 0 -1
    outer loop
      vertex 1.5 0 0
      vertex 8.05358 5.88865 0
      vertex 1.37032 -0.610105 0
    endloop
  endfacet
  facet normal 0 0 -1
    outer loop
      vertex 2.93324 -12.0882 0
      vertex 0 -12.7879 0
      vertex -2.609 -9.82346 0
    endloop
  endfacet
  facet normal 0 0 -1
    outer loop
      vertex -3.39822 -6.06989 0
      vertex -8.05358 5.88865 0
      vertex -1.46722 0.311868 0
    endloop
  endfacet
  facet normal 0 0 -1
    outer loop
      vertex -3.39822 -6.06989 0
      vertex -1.46722 0.311868 0
      vertex -1.46722 -0.311868 0
    endloop
  endfacet
  facet normal 0 0 -1
    outer loop
      vertex -3.39822 -6.06989 0
      vertex -1.46722 -0.311868 0
      vertex -1.21352 -0.881678 0
    endloop
  endfacet
  facet normal 0 0 -1
    outer loop
      vertex -3.39822 -6.06989 0
      vertex -1.21352 -0.881678 0
      vertex -0.75 -1.29904 0
    endloop
  endfacet
  facet normal 0 0 -1
    outer loop
      vertex -3.39822 -6.06989 0
      vertex -0.75 -1.29904 0
      vertex -0.156793 -1.49178 0
    endloop
  endfacet
  facet normal 0 0 -1
    outer loop
      vertex -3.39822 -6.06989 0
      vertex -0.156793 -1.49178 0
      vertex 0.463525 -1.42658 0
    endloop
  endfacet
  facet normal 0 0 -1
    outer loop
      vertex -3.39822 -6.06989 0
      vertex 0.463525 -1.42658 0
      vertex 1.0037 -1.11472 0
    endloop
  endfacet
  facet normal 0 0 -1
    outer loop
      vertex -3.39822 -6.06989 0
      vertex 1.0037 -1.11472 0
      vertex 8.05358 5.88865 0
    endloop
  endfacet
  facet normal 0 0 -1
    outer loop
      vertex 1.0037 -1.11472 0
      vertex 1.37032 -0.610105 0
      vertex 8.05358 5.88865 0
    endloop
  endfacet
  facet normal 0 0 -1
    outer loop
      vertex 1.37032 0.610105 0
      vertex 8.05358 5.88865 0
      vertex 1.5 0 0
    endloop
  endfacet
  facet normal 0 0 -1
    outer loop
      vertex 1.0037 1.11472 0
      vertex 8.05358 5.88865 0
      vertex 1.37032 0.610105 0
    endloop
  endfacet
  facet normal 0 0 -1
    outer loop
      vertex 0.463525 1.42658 0
      vertex 8.05358 5.88865 0
      vertex 1.0037 1.11472 0
    endloop
  endfacet
  facet normal 0 0 -1
    outer loop
      vertex -0.156793 1.49178 0
      vertex 8.05358 5.88865 0
      vertex 0.463525 1.42658 0
    endloop
  endfacet
  facet normal 0 0 -1
    outer loop
      vertex -0.75 1.29904 0
      vertex -8.05358 5.88865 0
      vertex -0.156793 1.49178 0
    endloop
  endfacet
  facet normal 0 0 -1
    outer loop
      vertex -1.21352 0.881678 0
      vertex -8.05358 5.88865 0
      vertex -0.75 1.29904 0
    endloop
  endfacet
  facet normal 0 0 -1
    outer loop
      vertex -1.46722 0.311868 0
      vertex -8.05358 5.88865 0
      vertex -1.21352 0.881678 0
    endloop
  endfacet
  facet normal 0 0 -1
    outer loop
      vertex -3.39822 -6.06989 0
      vertex 2.609 -9.82346 0
      vertex 2.93324 -12.0882 0
    endloop
  endfacet
  facet normal 0 0 -1
    outer loop
      vertex -3.39822 -6.06989 0
      vertex 2.93324 -12.0882 0
      vertex -2.609 -9.82346 0
    endloop
  endfacet
  facet normal 0.766427 0 -0.642332
    outer loop
      vertex 9.31071 -7.20592 1.5
      vertex 8.05358 -6.06989 0
      vertex 8.05358 5.88865 0
    endloop
  endfacet
  facet normal 0.766427 0 -0.642332
    outer loop
      vertex 9.31071 6.99632 1.5
      vertex 9.31071 -7.20592 1.5
      vertex 8.05358 5.88865 0
    endloop
  endfacet
  facet normal 1 0 0
    outer loop
      vertex 9.31071 -6.58285 3.10771
      vertex 9.31071 -7.20592 1.5
      vertex 9.31071 6.99632 1.5
    endloop
  endfacet
  facet normal 1 0 0
    outer loop
      vertex 9.31071 6.99632 3.10771
      vertex 9.31071 -6.58285 3.10771
      vertex 9.31071 6.99632 1.5
    endloop
  endfacet
  facet normal 0.231508 -0.907095 0.351542
    outer loop
      vertex 9.31071 -6.58285 3.10771
      vertex 4.65535 -7.77099 3.10771
      vertex 9.31071 -7.20592 1.5
    endloop
  endfacet
  facet normal 0 0 -1
    outer loop
      vertex 4.65535 -7.77099 3.10771
      vertex 0 -6.6 3.10771
      vertex 3.0444 -7 3.10771
    endloop
  endfacet
  facet normal 0.229515 -0.910235 0.344667
    outer loop
      vertex 4.65535 -7.77099 3.10771
      vertex 4.65535 -8.37976 1.5
      vertex 9.31071 -7.20592 1.5
    endloop
  endfacet
  facet normal 0.958672 -0.266077 0.100752
    outer loop
      vertex 4.65535 -7.77099 3.10771
      vertex 3.39417 -12.315 3.10771
      vertex 4.65535 -8.37976 1.5
    endloop
  endfacet
  facet normal 0 0 1
    outer loop
      vertex 0 -6.6 3.10771
      vertex -3.0444 -7 3.10771
      vertex 3.0444 -7 3.10771
    endloop
  endfacet
  facet normal 0 -1 0
    outer loop
      vertex -7.44856 -5.59706 4.71541
      vertex -7.44856 -5.59706 3.10771
      vertex 7.44856 -5.59706 3.10771
    endloop
  endfacet
  facet normal 0 -1 0
    outer loop
      vertex 7.44856 -5.59706 4.71541
      vertex -7.44856 -5.59706 4.71541
      vertex 7.44856 -5.59706 3.10771
    endloop
  endfacet
  facet normal -1 0 0
    outer loop
      vertex -7.44856 -5.59706 3.10771
      vertex -7.44856 -5.59706 4.71541
      vertex -7.44856 5.59706 3.10771
    endloop
  endfacet
  facet normal -1 0 0
    outer loop
      vertex -7.44856 5.59706 3.10771
      vertex -7.44856 -5.59706 4.71541
      vertex -7.44856 5.59706 4.71541
    endloop
  endfacet
  facet normal 1 0 0
    outer loop
      vertex 7.44856 -5.59706 4.71541
      vertex 7.44856 -5.59706 3.10771
      vertex 7.44856 5.59706 3.10771
    endloop
  endfacet
  facet normal 1 0 0
    outer loop
      vertex 7.44856 5.59706 4.71541
      vertex 7.44856 -5.59706 4.71541
      vertex 7.44856 5.59706 3.10771
    endloop
  endfacet
  facet normal 0 1 0
    outer loop
      vertex -7.44856 5.59706 3.10771
      vertex -7.44856 5.59706 4.71541
      vertex 7.44856 5.59706 3.10771
    endloop
  endfacet
  facet normal 0 1 0
    outer loop
      vertex 7.44856 5.59706 3.10771
      vertex -7.44856 5.59706 4.71541
      vertex 7.44856 5.59706 4.71541
    endloop
  endfacet
  facet normal 0 1 0
    outer loop
      vertex -3.0444 -7 3.10771
      vertex -2.57962 -7 3.91156
      vertex 3.0444 -7 3.10771
    endloop
  endfacet
  facet normal 0 1 0
    outer loop
      vertex 3.0444 -7 3.10771
      vertex -2.57962 -7 3.91156
      vertex 2.57962 -7 3.91156
    endloop
  endfacet
  facet normal -0.865671 0.0095054 0.500523
    outer loop
      vertex -2.57962 -7 3.91156
      vertex -3.0444 -7 3.10771
      vertex -2.63324 -11.8834 3.91156
    endloop
  endfacet
  facet normal -0.8903 0 0.455374
    outer loop
      vertex -3.0444 -7 3.10771
      vertex -3.0444 -12.3834 3.10771
      vertex -2.63324 -11.8834 3.91156
    endloop
  endfacet
  facet normal 0 -0.849137 0.528172
    outer loop
      vertex -2.63324 -11.8834 3.91156
      vertex -3.0444 -12.3834 3.10771
      vertex 3.0444 -12.3834 3.10771
    endloop
  endfacet
  facet normal 0 -0.849137 0.528172
    outer loop
      vertex 2.63324 -11.8834 3.91156
      vertex -2.63324 -11.8834 3.91156
      vertex 3.0444 -12.3834 3.10771
    endloop
  endfacet
  facet normal 0.8903 0 0.455374
    outer loop
      vertex 3.0444 -7 3.10771
      vertex 2.63324 -11.8834 3.91156
      vertex 3.0444 -12.3834 3.10771
    endloop
  endfacet
  facet normal 0.865671 0.0095054 0.500523
    outer loop
      vertex 3.0444 -7 3.10771
      vertex 2.57962 -7 3.91156
      vertex 2.63324 -11.8834 3.91156
    endloop
  endfacet
  facet normal 0.590882 -0.787889 0.173463
    outer loop
      vertex 3.39417 -12.315 3.10771
      vertex 2.93324 -13.0147 1.5
      vertex 3.86614 -12.315 1.5
    endloop
  endfacet
  facet normal 0.590883 -0.787888 0.173463
    outer loop
      vertex 3.39417 -12.315 3.10771
      vertex 2.46127 -13.0147 3.10771
      vertex 2.93324 -13.0147 1.5
    endloop
  endfacet
  facet normal 0.942222 -0.188963 0.276604
    outer loop
      vertex 4.65535 -8.37976 1.5
      vertex 3.39417 -12.315 3.10771
      vertex 3.86614 -12.315 1.5
    endloop
  endfacet
  facet normal 0.231474 -0.970465 0.0679528
    outer loop
      vertex 2.46127 -13.0147 3.10771
      vertex 0 -13.7143 1.5
      vertex 2.93324 -13.0147 1.5
    endloop
  endfacet
  facet normal 0.273425 -0.961893 0
    outer loop
      vertex 0 -13.7143 3.10771
      vertex 0 -13.7143 1.5
      vertex 2.46127 -13.0147 3.10771
    endloop
  endfacet
  facet normal -0.273425 -0.961893 0
    outer loop
      vertex 0 -13.7143 3.10771
      vertex -2.46127 -13.0147 3.10771
      vertex 0 -13.7143 1.5
    endloop
  endfacet
  facet normal -0.231474 -0.970465 0.0679528
    outer loop
      vertex -2.46127 -13.0147 3.10771
      vertex -2.93324 -13.0147 1.5
      vertex 0 -13.7143 1.5
    endloop
  endfacet
  facet normal -0.590883 -0.787888 0.173463
    outer loop
      vertex -2.46127 -13.0147 3.10771
      vertex -3.39417 -12.315 3.10771
      vertex -2.93324 -13.0147 1.5
    endloop
  endfacet
  facet normal -0.590882 -0.787889 0.173463
    outer loop
      vertex -3.39417 -12.315 3.10771
      vertex -3.86614 -12.315 1.5
      vertex -2.93324 -13.0147 1.5
    endloop
  endfacet
  facet normal -0.537898 -0.717239 -0.442983
    outer loop
      vertex -2.93324 -13.0147 1.5
      vertex -3.86614 -12.315 1.5
      vertex -2.93324 -12.0882 0
    endloop
  endfacet
  facet normal -0.850998 0.121833 -0.510842
    outer loop
      vertex -2.93324 -12.0882 0
      vertex -3.86614 -12.315 1.5
      vertex -2.609 -9.82346 0
    endloop
  endfacet
  facet normal -0.19888 -0.833811 -0.514981
    outer loop
      vertex 0 -12.7879 0
      vertex -2.93324 -13.0147 1.5
      vertex -2.93324 -12.0882 0
    endloop
  endfacet
  facet normal 0.19888 -0.833811 -0.514981
    outer loop
      vertex 2.93324 -13.0147 1.5
      vertex 0 -13.7143 1.5
      vertex 0 -12.7879 0
    endloop
  endfacet
  facet normal 0.19888 -0.833811 -0.514981
    outer loop
      vertex 2.93324 -13.0147 1.5
      vertex 0 -12.7879 0
      vertex 2.93324 -12.0882 0
    endloop
  endfacet
  facet normal -0.19888 -0.833811 -0.514981
    outer loop
      vertex 0 -13.7143 1.5
      vertex -2.93324 -13.0147 1.5
      vertex 0 -12.7879 0
    endloop
  endfacet
  facet normal 0.537898 -0.717239 -0.442983
    outer loop
      vertex 3.86614 -12.315 1.5
      vertex 2.93324 -13.0147 1.5
      vertex 2.93324 -12.0882 0
    endloop
  endfacet
  facet normal 0.850998 0.121833 -0.510842
    outer loop
      vertex 2.93324 -12.0882 0
      vertex 2.609 -9.82346 0
      vertex 3.86614 -12.315 1.5
    endloop
  endfacet
  facet normal 0.646287 -0.135886 -0.750898
    outer loop
      vertex 4.65535 -8.37976 1.5
      vertex 2.609 -9.82346 0
      vertex 3.39822 -6.06989 0
    endloop
  endfacet
  facet normal 0.643896 -0.129133 -0.754137
    outer loop
      vertex 3.86614 -12.315 1.5
      vertex 2.609 -9.82346 0
      vertex 4.65535 -8.37976 1.5
    endloop
  endfacet
  facet normal 0 -0.544627 -0.838678
    outer loop
      vertex 4.65535 -8.37976 1.5
      vertex 3.39822 -6.06989 0
      vertex 8.05358 -6.06989 0
    endloop
  endfacet
  facet normal 0.178211 -0.70677 -0.684629
    outer loop
      vertex 9.31071 -7.20592 1.5
      vertex 4.65535 -8.37976 1.5
      vertex 8.05358 -6.06989 0
    endloop
  endfacet
  facet normal 1 0 0
    outer loop
      vertex -1.46722 0.311868 0
      vertex -1.46722 0.311868 4
      vertex -1.46722 -0.311868 4
    endloop
  endfacet
  facet normal 1 0 0
    outer loop
      vertex -1.46722 -0.311868 0
      vertex -1.46722 0.311868 0
      vertex -1.46722 -0.311868 4
    endloop
  endfacet
  facet normal 0.913545 -0.406737 0
    outer loop
      vertex -1.21352 0.881678 0
      vertex -1.21352 0.881678 4
      vertex -1.46722 0.311868 4
    endloop
  endfacet
  facet normal 0.913545 -0.406737 0
    outer loop
      vertex -1.46722 0.311868 0
      vertex -1.21352 0.881678 0
      vertex -1.46722 0.311868 4
    endloop
  endfacet
  facet normal 0.669131 -0.743145 0
    outer loop
      vertex -0.75 1.29904 0
      vertex -0.75 1.29904 4
      vertex -1.21352 0.881678 4
    endloop
  endfacet
  facet normal 0.669131 -0.743145 0
    outer loop
      vertex -1.21352 0.881678 0
      vertex -0.75 1.29904 0
      vertex -1.21352 0.881678 4
    endloop
  endfacet
  facet normal 0.309018 -0.951056 0
    outer loop
      vertex -0.156793 1.49178 0
      vertex -0.156793 1.49178 4
      vertex -0.75 1.29904 4
    endloop
  endfacet
  facet normal 0.309018 -0.951056 0
    outer loop
      vertex -0.75 1.29904 0
      vertex -0.156793 1.49178 0
      vertex -0.75 1.29904 4
    endloop
  endfacet
  facet normal -0.104528 -0.994522 0
    outer loop
      vertex 0.463525 1.42658 0
      vertex 0.463525 1.42658 4
      vertex -0.156793 1.49178 4
    endloop
  endfacet
  facet normal -0.104528 -0.994522 0
    outer loop
      vertex -0.156793 1.49178 0
      vertex 0.463525 1.42658 0
      vertex -0.156793 1.49178 4
    endloop
  endfacet
  facet normal -0.5 -0.866025 0
    outer loop
      vertex 1.0037 1.11472 0
      vertex 1.0037 1.11472 4
      vertex 0.463525 1.42658 4
    endloop
  endfacet
  facet normal -0.5 -0.866025 0
    outer loop
      vertex 0.463525 1.42658 0
      vertex 1.0037 1.11472 0
      vertex 0.463525 1.42658 4
    endloop
  endfacet
  facet normal -0.809017 -0.587785 0
    outer loop
      vertex 1.37032 0.610105 4
      vertex 1.0037 1.11472 4
      vertex 1.37032 0.610105 0
    endloop
  endfacet
  facet normal -0.809017 -0.587785 0
    outer loop
      vertex 1.37032 0.610105 0
      vertex 1.0037 1.11472 4
      vertex 1.0037 1.11472 0
    endloop
  endfacet
  facet normal -0.978148 -0.207912 0
    outer loop
      vertex 1.5 0 4
      vertex 1.37032 0.610105 4
      vertex 1.5 0 0
    endloop
  endfacet
  facet normal -0.978148 -0.207912 0
    outer loop
      vertex 1.5 0 0
      vertex 1.37032 0.610105 4
      vertex 1.37032 0.610105 0
    endloop
  endfacet
  facet normal -0.978148 0.207912 0
    outer loop
      vertex 1.5 0 4
      vertex 1.5 0 0
      vertex 1.37032 -0.610105 4
    endloop
  endfacet
  facet normal -0.978148 0.207912 0
    outer loop
      vertex 1.37032 -0.610105 4
      vertex 1.5 0 0
      vertex 1.37032 -0.610105 0
    endloop
  endfacet
  facet normal -0.809017 0.587785 0
    outer loop
      vertex 1.37032 -0.610105 4
      vertex 1.37032 -0.610105 0
      vertex 1.0037 -1.11472 4
    endloop
  endfacet
  facet normal -0.809017 0.587785 0
    outer loop
      vertex 1.0037 -1.11472 4
      vertex 1.37032 -0.610105 0
      vertex 1.0037 -1.11472 0
    endloop
  endfacet
  facet normal -0.5 0.866025 0
    outer loop
      vertex 1.0037 -1.11472 4
      vertex 1.0037 -1.11472 0
      vertex 0.463525 -1.42658 4
    endloop
  endfacet
  facet normal -0.5 0.866025 0
    outer loop
      vertex 0.463525 -1.42658 4
      vertex 1.0037 -1.11472 0
      vertex 0.463525 -1.42658 0
    endloop
  endfacet
  facet normal -0.104528 0.994522 0
    outer loop
      vertex 0.463525 -1.42658 4
      vertex 0.463525 -1.42658 0
      vertex -0.156793 -1.49178 4
    endloop
  endfacet
  facet normal -0.104528 0.994522 0
    outer loop
      vertex -0.156793 -1.49178 4
      vertex 0.463525 -1.42658 0
      vertex -0.156793 -1.49178 0
    endloop
  endfacet
  facet normal 0.309018 0.951056 0
    outer loop
      vertex -0.156793 -1.49178 4
      vertex -0.156793 -1.49178 0
      vertex -0.75 -1.29904 4
    endloop
  endfacet
  facet normal 0.309018 0.951056 0
    outer loop
      vertex -0.75 -1.29904 4
      vertex -0.156793 -1.49178 0
      vertex -0.75 -1.29904 0
    endloop
  endfacet
  facet normal 0.669131 0.743145 0
    outer loop
      vertex -0.75 -1.29904 4
      vertex -0.75 -1.29904 0
      vertex -1.21352 -0.881678 4
    endloop
  endfacet
  facet normal 0.669131 0.743145 0
    outer loop
      vertex -1.21352 -0.881678 4
      vertex -0.75 -1.29904 0
      vertex -1.21352 -0.881678 0
    endloop
  endfacet
  facet normal 0.913545 0.406737 0
    outer loop
      vertex -1.46722 -0.311868 4
      vertex -1.21352 -0.881678 4
      vertex -1.21352 -0.881678 0
    endloop
  endfacet
  facet normal 0.913545 0.406737 0
    outer loop
      vertex -1.46722 -0.311868 0
      vertex -1.46722 -0.311868 4
      vertex -1.21352 -0.881678 0
    endloop
  endfacet
  facet normal 0 0 1
    outer loop
      vertex -5.58642 -4.19779 4.71541
      vertex -7.44856 -5.59706 4.71541
      vertex 7.44856 -5.59706 4.71541
    endloop
  endfacet
  facet normal 0 0 1
    outer loop
      vertex -7.44856 5.59706 4.71541
      vertex -7.44856 -5.59706 4.71541
      vertex -5.58642 -4.19779 4.71541
    endloop
  endfacet
  facet normal 0 0 1
    outer loop
      vertex -5.58642 4.19779 4.71541
      vertex 5.58642 4.19779 4.71541
      vertex -7.44856 5.59706 4.71541
    endloop
  endfacet
  facet normal 0 0 1
    outer loop
      vertex -7.44856 5.59706 4.71541
      vertex -5.58642 -4.19779 4.71541
      vertex -5.58642 4.19779 4.71541
    endloop
  endfacet
  facet normal 0 0 1
    outer loop
      vertex 7.44856 5.59706 4.71541
      vertex 5.58642 4.19779 4.71541
      vertex 7.44856 -5.59706 4.71541
    endloop
  endfacet
  facet normal 0 0 1
    outer loop
      vertex 7.44856 5.59706 4.71541
      vertex -7.44856 5.59706 4.71541
      vertex 5.58642 4.19779 4.71541
    endloop
  endfacet
  facet normal 0 0 1
    outer loop
      vertex 5.58642 4.19779 4.71541
      vertex 5.58642 -4.19779 4.71541
      vertex 7.44856 -5.59706 4.71541
    endloop
  endfacet
  facet normal 0 0 1
    outer loop
      vertex 5.58642 -4.19779 4.71541
      vertex -5.58642 -4.19779 4.71541
      vertex 7.44856 -5.59706 4.71541
    endloop
  endfacet
  facet normal 0 0 1
    outer loop
      vertex -1.86214 -11.3998 3.91156
      vertex -2.63324 -11.8834 3.91156
      vertex 2.63324 -11.8834 3.91156
    endloop
  endfacet
  facet normal 0 0 1
    outer loop
      vertex 1.86214 -11.3998 3.91156
      vertex -1.86214 -11.3998 3.91156
      vertex 2.63324 -11.8834 3.91156
    endloop
  endfacet
  facet normal 0 0 1
    outer loop
      vertex -2.57962 -7 3.91156
      vertex -2.63324 -11.8834 3.91156
      vertex -1.86214 -11.3998 3.91156
    endloop
  endfacet
  facet normal 0 0 1
    outer loop
      vertex 2.57962 -7 3.91156
      vertex -2.57962 -7 3.91156
      vertex -1.86214 -7.5 3.91156
    endloop
  endfacet
  facet normal 0 0 1
    outer loop
      vertex 2.57962 -7 3.91156
      vertex 1.86214 -7.5 3.91156
      vertex 2.63324 -11.8834 3.91156
    endloop
  endfacet
  facet normal 0 0 1
    outer loop
      vertex 2.57962 -7 3.91156
      vertex -1.86214 -7.5 3.91156
      vertex 1.86214 -7.5 3.91156
    endloop
  endfacet
  facet normal 0 0 1
    outer loop
      vertex 1.86214 -7.5 3.91156
      vertex 1.86214 -11.3998 3.91156
      vertex 2.63324 -11.8834 3.91156
    endloop
  endfacet
  facet normal 0 0 1
    outer loop
      vertex 0 -11.3834 3.91156
      vertex -1.86214 -11.3998 3.91156
      vertex 1.86214 -11.3998 3.91156
    endloop
  endfacet
  facet normal 0 0 1
    outer loop
      vertex -1.86214 -11.3998 3.91156
      vertex -1.86214 -7.5 3.91156
      vertex -2.57962 -7 3.91156
    endloop
  endfacet
  facet normal 0 0 -1
    outer loop
      vertex -1.21352 0.881678 4
      vertex -0.75 1.29904 4
      vertex -1.46722 0.311868 4
    endloop
  endfacet
  facet normal 0 0 -1
    outer loop
      vertex -1.46722 0.311868 4
      vertex -0.75 1.29904 4
      vertex -0.156793 1.49178 4
    endloop
  endfacet
  facet normal 0 0 -1
    outer loop
      vertex -1.46722 0.311868 4
      vertex -0.156793 1.49178 4
      vertex 0.463525 1.42658 4
    endloop
  endfacet
  facet normal 0 0 -1
    outer loop
      vertex -1.46722 0.311868 4
      vertex 0.463525 1.42658 4
      vertex 1.0037 1.11472 4
    endloop
  endfacet
  facet normal 0 0 -1
    outer loop
      vertex -1.46722 0.311868 4
      vertex 1.0037 1.11472 4
      vertex 1.37032 0.610105 4
    endloop
  endfacet
  facet normal 0 0 -1
    outer loop
      vertex -1.46722 0.311868 4
      vertex 1.37032 0.610105 4
      vertex 1.5 0 4
    endloop
  endfacet
  facet normal 0 0 -1
    outer loop
      vertex -1.46722 0.311868 4
      vertex 1.5 0 4
      vertex 1.37032 -0.610105 4
    endloop
  endfacet
  facet normal 0 0 -1
    outer loop
      vertex -1.46722 0.311868 4
      vertex 1.37032 -0.610105 4
      vertex 1.0037 -1.11472 4
    endloop
  endfacet
  facet normal 0 0 -1
    outer loop
      vertex -1.46722 0.311868 4
      vertex 1.0037 -1.11472 4
      vertex 0.463525 -1.42658 4
    endloop
  endfacet
  facet normal 0 0 -1
    outer loop
      vertex -1.46722 0.311868 4
      vertex 0.463525 -1.42658 4
      vertex -0.156793 -1.49178 4
    endloop
  endfacet
  facet normal 0 0 -1
    outer loop
      vertex -1.46722 0.311868 4
      vertex -0.156793 -1.49178 4
      vertex -0.75 -1.29904 4
    endloop
  endfacet
  facet normal 0 0 -1
    outer loop
      vertex -1.46722 0.311868 4
      vertex -0.75 -1.29904 4
      vertex -1.21352 -0.881678 4
    endloop
  endfacet
  facet normal 0 0 -1
    outer loop
      vertex -1.46722 0.311868 4
      vertex -1.21352 -0.881678 4
      vertex -1.46722 -0.311868 4
    endloop
  endfacet
  facet normal -1 0 0
    outer loop
      vertex -5.58642 -4.19779 4.71541
      vertex -5.58642 -4.19779 6.32311
      vertex -5.58642 4.19779 4.71541
    endloop
  endfacet
  facet normal -1 0 0
    outer loop
      vertex -5.58642 4.19779 4.71541
      vertex -5.58642 -4.19779 6.32311
      vertex -5.58642 4.19779 6.32311
    endloop
  endfacet
  facet normal 0 -1 0
    outer loop
      vertex -5.58642 -4.19779 6.32311
      vertex -5.58642 -4.19779 4.71541
      vertex 5.58642 -4.19779 4.71541
    endloop
  endfacet
  facet normal 0 -1 0
    outer loop
      vertex 5.58642 -4.19779 6.32311
      vertex -5.58642 -4.19779 6.32311
      vertex 5.58642 -4.19779 4.71541
    endloop
  endfacet
  facet normal 1 0 0
    outer loop
      vertex 5.58642 -4.19779 6.32311
      vertex 5.58642 -4.19779 4.71541
      vertex 5.58642 4.19779 4.71541
    endloop
  endfacet
  facet normal 1 0 0
    outer loop
      vertex 5.58642 4.19779 6.32311
      vertex 5.58642 -4.19779 6.32311
      vertex 5.58642 4.19779 4.71541
    endloop
  endfacet
  facet normal 0 1 0
    outer loop
      vertex -5.58642 4.19779 4.71541
      vertex -5.58642 4.19779 6.32311
      vertex 5.58642 4.19779 4.71541
    endloop
  endfacet
  facet normal 0 1 0
    outer loop
      vertex 5.58642 4.19779 4.71541
      vertex -5.58642 4.19779 6.32311
      vertex 5.58642 4.19779 6.32311
    endloop
  endfacet
  facet normal -0.814266 -0.0129989 0.580347
    outer loop
      vertex -1.505 -7.5 4.5
      vertex -1.86214 -11.3998 3.91156
      vertex -1.45098 -10.8834 4.5
    endloop
  endfacet
  facet normal 0.00660799 -0.753937 0.656913
    outer loop
      vertex -1.45098 -10.8834 4.5
      vertex -1.86214 -11.3998 3.91156
      vertex 0 -11.3834 3.91156
    endloop
  endfacet
  facet normal -0.854869 0 0.518844
    outer loop
      vertex -1.86214 -7.5 3.91156
      vertex -1.86214 -11.3998 3.91156
      vertex -1.505 -7.5 4.5
    endloop
  endfacet
  facet normal -0.00660799 -0.753937 0.656913
    outer loop
      vertex 1.45098 -10.8834 4.5
      vertex 0 -11.3834 3.91156
      vertex 1.86214 -11.3998 3.91156
    endloop
  endfacet
  facet normal 0 -0.762053 0.647515
    outer loop
      vertex 1.45098 -10.8834 4.5
      vertex -1.45098 -10.8834 4.5
      vertex 0 -11.3834 3.91156
    endloop
  endfacet
  facet normal 0.814266 -0.0129989 0.580347
    outer loop
      vertex 1.505 -7.5 4.5
      vertex 1.45098 -10.8834 4.5
      vertex 1.86214 -11.3998 3.91156
    endloop
  endfacet
  facet normal 0.854869 0 0.518844
    outer loop
      vertex 1.86214 -7.5 3.91156
      vertex 1.505 -7.5 4.5
      vertex 1.86214 -11.3998 3.91156
    endloop
  endfacet
  facet normal 0 1 0
    outer loop
      vertex -1.86214 -7.5 3.91156
      vertex -1.505 -7.5 4.5
      vertex 1.86214 -7.5 3.91156
    endloop
  endfacet
  facet normal 0 1 0
    outer loop
      vertex 1.86214 -7.5 3.91156
      vertex -1.505 -7.5 4.5
      vertex 1.505 -7.5 4.5
    endloop
  endfacet
  facet normal 0 0 1
    outer loop
      vertex -3.72428 -2.79853 6.32311
      vertex -5.58642 -4.19779 6.32311
      vertex 5.58642 -4.19779 6.32311
    endloop
  endfacet
  facet normal 0 0 1
    outer loop
      vertex -5.58642 4.19779 6.32311
      vertex -5.58642 -4.19779 6.32311
      vertex -3.72428 -2.79853 6.32311
    endloop
  endfacet
  facet normal 0 0 1
    outer loop
      vertex -3.72428 2.79853 6.32311
      vertex 3.72428 2.79853 6.32311
      vertex -5.58642 4.19779 6.32311
    endloop
  endfacet
  facet normal 0 0 1
    outer loop
      vertex -5.58642 4.19779 6.32311
      vertex -3.72428 -2.79853 6.32311
      vertex -3.72428 2.79853 6.32311
    endloop
  endfacet
  facet normal 0 0 1
    outer loop
      vertex 5.58642 4.19779 6.32311
      vertex 3.72428 2.79853 6.32311
      vertex 5.58642 -4.19779 6.32311
    endloop
  endfacet
  facet normal 0 0 1
    outer loop
      vertex 5.58642 4.19779 6.32311
      vertex -5.58642 4.19779 6.32311
      vertex 3.72428 2.79853 6.32311
    endloop
  endfacet
  facet normal 0 0 1
    outer loop
      vertex 3.72428 2.79853 6.32311
      vertex 3.72428 -2.79853 6.32311
      vertex 5.58642 -4.19779 6.32311
    endloop
  endfacet
  facet normal 0 0 1
    outer loop
      vertex 3.72428 -2.79853 6.32311
      vertex -3.72428 -2.79853 6.32311
      vertex 5.58642 -4.19779 6.32311
    endloop
  endfacet
  facet normal 0 0 1
    outer loop
      vertex 1.505 -7.5 4.5
      vertex -1.505 -7.5 4.5
      vertex -1.45098 -10.8834 4.5
    endloop
  endfacet
  facet normal 0 0 1
    outer loop
      vertex 1.45098 -10.8834 4.5
      vertex 1.505 -7.5 4.5
      vertex -1.45098 -10.8834 4.5
    endloop
  endfacet
  facet normal -1 0 0
    outer loop
      vertex -3.72428 -2.79853 6.32311
      vertex -3.72428 -2.79853 7.93082
      vertex -3.72428 2.79853 6.32311
    endloop
  endfacet
  facet normal -1 0 0
    outer loop
      vertex -3.72428 2.79853 6.32311
      vertex -3.72428 -2.79853 7.93082
      vertex -3.72428 2.79853 7.93082
    endloop
  endfacet
  facet normal 0 -1 0
    outer loop
      vertex -3.72428 -2.79853 7.93082
      vertex -3.72428 -2.79853 6.32311
      vertex 3.72428 -2.79853 6.32311
    endloop
  endfacet
  facet normal 0 -1 0
    outer loop
      vertex 3.72428 -2.79853 7.93082
      vertex -3.72428 -2.79853 7.93082
      vertex 3.72428 -2.79853 6.32311
    endloop
  endfacet
  facet normal 1 0 0
    outer loop
      vertex 3.72428 -2.79853 7.93082
      vertex 3.72428 -2.79853 6.32311
      vertex 3.72428 2.79853 6.32311
    endloop
  endfacet
  facet normal 1 0 0
    outer loop
      vertex 3.72428 2.79853 7.93082
      vertex 3.72428 -2.79853 7.93082
      vertex 3.72428 2.79853 6.32311
    endloop
  endfacet
  facet normal 0 1 0
    outer loop
      vertex -3.72428 2.79853 6.32311
      vertex -3.72428 2.79853 7.93082
      vertex 3.72428 2.79853 6.32311
    endloop
  endfacet
  facet normal 0 1 0
    outer loop
      vertex 3.72428 2.79853 6.32311
      vertex -3.72428 2.79853 7.93082
      vertex 3.72428 2.79853 7.93082
    endloop
  endfacet
  facet normal 0 0 1
    outer loop
      vertex -1.86214 -1.39926 7.93082
      vertex -3.72428 -2.79853 7.93082
      vertex 3.72428 -2.79853 7.93082
    endloop
  endfacet
  facet normal 0 0 1
    outer loop
      vertex 1.86214 -1.39926 7.93082
      vertex -1.86214 -1.39926 7.93082
      vertex 3.72428 -2.79853 7.93082
    endloop
  endfacet
  facet normal 0 0 1
    outer loop
      vertex -3.72428 2.79853 7.93082
      vertex -3.72428 -2.79853 7.93082
      vertex -1.86214 -1.39926 7.93082
    endloop
  endfacet
  facet normal 0 0 1
    outer loop
      vertex 3.72428 2.79853 7.93082
      vertex -3.72428 2.79853 7.93082
      vertex -1.86214 1.39926 7.93082
    endloop
  endfacet
  facet normal 0 0 1
    outer loop
      vertex 3.72428 2.79853 7.93082
      vertex 1.86214 1.39926 7.93082
      vertex 3.72428 -2.79853 7.93082
    endloop
  endfacet
  facet normal 0 0 1
    outer loop
      vertex 3.72428 2.79853 7.93082
      vertex -1.86214 1.39926 7.93082
      vertex 1.86214 1.39926 7.93082
    endloop
  endfacet
  facet normal 0 0 1
    outer loop
      vertex 1.86214 1.39926 7.93082
      vertex 1.86214 -1.39926 7.93082
      vertex 3.72428 -2.79853 7.93082
    endloop
  endfacet
  facet normal 0 0 1
    outer loop
      vertex -1.86214 -1.39926 7.93082
      vertex -1.86214 1.39926 7.93082
      vertex -3.72428 2.79853 7.93082
    endloop
  endfacet
  facet normal -1 0 0
    outer loop
      vertex -1.86214 -1.39926 7.93082
      vertex -1.86214 -1.39926 9.53852
      vertex -1.86214 1.39926 7.93082
    endloop
  endfacet
  facet normal -1 0 0
    outer loop
      vertex -1.86214 1.39926 7.93082
      vertex -1.86214 -1.39926 9.53852
      vertex -1.86214 1.39926 9.53852
    endloop
  endfacet
  facet normal 0 -1 0
    outer loop
      vertex -1.86214 -1.39926 9.53852
      vertex -1.86214 -1.39926 7.93082
      vertex 1.86214 -1.39926 7.93082
    endloop
  endfacet
  facet normal 0 -1 0
    outer loop
      vertex 1.86214 -1.39926 9.53852
      vertex -1.86214 -1.39926 9.53852
      vertex 1.86214 -1.39926 7.93082
    endloop
  endfacet
  facet normal 1 0 0
    outer loop
      vertex 1.86214 -1.39926 9.53852
      vertex 1.86214 -1.39926 7.93082
      vertex 1.86214 1.39926 7.93082
    endloop
  endfacet
  facet normal 1 0 0
    outer loop
      vertex 1.86214 1.39926 9.53852
      vertex 1.86214 -1.39926 9.53852
      vertex 1.86214 1.39926 7.93082
    endloop
  endfacet
  facet normal 0 1 0
    outer loop
      vertex -1.86214 1.39926 7.93082
      vertex -1.86214 1.39926 9.53852
      vertex 1.86214 1.39926 7.93082
    endloop
  endfacet
  facet normal 0 1 0
    outer loop
      vertex 1.86214 1.39926 7.93082
      vertex -1.86214 1.39926 9.53852
      vertex 1.86214 1.39926 9.53852
    endloop
  endfacet
  facet normal 0 0 1
    outer loop
      vertex -1.86214 1.39926 9.53852
      vertex -1.86214 -1.39926 9.53852
      vertex 1.86214 -1.39926 9.53852
    endloop
  endfacet
  facet normal 0 0 1
    outer loop
      vertex 1.86214 1.39926 9.53852
      vertex -1.86214 1.39926 9.53852
      vertex 1.86214 -1.39926 9.53852
    endloop
  endfacet
endsolid OpenSCAD_Model
